solid OpenSCAD_Model
  facet normal 0.207912 0 0.978148
    outer loop
      vertex 49.2092 20.3 7.83565
      vertex 49.5671 17.8 7.75959
      vertex 49.5671 20.3 7.75959
    endloop
  endfacet
  facet normal 0.207912 0 0.978148
    outer loop
      vertex 49.5671 17.8 7.75959
      vertex 49.2092 20.3 7.83565
      vertex 49.2092 17.8 7.83565
    endloop
  endfacet
  facet normal 0.587786 0 -0.809017
    outer loop
      vertex 48.579 17.8 10.8005
      vertex 48.875 20.3 11.0155
      vertex 48.875 17.8 11.0155
    endloop
  endfacet
  facet normal 0.587786 0 -0.809017
    outer loop
      vertex 48.875 20.3 11.0155
      vertex 48.579 17.8 10.8005
      vertex 48.579 20.3 10.8005
    endloop
  endfacet
  facet normal 0.866024 -0 0.500002
    outer loop
      vertex 48.1513 17.8 8.78821
      vertex 48.3342 20.3 8.47138
      vertex 48.1513 20.3 8.78821
    endloop
  endfacet
  facet normal 0.866024 0 0.500002
    outer loop
      vertex 48.3342 20.3 8.47138
      vertex 48.1513 17.8 8.78821
      vertex 48.3342 17.8 8.47138
    endloop
  endfacet
  facet normal 0.951058 -0 0.309014
    outer loop
      vertex 48.0382 17.8 9.13616
      vertex 48.1513 20.3 8.78821
      vertex 48.0382 20.3 9.13616
    endloop
  endfacet
  facet normal 0.951058 0 0.309014
    outer loop
      vertex 48.1513 20.3 8.78821
      vertex 48.0382 17.8 9.13616
      vertex 48.1513 17.8 8.78821
    endloop
  endfacet
  facet normal 0.587786 0 0.809017
    outer loop
      vertex 48.579 20.3 8.1995
      vertex 48.875 17.8 7.98446
      vertex 48.875 20.3 7.98446
    endloop
  endfacet
  facet normal 0.587786 0 0.809017
    outer loop
      vertex 48.875 17.8 7.98446
      vertex 48.579 20.3 8.1995
      vertex 48.579 17.8 8.1995
    endloop
  endfacet
  facet normal 0.406737 0 -0.913546
    outer loop
      vertex 48.875 17.8 11.0155
      vertex 49.2092 20.3 11.1643
      vertex 49.2092 17.8 11.1643
    endloop
  endfacet
  facet normal 0.406737 0 -0.913546
    outer loop
      vertex 49.2092 20.3 11.1643
      vertex 48.875 17.8 11.0155
      vertex 48.875 20.3 11.0155
    endloop
  endfacet
  facet normal -0 0 1
    outer loop
      vertex 49.5671 20.3 7.75959
      vertex 49.75 17.8 7.75959
      vertex 49.75 20.3 7.75959
    endloop
  endfacet
  facet normal 0 0 1
    outer loop
      vertex 49.75 17.8 7.75959
      vertex 49.5671 20.3 7.75959
      vertex 49.5671 17.8 7.75959
    endloop
  endfacet
  facet normal 0.994522 -0 0.10453
    outer loop
      vertex 48 17.8 9.5
      vertex 48.0382 20.3 9.13616
      vertex 48 20.3 9.5
    endloop
  endfacet
  facet normal 0.994522 0 0.10453
    outer loop
      vertex 48.0382 20.3 9.13616
      vertex 48 17.8 9.5
      vertex 48.0382 17.8 9.13616
    endloop
  endfacet
  facet normal 0.743146 -0 0.66913
    outer loop
      vertex 48.3342 17.8 8.47138
      vertex 48.579 20.3 8.1995
      vertex 48.3342 20.3 8.47138
    endloop
  endfacet
  facet normal 0.743146 0 0.66913
    outer loop
      vertex 48.579 20.3 8.1995
      vertex 48.3342 17.8 8.47138
      vertex 48.579 17.8 8.1995
    endloop
  endfacet
  facet normal 0.406737 0 0.913546
    outer loop
      vertex 48.875 20.3 7.98446
      vertex 49.2092 17.8 7.83565
      vertex 49.2092 20.3 7.83565
    endloop
  endfacet
  facet normal 0.406737 0 0.913546
    outer loop
      vertex 49.2092 17.8 7.83565
      vertex 48.875 20.3 7.98446
      vertex 48.875 17.8 7.98446
    endloop
  endfacet
  facet normal 0.207912 0 -0.978148
    outer loop
      vertex 49.2092 17.8 11.1643
      vertex 49.5671 20.3 11.2404
      vertex 49.5671 17.8 11.2404
    endloop
  endfacet
  facet normal 0.207912 0 -0.978148
    outer loop
      vertex 49.5671 20.3 11.2404
      vertex 49.2092 17.8 11.1643
      vertex 49.2092 20.3 11.1643
    endloop
  endfacet
  facet normal 0.743146 0 -0.66913
    outer loop
      vertex 48.579 17.8 10.8005
      vertex 48.3342 20.3 10.5286
      vertex 48.579 20.3 10.8005
    endloop
  endfacet
  facet normal 0.743146 0 -0.66913
    outer loop
      vertex 48.3342 20.3 10.5286
      vertex 48.579 17.8 10.8005
      vertex 48.3342 17.8 10.5286
    endloop
  endfacet
  facet normal 0.951058 0 -0.309014
    outer loop
      vertex 48.1513 17.8 10.2118
      vertex 48.0382 20.3 9.86385
      vertex 48.1513 20.3 10.2118
    endloop
  endfacet
  facet normal 0.951058 0 -0.309014
    outer loop
      vertex 48.0382 20.3 9.86385
      vertex 48.1513 17.8 10.2118
      vertex 48.0382 17.8 9.86385
    endloop
  endfacet
  facet normal 0.994522 0 -0.10453
    outer loop
      vertex 48.0382 17.8 9.86385
      vertex 48 20.3 9.5
      vertex 48.0382 20.3 9.86385
    endloop
  endfacet
  facet normal 0.994522 0 -0.10453
    outer loop
      vertex 48 20.3 9.5
      vertex 48.0382 17.8 9.86385
      vertex 48 17.8 9.5
    endloop
  endfacet
  facet normal 0 0 -1
    outer loop
      vertex 49.5671 17.8 11.2404
      vertex 49.75 20.3 11.2404
      vertex 49.75 17.8 11.2404
    endloop
  endfacet
  facet normal -0 0 -1
    outer loop
      vertex 49.75 20.3 11.2404
      vertex 49.5671 17.8 11.2404
      vertex 49.5671 20.3 11.2404
    endloop
  endfacet
  facet normal 0.866024 0 -0.500002
    outer loop
      vertex 48.3342 17.8 10.5286
      vertex 48.1513 20.3 10.2118
      vertex 48.3342 20.3 10.5286
    endloop
  endfacet
  facet normal 0.866024 0 -0.500002
    outer loop
      vertex 48.1513 20.3 10.2118
      vertex 48.3342 17.8 10.5286
      vertex 48.1513 17.8 10.2118
    endloop
  endfacet
  facet normal 1 -0 0
    outer loop
      vertex 49.75 17.8 11.25
      vertex 49.75 20.3 11.2404
      vertex 49.75 20.3 11.25
    endloop
  endfacet
  facet normal 1 0 0
    outer loop
      vertex 49.75 20.3 11.2404
      vertex 49.75 17.8 11.25
      vertex 49.75 17.8 11.2404
    endloop
  endfacet
  facet normal 1 -0 0
    outer loop
      vertex 49.75 17.8 7.75959
      vertex 49.75 20.3 7.75
      vertex 49.75 20.3 7.75959
    endloop
  endfacet
  facet normal 1 0 0
    outer loop
      vertex 49.75 20.3 7.75
      vertex 49.75 17.8 7.75959
      vertex 49.75 17.8 7.75
    endloop
  endfacet
  facet normal 0 0 -1
    outer loop
      vertex 49.75 17.8 11.25
      vertex 52.75 20.3 11.25
      vertex 52.75 17.8 11.25
    endloop
  endfacet
  facet normal -0 0 -1
    outer loop
      vertex 52.75 20.3 11.25
      vertex 49.75 17.8 11.25
      vertex 49.75 20.3 11.25
    endloop
  endfacet
  facet normal -1 0 0
    outer loop
      vertex 52.75 17.8 11.2404
      vertex 52.75 20.3 11.25
      vertex 52.75 20.3 11.2404
    endloop
  endfacet
  facet normal -1 -0 0
    outer loop
      vertex 52.75 20.3 11.25
      vertex 52.75 17.8 11.2404
      vertex 52.75 17.8 11.25
    endloop
  endfacet
  facet normal -1 0 0
    outer loop
      vertex 52.75 17.8 7.75
      vertex 52.75 20.3 7.75959
      vertex 52.75 20.3 7.75
    endloop
  endfacet
  facet normal -1 -0 0
    outer loop
      vertex 52.75 20.3 7.75959
      vertex 52.75 17.8 7.75
      vertex 52.75 17.8 7.75959
    endloop
  endfacet
  facet normal -0 0 1
    outer loop
      vertex 49.75 20.3 7.75
      vertex 52.75 17.8 7.75
      vertex 52.75 20.3 7.75
    endloop
  endfacet
  facet normal 0 0 1
    outer loop
      vertex 52.75 17.8 7.75
      vertex 49.75 20.3 7.75
      vertex 49.75 17.8 7.75
    endloop
  endfacet
  facet normal -0.99453 0 0.10445
    outer loop
      vertex 54.4618 17.8 9.13616
      vertex 54.4632 20.3 9.14963
      vertex 54.4618 20.3 9.13616
    endloop
  endfacet
  facet normal -0.994521 -4.53126e-007 0.104533
    outer loop
      vertex 54.4632 20.3 9.14963
      vertex 54.4618 17.8 9.13616
      vertex 54.4986 17.8 9.48652
    endloop
  endfacet
  facet normal -0.994521 -4.91468e-007 0.104533
    outer loop
      vertex 54.4986 17.8 9.48652
      vertex 54.5 20.3 9.5
      vertex 54.4632 20.3 9.14963
    endloop
  endfacet
  facet normal -0.99453 -3.98446e-008 0.10445
    outer loop
      vertex 54.5 20.3 9.5
      vertex 54.4986 17.8 9.48652
      vertex 54.5 17.8 9.5
    endloop
  endfacet
  facet normal -0.587786 0 0.809017
    outer loop
      vertex 53.625 20.3 7.98446
      vertex 53.921 17.8 8.1995
      vertex 53.921 20.3 8.1995
    endloop
  endfacet
  facet normal -0.587786 0 0.809017
    outer loop
      vertex 53.921 17.8 8.1995
      vertex 53.625 20.3 7.98446
      vertex 53.625 17.8 7.98446
    endloop
  endfacet
  facet normal -0.951058 0 -0.309014
    outer loop
      vertex 54.4618 17.8 9.86385
      vertex 54.3487 20.3 10.2118
      vertex 54.4618 20.3 9.86385
    endloop
  endfacet
  facet normal -0.951058 -0 -0.309014
    outer loop
      vertex 54.3487 20.3 10.2118
      vertex 54.4618 17.8 9.86385
      vertex 54.3487 17.8 10.2118
    endloop
  endfacet
  facet normal -0.866024 0 0.500002
    outer loop
      vertex 54.1658 17.8 8.47138
      vertex 54.3487 20.3 8.78821
      vertex 54.1658 20.3 8.47138
    endloop
  endfacet
  facet normal -0.866024 0 0.500002
    outer loop
      vertex 54.3487 20.3 8.78821
      vertex 54.1658 17.8 8.47138
      vertex 54.3487 17.8 8.78821
    endloop
  endfacet
  facet normal -0.951058 0 0.309014
    outer loop
      vertex 54.3487 17.8 8.78821
      vertex 54.4618 20.3 9.13616
      vertex 54.3487 20.3 8.78821
    endloop
  endfacet
  facet normal -0.951058 0 0.309014
    outer loop
      vertex 54.4618 20.3 9.13616
      vertex 54.3487 17.8 8.78821
      vertex 54.4618 17.8 9.13616
    endloop
  endfacet
  facet normal -0.743146 0 0.66913
    outer loop
      vertex 53.921 17.8 8.1995
      vertex 54.1658 20.3 8.47138
      vertex 53.921 20.3 8.1995
    endloop
  endfacet
  facet normal -0.743146 0 0.66913
    outer loop
      vertex 54.1658 20.3 8.47138
      vertex 53.921 17.8 8.1995
      vertex 54.1658 17.8 8.47138
    endloop
  endfacet
  facet normal -0.20791 0 0.978148
    outer loop
      vertex 52.9329 20.3 7.75959
      vertex 53.2908 17.8 7.83565
      vertex 53.2908 20.3 7.83565
    endloop
  endfacet
  facet normal -0.20791 0 0.978148
    outer loop
      vertex 53.2908 17.8 7.83565
      vertex 52.9329 20.3 7.75959
      vertex 52.9329 17.8 7.75959
    endloop
  endfacet
  facet normal -0 0 1
    outer loop
      vertex 52.75 20.3 7.75959
      vertex 52.9329 17.8 7.75959
      vertex 52.9329 20.3 7.75959
    endloop
  endfacet
  facet normal 0 0 1
    outer loop
      vertex 52.9329 17.8 7.75959
      vertex 52.75 20.3 7.75959
      vertex 52.75 17.8 7.75959
    endloop
  endfacet
  facet normal -0.406737 0 0.913546
    outer loop
      vertex 53.2908 20.3 7.83565
      vertex 53.625 17.8 7.98446
      vertex 53.625 20.3 7.98446
    endloop
  endfacet
  facet normal -0.406737 0 0.913546
    outer loop
      vertex 53.625 17.8 7.98446
      vertex 53.2908 20.3 7.83565
      vertex 53.2908 17.8 7.83565
    endloop
  endfacet
  facet normal -0.587786 0 -0.809017
    outer loop
      vertex 53.625 17.8 11.0155
      vertex 53.921 20.3 10.8005
      vertex 53.921 17.8 10.8005
    endloop
  endfacet
  facet normal -0.587786 0 -0.809017
    outer loop
      vertex 53.921 20.3 10.8005
      vertex 53.625 17.8 11.0155
      vertex 53.625 20.3 11.0155
    endloop
  endfacet
  facet normal -0.20791 0 -0.978148
    outer loop
      vertex 52.9329 17.8 11.2404
      vertex 53.2908 20.3 11.1643
      vertex 53.2908 17.8 11.1643
    endloop
  endfacet
  facet normal -0.20791 0 -0.978148
    outer loop
      vertex 53.2908 20.3 11.1643
      vertex 52.9329 17.8 11.2404
      vertex 52.9329 20.3 11.2404
    endloop
  endfacet
  facet normal -0.743146 0 -0.66913
    outer loop
      vertex 54.1658 17.8 10.5286
      vertex 53.921 20.3 10.8005
      vertex 54.1658 20.3 10.5286
    endloop
  endfacet
  facet normal -0.743146 -0 -0.66913
    outer loop
      vertex 53.921 20.3 10.8005
      vertex 54.1658 17.8 10.5286
      vertex 53.921 17.8 10.8005
    endloop
  endfacet
  facet normal -0.99453 3.98446e-008 -0.10445
    outer loop
      vertex 54.5 17.8 9.5
      vertex 54.4986 20.3 9.51348
      vertex 54.5 20.3 9.5
    endloop
  endfacet
  facet normal -0.994521 4.91468e-007 -0.104533
    outer loop
      vertex 54.4986 20.3 9.51348
      vertex 54.5 17.8 9.5
      vertex 54.4632 17.8 9.85037
    endloop
  endfacet
  facet normal 0 0 -1
    outer loop
      vertex 52.75 17.8 11.2404
      vertex 52.9329 20.3 11.2404
      vertex 52.9329 17.8 11.2404
    endloop
  endfacet
  facet normal -0 0 -1
    outer loop
      vertex 52.9329 20.3 11.2404
      vertex 52.75 17.8 11.2404
      vertex 52.75 20.3 11.2404
    endloop
  endfacet
  facet normal -0.406737 0 -0.913546
    outer loop
      vertex 53.2908 17.8 11.1643
      vertex 53.625 20.3 11.0155
      vertex 53.625 17.8 11.0155
    endloop
  endfacet
  facet normal -0.406737 0 -0.913546
    outer loop
      vertex 53.625 20.3 11.0155
      vertex 53.2908 17.8 11.1643
      vertex 53.2908 20.3 11.1643
    endloop
  endfacet
  facet normal -0.866024 0 -0.500002
    outer loop
      vertex 54.3487 17.8 10.2118
      vertex 54.1658 20.3 10.5286
      vertex 54.3487 20.3 10.2118
    endloop
  endfacet
  facet normal -0.866024 -0 -0.500002
    outer loop
      vertex 54.1658 20.3 10.5286
      vertex 54.3487 17.8 10.2118
      vertex 54.1658 17.8 10.5286
    endloop
  endfacet
  facet normal -0.994521 4.53126e-007 -0.104533
    outer loop
      vertex 54.4632 17.8 9.85037
      vertex 54.4618 20.3 9.86385
      vertex 54.4986 20.3 9.51348
    endloop
  endfacet
  facet normal -0.99453 -0 -0.10445
    outer loop
      vertex 54.4618 20.3 9.86385
      vertex 54.4632 17.8 9.85037
      vertex 54.4618 17.8 9.86385
    endloop
  endfacet
  facet normal 0.207913 0 0.978147
    outer loop
      vertex 7.50922 20.3 47.0857
      vertex 7.86707 17.8 47.0096
      vertex 7.86707 20.3 47.0096
    endloop
  endfacet
  facet normal 0.207913 0 0.978147
    outer loop
      vertex 7.86707 17.8 47.0096
      vertex 7.50922 20.3 47.0857
      vertex 7.50922 17.8 47.0857
    endloop
  endfacet
  facet normal 0.587787 0 -0.809016
    outer loop
      vertex 6.87902 17.8 50.0505
      vertex 7.175 20.3 50.2655
      vertex 7.175 17.8 50.2655
    endloop
  endfacet
  facet normal 0.587787 0 -0.809016
    outer loop
      vertex 7.175 20.3 50.2655
      vertex 6.87902 17.8 50.0505
      vertex 6.87902 20.3 50.0505
    endloop
  endfacet
  facet normal 0.866026 -0 0.499998
    outer loop
      vertex 6.45129 17.8 48.0382
      vertex 6.63422 20.3 47.7214
      vertex 6.45129 20.3 48.0382
    endloop
  endfacet
  facet normal 0.866026 0 0.499998
    outer loop
      vertex 6.63422 20.3 47.7214
      vertex 6.45129 17.8 48.0382
      vertex 6.63422 17.8 47.7214
    endloop
  endfacet
  facet normal 0.951057 -0 0.309017
    outer loop
      vertex 6.33824 17.8 48.3862
      vertex 6.45129 20.3 48.0382
      vertex 6.33824 20.3 48.3862
    endloop
  endfacet
  facet normal 0.951057 0 0.309017
    outer loop
      vertex 6.45129 20.3 48.0382
      vertex 6.33824 17.8 48.3862
      vertex 6.45129 17.8 48.0382
    endloop
  endfacet
  facet normal 0.587786 0 0.809016
    outer loop
      vertex 6.87902 20.3 47.4495
      vertex 7.175 17.8 47.2345
      vertex 7.175 20.3 47.2345
    endloop
  endfacet
  facet normal 0.587786 0 0.809016
    outer loop
      vertex 7.175 17.8 47.2345
      vertex 6.87902 20.3 47.4495
      vertex 6.87902 17.8 47.4495
    endloop
  endfacet
  facet normal 0.406734 0 -0.913546
    outer loop
      vertex 7.175 17.8 50.2655
      vertex 7.50922 20.3 50.4143
      vertex 7.50922 17.8 50.4143
    endloop
  endfacet
  facet normal 0.406734 0 -0.913546
    outer loop
      vertex 7.50922 20.3 50.4143
      vertex 7.175 17.8 50.2655
      vertex 7.175 20.3 50.2655
    endloop
  endfacet
  facet normal -0 0 1
    outer loop
      vertex 7.86707 20.3 47.0096
      vertex 8.05 17.8 47.0096
      vertex 8.05 20.3 47.0096
    endloop
  endfacet
  facet normal 0 0 1
    outer loop
      vertex 8.05 17.8 47.0096
      vertex 7.86707 20.3 47.0096
      vertex 7.86707 17.8 47.0096
    endloop
  endfacet
  facet normal 0.994522 -0 0.104528
    outer loop
      vertex 6.3 17.8 48.75
      vertex 6.33824 20.3 48.3862
      vertex 6.3 20.3 48.75
    endloop
  endfacet
  facet normal 0.994522 0 0.104528
    outer loop
      vertex 6.33824 20.3 48.3862
      vertex 6.3 17.8 48.75
      vertex 6.33824 17.8 48.3862
    endloop
  endfacet
  facet normal 0.743143 -0 0.669132
    outer loop
      vertex 6.63422 17.8 47.7214
      vertex 6.87902 20.3 47.4495
      vertex 6.63422 20.3 47.7214
    endloop
  endfacet
  facet normal 0.743143 0 0.669132
    outer loop
      vertex 6.87902 20.3 47.4495
      vertex 6.63422 17.8 47.7214
      vertex 6.87902 17.8 47.4495
    endloop
  endfacet
  facet normal 0.406735 0 0.913546
    outer loop
      vertex 7.175 20.3 47.2345
      vertex 7.50922 17.8 47.0857
      vertex 7.50922 20.3 47.0857
    endloop
  endfacet
  facet normal 0.406735 0 0.913546
    outer loop
      vertex 7.50922 17.8 47.0857
      vertex 7.175 20.3 47.2345
      vertex 7.175 17.8 47.2345
    endloop
  endfacet
  facet normal 0.207913 0 -0.978147
    outer loop
      vertex 7.50922 17.8 50.4143
      vertex 7.86707 20.3 50.4904
      vertex 7.86707 17.8 50.4904
    endloop
  endfacet
  facet normal 0.207913 0 -0.978147
    outer loop
      vertex 7.86707 20.3 50.4904
      vertex 7.50922 17.8 50.4143
      vertex 7.50922 20.3 50.4143
    endloop
  endfacet
  facet normal 0.743143 0 -0.669132
    outer loop
      vertex 6.87902 17.8 50.0505
      vertex 6.63422 20.3 49.7786
      vertex 6.87902 20.3 50.0505
    endloop
  endfacet
  facet normal 0.743143 0 -0.669132
    outer loop
      vertex 6.63422 20.3 49.7786
      vertex 6.87902 17.8 50.0505
      vertex 6.63422 17.8 49.7786
    endloop
  endfacet
  facet normal 0.951057 0 -0.309017
    outer loop
      vertex 6.45129 17.8 49.4618
      vertex 6.33824 20.3 49.1138
      vertex 6.45129 20.3 49.4618
    endloop
  endfacet
  facet normal 0.951057 0 -0.309017
    outer loop
      vertex 6.33824 20.3 49.1138
      vertex 6.45129 17.8 49.4618
      vertex 6.33824 17.8 49.1138
    endloop
  endfacet
  facet normal 0.994522 0 -0.104528
    outer loop
      vertex 6.33824 17.8 49.1138
      vertex 6.3 20.3 48.75
      vertex 6.33824 20.3 49.1138
    endloop
  endfacet
  facet normal 0.994522 0 -0.104528
    outer loop
      vertex 6.3 20.3 48.75
      vertex 6.33824 17.8 49.1138
      vertex 6.3 17.8 48.75
    endloop
  endfacet
  facet normal 0 0 -1
    outer loop
      vertex 7.86707 17.8 50.4904
      vertex 8.05 20.3 50.4904
      vertex 8.05 17.8 50.4904
    endloop
  endfacet
  facet normal -0 0 -1
    outer loop
      vertex 8.05 20.3 50.4904
      vertex 7.86707 17.8 50.4904
      vertex 7.86707 20.3 50.4904
    endloop
  endfacet
  facet normal 0.866026 0 -0.499998
    outer loop
      vertex 6.63422 17.8 49.7786
      vertex 6.45129 20.3 49.4618
      vertex 6.63422 20.3 49.7786
    endloop
  endfacet
  facet normal 0.866026 0 -0.499998
    outer loop
      vertex 6.45129 20.3 49.4618
      vertex 6.63422 17.8 49.7786
      vertex 6.45129 17.8 49.4618
    endloop
  endfacet
  facet normal 1 -0 0
    outer loop
      vertex 8.05 17.8 50.5
      vertex 8.05 20.3 50.4904
      vertex 8.05 20.3 50.5
    endloop
  endfacet
  facet normal 1 0 0
    outer loop
      vertex 8.05 20.3 50.4904
      vertex 8.05 17.8 50.5
      vertex 8.05 17.8 50.4904
    endloop
  endfacet
  facet normal 1 -0 0
    outer loop
      vertex 8.05 17.8 47.0096
      vertex 8.05 20.3 47
      vertex 8.05 20.3 47.0096
    endloop
  endfacet
  facet normal 1 0 0
    outer loop
      vertex 8.05 20.3 47
      vertex 8.05 17.8 47.0096
      vertex 8.05 17.8 47
    endloop
  endfacet
  facet normal 0 0 -1
    outer loop
      vertex 8.05 17.8 50.5
      vertex 11.05 20.3 50.5
      vertex 11.05 17.8 50.5
    endloop
  endfacet
  facet normal -0 0 -1
    outer loop
      vertex 11.05 20.3 50.5
      vertex 8.05 17.8 50.5
      vertex 8.05 20.3 50.5
    endloop
  endfacet
  facet normal -1 0 0
    outer loop
      vertex 11.05 17.8 50.4904
      vertex 11.05 20.3 50.5
      vertex 11.05 20.3 50.4904
    endloop
  endfacet
  facet normal -1 -0 0
    outer loop
      vertex 11.05 20.3 50.5
      vertex 11.05 17.8 50.4904
      vertex 11.05 17.8 50.5
    endloop
  endfacet
  facet normal -1 0 0
    outer loop
      vertex 11.05 17.8 47
      vertex 11.05 20.3 47.0096
      vertex 11.05 20.3 47
    endloop
  endfacet
  facet normal -1 -0 0
    outer loop
      vertex 11.05 20.3 47.0096
      vertex 11.05 17.8 47
      vertex 11.05 17.8 47.0096
    endloop
  endfacet
  facet normal -0 0 1
    outer loop
      vertex 8.05 20.3 47
      vertex 11.05 17.8 47
      vertex 11.05 20.3 47
    endloop
  endfacet
  facet normal 0 0 1
    outer loop
      vertex 11.05 17.8 47
      vertex 8.05 20.3 47
      vertex 8.05 17.8 47
    endloop
  endfacet
  facet normal -0.994524 0 0.104505
    outer loop
      vertex 12.7618 17.8 48.3862
      vertex 12.7632 20.3 48.3996
      vertex 12.7618 20.3 48.3862
    endloop
  endfacet
  facet normal -0.994522 -1.40439e-007 0.104531
    outer loop
      vertex 12.7632 20.3 48.3996
      vertex 12.7618 17.8 48.3862
      vertex 12.7986 17.8 48.7365
    endloop
  endfacet
  facet normal -0.994522 -1.40439e-007 0.104531
    outer loop
      vertex 12.7986 17.8 48.7365
      vertex 12.8 20.3 48.75
      vertex 12.7632 20.3 48.3996
    endloop
  endfacet
  facet normal -0.994524 0 0.104505
    outer loop
      vertex 12.8 20.3 48.75
      vertex 12.7986 17.8 48.7365
      vertex 12.8 17.8 48.75
    endloop
  endfacet
  facet normal -0.587787 0 0.809016
    outer loop
      vertex 11.925 20.3 47.2345
      vertex 12.221 17.8 47.4495
      vertex 12.221 20.3 47.4495
    endloop
  endfacet
  facet normal -0.587787 0 0.809016
    outer loop
      vertex 12.221 17.8 47.4495
      vertex 11.925 20.3 47.2345
      vertex 11.925 17.8 47.2345
    endloop
  endfacet
  facet normal -0.951057 0 -0.309017
    outer loop
      vertex 12.7618 17.8 49.1138
      vertex 12.6487 20.3 49.4618
      vertex 12.7618 20.3 49.1138
    endloop
  endfacet
  facet normal -0.951057 -0 -0.309017
    outer loop
      vertex 12.6487 20.3 49.4618
      vertex 12.7618 17.8 49.1138
      vertex 12.6487 17.8 49.4618
    endloop
  endfacet
  facet normal -0.866026 0 0.499998
    outer loop
      vertex 12.4658 17.8 47.7214
      vertex 12.6487 20.3 48.0382
      vertex 12.4658 20.3 47.7214
    endloop
  endfacet
  facet normal -0.866026 0 0.499998
    outer loop
      vertex 12.6487 20.3 48.0382
      vertex 12.4658 17.8 47.7214
      vertex 12.6487 17.8 48.0382
    endloop
  endfacet
  facet normal -0.951057 0 0.309017
    outer loop
      vertex 12.6487 17.8 48.0382
      vertex 12.7618 20.3 48.3862
      vertex 12.6487 20.3 48.0382
    endloop
  endfacet
  facet normal -0.951057 0 0.309017
    outer loop
      vertex 12.7618 20.3 48.3862
      vertex 12.6487 17.8 48.0382
      vertex 12.7618 17.8 48.3862
    endloop
  endfacet
  facet normal -0.743143 0 0.669132
    outer loop
      vertex 12.221 17.8 47.4495
      vertex 12.4658 20.3 47.7214
      vertex 12.221 20.3 47.4495
    endloop
  endfacet
  facet normal -0.743143 0 0.669132
    outer loop
      vertex 12.4658 20.3 47.7214
      vertex 12.221 17.8 47.4495
      vertex 12.4658 17.8 47.7214
    endloop
  endfacet
  facet normal -0.207913 0 0.978147
    outer loop
      vertex 11.2329 20.3 47.0096
      vertex 11.5908 17.8 47.0857
      vertex 11.5908 20.3 47.0857
    endloop
  endfacet
  facet normal -0.207913 0 0.978147
    outer loop
      vertex 11.5908 17.8 47.0857
      vertex 11.2329 20.3 47.0096
      vertex 11.2329 17.8 47.0096
    endloop
  endfacet
  facet normal -0 0 1
    outer loop
      vertex 11.05 20.3 47.0096
      vertex 11.2329 17.8 47.0096
      vertex 11.2329 20.3 47.0096
    endloop
  endfacet
  facet normal 0 0 1
    outer loop
      vertex 11.2329 17.8 47.0096
      vertex 11.05 20.3 47.0096
      vertex 11.05 17.8 47.0096
    endloop
  endfacet
  facet normal -0.406734 0 0.913546
    outer loop
      vertex 11.5908 20.3 47.0857
      vertex 11.925 17.8 47.2345
      vertex 11.925 20.3 47.2345
    endloop
  endfacet
  facet normal -0.406734 0 0.913546
    outer loop
      vertex 11.925 17.8 47.2345
      vertex 11.5908 20.3 47.0857
      vertex 11.5908 17.8 47.0857
    endloop
  endfacet
  facet normal -0.587787 0 -0.809016
    outer loop
      vertex 11.925 17.8 50.2655
      vertex 12.221 20.3 50.0505
      vertex 12.221 17.8 50.0505
    endloop
  endfacet
  facet normal -0.587787 0 -0.809016
    outer loop
      vertex 12.221 20.3 50.0505
      vertex 11.925 17.8 50.2655
      vertex 11.925 20.3 50.2655
    endloop
  endfacet
  facet normal -0.207913 0 -0.978147
    outer loop
      vertex 11.2329 17.8 50.4904
      vertex 11.5908 20.3 50.4143
      vertex 11.5908 17.8 50.4143
    endloop
  endfacet
  facet normal -0.207913 0 -0.978147
    outer loop
      vertex 11.5908 20.3 50.4143
      vertex 11.2329 17.8 50.4904
      vertex 11.2329 20.3 50.4904
    endloop
  endfacet
  facet normal -0.743143 0 -0.669132
    outer loop
      vertex 12.4658 17.8 49.7786
      vertex 12.221 20.3 50.0505
      vertex 12.4658 20.3 49.7786
    endloop
  endfacet
  facet normal -0.743143 -0 -0.669132
    outer loop
      vertex 12.221 20.3 50.0505
      vertex 12.4658 17.8 49.7786
      vertex 12.221 17.8 50.0505
    endloop
  endfacet
  facet normal -0.994524 0 -0.104505
    outer loop
      vertex 12.8 17.8 48.75
      vertex 12.7986 20.3 48.7635
      vertex 12.8 20.3 48.75
    endloop
  endfacet
  facet normal -0.994522 1.40439e-007 -0.104531
    outer loop
      vertex 12.7986 20.3 48.7635
      vertex 12.8 17.8 48.75
      vertex 12.7632 17.8 49.1004
    endloop
  endfacet
  facet normal 0 0 -1
    outer loop
      vertex 11.05 17.8 50.4904
      vertex 11.2329 20.3 50.4904
      vertex 11.2329 17.8 50.4904
    endloop
  endfacet
  facet normal -0 0 -1
    outer loop
      vertex 11.2329 20.3 50.4904
      vertex 11.05 17.8 50.4904
      vertex 11.05 20.3 50.4904
    endloop
  endfacet
  facet normal -0.406734 0 -0.913546
    outer loop
      vertex 11.5908 17.8 50.4143
      vertex 11.925 20.3 50.2655
      vertex 11.925 17.8 50.2655
    endloop
  endfacet
  facet normal -0.406734 0 -0.913546
    outer loop
      vertex 11.925 20.3 50.2655
      vertex 11.5908 17.8 50.4143
      vertex 11.5908 20.3 50.4143
    endloop
  endfacet
  facet normal -0.866026 0 -0.499998
    outer loop
      vertex 12.6487 17.8 49.4618
      vertex 12.4658 20.3 49.7786
      vertex 12.6487 20.3 49.4618
    endloop
  endfacet
  facet normal -0.866026 -0 -0.499998
    outer loop
      vertex 12.4658 20.3 49.7786
      vertex 12.6487 17.8 49.4618
      vertex 12.4658 17.8 49.7786
    endloop
  endfacet
  facet normal -0.994522 1.40439e-007 -0.104531
    outer loop
      vertex 12.7632 17.8 49.1004
      vertex 12.7618 20.3 49.1138
      vertex 12.7986 20.3 48.7635
    endloop
  endfacet
  facet normal -0.994524 -0 -0.104505
    outer loop
      vertex 12.7618 20.3 49.1138
      vertex 12.7632 17.8 49.1004
      vertex 12.7618 17.8 49.1138
    endloop
  endfacet
  facet normal 1 -0 0
    outer loop
      vertex 15 17.8 52
      vertex 15 20.3 23.5
      vertex 15 20.3 52
    endloop
  endfacet
  facet normal 1 0 0
    outer loop
      vertex 15 20.3 23.5
      vertex 15 17.8 52
      vertex 15 17.8 23.5
    endloop
  endfacet
  facet normal -0 0 1
    outer loop
      vertex 0 20.3 52
      vertex 15 17.8 52
      vertex 15 20.3 52
    endloop
  endfacet
  facet normal 0 0 1
    outer loop
      vertex 15 17.8 52
      vertex 0 20.3 52
      vertex 0 17.8 52
    endloop
  endfacet
  facet normal 1 0 0
    outer loop
      vertex 61.5 17.8 3.5
      vertex 61.5 20.3 23.5
      vertex 61.5 17.8 23.5
    endloop
  endfacet
  facet normal 1 0 0
    outer loop
      vertex 61.5 20.3 23.5
      vertex 61.5 17.8 3.5
      vertex 61.5 20.3 0
    endloop
  endfacet
  facet normal 1 0 0
    outer loop
      vertex 61.5 0 0
      vertex 61.5 17.8 3.5
      vertex 61.5 0 3.5
    endloop
  endfacet
  facet normal 1 0 0
    outer loop
      vertex 61.5 17.8 3.5
      vertex 61.5 0 0
      vertex 61.5 20.3 0
    endloop
  endfacet
  facet normal -0 0 1
    outer loop
      vertex 15 20.3 23.5
      vertex 61.5 17.8 23.5
      vertex 61.5 20.3 23.5
    endloop
  endfacet
  facet normal 0 0 1
    outer loop
      vertex 61.5 17.8 23.5
      vertex 15 20.3 23.5
      vertex 15 17.8 23.5
    endloop
  endfacet
  facet normal -1 0 0
    outer loop
      vertex 0 20.3 0
      vertex 0 17.8 3.5
      vertex 0 20.3 52
    endloop
  endfacet
  facet normal -1 0 0
    outer loop
      vertex 0 0 0
      vertex 0 17.8 3.5
      vertex 0 20.3 0
    endloop
  endfacet
  facet normal -1 -0 0
    outer loop
      vertex 0 17.8 3.5
      vertex 0 0 0
      vertex 0 0 3.5
    endloop
  endfacet
  facet normal -1 -0 0
    outer loop
      vertex 0 20.3 52
      vertex 0 17.8 3.5
      vertex 0 17.8 52
    endloop
  endfacet
  facet normal 0 0 -1
    outer loop
      vertex 61.5 0 0
      vertex 58.705 10 0
      vertex 61.5 20.3 0
    endloop
  endfacet
  facet normal 0 0 -1
    outer loop
      vertex 61.5 0 0
      vertex 58.5924 9.28926 0
      vertex 58.705 10 0
    endloop
  endfacet
  facet normal 0 0 -1
    outer loop
      vertex 61.5 0 0
      vertex 58.2657 8.64809 0
      vertex 58.5924 9.28926 0
    endloop
  endfacet
  facet normal 0 0 -1
    outer loop
      vertex 61.5 0 0
      vertex 57.7569 8.13926 0
      vertex 58.2657 8.64809 0
    endloop
  endfacet
  facet normal 0 0 -1
    outer loop
      vertex 61.5 0 0
      vertex 57.1157 7.81257 0
      vertex 57.7569 8.13926 0
    endloop
  endfacet
  facet normal 0 0 -1
    outer loop
      vertex 61.5 0 0
      vertex 56.405 7.7 0
      vertex 57.1157 7.81257 0
    endloop
  endfacet
  facet normal 0 0 -1
    outer loop
      vertex 61.5 0 0
      vertex 55.6943 7.81257 0
      vertex 56.405 7.7 0
    endloop
  endfacet
  facet normal 0 0 -1
    outer loop
      vertex 61.5 0 0
      vertex 55.0531 8.13926 0
      vertex 55.6943 7.81257 0
    endloop
  endfacet
  facet normal 0 0 -1
    outer loop
      vertex 29.7569 8.13926 0
      vertex 55.0531 8.13926 0
      vertex 61.5 0 0
    endloop
  endfacet
  facet normal 0 0 -1
    outer loop
      vertex 54.2176 9.28926 0
      vertex 30.705 10 0
      vertex 54.105 10 0
    endloop
  endfacet
  facet normal 0 0 -1
    outer loop
      vertex 30.5924 9.28926 0
      vertex 54.2176 9.28926 0
      vertex 54.5443 8.64809 0
    endloop
  endfacet
  facet normal 0 0 -1
    outer loop
      vertex 55.0531 8.13926 0
      vertex 29.7569 8.13926 0
      vertex 54.5443 8.64809 0
    endloop
  endfacet
  facet normal 0 0 -1
    outer loop
      vertex 54.2176 9.28926 0
      vertex 30.5924 9.28926 0
      vertex 30.705 10 0
    endloop
  endfacet
  facet normal 0 0 -1
    outer loop
      vertex 54.5443 8.64809 0
      vertex 30.2657 8.64809 0
      vertex 30.5924 9.28926 0
    endloop
  endfacet
  facet normal -0 0 -1
    outer loop
      vertex 54.5443 8.64809 0
      vertex 29.7569 8.13926 0
      vertex 30.2657 8.64809 0
    endloop
  endfacet
  facet normal 0 0 -1
    outer loop
      vertex 23.5 1 0
      vertex 29.7569 8.13926 0
      vertex 61.5 0 0
    endloop
  endfacet
  facet normal 0 0 -1
    outer loop
      vertex 29.7569 8.13926 0
      vertex 23.5 1 0
      vertex 29.1157 7.81257 0
    endloop
  endfacet
  facet normal 0 0 -1
    outer loop
      vertex 29.1157 7.81257 0
      vertex 23.5 1 0
      vertex 28.405 7.7 0
    endloop
  endfacet
  facet normal -0 0 -1
    outer loop
      vertex 26.2176 9.28926 0
      vertex 23.5 1 0
      vertex 26.105 10 0
    endloop
  endfacet
  facet normal -0 0 -1
    outer loop
      vertex 26.5443 8.64809 0
      vertex 23.5 1 0
      vertex 26.2176 9.28926 0
    endloop
  endfacet
  facet normal -0 0 -1
    outer loop
      vertex 27.0531 8.13926 0
      vertex 23.5 1 0
      vertex 26.5443 8.64809 0
    endloop
  endfacet
  facet normal -0 0 -1
    outer loop
      vertex 27.6943 7.81257 0
      vertex 23.5 1 0
      vertex 27.0531 8.13926 0
    endloop
  endfacet
  facet normal -0 0 -1
    outer loop
      vertex 28.405 7.7 0
      vertex 23.5 1 0
      vertex 27.6943 7.81257 0
    endloop
  endfacet
  facet normal 0 0 -1
    outer loop
      vertex 0 0 0
      vertex 23.5 1 0
      vertex 61.5 0 0
    endloop
  endfacet
  facet normal -0 0 -1
    outer loop
      vertex 2 1 0
      vertex 0 0 0
      vertex 2 17.8 0
    endloop
  endfacet
  facet normal -0 0 -1
    outer loop
      vertex 23.5 1 0
      vertex 0 0 0
      vertex 2 1 0
    endloop
  endfacet
  facet normal 0 0 -1
    outer loop
      vertex 58.5924 10.7107 0
      vertex 61.5 20.3 0
      vertex 58.705 10 0
    endloop
  endfacet
  facet normal 0 0 -1
    outer loop
      vertex 58.2657 11.3519 0
      vertex 61.5 20.3 0
      vertex 58.5924 10.7107 0
    endloop
  endfacet
  facet normal 0 0 -1
    outer loop
      vertex 57.7569 11.8607 0
      vertex 61.5 20.3 0
      vertex 58.2657 11.3519 0
    endloop
  endfacet
  facet normal 0 0 -1
    outer loop
      vertex 57.1157 12.1874 0
      vertex 61.5 20.3 0
      vertex 57.7569 11.8607 0
    endloop
  endfacet
  facet normal 0 0 -1
    outer loop
      vertex 56.405 12.3 0
      vertex 61.5 20.3 0
      vertex 57.1157 12.1874 0
    endloop
  endfacet
  facet normal 0 0 -1
    outer loop
      vertex 55.6943 12.1874 0
      vertex 61.5 20.3 0
      vertex 56.405 12.3 0
    endloop
  endfacet
  facet normal 0 0 -1
    outer loop
      vertex 55.0531 11.8607 0
      vertex 61.5 20.3 0
      vertex 55.6943 12.1874 0
    endloop
  endfacet
  facet normal 0 0 -1
    outer loop
      vertex 29.7569 11.8607 0
      vertex 55.0531 11.8607 0
      vertex 54.5443 11.3519 0
    endloop
  endfacet
  facet normal 0 0 -1
    outer loop
      vertex 30.705 10 0
      vertex 54.2176 10.7107 0
      vertex 54.105 10 0
    endloop
  endfacet
  facet normal 0 0 -1
    outer loop
      vertex 30.5924 10.7107 0
      vertex 54.2176 10.7107 0
      vertex 30.705 10 0
    endloop
  endfacet
  facet normal 0 0 -1
    outer loop
      vertex 54.2176 10.7107 0
      vertex 30.5924 10.7107 0
      vertex 54.5443 11.3519 0
    endloop
  endfacet
  facet normal 0 0 -1
    outer loop
      vertex 30.2657 11.3519 0
      vertex 54.5443 11.3519 0
      vertex 30.5924 10.7107 0
    endloop
  endfacet
  facet normal 0 0 -1
    outer loop
      vertex 29.7569 11.8607 0
      vertex 54.5443 11.3519 0
      vertex 30.2657 11.3519 0
    endloop
  endfacet
  facet normal 0 0 -1
    outer loop
      vertex 55.0531 11.8607 0
      vertex 29.7569 11.8607 0
      vertex 61.5 20.3 0
    endloop
  endfacet
  facet normal 0 0 -1
    outer loop
      vertex 23.5 17.8 0
      vertex 29.7569 11.8607 0
      vertex 29.1157 12.1874 0
    endloop
  endfacet
  facet normal 0 0 -1
    outer loop
      vertex 23.5 17.8 0
      vertex 29.1157 12.1874 0
      vertex 28.405 12.3 0
    endloop
  endfacet
  facet normal 0 0 -1
    outer loop
      vertex 23.5 17.8 0
      vertex 28.405 12.3 0
      vertex 27.6943 12.1874 0
    endloop
  endfacet
  facet normal 0 0 -1
    outer loop
      vertex 23.5 17.8 0
      vertex 26.105 10 0
      vertex 23.5 1 0
    endloop
  endfacet
  facet normal 0 0 -1
    outer loop
      vertex 26.105 10 0
      vertex 23.5 17.8 0
      vertex 26.2176 10.7107 0
    endloop
  endfacet
  facet normal 0 0 -1
    outer loop
      vertex 23.5 17.8 0
      vertex 26.5443 11.3519 0
      vertex 26.2176 10.7107 0
    endloop
  endfacet
  facet normal 0 0 -1
    outer loop
      vertex 23.5 17.8 0
      vertex 27.0531 11.8607 0
      vertex 26.5443 11.3519 0
    endloop
  endfacet
  facet normal 0 0 -1
    outer loop
      vertex 23.5 17.8 0
      vertex 27.6943 12.1874 0
      vertex 27.0531 11.8607 0
    endloop
  endfacet
  facet normal 0 0 -1
    outer loop
      vertex 29.7569 11.8607 0
      vertex 23.5 17.8 0
      vertex 61.5 20.3 0
    endloop
  endfacet
  facet normal 0 0 -1
    outer loop
      vertex 0 20.3 0
      vertex 23.5 17.8 0
      vertex 2 17.8 0
    endloop
  endfacet
  facet normal 0 0 -1
    outer loop
      vertex 23.5 17.8 0
      vertex 0 20.3 0
      vertex 61.5 20.3 0
    endloop
  endfacet
  facet normal 0 0 -1
    outer loop
      vertex 0 20.3 0
      vertex 2 17.8 0
      vertex 0 0 0
    endloop
  endfacet
  facet normal 0 -1 0
    outer loop
      vertex 11.05 17.8 47.0096
      vertex 11.05 17.8 47
      vertex 11.2329 17.8 47.0096
    endloop
  endfacet
  facet normal 0 -1 0
    outer loop
      vertex 0 17.8 52
      vertex 8.05 17.8 50.5
      vertex 15 17.8 52
    endloop
  endfacet
  facet normal 0 -1 0
    outer loop
      vertex 0 17.8 52
      vertex 7.86707 17.8 50.4904
      vertex 8.05 17.8 50.5
    endloop
  endfacet
  facet normal 0 -1 0
    outer loop
      vertex 0 17.8 52
      vertex 7.50922 17.8 50.4143
      vertex 7.86707 17.8 50.4904
    endloop
  endfacet
  facet normal 0 -1 0
    outer loop
      vertex 0 17.8 52
      vertex 7.175 17.8 50.2655
      vertex 7.50922 17.8 50.4143
    endloop
  endfacet
  facet normal 0 -1 0
    outer loop
      vertex 0 17.8 52
      vertex 6.87902 17.8 50.0505
      vertex 7.175 17.8 50.2655
    endloop
  endfacet
  facet normal 0 -1 0
    outer loop
      vertex 0 17.8 52
      vertex 6.63422 17.8 49.7786
      vertex 6.87902 17.8 50.0505
    endloop
  endfacet
  facet normal 0 -1 0
    outer loop
      vertex 0 17.8 52
      vertex 6.45129 17.8 49.4618
      vertex 6.63422 17.8 49.7786
    endloop
  endfacet
  facet normal 0 -1 0
    outer loop
      vertex 0 17.8 52
      vertex 6.33824 17.8 49.1138
      vertex 6.45129 17.8 49.4618
    endloop
  endfacet
  facet normal 0 -1 0
    outer loop
      vertex 0 17.8 52
      vertex 6.3 17.8 48.75
      vertex 6.33824 17.8 49.1138
    endloop
  endfacet
  facet normal 0 -1 0
    outer loop
      vertex 0 17.8 52
      vertex 6.33824 17.8 48.3862
      vertex 6.3 17.8 48.75
    endloop
  endfacet
  facet normal 0 -1 0
    outer loop
      vertex 0 17.8 52
      vertex 6.45129 17.8 48.0382
      vertex 6.33824 17.8 48.3862
    endloop
  endfacet
  facet normal 0 -1 0
    outer loop
      vertex 0 17.8 52
      vertex 6.63422 17.8 47.7214
      vertex 6.45129 17.8 48.0382
    endloop
  endfacet
  facet normal 0 -1 0
    outer loop
      vertex 0 17.8 52
      vertex 6.87902 17.8 47.4495
      vertex 6.63422 17.8 47.7214
    endloop
  endfacet
  facet normal 0 -1 0
    outer loop
      vertex 15 17.8 23.5
      vertex 6.87902 17.8 47.4495
      vertex 0 17.8 52
    endloop
  endfacet
  facet normal 0 -1 0
    outer loop
      vertex 7.86707 17.8 47.0096
      vertex 8.05 17.8 47
      vertex 8.05 17.8 47.0096
    endloop
  endfacet
  facet normal 0 -1 0
    outer loop
      vertex 8.05 17.8 47
      vertex 15 17.8 23.5
      vertex 11.05 17.8 47
    endloop
  endfacet
  facet normal 0 -1 0
    outer loop
      vertex 7.86707 17.8 47.0096
      vertex 15 17.8 23.5
      vertex 8.05 17.8 47
    endloop
  endfacet
  facet normal 0 -1 0
    outer loop
      vertex 7.50922 17.8 47.0857
      vertex 15 17.8 23.5
      vertex 7.86707 17.8 47.0096
    endloop
  endfacet
  facet normal 0 -1 0
    outer loop
      vertex 7.175 17.8 47.2345
      vertex 15 17.8 23.5
      vertex 7.50922 17.8 47.0857
    endloop
  endfacet
  facet normal 0 -1 0
    outer loop
      vertex 6.87902 17.8 47.4495
      vertex 15 17.8 23.5
      vertex 7.175 17.8 47.2345
    endloop
  endfacet
  facet normal 0 -1 0
    outer loop
      vertex 48.875 17.8 11.0155
      vertex 61.5 17.8 23.5
      vertex 15 17.8 23.5
    endloop
  endfacet
  facet normal 0 -1 0
    outer loop
      vertex 61.5 17.8 23.5
      vertex 49.5671 17.8 11.2404
      vertex 49.75 17.8 11.25
    endloop
  endfacet
  facet normal 0 -1 0
    outer loop
      vertex 61.5 17.8 23.5
      vertex 49.2092 17.8 11.1643
      vertex 49.5671 17.8 11.2404
    endloop
  endfacet
  facet normal 0 -1 0
    outer loop
      vertex 61.5 17.8 23.5
      vertex 48.875 17.8 11.0155
      vertex 49.2092 17.8 11.1643
    endloop
  endfacet
  facet normal 0 -1 0
    outer loop
      vertex 15 17.8 23.5
      vertex 48.579 17.8 10.8005
      vertex 48.875 17.8 11.0155
    endloop
  endfacet
  facet normal 0 -1 0
    outer loop
      vertex 15 17.8 23.5
      vertex 48.3342 17.8 10.5286
      vertex 48.579 17.8 10.8005
    endloop
  endfacet
  facet normal 0 -1 0
    outer loop
      vertex 15 17.8 23.5
      vertex 48.1513 17.8 10.2118
      vertex 48.3342 17.8 10.5286
    endloop
  endfacet
  facet normal 0 -1 0
    outer loop
      vertex 15 17.8 23.5
      vertex 48.0382 17.8 9.86385
      vertex 48.1513 17.8 10.2118
    endloop
  endfacet
  facet normal 0 -1 0
    outer loop
      vertex 15 17.8 23.5
      vertex 48 17.8 9.5
      vertex 48.0382 17.8 9.86385
    endloop
  endfacet
  facet normal 0 -1 0
    outer loop
      vertex 15 17.8 23.5
      vertex 48.0382 17.8 9.13616
      vertex 48 17.8 9.5
    endloop
  endfacet
  facet normal 0 -1 0
    outer loop
      vertex 15 17.8 23.5
      vertex 48.1513 17.8 8.78821
      vertex 48.0382 17.8 9.13616
    endloop
  endfacet
  facet normal 0 -1 0
    outer loop
      vertex 0 17.8 3.5
      vertex 48.1513 17.8 8.78821
      vertex 15 17.8 23.5
    endloop
  endfacet
  facet normal 0 -1 -0
    outer loop
      vertex 48.1513 17.8 8.78821
      vertex 0 17.8 3.5
      vertex 48.3342 17.8 8.47138
    endloop
  endfacet
  facet normal 0 -1 -0
    outer loop
      vertex 48.3342 17.8 8.47138
      vertex 0 17.8 3.5
      vertex 48.579 17.8 8.1995
    endloop
  endfacet
  facet normal 0 -1 0
    outer loop
      vertex 49.5671 17.8 7.75959
      vertex 49.75 17.8 7.75
      vertex 49.75 17.8 7.75959
    endloop
  endfacet
  facet normal 0 -1 0
    outer loop
      vertex 49.5671 17.8 7.75959
      vertex 61.5 17.8 3.5
      vertex 49.75 17.8 7.75
    endloop
  endfacet
  facet normal 0 -1 0
    outer loop
      vertex 49.2092 17.8 7.83565
      vertex 61.5 17.8 3.5
      vertex 49.5671 17.8 7.75959
    endloop
  endfacet
  facet normal 0 -1 0
    outer loop
      vertex 61.5 17.8 3.5
      vertex 49.2092 17.8 7.83565
      vertex 0 17.8 3.5
    endloop
  endfacet
  facet normal 0 -1 -0
    outer loop
      vertex 48.875 17.8 7.98446
      vertex 0 17.8 3.5
      vertex 49.2092 17.8 7.83565
    endloop
  endfacet
  facet normal 0 -1 -0
    outer loop
      vertex 48.579 17.8 8.1995
      vertex 0 17.8 3.5
      vertex 48.875 17.8 7.98446
    endloop
  endfacet
  facet normal 0 -1 0
    outer loop
      vertex 0 17.8 3.5
      vertex 15 17.8 23.5
      vertex 0 17.8 52
    endloop
  endfacet
  facet normal 0 -1 0
    outer loop
      vertex 11.05 17.8 50.5
      vertex 15 17.8 52
      vertex 8.05 17.8 50.5
    endloop
  endfacet
  facet normal 0 -1 0
    outer loop
      vertex 11.2329 17.8 50.4904
      vertex 11.05 17.8 50.5
      vertex 11.05 17.8 50.4904
    endloop
  endfacet
  facet normal 0 -1 0
    outer loop
      vertex 11.05 17.8 50.5
      vertex 11.2329 17.8 50.4904
      vertex 15 17.8 52
    endloop
  endfacet
  facet normal 0 -1 0
    outer loop
      vertex 11.5908 17.8 50.4143
      vertex 15 17.8 52
      vertex 11.2329 17.8 50.4904
    endloop
  endfacet
  facet normal 0 -1 0
    outer loop
      vertex 11.925 17.8 50.2655
      vertex 15 17.8 52
      vertex 11.5908 17.8 50.4143
    endloop
  endfacet
  facet normal 0 -1 0
    outer loop
      vertex 12.221 17.8 50.0505
      vertex 15 17.8 52
      vertex 11.925 17.8 50.2655
    endloop
  endfacet
  facet normal 0 -1 0
    outer loop
      vertex 12.4658 17.8 49.7786
      vertex 15 17.8 52
      vertex 12.221 17.8 50.0505
    endloop
  endfacet
  facet normal 0 -1 0
    outer loop
      vertex 12.6487 17.8 49.4618
      vertex 15 17.8 52
      vertex 12.4658 17.8 49.7786
    endloop
  endfacet
  facet normal 0 -1 0
    outer loop
      vertex 12.7618 17.8 49.1138
      vertex 15 17.8 52
      vertex 12.6487 17.8 49.4618
    endloop
  endfacet
  facet normal 0 -1 0
    outer loop
      vertex 12.7632 17.8 49.1004
      vertex 15 17.8 52
      vertex 12.7618 17.8 49.1138
    endloop
  endfacet
  facet normal 0 -1 0
    outer loop
      vertex 12.8 17.8 48.75
      vertex 15 17.8 52
      vertex 12.7632 17.8 49.1004
    endloop
  endfacet
  facet normal 0 -1 0
    outer loop
      vertex 12.7986 17.8 48.7365
      vertex 15 17.8 52
      vertex 12.8 17.8 48.75
    endloop
  endfacet
  facet normal 0 -1 0
    outer loop
      vertex 12.7618 17.8 48.3862
      vertex 15 17.8 52
      vertex 12.7986 17.8 48.7365
    endloop
  endfacet
  facet normal 0 -1 0
    outer loop
      vertex 12.6487 17.8 48.0382
      vertex 15 17.8 52
      vertex 12.7618 17.8 48.3862
    endloop
  endfacet
  facet normal 0 -1 0
    outer loop
      vertex 15 17.8 23.5
      vertex 12.6487 17.8 48.0382
      vertex 12.4658 17.8 47.7214
    endloop
  endfacet
  facet normal 0 -1 0
    outer loop
      vertex 12.6487 17.8 48.0382
      vertex 15 17.8 23.5
      vertex 15 17.8 52
    endloop
  endfacet
  facet normal 0 -1 0
    outer loop
      vertex 12.221 17.8 47.4495
      vertex 15 17.8 23.5
      vertex 12.4658 17.8 47.7214
    endloop
  endfacet
  facet normal 0 -1 0
    outer loop
      vertex 11.925 17.8 47.2345
      vertex 15 17.8 23.5
      vertex 12.221 17.8 47.4495
    endloop
  endfacet
  facet normal 0 -1 0
    outer loop
      vertex 11.5908 17.8 47.0857
      vertex 15 17.8 23.5
      vertex 11.925 17.8 47.2345
    endloop
  endfacet
  facet normal 0 -1 0
    outer loop
      vertex 11.2329 17.8 47.0096
      vertex 15 17.8 23.5
      vertex 11.5908 17.8 47.0857
    endloop
  endfacet
  facet normal 0 -1 0
    outer loop
      vertex 15 17.8 23.5
      vertex 11.2329 17.8 47.0096
      vertex 11.05 17.8 47
    endloop
  endfacet
  facet normal 0 -1 -0
    outer loop
      vertex 8.05 17.8 50.5
      vertex 7.86707 17.8 50.4904
      vertex 8.05 17.8 50.4904
    endloop
  endfacet
  facet normal 0 -1 0
    outer loop
      vertex 52.75 17.8 7.75959
      vertex 52.75 17.8 7.75
      vertex 52.9329 17.8 7.75959
    endloop
  endfacet
  facet normal 0 -1 0
    outer loop
      vertex 52.75 17.8 11.25
      vertex 61.5 17.8 23.5
      vertex 49.75 17.8 11.25
    endloop
  endfacet
  facet normal 0 -1 0
    outer loop
      vertex 52.9329 17.8 11.2404
      vertex 52.75 17.8 11.25
      vertex 52.75 17.8 11.2404
    endloop
  endfacet
  facet normal 0 -1 0
    outer loop
      vertex 52.75 17.8 11.25
      vertex 52.9329 17.8 11.2404
      vertex 61.5 17.8 23.5
    endloop
  endfacet
  facet normal 0 -1 0
    outer loop
      vertex 53.2908 17.8 11.1643
      vertex 61.5 17.8 23.5
      vertex 52.9329 17.8 11.2404
    endloop
  endfacet
  facet normal 0 -1 0
    outer loop
      vertex 53.625 17.8 11.0155
      vertex 61.5 17.8 23.5
      vertex 53.2908 17.8 11.1643
    endloop
  endfacet
  facet normal 0 -1 0
    outer loop
      vertex 53.921 17.8 10.8005
      vertex 61.5 17.8 23.5
      vertex 53.625 17.8 11.0155
    endloop
  endfacet
  facet normal 0 -1 0
    outer loop
      vertex 54.1658 17.8 10.5286
      vertex 61.5 17.8 23.5
      vertex 53.921 17.8 10.8005
    endloop
  endfacet
  facet normal 0 -1 0
    outer loop
      vertex 54.3487 17.8 10.2118
      vertex 61.5 17.8 23.5
      vertex 54.1658 17.8 10.5286
    endloop
  endfacet
  facet normal 0 -1 0
    outer loop
      vertex 61.5 17.8 3.5
      vertex 54.3487 17.8 10.2118
      vertex 54.4618 17.8 9.86385
    endloop
  endfacet
  facet normal 0 -1 0
    outer loop
      vertex 61.5 17.8 3.5
      vertex 54.4618 17.8 9.86385
      vertex 54.4632 17.8 9.85037
    endloop
  endfacet
  facet normal 0 -1 0
    outer loop
      vertex 61.5 17.8 3.5
      vertex 54.4632 17.8 9.85037
      vertex 54.5 17.8 9.5
    endloop
  endfacet
  facet normal 0 -1 0
    outer loop
      vertex 61.5 17.8 3.5
      vertex 54.5 17.8 9.5
      vertex 54.4986 17.8 9.48652
    endloop
  endfacet
  facet normal 0 -1 0
    outer loop
      vertex 61.5 17.8 3.5
      vertex 54.4986 17.8 9.48652
      vertex 54.4618 17.8 9.13616
    endloop
  endfacet
  facet normal 0 -1 0
    outer loop
      vertex 61.5 17.8 3.5
      vertex 54.4618 17.8 9.13616
      vertex 54.3487 17.8 8.78821
    endloop
  endfacet
  facet normal 0 -1 0
    outer loop
      vertex 49.75 17.8 7.75
      vertex 61.5 17.8 3.5
      vertex 52.75 17.8 7.75
    endloop
  endfacet
  facet normal 0 -1 0
    outer loop
      vertex 54.3487 17.8 10.2118
      vertex 61.5 17.8 3.5
      vertex 61.5 17.8 23.5
    endloop
  endfacet
  facet normal 0 -1 0
    outer loop
      vertex 54.1658 17.8 8.47138
      vertex 61.5 17.8 3.5
      vertex 54.3487 17.8 8.78821
    endloop
  endfacet
  facet normal 0 -1 0
    outer loop
      vertex 53.921 17.8 8.1995
      vertex 61.5 17.8 3.5
      vertex 54.1658 17.8 8.47138
    endloop
  endfacet
  facet normal 0 -1 0
    outer loop
      vertex 53.625 17.8 7.98446
      vertex 61.5 17.8 3.5
      vertex 53.921 17.8 8.1995
    endloop
  endfacet
  facet normal 0 -1 0
    outer loop
      vertex 53.2908 17.8 7.83565
      vertex 61.5 17.8 3.5
      vertex 53.625 17.8 7.98446
    endloop
  endfacet
  facet normal 0 -1 0
    outer loop
      vertex 52.9329 17.8 7.75959
      vertex 61.5 17.8 3.5
      vertex 53.2908 17.8 7.83565
    endloop
  endfacet
  facet normal 0 -1 0
    outer loop
      vertex 52.75 17.8 7.75
      vertex 61.5 17.8 3.5
      vertex 52.9329 17.8 7.75959
    endloop
  endfacet
  facet normal 0 -1 -0
    outer loop
      vertex 49.75 17.8 11.25
      vertex 49.5671 17.8 11.2404
      vertex 49.75 17.8 11.2404
    endloop
  endfacet
  facet normal 0 1 0
    outer loop
      vertex 8.05 20.3 47.0096
      vertex 8.05 20.3 47
      vertex 7.86707 20.3 47.0096
    endloop
  endfacet
  facet normal 0 1 0
    outer loop
      vertex 8.05 20.3 50.5
      vertex 15 20.3 52
      vertex 11.05 20.3 50.5
    endloop
  endfacet
  facet normal 0 1 0
    outer loop
      vertex 15 20.3 52
      vertex 11.2329 20.3 50.4904
      vertex 11.05 20.3 50.5
    endloop
  endfacet
  facet normal 0 1 0
    outer loop
      vertex 15 20.3 52
      vertex 11.5908 20.3 50.4143
      vertex 11.2329 20.3 50.4904
    endloop
  endfacet
  facet normal 0 1 0
    outer loop
      vertex 15 20.3 52
      vertex 11.925 20.3 50.2655
      vertex 11.5908 20.3 50.4143
    endloop
  endfacet
  facet normal 0 1 0
    outer loop
      vertex 15 20.3 52
      vertex 12.221 20.3 50.0505
      vertex 11.925 20.3 50.2655
    endloop
  endfacet
  facet normal 0 1 0
    outer loop
      vertex 15 20.3 52
      vertex 12.4658 20.3 49.7786
      vertex 12.221 20.3 50.0505
    endloop
  endfacet
  facet normal 0 1 0
    outer loop
      vertex 15 20.3 52
      vertex 12.6487 20.3 49.4618
      vertex 12.4658 20.3 49.7786
    endloop
  endfacet
  facet normal 0 1 0
    outer loop
      vertex 15 20.3 52
      vertex 12.7618 20.3 49.1138
      vertex 12.6487 20.3 49.4618
    endloop
  endfacet
  facet normal 0 1 0
    outer loop
      vertex 15 20.3 52
      vertex 12.7986 20.3 48.7635
      vertex 12.7618 20.3 49.1138
    endloop
  endfacet
  facet normal 0 1 0
    outer loop
      vertex 15 20.3 52
      vertex 12.8 20.3 48.75
      vertex 12.7986 20.3 48.7635
    endloop
  endfacet
  facet normal 0 1 0
    outer loop
      vertex 15 20.3 52
      vertex 12.7632 20.3 48.3996
      vertex 12.8 20.3 48.75
    endloop
  endfacet
  facet normal 0 1 0
    outer loop
      vertex 15 20.3 52
      vertex 12.7618 20.3 48.3862
      vertex 12.7632 20.3 48.3996
    endloop
  endfacet
  facet normal 0 1 0
    outer loop
      vertex 15 20.3 52
      vertex 12.6487 20.3 48.0382
      vertex 12.7618 20.3 48.3862
    endloop
  endfacet
  facet normal 0 1 -0
    outer loop
      vertex 15 20.3 23.5
      vertex 12.6487 20.3 48.0382
      vertex 15 20.3 52
    endloop
  endfacet
  facet normal 0 1 0
    outer loop
      vertex 11.2329 20.3 47.0096
      vertex 11.05 20.3 47
      vertex 11.05 20.3 47.0096
    endloop
  endfacet
  facet normal 0 1 0
    outer loop
      vertex 11.05 20.3 47
      vertex 15 20.3 23.5
      vertex 8.05 20.3 47
    endloop
  endfacet
  facet normal 0 1 0
    outer loop
      vertex 11.2329 20.3 47.0096
      vertex 15 20.3 23.5
      vertex 11.05 20.3 47
    endloop
  endfacet
  facet normal 0 1 0
    outer loop
      vertex 11.5908 20.3 47.0857
      vertex 15 20.3 23.5
      vertex 11.2329 20.3 47.0096
    endloop
  endfacet
  facet normal 0 1 0
    outer loop
      vertex 11.925 20.3 47.2345
      vertex 15 20.3 23.5
      vertex 11.5908 20.3 47.0857
    endloop
  endfacet
  facet normal 0 1 0
    outer loop
      vertex 12.221 20.3 47.4495
      vertex 15 20.3 23.5
      vertex 11.925 20.3 47.2345
    endloop
  endfacet
  facet normal 0 1 0
    outer loop
      vertex 12.4658 20.3 47.7214
      vertex 15 20.3 23.5
      vertex 12.221 20.3 47.4495
    endloop
  endfacet
  facet normal 0 1 0
    outer loop
      vertex 12.6487 20.3 48.0382
      vertex 15 20.3 23.5
      vertex 12.4658 20.3 47.7214
    endloop
  endfacet
  facet normal 0 1 0
    outer loop
      vertex 15 20.3 52
      vertex 8.05 20.3 50.5
      vertex 0 20.3 52
    endloop
  endfacet
  facet normal 0 1 0
    outer loop
      vertex 7.86707 20.3 50.4904
      vertex 8.05 20.3 50.5
      vertex 8.05 20.3 50.4904
    endloop
  endfacet
  facet normal 0 1 0
    outer loop
      vertex 8.05 20.3 50.5
      vertex 7.86707 20.3 50.4904
      vertex 0 20.3 52
    endloop
  endfacet
  facet normal 0 1 -0
    outer loop
      vertex 7.50922 20.3 50.4143
      vertex 0 20.3 52
      vertex 7.86707 20.3 50.4904
    endloop
  endfacet
  facet normal 0 1 -0
    outer loop
      vertex 7.175 20.3 50.2655
      vertex 0 20.3 52
      vertex 7.50922 20.3 50.4143
    endloop
  endfacet
  facet normal 0 1 -0
    outer loop
      vertex 6.87902 20.3 50.0505
      vertex 0 20.3 52
      vertex 7.175 20.3 50.2655
    endloop
  endfacet
  facet normal 0 1 -0
    outer loop
      vertex 6.63422 20.3 49.7786
      vertex 0 20.3 52
      vertex 6.87902 20.3 50.0505
    endloop
  endfacet
  facet normal 0 1 -0
    outer loop
      vertex 6.45129 20.3 49.4618
      vertex 0 20.3 52
      vertex 6.63422 20.3 49.7786
    endloop
  endfacet
  facet normal 0 1 -0
    outer loop
      vertex 6.33824 20.3 49.1138
      vertex 0 20.3 52
      vertex 6.45129 20.3 49.4618
    endloop
  endfacet
  facet normal 0 1 -0
    outer loop
      vertex 6.3 20.3 48.75
      vertex 0 20.3 52
      vertex 6.33824 20.3 49.1138
    endloop
  endfacet
  facet normal 0 1 0
    outer loop
      vertex 6.33824 20.3 48.3862
      vertex 0 20.3 52
      vertex 6.3 20.3 48.75
    endloop
  endfacet
  facet normal 0 1 0
    outer loop
      vertex 6.45129 20.3 48.0382
      vertex 0 20.3 52
      vertex 6.33824 20.3 48.3862
    endloop
  endfacet
  facet normal 0 1 0
    outer loop
      vertex 6.63422 20.3 47.7214
      vertex 0 20.3 52
      vertex 6.45129 20.3 48.0382
    endloop
  endfacet
  facet normal 0 1 0
    outer loop
      vertex 6.87902 20.3 47.4495
      vertex 0 20.3 52
      vertex 6.63422 20.3 47.7214
    endloop
  endfacet
  facet normal 0 1 0
    outer loop
      vertex 15 20.3 23.5
      vertex 6.87902 20.3 47.4495
      vertex 7.175 20.3 47.2345
    endloop
  endfacet
  facet normal 0 1 0
    outer loop
      vertex 15 20.3 23.5
      vertex 7.86707 20.3 47.0096
      vertex 8.05 20.3 47
    endloop
  endfacet
  facet normal 0 1 0
    outer loop
      vertex 15 20.3 23.5
      vertex 7.50922 20.3 47.0857
      vertex 7.86707 20.3 47.0096
    endloop
  endfacet
  facet normal 0 1 0
    outer loop
      vertex 15 20.3 23.5
      vertex 7.175 20.3 47.2345
      vertex 7.50922 20.3 47.0857
    endloop
  endfacet
  facet normal 0 1 0
    outer loop
      vertex 6.87902 20.3 47.4495
      vertex 15 20.3 23.5
      vertex 0 20.3 52
    endloop
  endfacet
  facet normal 0 1 0
    outer loop
      vertex 49.5671 20.3 11.2404
      vertex 61.5 20.3 23.5
      vertex 49.75 20.3 11.25
    endloop
  endfacet
  facet normal 0 1 0
    outer loop
      vertex 49.5671 20.3 11.2404
      vertex 49.75 20.3 11.25
      vertex 49.75 20.3 11.2404
    endloop
  endfacet
  facet normal 0 1 0
    outer loop
      vertex 49.2092 20.3 11.1643
      vertex 61.5 20.3 23.5
      vertex 49.5671 20.3 11.2404
    endloop
  endfacet
  facet normal 0 1 0
    outer loop
      vertex 48.875 20.3 11.0155
      vertex 61.5 20.3 23.5
      vertex 49.2092 20.3 11.1643
    endloop
  endfacet
  facet normal 0 1 0
    outer loop
      vertex 61.5 20.3 23.5
      vertex 48.875 20.3 11.0155
      vertex 15 20.3 23.5
    endloop
  endfacet
  facet normal 0 1 -0
    outer loop
      vertex 48.579 20.3 10.8005
      vertex 15 20.3 23.5
      vertex 48.875 20.3 11.0155
    endloop
  endfacet
  facet normal 0 1 -0
    outer loop
      vertex 48.3342 20.3 10.5286
      vertex 15 20.3 23.5
      vertex 48.579 20.3 10.8005
    endloop
  endfacet
  facet normal 0 1 -0
    outer loop
      vertex 48.1513 20.3 10.2118
      vertex 15 20.3 23.5
      vertex 48.3342 20.3 10.5286
    endloop
  endfacet
  facet normal 0 1 -0
    outer loop
      vertex 48.0382 20.3 9.86385
      vertex 15 20.3 23.5
      vertex 48.1513 20.3 10.2118
    endloop
  endfacet
  facet normal 0 1 -0
    outer loop
      vertex 48 20.3 9.5
      vertex 15 20.3 23.5
      vertex 48.0382 20.3 9.86385
    endloop
  endfacet
  facet normal 0 1 0
    outer loop
      vertex 48.0382 20.3 9.13616
      vertex 15 20.3 23.5
      vertex 48 20.3 9.5
    endloop
  endfacet
  facet normal 0 1 0
    outer loop
      vertex 48.1513 20.3 8.78821
      vertex 15 20.3 23.5
      vertex 48.0382 20.3 9.13616
    endloop
  endfacet
  facet normal 0 1 0
    outer loop
      vertex 0 20.3 0
      vertex 48.1513 20.3 8.78821
      vertex 48.3342 20.3 8.47138
    endloop
  endfacet
  facet normal 0 1 0
    outer loop
      vertex 0 20.3 0
      vertex 48.3342 20.3 8.47138
      vertex 48.579 20.3 8.1995
    endloop
  endfacet
  facet normal 0 1 0
    outer loop
      vertex 0 20.3 0
      vertex 48.579 20.3 8.1995
      vertex 48.875 20.3 7.98446
    endloop
  endfacet
  facet normal 0 1 0
    outer loop
      vertex 61.5 20.3 0
      vertex 49.5671 20.3 7.75959
      vertex 49.75 20.3 7.75
    endloop
  endfacet
  facet normal 0 1 0
    outer loop
      vertex 61.5 20.3 0
      vertex 49.2092 20.3 7.83565
      vertex 49.5671 20.3 7.75959
    endloop
  endfacet
  facet normal 0 1 0
    outer loop
      vertex 0 20.3 0
      vertex 49.2092 20.3 7.83565
      vertex 61.5 20.3 0
    endloop
  endfacet
  facet normal 0 1 0
    outer loop
      vertex 49.2092 20.3 7.83565
      vertex 0 20.3 0
      vertex 48.875 20.3 7.98446
    endloop
  endfacet
  facet normal 0 1 0
    outer loop
      vertex 15 20.3 23.5
      vertex 0 20.3 0
      vertex 0 20.3 52
    endloop
  endfacet
  facet normal 0 1 0
    outer loop
      vertex 48.1513 20.3 8.78821
      vertex 0 20.3 0
      vertex 15 20.3 23.5
    endloop
  endfacet
  facet normal 0 1 0
    outer loop
      vertex 11.05 20.3 50.5
      vertex 11.2329 20.3 50.4904
      vertex 11.05 20.3 50.4904
    endloop
  endfacet
  facet normal 0 1 0
    outer loop
      vertex 49.75 20.3 7.75959
      vertex 49.75 20.3 7.75
      vertex 49.5671 20.3 7.75959
    endloop
  endfacet
  facet normal 0 1 0
    outer loop
      vertex 49.75 20.3 11.25
      vertex 61.5 20.3 23.5
      vertex 52.75 20.3 11.25
    endloop
  endfacet
  facet normal 0 1 0
    outer loop
      vertex 61.5 20.3 23.5
      vertex 52.9329 20.3 11.2404
      vertex 52.75 20.3 11.25
    endloop
  endfacet
  facet normal 0 1 0
    outer loop
      vertex 61.5 20.3 23.5
      vertex 53.2908 20.3 11.1643
      vertex 52.9329 20.3 11.2404
    endloop
  endfacet
  facet normal 0 1 0
    outer loop
      vertex 61.5 20.3 23.5
      vertex 53.625 20.3 11.0155
      vertex 53.2908 20.3 11.1643
    endloop
  endfacet
  facet normal 0 1 0
    outer loop
      vertex 61.5 20.3 23.5
      vertex 53.921 20.3 10.8005
      vertex 53.625 20.3 11.0155
    endloop
  endfacet
  facet normal 0 1 0
    outer loop
      vertex 61.5 20.3 23.5
      vertex 54.1658 20.3 10.5286
      vertex 53.921 20.3 10.8005
    endloop
  endfacet
  facet normal 0 1 0
    outer loop
      vertex 61.5 20.3 23.5
      vertex 54.3487 20.3 10.2118
      vertex 54.1658 20.3 10.5286
    endloop
  endfacet
  facet normal 0 1 0
    outer loop
      vertex 61.5 20.3 23.5
      vertex 54.4618 20.3 9.86385
      vertex 54.3487 20.3 10.2118
    endloop
  endfacet
  facet normal 0 1 -0
    outer loop
      vertex 61.5 20.3 0
      vertex 54.4618 20.3 9.86385
      vertex 61.5 20.3 23.5
    endloop
  endfacet
  facet normal 0 1 0
    outer loop
      vertex 54.4618 20.3 9.86385
      vertex 61.5 20.3 0
      vertex 54.4986 20.3 9.51348
    endloop
  endfacet
  facet normal 0 1 0
    outer loop
      vertex 54.4986 20.3 9.51348
      vertex 61.5 20.3 0
      vertex 54.5 20.3 9.5
    endloop
  endfacet
  facet normal 0 1 0
    outer loop
      vertex 54.5 20.3 9.5
      vertex 61.5 20.3 0
      vertex 54.4632 20.3 9.14963
    endloop
  endfacet
  facet normal 0 1 0
    outer loop
      vertex 54.4632 20.3 9.14963
      vertex 61.5 20.3 0
      vertex 54.4618 20.3 9.13616
    endloop
  endfacet
  facet normal 0 1 0
    outer loop
      vertex 52.9329 20.3 7.75959
      vertex 52.75 20.3 7.75
      vertex 52.75 20.3 7.75959
    endloop
  endfacet
  facet normal 0 1 0
    outer loop
      vertex 52.75 20.3 7.75
      vertex 61.5 20.3 0
      vertex 49.75 20.3 7.75
    endloop
  endfacet
  facet normal 0 1 0
    outer loop
      vertex 52.9329 20.3 7.75959
      vertex 61.5 20.3 0
      vertex 52.75 20.3 7.75
    endloop
  endfacet
  facet normal 0 1 0
    outer loop
      vertex 53.2908 20.3 7.83565
      vertex 61.5 20.3 0
      vertex 52.9329 20.3 7.75959
    endloop
  endfacet
  facet normal 0 1 0
    outer loop
      vertex 53.625 20.3 7.98446
      vertex 61.5 20.3 0
      vertex 53.2908 20.3 7.83565
    endloop
  endfacet
  facet normal 0 1 0
    outer loop
      vertex 53.921 20.3 8.1995
      vertex 61.5 20.3 0
      vertex 53.625 20.3 7.98446
    endloop
  endfacet
  facet normal 0 1 0
    outer loop
      vertex 54.1658 20.3 8.47138
      vertex 61.5 20.3 0
      vertex 53.921 20.3 8.1995
    endloop
  endfacet
  facet normal 0 1 0
    outer loop
      vertex 54.3487 20.3 8.78821
      vertex 61.5 20.3 0
      vertex 54.1658 20.3 8.47138
    endloop
  endfacet
  facet normal 0 1 0
    outer loop
      vertex 54.4618 20.3 9.13616
      vertex 61.5 20.3 0
      vertex 54.3487 20.3 8.78821
    endloop
  endfacet
  facet normal 0 1 0
    outer loop
      vertex 52.75 20.3 11.25
      vertex 52.9329 20.3 11.2404
      vertex 52.75 20.3 11.2404
    endloop
  endfacet
  facet normal 0 0 1
    outer loop
      vertex 31.999 12.075 1.65
      vertex 30.705 10 1.65
      vertex 31.999 7.925 1.65
    endloop
  endfacet
  facet normal 0 0 1
    outer loop
      vertex 31.999 12.075 1.65
      vertex 30.5924 10.7107 1.65
      vertex 30.705 10 1.65
    endloop
  endfacet
  facet normal 0 0 1
    outer loop
      vertex 31.999 12.075 1.65
      vertex 30.2657 11.3519 1.65
      vertex 30.5924 10.7107 1.65
    endloop
  endfacet
  facet normal 0 0 1
    outer loop
      vertex 31.999 12.075 1.65
      vertex 29.7569 11.8607 1.65
      vertex 30.2657 11.3519 1.65
    endloop
  endfacet
  facet normal 0 0 1
    outer loop
      vertex 28.405 14.15 1.65
      vertex 29.7569 11.8607 1.65
      vertex 31.999 12.075 1.65
    endloop
  endfacet
  facet normal 0 0 1
    outer loop
      vertex 29.7569 11.8607 1.65
      vertex 28.405 14.15 1.65
      vertex 29.1157 12.1874 1.65
    endloop
  endfacet
  facet normal 0 0 1
    outer loop
      vertex 28.405 14.15 1.65
      vertex 28.405 12.3 1.65
      vertex 29.1157 12.1874 1.65
    endloop
  endfacet
  facet normal 0 0 1
    outer loop
      vertex 28.405 14.15 1.65
      vertex 27.6943 12.1874 1.65
      vertex 28.405 12.3 1.65
    endloop
  endfacet
  facet normal 0 0 1
    outer loop
      vertex 28.405 14.15 1.65
      vertex 27.0531 11.8607 1.65
      vertex 27.6943 12.1874 1.65
    endloop
  endfacet
  facet normal -0 0 1
    outer loop
      vertex 24.811 12.075 1.65
      vertex 27.0531 11.8607 1.65
      vertex 28.405 14.15 1.65
    endloop
  endfacet
  facet normal 0 0 1
    outer loop
      vertex 26.2176 10.7107 1.65
      vertex 24.811 12.075 1.65
      vertex 26.105 10 1.65
    endloop
  endfacet
  facet normal 0 0 1
    outer loop
      vertex 26.5443 11.3519 1.65
      vertex 24.811 12.075 1.65
      vertex 26.2176 10.7107 1.65
    endloop
  endfacet
  facet normal 0 0 1
    outer loop
      vertex 27.0531 11.8607 1.65
      vertex 24.811 12.075 1.65
      vertex 26.5443 11.3519 1.65
    endloop
  endfacet
  facet normal -0 0 1
    outer loop
      vertex 30.5924 9.28926 1.65
      vertex 31.999 7.925 1.65
      vertex 30.705 10 1.65
    endloop
  endfacet
  facet normal -0 0 1
    outer loop
      vertex 30.2657 8.64809 1.65
      vertex 31.999 7.925 1.65
      vertex 30.5924 9.28926 1.65
    endloop
  endfacet
  facet normal -0 0 1
    outer loop
      vertex 29.7569 8.13926 1.65
      vertex 31.999 7.925 1.65
      vertex 30.2657 8.64809 1.65
    endloop
  endfacet
  facet normal 0 0 1
    outer loop
      vertex 28.405 5.85 1.65
      vertex 29.7569 8.13926 1.65
      vertex 29.1157 7.81257 1.65
    endloop
  endfacet
  facet normal 0 0 1
    outer loop
      vertex 28.405 5.85 1.65
      vertex 29.1157 7.81257 1.65
      vertex 28.405 7.7 1.65
    endloop
  endfacet
  facet normal 0 0 1
    outer loop
      vertex 29.7569 8.13926 1.65
      vertex 28.405 5.85 1.65
      vertex 31.999 7.925 1.65
    endloop
  endfacet
  facet normal 0 0 1
    outer loop
      vertex 27.6943 7.81257 1.65
      vertex 28.405 5.85 1.65
      vertex 28.405 7.7 1.65
    endloop
  endfacet
  facet normal 0 0 1
    outer loop
      vertex 27.0531 8.13926 1.65
      vertex 28.405 5.85 1.65
      vertex 27.6943 7.81257 1.65
    endloop
  endfacet
  facet normal 0 0 1
    outer loop
      vertex 24.811 7.925 1.65
      vertex 27.0531 8.13926 1.65
      vertex 26.5443 8.64809 1.65
    endloop
  endfacet
  facet normal 0 0 1
    outer loop
      vertex 24.811 7.925 1.65
      vertex 26.105 10 1.65
      vertex 24.811 12.075 1.65
    endloop
  endfacet
  facet normal 0 0 1
    outer loop
      vertex 27.0531 8.13926 1.65
      vertex 24.811 7.925 1.65
      vertex 28.405 5.85 1.65
    endloop
  endfacet
  facet normal 0 0 1
    outer loop
      vertex 26.2176 9.28926 1.65
      vertex 24.811 7.925 1.65
      vertex 26.5443 8.64809 1.65
    endloop
  endfacet
  facet normal 0 0 1
    outer loop
      vertex 26.105 10 1.65
      vertex 24.811 7.925 1.65
      vertex 26.2176 9.28926 1.65
    endloop
  endfacet
  facet normal -0.5 0.866025 0
    outer loop
      vertex 31.999 7.925 1.65
      vertex 28.405 5.85 3.5
      vertex 31.999 7.925 3.5
    endloop
  endfacet
  facet normal -0.5 0.866025 0
    outer loop
      vertex 28.405 5.85 3.5
      vertex 31.999 7.925 1.65
      vertex 28.405 5.85 1.65
    endloop
  endfacet
  facet normal 1 -0 0
    outer loop
      vertex 24.811 7.925 3.5
      vertex 24.811 12.075 1.65
      vertex 24.811 12.075 3.5
    endloop
  endfacet
  facet normal 1 0 0
    outer loop
      vertex 24.811 12.075 1.65
      vertex 24.811 7.925 3.5
      vertex 24.811 7.925 1.65
    endloop
  endfacet
  facet normal -0.5 -0.866025 0
    outer loop
      vertex 28.405 14.15 1.65
      vertex 31.999 12.075 3.5
      vertex 28.405 14.15 3.5
    endloop
  endfacet
  facet normal -0.5 -0.866025 -0
    outer loop
      vertex 31.999 12.075 3.5
      vertex 28.405 14.15 1.65
      vertex 31.999 12.075 1.65
    endloop
  endfacet
  facet normal -1 0 0
    outer loop
      vertex 31.999 7.925 1.65
      vertex 31.999 12.075 3.5
      vertex 31.999 12.075 1.65
    endloop
  endfacet
  facet normal -1 -0 0
    outer loop
      vertex 31.999 12.075 3.5
      vertex 31.999 7.925 1.65
      vertex 31.999 7.925 3.5
    endloop
  endfacet
  facet normal 0.5 -0.866025 0
    outer loop
      vertex 24.811 12.075 1.65
      vertex 28.405 14.15 3.5
      vertex 24.811 12.075 3.5
    endloop
  endfacet
  facet normal 0.5 -0.866025 0
    outer loop
      vertex 28.405 14.15 3.5
      vertex 24.811 12.075 1.65
      vertex 28.405 14.15 1.65
    endloop
  endfacet
  facet normal 0.5 0.866025 -0
    outer loop
      vertex 28.405 5.85 1.65
      vertex 24.811 7.925 3.5
      vertex 28.405 5.85 3.5
    endloop
  endfacet
  facet normal 0.5 0.866025 0
    outer loop
      vertex 24.811 7.925 3.5
      vertex 28.405 5.85 1.65
      vertex 24.811 7.925 1.65
    endloop
  endfacet
  facet normal 0 0 1
    outer loop
      vertex 59.999 12.075 1.65
      vertex 58.705 10 1.65
      vertex 59.999 7.925 1.65
    endloop
  endfacet
  facet normal 0 0 1
    outer loop
      vertex 59.999 12.075 1.65
      vertex 58.5924 10.7107 1.65
      vertex 58.705 10 1.65
    endloop
  endfacet
  facet normal 0 0 1
    outer loop
      vertex 59.999 12.075 1.65
      vertex 58.2657 11.3519 1.65
      vertex 58.5924 10.7107 1.65
    endloop
  endfacet
  facet normal 0 0 1
    outer loop
      vertex 59.999 12.075 1.65
      vertex 57.7569 11.8607 1.65
      vertex 58.2657 11.3519 1.65
    endloop
  endfacet
  facet normal 0 0 1
    outer loop
      vertex 56.405 14.15 1.65
      vertex 57.7569 11.8607 1.65
      vertex 59.999 12.075 1.65
    endloop
  endfacet
  facet normal 0 0 1
    outer loop
      vertex 57.7569 11.8607 1.65
      vertex 56.405 14.15 1.65
      vertex 57.1157 12.1874 1.65
    endloop
  endfacet
  facet normal 0 0 1
    outer loop
      vertex 56.405 14.15 1.65
      vertex 56.405 12.3 1.65
      vertex 57.1157 12.1874 1.65
    endloop
  endfacet
  facet normal 0 0 1
    outer loop
      vertex 56.405 14.15 1.65
      vertex 55.6943 12.1874 1.65
      vertex 56.405 12.3 1.65
    endloop
  endfacet
  facet normal 0 0 1
    outer loop
      vertex 56.405 14.15 1.65
      vertex 55.0531 11.8607 1.65
      vertex 55.6943 12.1874 1.65
    endloop
  endfacet
  facet normal -0 0 1
    outer loop
      vertex 52.811 12.075 1.65
      vertex 55.0531 11.8607 1.65
      vertex 56.405 14.15 1.65
    endloop
  endfacet
  facet normal 0 0 1
    outer loop
      vertex 54.2176 10.7107 1.65
      vertex 52.811 12.075 1.65
      vertex 54.105 10 1.65
    endloop
  endfacet
  facet normal 0 0 1
    outer loop
      vertex 54.5443 11.3519 1.65
      vertex 52.811 12.075 1.65
      vertex 54.2176 10.7107 1.65
    endloop
  endfacet
  facet normal 0 0 1
    outer loop
      vertex 55.0531 11.8607 1.65
      vertex 52.811 12.075 1.65
      vertex 54.5443 11.3519 1.65
    endloop
  endfacet
  facet normal -0 0 1
    outer loop
      vertex 58.5924 9.28926 1.65
      vertex 59.999 7.925 1.65
      vertex 58.705 10 1.65
    endloop
  endfacet
  facet normal -0 0 1
    outer loop
      vertex 58.2657 8.64809 1.65
      vertex 59.999 7.925 1.65
      vertex 58.5924 9.28926 1.65
    endloop
  endfacet
  facet normal -0 0 1
    outer loop
      vertex 57.7569 8.13926 1.65
      vertex 59.999 7.925 1.65
      vertex 58.2657 8.64809 1.65
    endloop
  endfacet
  facet normal 0 0 1
    outer loop
      vertex 56.405 5.85 1.65
      vertex 57.7569 8.13926 1.65
      vertex 57.1157 7.81257 1.65
    endloop
  endfacet
  facet normal 0 0 1
    outer loop
      vertex 56.405 5.85 1.65
      vertex 57.1157 7.81257 1.65
      vertex 56.405 7.7 1.65
    endloop
  endfacet
  facet normal 0 0 1
    outer loop
      vertex 57.7569 8.13926 1.65
      vertex 56.405 5.85 1.65
      vertex 59.999 7.925 1.65
    endloop
  endfacet
  facet normal 0 0 1
    outer loop
      vertex 55.6943 7.81257 1.65
      vertex 56.405 5.85 1.65
      vertex 56.405 7.7 1.65
    endloop
  endfacet
  facet normal 0 0 1
    outer loop
      vertex 55.0531 8.13926 1.65
      vertex 56.405 5.85 1.65
      vertex 55.6943 7.81257 1.65
    endloop
  endfacet
  facet normal 0 0 1
    outer loop
      vertex 52.811 7.925 1.65
      vertex 55.0531 8.13926 1.65
      vertex 54.5443 8.64809 1.65
    endloop
  endfacet
  facet normal 0 0 1
    outer loop
      vertex 52.811 7.925 1.65
      vertex 54.105 10 1.65
      vertex 52.811 12.075 1.65
    endloop
  endfacet
  facet normal 0 0 1
    outer loop
      vertex 55.0531 8.13926 1.65
      vertex 52.811 7.925 1.65
      vertex 56.405 5.85 1.65
    endloop
  endfacet
  facet normal 0 0 1
    outer loop
      vertex 54.2176 9.28926 1.65
      vertex 52.811 7.925 1.65
      vertex 54.5443 8.64809 1.65
    endloop
  endfacet
  facet normal 0 0 1
    outer loop
      vertex 54.105 10 1.65
      vertex 52.811 7.925 1.65
      vertex 54.2176 9.28926 1.65
    endloop
  endfacet
  facet normal -0.5 0.866025 0
    outer loop
      vertex 59.999 7.925 1.65
      vertex 56.405 5.85 3.5
      vertex 59.999 7.925 3.5
    endloop
  endfacet
  facet normal -0.5 0.866025 0
    outer loop
      vertex 56.405 5.85 3.5
      vertex 59.999 7.925 1.65
      vertex 56.405 5.85 1.65
    endloop
  endfacet
  facet normal 1 -0 0
    outer loop
      vertex 52.811 7.925 3.5
      vertex 52.811 12.075 1.65
      vertex 52.811 12.075 3.5
    endloop
  endfacet
  facet normal 1 0 0
    outer loop
      vertex 52.811 12.075 1.65
      vertex 52.811 7.925 3.5
      vertex 52.811 7.925 1.65
    endloop
  endfacet
  facet normal -0.5 -0.866025 0
    outer loop
      vertex 56.405 14.15 1.65
      vertex 59.999 12.075 3.5
      vertex 56.405 14.15 3.5
    endloop
  endfacet
  facet normal -0.5 -0.866025 -0
    outer loop
      vertex 59.999 12.075 3.5
      vertex 56.405 14.15 1.65
      vertex 59.999 12.075 1.65
    endloop
  endfacet
  facet normal -1 0 0
    outer loop
      vertex 59.999 7.925 1.65
      vertex 59.999 12.075 3.5
      vertex 59.999 12.075 1.65
    endloop
  endfacet
  facet normal -1 -0 0
    outer loop
      vertex 59.999 12.075 3.5
      vertex 59.999 7.925 1.65
      vertex 59.999 7.925 3.5
    endloop
  endfacet
  facet normal 0.5 -0.866025 0
    outer loop
      vertex 52.811 12.075 1.65
      vertex 56.405 14.15 3.5
      vertex 52.811 12.075 3.5
    endloop
  endfacet
  facet normal 0.5 -0.866025 0
    outer loop
      vertex 56.405 14.15 3.5
      vertex 52.811 12.075 1.65
      vertex 56.405 14.15 1.65
    endloop
  endfacet
  facet normal 0.5 0.866025 -0
    outer loop
      vertex 56.405 5.85 1.65
      vertex 52.811 7.925 3.5
      vertex 56.405 5.85 3.5
    endloop
  endfacet
  facet normal 0.5 0.866025 0
    outer loop
      vertex 52.811 7.925 3.5
      vertex 56.405 5.85 1.65
      vertex 52.811 7.925 1.65
    endloop
  endfacet
  facet normal -0.156435 0.987688 0
    outer loop
      vertex 29.1157 7.81257 0
      vertex 28.405 7.7 1.65
      vertex 29.1157 7.81257 1.65
    endloop
  endfacet
  facet normal -0.156435 0.987688 0
    outer loop
      vertex 28.405 7.7 1.65
      vertex 29.1157 7.81257 0
      vertex 28.405 7.7 0
    endloop
  endfacet
  facet normal -0.987688 -0.156434 0
    outer loop
      vertex 30.705 10 0
      vertex 30.5924 10.7107 1.65
      vertex 30.5924 10.7107 0
    endloop
  endfacet
  facet normal -0.987688 -0.156434 0
    outer loop
      vertex 30.5924 10.7107 1.65
      vertex 30.705 10 0
      vertex 30.705 10 1.65
    endloop
  endfacet
  facet normal 0.987688 0.156434 0
    outer loop
      vertex 26.2176 9.28926 1.65
      vertex 26.105 10 0
      vertex 26.105 10 1.65
    endloop
  endfacet
  facet normal 0.987688 0.156434 0
    outer loop
      vertex 26.105 10 0
      vertex 26.2176 9.28926 1.65
      vertex 26.2176 9.28926 0
    endloop
  endfacet
  facet normal -0.707107 0.707107 0
    outer loop
      vertex 29.7569 8.13926 0
      vertex 30.2657 8.64809 1.65
      vertex 30.2657 8.64809 0
    endloop
  endfacet
  facet normal -0.707107 0.707107 0
    outer loop
      vertex 30.2657 8.64809 1.65
      vertex 29.7569 8.13926 0
      vertex 29.7569 8.13926 1.65
    endloop
  endfacet
  facet normal -0.453989 0.891007 0
    outer loop
      vertex 29.7569 8.13926 0
      vertex 29.1157 7.81257 1.65
      vertex 29.7569 8.13926 1.65
    endloop
  endfacet
  facet normal -0.453989 0.891007 0
    outer loop
      vertex 29.1157 7.81257 1.65
      vertex 29.7569 8.13926 0
      vertex 29.1157 7.81257 0
    endloop
  endfacet
  facet normal -0.891007 0.45399 0
    outer loop
      vertex 30.2657 8.64809 0
      vertex 30.5924 9.28926 1.65
      vertex 30.5924 9.28926 0
    endloop
  endfacet
  facet normal -0.891007 0.45399 0
    outer loop
      vertex 30.5924 9.28926 1.65
      vertex 30.2657 8.64809 0
      vertex 30.2657 8.64809 1.65
    endloop
  endfacet
  facet normal -0.707107 -0.707107 0
    outer loop
      vertex 30.2657 11.3519 0
      vertex 29.7569 11.8607 1.65
      vertex 29.7569 11.8607 0
    endloop
  endfacet
  facet normal -0.707107 -0.707107 0
    outer loop
      vertex 29.7569 11.8607 1.65
      vertex 30.2657 11.3519 0
      vertex 30.2657 11.3519 1.65
    endloop
  endfacet
  facet normal -0.891007 -0.45399 0
    outer loop
      vertex 30.5924 10.7107 0
      vertex 30.2657 11.3519 1.65
      vertex 30.2657 11.3519 0
    endloop
  endfacet
  facet normal -0.891007 -0.45399 0
    outer loop
      vertex 30.2657 11.3519 1.65
      vertex 30.5924 10.7107 0
      vertex 30.5924 10.7107 1.65
    endloop
  endfacet
  facet normal 0.891007 0.45399 0
    outer loop
      vertex 26.5443 8.64809 1.65
      vertex 26.2176 9.28926 0
      vertex 26.2176 9.28926 1.65
    endloop
  endfacet
  facet normal 0.891007 0.45399 0
    outer loop
      vertex 26.2176 9.28926 0
      vertex 26.5443 8.64809 1.65
      vertex 26.5443 8.64809 0
    endloop
  endfacet
  facet normal 0.453989 0.891007 -0
    outer loop
      vertex 27.6943 7.81257 0
      vertex 27.0531 8.13926 1.65
      vertex 27.6943 7.81257 1.65
    endloop
  endfacet
  facet normal 0.453989 0.891007 0
    outer loop
      vertex 27.0531 8.13926 1.65
      vertex 27.6943 7.81257 0
      vertex 27.0531 8.13926 0
    endloop
  endfacet
  facet normal 0.891007 -0.45399 0
    outer loop
      vertex 26.2176 10.7107 1.65
      vertex 26.5443 11.3519 0
      vertex 26.5443 11.3519 1.65
    endloop
  endfacet
  facet normal 0.891007 -0.45399 0
    outer loop
      vertex 26.5443 11.3519 0
      vertex 26.2176 10.7107 1.65
      vertex 26.2176 10.7107 0
    endloop
  endfacet
  facet normal 0.453989 -0.891007 0
    outer loop
      vertex 27.0531 11.8607 0
      vertex 27.6943 12.1874 1.65
      vertex 27.0531 11.8607 1.65
    endloop
  endfacet
  facet normal 0.453989 -0.891007 0
    outer loop
      vertex 27.6943 12.1874 1.65
      vertex 27.0531 11.8607 0
      vertex 27.6943 12.1874 0
    endloop
  endfacet
  facet normal -0.987688 0.156434 0
    outer loop
      vertex 30.5924 9.28926 0
      vertex 30.705 10 1.65
      vertex 30.705 10 0
    endloop
  endfacet
  facet normal -0.987688 0.156434 0
    outer loop
      vertex 30.705 10 1.65
      vertex 30.5924 9.28926 0
      vertex 30.5924 9.28926 1.65
    endloop
  endfacet
  facet normal -0.453989 -0.891007 0
    outer loop
      vertex 29.1157 12.1874 0
      vertex 29.7569 11.8607 1.65
      vertex 29.1157 12.1874 1.65
    endloop
  endfacet
  facet normal -0.453989 -0.891007 -0
    outer loop
      vertex 29.7569 11.8607 1.65
      vertex 29.1157 12.1874 0
      vertex 29.7569 11.8607 0
    endloop
  endfacet
  facet normal -0.156435 -0.987688 0
    outer loop
      vertex 28.405 12.3 0
      vertex 29.1157 12.1874 1.65
      vertex 28.405 12.3 1.65
    endloop
  endfacet
  facet normal -0.156435 -0.987688 -0
    outer loop
      vertex 29.1157 12.1874 1.65
      vertex 28.405 12.3 0
      vertex 29.1157 12.1874 0
    endloop
  endfacet
  facet normal 0.156434 -0.987688 0
    outer loop
      vertex 27.6943 12.1874 0
      vertex 28.405 12.3 1.65
      vertex 27.6943 12.1874 1.65
    endloop
  endfacet
  facet normal 0.156434 -0.987688 0
    outer loop
      vertex 28.405 12.3 1.65
      vertex 27.6943 12.1874 0
      vertex 28.405 12.3 0
    endloop
  endfacet
  facet normal 0.156434 0.987688 -0
    outer loop
      vertex 28.405 7.7 0
      vertex 27.6943 7.81257 1.65
      vertex 28.405 7.7 1.65
    endloop
  endfacet
  facet normal 0.156434 0.987688 0
    outer loop
      vertex 27.6943 7.81257 1.65
      vertex 28.405 7.7 0
      vertex 27.6943 7.81257 0
    endloop
  endfacet
  facet normal 0.707107 0.707107 0
    outer loop
      vertex 27.0531 8.13926 1.65
      vertex 26.5443 8.64809 0
      vertex 26.5443 8.64809 1.65
    endloop
  endfacet
  facet normal 0.707107 0.707107 0
    outer loop
      vertex 26.5443 8.64809 0
      vertex 27.0531 8.13926 1.65
      vertex 27.0531 8.13926 0
    endloop
  endfacet
  facet normal 0.987688 -0.156434 0
    outer loop
      vertex 26.105 10 1.65
      vertex 26.2176 10.7107 0
      vertex 26.2176 10.7107 1.65
    endloop
  endfacet
  facet normal 0.987688 -0.156434 0
    outer loop
      vertex 26.2176 10.7107 0
      vertex 26.105 10 1.65
      vertex 26.105 10 0
    endloop
  endfacet
  facet normal 0.707107 -0.707107 0
    outer loop
      vertex 26.5443 11.3519 1.65
      vertex 27.0531 11.8607 0
      vertex 27.0531 11.8607 1.65
    endloop
  endfacet
  facet normal 0.707107 -0.707107 0
    outer loop
      vertex 27.0531 11.8607 0
      vertex 26.5443 11.3519 1.65
      vertex 26.5443 11.3519 0
    endloop
  endfacet
  facet normal -0.156434 0.987688 0
    outer loop
      vertex 57.1157 7.81257 0
      vertex 56.405 7.7 1.65
      vertex 57.1157 7.81257 1.65
    endloop
  endfacet
  facet normal -0.156434 0.987688 0
    outer loop
      vertex 56.405 7.7 1.65
      vertex 57.1157 7.81257 0
      vertex 56.405 7.7 0
    endloop
  endfacet
  facet normal -0.987689 -0.156432 0
    outer loop
      vertex 58.705 10 0
      vertex 58.5924 10.7107 1.65
      vertex 58.5924 10.7107 0
    endloop
  endfacet
  facet normal -0.987689 -0.156432 0
    outer loop
      vertex 58.5924 10.7107 1.65
      vertex 58.705 10 0
      vertex 58.705 10 1.65
    endloop
  endfacet
  facet normal 0.987688 0.156437 0
    outer loop
      vertex 54.2176 9.28926 1.65
      vertex 54.105 10 0
      vertex 54.105 10 1.65
    endloop
  endfacet
  facet normal 0.987688 0.156437 0
    outer loop
      vertex 54.105 10 0
      vertex 54.2176 9.28926 1.65
      vertex 54.2176 9.28926 0
    endloop
  endfacet
  facet normal -0.707105 0.707108 0
    outer loop
      vertex 58.2657 8.64809 0
      vertex 57.7569 8.13926 1.65
      vertex 58.2657 8.64809 1.65
    endloop
  endfacet
  facet normal -0.707105 0.707108 0
    outer loop
      vertex 57.7569 8.13926 1.65
      vertex 58.2657 8.64809 0
      vertex 57.7569 8.13926 0
    endloop
  endfacet
  facet normal -0.45399 0.891007 0
    outer loop
      vertex 57.7569 8.13926 0
      vertex 57.1157 7.81257 1.65
      vertex 57.7569 8.13926 1.65
    endloop
  endfacet
  facet normal -0.45399 0.891007 0
    outer loop
      vertex 57.1157 7.81257 1.65
      vertex 57.7569 8.13926 0
      vertex 57.1157 7.81257 0
    endloop
  endfacet
  facet normal -0.891007 0.45399 0
    outer loop
      vertex 58.2657 8.64809 0
      vertex 58.5924 9.28926 1.65
      vertex 58.5924 9.28926 0
    endloop
  endfacet
  facet normal -0.891007 0.45399 0
    outer loop
      vertex 58.5924 9.28926 1.65
      vertex 58.2657 8.64809 0
      vertex 58.2657 8.64809 1.65
    endloop
  endfacet
  facet normal -0.707105 -0.707108 0
    outer loop
      vertex 57.7569 11.8607 0
      vertex 58.2657 11.3519 1.65
      vertex 57.7569 11.8607 1.65
    endloop
  endfacet
  facet normal -0.707105 -0.707108 -0
    outer loop
      vertex 58.2657 11.3519 1.65
      vertex 57.7569 11.8607 0
      vertex 58.2657 11.3519 0
    endloop
  endfacet
  facet normal -0.891007 -0.45399 0
    outer loop
      vertex 58.5924 10.7107 0
      vertex 58.2657 11.3519 1.65
      vertex 58.2657 11.3519 0
    endloop
  endfacet
  facet normal -0.891007 -0.45399 0
    outer loop
      vertex 58.2657 11.3519 1.65
      vertex 58.5924 10.7107 0
      vertex 58.5924 10.7107 1.65
    endloop
  endfacet
  facet normal 0.891007 0.45399 0
    outer loop
      vertex 54.5443 8.64809 1.65
      vertex 54.2176 9.28926 0
      vertex 54.2176 9.28926 1.65
    endloop
  endfacet
  facet normal 0.891007 0.45399 0
    outer loop
      vertex 54.2176 9.28926 0
      vertex 54.5443 8.64809 1.65
      vertex 54.5443 8.64809 0
    endloop
  endfacet
  facet normal 0.45399 0.891007 -0
    outer loop
      vertex 55.6943 7.81257 0
      vertex 55.0531 8.13926 1.65
      vertex 55.6943 7.81257 1.65
    endloop
  endfacet
  facet normal 0.45399 0.891007 0
    outer loop
      vertex 55.0531 8.13926 1.65
      vertex 55.6943 7.81257 0
      vertex 55.0531 8.13926 0
    endloop
  endfacet
  facet normal 0.891007 -0.45399 0
    outer loop
      vertex 54.2176 10.7107 1.65
      vertex 54.5443 11.3519 0
      vertex 54.5443 11.3519 1.65
    endloop
  endfacet
  facet normal 0.891007 -0.45399 0
    outer loop
      vertex 54.5443 11.3519 0
      vertex 54.2176 10.7107 1.65
      vertex 54.2176 10.7107 0
    endloop
  endfacet
  facet normal 0.45399 -0.891007 0
    outer loop
      vertex 55.0531 11.8607 0
      vertex 55.6943 12.1874 1.65
      vertex 55.0531 11.8607 1.65
    endloop
  endfacet
  facet normal 0.45399 -0.891007 0
    outer loop
      vertex 55.6943 12.1874 1.65
      vertex 55.0531 11.8607 0
      vertex 55.6943 12.1874 0
    endloop
  endfacet
  facet normal -0.987689 0.156432 0
    outer loop
      vertex 58.5924 9.28926 0
      vertex 58.705 10 1.65
      vertex 58.705 10 0
    endloop
  endfacet
  facet normal -0.987689 0.156432 0
    outer loop
      vertex 58.705 10 1.65
      vertex 58.5924 9.28926 0
      vertex 58.5924 9.28926 1.65
    endloop
  endfacet
  facet normal -0.45399 -0.891007 0
    outer loop
      vertex 57.1157 12.1874 0
      vertex 57.7569 11.8607 1.65
      vertex 57.1157 12.1874 1.65
    endloop
  endfacet
  facet normal -0.45399 -0.891007 -0
    outer loop
      vertex 57.7569 11.8607 1.65
      vertex 57.1157 12.1874 0
      vertex 57.7569 11.8607 0
    endloop
  endfacet
  facet normal -0.156434 -0.987688 0
    outer loop
      vertex 56.405 12.3 0
      vertex 57.1157 12.1874 1.65
      vertex 56.405 12.3 1.65
    endloop
  endfacet
  facet normal -0.156434 -0.987688 -0
    outer loop
      vertex 57.1157 12.1874 1.65
      vertex 56.405 12.3 0
      vertex 57.1157 12.1874 0
    endloop
  endfacet
  facet normal 0.156434 -0.987688 0
    outer loop
      vertex 55.6943 12.1874 0
      vertex 56.405 12.3 1.65
      vertex 55.6943 12.1874 1.65
    endloop
  endfacet
  facet normal 0.156434 -0.987688 0
    outer loop
      vertex 56.405 12.3 1.65
      vertex 55.6943 12.1874 0
      vertex 56.405 12.3 0
    endloop
  endfacet
  facet normal 0.156434 0.987688 -0
    outer loop
      vertex 56.405 7.7 0
      vertex 55.6943 7.81257 1.65
      vertex 56.405 7.7 1.65
    endloop
  endfacet
  facet normal 0.156434 0.987688 0
    outer loop
      vertex 55.6943 7.81257 1.65
      vertex 56.405 7.7 0
      vertex 55.6943 7.81257 0
    endloop
  endfacet
  facet normal 0.707108 0.707105 0
    outer loop
      vertex 55.0531 8.13926 1.65
      vertex 54.5443 8.64809 0
      vertex 54.5443 8.64809 1.65
    endloop
  endfacet
  facet normal 0.707108 0.707105 0
    outer loop
      vertex 54.5443 8.64809 0
      vertex 55.0531 8.13926 1.65
      vertex 55.0531 8.13926 0
    endloop
  endfacet
  facet normal 0.987688 -0.156437 0
    outer loop
      vertex 54.105 10 1.65
      vertex 54.2176 10.7107 0
      vertex 54.2176 10.7107 1.65
    endloop
  endfacet
  facet normal 0.987688 -0.156437 0
    outer loop
      vertex 54.2176 10.7107 0
      vertex 54.105 10 1.65
      vertex 54.105 10 0
    endloop
  endfacet
  facet normal 0.707108 -0.707105 0
    outer loop
      vertex 54.5443 11.3519 1.65
      vertex 55.0531 11.8607 0
      vertex 55.0531 11.8607 1.65
    endloop
  endfacet
  facet normal 0.707108 -0.707105 0
    outer loop
      vertex 55.0531 11.8607 0
      vertex 54.5443 11.3519 1.65
      vertex 54.5443 11.3519 0
    endloop
  endfacet
  facet normal 1 -0 0
    outer loop
      vertex 2 1 3.5
      vertex 2 17.8 0
      vertex 2 17.8 3.5
    endloop
  endfacet
  facet normal 1 0 0
    outer loop
      vertex 2 17.8 0
      vertex 2 1 3.5
      vertex 2 1 0
    endloop
  endfacet
  facet normal -1 0 0
    outer loop
      vertex 23.5 1 0
      vertex 23.5 17.8 3.5
      vertex 23.5 17.8 0
    endloop
  endfacet
  facet normal -1 -0 0
    outer loop
      vertex 23.5 17.8 3.5
      vertex 23.5 1 0
      vertex 23.5 1 3.5
    endloop
  endfacet
  facet normal 0 -1 0
    outer loop
      vertex 2 17.8 0
      vertex 23.5 17.8 3.5
      vertex 2 17.8 3.5
    endloop
  endfacet
  facet normal 0 -1 -0
    outer loop
      vertex 23.5 17.8 3.5
      vertex 2 17.8 0
      vertex 23.5 17.8 0
    endloop
  endfacet
  facet normal 0 1 -0
    outer loop
      vertex 23.5 1 0
      vertex 2 1 3.5
      vertex 23.5 1 3.5
    endloop
  endfacet
  facet normal 0 1 0
    outer loop
      vertex 2 1 3.5
      vertex 23.5 1 0
      vertex 2 1 0
    endloop
  endfacet
  facet normal 0 0 1
    outer loop
      vertex 2 17.8 3.5
      vertex 0 17.8 3.5
      vertex 2 1 3.5
    endloop
  endfacet
  facet normal 0 0 1
    outer loop
      vertex 59.999 7.925 3.5
      vertex 61.5 17.8 3.5
      vertex 59.999 12.075 3.5
    endloop
  endfacet
  facet normal 0 0 1
    outer loop
      vertex 61.5 17.8 3.5
      vertex 56.405 14.15 3.5
      vertex 59.999 12.075 3.5
    endloop
  endfacet
  facet normal -0 0 1
    outer loop
      vertex 23.5 17.8 3.5
      vertex 56.405 14.15 3.5
      vertex 61.5 17.8 3.5
    endloop
  endfacet
  facet normal 0 0 1
    outer loop
      vertex 52.811 12.075 3.5
      vertex 31.999 12.075 3.5
      vertex 52.811 7.925 3.5
    endloop
  endfacet
  facet normal 0 0 1
    outer loop
      vertex 56.405 14.15 3.5
      vertex 28.405 14.15 3.5
      vertex 52.811 12.075 3.5
    endloop
  endfacet
  facet normal 0 0 1
    outer loop
      vertex 52.811 12.075 3.5
      vertex 28.405 14.15 3.5
      vertex 31.999 12.075 3.5
    endloop
  endfacet
  facet normal 0 0 1
    outer loop
      vertex 24.811 12.075 3.5
      vertex 23.5 17.8 3.5
      vertex 24.811 7.925 3.5
    endloop
  endfacet
  facet normal 0 0 1
    outer loop
      vertex 28.405 14.15 3.5
      vertex 23.5 17.8 3.5
      vertex 24.811 12.075 3.5
    endloop
  endfacet
  facet normal 0 0 1
    outer loop
      vertex 56.405 14.15 3.5
      vertex 23.5 17.8 3.5
      vertex 28.405 14.15 3.5
    endloop
  endfacet
  facet normal 0 0 1
    outer loop
      vertex 61.5 17.8 3.5
      vertex 59.999 7.925 3.5
      vertex 61.5 0 3.5
    endloop
  endfacet
  facet normal -0 0 1
    outer loop
      vertex 56.405 5.85 3.5
      vertex 61.5 0 3.5
      vertex 59.999 7.925 3.5
    endloop
  endfacet
  facet normal 0 0 1
    outer loop
      vertex 52.811 7.925 3.5
      vertex 61.5 0 3.5
      vertex 56.405 5.85 3.5
    endloop
  endfacet
  facet normal 0 0 1
    outer loop
      vertex 31.999 7.925 3.5
      vertex 52.811 7.925 3.5
      vertex 31.999 12.075 3.5
    endloop
  endfacet
  facet normal 0 0 1
    outer loop
      vertex 52.811 7.925 3.5
      vertex 31.999 7.925 3.5
      vertex 61.5 0 3.5
    endloop
  endfacet
  facet normal 0 0 1
    outer loop
      vertex 23.5 1 3.5
      vertex 31.999 7.925 3.5
      vertex 28.405 5.85 3.5
    endloop
  endfacet
  facet normal 0 0 1
    outer loop
      vertex 23.5 1 3.5
      vertex 24.811 7.925 3.5
      vertex 23.5 17.8 3.5
    endloop
  endfacet
  facet normal 0 0 1
    outer loop
      vertex 23.5 1 3.5
      vertex 28.405 5.85 3.5
      vertex 24.811 7.925 3.5
    endloop
  endfacet
  facet normal 0 0 1
    outer loop
      vertex 31.999 7.925 3.5
      vertex 23.5 1 3.5
      vertex 61.5 0 3.5
    endloop
  endfacet
  facet normal 0 0 1
    outer loop
      vertex 0 0 3.5
      vertex 23.5 1 3.5
      vertex 2 1 3.5
    endloop
  endfacet
  facet normal 0 0 1
    outer loop
      vertex 23.5 1 3.5
      vertex 0 0 3.5
      vertex 61.5 0 3.5
    endloop
  endfacet
  facet normal 0 0 1
    outer loop
      vertex 0 0 3.5
      vertex 2 1 3.5
      vertex 0 17.8 3.5
    endloop
  endfacet
  facet normal 0 0 0
    outer loop
      vertex 23.5 17.8 3.5
      vertex 61.5 17.8 3.5
      vertex 0 17.8 3.5
    endloop
  endfacet
  facet normal 0 0 0
    outer loop
      vertex 0 17.8 3.5
      vertex 2 17.8 3.5
      vertex 23.5 17.8 3.5
    endloop
  endfacet
  facet normal 0 -1 0
    outer loop
      vertex 0 0 0
      vertex 61.5 0 3.5
      vertex 0 0 3.5
    endloop
  endfacet
  facet normal 0 -1 -0
    outer loop
      vertex 61.5 0 3.5
      vertex 0 0 0
      vertex 61.5 0 0
    endloop
  endfacet
endsolid OpenSCAD_Model
