solid OpenSCAD_Model
  facet normal 1.22461e-016 2.22045e-016 -1
    outer loop
      vertex -8.63926 29.7519 -8.10746e-015
      vertex 9.78902e-031 25.5 -7.99361e-015
      vertex -8.31257 29.1107 -8.20982e-015
    endloop
  endfacet
  facet normal 1.22461e-016 2.22045e-016 -1
    outer loop
      vertex 9.78902e-031 25.5 -7.99361e-015
      vertex -8.31257 55.6893 -2.30821e-015
      vertex -8.2 56.4 -2.1366e-015
    endloop
  endfacet
  facet normal 1.2246e-016 2.22043e-016 -1
    outer loop
      vertex -9.14809 30.2607 -8.05679e-015
      vertex 9.78902e-031 25.5 -7.99361e-015
      vertex -8.63926 29.7519 -8.10746e-015
    endloop
  endfacet
  facet normal 1.22459e-016 2.22044e-016 -1
    outer loop
      vertex 9.78902e-031 25.5 -7.99361e-015
      vertex -8.63926 55.0481 -2.49058e-015
      vertex -8.31257 55.6893 -2.30821e-015
    endloop
  endfacet
  facet normal 1.22461e-016 2.22045e-016 -1
    outer loop
      vertex -9.14809 54.5393 -2.66588e-015
      vertex 9.78902e-031 25.5 -7.99361e-015
      vertex -9.14809 30.2607 -8.05679e-015
    endloop
  endfacet
  facet normal 1.22462e-016 2.22045e-016 -1
    outer loop
      vertex 9.78902e-031 25.5 -7.99361e-015
      vertex -9.14809 54.5393 -2.66588e-015
      vertex -8.63926 55.0481 -2.49058e-015
    endloop
  endfacet
  facet normal 1.2246e-016 2.22045e-016 -1
    outer loop
      vertex -9.78926 30.5874 -8.06277e-015
      vertex -9.14809 54.5393 -2.66588e-015
      vertex -9.14809 30.2607 -8.05679e-015
    endloop
  endfacet
  facet normal 1.2246e-016 2.22045e-016 -1
    outer loop
      vertex -9.78926 30.5874 -8.06277e-015
      vertex -9.78926 54.2126 -2.81693e-015
      vertex -9.14809 54.5393 -2.66588e-015
    endloop
  endfacet
  facet normal 1.2246e-016 2.22045e-016 -1
    outer loop
      vertex -10.5 30.7 -8.12481e-015
      vertex -9.78926 54.2126 -2.81693e-015
      vertex -9.78926 30.5874 -8.06277e-015
    endloop
  endfacet
  facet normal 1.2246e-016 2.22045e-016 -1
    outer loop
      vertex -10.5 30.7 -8.12481e-015
      vertex -10.5 54.1 -2.92897e-015
      vertex -9.78926 54.2126 -2.81693e-015
    endloop
  endfacet
  facet normal 1.22462e-016 2.22045e-016 -1
    outer loop
      vertex -11.2107 30.5874 -8.23684e-015
      vertex -10.5 54.1 -2.92897e-015
      vertex -10.5 30.7 -8.12481e-015
    endloop
  endfacet
  facet normal 1.22461e-016 2.22045e-016 -1
    outer loop
      vertex -11.2107 30.5874 -8.23684e-015
      vertex -11.2107 54.2126 -2.99101e-015
      vertex -10.5 54.1 -2.92897e-015
    endloop
  endfacet
  facet normal 1.2246e-016 2.22045e-016 -1
    outer loop
      vertex -11.8519 30.2607 -8.3879e-015
      vertex -11.2107 54.2126 -2.99101e-015
      vertex -11.2107 30.5874 -8.23684e-015
    endloop
  endfacet
  facet normal 1.22461e-016 2.22045e-016 -1
    outer loop
      vertex -11.8519 30.2607 -8.3879e-015
      vertex -11.8519 54.5393 -2.99699e-015
      vertex -11.2107 54.2126 -2.99101e-015
    endloop
  endfacet
  facet normal 1.22461e-016 2.22045e-016 -1
    outer loop
      vertex -12.3607 29.7519 -8.5632e-015
      vertex -11.8519 54.5393 -2.99699e-015
      vertex -11.8519 30.2607 -8.3879e-015
    endloop
  endfacet
  facet normal 1.2246e-016 2.22045e-016 -1
    outer loop
      vertex -12.3607 29.7519 -8.5632e-015
      vertex -12.3607 55.0481 -2.94631e-015
      vertex -11.8519 54.5393 -2.99699e-015
    endloop
  endfacet
  facet normal 1.22462e-016 2.22042e-016 -1
    outer loop
      vertex -18 25.5 -1.01979e-014
      vertex -12.3607 29.7519 -8.5632e-015
      vertex -12.6874 29.1107 -8.74557e-015
    endloop
  endfacet
  facet normal 1.22461e-016 2.22045e-016 -1
    outer loop
      vertex -12.3607 29.7519 -8.5632e-015
      vertex -18 25.5 -1.01979e-014
      vertex -12.3607 55.0481 -2.94631e-015
    endloop
  endfacet
  facet normal 1.2246e-016 2.22045e-016 -1
    outer loop
      vertex -18 25.5 -1.01979e-014
      vertex -12.6874 29.1107 -8.74557e-015
      vertex -12.8 28.4 -8.91717e-015
    endloop
  endfacet
  facet normal 1.22461e-016 2.22045e-016 -1
    outer loop
      vertex -18 61.5 -2.20429e-015
      vertex -12.3607 55.0481 -2.94631e-015
      vertex -18 25.5 -1.01979e-014
    endloop
  endfacet
  facet normal 1.22461e-016 2.22045e-016 -1
    outer loop
      vertex -8.31257 29.1107 -8.20982e-015
      vertex 9.78902e-031 25.5 -7.99361e-015
      vertex -8.2 28.4 -8.35385e-015
    endloop
  endfacet
  facet normal 1.22461e-016 2.22045e-016 -1
    outer loop
      vertex -8.63926 27.0481 -8.70783e-015
      vertex 9.78902e-031 25.5 -7.99361e-015
      vertex 1.03329e-030 23.5 -8.43769e-015
    endloop
  endfacet
  facet normal 1.2246e-016 2.22044e-016 -1
    outer loop
      vertex 9.78902e-031 25.5 -7.99361e-015
      vertex -8.31257 27.6893 -8.52545e-015
      vertex -8.2 28.4 -8.35385e-015
    endloop
  endfacet
  facet normal 1.22461e-016 2.22044e-016 -1
    outer loop
      vertex 9.78902e-031 25.5 -7.99361e-015
      vertex -8.63926 27.0481 -8.70783e-015
      vertex -8.31257 27.6893 -8.52545e-015
    endloop
  endfacet
  facet normal 1.22461e-016 2.22046e-016 -1
    outer loop
      vertex 1.03329e-030 23.5 -8.43769e-015
      vertex -9.14809 26.5393 -8.88313e-015
      vertex -8.63926 27.0481 -8.70783e-015
    endloop
  endfacet
  facet normal 1.2246e-016 2.22044e-016 -1
    outer loop
      vertex 1.03329e-030 23.5 -8.43769e-015
      vertex -9.78926 26.2126 -9.03418e-015
      vertex -9.14809 26.5393 -8.88313e-015
    endloop
  endfacet
  facet normal 1.22461e-016 2.22045e-016 -1
    outer loop
      vertex 1.03329e-030 23.5 -8.43769e-015
      vertex -10.5 26.1 -9.14622e-015
      vertex -9.78926 26.2126 -9.03418e-015
    endloop
  endfacet
  facet normal 1.22461e-016 2.22045e-016 -1
    outer loop
      vertex -18 23.5 -1.0642e-014
      vertex -10.5 26.1 -9.14622e-015
      vertex 1.03329e-030 23.5 -8.43769e-015
    endloop
  endfacet
  facet normal 1.22461e-016 2.22044e-016 -1
    outer loop
      vertex -12.6874 27.6893 -9.0612e-015
      vertex -18 25.5 -1.01979e-014
      vertex -12.8 28.4 -8.91717e-015
    endloop
  endfacet
  facet normal 1.22461e-016 2.22045e-016 -1
    outer loop
      vertex -12.3607 27.0481 -9.16356e-015
      vertex -18 25.5 -1.01979e-014
      vertex -12.6874 27.6893 -9.0612e-015
    endloop
  endfacet
  facet normal 1.22461e-016 2.22045e-016 -1
    outer loop
      vertex -18 25.5 -1.01979e-014
      vertex -12.3607 27.0481 -9.16356e-015
      vertex -18 23.5 -1.0642e-014
    endloop
  endfacet
  facet normal 1.22461e-016 2.22045e-016 -1
    outer loop
      vertex -11.8519 26.5393 -9.21424e-015
      vertex -18 23.5 -1.0642e-014
      vertex -12.3607 27.0481 -9.16356e-015
    endloop
  endfacet
  facet normal 1.2246e-016 2.22045e-016 -1
    outer loop
      vertex -11.2107 26.2126 -9.20826e-015
      vertex -18 23.5 -1.0642e-014
      vertex -11.8519 26.5393 -9.21424e-015
    endloop
  endfacet
  facet normal 1.22461e-016 2.22044e-016 -1
    outer loop
      vertex -10.5 26.1 -9.14622e-015
      vertex -18 23.5 -1.0642e-014
      vertex -11.2107 26.2126 -9.20826e-015
    endloop
  endfacet
  facet normal 1.22461e-016 2.22045e-016 -1
    outer loop
      vertex 9.78902e-031 25.5 -7.99361e-015
      vertex -8.2 56.4 -2.1366e-015
      vertex 0 61.5 0
    endloop
  endfacet
  facet normal 1.2246e-016 2.22045e-016 -1
    outer loop
      vertex -8.31257 57.1107 -1.99257e-015
      vertex 0 61.5 0
      vertex -8.2 56.4 -2.1366e-015
    endloop
  endfacet
  facet normal 1.22461e-016 2.22044e-016 -1
    outer loop
      vertex -8.63926 57.7519 -1.89021e-015
      vertex 0 61.5 0
      vertex -8.31257 57.1107 -1.99257e-015
    endloop
  endfacet
  facet normal 1.22461e-016 2.22045e-016 -1
    outer loop
      vertex -9.14809 58.2607 -1.83954e-015
      vertex 0 61.5 0
      vertex -8.63926 57.7519 -1.89021e-015
    endloop
  endfacet
  facet normal 1.22461e-016 2.22045e-016 -1
    outer loop
      vertex -9.78926 58.5874 -1.84552e-015
      vertex 0 61.5 0
      vertex -9.14809 58.2607 -1.83954e-015
    endloop
  endfacet
  facet normal 1.2246e-016 2.22045e-016 -1
    outer loop
      vertex -10.5 58.7 -1.90756e-015
      vertex 0 61.5 0
      vertex -9.78926 58.5874 -1.84552e-015
    endloop
  endfacet
  facet normal 1.22461e-016 2.22045e-016 -1
    outer loop
      vertex -18 61.5 -2.20429e-015
      vertex -10.5 58.7 -1.90756e-015
      vertex -11.2107 58.5874 -2.01959e-015
    endloop
  endfacet
  facet normal 1.22458e-016 2.22042e-016 -1
    outer loop
      vertex -12.3607 55.0481 -2.94631e-015
      vertex -18 61.5 -2.20429e-015
      vertex -12.6874 55.6893 -2.84395e-015
    endloop
  endfacet
  facet normal 1.22461e-016 2.22045e-016 -1
    outer loop
      vertex -12.6874 55.6893 -2.84395e-015
      vertex -18 61.5 -2.20429e-015
      vertex -12.8 56.4 -2.69992e-015
    endloop
  endfacet
  facet normal 1.22461e-016 2.22044e-016 -1
    outer loop
      vertex -10.5 58.7 -1.90756e-015
      vertex -18 61.5 -2.20429e-015
      vertex 0 61.5 0
    endloop
  endfacet
  facet normal 1.22461e-016 2.22045e-016 -1
    outer loop
      vertex -11.8519 58.2607 -2.17065e-015
      vertex -18 61.5 -2.20429e-015
      vertex -11.2107 58.5874 -2.01959e-015
    endloop
  endfacet
  facet normal 1.22461e-016 2.22045e-016 -1
    outer loop
      vertex -12.3607 57.7519 -2.34595e-015
      vertex -18 61.5 -2.20429e-015
      vertex -11.8519 58.2607 -2.17065e-015
    endloop
  endfacet
  facet normal 1.2246e-016 2.22044e-016 -1
    outer loop
      vertex -12.6874 57.1107 -2.52832e-015
      vertex -18 61.5 -2.20429e-015
      vertex -12.3607 57.7519 -2.34595e-015
    endloop
  endfacet
  facet normal 1.22461e-016 2.22045e-016 -1
    outer loop
      vertex -12.8 56.4 -2.69992e-015
      vertex -18 61.5 -2.20429e-015
      vertex -12.6874 57.1107 -2.52832e-015
    endloop
  endfacet
  facet normal 1.22461e-016 2.22045e-016 -1
    outer loop
      vertex 1.6968 6.52519 -1.19991e-014
      vertex 1.03329e-030 23.5 -8.43769e-015
      vertex 1.6968 25.5 -7.78582e-015
    endloop
  endfacet
  facet normal 1.22461e-016 2.22045e-016 -1
    outer loop
      vertex -2.15257 2 -1.34753e-014
      vertex 1.6968 6.52519 -1.19991e-014
      vertex 1.70169 -3.8147e-007 -1.34474e-014
    endloop
  endfacet
  facet normal 1.2246e-016 2.22045e-016 -1
    outer loop
      vertex -2.15257 23.5 -8.7013e-015
      vertex 1.6968 6.52519 -1.19991e-014
      vertex -2.15257 2 -1.34753e-014
    endloop
  endfacet
  facet normal 1.22461e-016 2.22045e-016 -1
    outer loop
      vertex -20.3 -3.8147e-007 -1.61417e-014
      vertex -2.15257 2 -1.34753e-014
      vertex 1.70169 -3.8147e-007 -1.34474e-014
    endloop
  endfacet
  facet normal 1.2246e-016 2.22045e-016 -1
    outer loop
      vertex -18.8206 2 -1.55164e-014
      vertex -20.3 -3.8147e-007 -1.61417e-014
      vertex -18.8206 23.5 -1.07425e-014
    endloop
  endfacet
  facet normal 1.22461e-016 2.22044e-016 -1
    outer loop
      vertex -2.15257 2 -1.34753e-014
      vertex -20.3 -3.8147e-007 -1.61417e-014
      vertex -18.8206 2 -1.55164e-014
    endloop
  endfacet
  facet normal 1.22461e-016 2.22045e-016 -1
    outer loop
      vertex 1.6968 25.5 -7.78582e-015
      vertex 1.03329e-030 23.5 -8.43769e-015
      vertex 9.78902e-031 25.5 -7.99361e-015
    endloop
  endfacet
  facet normal 1.22461e-016 2.22045e-016 -1
    outer loop
      vertex 1.6968 6.52519 -1.19991e-014
      vertex -2.15257 23.5 -8.7013e-015
      vertex 1.03329e-030 23.5 -8.43769e-015
    endloop
  endfacet
  facet normal 1.22461e-016 1.46283e-016 -1
    outer loop
      vertex -2.15257 23.5 -8.7013e-015
      vertex -18 23.5 -1.0642e-014
      vertex 1.03329e-030 23.5 -8.43769e-015
    endloop
  endfacet
  facet normal 1.22461e-016 1.66516e-016 -1
    outer loop
      vertex -18.8206 23.5 -1.07425e-014
      vertex -18 23.5 -1.0642e-014
      vertex -2.15257 23.5 -8.7013e-015
    endloop
  endfacet
  facet normal 1.2246e-016 2.22045e-016 -1
    outer loop
      vertex -18.8206 23.5 -1.07425e-014
      vertex -18 25.5 -1.01979e-014
      vertex -18 23.5 -1.0642e-014
    endloop
  endfacet
  facet normal 1.22461e-016 2.22044e-016 -1
    outer loop
      vertex -18.8206 23.5 -1.07425e-014
      vertex -20.3 25.5 -1.04796e-014
      vertex -18 25.5 -1.01979e-014
    endloop
  endfacet
  facet normal 1.22461e-016 2.22045e-016 -1
    outer loop
      vertex -20.3 25.5 -1.04796e-014
      vertex -18.8206 23.5 -1.07425e-014
      vertex -20.3 -3.8147e-007 -1.61417e-014
    endloop
  endfacet
  facet normal 0.845569 0 -0.533866
    outer loop
      vertex 7.25414 -3.8147e-007 9.53422
      vertex 4.5969 25.5 5.32551
      vertex 7.25414 25.5 9.53422
    endloop
  endfacet
  facet normal 0.845569 0 -0.533866
    outer loop
      vertex 4.5969 25.5 5.32551
      vertex 7.25414 -3.8147e-007 9.53422
      vertex 4.5969 -3.8147e-007 5.32551
    endloop
  endfacet
  facet normal 0.814762 0 -0.579795
    outer loop
      vertex 10.14 -3.8147e-007 13.5896
      vertex 7.25414 25.5 9.53422
      vertex 10.14 25.5 13.5896
    endloop
  endfacet
  facet normal 0.814762 0 -0.579795
    outer loop
      vertex 7.25414 25.5 9.53422
      vertex 10.14 -3.8147e-007 13.5896
      vertex 7.25414 -3.8147e-007 9.53422
    endloop
  endfacet
  facet normal 0.899337 0.000673009 -0.437255
    outer loop
      vertex 1.6968 6.52519 -1.19991e-014
      vertex 2.17638 -3.8147e-007 0.976337
      vertex 1.70169 -3.8147e-007 -1.34474e-014
    endloop
  endfacet
  facet normal 0.897565 9.95109e-017 -0.440882
    outer loop
      vertex 2.17638 25.5 0.976337
      vertex 1.6968 6.52519 -1.19991e-014
      vertex 1.6968 25.5 -7.78582e-015
    endloop
  endfacet
  facet normal 0.897565 0 -0.440882
    outer loop
      vertex 1.6968 6.52519 -1.19991e-014
      vertex 2.17638 25.5 0.976337
      vertex 2.17638 -3.8147e-007 0.976337
    endloop
  endfacet
  facet normal 0.87379 0 -0.486304
    outer loop
      vertex 4.5969 -3.8147e-007 5.32551
      vertex 2.17638 25.5 0.976337
      vertex 4.5969 25.5 5.32551
    endloop
  endfacet
  facet normal 0.87379 0 -0.486304
    outer loop
      vertex 2.17638 25.5 0.976337
      vertex 4.5969 -3.8147e-007 5.32551
      vertex 2.17638 -3.8147e-007 0.976337
    endloop
  endfacet
  facet normal 0.707106 0 0.707107
    outer loop
      vertex 9.43289 23.5 14.2967
      vertex 10.14 -3.8147e-007 13.5896
      vertex 10.14 25.5 13.5896
    endloop
  endfacet
  facet normal 0.707106 0 0.707107
    outer loop
      vertex 10.14 -3.8147e-007 13.5896
      vertex 9.43289 23.5 14.2967
      vertex 9.43289 2 14.2967
    endloop
  endfacet
  facet normal 0.707107 -3.37175e-007 0.707107
    outer loop
      vertex 4.8367 23.5 18.8929
      vertex 10.14 25.5 13.5896
      vertex 4.12959 25.5 19.6
    endloop
  endfacet
  facet normal 0.707107 -3.37175e-007 0.707107
    outer loop
      vertex 10.14 25.5 13.5896
      vertex 4.8367 23.5 18.8929
      vertex 9.43289 23.5 14.2967
    endloop
  endfacet
  facet normal 0.707107 0 0.707106
    outer loop
      vertex 4.12959 25.5 19.6
      vertex 4.8367 2 18.8929
      vertex 4.8367 23.5 18.8929
    endloop
  endfacet
  facet normal 0.707107 0 0.707106
    outer loop
      vertex 4.8367 2 18.8929
      vertex 4.12959 25.5 19.6
      vertex 4.12959 -3.8147e-007 19.6
    endloop
  endfacet
  facet normal 0.707107 3.37175e-007 0.707107
    outer loop
      vertex 4.12959 -3.8147e-007 19.6
      vertex 9.43289 2 14.2967
      vertex 4.8367 2 18.8929
    endloop
  endfacet
  facet normal 0.707107 3.37175e-007 0.707107
    outer loop
      vertex 9.43289 2 14.2967
      vertex 4.12959 -3.8147e-007 19.6
      vertex 10.14 -3.8147e-007 13.5896
    endloop
  endfacet
  facet normal -0.486161 0 0.87387
    outer loop
      vertex -0.462406 25.5 17.0453
      vertex 4.12959 -3.8147e-007 19.6
      vertex 4.12959 25.5 19.6
    endloop
  endfacet
  facet normal -0.486161 0 0.87387
    outer loop
      vertex 4.12959 -3.8147e-007 19.6
      vertex -0.462406 25.5 17.0453
      vertex -0.462406 -3.8147e-007 17.0453
    endloop
  endfacet
  facet normal -0.543896 0 0.839153
    outer loop
      vertex -4.87197 25.5 14.1873
      vertex -0.462406 -3.8147e-007 17.0453
      vertex -0.462406 25.5 17.0453
    endloop
  endfacet
  facet normal -0.543896 0 0.839153
    outer loop
      vertex -0.462406 -3.8147e-007 17.0453
      vertex -4.87197 25.5 14.1873
      vertex -4.87197 -3.8147e-007 14.1873
    endloop
  endfacet
  facet normal -0.599162 0 0.800628
    outer loop
      vertex -9.0791 25.5 11.0388
      vertex -4.87197 -3.8147e-007 14.1873
      vertex -4.87197 25.5 14.1873
    endloop
  endfacet
  facet normal -0.599162 0 0.800628
    outer loop
      vertex -4.87197 -3.8147e-007 14.1873
      vertex -9.0791 25.5 11.0388
      vertex -9.0791 -3.8147e-007 11.0388
    endloop
  endfacet
  facet normal -0.65171 0 0.758468
    outer loop
      vertex -13.0647 25.5 7.61421
      vertex -9.0791 -3.8147e-007 11.0388
      vertex -9.0791 25.5 11.0388
    endloop
  endfacet
  facet normal -0.65171 0 0.758468
    outer loop
      vertex -9.0791 -3.8147e-007 11.0388
      vertex -13.0647 25.5 7.61421
      vertex -13.0647 -3.8147e-007 7.61421
    endloop
  endfacet
  facet normal -0.701299 0 0.712868
    outer loop
      vertex -16.8107 25.5 3.92903
      vertex -13.0647 -3.8147e-007 7.61421
      vertex -13.0647 25.5 7.61421
    endloop
  endfacet
  facet normal -0.701299 0 0.712868
    outer loop
      vertex -13.0647 -3.8147e-007 7.61421
      vertex -16.8107 25.5 3.92903
      vertex -16.8107 -3.8147e-007 3.92903
    endloop
  endfacet
  facet normal -0.747706 -1.47444e-016 0.66403
    outer loop
      vertex -20.3 -3.8147e-007 -1.61417e-014
      vertex -16.8107 25.5 3.92903
      vertex -20.3 25.5 -1.04796e-014
    endloop
  endfacet
  facet normal -0.747706 0 0.66403
    outer loop
      vertex -16.8107 25.5 3.92903
      vertex -20.3 -3.8147e-007 -1.61417e-014
      vertex -16.8107 -3.8147e-007 3.92903
    endloop
  endfacet
  facet normal 0 -1 0
    outer loop
      vertex 4.5969 -3.8147e-007 5.32551
      vertex -0.462406 -3.8147e-007 17.0453
      vertex -4.87197 -3.8147e-007 14.1873
    endloop
  endfacet
  facet normal 0 -1 0
    outer loop
      vertex -0.462406 -3.8147e-007 17.0453
      vertex 7.25414 -3.8147e-007 9.53422
      vertex 4.12959 -3.8147e-007 19.6
    endloop
  endfacet
  facet normal 0 -1 0
    outer loop
      vertex 4.5969 -3.8147e-007 5.32551
      vertex -4.87197 -3.8147e-007 14.1873
      vertex -9.0791 -3.8147e-007 11.0388
    endloop
  endfacet
  facet normal 0 -1 0
    outer loop
      vertex 4.12959 -3.8147e-007 19.6
      vertex 7.25414 -3.8147e-007 9.53422
      vertex 10.14 -3.8147e-007 13.5896
    endloop
  endfacet
  facet normal 0 -1 0
    outer loop
      vertex 1.70169 -3.8147e-007 -1.34474e-014
      vertex -9.0791 -3.8147e-007 11.0388
      vertex -13.0647 -3.8147e-007 7.61421
    endloop
  endfacet
  facet normal 0 -1 0
    outer loop
      vertex -0.462406 -3.8147e-007 17.0453
      vertex 4.5969 -3.8147e-007 5.32551
      vertex 7.25414 -3.8147e-007 9.53422
    endloop
  endfacet
  facet normal 0 -1 0
    outer loop
      vertex 1.70169 -3.8147e-007 -1.34474e-014
      vertex -13.0647 -3.8147e-007 7.61421
      vertex -16.8107 -3.8147e-007 3.92903
    endloop
  endfacet
  facet normal 0 -1 0
    outer loop
      vertex -9.0791 -3.8147e-007 11.0388
      vertex 2.17638 -3.8147e-007 0.976337
      vertex 4.5969 -3.8147e-007 5.32551
    endloop
  endfacet
  facet normal 0 -1 0
    outer loop
      vertex -9.0791 -3.8147e-007 11.0388
      vertex 1.70169 -3.8147e-007 -1.34474e-014
      vertex 2.17638 -3.8147e-007 0.976337
    endloop
  endfacet
  facet normal -0 -1 0
    outer loop
      vertex 1.70169 -3.8147e-007 -1.34474e-014
      vertex -16.8107 -3.8147e-007 3.92903
      vertex -20.3 -3.8147e-007 -1.61417e-014
    endloop
  endfacet
  facet normal 0 1 0
    outer loop
      vertex 7.25414 25.5 9.53422
      vertex -0.462406 25.5 17.0453
      vertex 4.12959 25.5 19.6
    endloop
  endfacet
  facet normal 0 1 -0
    outer loop
      vertex 7.25414 25.5 9.53422
      vertex 4.12959 25.5 19.6
      vertex 10.14 25.5 13.5896
    endloop
  endfacet
  facet normal 0 1 0
    outer loop
      vertex -0.462406 25.5 17.0453
      vertex -1.22461e-015 25.5 10
      vertex -4.87197 25.5 14.1873
    endloop
  endfacet
  facet normal 0 1 0
    outer loop
      vertex -6.5 25.5 10
      vertex -4.87197 25.5 14.1873
      vertex -1.22461e-015 25.5 10
    endloop
  endfacet
  facet normal 0 1 0
    outer loop
      vertex -0.462406 25.5 17.0453
      vertex 7.25414 25.5 9.53422
      vertex -1.22461e-015 25.5 10
    endloop
  endfacet
  facet normal 0 1 -0
    outer loop
      vertex 4.5969 25.5 5.32551
      vertex -1.22461e-015 25.5 10
      vertex 7.25414 25.5 9.53422
    endloop
  endfacet
  facet normal 0 1 -0
    outer loop
      vertex 2.17638 25.5 0.976337
      vertex -1.22461e-015 25.5 10
      vertex 4.5969 25.5 5.32551
    endloop
  endfacet
  facet normal 0 1 0
    outer loop
      vertex 9.78902e-031 25.5 -7.99361e-015
      vertex 2.17638 25.5 0.976337
      vertex 1.6968 25.5 -7.78582e-015
    endloop
  endfacet
  facet normal 0 1 0
    outer loop
      vertex 2.17638 25.5 0.976337
      vertex 9.78902e-031 25.5 -7.99361e-015
      vertex -1.22461e-015 25.5 10
    endloop
  endfacet
  facet normal 0 1 0
    outer loop
      vertex -4.87197 25.5 14.1873
      vertex -6.5 25.5 10
      vertex -9.0791 25.5 11.0388
    endloop
  endfacet
  facet normal 0 1 0
    outer loop
      vertex -6.5 25.5 10
      vertex -13.0647 25.5 7.61421
      vertex -9.0791 25.5 11.0388
    endloop
  endfacet
  facet normal 0 1 -0
    outer loop
      vertex -6.5 25.5 2.5
      vertex -13.0647 25.5 7.61421
      vertex -6.5 25.5 10
    endloop
  endfacet
  facet normal 0 1 0
    outer loop
      vertex -13.0647 25.5 7.61421
      vertex -6.5 25.5 2.5
      vertex -16.8107 25.5 3.92903
    endloop
  endfacet
  facet normal 0 1 0
    outer loop
      vertex -18 25.5 2.5
      vertex -16.8107 25.5 3.92903
      vertex -6.5 25.5 2.5
    endloop
  endfacet
  facet normal 0 1 -0
    outer loop
      vertex -18 25.5 2.5
      vertex -20.3 25.5 -1.04796e-014
      vertex -16.8107 25.5 3.92903
    endloop
  endfacet
  facet normal 0 1 0
    outer loop
      vertex -20.3 25.5 -1.04796e-014
      vertex -18 25.5 2.5
      vertex -18 25.5 -1.01979e-014
    endloop
  endfacet
  facet normal -0.821206 -1.26706e-016 0.570631
    outer loop
      vertex -2.15257 2 -1.34753e-014
      vertex 0.215605 23.5 3.40808
      vertex -2.15257 23.5 -8.7013e-015
    endloop
  endfacet
  facet normal -0.821206 0 0.570631
    outer loop
      vertex 0.215605 23.5 3.40808
      vertex -2.15257 2 -1.34753e-014
      vertex 0.215605 2 3.40808
    endloop
  endfacet
  facet normal -0.793128 0 0.609055
    outer loop
      vertex 0.215605 2 3.40808
      vertex 3.11406 23.5 7.18253
      vertex 0.215605 23.5 3.40808
    endloop
  endfacet
  facet normal -0.793128 0 0.609055
    outer loop
      vertex 3.11406 23.5 7.18253
      vertex 0.215605 2 3.40808
      vertex 3.11406 2 7.18253
    endloop
  endfacet
  facet normal -0.763254 0 0.646099
    outer loop
      vertex 3.11406 2 7.18253
      vertex 6.18881 23.5 10.8148
      vertex 3.11406 23.5 7.18253
    endloop
  endfacet
  facet normal -0.763254 0 0.646099
    outer loop
      vertex 6.18881 23.5 10.8148
      vertex 3.11406 2 7.18253
      vertex 6.18881 2 10.8148
    endloop
  endfacet
  facet normal -0.731651 0 0.68168
    outer loop
      vertex 6.18881 2 10.8148
      vertex 9.43289 23.5 14.2967
      vertex 6.18881 23.5 10.8148
    endloop
  endfacet
  facet normal -0.731651 0 0.68168
    outer loop
      vertex 9.43289 23.5 14.2967
      vertex 6.18881 2 10.8148
      vertex 9.43289 2 14.2967
    endloop
  endfacet
  facet normal 0.520398 0 -0.853924
    outer loop
      vertex 0.412825 2 16.1969
      vertex 4.8367 23.5 18.8929
      vertex 4.8367 2 18.8929
    endloop
  endfacet
  facet normal 0.520398 0 -0.853924
    outer loop
      vertex 4.8367 23.5 18.8929
      vertex 0.412825 2 16.1969
      vertex 0.412825 23.5 16.1969
    endloop
  endfacet
  facet normal 0.563924 0 -0.825827
    outer loop
      vertex -3.86549 2 13.2754
      vertex 0.412825 23.5 16.1969
      vertex 0.412825 2 16.1969
    endloop
  endfacet
  facet normal 0.563924 0 -0.825827
    outer loop
      vertex 0.412825 23.5 16.1969
      vertex -3.86549 2 13.2754
      vertex -3.86549 23.5 13.2754
    endloop
  endfacet
  facet normal 0.605935 0 -0.795514
    outer loop
      vertex -7.98676 2 10.1363
      vertex -3.86549 23.5 13.2754
      vertex -3.86549 2 13.2754
    endloop
  endfacet
  facet normal 0.605935 0 -0.795514
    outer loop
      vertex -3.86549 23.5 13.2754
      vertex -7.98676 2 10.1363
      vertex -7.98676 23.5 10.1363
    endloop
  endfacet
  facet normal 0.646321 0 -0.763065
    outer loop
      vertex -11.9399 2 6.78791
      vertex -7.98676 23.5 10.1363
      vertex -7.98676 2 10.1363
    endloop
  endfacet
  facet normal 0.646321 0 -0.763065
    outer loop
      vertex -7.98676 23.5 10.1363
      vertex -11.9399 2 6.78791
      vertex -11.9399 23.5 6.78791
    endloop
  endfacet
  facet normal 0.684973 0 -0.728569
    outer loop
      vertex -15.7144 2 3.23931
      vertex -11.9399 23.5 6.78791
      vertex -11.9399 2 6.78791
    endloop
  endfacet
  facet normal 0.684973 0 -0.728569
    outer loop
      vertex -11.9399 23.5 6.78791
      vertex -15.7144 2 3.23931
      vertex -15.7144 23.5 3.23931
    endloop
  endfacet
  facet normal 0.721785 0 -0.692117
    outer loop
      vertex -15.7144 2 3.23931
      vertex -18.8206 23.5 -1.07425e-014
      vertex -15.7144 23.5 3.23931
    endloop
  endfacet
  facet normal 0.721785 1.53681e-016 -0.692117
    outer loop
      vertex -18.8206 23.5 -1.07425e-014
      vertex -15.7144 2 3.23931
      vertex -18.8206 2 -1.55164e-014
    endloop
  endfacet
  facet normal 0 1 -0
    outer loop
      vertex 6.18881 2 10.8148
      vertex 4.8367 2 18.8929
      vertex 9.43289 2 14.2967
    endloop
  endfacet
  facet normal 0 1 0
    outer loop
      vertex 4.8367 2 18.8929
      vertex 6.18881 2 10.8148
      vertex 0.412825 2 16.1969
    endloop
  endfacet
  facet normal 0 1 -0
    outer loop
      vertex 3.11406 2 7.18253
      vertex 0.412825 2 16.1969
      vertex 6.18881 2 10.8148
    endloop
  endfacet
  facet normal 0 1 0
    outer loop
      vertex 0.412825 2 16.1969
      vertex 3.11406 2 7.18253
      vertex -3.86549 2 13.2754
    endloop
  endfacet
  facet normal 0 1 -0
    outer loop
      vertex 0.215605 2 3.40808
      vertex -3.86549 2 13.2754
      vertex 3.11406 2 7.18253
    endloop
  endfacet
  facet normal 0 1 0
    outer loop
      vertex -3.86549 2 13.2754
      vertex 0.215605 2 3.40808
      vertex -7.98676 2 10.1363
    endloop
  endfacet
  facet normal 0 1 -0
    outer loop
      vertex -2.15257 2 -1.34753e-014
      vertex -7.98676 2 10.1363
      vertex 0.215605 2 3.40808
    endloop
  endfacet
  facet normal 0 1 0
    outer loop
      vertex -7.98676 2 10.1363
      vertex -2.15257 2 -1.34753e-014
      vertex -11.9399 2 6.78791
    endloop
  endfacet
  facet normal 0 1 0
    outer loop
      vertex -11.9399 2 6.78791
      vertex -2.15257 2 -1.34753e-014
      vertex -15.7144 2 3.23931
    endloop
  endfacet
  facet normal 0 1 0
    outer loop
      vertex -15.7144 2 3.23931
      vertex -2.15257 2 -1.34753e-014
      vertex -18.8206 2 -1.55164e-014
    endloop
  endfacet
  facet normal 0 -1 0
    outer loop
      vertex 6.18881 23.5 10.8148
      vertex 4.8367 23.5 18.8929
      vertex 0.412825 23.5 16.1969
    endloop
  endfacet
  facet normal 0 -1 0
    outer loop
      vertex 3.11406 23.5 7.18253
      vertex 0.412825 23.5 16.1969
      vertex -3.86549 23.5 13.2754
    endloop
  endfacet
  facet normal 0 -1 0
    outer loop
      vertex 4.8367 23.5 18.8929
      vertex 6.18881 23.5 10.8148
      vertex 9.43289 23.5 14.2967
    endloop
  endfacet
  facet normal 0 -1 0
    outer loop
      vertex 0.215605 23.5 3.40808
      vertex -3.86549 23.5 13.2754
      vertex -7.98676 23.5 10.1363
    endloop
  endfacet
  facet normal 0 -1 0
    outer loop
      vertex 0.412825 23.5 16.1969
      vertex 3.11406 23.5 7.18253
      vertex 6.18881 23.5 10.8148
    endloop
  endfacet
  facet normal 0 -1 0
    outer loop
      vertex -2.15257 23.5 -8.7013e-015
      vertex -7.98676 23.5 10.1363
      vertex -11.9399 23.5 6.78791
    endloop
  endfacet
  facet normal 0 -1 0
    outer loop
      vertex -3.86549 23.5 13.2754
      vertex 0.215605 23.5 3.40808
      vertex 3.11406 23.5 7.18253
    endloop
  endfacet
  facet normal 0 -1 0
    outer loop
      vertex -2.15257 23.5 -8.7013e-015
      vertex -11.9399 23.5 6.78791
      vertex -15.7144 23.5 3.23931
    endloop
  endfacet
  facet normal 0 -1 0
    outer loop
      vertex -7.98676 23.5 10.1363
      vertex -2.15257 23.5 -8.7013e-015
      vertex 0.215605 23.5 3.40808
    endloop
  endfacet
  facet normal -0 -1 0
    outer loop
      vertex -2.15257 23.5 -8.7013e-015
      vertex -15.7144 23.5 3.23931
      vertex -18.8206 23.5 -1.07425e-014
    endloop
  endfacet
  facet normal 1 -0 1.22461e-016
    outer loop
      vertex -3.06152e-016 33 2.5
      vertex 0 61.5 0
      vertex -3.06152e-016 61.5 2.5
    endloop
  endfacet
  facet normal 1 0 1.22461e-016
    outer loop
      vertex -3.06152e-016 33 2.5
      vertex 9.78902e-031 25.5 -7.99361e-015
      vertex 0 61.5 0
    endloop
  endfacet
  facet normal 1 1.45446e-024 1.22461e-016
    outer loop
      vertex 9.78902e-031 25.5 -7.99361e-015
      vertex -3.06152e-016 33 2.5
      vertex -1.22461e-015 25.5 10
    endloop
  endfacet
  facet normal -1 0 0
    outer loop
      vertex -18 25.5 -1.01979e-014
      vertex -18 61.5 2.5
      vertex -18 61.5 -2.20429e-015
    endloop
  endfacet
  facet normal -1 -0 0
    outer loop
      vertex -18 61.5 2.5
      vertex -18 25.5 -1.01979e-014
      vertex -18 25.5 2.5
    endloop
  endfacet
  facet normal 0 1 0
    outer loop
      vertex 0 61.5 0
      vertex -18 61.5 2.5
      vertex -3.06152e-016 61.5 2.5
    endloop
  endfacet
  facet normal 0 1 0
    outer loop
      vertex -18 61.5 2.5
      vertex 0 61.5 0
      vertex -18 61.5 -2.20429e-015
    endloop
  endfacet
  facet normal -0 0 1
    outer loop
      vertex -9.14809 54.5393 2.5
      vertex -3.06152e-016 33 2.5
      vertex -8.63926 55.0481 2.5
    endloop
  endfacet
  facet normal 0 0 1
    outer loop
      vertex -6.5 33 2.5
      vertex -8.31257 29.1107 2.5
      vertex -8.2 28.4 2.5
    endloop
  endfacet
  facet normal 0 0 1
    outer loop
      vertex -3.06152e-016 33 2.5
      vertex -9.14809 54.5393 2.5
      vertex -6.5 33 2.5
    endloop
  endfacet
  facet normal 0 0 1
    outer loop
      vertex -6.5 33 2.5
      vertex -8.63926 29.7519 2.5
      vertex -8.31257 29.1107 2.5
    endloop
  endfacet
  facet normal -0 0 1
    outer loop
      vertex -9.78926 54.2126 2.5
      vertex -6.5 33 2.5
      vertex -9.14809 54.5393 2.5
    endloop
  endfacet
  facet normal 0 0 1
    outer loop
      vertex -6.5 33 2.5
      vertex -9.14809 30.2607 2.5
      vertex -8.63926 29.7519 2.5
    endloop
  endfacet
  facet normal -0 0 1
    outer loop
      vertex -10.5 54.1 2.5
      vertex -6.5 33 2.5
      vertex -9.78926 54.2126 2.5
    endloop
  endfacet
  facet normal 0 0 1
    outer loop
      vertex -6.5 33 2.5
      vertex -9.78926 30.5874 2.5
      vertex -9.14809 30.2607 2.5
    endloop
  endfacet
  facet normal 0 0 1
    outer loop
      vertex -11.2107 54.2126 2.5
      vertex -6.5 33 2.5
      vertex -10.5 54.1 2.5
    endloop
  endfacet
  facet normal 0 0 1
    outer loop
      vertex -6.5 33 2.5
      vertex -10.5 30.7 2.5
      vertex -9.78926 30.5874 2.5
    endloop
  endfacet
  facet normal 0 0 1
    outer loop
      vertex -11.2107 30.5874 2.5
      vertex -6.5 33 2.5
      vertex -11.2107 54.2126 2.5
    endloop
  endfacet
  facet normal 0 0 1
    outer loop
      vertex -6.5 33 2.5
      vertex -11.2107 30.5874 2.5
      vertex -10.5 30.7 2.5
    endloop
  endfacet
  facet normal 0 0 1
    outer loop
      vertex -11.8519 54.5393 2.5
      vertex -11.2107 30.5874 2.5
      vertex -11.2107 54.2126 2.5
    endloop
  endfacet
  facet normal 0 0 1
    outer loop
      vertex -11.8519 54.5393 2.5
      vertex -11.8519 30.2607 2.5
      vertex -11.2107 30.5874 2.5
    endloop
  endfacet
  facet normal 0 0 1
    outer loop
      vertex -12.3607 55.0481 2.5
      vertex -11.8519 30.2607 2.5
      vertex -11.8519 54.5393 2.5
    endloop
  endfacet
  facet normal 0 0 1
    outer loop
      vertex -12.3607 55.0481 2.5
      vertex -12.3607 29.7519 2.5
      vertex -11.8519 30.2607 2.5
    endloop
  endfacet
  facet normal 0 0 1
    outer loop
      vertex -18 61.5 2.5
      vertex -12.3607 55.0481 2.5
      vertex -12.6874 55.6893 2.5
    endloop
  endfacet
  facet normal 0 0 1
    outer loop
      vertex -12.3607 55.0481 2.5
      vertex -18 25.5 2.5
      vertex -12.3607 29.7519 2.5
    endloop
  endfacet
  facet normal 0 0 1
    outer loop
      vertex -18 61.5 2.5
      vertex -12.6874 55.6893 2.5
      vertex -12.8 56.4 2.5
    endloop
  endfacet
  facet normal 0 0 1
    outer loop
      vertex -12.3607 29.7519 2.5
      vertex -18 25.5 2.5
      vertex -12.6874 29.1107 2.5
    endloop
  endfacet
  facet normal 0 0 1
    outer loop
      vertex -8.31257 55.6893 2.5
      vertex -3.06152e-016 61.5 2.5
      vertex -8.2 56.4 2.5
    endloop
  endfacet
  facet normal 0 0 1
    outer loop
      vertex -3.06152e-016 61.5 2.5
      vertex -8.63926 55.0481 2.5
      vertex -3.06152e-016 33 2.5
    endloop
  endfacet
  facet normal 0 0 1
    outer loop
      vertex -8.63926 55.0481 2.5
      vertex -3.06152e-016 61.5 2.5
      vertex -8.31257 55.6893 2.5
    endloop
  endfacet
  facet normal 0 0 1
    outer loop
      vertex -3.06152e-016 61.5 2.5
      vertex -8.31257 57.1107 2.5
      vertex -8.2 56.4 2.5
    endloop
  endfacet
  facet normal 0 0 1
    outer loop
      vertex -3.06152e-016 61.5 2.5
      vertex -8.63926 57.7519 2.5
      vertex -8.31257 57.1107 2.5
    endloop
  endfacet
  facet normal 0 0 1
    outer loop
      vertex -3.06152e-016 61.5 2.5
      vertex -9.14809 58.2607 2.5
      vertex -8.63926 57.7519 2.5
    endloop
  endfacet
  facet normal 0 0 1
    outer loop
      vertex -3.06152e-016 61.5 2.5
      vertex -9.78926 58.5874 2.5
      vertex -9.14809 58.2607 2.5
    endloop
  endfacet
  facet normal 0 0 1
    outer loop
      vertex -3.06152e-016 61.5 2.5
      vertex -10.5 58.7 2.5
      vertex -9.78926 58.5874 2.5
    endloop
  endfacet
  facet normal -0 0 1
    outer loop
      vertex -18 61.5 2.5
      vertex -10.5 58.7 2.5
      vertex -3.06152e-016 61.5 2.5
    endloop
  endfacet
  facet normal 0 0 1
    outer loop
      vertex -12.3607 55.0481 2.5
      vertex -18 61.5 2.5
      vertex -18 25.5 2.5
    endloop
  endfacet
  facet normal 0 0 1
    outer loop
      vertex -12.6874 57.1107 2.5
      vertex -18 61.5 2.5
      vertex -12.8 56.4 2.5
    endloop
  endfacet
  facet normal 0 0 1
    outer loop
      vertex -12.3607 57.7519 2.5
      vertex -18 61.5 2.5
      vertex -12.6874 57.1107 2.5
    endloop
  endfacet
  facet normal 0 0 1
    outer loop
      vertex -11.8519 58.2607 2.5
      vertex -18 61.5 2.5
      vertex -12.3607 57.7519 2.5
    endloop
  endfacet
  facet normal 0 0 1
    outer loop
      vertex -11.2107 58.5874 2.5
      vertex -18 61.5 2.5
      vertex -11.8519 58.2607 2.5
    endloop
  endfacet
  facet normal 0 0 1
    outer loop
      vertex -10.5 58.7 2.5
      vertex -18 61.5 2.5
      vertex -11.2107 58.5874 2.5
    endloop
  endfacet
  facet normal 0 0 1
    outer loop
      vertex -6.5 33 2.5
      vertex -8.2 28.4 2.5
      vertex -6.5 25.5 2.5
    endloop
  endfacet
  facet normal -0 0 1
    outer loop
      vertex -8.31257 27.6893 2.5
      vertex -6.5 25.5 2.5
      vertex -8.2 28.4 2.5
    endloop
  endfacet
  facet normal -0 0 1
    outer loop
      vertex -8.63926 27.0481 2.5
      vertex -6.5 25.5 2.5
      vertex -8.31257 27.6893 2.5
    endloop
  endfacet
  facet normal -0 0 1
    outer loop
      vertex -9.14809 26.5393 2.5
      vertex -6.5 25.5 2.5
      vertex -8.63926 27.0481 2.5
    endloop
  endfacet
  facet normal -0 0 1
    outer loop
      vertex -9.78926 26.2126 2.5
      vertex -6.5 25.5 2.5
      vertex -9.14809 26.5393 2.5
    endloop
  endfacet
  facet normal -0 0 1
    outer loop
      vertex -10.5 26.1 2.5
      vertex -6.5 25.5 2.5
      vertex -9.78926 26.2126 2.5
    endloop
  endfacet
  facet normal 0 0 1
    outer loop
      vertex -10.5 26.1 2.5
      vertex -18 25.5 2.5
      vertex -6.5 25.5 2.5
    endloop
  endfacet
  facet normal 0 0 1
    outer loop
      vertex -11.2107 26.2126 2.5
      vertex -18 25.5 2.5
      vertex -10.5 26.1 2.5
    endloop
  endfacet
  facet normal 0 0 1
    outer loop
      vertex -11.8519 26.5393 2.5
      vertex -18 25.5 2.5
      vertex -11.2107 26.2126 2.5
    endloop
  endfacet
  facet normal 0 0 1
    outer loop
      vertex -12.3607 27.0481 2.5
      vertex -18 25.5 2.5
      vertex -11.8519 26.5393 2.5
    endloop
  endfacet
  facet normal 0 0 1
    outer loop
      vertex -12.6874 27.6893 2.5
      vertex -18 25.5 2.5
      vertex -12.3607 27.0481 2.5
    endloop
  endfacet
  facet normal 0 0 1
    outer loop
      vertex -12.8 28.4 2.5
      vertex -18 25.5 2.5
      vertex -12.6874 27.6893 2.5
    endloop
  endfacet
  facet normal 0 0 1
    outer loop
      vertex -12.6874 29.1107 2.5
      vertex -18 25.5 2.5
      vertex -12.8 28.4 2.5
    endloop
  endfacet
  facet normal -1 0 0
    outer loop
      vertex -6.5 25.5 2.5
      vertex -6.5 25.5 10
      vertex -6.5 33 2.5
    endloop
  endfacet
  facet normal 0 0.707107 0.707107
    outer loop
      vertex -3.06152e-016 33 2.5
      vertex -6.5 25.5 10
      vertex -1.22461e-015 25.5 10
    endloop
  endfacet
  facet normal 0 0.707107 0.707107
    outer loop
      vertex -6.5 25.5 10
      vertex -3.06152e-016 33 2.5
      vertex -6.5 33 2.5
    endloop
  endfacet
  facet normal 0.987688 -0.156435 0
    outer loop
      vertex -12.8 28.4 2.5
      vertex -12.6874 29.1107 -8.74557e-015
      vertex -12.6874 29.1107 2.5
    endloop
  endfacet
  facet normal 0.987688 -0.156435 0
    outer loop
      vertex -12.6874 29.1107 -8.74557e-015
      vertex -12.8 28.4 2.5
      vertex -12.8 28.4 -8.91717e-015
    endloop
  endfacet
  facet normal -0.156434 -0.987688 0
    outer loop
      vertex -10.5 30.7 2.5
      vertex -9.78926 30.5874 -8.06277e-015
      vertex -9.78926 30.5874 2.5
    endloop
  endfacet
  facet normal -0.156434 -0.987688 0
    outer loop
      vertex -9.78926 30.5874 -8.06277e-015
      vertex -10.5 30.7 2.5
      vertex -10.5 30.7 -8.12481e-015
    endloop
  endfacet
  facet normal 0.156437 0.987688 -0
    outer loop
      vertex -10.5 26.1 -9.14622e-015
      vertex -11.2107 26.2126 2.5
      vertex -10.5 26.1 2.5
    endloop
  endfacet
  facet normal 0.156437 0.987688 0
    outer loop
      vertex -11.2107 26.2126 2.5
      vertex -10.5 26.1 -9.14622e-015
      vertex -11.2107 26.2126 -9.20826e-015
    endloop
  endfacet
  facet normal 0.707107 -0.707107 0
    outer loop
      vertex -12.3607 29.7519 2.5
      vertex -11.8519 30.2607 -8.3879e-015
      vertex -11.8519 30.2607 2.5
    endloop
  endfacet
  facet normal 0.707107 -0.707107 0
    outer loop
      vertex -11.8519 30.2607 -8.3879e-015
      vertex -12.3607 29.7519 2.5
      vertex -12.3607 29.7519 -8.5632e-015
    endloop
  endfacet
  facet normal 0.891007 -0.453989 0
    outer loop
      vertex -12.6874 29.1107 2.5
      vertex -12.3607 29.7519 -8.5632e-015
      vertex -12.3607 29.7519 2.5
    endloop
  endfacet
  facet normal 0.891007 -0.453989 0
    outer loop
      vertex -12.3607 29.7519 -8.5632e-015
      vertex -12.6874 29.1107 2.5
      vertex -12.6874 29.1107 -8.74557e-015
    endloop
  endfacet
  facet normal -0.707107 -0.707107 0
    outer loop
      vertex -8.63926 29.7519 -8.10746e-015
      vertex -9.14809 30.2607 2.5
      vertex -9.14809 30.2607 -8.05679e-015
    endloop
  endfacet
  facet normal -0.707107 -0.707107 0
    outer loop
      vertex -9.14809 30.2607 2.5
      vertex -8.63926 29.7519 -8.10746e-015
      vertex -8.63926 29.7519 2.5
    endloop
  endfacet
  facet normal -0.45399 -0.891007 0
    outer loop
      vertex -9.78926 30.5874 2.5
      vertex -9.14809 30.2607 -8.05679e-015
      vertex -9.14809 30.2607 2.5
    endloop
  endfacet
  facet normal -0.45399 -0.891007 0
    outer loop
      vertex -9.14809 30.2607 -8.05679e-015
      vertex -9.78926 30.5874 2.5
      vertex -9.78926 30.5874 -8.06277e-015
    endloop
  endfacet
  facet normal 0.45399 0.891007 -0
    outer loop
      vertex -11.2107 26.2126 -9.20826e-015
      vertex -11.8519 26.5393 2.5
      vertex -11.2107 26.2126 2.5
    endloop
  endfacet
  facet normal 0.45399 0.891007 0
    outer loop
      vertex -11.8519 26.5393 2.5
      vertex -11.2107 26.2126 -9.20826e-015
      vertex -11.8519 26.5393 -9.21424e-015
    endloop
  endfacet
  facet normal 0.891007 0.453989 0
    outer loop
      vertex -12.3607 27.0481 2.5
      vertex -12.6874 27.6893 -9.0612e-015
      vertex -12.6874 27.6893 2.5
    endloop
  endfacet
  facet normal 0.891007 0.453989 0
    outer loop
      vertex -12.6874 27.6893 -9.0612e-015
      vertex -12.3607 27.0481 2.5
      vertex -12.3607 27.0481 -9.16356e-015
    endloop
  endfacet
  facet normal -0.45399 0.891007 0
    outer loop
      vertex -9.14809 26.5393 -8.88313e-015
      vertex -9.78926 26.2126 2.5
      vertex -9.14809 26.5393 2.5
    endloop
  endfacet
  facet normal -0.45399 0.891007 0
    outer loop
      vertex -9.78926 26.2126 2.5
      vertex -9.14809 26.5393 -8.88313e-015
      vertex -9.78926 26.2126 -9.03418e-015
    endloop
  endfacet
  facet normal -0.891007 0.453989 0
    outer loop
      vertex -8.63926 27.0481 -8.70783e-015
      vertex -8.31257 27.6893 2.5
      vertex -8.31257 27.6893 -8.52545e-015
    endloop
  endfacet
  facet normal -0.891007 0.453989 0
    outer loop
      vertex -8.31257 27.6893 2.5
      vertex -8.63926 27.0481 -8.70783e-015
      vertex -8.63926 27.0481 2.5
    endloop
  endfacet
  facet normal 0.156434 -0.987688 0
    outer loop
      vertex -11.2107 30.5874 2.5
      vertex -10.5 30.7 -8.12481e-015
      vertex -10.5 30.7 2.5
    endloop
  endfacet
  facet normal 0.156434 -0.987688 0
    outer loop
      vertex -10.5 30.7 -8.12481e-015
      vertex -11.2107 30.5874 2.5
      vertex -11.2107 30.5874 -8.23684e-015
    endloop
  endfacet
  facet normal 0.45399 -0.891007 0
    outer loop
      vertex -11.8519 30.2607 2.5
      vertex -11.2107 30.5874 -8.23684e-015
      vertex -11.2107 30.5874 2.5
    endloop
  endfacet
  facet normal 0.45399 -0.891007 0
    outer loop
      vertex -11.2107 30.5874 -8.23684e-015
      vertex -11.8519 30.2607 2.5
      vertex -11.8519 30.2607 -8.3879e-015
    endloop
  endfacet
  facet normal -0.891007 -0.453989 0
    outer loop
      vertex -8.31257 29.1107 -8.20982e-015
      vertex -8.63926 29.7519 2.5
      vertex -8.63926 29.7519 -8.10746e-015
    endloop
  endfacet
  facet normal -0.891007 -0.453989 0
    outer loop
      vertex -8.63926 29.7519 2.5
      vertex -8.31257 29.1107 -8.20982e-015
      vertex -8.31257 29.1107 2.5
    endloop
  endfacet
  facet normal -0.987688 -0.156435 0
    outer loop
      vertex -8.2 28.4 -8.35385e-015
      vertex -8.31257 29.1107 2.5
      vertex -8.31257 29.1107 -8.20982e-015
    endloop
  endfacet
  facet normal -0.987688 -0.156435 0
    outer loop
      vertex -8.31257 29.1107 2.5
      vertex -8.2 28.4 -8.35385e-015
      vertex -8.2 28.4 2.5
    endloop
  endfacet
  facet normal -0.987688 0.156434 0
    outer loop
      vertex -8.31257 27.6893 -8.52545e-015
      vertex -8.2 28.4 2.5
      vertex -8.2 28.4 -8.35385e-015
    endloop
  endfacet
  facet normal -0.987688 0.156434 0
    outer loop
      vertex -8.2 28.4 2.5
      vertex -8.31257 27.6893 -8.52545e-015
      vertex -8.31257 27.6893 2.5
    endloop
  endfacet
  facet normal 0.707105 0.707108 0
    outer loop
      vertex -11.8519 26.5393 2.5
      vertex -12.3607 27.0481 -9.16356e-015
      vertex -12.3607 27.0481 2.5
    endloop
  endfacet
  facet normal 0.707105 0.707108 0
    outer loop
      vertex -12.3607 27.0481 -9.16356e-015
      vertex -11.8519 26.5393 2.5
      vertex -11.8519 26.5393 -9.21424e-015
    endloop
  endfacet
  facet normal 0.987688 0.156434 0
    outer loop
      vertex -12.6874 27.6893 2.5
      vertex -12.8 28.4 -8.91717e-015
      vertex -12.8 28.4 2.5
    endloop
  endfacet
  facet normal 0.987688 0.156434 0
    outer loop
      vertex -12.8 28.4 -8.91717e-015
      vertex -12.6874 27.6893 2.5
      vertex -12.6874 27.6893 -9.0612e-015
    endloop
  endfacet
  facet normal -0.156437 0.987688 0
    outer loop
      vertex -9.78926 26.2126 -9.03418e-015
      vertex -10.5 26.1 2.5
      vertex -9.78926 26.2126 2.5
    endloop
  endfacet
  facet normal -0.156437 0.987688 0
    outer loop
      vertex -10.5 26.1 2.5
      vertex -9.78926 26.2126 -9.03418e-015
      vertex -10.5 26.1 -9.14622e-015
    endloop
  endfacet
  facet normal -0.707105 0.707108 0
    outer loop
      vertex -8.63926 27.0481 -8.70783e-015
      vertex -9.14809 26.5393 2.5
      vertex -8.63926 27.0481 2.5
    endloop
  endfacet
  facet normal -0.707105 0.707108 0
    outer loop
      vertex -9.14809 26.5393 2.5
      vertex -8.63926 27.0481 -8.70783e-015
      vertex -9.14809 26.5393 -8.88313e-015
    endloop
  endfacet
  facet normal 0.987688 -0.156435 0
    outer loop
      vertex -12.8 56.4 2.5
      vertex -12.6874 57.1107 -2.52832e-015
      vertex -12.6874 57.1107 2.5
    endloop
  endfacet
  facet normal 0.987688 -0.156435 0
    outer loop
      vertex -12.6874 57.1107 -2.52832e-015
      vertex -12.8 56.4 2.5
      vertex -12.8 56.4 -2.69992e-015
    endloop
  endfacet
  facet normal -0.156432 -0.987689 0
    outer loop
      vertex -10.5 58.7 2.5
      vertex -9.78926 58.5874 -1.84552e-015
      vertex -9.78926 58.5874 2.5
    endloop
  endfacet
  facet normal -0.156432 -0.987689 0
    outer loop
      vertex -9.78926 58.5874 -1.84552e-015
      vertex -10.5 58.7 2.5
      vertex -10.5 58.7 -1.90756e-015
    endloop
  endfacet
  facet normal 0.707105 -0.707108 0
    outer loop
      vertex -12.3607 57.7519 2.5
      vertex -11.8519 58.2607 -2.17065e-015
      vertex -11.8519 58.2607 2.5
    endloop
  endfacet
  facet normal 0.707105 -0.707108 0
    outer loop
      vertex -11.8519 58.2607 -2.17065e-015
      vertex -12.3607 57.7519 2.5
      vertex -12.3607 57.7519 -2.34595e-015
    endloop
  endfacet
  facet normal 0.891008 -0.453988 0
    outer loop
      vertex -12.6874 57.1107 2.5
      vertex -12.3607 57.7519 -2.34595e-015
      vertex -12.3607 57.7519 2.5
    endloop
  endfacet
  facet normal 0.891008 -0.453988 0
    outer loop
      vertex -12.3607 57.7519 -2.34595e-015
      vertex -12.6874 57.1107 2.5
      vertex -12.6874 57.1107 -2.52832e-015
    endloop
  endfacet
  facet normal -0.707105 -0.707108 0
    outer loop
      vertex -9.14809 58.2607 -1.83954e-015
      vertex -8.63926 57.7519 2.5
      vertex -9.14809 58.2607 2.5
    endloop
  endfacet
  facet normal -0.707105 -0.707108 -0
    outer loop
      vertex -8.63926 57.7519 2.5
      vertex -9.14809 58.2607 -1.83954e-015
      vertex -8.63926 57.7519 -1.89021e-015
    endloop
  endfacet
  facet normal -0.45399 -0.891007 0
    outer loop
      vertex -9.78926 58.5874 2.5
      vertex -9.14809 58.2607 -1.83954e-015
      vertex -9.14809 58.2607 2.5
    endloop
  endfacet
  facet normal -0.45399 -0.891007 0
    outer loop
      vertex -9.14809 58.2607 -1.83954e-015
      vertex -9.78926 58.5874 2.5
      vertex -9.78926 58.5874 -1.84552e-015
    endloop
  endfacet
  facet normal 0.45399 0.891007 -0
    outer loop
      vertex -11.2107 54.2126 -2.99101e-015
      vertex -11.8519 54.5393 2.5
      vertex -11.2107 54.2126 2.5
    endloop
  endfacet
  facet normal 0.45399 0.891007 0
    outer loop
      vertex -11.8519 54.5393 2.5
      vertex -11.2107 54.2126 -2.99101e-015
      vertex -11.8519 54.5393 -2.99699e-015
    endloop
  endfacet
  facet normal 0.891008 0.453988 0
    outer loop
      vertex -12.3607 55.0481 2.5
      vertex -12.6874 55.6893 -2.84395e-015
      vertex -12.6874 55.6893 2.5
    endloop
  endfacet
  facet normal 0.891008 0.453988 0
    outer loop
      vertex -12.6874 55.6893 -2.84395e-015
      vertex -12.3607 55.0481 2.5
      vertex -12.3607 55.0481 -2.94631e-015
    endloop
  endfacet
  facet normal -0.45399 0.891007 0
    outer loop
      vertex -9.14809 54.5393 -2.66588e-015
      vertex -9.78926 54.2126 2.5
      vertex -9.14809 54.5393 2.5
    endloop
  endfacet
  facet normal -0.45399 0.891007 0
    outer loop
      vertex -9.78926 54.2126 2.5
      vertex -9.14809 54.5393 -2.66588e-015
      vertex -9.78926 54.2126 -2.81693e-015
    endloop
  endfacet
  facet normal -0.891008 0.453988 0
    outer loop
      vertex -8.63926 55.0481 -2.49058e-015
      vertex -8.31257 55.6893 2.5
      vertex -8.31257 55.6893 -2.30821e-015
    endloop
  endfacet
  facet normal -0.891008 0.453988 0
    outer loop
      vertex -8.31257 55.6893 2.5
      vertex -8.63926 55.0481 -2.49058e-015
      vertex -8.63926 55.0481 2.5
    endloop
  endfacet
  facet normal 0.156432 -0.987689 0
    outer loop
      vertex -11.2107 58.5874 2.5
      vertex -10.5 58.7 -1.90756e-015
      vertex -10.5 58.7 2.5
    endloop
  endfacet
  facet normal 0.156432 -0.987689 0
    outer loop
      vertex -10.5 58.7 -1.90756e-015
      vertex -11.2107 58.5874 2.5
      vertex -11.2107 58.5874 -2.01959e-015
    endloop
  endfacet
  facet normal 0.45399 -0.891007 0
    outer loop
      vertex -11.8519 58.2607 2.5
      vertex -11.2107 58.5874 -2.01959e-015
      vertex -11.2107 58.5874 2.5
    endloop
  endfacet
  facet normal 0.45399 -0.891007 0
    outer loop
      vertex -11.2107 58.5874 -2.01959e-015
      vertex -11.8519 58.2607 2.5
      vertex -11.8519 58.2607 -2.17065e-015
    endloop
  endfacet
  facet normal -0.891008 -0.453988 0
    outer loop
      vertex -8.31257 57.1107 -1.99257e-015
      vertex -8.63926 57.7519 2.5
      vertex -8.63926 57.7519 -1.89021e-015
    endloop
  endfacet
  facet normal -0.891008 -0.453988 0
    outer loop
      vertex -8.63926 57.7519 2.5
      vertex -8.31257 57.1107 -1.99257e-015
      vertex -8.31257 57.1107 2.5
    endloop
  endfacet
  facet normal -0.987688 -0.156435 0
    outer loop
      vertex -8.2 56.4 -2.1366e-015
      vertex -8.31257 57.1107 2.5
      vertex -8.31257 57.1107 -1.99257e-015
    endloop
  endfacet
  facet normal -0.987688 -0.156435 0
    outer loop
      vertex -8.31257 57.1107 2.5
      vertex -8.2 56.4 -2.1366e-015
      vertex -8.2 56.4 2.5
    endloop
  endfacet
  facet normal -0.987688 0.156434 0
    outer loop
      vertex -8.31257 55.6893 -2.30821e-015
      vertex -8.2 56.4 2.5
      vertex -8.2 56.4 -2.1366e-015
    endloop
  endfacet
  facet normal -0.987688 0.156434 0
    outer loop
      vertex -8.2 56.4 2.5
      vertex -8.31257 55.6893 -2.30821e-015
      vertex -8.31257 55.6893 2.5
    endloop
  endfacet
  facet normal 0.707105 0.707108 0
    outer loop
      vertex -11.8519 54.5393 2.5
      vertex -12.3607 55.0481 -2.94631e-015
      vertex -12.3607 55.0481 2.5
    endloop
  endfacet
  facet normal 0.707105 0.707108 0
    outer loop
      vertex -12.3607 55.0481 -2.94631e-015
      vertex -11.8519 54.5393 2.5
      vertex -11.8519 54.5393 -2.99699e-015
    endloop
  endfacet
  facet normal 0.987688 0.156434 0
    outer loop
      vertex -12.6874 55.6893 2.5
      vertex -12.8 56.4 -2.69992e-015
      vertex -12.8 56.4 2.5
    endloop
  endfacet
  facet normal 0.987688 0.156434 0
    outer loop
      vertex -12.8 56.4 -2.69992e-015
      vertex -12.6874 55.6893 2.5
      vertex -12.6874 55.6893 -2.84395e-015
    endloop
  endfacet
  facet normal -0.156437 0.987688 0
    outer loop
      vertex -9.78926 54.2126 -2.81693e-015
      vertex -10.5 54.1 2.5
      vertex -9.78926 54.2126 2.5
    endloop
  endfacet
  facet normal -0.156437 0.987688 0
    outer loop
      vertex -10.5 54.1 2.5
      vertex -9.78926 54.2126 -2.81693e-015
      vertex -10.5 54.1 -2.92897e-015
    endloop
  endfacet
  facet normal -0.707105 0.707108 0
    outer loop
      vertex -8.63926 55.0481 -2.49058e-015
      vertex -9.14809 54.5393 2.5
      vertex -8.63926 55.0481 2.5
    endloop
  endfacet
  facet normal -0.707105 0.707108 0
    outer loop
      vertex -9.14809 54.5393 2.5
      vertex -8.63926 55.0481 -2.49058e-015
      vertex -9.14809 54.5393 -2.66588e-015
    endloop
  endfacet
  facet normal 0.156437 0.987688 -0
    outer loop
      vertex -10.5 54.1 -2.92897e-015
      vertex -11.2107 54.2126 2.5
      vertex -10.5 54.1 2.5
    endloop
  endfacet
  facet normal 0.156437 0.987688 0
    outer loop
      vertex -11.2107 54.2126 2.5
      vertex -10.5 54.1 -2.92897e-015
      vertex -11.2107 54.2126 -2.99101e-015
    endloop
  endfacet
endsolid OpenSCAD_Model
