999
dxflib 3.17.0.0
  0
SECTION
  2
HEADER
  9
$ACADVER
  1
AC1015
  9
$HANDSEED
  5
FFFF
  9
$DIMADEC
 70
2
  9
$DIMASZ
 40
2.5
  9
$DIMAUNIT
 70
0
  9
$DIMAZIN
 70
0
  9
$DIMDEC
 70
2
  9
$DIMDSEP
 70
46
  9
$DIMEXE
 40
1.25
  9
$DIMEXO
 40
0.625
  9
$DIMGAP
 40
0.625
  9
$DIMLUNIT
 70
2
  9
$DIMSCALE
 40
1.0
  9
$DIMTSZ
 40
0.0
  9
$DIMTXT
 40
2.5
  9
$DIMZIN
 70
0
  9
$DWGCODEPAGE
  3
ANSI_1252
  9
$INSUNITS
 70
0
  9
$LTSCALE
 40
1.0
  9
$MAXACTVP
 70
32
  9
$MEASUREMENT
 70
1
  9
$PDMODE
 70
0
  9
$PDSIZE
 40
0
  0
ENDSEC
  0
SECTION
  2
TABLES
  0
TABLE
  2
VPORT
  5
8
100
AcDbSymbolTable
 70
1
  0
VPORT
  5
30
100
AcDbSymbolTableRecord
100
AcDbViewportTableRecord
  2
*Active
 70
0
 10
0.0
 20
0.0
 11
1.0
 21
1.0
 12
286.30555555555549
 22
148.5
 13
0.0
 23
0.0
 14
10.0
 24
10.0
 15
10.0
 25
10.0
 16
0.0
 26
0.0
 36
1.0
 17
0.0
 27
0.0
 37
0.0
 40
297.0
 41
1.92798353909465
 42
50.0
 43
0.0
 44
0.0
 50
0.0
 51
0.0
 71
0
 72
100
 73
1
 74
3
 75
1
 76
1
 77
0
 78
0
281
0
 65
1
110
0.0
120
0.0
130
0.0
111
1.0
121
0.0
131
0.0
112
0.0
122
1.0
132
0.0
 79
0
146
0.0
  0
ENDTAB
  0
TABLE
  2
LTYPE
  5
5
100
AcDbSymbolTable
 70
41
  0
LTYPE
  5
16
100
AcDbSymbolTableRecord
100
AcDbLinetypeTableRecord
  2
Continuous
 70
0
  3
Solid line
 72
65
 73
0
 40
0.0
  0
LTYPE
  5
31
100
AcDbSymbolTableRecord
100
AcDbLinetypeTableRecord
  2
DASHED
 70
0
  3
Dashed __ __ __ __ __ __ __ __ __ __ __ __ __ _
 72
65
 73
2
 40
19.049999999999997
 49
12.699999999999999
 74
0
 49
-6.3499999999999996
 74
0
  0
LTYPE
  5
32
100
AcDbSymbolTableRecord
100
AcDbLinetypeTableRecord
  2
DASHDOTX2
 70
0
  3
Dash dot (2x) ____  .  ____  .  ____  .  ___
 72
65
 73
4
 40
50.799999999999997
 49
25.399999999999999
 74
0
 49
-12.649999999999999
 74
0
 49
0.1
 74
0
 49
-12.649999999999999
 74
0
  0
LTYPE
  5
33
100
AcDbSymbolTableRecord
100
AcDbLinetypeTableRecord
  2
HIDDEN2
 70
0
  3
Hidden (.5x) _ _ _ _ _ _ _ _ _ _ _ _ _ _ _ _ _ 
 72
65
 73
2
 40
4.7624999999999993
 49
3.1749999999999998
 74
0
 49
-1.5874999999999999
 74
0
  0
LTYPE
  5
34
100
AcDbSymbolTableRecord
100
AcDbLinetypeTableRecord
  2
DIVIDE
 70
0
  3
Divide ____ . . ____ . . ____ . . ____ . . ____
 72
65
 73
6
 40
31.750000000000004
 49
12.699999999999999
 74
0
 49
-6.2999999999999998
 74
0
 49
0.1
 74
0
 49
-6.25
 74
0
 49
0.1
 74
0
 49
-6.2999999999999998
 74
0
  0
LTYPE
  5
35
100
AcDbSymbolTableRecord
100
AcDbLinetypeTableRecord
  2
DASHED2
 70
0
  3
Dashed (.5x) _ _ _ _ _ _ _ _ _ _ _ _ _ _ _ _ _ 
 72
65
 73
2
 40
9.5249999999999986
 49
6.3499999999999996
 74
0
 49
-3.1749999999999998
 74
0
  0
LTYPE
  5
36
100
AcDbSymbolTableRecord
100
AcDbLinetypeTableRecord
  2
DOT
 70
0
  3
Dot . . . . . . . . . . . . . . . . . . . . . . . .
 72
65
 73
2
 40
6.3499999999999996
 49
0.1
 74
0
 49
-6.25
 74
0
  0
LTYPE
  5
37
100
AcDbSymbolTableRecord
100
AcDbLinetypeTableRecord
  2
ACAD_ISO09W100
 70
0
  3
ISO long-dash double-short-dash ____ __ __ ____
 72
65
 73
6
 40
45.0
 49
24.0
 74
0
 49
-3.0
 74
0
 49
6.0
 74
0
 49
-3.0
 74
0
 49
6.0
 74
0
 49
-3.0
 74
0
  0
LTYPE
  5
38
100
AcDbSymbolTableRecord
100
AcDbLinetypeTableRecord
  2
ACAD_ISO03W100
 70
0
  3
ISO dash space __    __    __    __    __    __
 72
65
 73
2
 40
30.0
 49
12.0
 74
0
 49
-18.0
 74
0
  0
LTYPE
  5
39
100
AcDbSymbolTableRecord
100
AcDbLinetypeTableRecord
  2
DASHDOT
 70
0
  3
Dash dot __ . __ . __ . __ . __ . __ . __ . __
 72
65
 73
4
 40
25.400000000000002
 49
12.699999999999999
 74
0
 49
-6.2999999999999998
 74
0
 49
0.1
 74
0
 49
-6.2999999999999998
 74
0
  0
LTYPE
  5
3A
100
AcDbSymbolTableRecord
100
AcDbLinetypeTableRecord
  2
ACAD_ISO04W100
 70
0
  3
ISO long-dash dot ____ . ____ . ____ . ____ . _
 72
65
 73
4
 40
30.0
 49
24.0
 74
0
 49
-2.9500000000000002
 74
0
 49
0.1
 74
0
 49
-2.9500000000000002
 74
0
  0
LTYPE
  5
3B
100
AcDbSymbolTableRecord
100
AcDbLinetypeTableRecord
  2
PHANTOM2
 70
0
  3
Phantom (.5x) ___ _ _ ___ _ _ ___ _ _ ___ _ _
 72
65
 73
6
 40
31.750000000000004
 49
15.875
 74
0
 49
-3.1749999999999998
 74
0
 49
3.1749999999999998
 74
0
 49
-3.1749999999999998
 74
0
 49
3.1749999999999998
 74
0
 49
-3.1749999999999998
 74
0
  0
LTYPE
  5
3C
100
AcDbSymbolTableRecord
100
AcDbLinetypeTableRecord
  2
HIDDENX2
 70
0
  3
Hidden (2x) ____ ____ ____ ____ ____ ____ ____ 
 72
65
 73
2
 40
19.049999999999997
 49
12.699999999999999
 74
0
 49
-6.3499999999999996
 74
0
  0
LTYPE
  5
3D
100
AcDbSymbolTableRecord
100
AcDbLinetypeTableRecord
  2
ACAD_ISO02W100
 70
0
  3
ISO dash __ __ __ __ __ __ __ __ __ __ __ __ __
 72
65
 73
2
 40
15.0
 49
12.0
 74
0
 49
-3.0
 74
0
  0
LTYPE
  5
3E
100
AcDbSymbolTableRecord
100
AcDbLinetypeTableRecord
  2
ACAD_ISO10W100
 70
0
  3
ISO dash dot __ . __ . __ . __ . __ . __ . __ . 
 72
65
 73
4
 40
18.0
 49
12.0
 74
0
 49
-2.9500000000000002
 74
0
 49
0.1
 74
0
 49
-2.9500000000000002
 74
0
  0
LTYPE
  5
3F
100
AcDbSymbolTableRecord
100
AcDbLinetypeTableRecord
  2
ACAD_ISO13W100
 70
0
  3
ISO double-dash double-dot __ __ . . __ __ . . _
 72
65
 73
8
 40
36.000000000000007
 49
12.0
 74
0
 49
-3.0
 74
0
 49
12.0
 74
0
 49
-2.9500000000000002
 74
0
 49
0.1
 74
0
 49
-2.9000000000000004
 74
0
 49
0.1
 74
0
 49
-2.9500000000000002
 74
0
  0
LTYPE
  5
40
100
AcDbSymbolTableRecord
100
AcDbLinetypeTableRecord
  2
BORDER
 70
0
  3
Border __ __ . __ __ . __ __ . __ __ . __ __ .
 72
65
 73
6
 40
44.449999999999996
 49
12.699999999999999
 74
0
 49
-6.3499999999999996
 74
0
 49
12.699999999999999
 74
0
 49
-6.2999999999999998
 74
0
 49
0.1
 74
0
 49
-6.2999999999999998
 74
0
  0
LTYPE
  5
41
100
AcDbSymbolTableRecord
100
AcDbLinetypeTableRecord
  2
DOT2
 70
0
  3
Dot (.5x) ........................................
 72
65
 73
2
 40
3.1749999999999998
 49
0.1
 74
0
 49
-3.0749999999999997
 74
0
  0
LTYPE
  5
42
100
AcDbSymbolTableRecord
100
AcDbLinetypeTableRecord
  2
CENTERX2
 70
0
  3
Center (2x) ________  __  ________  __  _____
 72
65
 73
4
 40
101.60000000000001
 49
63.5
 74
0
 49
-12.699999999999999
 74
0
 49
12.699999999999999
 74
0
 49
-12.699999999999999
 74
0
  0
LTYPE
  5
43
100
AcDbSymbolTableRecord
100
AcDbLinetypeTableRecord
  2
ACAD_ISO07W100
 70
0
  3
ISO dot . . . . . . . . . . . . . . . . . . . . 
 72
65
 73
2
 40
3.0
 49
0.1
 74
0
 49
-2.8999999999999999
 74
0
  0
LTYPE
  5
44
100
AcDbSymbolTableRecord
100
AcDbLinetypeTableRecord
  2
PHANTOMX2
 70
0
  3
Phantom (2x) ____________    ____    ____   _
 72
65
 73
6
 40
127.00000000000001
 49
63.5
 74
0
 49
-12.699999999999999
 74
0
 49
12.699999999999999
 74
0
 49
-12.699999999999999
 74
0
 49
12.699999999999999
 74
0
 49
-12.699999999999999
 74
0
  0
LTYPE
  5
45
100
AcDbSymbolTableRecord
100
AcDbLinetypeTableRecord
  2
PHANTOM
 70
0
  3
Phantom ______  __  __  ______  __  __  ______ 
 72
65
 73
6
 40
63.500000000000007
 49
31.75
 74
0
 49
-6.3499999999999996
 74
0
 49
6.3499999999999996
 74
0
 49
-6.3499999999999996
 74
0
 49
6.3499999999999996
 74
0
 49
-6.3499999999999996
 74
0
  0
LTYPE
  5
46
100
AcDbSymbolTableRecord
100
AcDbLinetypeTableRecord
  2
DASHEDX2
 70
0
  3
Dashed (2x) ____  ____  ____  ____  ____  ___
 72
65
 73
2
 40
38.099999999999994
 49
25.399999999999999
 74
0
 49
-12.699999999999999
 74
0
  0
LTYPE
  5
47
100
AcDbSymbolTableRecord
100
AcDbLinetypeTableRecord
  2
DOTX2
 70
0
  3
Dot (2x) .  .  .  .  .  .  .  .  .  .  .  .  .  .
 72
65
 73
2
 40
12.699999999999999
 49
0.1
 74
0
 49
-12.6
 74
0
  0
LTYPE
  5
48
100
AcDbSymbolTableRecord
100
AcDbLinetypeTableRecord
  2
BORDER2
 70
0
  3
Border (.5x) __.__.__.__.__.__.__.__.__.__.__.
 72
65
 73
6
 40
22.225000000000001
 49
6.3499999999999996
 74
0
 49
-3.1749999999999998
 74
0
 49
6.3499999999999996
 74
0
 49
-3.125
 74
0
 49
0.1
 74
0
 49
-3.125
 74
0
  0
LTYPE
  5
49
100
AcDbSymbolTableRecord
100
AcDbLinetypeTableRecord
  2
BORDERX2
 70
0
  3
Border (2x) ____  ____  .  ____  ____  .  ___
 72
65
 73
6
 40
88.899999999999977
 49
25.399999999999999
 74
0
 49
-12.699999999999999
 74
0
 49
25.399999999999999
 74
0
 49
-12.649999999999999
 74
0
 49
0.1
 74
0
 49
-12.649999999999999
 74
0
  0
LTYPE
  5
4A
100
AcDbSymbolTableRecord
100
AcDbLinetypeTableRecord
  2
ACAD_ISO15W100
 70
0
  3
ISO double-dash triple-dot __ __ . . . __ __ . .
 72
65
 73
10
 40
39.000000000000007
 49
12.0
 74
0
 49
-3.0
 74
0
 49
12.0
 74
0
 49
-2.9500000000000002
 74
0
 49
0.1
 74
0
 49
-2.9000000000000004
 74
0
 49
0.1
 74
0
 49
-2.9000000000000004
 74
0
 49
0.1
 74
0
 49
-2.9500000000000002
 74
0
  0
LTYPE
  5
4B
100
AcDbSymbolTableRecord
100
AcDbLinetypeTableRecord
  2
CENTER
 70
0
  3
Center ____ _ ____ _ ____ _ ____ _ ____ _ ____
 72
65
 73
4
 40
50.800000000000004
 49
31.75
 74
0
 49
-6.3499999999999996
 74
0
 49
6.3499999999999996
 74
0
 49
-6.3499999999999996
 74
0
  0
LTYPE
  5
4C
100
AcDbSymbolTableRecord
100
AcDbLinetypeTableRecord
  2
ACAD_ISO05W100
 70
0
  3
ISO long-dash double-dot ____ .. ____ .. ____ . 
 72
65
 73
6
 40
33.000000000000007
 49
24.0
 74
0
 49
-2.9500000000000002
 74
0
 49
0.1
 74
0
 49
-2.9000000000000004
 74
0
 49
0.1
 74
0
 49
-2.9500000000000002
 74
0
  0
LTYPE
  5
4D
100
AcDbSymbolTableRecord
100
AcDbLinetypeTableRecord
  2
ACAD_ISO11W100
 70
0
  3
ISO double-dash dot __ __ . __ __ . __ __ . __ _
 72
65
 73
6
 40
33.0
 49
12.0
 74
0
 49
-3.0
 74
0
 49
12.0
 74
0
 49
-2.9500000000000002
 74
0
 49
0.1
 74
0
 49
-2.9500000000000002
 74
0
  0
LTYPE
  5
4E
100
AcDbSymbolTableRecord
100
AcDbLinetypeTableRecord
  2
CENTER2
 70
0
  3
Center (.5x) ___ _ ___ _ ___ _ ___ _ ___ _ ___
 72
65
 73
4
 40
28.575000000000003
 49
19.050000000000001
 74
0
 49
-3.1749999999999998
 74
0
 49
3.1749999999999998
 74
0
 49
-3.1749999999999998
 74
0
  0
LTYPE
  5
14
100
AcDbSymbolTableRecord
100
AcDbLinetypeTableRecord
  2
BYBLOCK
 70
0
  3

 72
65
 73
0
 40
0.0
  0
LTYPE
  5
4F
100
AcDbSymbolTableRecord
100
AcDbLinetypeTableRecord
  2
HIDDEN
 70
0
  3
Hidden __ __ __ __ __ __ __ __ __ __ __ __ __ __
 72
65
 73
2
 40
9.5249999999999986
 49
6.3499999999999996
 74
0
 49
-3.1749999999999998
 74
0
  0
LTYPE
  5
50
100
AcDbSymbolTableRecord
100
AcDbLinetypeTableRecord
  2
ACAD_ISO12W100
 70
0
  3
ISO dash double-dot __ . . __ . . __ . . __ . . 
 72
65
 73
6
 40
21.0
 49
12.0
 74
0
 49
-2.9500000000000002
 74
0
 49
0.1
 74
0
 49
-2.9000000000000004
 74
0
 49
0.1
 74
0
 49
-2.9500000000000002
 74
0
  0
LTYPE
  5
51
100
AcDbSymbolTableRecord
100
AcDbLinetypeTableRecord
  2
ACAD_ISO08W100
 70
0
  3
ISO long-dash short-dash ____ __ ____ __ ____ _
 72
65
 73
4
 40
36.0
 49
24.0
 74
0
 49
-3.0
 74
0
 49
6.0
 74
0
 49
-3.0
 74
0
  0
LTYPE
  5
15
100
AcDbSymbolTableRecord
100
AcDbLinetypeTableRecord
  2
BYLAYER
 70
0
  3

 72
65
 73
0
 40
0.0
  0
LTYPE
  5
52
100
AcDbSymbolTableRecord
100
AcDbLinetypeTableRecord
  2
DASHDOT2
 70
0
  3
Dash dot (.5x) _._._._._._._._._._._._._._._.
 72
65
 73
4
 40
12.699999999999999
 49
6.3499999999999996
 74
0
 49
-3.125
 74
0
 49
0.1
 74
0
 49
-3.125
 74
0
  0
LTYPE
  5
53
100
AcDbSymbolTableRecord
100
AcDbLinetypeTableRecord
  2
ACAD_ISO14W100
 70
0
  3
ISO dash triple-dot __ . . . __ . . . __ . . . _
 72
65
 73
8
 40
24.000000000000004
 49
12.0
 74
0
 49
-2.9500000000000002
 74
0
 49
0.1
 74
0
 49
-2.9000000000000004
 74
0
 49
0.1
 74
0
 49
-2.9000000000000004
 74
0
 49
0.1
 74
0
 49
-2.9500000000000002
 74
0
  0
LTYPE
  5
54
100
AcDbSymbolTableRecord
100
AcDbLinetypeTableRecord
  2
DIVIDEX2
 70
0
  3
Divide (2x) ________  .  .  ________  .  .  _
 72
65
 73
6
 40
63.5
 49
25.399999999999999
 74
0
 49
-12.649999999999999
 74
0
 49
0.1
 74
0
 49
-12.599999999999998
 74
0
 49
0.1
 74
0
 49
-12.649999999999999
 74
0
  0
LTYPE
  5
55
100
AcDbSymbolTableRecord
100
AcDbLinetypeTableRecord
  2
ACAD_ISO06W100
 70
0
  3
ISO long-dash triple-dot ____ ... ____ ... ____
 72
65
 73
8
 40
36.000000000000007
 49
24.0
 74
0
 49
-2.9500000000000002
 74
0
 49
0.1
 74
0
 49
-2.9000000000000004
 74
0
 49
0.1
 74
0
 49
-2.9000000000000004
 74
0
 49
0.1
 74
0
 49
-2.9500000000000002
 74
0
  0
LTYPE
  5
56
100
AcDbSymbolTableRecord
100
AcDbLinetypeTableRecord
  2
DIVIDE2
 70
0
  3
Divide (.5x) __..__..__..__..__..__..__..__.._
 72
65
 73
6
 40
15.874999999999998
 49
6.3499999999999996
 74
0
 49
-3.125
 74
0
 49
0.1
 74
0
 49
-3.0750000000000002
 74
0
 49
0.1
 74
0
 49
-3.125
 74
0
  0
ENDTAB
  0
TABLE
  2
LAYER
  5
2
100
AcDbSymbolTable
 70
2
  0
LAYER
  5
10
100
AcDbSymbolTableRecord
100
AcDbLayerTableRecord
  2
0
 70
0
 62
7
420
16777215
  6
Continuous
370
25
390
F
  0
LAYER
  5
57
100
AcDbSymbolTableRecord
100
AcDbLayerTableRecord
  2
Holes
 70
0
 62
7
420
0
  6
Continuous
370
25
390
F
  0
ENDTAB
  0
TABLE
  2
STYLE
  5
3
100
AcDbSymbolTable
 70
1
  0
STYLE
  5
58
100
AcDbSymbolTableRecord
100
AcDbTextStyleTableRecord
  2
Standard
 70
0
 40
0.0
 41
1.0
 50
0.0
 71
0
 42
2.5
  3

  4

1001
ACAD
1000
txt
1071
0
  0
ENDTAB
  0
TABLE
  2
VIEW
  5
6
100
AcDbSymbolTable
 70
0
  0
ENDTAB
  0
TABLE
  2
UCS
  5
7
100
AcDbSymbolTable
 70
0
  0
ENDTAB
  0
TABLE
  2
APPID
  5
9
100
AcDbSymbolTable
 70
1
  0
APPID
  5
12
100
AcDbSymbolTableRecord
100
AcDbRegAppTableRecord
  2
ACAD
 70
0
  0
APPID
  5
59
100
AcDbSymbolTableRecord
100
AcDbRegAppTableRecord
  2
QCAD
 70
0
  0
ENDTAB
  0
TABLE
  2
DIMSTYLE
  5
A
100
AcDbSymbolTable
 70
1
100
AcDbDimStyleTable
 71
0
  0
DIMSTYLE
105
27
100
AcDbSymbolTableRecord
100
AcDbDimStyleTableRecord
  2
Standard
 41
2.5
 42
0.625
 43
3.75
 44
1.25
 70
0
 73
0
 74
0
 77
1
 78
8
140
2.5
141
2.5
143
0.03937007874016
147
0.625
171
3
172
1
271
2
272
2
274
3
278
44
283
0
284
8
340
58
  0
ENDTAB
  0
TABLE
  2
BLOCK_RECORD
  5
1
100
AcDbSymbolTable
 70
1
  0
BLOCK_RECORD
  5
1F
100
AcDbSymbolTableRecord
100
AcDbBlockTableRecord
  2
*Model_Space
340
22
  0
BLOCK_RECORD
  5
1B
100
AcDbSymbolTableRecord
100
AcDbBlockTableRecord
  2
*Paper_Space
340
1E
  0
BLOCK_RECORD
  5
23
100
AcDbSymbolTableRecord
100
AcDbBlockTableRecord
  2
*Paper_Space0
340
26
  0
ENDTAB
  0
ENDSEC
  0
SECTION
  2
BLOCKS
  0
BLOCK
  5
20
100
AcDbEntity
  8
0
100
AcDbBlockBegin
  2
*Model_Space
 70
0
 10
0.0
 20
0.0
 30
0.0
  3
*Model_Space
  1

  0
ENDBLK
  5
21
100
AcDbEntity
  8
0
100
AcDbBlockEnd
  0
BLOCK
  5
1C
100
AcDbEntity
 67
1
  8
0
100
AcDbBlockBegin
  2
*Paper_Space
 70
0
 10
0.0
 20
0.0
 30
0.0
  3
*Paper_Space
  1

  0
ENDBLK
  5
1D
100
AcDbEntity
 67
1
  8
0
100
AcDbBlockEnd
  0
BLOCK
  5
24
100
AcDbEntity
  8
0
100
AcDbBlockBegin
  2
*Paper_Space0
 70
0
 10
0.0
 20
0.0
 30
0.0
  3
*Paper_Space0
  1

  0
ENDBLK
  5
25
100
AcDbEntity
  8
0
100
AcDbBlockEnd
  0
ENDSEC
  0
SECTION
  2
ENTITIES
  0
LINE
  5
5A
100
AcDbEntity
  8
0
 62
256
370
-1
 48
1.0
  6
BYLAYER
100
AcDbLine
 10
454.60000000000002
 20
237.30000000000001
 30
0.0
 11
0.0
 21
237.30000000000001
 31
0.0
  0
LINE
  5
5B
100
AcDbEntity
  8
0
 62
256
370
-1
 48
1.0
  6
BYLAYER
100
AcDbLine
 10
0.0
 20
237.30000000000001
 30
0.0
 11
0.0
 21
0.0
 31
0.0
  0
LINE
  5
5C
100
AcDbEntity
  8
0
 62
256
370
-1
 48
1.0
  6
BYLAYER
100
AcDbLine
 10
0.0
 20
0.0
 30
0.0
 11
454.60000000000002
 21
0.0
 31
0.0
  0
LINE
  5
5D
100
AcDbEntity
  8
0
 62
256
370
-1
 48
1.0
  6
BYLAYER
100
AcDbLine
 10
454.60000000000002
 20
0.0
 30
0.0
 11
454.60000000000002
 21
237.30000000000001
 31
0.0
  0
CIRCLE
  5
5E
100
AcDbEntity
  8
Holes
 62
256
370
-1
 48
1.0
  6
BYLAYER
100
AcDbCircle
 10
129.21694957572942
 20
223.36016696855444
 30
0.0
 40
1.9997482841799425
  0
CIRCLE
  5
5F
100
AcDbEntity
  8
Holes
 62
256
370
-1
 48
1.0
  6
BYLAYER
100
AcDbCircle
 10
158.81716130604286
 20
223.35999999999993
 30
0.0
 40
2.0000446278393622
  0
CIRCLE
  5
60
100
AcDbEntity
  8
Holes
 62
256
370
-1
 48
1.0
  6
BYLAYER
100
AcDbCircle
 10
129.21716491500038
 20
207.14977230541467
 30
0.0
 40
2.0000956678601316
  0
CIRCLE
  5
61
100
AcDbEntity
  8
Holes
 62
256
370
-1
 48
1.0
  6
BYLAYER
100
AcDbCircle
 10
158.81694324045412
 20
207.15000000000006
 30
0.0
 40
1.9999207598134781
  0
CIRCLE
  5
62
100
AcDbEntity
  8
Holes
 62
256
370
-1
 48
1.0
  6
BYLAYER
100
AcDbCircle
 10
14.999917796102718
 20
222.29988801593697
 30
0.0
 40
4.30006999675334
  0
CIRCLE
  5
63
100
AcDbEntity
  8
Holes
 62
256
370
-1
 48
1.0
  6
BYLAYER
100
AcDbCircle
 10
295.88292281575116
 20
223.36018835585165
 30
0.0
 40
1.9997541377275241
  0
CIRCLE
  5
64
100
AcDbEntity
  8
Holes
 62
256
370
-1
 48
1.0
  6
BYLAYER
100
AcDbCircle
 10
295.88305042427038
 20
207.14983303144555
 30
0.0
 40
1.9997482841800112
  0
CIRCLE
  5
65
100
AcDbEntity
  8
Holes
 62
256
370
-1
 48
1.0
  6
BYLAYER
100
AcDbCircle
 10
325.48322313942958
 20
207.15000870897074
 30
0.0
 40
1.999982508205669
  0
CIRCLE
  5
66
100
AcDbEntity
  8
Holes
 62
256
370
-1
 48
1.0
  6
BYLAYER
100
AcDbCircle
 10
325.48299781553982
 20
223.36004684648148
 30
0.0
 40
1.9998506691236249
  0
CIRCLE
  5
67
100
AcDbEntity
  8
Holes
 62
256
370
-1
 48
1.0
  6
BYLAYER
100
AcDbCircle
 10
439.59979511867454
 20
222.30000000000007
 30
0.0
 40
4.3002133142462995
  0
CIRCLE
  5
68
100
AcDbEntity
  8
Holes
 62
256
370
-1
 48
1.0
  6
BYLAYER
100
AcDbCircle
 10
214.29978802273669
 20
133.15003353398359
 30
0.0
 40
2.0000732385501716
  0
CIRCLE
  5
69
100
AcDbEntity
  8
Holes
 62
256
370
-1
 48
1.0
  6
BYLAYER
100
AcDbCircle
 10
240.29978802273666
 20
133.15003353398362
 30
0.0
 40
2.0000732385501547
  0
CIRCLE
  5
6A
100
AcDbEntity
  8
Holes
 62
256
370
-1
 48
1.0
  6
BYLAYER
100
AcDbCircle
 10
214.29999999999995
 20
104.14999999999999
 30
0.0
 40
2.0002249873451894
  0
CIRCLE
  5
6B
100
AcDbEntity
  8
Holes
 62
256
370
-1
 48
1.0
  6
BYLAYER
100
AcDbCircle
 10
240.29977712800519
 20
104.14999999999998
 30
0.0
 40
2.0000939614778117
  0
CIRCLE
  5
6C
100
AcDbEntity
  8
Holes
 62
256
370
-1
 48
1.0
  6
BYLAYER
100
AcDbCircle
 10
15.000018143528735
 20
14.999978589025389
 30
0.0
 40
4.3000220010805306
  0
CIRCLE
  5
6D
100
AcDbEntity
  8
Holes
 62
256
370
-1
 48
1.0
  6
BYLAYER
100
AcDbCircle
 10
129.21703035844703
 20
30.060165263737634
 30
0.0
 40
2.0001062598896371
  0
CIRCLE
  5
6E
100
AcDbEntity
  8
Holes
 62
256
370
-1
 48
1.0
  6
BYLAYER
100
AcDbCircle
 10
129.21700000000004
 20
13.850080251611393
 30
0.0
 40
2.0000190485955494
  0
CIRCLE
  5
6F
100
AcDbEntity
  8
Holes
 62
256
370
-1
 48
1.0
  6
BYLAYER
100
AcDbCircle
 10
158.81706372734325
 20
30.060008318945847
 30
0.0
 40
1.9999960446521057
  0
CIRCLE
  5
70
100
AcDbEntity
  8
Holes
 62
256
370
-1
 48
1.0
  6
BYLAYER
100
AcDbCircle
 10
158.8169787837443
 20
13.84987050948885
 30
0.0
 40
2.0000238489528477
  0
CIRCLE
  5
71
100
AcDbEntity
  8
Holes
 62
256
370
-1
 48
1.0
  6
BYLAYER
100
AcDbCircle
 10
295.8829990002032
 20
30.059972216911138
 30
0.0
 40
2.0000009999897572
  0
CIRCLE
  5
72
100
AcDbEntity
  8
Holes
 62
256
370
-1
 48
1.0
  6
BYLAYER
100
AcDbCircle
 10
295.88299999999992
 20
13.849950000000014
 30
0.0
 40
1.9999870155828234
  0
CIRCLE
  5
73
100
AcDbEntity
  8
Holes
 62
256
370
-1
 48
1.0
  6
BYLAYER
100
AcDbCircle
 10
325.48302997448974
 20
13.850000000000055
 30
0.0
 40
1.9999700255102653
  0
CIRCLE
  5
74
100
AcDbEntity
  8
Holes
 62
256
370
-1
 48
1.0
  6
BYLAYER
100
AcDbCircle
 10
325.48305043109121
 20
30.059961025575628
 30
0.0
 40
1.9999495692884937
  0
CIRCLE
  5
75
100
AcDbEntity
  8
Holes
 62
256
370
-1
 48
1.0
  6
BYLAYER
100
AcDbCircle
 10
439.60008480438847
 20
15.00001473560449
 30
0.0
 40
4.2999762215582376
  0
LINE
  5
76
100
AcDbEntity
  8
0
 62
256
370
-1
 48
1.0
  6
BYLAYER
100
AcDbLine
 10
212.29971478418653
 20
133.15003353398359
 30
0.0
 11
216.29986126128685
 21
133.15003353398359
 31
0.0
  0
LINE
  5
77
100
AcDbEntity
  8
0
 62
256
370
-1
 48
1.0
  6
BYLAYER
100
AcDbLine
 10
214.29978802273669
 20
131.14996029543343
 30
0.0
 11
214.29978802273669
 21
135.15010677253375
 31
0.0
  0
LINE
  5
78
100
AcDbEntity
  8
0
 62
256
370
-1
 48
1.0
  6
BYLAYER
100
AcDbLine
 10
238.29971478418651
 20
133.15003353398362
 30
0.0
 11
242.29986126128682
 21
133.15003353398362
 31
0.0
  0
LINE
  5
79
100
AcDbEntity
  8
0
 62
256
370
-1
 48
1.0
  6
BYLAYER
100
AcDbLine
 10
240.29978802273666
 20
131.14996029543346
 30
0.0
 11
240.29978802273666
 21
135.15010677253377
 31
0.0
  0
LINE
  5
7A
100
AcDbEntity
  8
0
 62
256
370
-1
 48
1.0
  6
BYLAYER
100
AcDbLine
 10
238.29968316652739
 20
104.14999999999998
 30
0.0
 11
242.29987108948299
 21
104.14999999999998
 31
0.0
  0
LINE
  5
7B
100
AcDbEntity
  8
0
 62
256
370
-1
 48
1.0
  6
BYLAYER
100
AcDbLine
 10
240.29977712800519
 20
102.14990603852216
 30
0.0
 11
240.29977712800519
 21
106.15009396147779
 31
0.0
  0
LINE
  5
7C
100
AcDbEntity
  8
0
 62
256
370
-1
 48
1.0
  6
BYLAYER
100
AcDbLine
 10
212.29977501265478
 20
104.14999999999999
 30
0.0
 11
216.30022498734513
 21
104.14999999999999
 31
0.0
  0
LINE
  5
7D
100
AcDbEntity
  8
0
 62
256
370
-1
 48
1.0
  6
BYLAYER
100
AcDbLine
 10
214.29999999999995
 20
102.1497750126548
 30
0.0
 11
214.29999999999995
 21
106.15022498734518
 31
0.0
  0
LINE
  5
7E
100
AcDbEntity
  8
0
 62
256
370
-1
 48
1.0
  6
BYLAYER
100
AcDbLine
 10
10.699996142448203
 20
14.999978589025389
 30
0.0
 11
19.300040144609266
 21
14.999978589025389
 31
0.0
  0
LINE
  5
7F
100
AcDbEntity
  8
0
 62
256
370
-1
 48
1.0
  6
BYLAYER
100
AcDbLine
 10
15.000018143528735
 20
10.699956587944857
 30
0.0
 11
15.000018143528735
 21
19.30000059010592
 31
0.0
  0
LINE
  5
80
100
AcDbEntity
  8
0
 62
256
370
-1
 48
1.0
  6
BYLAYER
100
AcDbLine
 10
127.2169240985574
 20
30.060165263737634
 30
0.0
 11
131.21713661833667
 21
30.060165263737634
 31
0.0
  0
LINE
  5
81
100
AcDbEntity
  8
0
 62
256
370
-1
 48
1.0
  6
BYLAYER
100
AcDbLine
 10
129.21703035844703
 20
28.060059003847996
 30
0.0
 11
129.21703035844703
 21
32.060271523627272
 31
0.0
  0
LINE
  5
82
100
AcDbEntity
  8
0
 62
256
370
-1
 48
1.0
  6
BYLAYER
100
AcDbLine
 10
127.21698095140449
 20
13.850080251611393
 30
0.0
 11
131.2170190485956
 21
13.850080251611393
 31
0.0
  0
LINE
  5
83
100
AcDbEntity
  8
0
 62
256
370
-1
 48
1.0
  6
BYLAYER
100
AcDbLine
 10
129.21700000000004
 20
11.850061203015844
 30
0.0
 11
129.21700000000004
 21
15.850099300206942
 31
0.0
  0
LINE
  5
84
100
AcDbEntity
  8
0
 62
256
370
-1
 48
1.0
  6
BYLAYER
100
AcDbLine
 10
156.81706768269115
 20
30.060008318945847
 30
0.0
 11
160.81705977199536
 21
30.060008318945847
 31
0.0
  0
LINE
  5
85
100
AcDbEntity
  8
0
 62
256
370
-1
 48
1.0
  6
BYLAYER
100
AcDbLine
 10
158.81706372734325
 20
28.06001227429374
 30
0.0
 11
158.81706372734325
 21
32.060004363597955
 31
0.0
  0
LINE
  5
86
100
AcDbEntity
  8
0
 62
256
370
-1
 48
1.0
  6
BYLAYER
100
AcDbLine
 10
156.81695493479145
 20
13.84987050948885
 30
0.0
 11
160.81700263269715
 21
13.84987050948885
 31
0.0
  0
LINE
  5
87
100
AcDbEntity
  8
0
 62
256
370
-1
 48
1.0
  6
BYLAYER
100
AcDbLine
 10
158.8169787837443
 20
11.849846660536002
 30
0.0
 11
158.8169787837443
 21
15.849894358441698
 31
0.0
  0
LINE
  5
88
100
AcDbEntity
  8
0
 62
256
370
-1
 48
1.0
  6
BYLAYER
100
AcDbLine
 10
293.88299800021343
 20
30.059972216911138
 30
0.0
 11
297.88300000019296
 21
30.059972216911138
 31
0.0
  0
LINE
  5
89
100
AcDbEntity
  8
0
 62
256
370
-1
 48
1.0
  6
BYLAYER
100
AcDbLine
 10
295.8829990002032
 20
28.05997121692138
 30
0.0
 11
295.8829990002032
 21
32.059973216900893
 31
0.0
  0
LINE
  5
8A
100
AcDbEntity
  8
0
 62
256
370
-1
 48
1.0
  6
BYLAYER
100
AcDbLine
 10
293.88301298441712
 20
13.849950000000014
 30
0.0
 11
297.88298701558273
 21
13.849950000000014
 31
0.0
  0
LINE
  5
8B
100
AcDbEntity
  8
0
 62
256
370
-1
 48
1.0
  6
BYLAYER
100
AcDbLine
 10
295.88299999999992
 20
11.849962984417191
 30
0.0
 11
295.88299999999992
 21
15.849937015582837
 31
0.0
  0
LINE
  5
8C
100
AcDbEntity
  8
0
 62
256
370
-1
 48
1.0
  6
BYLAYER
100
AcDbLine
 10
323.48310086180271
 20
30.059961025575628
 30
0.0
 11
327.48300000037972
 21
30.059961025575628
 31
0.0
  0
LINE
  5
8D
100
AcDbEntity
  8
0
 62
256
370
-1
 48
1.0
  6
BYLAYER
100
AcDbLine
 10
325.48305043109121
 20
28.060011456287135
 30
0.0
 11
325.48305043109121
 21
32.059910594864121
 31
0.0
  0
LINE
  5
8E
100
AcDbEntity
  8
0
 62
256
370
-1
 48
1.0
  6
BYLAYER
100
AcDbLine
 10
323.48305994897947
 20
13.850000000000055
 30
0.0
 11
327.483
 21
13.850000000000055
 31
0.0
  0
LINE
  5
8F
100
AcDbEntity
  8
0
 62
256
370
-1
 48
1.0
  6
BYLAYER
100
AcDbLine
 10
325.48302997448974
 20
11.850029974489789
 30
0.0
 11
325.48302997448974
 21
15.84997002551032
 31
0.0
  0
LINE
  5
90
100
AcDbEntity
  8
0
 62
256
370
-1
 48
1.0
  6
BYLAYER
100
AcDbLine
 10
435.30010858283026
 20
15.00001473560449
 30
0.0
 11
443.90006102594668
 21
15.00001473560449
 31
0.0
  0
LINE
  5
91
100
AcDbEntity
  8
0
 62
256
370
-1
 48
1.0
  6
BYLAYER
100
AcDbLine
 10
439.60008480438847
 20
10.700038514046252
 30
0.0
 11
439.60008480438847
 21
19.299990957162727
 31
0.0
  0
LINE
  5
92
100
AcDbEntity
  8
0
 62
256
370
-1
 48
1.0
  6
BYLAYER
100
AcDbLine
 10
435.29958180442821
 20
222.30000000000007
 30
0.0
 11
443.90000843292086
 21
222.30000000000007
 31
0.0
  0
LINE
  5
93
100
AcDbEntity
  8
0
 62
256
370
-1
 48
1.0
  6
BYLAYER
100
AcDbLine
 10
439.59979511867454
 20
217.99978668575378
 30
0.0
 11
439.59979511867454
 21
226.60021331424636
 31
0.0
  0
LINE
  5
94
100
AcDbEntity
  8
0
 62
256
370
-1
 48
1.0
  6
BYLAYER
100
AcDbLine
 10
323.48324063122391
 20
207.15000870897074
 30
0.0
 11
327.48320564763526
 21
207.15000870897074
 31
0.0
  0
LINE
  5
95
100
AcDbEntity
  8
0
 62
256
370
-1
 48
1.0
  6
BYLAYER
100
AcDbLine
 10
325.48322313942958
 20
205.15002620076507
 30
0.0
 11
325.48322313942958
 21
209.14999121717642
 31
0.0
  0
LINE
  5
96
100
AcDbEntity
  8
0
 62
256
370
-1
 48
1.0
  6
BYLAYER
100
AcDbLine
 10
323.48314714641617
 20
223.36004684648148
 30
0.0
 11
327.48284848466346
 21
223.36004684648148
 31
0.0
  0
LINE
  5
97
100
AcDbEntity
  8
0
 62
256
370
-1
 48
1.0
  6
BYLAYER
100
AcDbLine
 10
325.48299781553982
 20
221.36019617735786
 30
0.0
 11
325.48299781553982
 21
225.3598975156051
 31
0.0
  0
LINE
  5
98
100
AcDbEntity
  8
0
 62
256
370
-1
 48
1.0
  6
BYLAYER
100
AcDbLine
 10
293.88316867802365
 20
223.36018835585165
 30
0.0
 11
297.88267695347866
 21
223.36018835585165
 31
0.0
  0
LINE
  5
99
100
AcDbEntity
  8
0
 62
256
370
-1
 48
1.0
  6
BYLAYER
100
AcDbLine
 10
295.88292281575116
 20
221.36043421812411
 30
0.0
 11
295.88292281575116
 21
225.35994249357918
 31
0.0
  0
LINE
  5
9A
100
AcDbEntity
  8
0
 62
256
370
-1
 48
1.0
  6
BYLAYER
100
AcDbLine
 10
293.88330214009039
 20
207.14983303144555
 30
0.0
 11
297.88279870845037
 21
207.14983303144555
 31
0.0
  0
LINE
  5
9B
100
AcDbEntity
  8
0
 62
256
370
-1
 48
1.0
  6
BYLAYER
100
AcDbLine
 10
295.88305042427038
 20
205.15008474726554
 30
0.0
 11
295.88305042427038
 21
209.14958131562557
 31
0.0
  0
LINE
  5
9C
100
AcDbEntity
  8
0
 62
256
370
-1
 48
1.0
  6
BYLAYER
100
AcDbLine
 10
127.21720129154947
 20
223.36016696855444
 30
0.0
 11
131.21669785990935
 21
223.36016696855444
 31
0.0
  0
LINE
  5
9D
100
AcDbEntity
  8
0
 62
256
370
-1
 48
1.0
  6
BYLAYER
100
AcDbLine
 10
129.21694957572942
 20
221.36041868437451
 30
0.0
 11
129.21694957572942
 21
225.35991525273437
 31
0.0
  0
LINE
  5
9E
100
AcDbEntity
  8
0
 62
256
370
-1
 48
1.0
  6
BYLAYER
100
AcDbLine
 10
127.21706924714024
 20
207.14977230541467
 30
0.0
 11
131.21726058286052
 21
207.14977230541467
 31
0.0
  0
LINE
  5
9F
100
AcDbEntity
  8
0
 62
256
370
-1
 48
1.0
  6
BYLAYER
100
AcDbLine
 10
129.21716491500038
 20
205.14967663755453
 30
0.0
 11
129.21716491500038
 21
209.14986797327481
 31
0.0
  0
LINE
  5
A0
100
AcDbEntity
  8
0
 62
256
370
-1
 48
1.0
  6
BYLAYER
100
AcDbLine
 10
156.81711667820349
 20
223.35999999999993
 30
0.0
 11
160.81720593388224
 21
223.35999999999993
 31
0.0
  0
LINE
  5
A1
100
AcDbEntity
  8
0
 62
256
370
-1
 48
1.0
  6
BYLAYER
100
AcDbLine
 10
158.81716130604286
 20
221.35995537216056
 30
0.0
 11
158.81716130604286
 21
225.3600446278393
 31
0.0
  0
LINE
  5
A2
100
AcDbEntity
  8
0
 62
256
370
-1
 48
1.0
  6
BYLAYER
100
AcDbLine
 10
156.81702248064065
 20
207.15000000000006
 30
0.0
 11
160.8168640002676
 21
207.15000000000006
 31
0.0
  0
LINE
  5
A3
100
AcDbEntity
  8
0
 62
256
370
-1
 48
1.0
  6
BYLAYER
100
AcDbLine
 10
158.81694324045412
 20
205.15007924018659
 30
0.0
 11
158.81694324045412
 21
209.14992075981354
 31
0.0
  0
LINE
  5
A4
100
AcDbEntity
  8
0
 62
256
370
-1
 48
1.0
  6
BYLAYER
100
AcDbLine
 10
10.699847799349378
 20
222.29988801593697
 30
0.0
 11
19.299987792856058
 21
222.29988801593697
 31
0.0
  0
LINE
  5
A5
100
AcDbEntity
  8
0
 62
256
370
-1
 48
1.0
  6
BYLAYER
100
AcDbLine
 10
14.999917796102718
 20
217.99981801918364
 30
0.0
 11
14.999917796102718
 21
226.59995801269031
 31
0.0
  0
DIMENSION
  5
A6
100
AcDbEntity
  8
0
 62
256
370
-1
 48
1.0
  6
BYLAYER
100
AcDbDimension
 10
14.999917796102721
 20
230.0
 30
0.0
 11
72.108433685916083
 21
231.875
 31
0.0
 70
0
 71
8
 72
2
 41
1.0
 42
0.0
  1

  3
Standard
100
AcDbAlignedDimension
 13
14.999917796102716
 23
222.299888015937
 33
0.0
 14
129.21694957572944
 24
223.36016696855444
 34
0.0
 50
0.0
100
AcDbRotatedDimension
1001
ACAD
1000
DSTYLE
1002
{
1070
144
1040
1.0
1070
40
1040
1.0
1002
}
  0
DIMENSION
  5
A7
100
AcDbEntity
  8
0
 62
256
370
-1
 48
1.0
  6
BYLAYER
100
AcDbDimension
 10
119.99979595680063
 20
223.36004452766502
 30
0.0
 11
118.12490362660154
 21
215.25482228855026
 31
0.0
 70
1
 71
8
 72
2
 41
1.0
 42
0.0
  1

  3
Standard
100
AcDbAlignedDimension
 13
129.21694957572944
 23
223.36016696855444
 33
0.0
 14
129.21716491500038
 24
207.1497723054147
 34
0.0
1001
ACAD
1000
DSTYLE
1002
{
1070
144
1040
1.0
1070
40
1040
1.0
1002
}
  0
DIMENSION
  5
A8
100
AcDbEntity
  8
0
 62
256
370
-1
 48
1.0
  6
BYLAYER
100
AcDbDimension
 10
129.21721991580253
 20
199.99978628256866
 30
0.0
 11
144.01709465521395
 21
201.87490012980587
 31
0.0
 70
1
 71
8
 72
2
 41
1.0
 42
0.0
  1

  3
Standard
100
AcDbAlignedDimension
 13
129.21716491500038
 23
207.1497723054147
 33
0.0
 14
158.81694324045415
 24
207.15000000000006
 34
0.0
1001
ACAD
1000
DSTYLE
1002
{
1070
144
1040
1.0
1070
40
1040
1.0
1002
}
  0
DIMENSION
  5
A9
100
AcDbEntity
  8
0
 62
256
370
-1
 48
1.0
  6
BYLAYER
100
AcDbDimension
 10
158.81715218092353
 20
229.99981148324821
 30
0.0
 11
227.35003035926073
 21
231.87490566117231
 31
0.0
 70
1
 71
8
 72
2
 41
1.0
 42
0.0
  1

  3
Standard
100
AcDbAlignedDimension
 13
158.81716130604283
 23
223.35999999999993
 33
0.0
 14
295.88292281575116
 24
223.36018835585165
 34
0.0
1001
ACAD
1000
DSTYLE
1002
{
1070
144
1040
1.0
1070
40
1040
1.0
1002
}
  0
DIMENSION
  5
AA
100
AcDbEntity
  8
0
 62
256
370
-1
 48
1.0
  6
BYLAYER
100
AcDbDimension
 10
289.99987121235415
 20
223.36014204425092
 30
0.0
 11
288.12493501667188
 21
215.25494962197826
 31
0.0
 70
1
 71
8
 72
2
 41
1.0
 42
0.0
  1

  3
Standard
100
AcDbAlignedDimension
 13
295.88292281575116
 23
223.36018835585165
 33
0.0
 14
295.88305042427038
 24
207.14983303144558
 34
0.0
1001
ACAD
1000
DSTYLE
1002
{
1070
144
1040
1.0
1070
40
1040
1.0
1002
}
  0
DIMENSION
  5
AB
100
AcDbEntity
  8
0
 62
256
370
-1
 48
1.0
  6
BYLAYER
100
AcDbDimension
 10
325.48299781553976
 20
230.0
 30
0.0
 11
382.54139646710712
 21
231.875
 31
0.0
 70
0
 71
8
 72
2
 41
1.0
 42
0.0
  1

  3
Standard
100
AcDbAlignedDimension
 13
325.48299781553976
 23
223.36004684648145
 33
0.0
 14
439.59979511867448
 24
222.30000000000007
 34
0.0
 50
0.0
100
AcDbRotatedDimension
1001
ACAD
1000
DSTYLE
1002
{
1070
144
1040
1.0
1070
40
1040
1.0
1002
}
  0
DIMENSION
  5
AC
100
AcDbEntity
  8
0
 62
256
370
-1
 48
1.0
  6
BYLAYER
100
AcDbDimension
 10
450.00028647162139
 20
15.00002926908283
 30
0.0
 11
448.12514162876619
 21
118.65001928111298
 31
0.0
 70
1
 71
8
 72
2
 41
1.0
 42
0.0
  1

  3
Standard
100
AcDbAlignedDimension
 13
439.60008480438847
 23
15.00001473560449
 33
0.0
 14
439.59979511867448
 24
222.30000000000007
 34
0.0
1001
ACAD
1000
DSTYLE
1002
{
1070
144
1040
1.0
1070
40
1040
1.0
1002
}
  0
DIMENSION
  5
AD
100
AcDbEntity
  8
0
 62
256
370
-1
 48
1.0
  6
BYLAYER
100
AcDbDimension
 10
325.48302997448974
 20
5.0
 30
0.0
 11
382.54155738943911
 21
6.875
 31
0.0
 70
0
 71
8
 72
2
 41
1.0
 42
0.0
  1

  3
Standard
100
AcDbAlignedDimension
 13
325.48302997448974
 23
13.850000000000055
 33
0.0
 14
439.60008480438847
 24
15.00001473560449
 34
0.0
 50
0.0
100
AcDbRotatedDimension
1001
ACAD
1000
DSTYLE
1002
{
1070
144
1040
1.0
1070
40
1040
1.0
1002
}
  0
DIMENSION
  5
AE
100
AcDbEntity
  8
0
 62
256
370
-1
 48
1.0
  6
BYLAYER
100
AcDbDimension
 10
325.48302997448974
 20
5.0
 30
0.0
 11
310.68301498724486
 21
6.875
 31
0.0
 70
0
 71
8
 72
2
 41
1.0
 42
0.0
  1

  3
Standard
100
AcDbAlignedDimension
 13
325.48302997448974
 23
13.850000000000055
 33
0.0
 14
295.88299999999992
 24
13.849950000000016
 34
0.0
 50
0.0
100
AcDbRotatedDimension
1001
ACAD
1000
DSTYLE
1002
{
1070
144
1040
1.0
1070
40
1040
1.0
1002
}
  0
DIMENSION
  5
AF
100
AcDbEntity
  8
0
 62
256
370
-1
 48
1.0
  6
BYLAYER
100
AcDbDimension
 10
295.88299999999992
 20
5.0
 30
0.0
 11
227.3499893918721
 21
6.875
 31
0.0
 70
0
 71
8
 72
2
 41
1.0
 42
0.0
  1

  3
Standard
100
AcDbAlignedDimension
 13
295.88299999999992
 23
13.849950000000016
 33
0.0
 14
158.8169787837443
 24
13.84987050948885
 34
0.0
 50
0.0
100
AcDbRotatedDimension
1001
ACAD
1000
DSTYLE
1002
{
1070
144
1040
1.0
1070
40
1040
1.0
1002
}
  0
DIMENSION
  5
B0
100
AcDbEntity
  8
0
 62
256
370
-1
 48
1.0
  6
BYLAYER
100
AcDbDimension
 10
158.8169787837443
 20
5.0
 30
0.0
 11
144.01698939187219
 21
6.875
 31
0.0
 70
0
 71
8
 72
2
 41
1.0
 42
0.0
  1

  3
Standard
100
AcDbAlignedDimension
 13
158.8169787837443
 23
13.84987050948885
 33
0.0
 14
129.21700000000007
 24
13.850080251611393
 34
0.0
 50
0.0
100
AcDbRotatedDimension
1001
ACAD
1000
DSTYLE
1002
{
1070
144
1040
1.0
1070
40
1040
1.0
1002
}
  0
DIMENSION
  5
B1
100
AcDbEntity
  8
0
 62
256
370
-1
 48
1.0
  6
BYLAYER
100
AcDbDimension
 10
129.21700000000007
 20
5.0
 30
0.0
 11
72.108509071764402
 21
6.875
 31
0.0
 70
0
 71
8
 72
2
 41
1.0
 42
0.0
  1

  3
Standard
100
AcDbAlignedDimension
 13
129.21700000000007
 23
13.850080251611393
 33
0.0
 14
15.000018143528733
 24
14.999978589025391
 34
0.0
 50
0.0
100
AcDbRotatedDimension
1001
ACAD
1000
DSTYLE
1002
{
1070
144
1040
1.0
1070
40
1040
1.0
1002
}
  0
DIMENSION
  5
B2
100
AcDbEntity
  8
0
 62
256
370
-1
 48
1.0
  6
BYLAYER
100
AcDbDimension
 10
29.999902072925018
 20
222.29989527696193
 30
0.0
 11
28.124952246638244
 21
118.64993965587706
 31
0.0
 70
1
 71
8
 72
2
 41
1.0
 42
0.0
  1

  3
Standard
100
AcDbAlignedDimension
 13
14.999917796102716
 23
222.299888015937
 33
0.0
 14
15.000018143528733
 24
14.999978589025391
 34
0.0
1001
ACAD
1000
DSTYLE
1002
{
1070
144
1040
1.0
1070
40
1040
1.0
1002
}
  0
DIMENSION
  5
B3
100
AcDbEntity
  8
0
 62
256
370
-1
 48
1.0
  6
BYLAYER
100
AcDbDimension
 10
214.29978802273669
 20
140.0
 30
0.0
 11
227.29978802273666
 21
141.875
 31
0.0
 70
0
 71
8
 72
2
 41
1.0
 42
0.0
  1

  3
Standard
100
AcDbAlignedDimension
 13
214.29978802273669
 23
133.15003353398359
 33
0.0
 14
240.29978802273666
 24
133.15003353398362
 34
0.0
 50
0.0
100
AcDbRotatedDimension
1001
ACAD
1000
DSTYLE
1002
{
1070
144
1040
1.0
1070
40
1040
1.0
1002
}
  0
DIMENSION
  5
B4
100
AcDbEntity
  8
0
 62
256
370
-1
 48
1.0
  6
BYLAYER
100
AcDbDimension
 10
250.00001057540214
 20
133.15002988980439
 30
0.0
 11
248.12500512803655
 21
118.65001382721249
 31
0.0
 70
1
 71
8
 72
2
 41
1.0
 42
0.0
  1

  3
Standard
100
AcDbAlignedDimension
 13
240.29978802273666
 23
133.15003353398362
 33
0.0
 14
240.29977712800519
 24
104.14999999999999
 34
0.0
1001
ACAD
1000
DSTYLE
1002
{
1070
144
1040
1.0
1070
40
1040
1.0
1002
}
  0
DIMENSION
  5
B5
100
AcDbEntity
  8
0
 62
256
370
-1
 48
1.0
  6
BYLAYER
100
AcDbDimension
 10
214.29978802273669
 20
140.0
 30
0.0
 11
107.14989401136835
 21
141.875
 31
0.0
 70
0
 71
8
 72
2
 41
1.0
 42
0.0
  1

  3
Standard
100
AcDbAlignedDimension
 13
214.29978802273669
 23
133.15003353398359
 33
0.0
 14
0.0
 24
133.15003353398359
 34
0.0
 50
0.0
100
AcDbRotatedDimension
1001
ACAD
1000
DSTYLE
1002
{
1070
144
1040
1.0
1070
40
1040
1.0
1002
}
  0
DIMENSION
  5
B6
100
AcDbEntity
  8
0
 62
256
370
-1
 48
1.0
  6
BYLAYER
100
AcDbDimension
 10
200.0
 20
104.15000000000001
 30
0.0
 11
198.125
 21
52.075000000000003
 31
0.0
 70
0
 71
8
 72
2
 41
1.0
 42
0.0
  1

  3
Standard
100
AcDbAlignedDimension
 13
214.29999999999995
 23
104.15000000000001
 33
0.0
 14
214.29999999999993
 24
0.0
 34
0.0
 50
90.0
100
AcDbRotatedDimension
1001
ACAD
1000
DSTYLE
1002
{
1070
144
1040
1.0
1070
40
1040
1.0
1002
}
  0
DIMENSION
  5
B7
100
AcDbEntity
  8
0
 62
256
370
-1
 48
1.0
  6
BYLAYER
100
AcDbDimension
 10
50.0
 20
14.999978589025391
 30
0.0
 11
48.125
 21
7.4999892945126954
 31
0.0
 70
0
 71
8
 72
2
 41
1.0
 42
0.0
  1

  3
Standard
100
AcDbAlignedDimension
 13
15.000018143528733
 23
14.999978589025391
 33
0.0
 14
15.000018143528735
 24
0.0
 34
0.0
 50
90.0
100
AcDbRotatedDimension
1001
ACAD
1000
DSTYLE
1002
{
1070
144
1040
1.0
1070
40
1040
1.0
1002
}
  0
DIMENSION
  5
B8
100
AcDbEntity
  8
0
 62
256
370
-1
 48
1.0
  6
BYLAYER
100
AcDbDimension
 10
15.000018143528733
 20
30.0
 30
0.0
 11
7.5000090717643664
 21
31.875
 31
0.0
 70
0
 71
8
 72
2
 41
1.0
 42
0.0
  1

  3
Standard
100
AcDbAlignedDimension
 13
15.000018143528733
 23
14.999978589025391
 33
0.0
 14
0.0
 24
14.999978589025432
 34
0.0
 50
0.0
100
AcDbRotatedDimension
1001
ACAD
1000
DSTYLE
1002
{
1070
144
1040
1.0
1070
40
1040
1.0
1002
}
  0
DIMENSION
  5
B9
100
AcDbEntity
  8
0
 62
256
370
-1
 48
1.0
  6
BYLAYER
100
AcDbDimension
 10
129.21703035844703
 20
40.0
 30
0.0
 11
64.608515179223517
 21
41.875
 31
0.0
 70
0
 71
8
 72
2
 41
1.0
 42
0.0
  1

  3
Standard
100
AcDbAlignedDimension
 13
129.21703035844703
 23
30.060165263737634
 33
0.0
 14
-0.0
 24
30.0
 34
0.0
 50
0.0
100
AcDbRotatedDimension
1001
ACAD
1000
DSTYLE
1002
{
1070
144
1040
1.0
1070
40
1040
1.0
1002
}
  0
DIMENSION
  5
BA
100
AcDbEntity
  8
0
 62
256
370
-1
 48
1.0
  6
BYLAYER
100
AcDbDimension
 10
120.0
 20
13.850080251611393
 30
0.0
 11
118.125
 21
6.9250401258056966
 31
0.0
 70
0
 71
8
 72
2
 41
1.0
 42
0.0
  1

  3
Standard
100
AcDbAlignedDimension
 13
129.21700000000007
 23
13.850080251611393
 33
0.0
 14
129.21700000000007
 24
0.0
 34
0.0
 50
90.0
100
AcDbRotatedDimension
1001
ACAD
1000
DSTYLE
1002
{
1070
144
1040
1.0
1070
40
1040
1.0
1002
}
  0
DIMENSION
  5
BB
100
AcDbEntity
  8
0
 62
256
370
-1
 48
1.0
  6
BYLAYER
100
AcDbDimension
 10
110.0
 20
30.060165263737634
 30
0.0
 11
108.125
 21
15.030082631868817
 31
0.0
 70
0
 71
8
 72
2
 41
1.0
 42
0.0
  1

  3
Standard
100
AcDbAlignedDimension
 13
129.21703035844703
 23
30.060165263737634
 33
0.0
 14
129.21703035844703
 24
0.0
 34
0.0
 50
90.0
100
AcDbRotatedDimension
1001
ACAD
1000
DSTYLE
1002
{
1070
144
1040
1.0
1070
40
1040
1.0
1002
}
  0
DIMENSION
  5
BC
100
AcDbEntity
  8
0
 62
256
370
-1
 48
1.0
  6
BYLAYER
100
AcDbDimension
 10
295.8829990002032
 20
50.0
 30
0.0
 11
147.9414995001016
 21
51.875
 31
0.0
 70
128
 71
8
 72
2
 41
1.0
 42
0.0
  1

  3
Standard
100
AcDbAlignedDimension
 13
295.8829990002032
 23
30.059972216911138
 33
0.0
 14
0.0
 24
50.0
 34
0.0
 50
0.0
100
AcDbRotatedDimension
1001
ACAD
1000
DSTYLE
1002
{
1070
144
1040
1.0
1070
40
1040
1.0
1002
}
  0
DIMENSION
  5
BD
100
AcDbEntity
  8
0
 62
256
370
-1
 48
1.0
  6
BYLAYER
100
AcDbDimension
 10
325.48305043109116
 20
59.999999999999972
 30
0.0
 11
162.74152521554558
 21
61.874999999999972
 31
0.0
 70
128
 71
8
 72
2
 41
1.0
 42
0.0
  1

  3
Standard
100
AcDbAlignedDimension
 13
325.48305043109116
 23
30.059961025575628
 33
0.0
 14
0.0
 24
60.0
 34
0.0
 50
0.0
100
AcDbRotatedDimension
1001
ACAD
1000
DSTYLE
1002
{
1070
144
1040
1.0
1070
40
1040
1.0
1002
}
  0
DIMENSION
  5
BE
100
AcDbEntity
  8
0
 62
256
370
-1
 48
1.0
  6
BYLAYER
100
AcDbDimension
 10
439.60008480438847
 20
70.0
 30
0.0
 11
219.80004240219424
 21
71.875
 31
0.0
 70
128
 71
8
 72
2
 41
1.0
 42
0.0
  1

  3
Standard
100
AcDbAlignedDimension
 13
439.60008480438847
 23
15.00001473560449
 33
0.0
 14
0.0
 24
70.0
 34
0.0
 50
0.0
100
AcDbRotatedDimension
1001
ACAD
1000
DSTYLE
1002
{
1070
144
1040
1.0
1070
40
1040
1.0
1002
}
  0
DIMENSION
  5
BF
100
AcDbEntity
  8
0
 62
256
370
-1
 48
1.0
  6
BYLAYER
100
AcDbDimension
 10
158.81706372734322
 20
20.0
 30
0.0
 11
79.408531863671612
 21
21.875
 31
0.0
 70
0
 71
8
 72
2
 41
1.0
 42
0.0
  1

  3
Standard
100
AcDbAlignedDimension
 13
158.81706372734322
 23
30.060008318945847
 33
0.0
 14
-0.0
 24
40.0
 34
0.0
 50
0.0
100
AcDbRotatedDimension
1001
ACAD
1000
DSTYLE
1002
{
1070
144
1040
1.0
1070
40
1040
1.0
1002
}
  0
DIMENSION
  5
C0
100
AcDbEntity
  8
0
 62
256
370
-1
 48
1.0
  6
BYLAYER
100
AcDbDimension
 10
240.29978802273666
 20
150.0
 30
0.0
 11
120.14989401136833
 21
151.875
 31
0.0
 70
0
 71
8
 72
2
 41
1.0
 42
0.0
  1

  3
Standard
100
AcDbAlignedDimension
 13
240.29978802273666
 23
133.15003353398362
 33
0.0
 14
-0.0
 24
140.0
 34
0.0
 50
0.0
100
AcDbRotatedDimension
1001
ACAD
1000
DSTYLE
1002
{
1070
144
1040
1.0
1070
40
1040
1.0
1002
}
  0
ENDSEC
  0
SECTION
  2
OBJECTS
  0
DICTIONARY
  5
C
100
AcDbDictionary
280
0
281
1
  3
ACAD_GROUP
350
D
  3
ACAD_LAYOUT
350
1A
  3
ACAD_MLINESTYLE
350
17
  3
ACAD_PLOTSETTINGS
350
19
  3
ACAD_PLOTSTYLENAME
350
E
  3
AcDbVariableDictionary
350
C1
  3
QCAD_OBJECTS
350
C2
  0
DICTIONARY
  5
D
100
AcDbDictionary
280
0
281
1
  0
ACDBDICTIONARYWDFLT
  5
E
100
AcDbDictionary
281
1
  3
Normal
350
F
100
AcDbDictionaryWithDefault
340
F
  0
ACDBPLACEHOLDER
  5
F
  0
DICTIONARY
  5
17
100
AcDbDictionary
280
0
281
1
  3
Standard
350
18
  0
MLINESTYLE
  5
18
100
AcDbMlineStyle
  2
STANDARD
 70
0
  3

 62
256
 51
90.0
 52
90.0
 71
2
 49
0.5
 62
256
  6
BYLAYER
 49
-0.5
 62
256
  6
BYLAYER
  0
DICTIONARY
  5
19
100
AcDbDictionary
280
0
281
1
  0
DICTIONARY
  5
1A
100
AcDbDictionary
281
1
  3
Layout1
350
1E
  3
Layout2
350
26
  3
Model
350
22
  0
LAYOUT
  5
1E
100
AcDbPlotSettings
  1

  2
none_device
  4

  6

 40
0.0
 41
0.0
 42
0.0
 43
0.0
 44
0.0
 45
0.0
 46
0.0
 47
0.0
 48
0.0
 49
0.0
140
0.0
141
0.0
142
1.0
143
1.0
 70
688
 72
0
 73
0
 74
5
  7

 75
16
147
1.0
148
0.0
149
0.0
100
AcDbLayout
  1
Layout1
 70
1
 71
1
 10
0.0
 20
0.0
 11
420.0
 21
297.0
 12
0.0
 22
0.0
 32
0.0
 14
100000000000000000000.0
 24
100000000000000000000.0
 34
100000000000000000000.0
 15
-100000000000000000000.0
 25
-100000000000000000000.0
 35
-100000000000000000000.0
146
0.0
 13
0.0
 23
0.0
 33
0.0
 16
1.0
 26
0.0
 36
0.0
 17
0.0
 27
1.0
 37
0.0
 76
0
330
1B
  0
LAYOUT
  5
22
100
AcDbPlotSettings
  1

  2
none_device
  4

  6

 40
0.0
 41
0.0
 42
0.0
 43
0.0
 44
0.0
 45
0.0
 46
0.0
 47
0.0
 48
0.0
 49
0.0
140
0.0
141
0.0
142
1.0
143
1.0
 70
1712
 72
0
 73
0
 74
0
  7

 75
0
147
1.0
148
0.0
149
0.0
100
AcDbLayout
  1
Model
 70
1
 71
0
 10
0.0
 20
0.0
 11
12.0
 21
9.0
 12
0.0
 22
0.0
 32
0.0
 14
0.0
 24
0.0
 34
0.0
 15
0.0
 25
0.0
 35
0.0
146
0.0
 13
0.0
 23
0.0
 33
0.0
 16
1.0
 26
0.0
 36
0.0
 17
0.0
 27
1.0
 37
0.0
 76
0
330
1F
  0
LAYOUT
  5
26
100
AcDbPlotSettings
  1

  2
none_device
  4

  6

 40
0.0
 41
0.0
 42
0.0
 43
0.0
 44
0.0
 45
0.0
 46
0.0
 47
0.0
 48
0.0
 49
0.0
140
0.0
141
0.0
142
1.0
143
1.0
 70
688
 72
0
 73
0
 74
5
  7

 75
16
147
1.0
148
0.0
149
0.0
100
AcDbLayout
  1
Layout2
 70
1
 71
2
 10
0.0
 20
0.0
 11
12.0
 21
9.0
 12
0.0
 22
0.0
 32
0.0
 14
0.0
 24
0.0
 34
0.0
 15
0.0
 25
0.0
 35
0.0
146
0.0
 13
0.0
 23
0.0
 33
0.0
 16
1.0
 26
0.0
 36
0.0
 17
0.0
 27
1.0
 37
0.0
 76
0
330
23
  0
DICTIONARY
  5
C1
100
AcDbDictionary
281
1
  3
DIMASSOC
350
C4
  3
HIDETEXT
350
C3
  0
DICTIONARYVAR
  5
C3
100
DictionaryVariables
280
0
  1
2
  0
DICTIONARYVAR
  5
C4
100
DictionaryVariables
280
0
  1
1
  0
DICTIONARY
  5
C2
100
AcDbDictionary
281
1
  3
ColorSettings/BackgroundColor
350
C5
  3
ColorSettings/ColorMode
350
C6
  3
DimensionSettings/AngularFormat
350
C7
  3
DimensionSettings/AngularPrecision
350
C8
  3
DimensionSettings/DecimalPoint
350
C9
  3
DimensionSettings/DimensionFont
350
CA
  3
DimensionSettings/KeepProportions
350
CB
  3
DimensionSettings/LinearFormat
350
CC
  3
DimensionSettings/LinearPrecision
350
CD
  3
Grid/DisplayGrid00
350
CE
  3
Grid/DisplayGrid01
350
CF
  3
Grid/DisplayGrid02
350
D0
  3
Grid/DisplayGrid03
350
D1
  3
Grid/GridSpacingX00
350
D2
  3
Grid/GridSpacingX01
350
D3
  3
Grid/GridSpacingX02
350
D4
  3
Grid/GridSpacingX03
350
D5
  3
Grid/GridSpacingY00
350
D6
  3
Grid/GridSpacingY01
350
D7
  3
Grid/GridSpacingY02
350
D8
  3
Grid/GridSpacingY03
350
D9
  3
Grid/IsometricGrid00
350
DA
  3
Grid/IsometricGrid01
350
DB
  3
Grid/IsometricGrid02
350
DC
  3
Grid/IsometricGrid03
350
DD
  3
Grid/IsometricProjection00
350
DE
  3
Grid/IsometricProjection01
350
DF
  3
Grid/IsometricProjection02
350
E0
  3
Grid/IsometricProjection03
350
E1
  3
Grid/MetaGridSpacingX00
350
E2
  3
Grid/MetaGridSpacingX01
350
E3
  3
Grid/MetaGridSpacingX02
350
E4
  3
Grid/MetaGridSpacingX03
350
E5
  3
Grid/MetaGridSpacingY00
350
E6
  3
Grid/MetaGridSpacingY01
350
E7
  3
Grid/MetaGridSpacingY02
350
E8
  3
Grid/MetaGridSpacingY03
350
E9
  3
MultiPageSettings/Columns
350
EA
  3
MultiPageSettings/GlueMarginsBottom
350
EB
  3
MultiPageSettings/GlueMarginsLeft
350
EC
  3
MultiPageSettings/GlueMarginsRight
350
ED
  3
MultiPageSettings/GlueMarginsTop
350
EE
  3
MultiPageSettings/PrintCropMarks
350
EF
  3
MultiPageSettings/Rows
350
F0
  3
PageSettings/OffsetX
350
F1
  3
PageSettings/OffsetY
350
F2
  3
PageSettings/PageOrientation
350
F3
  3
PageSettings/PaperHeight
350
F4
  3
PageSettings/PaperWidth
350
F5
  3
PageSettings/Scale
350
F6
  3
PageSettings/ShowPaperBorders
350
F7
  3
QCADVersion
350
F8
  3
UnitSettings/PaperUnit
350
F9
  3
ViewportCenter
350
FA
  3
ViewportHeight
350
FB
  3
ViewportWidth
350
FC
  0
XRECORD
  5
C5
330
C2
100
AcDbXrecord
280
1
1000
White
  0
XRECORD
  5
C6
330
C2
100
AcDbXrecord
280
1
1000
FullColor
  0
XRECORD
  5
C7
330
C2
100
AcDbXrecord
280
1
 90
0
  0
XRECORD
  5
C8
330
C2
100
AcDbXrecord
280
1
 90
2
  0
XRECORD
  5
C9
330
C2
100
AcDbXrecord
280
1
 90
46
  0
XRECORD
  5
CA
330
C2
100
AcDbXrecord
280
1
1000
MS Shell Dlg 2
  0
XRECORD
  5
CB
330
C2
100
AcDbXrecord
280
1
290
1
  0
XRECORD
  5
CC
330
C2
100
AcDbXrecord
280
1
 90
2
  0
XRECORD
  5
CD
330
C2
100
AcDbXrecord
280
1
 90
2
  0
XRECORD
  5
CE
330
C2
100
AcDbXrecord
280
1
290
1
  0
XRECORD
  5
CF
330
C2
100
AcDbXrecord
280
1
290
1
  0
XRECORD
  5
D0
330
C2
100
AcDbXrecord
280
1
290
1
  0
XRECORD
  5
D1
330
C2
100
AcDbXrecord
280
1
290
1
  0
XRECORD
  5
D2
330
C2
100
AcDbXrecord
280
1
1000
auto
  0
XRECORD
  5
D3
330
C2
100
AcDbXrecord
280
1
1000
auto
  0
XRECORD
  5
D4
330
C2
100
AcDbXrecord
280
1
1000
auto
  0
XRECORD
  5
D5
330
C2
100
AcDbXrecord
280
1
1000
auto
  0
XRECORD
  5
D6
330
C2
100
AcDbXrecord
280
1
1000
auto
  0
XRECORD
  5
D7
330
C2
100
AcDbXrecord
280
1
1000
auto
  0
XRECORD
  5
D8
330
C2
100
AcDbXrecord
280
1
1000
auto
  0
XRECORD
  5
D9
330
C2
100
AcDbXrecord
280
1
1000
auto
  0
XRECORD
  5
DA
330
C2
100
AcDbXrecord
280
1
290
0
  0
XRECORD
  5
DB
330
C2
100
AcDbXrecord
280
1
290
0
  0
XRECORD
  5
DC
330
C2
100
AcDbXrecord
280
1
290
0
  0
XRECORD
  5
DD
330
C2
100
AcDbXrecord
280
1
290
0
  0
XRECORD
  5
DE
330
C2
100
AcDbXrecord
280
1
 90
4097
  0
XRECORD
  5
DF
330
C2
100
AcDbXrecord
280
1
 90
4097
  0
XRECORD
  5
E0
330
C2
100
AcDbXrecord
280
1
 90
4097
  0
XRECORD
  5
E1
330
C2
100
AcDbXrecord
280
1
 90
4097
  0
XRECORD
  5
E2
330
C2
100
AcDbXrecord
280
1
1000
auto
  0
XRECORD
  5
E3
330
C2
100
AcDbXrecord
280
1
1000
auto
  0
XRECORD
  5
E4
330
C2
100
AcDbXrecord
280
1
1000
auto
  0
XRECORD
  5
E5
330
C2
100
AcDbXrecord
280
1
1000
auto
  0
XRECORD
  5
E6
330
C2
100
AcDbXrecord
280
1
1000
auto
  0
XRECORD
  5
E7
330
C2
100
AcDbXrecord
280
1
1000
auto
  0
XRECORD
  5
E8
330
C2
100
AcDbXrecord
280
1
1000
auto
  0
XRECORD
  5
E9
330
C2
100
AcDbXrecord
280
1
1000
auto
  0
XRECORD
  5
EA
330
C2
100
AcDbXrecord
280
1
 90
1
  0
XRECORD
  5
EB
330
C2
100
AcDbXrecord
280
1
 40
10.0
  0
XRECORD
  5
EC
330
C2
100
AcDbXrecord
280
1
 40
10.0
  0
XRECORD
  5
ED
330
C2
100
AcDbXrecord
280
1
 40
10.0
  0
XRECORD
  5
EE
330
C2
100
AcDbXrecord
280
1
 40
10.0
  0
XRECORD
  5
EF
330
C2
100
AcDbXrecord
280
1
290
0
  0
XRECORD
  5
F0
330
C2
100
AcDbXrecord
280
1
 90
1
  0
XRECORD
  5
F1
330
C2
100
AcDbXrecord
280
1
 40
-16.54236453201969
  0
XRECORD
  5
F2
330
C2
100
AcDbXrecord
280
1
 40
-53.763793103448279
  0
XRECORD
  5
F3
330
C2
100
AcDbXrecord
280
1
1000
Landscape
  0
XRECORD
  5
F4
330
C2
100
AcDbXrecord
280
1
 40
297.0
  0
XRECORD
  5
F5
330
C2
100
AcDbXrecord
280
1
 40
210.0
  0
XRECORD
  5
F6
330
C2
100
AcDbXrecord
280
1
1000
0.609
  0
XRECORD
  5
F7
330
C2
100
AcDbXrecord
280
1
290
1
  0
XRECORD
  5
F8
330
C2
100
AcDbXrecord
280
1
1000
3.17.1
  0
XRECORD
  5
F9
330
C2
100
AcDbXrecord
280
1
 90
4
  0
XRECORD
  5
FB
330
C2
100
AcDbXrecord
280
1
 40
305.45055793991412
  0
XRECORD
  5
FC
330
C2
100
AcDbXrecord
280
1
 40
613.34798283261784
  0
ENDSEC
  0
EOF
