<?xml version="1.0" standalone="no"?>
<!DOCTYPE svg PUBLIC "-//W3C//DTD SVG 1.1//EN" "http://www.w3.org/Graphics/SVG/1.1/DTD/svg11.dtd">
<svg width="450" height="235" viewBox="0 -235 450 235" xmlns="http://www.w3.org/2000/svg" version="1.1">
<title>OpenSCAD Model</title>
<path d="
M 450,-235 L 0,-235 L 0,-0 L 450,-0 z
M 14.388,-215.744 L 13.9069,-215.841 L 13.4399,-215.993 L 12.9933,-216.197 L 12.5729,-216.45 L 12.1841,-216.75
 L 11.832,-217.092 L 11.5212,-217.473 L 11.2558,-217.886 L 11.0392,-218.326 L 10.8742,-218.789 L 10.763,-219.267
 L 10.707,-219.755 L 10.707,-220.245 L 10.763,-220.733 L 10.8742,-221.211 L 11.0392,-221.674 L 11.2558,-222.114
 L 11.5212,-222.527 L 11.832,-222.908 L 12.1841,-223.25 L 12.5729,-223.55 L 12.9933,-223.803 L 13.4399,-224.007
 L 13.9069,-224.159 L 14.388,-224.256 L 14.8772,-224.298 L 15.368,-224.284 L 15.8539,-224.214 L 16.3288,-224.09
 L 16.7863,-223.911 L 17.2205,-223.682 L 17.6258,-223.405 L 17.9968,-223.084 L 18.3288,-222.722 L 18.6174,-222.325
 L 18.8588,-221.897 L 19.0499,-221.445 L 19.1882,-220.974 L 19.272,-220.49 L 19.3,-220 L 19.272,-219.51
 L 19.1882,-219.026 L 19.0499,-218.555 L 18.8588,-218.103 L 18.6174,-217.675 L 18.3288,-217.278 L 17.9968,-216.916
 L 17.6258,-216.595 L 17.2205,-216.318 L 16.7863,-216.089 L 16.3288,-215.91 L 15.8539,-215.786 L 15.368,-215.716
 L 14.8772,-215.702 z
M 434.388,-215.744 L 433.907,-215.841 L 433.44,-215.993 L 432.993,-216.197 L 432.573,-216.45 L 432.184,-216.75
 L 431.832,-217.092 L 431.521,-217.473 L 431.256,-217.886 L 431.039,-218.326 L 430.874,-218.789 L 430.763,-219.267
 L 430.707,-219.755 L 430.707,-220.245 L 430.763,-220.733 L 430.874,-221.211 L 431.039,-221.674 L 431.256,-222.114
 L 431.521,-222.527 L 431.832,-222.908 L 432.184,-223.25 L 432.573,-223.55 L 432.993,-223.803 L 433.44,-224.007
 L 433.907,-224.159 L 434.388,-224.256 L 434.877,-224.298 L 435.368,-224.284 L 435.854,-224.214 L 436.329,-224.09
 L 436.786,-223.911 L 437.221,-223.682 L 437.626,-223.405 L 437.997,-223.084 L 438.329,-222.722 L 438.617,-222.325
 L 438.859,-221.897 L 439.05,-221.445 L 439.188,-220.974 L 439.272,-220.49 L 439.3,-220 L 439.272,-219.51
 L 439.188,-219.026 L 439.05,-218.555 L 438.859,-218.103 L 438.617,-217.675 L 438.329,-217.278 L 437.997,-216.916
 L 437.626,-216.595 L 437.221,-216.318 L 436.786,-216.089 L 436.329,-215.91 L 435.854,-215.786 L 435.368,-215.716
 L 434.877,-215.702 z
M 293.342,-219.075 L 292.874,-219.19 L 292.447,-219.414 L 292.086,-219.734 L 291.812,-220.131 L 291.641,-220.581
 L 291.583,-221.06 L 291.641,-221.539 L 291.812,-221.989 L 292.086,-222.386 L 292.447,-222.706 L 292.874,-222.93
 L 293.342,-223.045 L 293.824,-223.045 L 294.293,-222.93 L 294.719,-222.706 L 295.08,-222.386 L 295.354,-221.989
 L 295.525,-221.539 L 295.583,-221.06 L 295.525,-220.581 L 295.354,-220.131 L 295.08,-219.734 L 294.719,-219.414
 L 294.293,-219.19 L 293.824,-219.075 z
M 322.942,-219.075 L 322.474,-219.19 L 322.047,-219.414 L 321.686,-219.734 L 321.412,-220.131 L 321.241,-220.581
 L 321.183,-221.06 L 321.241,-221.539 L 321.412,-221.989 L 321.686,-222.386 L 322.047,-222.706 L 322.474,-222.93
 L 322.942,-223.045 L 323.424,-223.045 L 323.893,-222.93 L 324.319,-222.706 L 324.68,-222.386 L 324.954,-221.989
 L 325.125,-221.539 L 325.183,-221.06 L 325.125,-220.581 L 324.954,-220.131 L 324.68,-219.734 L 324.319,-219.414
 L 323.893,-219.19 L 323.424,-219.075 z
M 156.276,-219.075 L 155.807,-219.19 L 155.381,-219.414 L 155.02,-219.734 L 154.746,-220.131 L 154.575,-220.581
 L 154.517,-221.06 L 154.575,-221.539 L 154.746,-221.989 L 155.02,-222.386 L 155.381,-222.706 L 155.807,-222.93
 L 156.276,-223.045 L 156.758,-223.045 L 157.226,-222.93 L 157.653,-222.706 L 158.014,-222.386 L 158.288,-221.989
 L 158.459,-221.539 L 158.517,-221.06 L 158.459,-220.581 L 158.288,-220.131 L 158.014,-219.734 L 157.653,-219.414
 L 157.226,-219.19 L 156.758,-219.075 z
M 126.676,-219.075 L 126.207,-219.19 L 125.781,-219.414 L 125.42,-219.734 L 125.146,-220.131 L 124.975,-220.581
 L 124.917,-221.06 L 124.975,-221.539 L 125.146,-221.989 L 125.42,-222.386 L 125.781,-222.706 L 126.207,-222.93
 L 126.676,-223.045 L 127.158,-223.045 L 127.626,-222.93 L 128.053,-222.706 L 128.414,-222.386 L 128.688,-221.989
 L 128.859,-221.539 L 128.917,-221.06 L 128.859,-220.581 L 128.688,-220.131 L 128.414,-219.734 L 128.053,-219.414
 L 127.626,-219.19 L 127.158,-219.075 z
M 156.276,-202.865 L 155.807,-202.98 L 155.381,-203.204 L 155.02,-203.524 L 154.746,-203.921 L 154.575,-204.371
 L 154.517,-204.85 L 154.575,-205.329 L 154.746,-205.779 L 155.02,-206.176 L 155.381,-206.496 L 155.807,-206.72
 L 156.276,-206.835 L 156.758,-206.835 L 157.226,-206.72 L 157.653,-206.496 L 158.014,-206.176 L 158.288,-205.779
 L 158.459,-205.329 L 158.517,-204.85 L 158.459,-204.371 L 158.288,-203.921 L 158.014,-203.524 L 157.653,-203.204
 L 157.226,-202.98 L 156.758,-202.865 z
M 293.342,-202.865 L 292.874,-202.98 L 292.447,-203.204 L 292.086,-203.524 L 291.812,-203.921 L 291.641,-204.371
 L 291.583,-204.85 L 291.641,-205.329 L 291.812,-205.779 L 292.086,-206.176 L 292.447,-206.496 L 292.874,-206.72
 L 293.342,-206.835 L 293.824,-206.835 L 294.293,-206.72 L 294.719,-206.496 L 295.08,-206.176 L 295.354,-205.779
 L 295.525,-205.329 L 295.583,-204.85 L 295.525,-204.371 L 295.354,-203.921 L 295.08,-203.524 L 294.719,-203.204
 L 294.293,-202.98 L 293.824,-202.865 z
M 322.942,-202.865 L 322.474,-202.98 L 322.047,-203.204 L 321.686,-203.524 L 321.412,-203.921 L 321.241,-204.371
 L 321.183,-204.85 L 321.241,-205.329 L 321.412,-205.779 L 321.686,-206.176 L 322.047,-206.496 L 322.474,-206.72
 L 322.942,-206.835 L 323.424,-206.835 L 323.893,-206.72 L 324.319,-206.496 L 324.68,-206.176 L 324.954,-205.779
 L 325.125,-205.329 L 325.183,-204.85 L 325.125,-204.371 L 324.954,-203.921 L 324.68,-203.524 L 324.319,-203.204
 L 323.893,-202.98 L 323.424,-202.865 z
M 126.676,-202.865 L 126.207,-202.98 L 125.781,-203.204 L 125.42,-203.524 L 125.146,-203.921 L 124.975,-204.371
 L 124.917,-204.85 L 124.975,-205.329 L 125.146,-205.779 L 125.42,-206.176 L 125.781,-206.496 L 126.207,-206.72
 L 126.676,-206.835 L 127.158,-206.835 L 127.626,-206.72 L 128.053,-206.496 L 128.414,-206.176 L 128.688,-205.779
 L 128.859,-205.329 L 128.917,-204.85 L 128.859,-204.371 L 128.688,-203.921 L 128.414,-203.524 L 128.053,-203.204
 L 127.626,-202.98 L 127.158,-202.865 z
M 237.382,-130.098 L 236.824,-130.382 L 236.382,-130.824 L 236.098,-131.382 L 236,-132 L 236.098,-132.618
 L 236.382,-133.176 L 236.824,-133.618 L 237.382,-133.902 L 238,-134 L 238.618,-133.902 L 239.176,-133.618
 L 239.618,-133.176 L 239.902,-132.618 L 240,-132 L 239.902,-131.382 L 239.618,-130.824 L 239.176,-130.382
 L 238.618,-130.098 L 238,-130 z
M 211.382,-130.098 L 210.824,-130.382 L 210.382,-130.824 L 210.098,-131.382 L 210,-132 L 210.098,-132.618
 L 210.382,-133.176 L 210.824,-133.618 L 211.382,-133.902 L 212,-134 L 212.618,-133.902 L 213.176,-133.618
 L 213.618,-133.176 L 213.902,-132.618 L 214,-132 L 213.902,-131.382 L 213.618,-130.824 L 213.176,-130.382
 L 212.618,-130.098 L 212,-130 z
M 237.382,-101.098 L 236.824,-101.382 L 236.382,-101.824 L 236.098,-102.382 L 236,-103 L 236.098,-103.618
 L 236.382,-104.176 L 236.824,-104.618 L 237.382,-104.902 L 238,-105 L 238.618,-104.902 L 239.176,-104.618
 L 239.618,-104.176 L 239.902,-103.618 L 240,-103 L 239.902,-102.382 L 239.618,-101.824 L 239.176,-101.382
 L 238.618,-101.098 L 238,-101 z
M 211.382,-101.098 L 210.824,-101.382 L 210.382,-101.824 L 210.098,-102.382 L 210,-103 L 210.098,-103.618
 L 210.382,-104.176 L 210.824,-104.618 L 211.382,-104.902 L 212,-105 L 212.618,-104.902 L 213.176,-104.618
 L 213.618,-104.176 L 213.902,-103.618 L 214,-103 L 213.902,-102.382 L 213.618,-101.824 L 213.176,-101.382
 L 212.618,-101.098 L 212,-101 z
M 156.276,-28.0746 L 155.807,-28.19 L 155.381,-28.414 L 155.02,-28.7337 L 154.746,-29.1306 L 154.575,-29.5814
 L 154.517,-30.06 L 154.575,-30.5386 L 154.746,-30.9894 L 155.02,-31.3862 L 155.381,-31.706 L 155.807,-31.93
 L 156.276,-32.0454 L 156.758,-32.0454 L 157.226,-31.93 L 157.653,-31.706 L 158.014,-31.3862 L 158.288,-30.9894
 L 158.459,-30.5386 L 158.517,-30.06 L 158.459,-29.5814 L 158.288,-29.1306 L 158.014,-28.7337 L 157.653,-28.414
 L 157.226,-28.19 L 156.758,-28.0746 z
M 322.942,-28.0746 L 322.474,-28.19 L 322.047,-28.414 L 321.686,-28.7337 L 321.412,-29.1306 L 321.241,-29.5814
 L 321.183,-30.06 L 321.241,-30.5386 L 321.412,-30.9894 L 321.686,-31.3862 L 322.047,-31.706 L 322.474,-31.93
 L 322.942,-32.0454 L 323.424,-32.0454 L 323.893,-31.93 L 324.319,-31.706 L 324.68,-31.3862 L 324.954,-30.9894
 L 325.125,-30.5386 L 325.183,-30.06 L 325.125,-29.5814 L 324.954,-29.1306 L 324.68,-28.7337 L 324.319,-28.414
 L 323.893,-28.19 L 323.424,-28.0746 z
M 293.342,-28.0746 L 292.874,-28.19 L 292.447,-28.414 L 292.086,-28.7337 L 291.812,-29.1306 L 291.641,-29.5814
 L 291.583,-30.06 L 291.641,-30.5386 L 291.812,-30.9894 L 292.086,-31.3862 L 292.447,-31.706 L 292.874,-31.93
 L 293.342,-32.0454 L 293.824,-32.0454 L 294.293,-31.93 L 294.719,-31.706 L 295.08,-31.3862 L 295.354,-30.9894
 L 295.525,-30.5386 L 295.583,-30.06 L 295.525,-29.5814 L 295.354,-29.1306 L 295.08,-28.7337 L 294.719,-28.414
 L 294.293,-28.19 L 293.824,-28.0746 z
M 126.676,-28.0746 L 126.207,-28.19 L 125.781,-28.414 L 125.42,-28.7337 L 125.146,-29.1306 L 124.975,-29.5814
 L 124.917,-30.06 L 124.975,-30.5386 L 125.146,-30.9894 L 125.42,-31.3862 L 125.781,-31.706 L 126.207,-31.93
 L 126.676,-32.0454 L 127.158,-32.0454 L 127.626,-31.93 L 128.053,-31.706 L 128.414,-31.3862 L 128.688,-30.9894
 L 128.859,-30.5386 L 128.917,-30.06 L 128.859,-29.5814 L 128.688,-29.1306 L 128.414,-28.7337 L 128.053,-28.414
 L 127.626,-28.19 L 127.158,-28.0746 z
M 14.388,-10.7438 L 13.9069,-10.8413 L 13.4399,-10.993 L 12.9933,-11.1969 L 12.5729,-11.4505 L 12.1841,-11.7503
 L 11.832,-12.0924 L 11.5212,-12.4725 L 11.2558,-12.8855 L 11.0392,-13.3261 L 10.8742,-13.7885 L 10.763,-14.2668
 L 10.707,-14.7545 L 10.707,-15.2455 L 10.763,-15.7332 L 10.8742,-16.2114 L 11.0392,-16.6739 L 11.2558,-17.1144
 L 11.5212,-17.5275 L 11.832,-17.9075 L 12.1841,-18.2497 L 12.5729,-18.5495 L 12.9933,-18.8031 L 13.4399,-19.007
 L 13.9069,-19.1587 L 14.388,-19.2562 L 14.8772,-19.2982 L 15.368,-19.2842 L 15.8539,-19.2144 L 16.3288,-19.0895
 L 16.7863,-18.9114 L 17.2205,-18.6823 L 17.6258,-18.4052 L 17.9968,-18.0837 L 18.3288,-17.722 L 18.6174,-17.3248
 L 18.8588,-16.8972 L 19.0499,-16.445 L 19.1882,-15.9739 L 19.272,-15.4902 L 19.3,-15 L 19.272,-14.5098
 L 19.1882,-14.0261 L 19.0499,-13.555 L 18.8588,-13.1027 L 18.6174,-12.6752 L 18.3288,-12.278 L 17.9968,-11.9163
 L 17.6258,-11.5948 L 17.2205,-11.3177 L 16.7863,-11.0886 L 16.3288,-10.9104 L 15.8539,-10.7856 L 15.368,-10.7158
 L 14.8772,-10.7018 z
M 434.388,-10.7438 L 433.907,-10.8413 L 433.44,-10.993 L 432.993,-11.1969 L 432.573,-11.4505 L 432.184,-11.7503
 L 431.832,-12.0924 L 431.521,-12.4725 L 431.256,-12.8855 L 431.039,-13.3261 L 430.874,-13.7885 L 430.763,-14.2668
 L 430.707,-14.7545 L 430.707,-15.2455 L 430.763,-15.7332 L 430.874,-16.2114 L 431.039,-16.6739 L 431.256,-17.1144
 L 431.521,-17.5275 L 431.832,-17.9075 L 432.184,-18.2497 L 432.573,-18.5495 L 432.993,-18.8031 L 433.44,-19.007
 L 433.907,-19.1587 L 434.388,-19.2562 L 434.877,-19.2982 L 435.368,-19.2842 L 435.854,-19.2144 L 436.329,-19.0895
 L 436.786,-18.9114 L 437.221,-18.6823 L 437.626,-18.4052 L 437.997,-18.0837 L 438.329,-17.722 L 438.617,-17.3248
 L 438.859,-16.8972 L 439.05,-16.445 L 439.188,-15.9739 L 439.272,-15.4902 L 439.3,-15 L 439.272,-14.5098
 L 439.188,-14.0261 L 439.05,-13.555 L 438.859,-13.1027 L 438.617,-12.6752 L 438.329,-12.278 L 437.997,-11.9163
 L 437.626,-11.5948 L 437.221,-11.3177 L 436.786,-11.0886 L 436.329,-10.9104 L 435.854,-10.7856 L 435.368,-10.7158
 L 434.877,-10.7018 z
M 322.942,-11.8646 L 322.474,-11.98 L 322.047,-12.204 L 321.686,-12.5237 L 321.412,-12.9205 L 321.241,-13.3714
 L 321.183,-13.85 L 321.241,-14.3286 L 321.412,-14.7794 L 321.686,-15.1762 L 322.047,-15.496 L 322.474,-15.72
 L 322.942,-15.8354 L 323.424,-15.8354 L 323.893,-15.72 L 324.319,-15.496 L 324.68,-15.1762 L 324.954,-14.7794
 L 325.125,-14.3286 L 325.183,-13.85 L 325.125,-13.3714 L 324.954,-12.9205 L 324.68,-12.5237 L 324.319,-12.204
 L 323.893,-11.98 L 323.424,-11.8646 z
M 126.676,-11.8646 L 126.207,-11.98 L 125.781,-12.204 L 125.42,-12.5237 L 125.146,-12.9205 L 124.975,-13.3714
 L 124.917,-13.85 L 124.975,-14.3286 L 125.146,-14.7794 L 125.42,-15.1762 L 125.781,-15.496 L 126.207,-15.72
 L 126.676,-15.8354 L 127.158,-15.8354 L 127.626,-15.72 L 128.053,-15.496 L 128.414,-15.1762 L 128.688,-14.7794
 L 128.859,-14.3286 L 128.917,-13.85 L 128.859,-13.3714 L 128.688,-12.9205 L 128.414,-12.5237 L 128.053,-12.204
 L 127.626,-11.98 L 127.158,-11.8646 z
M 293.342,-11.8646 L 292.874,-11.98 L 292.447,-12.204 L 292.086,-12.5237 L 291.812,-12.9205 L 291.641,-13.3714
 L 291.583,-13.85 L 291.641,-14.3286 L 291.812,-14.7794 L 292.086,-15.1762 L 292.447,-15.496 L 292.874,-15.72
 L 293.342,-15.8354 L 293.824,-15.8354 L 294.293,-15.72 L 294.719,-15.496 L 295.08,-15.1762 L 295.354,-14.7794
 L 295.525,-14.3286 L 295.583,-13.85 L 295.525,-13.3714 L 295.354,-12.9205 L 295.08,-12.5237 L 294.719,-12.204
 L 294.293,-11.98 L 293.824,-11.8646 z
M 156.276,-11.8646 L 155.807,-11.98 L 155.381,-12.204 L 155.02,-12.5237 L 154.746,-12.9205 L 154.575,-13.3714
 L 154.517,-13.85 L 154.575,-14.3286 L 154.746,-14.7794 L 155.02,-15.1762 L 155.381,-15.496 L 155.807,-15.72
 L 156.276,-15.8354 L 156.758,-15.8354 L 157.226,-15.72 L 157.653,-15.496 L 158.014,-15.1762 L 158.288,-14.7794
 L 158.459,-14.3286 L 158.517,-13.85 L 158.459,-13.3714 L 158.288,-12.9205 L 158.014,-12.5237 L 157.653,-12.204
 L 157.226,-11.98 L 156.758,-11.8646 z
" stroke="black" fill="lightgray" stroke-width="0.5"/></svg>
