999
dxflib 3.12.2.0
  0
SECTION
  2
HEADER
  9
$ACADVER
  1
AC1015
  9
$HANDSEED
  5
FFFF
  9
$DIMADEC
 70
2
  9
$DIMASZ
 40
5
  9
$DIMAUNIT
 70
0
  9
$DIMAZIN
 70
0
  9
$DIMDEC
 70
2
  9
$DIMEXE
 40
2.5
  9
$DIMEXO
 40
1.25
  9
$DIMGAP
 40
1.25
  9
$DIMLUNIT
 70
2
  9
$DIMSCALE
 40
1.0
  9
$DIMTSZ
 40
0.0
  9
$DIMTXT
 40
5
  9
$DIMZIN
 70
0
  9
$DWGCODEPAGE
  3
ANSI_1252
  9
$INSUNITS
 70
0
  9
$LTSCALE
 40
1.0
  9
$MEASUREMENT
 70
1
  9
$PDMODE
 70
0
  9
$PDSIZE
 40
0
  0
ENDSEC
  0
SECTION
  2
TABLES
  0
TABLE
  2
VPORT
  5
8
100
AcDbSymbolTable
 70
1
  0
VPORT
  5
30
100
AcDbSymbolTableRecord
100
AcDbViewportTableRecord
  2
*Active
 70
0
 10
0.0
 20
0.0
 11
1.0
 21
1.0
 12
286.30555555555549
 22
148.5
 13
0.0
 23
0.0
 14
10.0
 24
10.0
 15
10.0
 25
10.0
 16
0.0
 26
0.0
 36
1.0
 17
0.0
 27
0.0
 37
0.0
 40
297.0
 41
1.92798353909465
 42
50.0
 43
0.0
 44
0.0
 50
0.0
 51
0.0
 71
0
 72
100
 73
1
 74
3
 75
1
 76
1
 77
0
 78
0
281
0
 65
1
110
0.0
120
0.0
130
0.0
111
1.0
121
0.0
131
0.0
112
0.0
122
1.0
132
0.0
 79
0
146
0.0
  0
ENDTAB
  0
TABLE
  2
LTYPE
  5
5
100
AcDbSymbolTable
 70
41
  0
LTYPE
  5
16
100
AcDbSymbolTableRecord
100
AcDbLinetypeTableRecord
  2
Continuous
 70
0
  3
Solid line
 72
65
 73
0
 40
0.0
  0
LTYPE
  5
31
100
AcDbSymbolTableRecord
100
AcDbLinetypeTableRecord
  2
CENTER
 70
0
  3
Center ____ _ ____ _ ____ _ ____ _ ____ _ ____
 72
65
 73
4
 40
50.800000000000004
 49
31.75
 74
0
 49
-6.3499999999999996
 74
0
 49
6.3499999999999996
 74
0
 49
-6.3499999999999996
 74
0
  0
LTYPE
  5
32
100
AcDbSymbolTableRecord
100
AcDbLinetypeTableRecord
  2
DIVIDEX2
 70
0
  3
Divide (2x) ________  .  .  ________  .  .  _
 72
65
 73
6
 40
63.5
 49
25.399999999999999
 74
0
 49
-12.699999999999999
 74
0
 49
0.0
 74
0
 49
-12.699999999999999
 74
0
 49
0.0
 74
0
 49
-12.699999999999999
 74
0
  0
LTYPE
  5
33
100
AcDbSymbolTableRecord
100
AcDbLinetypeTableRecord
  2
ACAD_ISO07W100
 70
0
  3
ISO dot . . . . . . . . . . . . . . . . . . . . 
 72
65
 73
2
 40
3.0
 49
0.0
 74
0
 49
-3.0
 74
0
  0
LTYPE
  5
34
100
AcDbSymbolTableRecord
100
AcDbLinetypeTableRecord
  2
PHANTOMX2
 70
0
  3
Phantom (2x) ____________    ____    ____   _
 72
65
 73
6
 40
127.00000000000001
 49
63.5
 74
0
 49
-12.699999999999999
 74
0
 49
12.699999999999999
 74
0
 49
-12.699999999999999
 74
0
 49
12.699999999999999
 74
0
 49
-12.699999999999999
 74
0
  0
LTYPE
  5
14
100
AcDbSymbolTableRecord
100
AcDbLinetypeTableRecord
  2
BYBLOCK
 70
0
  3

 72
65
 73
0
 40
0.0
  0
LTYPE
  5
35
100
AcDbSymbolTableRecord
100
AcDbLinetypeTableRecord
  2
DASHED2
 70
0
  3
Dashed (.5x) _ _ _ _ _ _ _ _ _ _ _ _ _ _ _ _ _ 
 72
65
 73
2
 40
9.5249999999999986
 49
6.3499999999999996
 74
0
 49
-3.1749999999999998
 74
0
  0
LTYPE
  5
36
100
AcDbSymbolTableRecord
100
AcDbLinetypeTableRecord
  2
ACAD_ISO15W100
 70
0
  3
ISO double-dash triple-dot __ __ . . . __ __ . .
 72
65
 73
10
 40
39.0
 49
12.0
 74
0
 49
-3.0
 74
0
 49
12.0
 74
0
 49
-3.0
 74
0
 49
0.0
 74
0
 49
-3.0
 74
0
 49
0.0
 74
0
 49
-3.0
 74
0
 49
0.0
 74
0
 49
-3.0
 74
0
  0
LTYPE
  5
37
100
AcDbSymbolTableRecord
100
AcDbLinetypeTableRecord
  2
HIDDEN2
 70
0
  3
Hidden (.5x) _ _ _ _ _ _ _ _ _ _ _ _ _ _ _ _ _ 
 72
65
 73
2
 40
4.7624999999999993
 49
3.1749999999999998
 74
0
 49
-1.5874999999999999
 74
0
  0
LTYPE
  5
38
100
AcDbSymbolTableRecord
100
AcDbLinetypeTableRecord
  2
ACAD_ISO03W100
 70
0
  3
ISO dash space __    __    __    __    __    __
 72
65
 73
2
 40
30.0
 49
12.0
 74
0
 49
-18.0
 74
0
  0
LTYPE
  5
39
100
AcDbSymbolTableRecord
100
AcDbLinetypeTableRecord
  2
ACAD_ISO06W100
 70
0
  3
ISO long-dash triple-dot ____ ... ____ ... ____
 72
65
 73
8
 40
36.0
 49
24.0
 74
0
 49
-3.0
 74
0
 49
0.0
 74
0
 49
-3.0
 74
0
 49
0.0
 74
0
 49
-3.0
 74
0
 49
0.0
 74
0
 49
-3.0
 74
0
  0
LTYPE
  5
3A
100
AcDbSymbolTableRecord
100
AcDbLinetypeTableRecord
  2
ACAD_ISO04W100
 70
0
  3
ISO long-dash dot ____ . ____ . ____ . ____ . _
 72
65
 73
4
 40
30.0
 49
24.0
 74
0
 49
-3.0
 74
0
 49
0.0
 74
0
 49
-3.0
 74
0
  0
LTYPE
  5
15
100
AcDbSymbolTableRecord
100
AcDbLinetypeTableRecord
  2
BYLAYER
 70
0
  3

 72
65
 73
0
 40
0.0
  0
LTYPE
  5
3B
100
AcDbSymbolTableRecord
100
AcDbLinetypeTableRecord
  2
ACAD_ISO05W100
 70
0
  3
ISO long-dash double-dot ____ .. ____ .. ____ . 
 72
65
 73
6
 40
33.0
 49
24.0
 74
0
 49
-3.0
 74
0
 49
0.0
 74
0
 49
-3.0
 74
0
 49
0.0
 74
0
 49
-3.0
 74
0
  0
LTYPE
  5
3C
100
AcDbSymbolTableRecord
100
AcDbLinetypeTableRecord
  2
ACAD_ISO10W100
 70
0
  3
ISO dash dot __ . __ . __ . __ . __ . __ . __ . 
 72
65
 73
4
 40
18.0
 49
12.0
 74
0
 49
-3.0
 74
0
 49
0.0
 74
0
 49
-3.0
 74
0
  0
LTYPE
  5
3D
100
AcDbSymbolTableRecord
100
AcDbLinetypeTableRecord
  2
ACAD_ISO14W100
 70
0
  3
ISO dash triple-dot __ . . . __ . . . __ . . . _
 72
65
 73
8
 40
24.0
 49
12.0
 74
0
 49
-3.0
 74
0
 49
0.0
 74
0
 49
-3.0
 74
0
 49
0.0
 74
0
 49
-3.0
 74
0
 49
0.0
 74
0
 49
-3.0
 74
0
  0
LTYPE
  5
3E
100
AcDbSymbolTableRecord
100
AcDbLinetypeTableRecord
  2
ACAD_ISO08W100
 70
0
  3
ISO long-dash short-dash ____ __ ____ __ ____ _
 72
65
 73
4
 40
36.0
 49
24.0
 74
0
 49
-3.0
 74
0
 49
6.0
 74
0
 49
-3.0
 74
0
  0
LTYPE
  5
3F
100
AcDbSymbolTableRecord
100
AcDbLinetypeTableRecord
  2
HIDDENX2
 70
0
  3
Hidden (2x) ____ ____ ____ ____ ____ ____ ____ 
 72
65
 73
2
 40
19.049999999999997
 49
12.699999999999999
 74
0
 49
-6.3499999999999996
 74
0
  0
LTYPE
  5
40
100
AcDbSymbolTableRecord
100
AcDbLinetypeTableRecord
  2
DOTX2
 70
0
  3
Dot (2x) .  .  .  .  .  .  .  .  .  .  .  .  .  .
 72
65
 73
2
 40
12.699999999999999
 49
0.0
 74
0
 49
-12.699999999999999
 74
0
  0
LTYPE
  5
41
100
AcDbSymbolTableRecord
100
AcDbLinetypeTableRecord
  2
BORDER
 70
0
  3
Border __ __ . __ __ . __ __ . __ __ . __ __ .
 72
65
 73
6
 40
44.449999999999996
 49
12.699999999999999
 74
0
 49
-6.3499999999999996
 74
0
 49
12.699999999999999
 74
0
 49
-6.3499999999999996
 74
0
 49
0.0
 74
0
 49
-6.3499999999999996
 74
0
  0
LTYPE
  5
42
100
AcDbSymbolTableRecord
100
AcDbLinetypeTableRecord
  2
BORDER2
 70
0
  3
Border (.5x) __.__.__.__.__.__.__.__.__.__.__.
 72
65
 73
6
 40
22.224999999999998
 49
6.3499999999999996
 74
0
 49
-3.1749999999999998
 74
0
 49
6.3499999999999996
 74
0
 49
-3.1749999999999998
 74
0
 49
0.0
 74
0
 49
-3.1749999999999998
 74
0
  0
LTYPE
  5
43
100
AcDbSymbolTableRecord
100
AcDbLinetypeTableRecord
  2
ACAD_ISO02W100
 70
0
  3
ISO dash __ __ __ __ __ __ __ __ __ __ __ __ __
 72
65
 73
2
 40
15.0
 49
12.0
 74
0
 49
-3.0
 74
0
  0
LTYPE
  5
44
100
AcDbSymbolTableRecord
100
AcDbLinetypeTableRecord
  2
DASHED
 70
0
  3
Dashed __ __ __ __ __ __ __ __ __ __ __ __ __ _
 72
65
 73
2
 40
19.049999999999997
 49
12.699999999999999
 74
0
 49
-6.3499999999999996
 74
0
  0
LTYPE
  5
45
100
AcDbSymbolTableRecord
100
AcDbLinetypeTableRecord
  2
PHANTOM2
 70
0
  3
Phantom (.5x) ___ _ _ ___ _ _ ___ _ _ ___ _ _
 72
65
 73
6
 40
31.750000000000004
 49
15.875
 74
0
 49
-3.1749999999999998
 74
0
 49
3.1749999999999998
 74
0
 49
-3.1749999999999998
 74
0
 49
3.1749999999999998
 74
0
 49
-3.1749999999999998
 74
0
  0
LTYPE
  5
46
100
AcDbSymbolTableRecord
100
AcDbLinetypeTableRecord
  2
DOT2
 70
0
  3
Dot (.5x) ........................................
 72
65
 73
2
 40
3.1749999999999998
 49
0.0
 74
0
 49
-3.1749999999999998
 74
0
  0
LTYPE
  5
47
100
AcDbSymbolTableRecord
100
AcDbLinetypeTableRecord
  2
PHANTOM
 70
0
  3
Phantom ______  __  __  ______  __  __  ______ 
 72
65
 73
6
 40
63.500000000000007
 49
31.75
 74
0
 49
-6.3499999999999996
 74
0
 49
6.3499999999999996
 74
0
 49
-6.3499999999999996
 74
0
 49
6.3499999999999996
 74
0
 49
-6.3499999999999996
 74
0
  0
LTYPE
  5
48
100
AcDbSymbolTableRecord
100
AcDbLinetypeTableRecord
  2
ACAD_ISO11W100
 70
0
  3
ISO double-dash dot __ __ . __ __ . __ __ . __ _
 72
65
 73
6
 40
33.0
 49
12.0
 74
0
 49
-3.0
 74
0
 49
12.0
 74
0
 49
-3.0
 74
0
 49
0.0
 74
0
 49
-3.0
 74
0
  0
LTYPE
  5
49
100
AcDbSymbolTableRecord
100
AcDbLinetypeTableRecord
  2
BORDERX2
 70
0
  3
Border (2x) ____  ____  .  ____  ____  .  ___
 72
65
 73
6
 40
88.899999999999991
 49
25.399999999999999
 74
0
 49
-12.699999999999999
 74
0
 49
25.399999999999999
 74
0
 49
-12.699999999999999
 74
0
 49
0.0
 74
0
 49
-12.699999999999999
 74
0
  0
LTYPE
  5
4A
100
AcDbSymbolTableRecord
100
AcDbLinetypeTableRecord
  2
DIVIDE2
 70
0
  3
Divide (.5x) __..__..__..__..__..__..__..__.._
 72
65
 73
6
 40
15.875
 49
6.3499999999999996
 74
0
 49
-3.1749999999999998
 74
0
 49
0.0
 74
0
 49
-3.1749999999999998
 74
0
 49
0.0
 74
0
 49
-3.1749999999999998
 74
0
  0
LTYPE
  5
4B
100
AcDbSymbolTableRecord
100
AcDbLinetypeTableRecord
  2
DOT
 70
0
  3
Dot . . . . . . . . . . . . . . . . . . . . . . . .
 72
65
 73
2
 40
6.3499999999999996
 49
0.0
 74
0
 49
-6.3499999999999996
 74
0
  0
LTYPE
  5
4C
100
AcDbSymbolTableRecord
100
AcDbLinetypeTableRecord
  2
CENTERX2
 70
0
  3
Center (2x) ________  __  ________  __  _____
 72
65
 73
4
 40
101.60000000000001
 49
63.5
 74
0
 49
-12.699999999999999
 74
0
 49
12.699999999999999
 74
0
 49
-12.699999999999999
 74
0
  0
LTYPE
  5
4D
100
AcDbSymbolTableRecord
100
AcDbLinetypeTableRecord
  2
ACAD_ISO13W100
 70
0
  3
ISO double-dash double-dot __ __ . . __ __ . . _
 72
65
 73
8
 40
36.0
 49
12.0
 74
0
 49
-3.0
 74
0
 49
12.0
 74
0
 49
-3.0
 74
0
 49
0.0
 74
0
 49
-3.0
 74
0
 49
0.0
 74
0
 49
-3.0
 74
0
  0
LTYPE
  5
4E
100
AcDbSymbolTableRecord
100
AcDbLinetypeTableRecord
  2
DASHDOT
 70
0
  3
Dash dot __ . __ . __ . __ . __ . __ . __ . __
 72
65
 73
4
 40
25.399999999999999
 49
12.699999999999999
 74
0
 49
-6.3499999999999996
 74
0
 49
0.0
 74
0
 49
-6.3499999999999996
 74
0
  0
LTYPE
  5
4F
100
AcDbSymbolTableRecord
100
AcDbLinetypeTableRecord
  2
CENTER2
 70
0
  3
Center (.5x) ___ _ ___ _ ___ _ ___ _ ___ _ ___
 72
65
 73
4
 40
28.575000000000003
 49
19.050000000000001
 74
0
 49
-3.1749999999999998
 74
0
 49
3.1749999999999998
 74
0
 49
-3.1749999999999998
 74
0
  0
LTYPE
  5
50
100
AcDbSymbolTableRecord
100
AcDbLinetypeTableRecord
  2
ACAD_ISO09W100
 70
0
  3
ISO long-dash double-short-dash ____ __ __ ____
 72
65
 73
6
 40
45.0
 49
24.0
 74
0
 49
-3.0
 74
0
 49
6.0
 74
0
 49
-3.0
 74
0
 49
6.0
 74
0
 49
-3.0
 74
0
  0
LTYPE
  5
51
100
AcDbSymbolTableRecord
100
AcDbLinetypeTableRecord
  2
DASHEDX2
 70
0
  3
Dashed (2x) ____  ____  ____  ____  ____  ___
 72
65
 73
2
 40
38.099999999999994
 49
25.399999999999999
 74
0
 49
-12.699999999999999
 74
0
  0
LTYPE
  5
52
100
AcDbSymbolTableRecord
100
AcDbLinetypeTableRecord
  2
ACAD_ISO12W100
 70
0
  3
ISO dash double-dot __ . . __ . . __ . . __ . . 
 72
65
 73
6
 40
21.0
 49
12.0
 74
0
 49
-3.0
 74
0
 49
0.0
 74
0
 49
-3.0
 74
0
 49
0.0
 74
0
 49
-3.0
 74
0
  0
LTYPE
  5
53
100
AcDbSymbolTableRecord
100
AcDbLinetypeTableRecord
  2
DASHDOT2
 70
0
  3
Dash dot (.5x) _._._._._._._._._._._._._._._.
 72
65
 73
4
 40
12.699999999999999
 49
6.3499999999999996
 74
0
 49
-3.1749999999999998
 74
0
 49
0.0
 74
0
 49
-3.1749999999999998
 74
0
  0
LTYPE
  5
54
100
AcDbSymbolTableRecord
100
AcDbLinetypeTableRecord
  2
DASHDOTX2
 70
0
  3
Dash dot (2x) ____  .  ____  .  ____  .  ___
 72
65
 73
4
 40
50.799999999999997
 49
25.399999999999999
 74
0
 49
-12.699999999999999
 74
0
 49
0.0
 74
0
 49
-12.699999999999999
 74
0
  0
LTYPE
  5
55
100
AcDbSymbolTableRecord
100
AcDbLinetypeTableRecord
  2
HIDDEN
 70
0
  3
Hidden __ __ __ __ __ __ __ __ __ __ __ __ __ __
 72
65
 73
2
 40
9.5249999999999986
 49
6.3499999999999996
 74
0
 49
-3.1749999999999998
 74
0
  0
LTYPE
  5
56
100
AcDbSymbolTableRecord
100
AcDbLinetypeTableRecord
  2
DIVIDE
 70
0
  3
Divide ____ . . ____ . . ____ . . ____ . . ____
 72
65
 73
6
 40
31.75
 49
12.699999999999999
 74
0
 49
-6.3499999999999996
 74
0
 49
0.0
 74
0
 49
-6.3499999999999996
 74
0
 49
0.0
 74
0
 49
-6.3499999999999996
 74
0
  0
ENDTAB
  0
TABLE
  2
LAYER
  5
2
100
AcDbSymbolTable
 70
2
  0
LAYER
  5
10
100
AcDbSymbolTableRecord
100
AcDbLayerTableRecord
  2
0
 70
0
 62
7
420
16777215
  6
Continuous
370
25
390
F
  0
LAYER
  5
57
100
AcDbSymbolTableRecord
100
AcDbLayerTableRecord
  2
Holes
 70
0
 62
7
420
0
  6
Continuous
370
25
390
F
  0
ENDTAB
  0
TABLE
  2
STYLE
  5
3
100
AcDbSymbolTable
 70
1
  0
STYLE
  5
58
100
AcDbSymbolTableRecord
100
AcDbTextStyleTableRecord
  2
Standard
 70
0
 40
0.0
 41
1.0
 50
0.0
 71
0
 42
2.5
  3

  4

1001
ACAD
1000
txt
1071
0
  0
ENDTAB
  0
TABLE
  2
VIEW
  5
6
100
AcDbSymbolTable
 70
0
  0
ENDTAB
  0
TABLE
  2
UCS
  5
7
100
AcDbSymbolTable
 70
0
  0
ENDTAB
  0
TABLE
  2
APPID
  5
9
100
AcDbSymbolTable
 70
1
  0
APPID
  5
12
100
AcDbSymbolTableRecord
100
AcDbRegAppTableRecord
  2
ACAD
 70
0
  0
APPID
  5
59
100
AcDbSymbolTableRecord
100
AcDbRegAppTableRecord
  2
QCAD
 70
0
  0
ENDTAB
  0
TABLE
  2
DIMSTYLE
  5
A
100
AcDbSymbolTable
 70
1
100
AcDbDimStyleTable
 71
0
  0
DIMSTYLE
105
27
100
AcDbSymbolTableRecord
100
AcDbDimStyleTableRecord
  2
Standard
 41
5.0
 42
1.25
 43
3.75
 44
2.5
 70
0
 73
0
 74
0
 77
1
 78
8
140
5.0
141
2.5
143
0.03937007874016
147
1.25
171
3
172
1
271
2
272
2
274
3
278
44
283
0
284
8
340
58
  0
ENDTAB
  0
TABLE
  2
BLOCK_RECORD
  5
1
100
AcDbSymbolTable
 70
1
  0
BLOCK_RECORD
  5
1F
100
AcDbSymbolTableRecord
100
AcDbBlockTableRecord
  2
*Model_Space
340
22
  0
BLOCK_RECORD
  5
1B
100
AcDbSymbolTableRecord
100
AcDbBlockTableRecord
  2
*Paper_Space
340
1E
  0
BLOCK_RECORD
  5
23
100
AcDbSymbolTableRecord
100
AcDbBlockTableRecord
  2
*Paper_Space0
340
26
  0
ENDTAB
  0
ENDSEC
  0
SECTION
  2
BLOCKS
  0
BLOCK
  5
20
100
AcDbEntity
  8
0
100
AcDbBlockBegin
  2
*Model_Space
 70
0
 10
0.0
 20
0.0
 30
0.0
  3
*Model_Space
  1

  0
ENDBLK
  5
21
100
AcDbEntity
  8
0
100
AcDbBlockEnd
  0
BLOCK
  5
1C
100
AcDbEntity
 67
1
  8
0
100
AcDbBlockBegin
  2
*Paper_Space
 70
0
 10
0.0
 20
0.0
 30
0.0
  3
*Paper_Space
  1

  0
ENDBLK
  5
1D
100
AcDbEntity
 67
1
  8
0
100
AcDbBlockEnd
  0
BLOCK
  5
24
100
AcDbEntity
  8
0
100
AcDbBlockBegin
  2
*Paper_Space0
 70
0
 10
0.0
 20
0.0
 30
0.0
  3
*Paper_Space0
  1

  0
ENDBLK
  5
25
100
AcDbEntity
  8
0
100
AcDbBlockEnd
  0
ENDSEC
  0
SECTION
  2
ENTITIES
  0
LINE
  5
5A
100
AcDbEntity
100
AcDbLine
  8
0
 62
256
370
-1
 48
1.0
  6
BYLAYER
 10
450.0
 20
235.0
 30
0.0
 11
0.0
 21
235.0
 31
0.0
  0
LINE
  5
5B
100
AcDbEntity
100
AcDbLine
  8
0
 62
256
370
-1
 48
1.0
  6
BYLAYER
 10
0.0
 20
235.0
 30
0.0
 11
0.0
 21
0.0
 31
0.0
  0
LINE
  5
5C
100
AcDbEntity
100
AcDbLine
  8
0
 62
256
370
-1
 48
1.0
  6
BYLAYER
 10
0.0
 20
0.0
 30
0.0
 11
450.0
 21
0.0
 31
0.0
  0
LINE
  5
5D
100
AcDbEntity
100
AcDbLine
  8
0
 62
256
370
-1
 48
1.0
  6
BYLAYER
 10
450.0
 20
0.0
 30
0.0
 11
450.0
 21
235.0
 31
0.0
  0
CIRCLE
  5
5E
100
AcDbEntity
100
AcDbCircle
  8
Holes
 62
256
370
-1
 48
1.0
  6
BYLAYER
 10
14.999882884759078
 20
219.99979156264567
 30
0.0
 40
4.3001472138921324
  0
CIRCLE
  5
5F
100
AcDbEntity
100
AcDbCircle
  8
Holes
 62
256
370
-1
 48
1.0
  6
BYLAYER
 10
15.000029744285206
 20
14.999972286596831
 30
0.0
 40
4.3000032771650085
  0
CIRCLE
  5
60
100
AcDbEntity
100
AcDbCircle
  8
Holes
 62
256
370
-1
 48
1.0
  6
BYLAYER
 10
435.00002343689749
 20
15.000056221387613
 30
0.0
 40
4.300020079607811
  0
CIRCLE
  5
61
100
AcDbEntity
100
AcDbCircle
  8
Holes
 62
256
370
-1
 48
1.0
  6
BYLAYER
 10
434.99983938108124
 20
219.99997065366705
 30
0.0
 40
4.3002140671673175
  0
CIRCLE
  5
62
100
AcDbEntity
100
AcDbCircle
  8
Holes
 62
256
370
-1
 48
1.0
  6
BYLAYER
 10
126.91699402699439
 20
221.06020590860919
 30
0.0
 40
1.9997801430717062
  0
CIRCLE
  5
63
100
AcDbEntity
100
AcDbCircle
  8
Holes
 62
256
370
-1
 48
1.0
  6
BYLAYER
 10
126.91710193561215
 20
204.84984340858097
 30
0.0
 40
2.0001397780089665
  0
CIRCLE
  5
64
100
AcDbEntity
100
AcDbCircle
  8
Holes
 62
256
370
-1
 48
1.0
  6
BYLAYER
 10
156.51702997448982
 20
221.05999999999995
 30
0.0
 40
1.99997002551018
  0
CIRCLE
  5
65
100
AcDbEntity
100
AcDbCircle
  8
Holes
 62
256
370
-1
 48
1.0
  6
BYLAYER
 10
156.51716491500034
 20
204.84977230541466
 30
0.0
 40
2.0000956678602142
  0
CIRCLE
  5
66
100
AcDbEntity
100
AcDbCircle
  8
Holes
 62
256
370
-1
 48
1.0
  6
BYLAYER
 10
293.58312142364201
 20
221.05989480888596
 30
0.0
 40
2.0001085444221594
  0
CIRCLE
  5
67
100
AcDbEntity
100
AcDbCircle
  8
Holes
 62
256
370
-1
 48
1.0
  6
BYLAYER
 10
293.58299999999991
 20
204.85014784053155
 30
0.0
 40
1.9997232180396904
  0
CIRCLE
  5
68
100
AcDbEntity
100
AcDbCircle
  8
Holes
 62
256
370
-1
 48
1.0
  6
BYLAYER
 10
323.1831733228629
 20
221.06027311087368
 30
0.0
 40
1.9998266957860971
  0
CIRCLE
  5
69
100
AcDbEntity
100
AcDbCircle
  8
Holes
 62
256
370
-1
 48
1.0
  6
BYLAYER
 10
323.18321638255043
 20
204.85031539646613
 30
0.0
 40
1.9999156398847864
  0
CIRCLE
  5
6A
100
AcDbEntity
100
AcDbCircle
  8
Holes
 62
256
370
-1
 48
1.0
  6
BYLAYER
 10
212.00003162330867
 20
132.00019989937678
 30
0.0
 40
2.0000818844734054
  0
CIRCLE
  5
6B
100
AcDbEntity
100
AcDbCircle
  8
Holes
 62
256
370
-1
 48
1.0
  6
BYLAYER
 10
238.00003162330867
 20
132.00019989937678
 30
0.0
 40
2.0000818844733614
  0
CIRCLE
  5
6C
100
AcDbEntity
100
AcDbCircle
  8
Holes
 62
256
370
-1
 48
1.0
  6
BYLAYER
 10
211.99990613266584
 20
103.00009386733417
 30
0.0
 40
2.0000938695368236
  0
CIRCLE
  5
6D
100
AcDbEntity
100
AcDbCircle
  8
Holes
 62
256
370
-1
 48
1.0
  6
BYLAYER
 10
237.99981967841018
 20
103.00009187814334
 30
0.0
 40
2.0000251055673672
  0
CIRCLE
  5
6E
100
AcDbEntity
100
AcDbCircle
  8
Holes
 62
256
370
-1
 48
1.0
  6
BYLAYER
 10
293.58300000000003
 20
30.059950000000057
 30
0.0
 40
1.9999870155828086
  0
CIRCLE
  5
6F
100
AcDbEntity
100
AcDbCircle
  8
Holes
 62
256
370
-1
 48
1.0
  6
BYLAYER
 10
323.18306504449123
 20
30.060101711786942
 30
0.0
 40
2.0000666739623765
  0
CIRCLE
  5
70
100
AcDbEntity
100
AcDbCircle
  8
Holes
 62
256
370
-1
 48
1.0
  6
BYLAYER
 10
323.18306372734315
 20
13.850008318945925
 30
0.0
 40
1.9999960446521392
  0
CIRCLE
  5
71
100
AcDbEntity
100
AcDbCircle
  8
Holes
 62
256
370
-1
 48
1.0
  6
BYLAYER
 10
293.5830599521131
 20
13.8500882828094
 30
0.0
 40
2.0000684042517234
  0
CIRCLE
  5
72
100
AcDbEntity
100
AcDbCircle
  8
Holes
 62
256
370
-1
 48
1.0
  6
BYLAYER
 10
126.91700000000004
 20
30.060143547020619
 30
0.0
 40
2.0000711430840417
  0
CIRCLE
  5
73
100
AcDbEntity
100
AcDbCircle
  8
Holes
 62
256
370
-1
 48
1.0
  6
BYLAYER
 10
156.51701033919466
 20
30.060114239841745
 30
0.0
 40
2.0000881931087635
  0
CIRCLE
  5
74
100
AcDbEntity
100
AcDbCircle
  8
Holes
 62
256
370
-1
 48
1.0
  6
BYLAYER
 10
126.91710456791351
 20
13.850014459514943
 30
0.0
 40
2.0000004971799021
  0
CIRCLE
  5
75
100
AcDbEntity
100
AcDbCircle
  8
Holes
 62
256
370
-1
 48
1.0
  6
BYLAYER
 10
156.51696547831821
 20
13.849969996774067
 30
0.0
 40
1.9999479155050646
  0
LINE
  5
76
100
AcDbEntity
100
AcDbLine
  8
Holes
 62
256
370
-1
 48
1.0
  6
BYLAYER
 10
209.99994973883526
 20
132.00019989937678
 30
0.0
 11
214.00011350778209
 21
132.00019989937678
 31
0.0
  0
LINE
  5
77
100
AcDbEntity
100
AcDbLine
  8
Holes
 62
256
370
-1
 48
1.0
  6
BYLAYER
 10
212.00003162330867
 20
130.00011801490336
 30
0.0
 11
212.00003162330867
 21
134.0002817838502
 31
0.0
  0
LINE
  5
78
100
AcDbEntity
100
AcDbLine
  8
Holes
 62
256
370
-1
 48
1.0
  6
BYLAYER
 10
235.99994973883531
 20
132.00019989937678
 30
0.0
 11
240.00011350778203
 21
132.00019989937678
 31
0.0
  0
LINE
  5
79
100
AcDbEntity
100
AcDbLine
  8
Holes
 62
256
370
-1
 48
1.0
  6
BYLAYER
 10
238.00003162330867
 20
130.00011801490342
 30
0.0
 11
238.00003162330867
 21
134.00028178385014
 31
0.0
  0
LINE
  5
7A
100
AcDbEntity
100
AcDbLine
  8
Holes
 62
256
370
-1
 48
1.0
  6
BYLAYER
 10
209.99981226312903
 20
103.00009386733417
 30
0.0
 11
214.00000000220265
 21
103.00009386733417
 31
0.0
  0
LINE
  5
7B
100
AcDbEntity
100
AcDbLine
  8
Holes
 62
256
370
-1
 48
1.0
  6
BYLAYER
 10
211.99990613266584
 20
100.99999999779735
 30
0.0
 11
211.99990613266584
 21
105.000187736871
 31
0.0
  0
LINE
  5
7C
100
AcDbEntity
100
AcDbLine
  8
Holes
 62
256
370
-1
 48
1.0
  6
BYLAYER
 10
235.9997945728428
 20
103.00009187814334
 30
0.0
 11
239.99984478397755
 21
103.00009187814334
 31
0.0
  0
LINE
  5
7D
100
AcDbEntity
100
AcDbLine
  8
Holes
 62
256
370
-1
 48
1.0
  6
BYLAYER
 10
237.99981967841018
 20
101.00006677257596
 30
0.0
 11
237.99981967841018
 21
105.00011698371071
 31
0.0
  0
LINE
  5
7E
100
AcDbEntity
100
AcDbLine
  8
Holes
 62
256
370
-1
 48
1.0
  6
BYLAYER
 10
124.91696215760318
 20
204.84984340858097
 30
0.0
 11
128.91724171362111
 21
204.84984340858097
 31
0.0
  0
LINE
  5
7F
100
AcDbEntity
100
AcDbLine
  8
Holes
 62
256
370
-1
 48
1.0
  6
BYLAYER
 10
126.91710193561215
 20
202.84970363057201
 30
0.0
 11
126.91710193561215
 21
206.84998318658992
 31
0.0
  0
LINE
  5
80
100
AcDbEntity
100
AcDbLine
  8
Holes
 62
256
370
-1
 48
1.0
  6
BYLAYER
 10
154.51706924714011
 20
204.84977230541466
 30
0.0
 11
158.51726058286056
 21
204.84977230541466
 31
0.0
  0
LINE
  5
81
100
AcDbEntity
100
AcDbLine
  8
Holes
 62
256
370
-1
 48
1.0
  6
BYLAYER
 10
156.51716491500034
 20
202.84967663755444
 30
0.0
 11
156.51716491500034
 21
206.84986797327488
 31
0.0
  0
LINE
  5
82
100
AcDbEntity
100
AcDbLine
  8
Holes
 62
256
370
-1
 48
1.0
  6
BYLAYER
 10
154.51705994897964
 20
221.05999999999995
 30
0.0
 11
158.517
 21
221.05999999999995
 31
0.0
  0
LINE
  5
83
100
AcDbEntity
100
AcDbLine
  8
Holes
 62
256
370
-1
 48
1.0
  6
BYLAYER
 10
156.51702997448982
 20
219.06002997448977
 30
0.0
 11
156.51702997448982
 21
223.05997002551013
 31
0.0
  0
LINE
  5
84
100
AcDbEntity
100
AcDbLine
  8
Holes
 62
256
370
-1
 48
1.0
  6
BYLAYER
 10
124.91721388392268
 20
221.06020590860919
 30
0.0
 11
128.91677417006611
 21
221.06020590860919
 31
0.0
  0
LINE
  5
85
100
AcDbEntity
100
AcDbLine
  8
Holes
 62
256
370
-1
 48
1.0
  6
BYLAYER
 10
126.91699402699439
 20
219.06042576553747
 30
0.0
 11
126.91699402699439
 21
223.05998605168091
 31
0.0
  0
LINE
  5
86
100
AcDbEntity
100
AcDbLine
  8
Holes
 62
256
370
-1
 48
1.0
  6
BYLAYER
 10
10.699735670866946
 20
219.99979156264567
 30
0.0
 11
19.300030098651209
 21
219.99979156264567
 31
0.0
  0
LINE
  5
87
100
AcDbEntity
100
AcDbLine
  8
Holes
 62
256
370
-1
 48
1.0
  6
BYLAYER
 10
14.999882884759078
 20
215.69964434875354
 30
0.0
 11
14.999882884759078
 21
224.2999387765378
 31
0.0
  0
LINE
  5
88
100
AcDbEntity
100
AcDbLine
  8
Holes
 62
256
370
-1
 48
1.0
  6
BYLAYER
 10
291.58301287921984
 20
221.05989480888596
 30
0.0
 11
295.58322996806419
 21
221.05989480888596
 31
0.0
  0
LINE
  5
89
100
AcDbEntity
100
AcDbLine
  8
Holes
 62
256
370
-1
 48
1.0
  6
BYLAYER
 10
293.58312142364201
 20
219.05978626446381
 30
0.0
 11
293.58312142364201
 21
223.0600033533081
 31
0.0
  0
LINE
  5
8A
100
AcDbEntity
100
AcDbLine
  8
Holes
 62
256
370
-1
 48
1.0
  6
BYLAYER
 10
291.58327678196025
 20
204.85014784053155
 30
0.0
 11
295.58272321803958
 21
204.85014784053155
 31
0.0
  0
LINE
  5
8B
100
AcDbEntity
100
AcDbLine
  8
Holes
 62
256
370
-1
 48
1.0
  6
BYLAYER
 10
293.58299999999991
 20
202.85042462249186
 30
0.0
 11
293.58299999999991
 21
206.84987105857124
 31
0.0
  0
LINE
  5
8C
100
AcDbEntity
100
AcDbLine
  8
Holes
 62
256
370
-1
 48
1.0
  6
BYLAYER
 10
321.18330074266566
 20
204.85031539646613
 30
0.0
 11
325.18313202243519
 21
204.85031539646613
 31
0.0
  0
LINE
  5
8D
100
AcDbEntity
100
AcDbLine
  8
Holes
 62
256
370
-1
 48
1.0
  6
BYLAYER
 10
323.18321638255043
 20
202.85039975658134
 30
0.0
 11
323.18321638255043
 21
206.85023103635092
 31
0.0
  0
LINE
  5
8E
100
AcDbEntity
100
AcDbLine
  8
Holes
 62
256
370
-1
 48
1.0
  6
BYLAYER
 10
321.18334662707679
 20
221.06027311087368
 30
0.0
 11
325.18300001864901
 21
221.06027311087368
 31
0.0
  0
LINE
  5
8F
100
AcDbEntity
100
AcDbLine
  8
Holes
 62
256
370
-1
 48
1.0
  6
BYLAYER
 10
323.1831733228629
 20
219.0604464150876
 30
0.0
 11
323.1831733228629
 21
223.06009980665976
 31
0.0
  0
LINE
  5
90
100
AcDbEntity
100
AcDbLine
  8
Holes
 62
256
370
-1
 48
1.0
  6
BYLAYER
 10
430.69962531391394
 20
219.99997065366705
 30
0.0
 11
439.30005344824855
 21
219.99997065366705
 31
0.0
  0
LINE
  5
91
100
AcDbEntity
100
AcDbLine
  8
Holes
 62
256
370
-1
 48
1.0
  6
BYLAYER
 10
434.99983938108124
 20
215.69975658649975
 30
0.0
 11
434.99983938108124
 21
224.30018472083435
 31
0.0
  0
LINE
  5
92
100
AcDbEntity
100
AcDbLine
  8
Holes
 62
256
370
-1
 48
1.0
  6
BYLAYER
 10
430.70000335728969
 20
15.000056221387613
 30
0.0
 11
439.3000435165053
 21
15.000056221387613
 31
0.0
  0
LINE
  5
93
100
AcDbEntity
100
AcDbLine
  8
Holes
 62
256
370
-1
 48
1.0
  6
BYLAYER
 10
435.00002343689749
 20
10.700036141779801
 30
0.0
 11
435.00002343689749
 21
19.300076300995425
 31
0.0
  0
LINE
  5
94
100
AcDbEntity
100
AcDbLine
  8
Holes
 62
256
370
-1
 48
1.0
  6
BYLAYER
 10
291.58301298441722
 20
30.059950000000057
 30
0.0
 11
295.58298701558283
 21
30.059950000000057
 31
0.0
  0
LINE
  5
95
100
AcDbEntity
100
AcDbLine
  8
Holes
 62
256
370
-1
 48
1.0
  6
BYLAYER
 10
293.58300000000003
 20
28.05996298441725
 30
0.0
 11
293.58300000000003
 21
32.059937015582868
 31
0.0
  0
LINE
  5
96
100
AcDbEntity
100
AcDbLine
  8
Holes
 62
256
370
-1
 48
1.0
  6
BYLAYER
 10
291.58299154786135
 20
13.8500882828094
 30
0.0
 11
295.58312835636485
 21
13.8500882828094
 31
0.0
  0
LINE
  5
97
100
AcDbEntity
100
AcDbLine
  8
Holes
 62
256
370
-1
 48
1.0
  6
BYLAYER
 10
293.5830599521131
 20
11.850019878557678
 30
0.0
 11
293.5830599521131
 21
15.850156687061123
 31
0.0
  0
LINE
  5
98
100
AcDbEntity
100
AcDbLine
  8
Holes
 62
256
370
-1
 48
1.0
  6
BYLAYER
 10
321.18306768269099
 20
13.850008318945925
 30
0.0
 11
325.18305977199532
 21
13.850008318945925
 31
0.0
  0
LINE
  5
99
100
AcDbEntity
100
AcDbLine
  8
Holes
 62
256
370
-1
 48
1.0
  6
BYLAYER
 10
323.18306372734315
 20
11.850012274293785
 30
0.0
 11
323.18306372734315
 21
15.850004363598064
 31
0.0
  0
LINE
  5
9A
100
AcDbEntity
100
AcDbLine
  8
Holes
 62
256
370
-1
 48
1.0
  6
BYLAYER
 10
321.18299837052888
 20
30.060101711786942
 30
0.0
 11
325.18313171845358
 21
30.060101711786942
 31
0.0
  0
LINE
  5
9B
100
AcDbEntity
100
AcDbLine
  8
Holes
 62
256
370
-1
 48
1.0
  6
BYLAYER
 10
323.18306504449123
 20
28.060035037824566
 30
0.0
 11
323.18306504449123
 21
32.060168385749321
 31
0.0
  0
LINE
  5
9C
100
AcDbEntity
100
AcDbLine
  8
Holes
 62
256
370
-1
 48
1.0
  6
BYLAYER
 10
124.91710407073361
 20
13.850014459514943
 30
0.0
 11
128.91710506509341
 21
13.850014459514943
 31
0.0
  0
LINE
  5
9D
100
AcDbEntity
100
AcDbLine
  8
Holes
 62
256
370
-1
 48
1.0
  6
BYLAYER
 10
126.91710456791351
 20
11.850013962335041
 30
0.0
 11
126.91710456791351
 21
15.850014956694846
 31
0.0
  0
LINE
  5
9E
100
AcDbEntity
100
AcDbLine
  8
Holes
 62
256
370
-1
 48
1.0
  6
BYLAYER
 10
124.916928856916
 20
30.060143547020619
 30
0.0
 11
128.91707114308409
 21
30.060143547020619
 31
0.0
  0
LINE
  5
9F
100
AcDbEntity
100
AcDbLine
  8
Holes
 62
256
370
-1
 48
1.0
  6
BYLAYER
 10
126.91700000000004
 20
28.060072403936577
 30
0.0
 11
126.91700000000004
 21
32.060214690104658
 31
0.0
  0
LINE
  5
A0
100
AcDbEntity
100
AcDbLine
  8
Holes
 62
256
370
-1
 48
1.0
  6
BYLAYER
 10
154.5169221460859
 20
30.060114239841745
 30
0.0
 11
158.51709853230341
 21
30.060114239841745
 31
0.0
  0
LINE
  5
A1
100
AcDbEntity
100
AcDbLine
  8
Holes
 62
256
370
-1
 48
1.0
  6
BYLAYER
 10
156.51701033919466
 20
28.060026046732983
 30
0.0
 11
156.51701033919466
 21
32.060202432950511
 31
0.0
  0
LINE
  5
A2
100
AcDbEntity
100
AcDbLine
  8
Holes
 62
256
370
-1
 48
1.0
  6
BYLAYER
 10
154.51701756281315
 20
13.849969996774067
 30
0.0
 11
158.51691339382327
 21
13.849969996774067
 31
0.0
  0
LINE
  5
A3
100
AcDbEntity
100
AcDbLine
  8
Holes
 62
256
370
-1
 48
1.0
  6
BYLAYER
 10
156.51696547831821
 20
11.850022081269003
 30
0.0
 11
156.51696547831821
 21
15.849917912279132
 31
0.0
  0
LINE
  5
A4
100
AcDbEntity
100
AcDbLine
  8
Holes
 62
256
370
-1
 48
1.0
  6
BYLAYER
 10
10.700026467120196
 20
14.999972286596831
 30
0.0
 11
19.300033021450215
 21
14.999972286596831
 31
0.0
  0
LINE
  5
A5
100
AcDbEntity
100
AcDbLine
  8
Holes
 62
256
370
-1
 48
1.0
  6
BYLAYER
 10
15.000029744285206
 20
10.699969009431822
 30
0.0
 11
15.000029744285206
 21
19.299975563761841
 31
0.0
  0
DIMENSION
  5
A6
100
AcDbEntity
  8
Holes
 62
256
370
-1
 48
1.0
  6
BYLAYER
100
AcDbDimension
 10
0.0000000000000009
 20
250.0
 30
0.0
 11
225.0
 21
253.75
 31
0.0
 70
1
 71
8
 72
2
 41
1.0
 42
0.0
  1

  3
Standard
100
AcDbAlignedDimension
 13
0.0
 23
235.0
 33
0.0
 14
450.0
 24
235.0
 34
0.0
1001
ACAD
1000
DSTYLE
1002
{
1070
144
1040
1.0
1070
40
1040
1.0
1002
}
  0
DIMENSION
  5
A7
100
AcDbEntity
  8
Holes
 62
256
370
-1
 48
1.0
  6
BYLAYER
100
AcDbDimension
 10
-20.0
 20
235.0
 30
0.0
 11
-23.75
 21
117.5
 31
0.0
 70
1
 71
8
 72
2
 41
1.0
 42
0.0
  1

  3
Standard
100
AcDbAlignedDimension
 13
0.0
 23
235.0
 33
0.0
 14
-0.0
 24
-0.0
 34
0.0
1001
ACAD
1000
DSTYLE
1002
{
1070
144
1040
1.0
1070
40
1040
1.0
1002
}
  0
DIMENSION
  5
A8
100
AcDbEntity
  8
Holes
 62
256
370
-1
 48
1.0
  6
BYLAYER
100
AcDbDimension
 10
14.999882884759074
 20
200.28623377452158
 30
0.0
 11
24.65841209899682
 21
204.03623377452158
 31
0.0
 70
1
 71
8
 72
2
 41
1.0
 42
0.0
  1

  3
Standard
100
AcDbAlignedDimension
 13
14.999882884759078
 23
219.99979156264567
 33
0.0
 14
0.0
 24
219.99979156264567
 34
0.0
1001
ACAD
1000
DSTYLE
1002
{
1070
144
1040
1.0
1070
40
1040
1.0
1002
}
  0
DIMENSION
  5
A9
100
AcDbEntity
  8
Holes
 62
256
370
-1
 48
1.0
  6
BYLAYER
100
AcDbDimension
 10
29.374941442379559
 20
219.99979156264573
 30
0.0
 11
25.624941442379463
 21
244.65852921423777
 31
0.0
 70
1
 71
8
 72
2
 41
1.0
 42
0.0
  1

  3
Standard
100
AcDbAlignedDimension
 13
14.999882884759078
 23
219.99979156264567
 33
0.0
 14
14.999882884759018
 24
235.0
 34
0.0
1001
ACAD
1000
DSTYLE
1002
{
1070
144
1040
1.0
1070
40
1040
1.0
1002
}
  0
DIMENSION
  5
AA
100
AcDbEntity
  8
Holes
 62
256
370
-1
 48
1.0
  6
BYLAYER
100
AcDbDimension
 10
126.91700000000004
 20
-10.0
 30
0.0
 11
63.458500000000015
 21
-6.2499999999999964
 31
0.0
 70
1
 71
8
 72
2
 41
1.0
 42
0.0
  1

  3
Standard
100
AcDbAlignedDimension
 13
126.91700000000006
 23
30.060143547020623
 33
0.0
 14
0.0
 24
30.06014354702063
 34
0.0
1001
ACAD
1000
DSTYLE
1002
{
1070
144
1040
1.0
1070
40
1040
1.0
1002
}
  0
DIMENSION
  5
AB
100
AcDbEntity
  8
Holes
 62
256
370
-1
 48
1.0
  6
BYLAYER
100
AcDbDimension
 10
100.0
 20
30.060143547020626
 30
0.0
 11
96.25
 21
15.030071773510315
 31
0.0
 70
1
 71
8
 72
2
 41
1.0
 42
0.0
  1

  3
Standard
100
AcDbAlignedDimension
 13
126.91700000000006
 23
30.060143547020623
 33
0.0
 14
126.91700000000004
 24
0.0
 34
0.0
1001
ACAD
1000
DSTYLE
1002
{
1070
144
1040
1.0
1070
40
1040
1.0
1002
}
  0
DIMENSION
  5
AC
100
AcDbEntity
  8
Holes
 62
256
370
-1
 48
1.0
  6
BYLAYER
100
AcDbDimension
 10
156.51701033919466
 20
-20.0
 30
0.0
 11
78.258505169597328
 21
-16.250000000000004
 31
0.0
 70
1
 71
8
 72
2
 41
1.0
 42
0.0
  1

  3
Standard
100
AcDbAlignedDimension
 13
156.51701033919466
 23
30.060114239841745
 33
0.0
 14
0.0
 24
30.060114239841738
 34
0.0
1001
ACAD
1000
DSTYLE
1002
{
1070
144
1040
1.0
1070
40
1040
1.0
1002
}
  0
DIMENSION
  5
AD
100
AcDbEntity
  8
Holes
 62
256
370
-1
 48
1.0
  6
BYLAYER
100
AcDbDimension
 10
170.00000016626032
 20
30.060076926247781
 30
0.0
 11
166.2500265101788
 21
39.579261246418021
 31
0.0
 70
1
 71
8
 72
2
 41
1.0
 42
0.0
  1

  3
Standard
100
AcDbAlignedDimension
 13
156.51701033919466
 23
30.060114239841745
 33
0.0
 14
156.51696547831824
 24
13.849969996774069
 34
0.0
1001
ACAD
1000
DSTYLE
1002
{
1070
144
1040
1.0
1070
40
1040
1.0
1002
}
  0
DIMENSION
  5
AE
100
AcDbEntity
  8
Holes
 62
256
370
-1
 48
1.0
  6
BYLAYER
100
AcDbDimension
 10
211.99990613266581
 20
90.0
 30
0.0
 11
105.99995306633291
 21
93.75
 31
0.0
 70
1
 71
8
 72
2
 41
1.0
 42
0.0
  1

  3
Standard
100
AcDbAlignedDimension
 13
211.99990613266581
 23
103.00009386733416
 33
0.0
 14
0.0
 24
103.00009386733416
 34
0.0
1001
ACAD
1000
DSTYLE
1002
{
1070
144
1040
1.0
1070
40
1040
1.0
1002
}
  0
DIMENSION
  5
AF
100
AcDbEntity
  8
Holes
 62
256
370
-1
 48
1.0
  6
BYLAYER
100
AcDbDimension
 10
210.0
 20
103.00009386733416
 30
0.0
 11
206.25
 21
51.500046933667079
 31
0.0
 70
1
 71
8
 72
2
 41
1.0
 42
0.0
  1

  3
Standard
100
AcDbAlignedDimension
 13
211.99990613266581
 23
103.00009386733416
 33
0.0
 14
211.99990613266581
 24
0.0
 34
0.0
1001
ACAD
1000
DSTYLE
1002
{
1070
144
1040
1.0
1070
40
1040
1.0
1002
}
  0
DIMENSION
  5
B0
100
AcDbEntity
  8
Holes
 62
256
370
-1
 48
1.0
  6
BYLAYER
100
AcDbDimension
 10
212.00003162330867
 20
150.0
 30
0.0
 11
225.0000316233087
 21
153.75
 31
0.0
 70
1
 71
8
 72
2
 41
1.0
 42
0.0
  1

  3
Standard
100
AcDbAlignedDimension
 13
212.00003162330867
 23
132.00019989937678
 33
0.0
 14
238.0000316233087
 24
132.00019989937678
 34
0.0
1001
ACAD
1000
DSTYLE
1002
{
1070
144
1040
1.0
1070
40
1040
1.0
1002
}
  0
DIMENSION
  5
B1
100
AcDbEntity
  8
Holes
 62
256
370
-1
 48
1.0
  6
BYLAYER
100
AcDbDimension
 10
237.99981967841018
 20
109.99999999999996
 30
0.0
 11
118.99990983920509
 21
113.74999999999997
 31
0.0
 70
1
 71
8
 72
2
 41
1.0
 42
0.0
  1

  3
Standard
100
AcDbAlignedDimension
 13
237.99981967841018
 23
103.00009187814334
 33
0.0
 14
0.0
 24
103.00009187814338
 34
0.0
1001
ACAD
1000
DSTYLE
1002
{
1070
144
1040
1.0
1070
40
1040
1.0
1002
}
  0
DIMENSION
  5
B2
100
AcDbEntity
  8
Holes
 62
256
370
-1
 48
1.0
  6
BYLAYER
100
AcDbDimension
 10
293.58300000000008
 20
70.000000000000014
 30
0.0
 11
146.79150000000004
 21
73.75
 31
0.0
 70
1
 71
8
 72
2
 41
1.0
 42
0.0
  1

  3
Standard
100
AcDbAlignedDimension
 13
293.58300000000008
 23
30.059950000000057
 33
0.0
 14
0.0
 24
30.059950000000043
 34
0.0
1001
ACAD
1000
DSTYLE
1002
{
1070
144
1040
1.0
1070
40
1040
1.0
1002
}
  0
DIMENSION
  5
B3
100
AcDbEntity
  8
Holes
 62
256
370
-1
 48
1.0
  6
BYLAYER
100
AcDbDimension
 10
323.18306504449117
 20
79.999999999999972
 30
0.0
 11
161.59153252224559
 21
83.749999999999986
 31
0.0
 70
1
 71
8
 72
2
 41
1.0
 42
0.0
  1

  3
Standard
100
AcDbAlignedDimension
 13
323.18306504449117
 23
30.060101711786942
 33
0.0
 14
0.0
 24
30.060101711786963
 34
0.0
1001
ACAD
1000
DSTYLE
1002
{
1070
144
1040
1.0
1070
40
1040
1.0
1002
}
  0
DIMENSION
  5
B4
100
AcDbEntity
  8
Holes
 62
256
370
-1
 48
1.0
  6
BYLAYER
100
AcDbDimension
 10
150.0
 20
13.849969996774069
 30
0.0
 11
146.25
 21
23.468203710676018
 31
0.0
 70
1
 71
8
 72
2
 41
1.0
 42
0.0
  1

  3
Standard
100
AcDbAlignedDimension
 13
156.51696547831824
 23
13.849969996774069
 33
0.0
 14
156.51696547831824
 24
0.0
 34
0.0
1001
ACAD
1000
DSTYLE
1002
{
1070
144
1040
1.0
1070
40
1040
1.0
1002
}
  0
DIMENSION
  5
B5
100
AcDbEntity
  8
Holes
 62
256
370
-1
 48
1.0
  6
BYLAYER
100
AcDbDimension
 10
126.91710193561214
 20
190.0
 30
0.0
 11
63.458550967806069
 21
193.75
 31
0.0
 70
1
 71
8
 72
2
 41
1.0
 42
0.0
  1

  3
Standard
100
AcDbAlignedDimension
 13
126.91710193561214
 23
204.84984340858094
 33
0.0
 14
0.0
 24
204.84984340858097
 34
0.0
1001
ACAD
1000
DSTYLE
1002
{
1070
144
1040
1.0
1070
40
1040
1.0
1002
}
  0
DIMENSION
  5
B6
100
AcDbEntity
  8
Holes
 62
256
370
-1
 48
1.0
  6
BYLAYER
100
AcDbDimension
 10
79.322830470429267
 20
204.84984340858094
 30
0.0
 11
75.572830470429267
 21
102.42492170429047
 31
0.0
 70
1
 71
8
 72
2
 41
1.0
 42
0.0
  1

  3
Standard
100
AcDbAlignedDimension
 13
126.91710193561214
 23
204.84984340858094
 33
0.0
 14
126.91710193561215
 24
0.0
 34
0.0
1001
ACAD
1000
DSTYLE
1002
{
1070
144
1040
1.0
1070
40
1040
1.0
1002
}
  0
DIMENSION
  5
B7
100
AcDbEntity
  8
Holes
 62
256
370
-1
 48
1.0
  6
BYLAYER
100
AcDbDimension
 10
190.0
 20
221.05999999999992
 30
0.0
 11
186.25
 21
110.52999999999996
 31
0.0
 70
1
 71
8
 72
2
 41
1.0
 42
0.0
  1

  3
Standard
100
AcDbAlignedDimension
 13
156.51702997448982
 23
221.05999999999992
 33
0.0
 14
156.51702997448982
 24
0.0
 34
0.0
1001
ACAD
1000
DSTYLE
1002
{
1070
144
1040
1.0
1070
40
1040
1.0
1002
}
  0
DIMENSION
  5
B8
100
AcDbEntity
  8
Holes
 62
256
370
-1
 48
1.0
  6
BYLAYER
100
AcDbDimension
 10
419.99999999999994
 20
219.99997065366702
 30
0.0
 11
416.25
 21
109.99998532683351
 31
0.0
 70
1
 71
8
 72
2
 41
1.0
 42
0.0
  1

  3
Standard
100
AcDbAlignedDimension
 13
434.99983938108124
 23
219.99997065366702
 33
0.0
 14
434.9998393810813
 24
0.0
 34
0.0
1001
ACAD
1000
DSTYLE
1002
{
1070
144
1040
1.0
1070
40
1040
1.0
1002
}
  0
DIMENSION
  5
B9
100
AcDbEntity
  8
Holes
 62
256
370
-1
 48
1.0
  6
BYLAYER
100
AcDbDimension
 10
434.99983938108124
 20
259.99999999999989
 30
0.0
 11
217.49991969054062
 21
263.74999999999994
 31
0.0
 70
1
 71
8
 72
2
 41
1.0
 42
0.0
  1

  3
Standard
100
AcDbAlignedDimension
 13
434.99983938108124
 23
219.99997065366702
 33
0.0
 14
0.0
 24
219.99997065366711
 34
0.0
1001
ACAD
1000
DSTYLE
1002
{
1070
144
1040
1.0
1070
40
1040
1.0
1002
}
  0
DIMENSION
  5
BA
100
AcDbEntity
  8
Holes
 62
256
370
-1
 48
1.0
  6
BYLAYER
100
AcDbDimension
 10
340.0
 20
221.06027311087368
 30
0.0
 11
336.25
 21
110.53013655543684
 31
0.0
 70
1
 71
8
 72
2
 41
1.0
 42
0.0
  1

  3
Standard
100
AcDbAlignedDimension
 13
323.1831733228629
 23
221.06027311087368
 33
0.0
 14
323.1831733228629
 24
0.0
 34
0.0
1001
ACAD
1000
DSTYLE
1002
{
1070
144
1040
1.0
1070
40
1040
1.0
1002
}
  0
DIMENSION
  5
BB
100
AcDbEntity
  8
Holes
 62
256
370
-1
 48
1.0
  6
BYLAYER
100
AcDbDimension
 10
330.00000000000006
 20
204.85031539646613
 30
0.0
 11
326.25
 21
102.42515769823306
 31
0.0
 70
1
 71
8
 72
2
 41
1.0
 42
0.0
  1

  3
Standard
100
AcDbAlignedDimension
 13
323.18321638255043
 23
204.85031539646613
 33
0.0
 14
323.18321638255037
 24
0.0
 34
0.0
1001
ACAD
1000
DSTYLE
1002
{
1070
144
1040
1.0
1070
40
1040
1.0
1002
}
  0
ENDSEC
  0
SECTION
  2
OBJECTS
  0
DICTIONARY
  5
C
100
AcDbDictionary
280
0
281
1
  3
ACAD_GROUP
350
D
  3
ACAD_LAYOUT
350
1A
  3
ACAD_MLINESTYLE
350
17
  3
ACAD_PLOTSETTINGS
350
19
  3
ACAD_PLOTSTYLENAME
350
E
  3
AcDbVariableDictionary
350
BC
  3
QCAD_OBJECTS
350
BD
  0
DICTIONARY
  5
D
100
AcDbDictionary
280
0
281
1
  0
ACDBDICTIONARYWDFLT
  5
E
100
AcDbDictionary
281
1
  3
Normal
350
F
100
AcDbDictionaryWithDefault
340
F
  0
ACDBPLACEHOLDER
  5
F
  0
DICTIONARY
  5
17
100
AcDbDictionary
280
0
281
1
  3
Standard
350
18
  0
MLINESTYLE
  5
18
100
AcDbMlineStyle
  2
STANDARD
 70
0
  3

 62
256
 51
90.0
 52
90.0
 71
2
 49
0.5
 62
256
  6
BYLAYER
 49
-0.5
 62
256
  6
BYLAYER
  0
DICTIONARY
  5
19
100
AcDbDictionary
280
0
281
1
  0
DICTIONARY
  5
1A
100
AcDbDictionary
281
1
  3
Layout1
350
1E
  3
Layout2
350
26
  3
Model
350
22
  0
LAYOUT
  5
1E
100
AcDbPlotSettings
  1

  2
none_device
  4

  6

 40
0.0
 41
0.0
 42
0.0
 43
0.0
 44
0.0
 45
0.0
 46
0.0
 47
0.0
 48
0.0
 49
0.0
140
0.0
141
0.0
142
1.0
143
1.0
 70
688
 72
0
 73
0
 74
5
  7

 75
16
147
1.0
148
0.0
149
0.0
100
AcDbLayout
  1
Layout1
 70
1
 71
1
 10
0.0
 20
0.0
 11
420.0
 21
297.0
 12
0.0
 22
0.0
 32
0.0
 14
100000000000000000000.0
 24
100000000000000000000.0
 34
100000000000000000000.0
 15
-100000000000000000000.0
 25
-100000000000000000000.0
 35
-100000000000000000000.0
146
0.0
 13
0.0
 23
0.0
 33
0.0
 16
1.0
 26
0.0
 36
0.0
 17
0.0
 27
1.0
 37
0.0
 76
0
330
1B
  0
LAYOUT
  5
22
100
AcDbPlotSettings
  1

  2
none_device
  4

  6

 40
0.0
 41
0.0
 42
0.0
 43
0.0
 44
0.0
 45
0.0
 46
0.0
 47
0.0
 48
0.0
 49
0.0
140
0.0
141
0.0
142
1.0
143
1.0
 70
1712
 72
0
 73
0
 74
0
  7

 75
0
147
1.0
148
0.0
149
0.0
100
AcDbLayout
  1
Model
 70
1
 71
0
 10
0.0
 20
0.0
 11
12.0
 21
9.0
 12
0.0
 22
0.0
 32
0.0
 14
0.0
 24
0.0
 34
0.0
 15
0.0
 25
0.0
 35
0.0
146
0.0
 13
0.0
 23
0.0
 33
0.0
 16
1.0
 26
0.0
 36
0.0
 17
0.0
 27
1.0
 37
0.0
 76
0
330
1F
  0
LAYOUT
  5
26
100
AcDbPlotSettings
  1

  2
none_device
  4

  6

 40
0.0
 41
0.0
 42
0.0
 43
0.0
 44
0.0
 45
0.0
 46
0.0
 47
0.0
 48
0.0
 49
0.0
140
0.0
141
0.0
142
1.0
143
1.0
 70
688
 72
0
 73
0
 74
5
  7

 75
16
147
1.0
148
0.0
149
0.0
100
AcDbLayout
  1
Layout2
 70
1
 71
2
 10
0.0
 20
0.0
 11
12.0
 21
9.0
 12
0.0
 22
0.0
 32
0.0
 14
0.0
 24
0.0
 34
0.0
 15
0.0
 25
0.0
 35
0.0
146
0.0
 13
0.0
 23
0.0
 33
0.0
 16
1.0
 26
0.0
 36
0.0
 17
0.0
 27
1.0
 37
0.0
 76
0
330
23
  0
DICTIONARY
  5
BC
100
AcDbDictionary
281
1
  3
DIMASSOC
350
BF
  3
HIDETEXT
350
BE
  0
DICTIONARYVAR
  5
BE
100
DictionaryVariables
280
0
  1
2
  0
DICTIONARYVAR
  5
BF
100
DictionaryVariables
280
0
  1
1
  0
DICTIONARY
  5
BD
100
AcDbDictionary
281
1
  3
ColorSettings/BackgroundColor
350
C0
  3
ColorSettings/ColorMode
350
C1
  3
DimensionSettings/AngularFormat
350
C2
  3
DimensionSettings/AngularPrecision
350
C3
  3
DimensionSettings/DimensionFont
350
C4
  3
DimensionSettings/KeepProportions
350
C5
  3
DimensionSettings/LinearFormat
350
C6
  3
DimensionSettings/LinearPrecision
350
C7
  3
Grid/DisplayGrid00
350
C8
  3
Grid/DisplayGrid01
350
C9
  3
Grid/DisplayGrid02
350
CA
  3
Grid/DisplayGrid03
350
CB
  3
Grid/GridSpacingX00
350
CC
  3
Grid/GridSpacingX01
350
CD
  3
Grid/GridSpacingX02
350
CE
  3
Grid/GridSpacingX03
350
CF
  3
Grid/GridSpacingY00
350
D0
  3
Grid/GridSpacingY01
350
D1
  3
Grid/GridSpacingY02
350
D2
  3
Grid/GridSpacingY03
350
D3
  3
Grid/IsometricGrid00
350
D4
  3
Grid/IsometricGrid01
350
D5
  3
Grid/IsometricGrid02
350
D6
  3
Grid/IsometricGrid03
350
D7
  3
Grid/IsometricProjection00
350
D8
  3
Grid/IsometricProjection01
350
D9
  3
Grid/IsometricProjection02
350
DA
  3
Grid/IsometricProjection03
350
DB
  3
Grid/MetaGridSpacingX00
350
DC
  3
Grid/MetaGridSpacingX01
350
DD
  3
Grid/MetaGridSpacingX02
350
DE
  3
Grid/MetaGridSpacingX03
350
DF
  3
Grid/MetaGridSpacingY00
350
E0
  3
Grid/MetaGridSpacingY01
350
E1
  3
Grid/MetaGridSpacingY02
350
E2
  3
Grid/MetaGridSpacingY03
350
E3
  3
MultiPageSettings/Columns
350
E4
  3
MultiPageSettings/GlueMarginsBottom
350
E5
  3
MultiPageSettings/GlueMarginsLeft
350
E6
  3
MultiPageSettings/GlueMarginsRight
350
E7
  3
MultiPageSettings/GlueMarginsTop
350
E8
  3
MultiPageSettings/PrintCropMarks
350
E9
  3
MultiPageSettings/Rows
350
EA
  3
PageSettings/OffsetX
350
EB
  3
PageSettings/OffsetY
350
EC
  3
PageSettings/PageOrientation
350
ED
  3
PageSettings/PaperHeight
350
EE
  3
PageSettings/PaperWidth
350
EF
  3
PageSettings/Scale
350
F0
  3
PageSettings/ShowPaperBorders
350
F1
  3
QCADVersion
350
F2
  3
UnitSettings/PaperUnit
350
F3
  3
ViewportCenter
350
F4
  3
ViewportHeight
350
F5
  3
ViewportWidth
350
F6
  0
XRECORD
  5
C0
330
BD
100
AcDbXrecord
280
1
1000
White
  0
XRECORD
  5
C1
330
BD
100
AcDbXrecord
280
1
1000
FullColor
  0
XRECORD
  5
C2
330
BD
100
AcDbXrecord
280
1
 90
0
  0
XRECORD
  5
C3
330
BD
100
AcDbXrecord
280
1
 90
2
  0
XRECORD
  5
C4
330
BD
100
AcDbXrecord
280
1
1000
MS Shell Dlg 2
  0
XRECORD
  5
C5
330
BD
100
AcDbXrecord
280
1
290
1
  0
XRECORD
  5
C6
330
BD
100
AcDbXrecord
280
1
 90
2
  0
XRECORD
  5
C7
330
BD
100
AcDbXrecord
280
1
 90
2
  0
XRECORD
  5
C8
330
BD
100
AcDbXrecord
280
1
290
1
  0
XRECORD
  5
C9
330
BD
100
AcDbXrecord
280
1
290
1
  0
XRECORD
  5
CA
330
BD
100
AcDbXrecord
280
1
290
1
  0
XRECORD
  5
CB
330
BD
100
AcDbXrecord
280
1
290
1
  0
XRECORD
  5
CC
330
BD
100
AcDbXrecord
280
1
1000
auto
  0
XRECORD
  5
CD
330
BD
100
AcDbXrecord
280
1
1000
auto
  0
XRECORD
  5
CE
330
BD
100
AcDbXrecord
280
1
1000
auto
  0
XRECORD
  5
CF
330
BD
100
AcDbXrecord
280
1
1000
auto
  0
XRECORD
  5
D0
330
BD
100
AcDbXrecord
280
1
1000
auto
  0
XRECORD
  5
D1
330
BD
100
AcDbXrecord
280
1
1000
auto
  0
XRECORD
  5
D2
330
BD
100
AcDbXrecord
280
1
1000
auto
  0
XRECORD
  5
D3
330
BD
100
AcDbXrecord
280
1
1000
auto
  0
XRECORD
  5
D4
330
BD
100
AcDbXrecord
280
1
290
0
  0
XRECORD
  5
D5
330
BD
100
AcDbXrecord
280
1
290
0
  0
XRECORD
  5
D6
330
BD
100
AcDbXrecord
280
1
290
0
  0
XRECORD
  5
D7
330
BD
100
AcDbXrecord
280
1
290
0
  0
XRECORD
  5
D8
330
BD
100
AcDbXrecord
280
1
 90
0
  0
XRECORD
  5
D9
330
BD
100
AcDbXrecord
280
1
 90
0
  0
XRECORD
  5
DA
330
BD
100
AcDbXrecord
280
1
 90
0
  0
XRECORD
  5
DB
330
BD
100
AcDbXrecord
280
1
 90
0
  0
XRECORD
  5
DC
330
BD
100
AcDbXrecord
280
1
1000
auto
  0
XRECORD
  5
DD
330
BD
100
AcDbXrecord
280
1
1000
auto
  0
XRECORD
  5
DE
330
BD
100
AcDbXrecord
280
1
1000
auto
  0
XRECORD
  5
DF
330
BD
100
AcDbXrecord
280
1
1000
auto
  0
XRECORD
  5
E0
330
BD
100
AcDbXrecord
280
1
1000
auto
  0
XRECORD
  5
E1
330
BD
100
AcDbXrecord
280
1
1000
auto
  0
XRECORD
  5
E2
330
BD
100
AcDbXrecord
280
1
1000
auto
  0
XRECORD
  5
E3
330
BD
100
AcDbXrecord
280
1
1000
auto
  0
XRECORD
  5
E4
330
BD
100
AcDbXrecord
280
1
 90
1
  0
XRECORD
  5
E5
330
BD
100
AcDbXrecord
280
1
 40
10.0
  0
XRECORD
  5
E6
330
BD
100
AcDbXrecord
280
1
 40
10.0
  0
XRECORD
  5
E7
330
BD
100
AcDbXrecord
280
1
 40
10.0
  0
XRECORD
  5
E8
330
BD
100
AcDbXrecord
280
1
 40
10.0
  0
XRECORD
  5
E9
330
BD
100
AcDbXrecord
280
1
290
0
  0
XRECORD
  5
EA
330
BD
100
AcDbXrecord
280
1
 90
1
  0
XRECORD
  5
EB
330
BD
100
AcDbXrecord
280
1
 90
-72
  0
XRECORD
  5
EC
330
BD
100
AcDbXrecord
280
1
 40
-92.5
  0
XRECORD
  5
ED
330
BD
100
AcDbXrecord
280
1
1000
Landscape
  0
XRECORD
  5
EE
330
BD
100
AcDbXrecord
280
1
 40
297.0
  0
XRECORD
  5
EF
330
BD
100
AcDbXrecord
280
1
 40
210.0
  0
XRECORD
  5
F0
330
BD
100
AcDbXrecord
280
1
1000
1:2
  0
XRECORD
  5
F1
330
BD
100
AcDbXrecord
280
1
290
1
  0
XRECORD
  5
F2
330
BD
100
AcDbXrecord
280
1
1000
3.15.2
  0
XRECORD
  5
F3
330
BD
100
AcDbXrecord
280
1
 90
4
  0
XRECORD
  5
F5
330
BD
100
AcDbXrecord
280
1
 40
173.99007732694162
  0
XRECORD
  5
F6
330
BD
100
AcDbXrecord
280
1
 40
381.78988567406623
  0
ENDSEC
  0
EOF
