<?xml version="1.0" standalone="no"?>
<!DOCTYPE svg PUBLIC "-//W3C//DTD SVG 1.1//EN" "http://www.w3.org/Graphics/SVG/1.1/DTD/svg11.dtd">
<svg width="455" height="238" viewBox="0 -238 455 238" xmlns="http://www.w3.org/2000/svg" version="1.1">
<title>OpenSCAD Model</title>
<path d="
M 454.6,-237.3 L 0,-237.3 L 0,-0 L 454.6,-0 z
M 14.388,-218.044 L 13.9069,-218.141 L 13.4399,-218.293 L 12.9933,-218.497 L 12.5729,-218.75 L 12.1841,-219.05
 L 11.832,-219.392 L 11.5212,-219.773 L 11.2558,-220.186 L 11.0392,-220.626 L 10.8742,-221.089 L 10.763,-221.567
 L 10.707,-222.055 L 10.707,-222.545 L 10.763,-223.033 L 10.8742,-223.511 L 11.0392,-223.974 L 11.2558,-224.414
 L 11.5212,-224.827 L 11.832,-225.208 L 12.1841,-225.55 L 12.5729,-225.85 L 12.9933,-226.103 L 13.4399,-226.307
 L 13.9069,-226.459 L 14.388,-226.556 L 14.8772,-226.598 L 15.368,-226.584 L 15.8539,-226.514 L 16.3288,-226.39
 L 16.7863,-226.211 L 17.2205,-225.982 L 17.6258,-225.705 L 17.9968,-225.384 L 18.3288,-225.022 L 18.6174,-224.625
 L 18.8588,-224.197 L 19.0499,-223.745 L 19.1882,-223.274 L 19.272,-222.79 L 19.3,-222.3 L 19.272,-221.81
 L 19.1882,-221.326 L 19.0499,-220.855 L 18.8588,-220.403 L 18.6174,-219.975 L 18.3288,-219.578 L 17.9968,-219.216
 L 17.6258,-218.895 L 17.2205,-218.618 L 16.7863,-218.389 L 16.3288,-218.21 L 15.8539,-218.086 L 15.368,-218.016
 L 14.8772,-218.002 z
M 438.988,-218.044 L 438.507,-218.141 L 438.04,-218.293 L 437.593,-218.497 L 437.173,-218.75 L 436.784,-219.05
 L 436.432,-219.392 L 436.121,-219.773 L 435.856,-220.186 L 435.639,-220.626 L 435.474,-221.089 L 435.363,-221.567
 L 435.307,-222.055 L 435.307,-222.545 L 435.363,-223.033 L 435.474,-223.511 L 435.639,-223.974 L 435.856,-224.414
 L 436.121,-224.827 L 436.432,-225.208 L 436.784,-225.55 L 437.173,-225.85 L 437.593,-226.103 L 438.04,-226.307
 L 438.507,-226.459 L 438.988,-226.556 L 439.477,-226.598 L 439.968,-226.584 L 440.454,-226.514 L 440.929,-226.39
 L 441.386,-226.211 L 441.82,-225.982 L 442.226,-225.705 L 442.597,-225.384 L 442.929,-225.022 L 443.217,-224.625
 L 443.459,-224.197 L 443.65,-223.745 L 443.788,-223.274 L 443.872,-222.79 L 443.9,-222.3 L 443.872,-221.81
 L 443.788,-221.326 L 443.65,-220.855 L 443.459,-220.403 L 443.217,-219.975 L 442.929,-219.578 L 442.597,-219.216
 L 442.226,-218.895 L 441.82,-218.618 L 441.386,-218.389 L 440.929,-218.21 L 440.454,-218.086 L 439.968,-218.016
 L 439.477,-218.002 z
M 325.242,-221.375 L 324.774,-221.49 L 324.347,-221.714 L 323.986,-222.034 L 323.712,-222.431 L 323.541,-222.881
 L 323.483,-223.36 L 323.541,-223.839 L 323.712,-224.289 L 323.986,-224.686 L 324.347,-225.006 L 324.774,-225.23
 L 325.242,-225.345 L 325.724,-225.345 L 326.193,-225.23 L 326.619,-225.006 L 326.98,-224.686 L 327.254,-224.289
 L 327.425,-223.839 L 327.483,-223.36 L 327.425,-222.881 L 327.254,-222.431 L 326.98,-222.034 L 326.619,-221.714
 L 326.193,-221.49 L 325.724,-221.375 z
M 158.576,-221.375 L 158.107,-221.49 L 157.681,-221.714 L 157.32,-222.034 L 157.046,-222.431 L 156.875,-222.881
 L 156.817,-223.36 L 156.875,-223.839 L 157.046,-224.289 L 157.32,-224.686 L 157.681,-225.006 L 158.107,-225.23
 L 158.576,-225.345 L 159.058,-225.345 L 159.526,-225.23 L 159.953,-225.006 L 160.314,-224.686 L 160.588,-224.289
 L 160.759,-223.839 L 160.817,-223.36 L 160.759,-222.881 L 160.588,-222.431 L 160.314,-222.034 L 159.953,-221.714
 L 159.526,-221.49 L 159.058,-221.375 z
M 295.642,-221.375 L 295.174,-221.49 L 294.747,-221.714 L 294.386,-222.034 L 294.112,-222.431 L 293.941,-222.881
 L 293.883,-223.36 L 293.941,-223.839 L 294.112,-224.289 L 294.386,-224.686 L 294.747,-225.006 L 295.174,-225.23
 L 295.642,-225.345 L 296.124,-225.345 L 296.593,-225.23 L 297.019,-225.006 L 297.38,-224.686 L 297.654,-224.289
 L 297.825,-223.839 L 297.883,-223.36 L 297.825,-222.881 L 297.654,-222.431 L 297.38,-222.034 L 297.019,-221.714
 L 296.593,-221.49 L 296.124,-221.375 z
M 128.976,-221.375 L 128.507,-221.49 L 128.081,-221.714 L 127.72,-222.034 L 127.446,-222.431 L 127.275,-222.881
 L 127.217,-223.36 L 127.275,-223.839 L 127.446,-224.289 L 127.72,-224.686 L 128.081,-225.006 L 128.507,-225.23
 L 128.976,-225.345 L 129.458,-225.345 L 129.926,-225.23 L 130.353,-225.006 L 130.714,-224.686 L 130.988,-224.289
 L 131.159,-223.839 L 131.217,-223.36 L 131.159,-222.881 L 130.988,-222.431 L 130.714,-222.034 L 130.353,-221.714
 L 129.926,-221.49 L 129.458,-221.375 z
M 295.642,-205.165 L 295.174,-205.28 L 294.747,-205.504 L 294.386,-205.824 L 294.112,-206.221 L 293.941,-206.671
 L 293.883,-207.15 L 293.941,-207.629 L 294.112,-208.079 L 294.386,-208.476 L 294.747,-208.796 L 295.174,-209.02
 L 295.642,-209.135 L 296.124,-209.135 L 296.593,-209.02 L 297.019,-208.796 L 297.38,-208.476 L 297.654,-208.079
 L 297.825,-207.629 L 297.883,-207.15 L 297.825,-206.671 L 297.654,-206.221 L 297.38,-205.824 L 297.019,-205.504
 L 296.593,-205.28 L 296.124,-205.165 z
M 158.576,-205.165 L 158.107,-205.28 L 157.681,-205.504 L 157.32,-205.824 L 157.046,-206.221 L 156.875,-206.671
 L 156.817,-207.15 L 156.875,-207.629 L 157.046,-208.079 L 157.32,-208.476 L 157.681,-208.796 L 158.107,-209.02
 L 158.576,-209.135 L 159.058,-209.135 L 159.526,-209.02 L 159.953,-208.796 L 160.314,-208.476 L 160.588,-208.079
 L 160.759,-207.629 L 160.817,-207.15 L 160.759,-206.671 L 160.588,-206.221 L 160.314,-205.824 L 159.953,-205.504
 L 159.526,-205.28 L 159.058,-205.165 z
M 128.976,-205.165 L 128.507,-205.28 L 128.081,-205.504 L 127.72,-205.824 L 127.446,-206.221 L 127.275,-206.671
 L 127.217,-207.15 L 127.275,-207.629 L 127.446,-208.079 L 127.72,-208.476 L 128.081,-208.796 L 128.507,-209.02
 L 128.976,-209.135 L 129.458,-209.135 L 129.926,-209.02 L 130.353,-208.796 L 130.714,-208.476 L 130.988,-208.079
 L 131.159,-207.629 L 131.217,-207.15 L 131.159,-206.671 L 130.988,-206.221 L 130.714,-205.824 L 130.353,-205.504
 L 129.926,-205.28 L 129.458,-205.165 z
M 325.242,-205.165 L 324.774,-205.28 L 324.347,-205.504 L 323.986,-205.824 L 323.712,-206.221 L 323.541,-206.671
 L 323.483,-207.15 L 323.541,-207.629 L 323.712,-208.079 L 323.986,-208.476 L 324.347,-208.796 L 324.774,-209.02
 L 325.242,-209.135 L 325.724,-209.135 L 326.193,-209.02 L 326.619,-208.796 L 326.98,-208.476 L 327.254,-208.079
 L 327.425,-207.629 L 327.483,-207.15 L 327.425,-206.671 L 327.254,-206.221 L 326.98,-205.824 L 326.619,-205.504
 L 326.193,-205.28 L 325.724,-205.165 z
M 213.682,-131.248 L 213.124,-131.532 L 212.682,-131.974 L 212.398,-132.532 L 212.3,-133.15 L 212.398,-133.768
 L 212.682,-134.326 L 213.124,-134.768 L 213.682,-135.052 L 214.3,-135.15 L 214.918,-135.052 L 215.476,-134.768
 L 215.918,-134.326 L 216.202,-133.768 L 216.3,-133.15 L 216.202,-132.532 L 215.918,-131.974 L 215.476,-131.532
 L 214.918,-131.248 L 214.3,-131.15 z
M 239.682,-131.248 L 239.124,-131.532 L 238.682,-131.974 L 238.398,-132.532 L 238.3,-133.15 L 238.398,-133.768
 L 238.682,-134.326 L 239.124,-134.768 L 239.682,-135.052 L 240.3,-135.15 L 240.918,-135.052 L 241.476,-134.768
 L 241.918,-134.326 L 242.202,-133.768 L 242.3,-133.15 L 242.202,-132.532 L 241.918,-131.974 L 241.476,-131.532
 L 240.918,-131.248 L 240.3,-131.15 z
M 213.682,-102.248 L 213.124,-102.532 L 212.682,-102.974 L 212.398,-103.532 L 212.3,-104.15 L 212.398,-104.768
 L 212.682,-105.326 L 213.124,-105.768 L 213.682,-106.052 L 214.3,-106.15 L 214.918,-106.052 L 215.476,-105.768
 L 215.918,-105.326 L 216.202,-104.768 L 216.3,-104.15 L 216.202,-103.532 L 215.918,-102.974 L 215.476,-102.532
 L 214.918,-102.248 L 214.3,-102.15 z
M 239.682,-102.248 L 239.124,-102.532 L 238.682,-102.974 L 238.398,-103.532 L 238.3,-104.15 L 238.398,-104.768
 L 238.682,-105.326 L 239.124,-105.768 L 239.682,-106.052 L 240.3,-106.15 L 240.918,-106.052 L 241.476,-105.768
 L 241.918,-105.326 L 242.202,-104.768 L 242.3,-104.15 L 242.202,-103.532 L 241.918,-102.974 L 241.476,-102.532
 L 240.918,-102.248 L 240.3,-102.15 z
M 158.576,-28.0746 L 158.107,-28.19 L 157.681,-28.414 L 157.32,-28.7337 L 157.046,-29.1306 L 156.875,-29.5814
 L 156.817,-30.06 L 156.875,-30.5386 L 157.046,-30.9894 L 157.32,-31.3862 L 157.681,-31.706 L 158.107,-31.93
 L 158.576,-32.0454 L 159.058,-32.0454 L 159.526,-31.93 L 159.953,-31.706 L 160.314,-31.3862 L 160.588,-30.9894
 L 160.759,-30.5386 L 160.817,-30.06 L 160.759,-29.5814 L 160.588,-29.1306 L 160.314,-28.7337 L 159.953,-28.414
 L 159.526,-28.19 L 159.058,-28.0746 z
M 325.242,-28.0746 L 324.774,-28.19 L 324.347,-28.414 L 323.986,-28.7337 L 323.712,-29.1306 L 323.541,-29.5814
 L 323.483,-30.06 L 323.541,-30.5386 L 323.712,-30.9894 L 323.986,-31.3862 L 324.347,-31.706 L 324.774,-31.93
 L 325.242,-32.0454 L 325.724,-32.0454 L 326.193,-31.93 L 326.619,-31.706 L 326.98,-31.3862 L 327.254,-30.9894
 L 327.425,-30.5386 L 327.483,-30.06 L 327.425,-29.5814 L 327.254,-29.1306 L 326.98,-28.7337 L 326.619,-28.414
 L 326.193,-28.19 L 325.724,-28.0746 z
M 295.642,-28.0746 L 295.174,-28.19 L 294.747,-28.414 L 294.386,-28.7337 L 294.112,-29.1306 L 293.941,-29.5814
 L 293.883,-30.06 L 293.941,-30.5386 L 294.112,-30.9894 L 294.386,-31.3862 L 294.747,-31.706 L 295.174,-31.93
 L 295.642,-32.0454 L 296.124,-32.0454 L 296.593,-31.93 L 297.019,-31.706 L 297.38,-31.3862 L 297.654,-30.9894
 L 297.825,-30.5386 L 297.883,-30.06 L 297.825,-29.5814 L 297.654,-29.1306 L 297.38,-28.7337 L 297.019,-28.414
 L 296.593,-28.19 L 296.124,-28.0746 z
M 128.976,-28.0746 L 128.507,-28.19 L 128.081,-28.414 L 127.72,-28.7337 L 127.446,-29.1306 L 127.275,-29.5814
 L 127.217,-30.06 L 127.275,-30.5386 L 127.446,-30.9894 L 127.72,-31.3862 L 128.081,-31.706 L 128.507,-31.93
 L 128.976,-32.0454 L 129.458,-32.0454 L 129.926,-31.93 L 130.353,-31.706 L 130.714,-31.3862 L 130.988,-30.9894
 L 131.159,-30.5386 L 131.217,-30.06 L 131.159,-29.5814 L 130.988,-29.1306 L 130.714,-28.7337 L 130.353,-28.414
 L 129.926,-28.19 L 129.458,-28.0746 z
M 14.388,-10.7438 L 13.9069,-10.8413 L 13.4399,-10.993 L 12.9933,-11.1969 L 12.5729,-11.4505 L 12.1841,-11.7503
 L 11.832,-12.0924 L 11.5212,-12.4725 L 11.2558,-12.8855 L 11.0392,-13.3261 L 10.8742,-13.7885 L 10.763,-14.2668
 L 10.707,-14.7545 L 10.707,-15.2455 L 10.763,-15.7332 L 10.8742,-16.2114 L 11.0392,-16.6739 L 11.2558,-17.1144
 L 11.5212,-17.5275 L 11.832,-17.9075 L 12.1841,-18.2497 L 12.5729,-18.5495 L 12.9933,-18.8031 L 13.4399,-19.007
 L 13.9069,-19.1587 L 14.388,-19.2562 L 14.8772,-19.2982 L 15.368,-19.2842 L 15.8539,-19.2144 L 16.3288,-19.0895
 L 16.7863,-18.9114 L 17.2205,-18.6823 L 17.6258,-18.4052 L 17.9968,-18.0837 L 18.3288,-17.722 L 18.6174,-17.3248
 L 18.8588,-16.8972 L 19.0499,-16.445 L 19.1882,-15.9739 L 19.272,-15.4902 L 19.3,-15 L 19.272,-14.5098
 L 19.1882,-14.0261 L 19.0499,-13.555 L 18.8588,-13.1027 L 18.6174,-12.6752 L 18.3288,-12.278 L 17.9968,-11.9163
 L 17.6258,-11.5948 L 17.2205,-11.3177 L 16.7863,-11.0886 L 16.3288,-10.9104 L 15.8539,-10.7856 L 15.368,-10.7158
 L 14.8772,-10.7018 z
M 438.988,-10.7438 L 438.507,-10.8413 L 438.04,-10.993 L 437.593,-11.1969 L 437.173,-11.4505 L 436.784,-11.7503
 L 436.432,-12.0924 L 436.121,-12.4725 L 435.856,-12.8855 L 435.639,-13.3261 L 435.474,-13.7885 L 435.363,-14.2668
 L 435.307,-14.7545 L 435.307,-15.2455 L 435.363,-15.7332 L 435.474,-16.2114 L 435.639,-16.6739 L 435.856,-17.1144
 L 436.121,-17.5275 L 436.432,-17.9075 L 436.784,-18.2497 L 437.173,-18.5495 L 437.593,-18.8031 L 438.04,-19.007
 L 438.507,-19.1587 L 438.988,-19.2562 L 439.477,-19.2982 L 439.968,-19.2842 L 440.454,-19.2144 L 440.929,-19.0895
 L 441.386,-18.9114 L 441.82,-18.6823 L 442.226,-18.4052 L 442.597,-18.0837 L 442.929,-17.722 L 443.217,-17.3248
 L 443.459,-16.8972 L 443.65,-16.445 L 443.788,-15.9739 L 443.872,-15.4902 L 443.9,-15 L 443.872,-14.5098
 L 443.788,-14.0261 L 443.65,-13.555 L 443.459,-13.1027 L 443.217,-12.6752 L 442.929,-12.278 L 442.597,-11.9163
 L 442.226,-11.5948 L 441.82,-11.3177 L 441.386,-11.0886 L 440.929,-10.9104 L 440.454,-10.7856 L 439.968,-10.7158
 L 439.477,-10.7018 z
M 325.242,-11.8646 L 324.774,-11.98 L 324.347,-12.204 L 323.986,-12.5237 L 323.712,-12.9205 L 323.541,-13.3714
 L 323.483,-13.85 L 323.541,-14.3286 L 323.712,-14.7794 L 323.986,-15.1762 L 324.347,-15.496 L 324.774,-15.72
 L 325.242,-15.8354 L 325.724,-15.8354 L 326.193,-15.72 L 326.619,-15.496 L 326.98,-15.1762 L 327.254,-14.7794
 L 327.425,-14.3286 L 327.483,-13.85 L 327.425,-13.3714 L 327.254,-12.9205 L 326.98,-12.5237 L 326.619,-12.204
 L 326.193,-11.98 L 325.724,-11.8646 z
M 295.642,-11.8646 L 295.174,-11.98 L 294.747,-12.204 L 294.386,-12.5237 L 294.112,-12.9205 L 293.941,-13.3714
 L 293.883,-13.85 L 293.941,-14.3286 L 294.112,-14.7794 L 294.386,-15.1762 L 294.747,-15.496 L 295.174,-15.72
 L 295.642,-15.8354 L 296.124,-15.8354 L 296.593,-15.72 L 297.019,-15.496 L 297.38,-15.1762 L 297.654,-14.7794
 L 297.825,-14.3286 L 297.883,-13.85 L 297.825,-13.3714 L 297.654,-12.9205 L 297.38,-12.5237 L 297.019,-12.204
 L 296.593,-11.98 L 296.124,-11.8646 z
M 128.976,-11.8646 L 128.507,-11.98 L 128.081,-12.204 L 127.72,-12.5237 L 127.446,-12.9205 L 127.275,-13.3714
 L 127.217,-13.85 L 127.275,-14.3286 L 127.446,-14.7794 L 127.72,-15.1762 L 128.081,-15.496 L 128.507,-15.72
 L 128.976,-15.8354 L 129.458,-15.8354 L 129.926,-15.72 L 130.353,-15.496 L 130.714,-15.1762 L 130.988,-14.7794
 L 131.159,-14.3286 L 131.217,-13.85 L 131.159,-13.3714 L 130.988,-12.9205 L 130.714,-12.5237 L 130.353,-12.204
 L 129.926,-11.98 L 129.458,-11.8646 z
M 158.576,-11.8646 L 158.107,-11.98 L 157.681,-12.204 L 157.32,-12.5237 L 157.046,-12.9205 L 156.875,-13.3714
 L 156.817,-13.85 L 156.875,-14.3286 L 157.046,-14.7794 L 157.32,-15.1762 L 157.681,-15.496 L 158.107,-15.72
 L 158.576,-15.8354 L 159.058,-15.8354 L 159.526,-15.72 L 159.953,-15.496 L 160.314,-15.1762 L 160.588,-14.7794
 L 160.759,-14.3286 L 160.817,-13.85 L 160.759,-13.3714 L 160.588,-12.9205 L 160.314,-12.5237 L 159.953,-12.204
 L 159.526,-11.98 L 159.058,-11.8646 z
" stroke="black" fill="lightgray" stroke-width="0.5"/></svg>
