<?xml version="1.0" standalone="no"?>
<!DOCTYPE svg PUBLIC "-//W3C//DTD SVG 1.1//EN" "http://www.w3.org/Graphics/SVG/1.1/DTD/svg11.dtd">
<svg width="1600" height="1500" viewBox="-550 -1100 1600 1500" xmlns="http://www.w3.org/2000/svg" version="1.1">
<title>OpenSCAD Model</title>
<path d="
M 500,-1100 L 0,-1100 L 0,-600 L 500,-600 z
M -50,-1060 L -150,-1060 L -150,-1000 L -50,-1000 z
M -100.621,-1024.02 L -101.117,-1024.06 L -101.61,-1024.12 L -102.1,-1024.2 L -102.586,-1024.31 L -103.067,-1024.44
 L -103.541,-1024.59 L -104.008,-1024.76 L -104.467,-1024.95 L -104.916,-1025.16 L -105.356,-1025.39 L -105.785,-1025.64
 L -106.201,-1025.91 L -106.606,-1026.2 L -106.996,-1026.51 L -107.373,-1026.84 L -107.734,-1027.18 L -108.08,-1027.54
 L -108.409,-1027.91 L -108.721,-1028.3 L -109.015,-1028.7 L -109.29,-1029.11 L -109.547,-1029.54 L -109.784,-1029.97
 L -110.001,-1030.42 L -110.198,-1030.88 L -110.374,-1031.34 L -110.529,-1031.81 L -110.662,-1032.29 L -110.773,-1032.78
 L -110.863,-1033.27 L -110.93,-1033.76 L -110.975,-1034.25 L -110.997,-1034.75 L -110.997,-1035.25 L -110.975,-1035.75
 L -110.93,-1036.24 L -110.863,-1036.73 L -110.773,-1037.22 L -110.662,-1037.71 L -110.529,-1038.19 L -110.374,-1038.66
 L -110.198,-1039.12 L -110.001,-1039.58 L -109.784,-1040.03 L -109.547,-1040.46 L -109.29,-1040.89 L -109.015,-1041.3
 L -108.721,-1041.7 L -108.409,-1042.09 L -108.08,-1042.46 L -107.734,-1042.82 L -107.373,-1043.16 L -106.996,-1043.49
 L -106.606,-1043.8 L -106.201,-1044.09 L -105.785,-1044.36 L -105.356,-1044.61 L -104.916,-1044.84 L -104.467,-1045.05
 L -104.008,-1045.24 L -103.541,-1045.41 L -103.067,-1045.56 L -102.586,-1045.69 L -102.1,-1045.8 L -101.61,-1045.88
 L -101.117,-1045.94 L -100.621,-1045.98 L -100.124,-1046 L -99.6272,-1045.99 L -99.1308,-1045.97 L -98.6361,-1045.92
 L -98.1443,-1045.84 L -97.6563,-1045.75 L -97.173,-1045.63 L -96.6955,-1045.49 L -96.2248,-1045.33 L -95.7618,-1045.15
 L -95.3074,-1044.95 L -94.8627,-1044.73 L -94.4284,-1044.48 L -94.0055,-1044.22 L -93.5948,-1043.94 L -93.1973,-1043.64
 L -92.8136,-1043.33 L -92.4446,-1042.99 L -92.0911,-1042.65 L -91.7537,-1042.28 L -91.4332,-1041.9 L -91.1301,-1041.51
 L -90.8452,-1041.1 L -90.579,-1040.68 L -90.332,-1040.25 L -90.1048,-1039.8 L -89.8978,-1039.35 L -89.7114,-1038.89
 L -89.5461,-1038.42 L -89.4021,-1037.95 L -89.2798,-1037.47 L -89.1793,-1036.98 L -89.101,-1036.49 L -89.0449,-1035.99
 L -89.0112,-1035.5 L -89,-1035 L -89.0112,-1034.5 L -89.0449,-1034.01 L -89.101,-1033.51 L -89.1793,-1033.02
 L -89.2798,-1032.53 L -89.4021,-1032.05 L -89.5461,-1031.58 L -89.7114,-1031.11 L -89.8978,-1030.65 L -90.1048,-1030.2
 L -90.332,-1029.75 L -90.579,-1029.32 L -90.8452,-1028.9 L -91.1301,-1028.49 L -91.4332,-1028.1 L -91.7537,-1027.72
 L -92.0911,-1027.35 L -92.4446,-1027.01 L -92.8136,-1026.67 L -93.1973,-1026.36 L -93.5948,-1026.06 L -94.0055,-1025.78
 L -94.4284,-1025.52 L -94.8627,-1025.27 L -95.3074,-1025.05 L -95.7618,-1024.85 L -96.2248,-1024.67 L -96.6955,-1024.51
 L -97.173,-1024.37 L -97.6563,-1024.25 L -98.1443,-1024.16 L -98.6361,-1024.08 L -99.1308,-1024.03 L -99.6272,-1024.01
 L -100.124,-1024 z
M -130.614,-1026.05 L -131.095,-1026.15 L -131.559,-1026.32 L -132,-1026.54 L -132.411,-1026.81 L -132.785,-1027.13
 L -133.116,-1027.49 L -133.401,-1027.89 L -133.634,-1028.33 L -133.812,-1028.79 L -133.932,-1029.27 L -133.992,-1029.75
 L -133.992,-1030.25 L -133.932,-1030.73 L -133.812,-1031.21 L -133.634,-1031.67 L -133.401,-1032.11 L -133.116,-1032.51
 L -132.785,-1032.87 L -132.411,-1033.19 L -132,-1033.46 L -131.559,-1033.68 L -131.095,-1033.85 L -130.614,-1033.95
 L -130.123,-1034 L -129.631,-1033.98 L -129.144,-1033.91 L -128.671,-1033.77 L -128.217,-1033.58 L -127.791,-1033.33
 L -127.398,-1033.04 L -127.044,-1032.69 L -126.735,-1032.31 L -126.476,-1031.89 L -126.27,-1031.44 L -126.121,-1030.98
 L -126.03,-1030.49 L -126,-1030 L -126.03,-1029.51 L -126.121,-1029.02 L -126.27,-1028.56 L -126.476,-1028.11
 L -126.735,-1027.69 L -127.044,-1027.31 L -127.398,-1026.96 L -127.791,-1026.67 L -128.217,-1026.42 L -128.671,-1026.23
 L -129.144,-1026.09 L -129.631,-1026.02 L -130.123,-1026 z
M -70.6136,-1026.05 L -71.0947,-1026.15 L -71.5591,-1026.32 L -72,-1026.54 L -72.4105,-1026.81 L -72.7845,-1027.13
 L -73.1163,-1027.49 L -73.4009,-1027.89 L -73.6339,-1028.33 L -73.8118,-1028.79 L -73.9319,-1029.27 L -73.9924,-1029.75
 L -73.9924,-1030.25 L -73.9319,-1030.73 L -73.8118,-1031.21 L -73.6339,-1031.67 L -73.4009,-1032.11 L -73.1163,-1032.51
 L -72.7845,-1032.87 L -72.4105,-1033.19 L -72,-1033.46 L -71.5591,-1033.68 L -71.0947,-1033.85 L -70.6136,-1033.95
 L -70.1232,-1034 L -69.6309,-1033.98 L -69.1443,-1033.91 L -68.6706,-1033.77 L -68.217,-1033.58 L -67.7905,-1033.33
 L -67.3975,-1033.04 L -67.044,-1032.69 L -66.7352,-1032.31 L -66.476,-1031.89 L -66.2701,-1031.44 L -66.1208,-1030.98
 L -66.0303,-1030.49 L -66,-1030 L -66.0303,-1029.51 L -66.1208,-1029.02 L -66.2701,-1028.56 L -66.476,-1028.11
 L -66.7352,-1027.69 L -67.044,-1027.31 L -67.3975,-1026.96 L -67.7905,-1026.67 L -68.217,-1026.42 L -68.6706,-1026.23
 L -69.1443,-1026.09 L -69.6309,-1026.02 L -70.1232,-1026 z
M -50,-950 L -150,-950 L -150,-700 L -50,-700 z
M -120.329,-912.908 L -120.779,-913.079 L -121.176,-913.353 L -121.496,-913.714 L -121.72,-914.141 L -121.835,-914.609
 L -121.835,-915.091 L -121.72,-915.559 L -121.496,-915.986 L -121.176,-916.347 L -120.779,-916.621 L -120.329,-916.792
 L -119.85,-916.85 L -119.371,-916.792 L -118.921,-916.621 L -118.524,-916.347 L -118.204,-915.986 L -117.98,-915.559
 L -117.865,-915.091 L -117.865,-914.609 L -117.98,-914.141 L -118.204,-913.714 L -118.524,-913.353 L -118.921,-913.079
 L -119.371,-912.908 L -119.85,-912.85 z
M -80.5386,-912.908 L -80.9894,-913.079 L -81.3862,-913.353 L -81.706,-913.714 L -81.93,-914.141 L -82.0454,-914.609
 L -82.0454,-915.091 L -81.93,-915.559 L -81.706,-915.986 L -81.3862,-916.347 L -80.9894,-916.621 L -80.5386,-916.792
 L -80.06,-916.85 L -79.5814,-916.792 L -79.1306,-916.621 L -78.7337,-916.347 L -78.414,-915.986 L -78.19,-915.559
 L -78.0746,-915.091 L -78.0746,-914.609 L -78.19,-914.141 L -78.414,-913.714 L -78.7337,-913.353 L -79.1306,-913.079
 L -79.5814,-912.908 L -80.06,-912.85 z
M -136.539,-912.908 L -136.989,-913.079 L -137.386,-913.353 L -137.706,-913.714 L -137.93,-914.141 L -138.045,-914.609
 L -138.045,-915.091 L -137.93,-915.559 L -137.706,-915.986 L -137.386,-916.347 L -136.989,-916.621 L -136.539,-916.792
 L -136.06,-916.85 L -135.581,-916.792 L -135.131,-916.621 L -134.734,-916.347 L -134.414,-915.986 L -134.19,-915.559
 L -134.075,-915.091 L -134.075,-914.609 L -134.19,-914.141 L -134.414,-913.714 L -134.734,-913.353 L -135.131,-913.079
 L -135.581,-912.908 L -136.06,-912.85 z
M -64.3286,-912.908 L -64.7794,-913.079 L -65.1762,-913.353 L -65.496,-913.714 L -65.72,-914.141 L -65.8354,-914.609
 L -65.8354,-915.091 L -65.72,-915.559 L -65.496,-915.986 L -65.1762,-916.347 L -64.7794,-916.621 L -64.3286,-916.792
 L -63.85,-916.85 L -63.3714,-916.792 L -62.9205,-916.621 L -62.5237,-916.347 L -62.204,-915.986 L -61.98,-915.559
 L -61.8646,-915.091 L -61.8646,-914.609 L -61.98,-914.141 L -62.204,-913.714 L -62.5237,-913.353 L -62.9205,-913.079
 L -63.3714,-912.908 L -63.85,-912.85 z
M -64.3286,-883.308 L -64.7794,-883.479 L -65.1762,-883.753 L -65.496,-884.114 L -65.72,-884.541 L -65.8354,-885.009
 L -65.8354,-885.491 L -65.72,-885.959 L -65.496,-886.386 L -65.1762,-886.747 L -64.7794,-887.021 L -64.3286,-887.192
 L -63.85,-887.25 L -63.3714,-887.192 L -62.9205,-887.021 L -62.5237,-886.747 L -62.204,-886.386 L -61.98,-885.959
 L -61.8646,-885.491 L -61.8646,-885.009 L -61.98,-884.541 L -62.204,-884.114 L -62.5237,-883.753 L -62.9205,-883.479
 L -63.3714,-883.308 L -63.85,-883.25 z
M -136.539,-883.308 L -136.989,-883.479 L -137.386,-883.753 L -137.706,-884.114 L -137.93,-884.541 L -138.045,-885.009
 L -138.045,-885.491 L -137.93,-885.959 L -137.706,-886.386 L -137.386,-886.747 L -136.989,-887.021 L -136.539,-887.192
 L -136.06,-887.25 L -135.581,-887.192 L -135.131,-887.021 L -134.734,-886.747 L -134.414,-886.386 L -134.19,-885.959
 L -134.075,-885.491 L -134.075,-885.009 L -134.19,-884.541 L -134.414,-884.114 L -134.734,-883.753 L -135.131,-883.479
 L -135.581,-883.308 L -136.06,-883.25 z
M -120.329,-883.308 L -120.779,-883.479 L -121.176,-883.753 L -121.496,-884.114 L -121.72,-884.541 L -121.835,-885.009
 L -121.835,-885.491 L -121.72,-885.959 L -121.496,-886.386 L -121.176,-886.747 L -120.779,-887.021 L -120.329,-887.192
 L -119.85,-887.25 L -119.371,-887.192 L -118.921,-887.021 L -118.524,-886.747 L -118.204,-886.386 L -117.98,-885.959
 L -117.865,-885.491 L -117.865,-885.009 L -117.98,-884.541 L -118.204,-884.114 L -118.524,-883.753 L -118.921,-883.479
 L -119.371,-883.308 L -119.85,-883.25 z
M -80.5386,-883.308 L -80.9894,-883.479 L -81.3862,-883.753 L -81.706,-884.114 L -81.93,-884.541 L -82.0454,-885.009
 L -82.0454,-885.491 L -81.93,-885.959 L -81.706,-886.386 L -81.3862,-886.747 L -80.9894,-887.021 L -80.5386,-887.192
 L -80.06,-887.25 L -79.5814,-887.192 L -79.1306,-887.021 L -78.7337,-886.747 L -78.414,-886.386 L -78.19,-885.959
 L -78.0746,-885.491 L -78.0746,-885.009 L -78.19,-884.541 L -78.414,-884.114 L -78.7337,-883.753 L -79.1306,-883.479
 L -79.5814,-883.308 L -80.06,-883.25 z
M -86.118,-836.098 L -86.6756,-836.382 L -87.118,-836.824 L -87.4021,-837.382 L -87.5,-838 L -87.4021,-838.618
 L -87.118,-839.176 L -86.6756,-839.618 L -86.118,-839.902 L -85.5,-840 L -84.882,-839.902 L -84.3244,-839.618
 L -83.882,-839.176 L -83.5979,-838.618 L -83.5,-838 L -83.5979,-837.382 L -83.882,-836.824 L -84.3244,-836.382
 L -84.882,-836.098 L -85.5,-836 z
M -115.118,-836.098 L -115.676,-836.382 L -116.118,-836.824 L -116.402,-837.382 L -116.5,-838 L -116.402,-838.618
 L -116.118,-839.176 L -115.676,-839.618 L -115.118,-839.902 L -114.5,-840 L -113.882,-839.902 L -113.324,-839.618
 L -112.882,-839.176 L -112.598,-838.618 L -112.5,-838 L -112.598,-837.382 L -112.882,-836.824 L -113.324,-836.382
 L -113.882,-836.098 L -114.5,-836 z
M -115.118,-810.098 L -115.676,-810.382 L -116.118,-810.824 L -116.402,-811.382 L -116.5,-812 L -116.402,-812.618
 L -116.118,-813.176 L -115.676,-813.618 L -115.118,-813.902 L -114.5,-814 L -113.882,-813.902 L -113.324,-813.618
 L -112.882,-813.176 L -112.598,-812.618 L -112.5,-812 L -112.598,-811.382 L -112.882,-810.824 L -113.324,-810.382
 L -113.882,-810.098 L -114.5,-810 z
M -86.118,-810.098 L -86.6756,-810.382 L -87.118,-810.824 L -87.4021,-811.382 L -87.5,-812 L -87.4021,-812.618
 L -87.118,-813.176 L -86.6756,-813.618 L -86.118,-813.902 L -85.5,-814 L -84.882,-813.902 L -84.3244,-813.618
 L -83.882,-813.176 L -83.5979,-812.618 L -83.5,-812 L -83.5979,-811.382 L -83.882,-810.824 L -84.3244,-810.382
 L -84.882,-810.098 L -85.5,-810 z
M -64.3286,-762.908 L -64.7794,-763.079 L -65.1762,-763.353 L -65.496,-763.714 L -65.72,-764.141 L -65.8354,-764.609
 L -65.8354,-765.091 L -65.72,-765.559 L -65.496,-765.986 L -65.1762,-766.347 L -64.7794,-766.621 L -64.3286,-766.792
 L -63.85,-766.85 L -63.3714,-766.792 L -62.9205,-766.621 L -62.5237,-766.347 L -62.204,-765.986 L -61.98,-765.559
 L -61.8646,-765.091 L -61.8646,-764.609 L -61.98,-764.141 L -62.204,-763.714 L -62.5237,-763.353 L -62.9205,-763.079
 L -63.3714,-762.908 L -63.85,-762.85 z
M -136.539,-762.908 L -136.989,-763.079 L -137.386,-763.353 L -137.706,-763.714 L -137.93,-764.141 L -138.045,-764.609
 L -138.045,-765.091 L -137.93,-765.559 L -137.706,-765.986 L -137.386,-766.347 L -136.989,-766.621 L -136.539,-766.792
 L -136.06,-766.85 L -135.581,-766.792 L -135.131,-766.621 L -134.734,-766.347 L -134.414,-765.986 L -134.19,-765.559
 L -134.075,-765.091 L -134.075,-764.609 L -134.19,-764.141 L -134.414,-763.714 L -134.734,-763.353 L -135.131,-763.079
 L -135.581,-762.908 L -136.06,-762.85 z
M -120.329,-762.908 L -120.779,-763.079 L -121.176,-763.353 L -121.496,-763.714 L -121.72,-764.141 L -121.835,-764.609
 L -121.835,-765.091 L -121.72,-765.559 L -121.496,-765.986 L -121.176,-766.347 L -120.779,-766.621 L -120.329,-766.792
 L -119.85,-766.85 L -119.371,-766.792 L -118.921,-766.621 L -118.524,-766.347 L -118.204,-765.986 L -117.98,-765.559
 L -117.865,-765.091 L -117.865,-764.609 L -117.98,-764.141 L -118.204,-763.714 L -118.524,-763.353 L -118.921,-763.079
 L -119.371,-762.908 L -119.85,-762.85 z
M -80.5386,-762.908 L -80.9894,-763.079 L -81.3862,-763.353 L -81.706,-763.714 L -81.93,-764.141 L -82.0454,-764.609
 L -82.0454,-765.091 L -81.93,-765.559 L -81.706,-765.986 L -81.3862,-766.347 L -80.9894,-766.621 L -80.5386,-766.792
 L -80.06,-766.85 L -79.5814,-766.792 L -79.1306,-766.621 L -78.7337,-766.347 L -78.414,-765.986 L -78.19,-765.559
 L -78.0746,-765.091 L -78.0746,-764.609 L -78.19,-764.141 L -78.414,-763.714 L -78.7337,-763.353 L -79.1306,-763.079
 L -79.5814,-762.908 L -80.06,-762.85 z
M -136.539,-733.308 L -136.989,-733.479 L -137.386,-733.753 L -137.706,-734.114 L -137.93,-734.541 L -138.045,-735.009
 L -138.045,-735.491 L -137.93,-735.959 L -137.706,-736.386 L -137.386,-736.747 L -136.989,-737.021 L -136.539,-737.192
 L -136.06,-737.25 L -135.581,-737.192 L -135.131,-737.021 L -134.734,-736.747 L -134.414,-736.386 L -134.19,-735.959
 L -134.075,-735.491 L -134.075,-735.009 L -134.19,-734.541 L -134.414,-734.114 L -134.734,-733.753 L -135.131,-733.479
 L -135.581,-733.308 L -136.06,-733.25 z
M -120.329,-733.308 L -120.779,-733.479 L -121.176,-733.753 L -121.496,-734.114 L -121.72,-734.541 L -121.835,-735.009
 L -121.835,-735.491 L -121.72,-735.959 L -121.496,-736.386 L -121.176,-736.747 L -120.779,-737.021 L -120.329,-737.192
 L -119.85,-737.25 L -119.371,-737.192 L -118.921,-737.021 L -118.524,-736.747 L -118.204,-736.386 L -117.98,-735.959
 L -117.865,-735.491 L -117.865,-735.009 L -117.98,-734.541 L -118.204,-734.114 L -118.524,-733.753 L -118.921,-733.479
 L -119.371,-733.308 L -119.85,-733.25 z
M -80.5386,-733.308 L -80.9894,-733.479 L -81.3862,-733.753 L -81.706,-734.114 L -81.93,-734.541 L -82.0454,-735.009
 L -82.0454,-735.491 L -81.93,-735.959 L -81.706,-736.386 L -81.3862,-736.747 L -80.9894,-737.021 L -80.5386,-737.192
 L -80.06,-737.25 L -79.5814,-737.192 L -79.1306,-737.021 L -78.7337,-736.747 L -78.414,-736.386 L -78.19,-735.959
 L -78.0746,-735.491 L -78.0746,-735.009 L -78.19,-734.541 L -78.414,-734.114 L -78.7337,-733.753 L -79.1306,-733.479
 L -79.5814,-733.308 L -80.06,-733.25 z
M -64.3286,-733.308 L -64.7794,-733.479 L -65.1762,-733.753 L -65.496,-734.114 L -65.72,-734.541 L -65.8354,-735.009
 L -65.8354,-735.491 L -65.72,-735.959 L -65.496,-736.386 L -65.1762,-736.747 L -64.7794,-737.021 L -64.3286,-737.192
 L -63.85,-737.25 L -63.3714,-737.192 L -62.9205,-737.021 L -62.5237,-736.747 L -62.204,-736.386 L -61.98,-735.959
 L -61.8646,-735.491 L -61.8646,-735.009 L -61.98,-734.541 L -62.204,-734.114 L -62.5237,-733.753 L -62.9205,-733.479
 L -63.3714,-733.308 L -63.85,-733.25 z
M -200,-937.1 L -300,-937.1 L -300,-877.1 L -200,-877.1 z
M -250.374,-892.105 L -250.872,-892.125 L -251.369,-892.163 L -251.865,-892.216 L -252.359,-892.287 L -252.85,-892.373
 L -253.338,-892.476 L -253.822,-892.595 L -254.302,-892.73 L -254.777,-892.881 L -255.247,-893.048 L -255.711,-893.23
 L -256.169,-893.427 L -256.62,-893.64 L -257.064,-893.867 L -257.5,-894.11 L -257.928,-894.366 L -258.346,-894.637
 L -258.756,-894.921 L -259.156,-895.219 L -259.546,-895.53 L -259.925,-895.853 L -260.294,-896.189 L -260.651,-896.538
 L -260.996,-896.897 L -261.329,-897.269 L -261.649,-897.651 L -261.957,-898.043 L -262.251,-898.445 L -262.532,-898.857
 L -262.799,-899.278 L -263.052,-899.708 L -263.291,-900.146 L -263.515,-900.592 L -263.723,-901.045 L -263.917,-901.504
 L -264.095,-901.97 L -264.258,-902.441 L -264.405,-902.918 L -264.536,-903.399 L -264.651,-903.884 L -264.75,-904.373
 L -264.832,-904.864 L -264.899,-905.359 L -264.948,-905.855 L -264.981,-906.352 L -264.998,-906.851 L -264.998,-907.349
 L -264.981,-907.848 L -264.948,-908.345 L -264.899,-908.841 L -264.832,-909.336 L -264.75,-909.827 L -264.651,-910.316
 L -264.536,-910.801 L -264.405,-911.282 L -264.258,-911.759 L -264.095,-912.23 L -263.917,-912.696 L -263.723,-913.155
 L -263.515,-913.608 L -263.291,-914.054 L -263.052,-914.492 L -262.799,-914.922 L -262.532,-915.343 L -262.251,-915.755
 L -261.957,-916.157 L -261.649,-916.549 L -261.329,-916.931 L -260.996,-917.303 L -260.651,-917.662 L -260.294,-918.011
 L -259.925,-918.347 L -259.546,-918.67 L -259.156,-918.981 L -258.756,-919.279 L -258.346,-919.563 L -257.928,-919.834
 L -257.5,-920.09 L -257.064,-920.333 L -256.62,-920.56 L -256.169,-920.773 L -255.711,-920.97 L -255.247,-921.152
 L -254.777,-921.319 L -254.302,-921.47 L -253.822,-921.605 L -253.338,-921.724 L -252.85,-921.827 L -252.359,-921.913
 L -251.865,-921.984 L -251.369,-922.037 L -250.872,-922.075 L -250.374,-922.095 L -249.875,-922.099 L -249.377,-922.087
 L -248.879,-922.058 L -248.382,-922.013 L -247.888,-921.951 L -247.395,-921.872 L -246.906,-921.777 L -246.42,-921.666
 L -245.937,-921.539 L -245.46,-921.396 L -244.987,-921.238 L -244.52,-921.063 L -244.059,-920.873 L -243.604,-920.668
 L -243.157,-920.448 L -242.717,-920.213 L -242.285,-919.964 L -241.862,-919.7 L -241.447,-919.423 L -241.043,-919.132
 L -240.648,-918.827 L -240.263,-918.51 L -239.889,-918.18 L -239.526,-917.838 L -239.175,-917.484 L -238.836,-917.118
 L -238.509,-916.742 L -238.195,-916.355 L -237.894,-915.957 L -237.606,-915.55 L -237.332,-915.133 L -237.072,-914.708
 L -236.827,-914.274 L -236.596,-913.832 L -236.379,-913.383 L -236.178,-912.927 L -235.992,-912.464 L -235.821,-911.995
 L -235.666,-911.521 L -235.527,-911.042 L -235.404,-910.559 L -235.297,-910.072 L -235.207,-909.582 L -235.132,-909.089
 L -235.075,-908.594 L -235.033,-908.097 L -235.008,-907.599 L -235,-907.1 L -235.008,-906.601 L -235.033,-906.103
 L -235.075,-905.607 L -235.132,-905.111 L -235.207,-904.618 L -235.297,-904.128 L -235.404,-903.641 L -235.527,-903.158
 L -235.666,-902.679 L -235.821,-902.205 L -235.992,-901.736 L -236.178,-901.273 L -236.379,-900.817 L -236.596,-900.368
 L -236.827,-899.926 L -237.072,-899.492 L -237.332,-899.067 L -237.606,-898.65 L -237.894,-898.243 L -238.195,-897.845
 L -238.509,-897.458 L -238.836,-897.082 L -239.175,-896.716 L -239.526,-896.362 L -239.889,-896.02 L -240.263,-895.69
 L -240.648,-895.373 L -241.043,-895.068 L -241.447,-894.777 L -241.862,-894.5 L -242.285,-894.236 L -242.717,-893.987
 L -243.157,-893.752 L -243.604,-893.532 L -244.059,-893.327 L -244.52,-893.137 L -244.987,-892.962 L -245.46,-892.804
 L -245.937,-892.661 L -246.42,-892.534 L -246.906,-892.423 L -247.395,-892.328 L -247.888,-892.249 L -248.382,-892.187
 L -248.879,-892.142 L -249.377,-892.113 L -249.875,-892.101 z
M -200,-820 L -300,-820 L -300,-700 L -200,-700 z
M -205.391,-800.075 L -205.859,-800.19 L -206.286,-800.414 L -206.647,-800.734 L -206.921,-801.131 L -207.092,-801.581
 L -207.15,-802.06 L -207.092,-802.539 L -206.921,-802.989 L -206.647,-803.386 L -206.286,-803.706 L -205.859,-803.93
 L -205.391,-804.045 L -204.909,-804.045 L -204.441,-803.93 L -204.014,-803.706 L -203.653,-803.386 L -203.379,-802.989
 L -203.208,-802.539 L -203.15,-802.06 L -203.208,-801.581 L -203.379,-801.131 L -203.653,-800.734 L -204.014,-800.414
 L -204.441,-800.19 L -204.909,-800.075 z
M -294.991,-800.075 L -295.459,-800.19 L -295.886,-800.414 L -296.247,-800.734 L -296.521,-801.131 L -296.692,-801.581
 L -296.75,-802.06 L -296.692,-802.539 L -296.521,-802.989 L -296.247,-803.386 L -295.886,-803.706 L -295.459,-803.93
 L -294.991,-804.045 L -294.509,-804.045 L -294.041,-803.93 L -293.614,-803.706 L -293.253,-803.386 L -292.979,-802.989
 L -292.808,-802.539 L -292.75,-802.06 L -292.808,-801.581 L -292.979,-801.131 L -293.253,-800.734 L -293.614,-800.414
 L -294.041,-800.19 L -294.509,-800.075 z
M -234.991,-800.075 L -235.459,-800.19 L -235.886,-800.414 L -236.247,-800.734 L -236.521,-801.131 L -236.692,-801.581
 L -236.75,-802.06 L -236.692,-802.539 L -236.521,-802.989 L -236.247,-803.386 L -235.886,-803.706 L -235.459,-803.93
 L -234.991,-804.045 L -234.509,-804.045 L -234.041,-803.93 L -233.614,-803.706 L -233.253,-803.386 L -232.979,-802.989
 L -232.808,-802.539 L -232.75,-802.06 L -232.808,-801.581 L -232.979,-801.131 L -233.253,-800.734 L -233.614,-800.414
 L -234.041,-800.19 L -234.509,-800.075 z
M -265.391,-800.075 L -265.859,-800.19 L -266.286,-800.414 L -266.647,-800.734 L -266.921,-801.131 L -267.092,-801.581
 L -267.15,-802.06 L -267.092,-802.539 L -266.921,-802.989 L -266.647,-803.386 L -266.286,-803.706 L -265.859,-803.93
 L -265.391,-804.045 L -264.909,-804.045 L -264.441,-803.93 L -264.014,-803.706 L -263.653,-803.386 L -263.379,-802.989
 L -263.208,-802.539 L -263.15,-802.06 L -263.208,-801.581 L -263.379,-801.131 L -263.653,-800.734 L -264.014,-800.414
 L -264.441,-800.19 L -264.909,-800.075 z
M -265.391,-783.865 L -265.859,-783.98 L -266.286,-784.204 L -266.647,-784.524 L -266.921,-784.921 L -267.092,-785.371
 L -267.15,-785.85 L -267.092,-786.329 L -266.921,-786.779 L -266.647,-787.176 L -266.286,-787.496 L -265.859,-787.72
 L -265.391,-787.835 L -264.909,-787.835 L -264.441,-787.72 L -264.014,-787.496 L -263.653,-787.176 L -263.379,-786.779
 L -263.208,-786.329 L -263.15,-785.85 L -263.208,-785.371 L -263.379,-784.921 L -263.653,-784.524 L -264.014,-784.204
 L -264.441,-783.98 L -264.909,-783.865 z
M -234.991,-783.865 L -235.459,-783.98 L -235.886,-784.204 L -236.247,-784.524 L -236.521,-784.921 L -236.692,-785.371
 L -236.75,-785.85 L -236.692,-786.329 L -236.521,-786.779 L -236.247,-787.176 L -235.886,-787.496 L -235.459,-787.72
 L -234.991,-787.835 L -234.509,-787.835 L -234.041,-787.72 L -233.614,-787.496 L -233.253,-787.176 L -232.979,-786.779
 L -232.808,-786.329 L -232.75,-785.85 L -232.808,-785.371 L -232.979,-784.921 L -233.253,-784.524 L -233.614,-784.204
 L -234.041,-783.98 L -234.509,-783.865 z
M -294.991,-783.865 L -295.459,-783.98 L -295.886,-784.204 L -296.247,-784.524 L -296.521,-784.921 L -296.692,-785.371
 L -296.75,-785.85 L -296.692,-786.329 L -296.521,-786.779 L -296.247,-787.176 L -295.886,-787.496 L -295.459,-787.72
 L -294.991,-787.835 L -294.509,-787.835 L -294.041,-787.72 L -293.614,-787.496 L -293.253,-787.176 L -292.979,-786.779
 L -292.808,-786.329 L -292.75,-785.85 L -292.808,-785.371 L -292.979,-784.921 L -293.253,-784.524 L -293.614,-784.204
 L -294.041,-783.98 L -294.509,-783.865 z
M -205.391,-783.865 L -205.859,-783.98 L -206.286,-784.204 L -206.647,-784.524 L -206.921,-784.921 L -207.092,-785.371
 L -207.15,-785.85 L -207.092,-786.329 L -206.921,-786.779 L -206.647,-787.176 L -206.286,-787.496 L -205.859,-787.72
 L -205.391,-787.835 L -204.909,-787.835 L -204.441,-787.72 L -204.014,-787.496 L -203.653,-787.176 L -203.379,-786.779
 L -203.208,-786.329 L -203.15,-785.85 L -203.208,-785.371 L -203.379,-784.921 L -203.653,-784.524 L -204.014,-784.204
 L -204.441,-783.98 L -204.909,-783.865 z
M -237.618,-772.598 L -238.176,-772.882 L -238.618,-773.324 L -238.902,-773.882 L -239,-774.5 L -238.902,-775.118
 L -238.618,-775.676 L -238.176,-776.118 L -237.618,-776.402 L -237,-776.5 L -236.382,-776.402 L -235.824,-776.118
 L -235.382,-775.676 L -235.098,-775.118 L -235,-774.5 L -235.098,-773.882 L -235.382,-773.324 L -235.824,-772.882
 L -236.382,-772.598 L -237,-772.5 z
M -263.618,-772.598 L -264.176,-772.882 L -264.618,-773.324 L -264.902,-773.882 L -265,-774.5 L -264.902,-775.118
 L -264.618,-775.676 L -264.176,-776.118 L -263.618,-776.402 L -263,-776.5 L -262.382,-776.402 L -261.824,-776.118
 L -261.382,-775.676 L -261.098,-775.118 L -261,-774.5 L -261.098,-773.882 L -261.382,-773.324 L -261.824,-772.882
 L -262.382,-772.598 L -263,-772.5 z
M -263.618,-743.598 L -264.176,-743.882 L -264.618,-744.324 L -264.902,-744.882 L -265,-745.5 L -264.902,-746.118
 L -264.618,-746.676 L -264.176,-747.118 L -263.618,-747.402 L -263,-747.5 L -262.382,-747.402 L -261.824,-747.118
 L -261.382,-746.676 L -261.098,-746.118 L -261,-745.5 L -261.098,-744.882 L -261.382,-744.324 L -261.824,-743.882
 L -262.382,-743.598 L -263,-743.5 z
M -237.618,-743.598 L -238.176,-743.882 L -238.618,-744.324 L -238.902,-744.882 L -239,-745.5 L -238.902,-746.118
 L -238.618,-746.676 L -238.176,-747.118 L -237.618,-747.402 L -237,-747.5 L -236.382,-747.402 L -235.824,-747.118
 L -235.382,-746.676 L -235.098,-746.118 L -235,-745.5 L -235.098,-744.882 L -235.382,-744.324 L -235.824,-743.882
 L -236.382,-743.598 L -237,-743.5 z
M -294.991,-732.075 L -295.459,-732.19 L -295.886,-732.414 L -296.247,-732.734 L -296.521,-733.131 L -296.692,-733.581
 L -296.75,-734.06 L -296.692,-734.539 L -296.521,-734.989 L -296.247,-735.386 L -295.886,-735.706 L -295.459,-735.93
 L -294.991,-736.045 L -294.509,-736.045 L -294.041,-735.93 L -293.614,-735.706 L -293.253,-735.386 L -292.979,-734.989
 L -292.808,-734.539 L -292.75,-734.06 L -292.808,-733.581 L -292.979,-733.131 L -293.253,-732.734 L -293.614,-732.414
 L -294.041,-732.19 L -294.509,-732.075 z
M -205.391,-732.075 L -205.859,-732.19 L -206.286,-732.414 L -206.647,-732.734 L -206.921,-733.131 L -207.092,-733.581
 L -207.15,-734.06 L -207.092,-734.539 L -206.921,-734.989 L -206.647,-735.386 L -206.286,-735.706 L -205.859,-735.93
 L -205.391,-736.045 L -204.909,-736.045 L -204.441,-735.93 L -204.014,-735.706 L -203.653,-735.386 L -203.379,-734.989
 L -203.208,-734.539 L -203.15,-734.06 L -203.208,-733.581 L -203.379,-733.131 L -203.653,-732.734 L -204.014,-732.414
 L -204.441,-732.19 L -204.909,-732.075 z
M -234.991,-732.075 L -235.459,-732.19 L -235.886,-732.414 L -236.247,-732.734 L -236.521,-733.131 L -236.692,-733.581
 L -236.75,-734.06 L -236.692,-734.539 L -236.521,-734.989 L -236.247,-735.386 L -235.886,-735.706 L -235.459,-735.93
 L -234.991,-736.045 L -234.509,-736.045 L -234.041,-735.93 L -233.614,-735.706 L -233.253,-735.386 L -232.979,-734.989
 L -232.808,-734.539 L -232.75,-734.06 L -232.808,-733.581 L -232.979,-733.131 L -233.253,-732.734 L -233.614,-732.414
 L -234.041,-732.19 L -234.509,-732.075 z
M -265.391,-732.075 L -265.859,-732.19 L -266.286,-732.414 L -266.647,-732.734 L -266.921,-733.131 L -267.092,-733.581
 L -267.15,-734.06 L -267.092,-734.539 L -266.921,-734.989 L -266.647,-735.386 L -266.286,-735.706 L -265.859,-735.93
 L -265.391,-736.045 L -264.909,-736.045 L -264.441,-735.93 L -264.014,-735.706 L -263.653,-735.386 L -263.379,-734.989
 L -263.208,-734.539 L -263.15,-734.06 L -263.208,-733.581 L -263.379,-733.131 L -263.653,-732.734 L -264.014,-732.414
 L -264.441,-732.19 L -264.909,-732.075 z
M -265.391,-715.865 L -265.859,-715.98 L -266.286,-716.204 L -266.647,-716.524 L -266.921,-716.921 L -267.092,-717.371
 L -267.15,-717.85 L -267.092,-718.329 L -266.921,-718.779 L -266.647,-719.176 L -266.286,-719.496 L -265.859,-719.72
 L -265.391,-719.835 L -264.909,-719.835 L -264.441,-719.72 L -264.014,-719.496 L -263.653,-719.176 L -263.379,-718.779
 L -263.208,-718.329 L -263.15,-717.85 L -263.208,-717.371 L -263.379,-716.921 L -263.653,-716.524 L -264.014,-716.204
 L -264.441,-715.98 L -264.909,-715.865 z
M -294.991,-715.865 L -295.459,-715.98 L -295.886,-716.204 L -296.247,-716.524 L -296.521,-716.921 L -296.692,-717.371
 L -296.75,-717.85 L -296.692,-718.329 L -296.521,-718.779 L -296.247,-719.176 L -295.886,-719.496 L -295.459,-719.72
 L -294.991,-719.835 L -294.509,-719.835 L -294.041,-719.72 L -293.614,-719.496 L -293.253,-719.176 L -292.979,-718.779
 L -292.808,-718.329 L -292.75,-717.85 L -292.808,-717.371 L -292.979,-716.921 L -293.253,-716.524 L -293.614,-716.204
 L -294.041,-715.98 L -294.509,-715.865 z
M -205.391,-715.865 L -205.859,-715.98 L -206.286,-716.204 L -206.647,-716.524 L -206.921,-716.921 L -207.092,-717.371
 L -207.15,-717.85 L -207.092,-718.329 L -206.921,-718.779 L -206.647,-719.176 L -206.286,-719.496 L -205.859,-719.72
 L -205.391,-719.835 L -204.909,-719.835 L -204.441,-719.72 L -204.014,-719.496 L -203.653,-719.176 L -203.379,-718.779
 L -203.208,-718.329 L -203.15,-717.85 L -203.208,-717.371 L -203.379,-716.921 L -203.653,-716.524 L -204.014,-716.204
 L -204.441,-715.98 L -204.909,-715.865 z
M -234.991,-715.865 L -235.459,-715.98 L -235.886,-716.204 L -236.247,-716.524 L -236.521,-716.921 L -236.692,-717.371
 L -236.75,-717.85 L -236.692,-718.329 L -236.521,-718.779 L -236.247,-719.176 L -235.886,-719.496 L -235.459,-719.72
 L -234.991,-719.835 L -234.509,-719.835 L -234.041,-719.72 L -233.614,-719.496 L -233.253,-719.176 L -232.979,-718.779
 L -232.808,-718.329 L -232.75,-717.85 L -232.808,-717.371 L -232.979,-716.921 L -233.253,-716.524 L -233.614,-716.204
 L -234.041,-715.98 L -234.509,-715.865 z
M -50,-660 L -150,-660 L -150,-600 L -50,-600 z
M -85.1025,-649.126 L -85.5159,-649.396 L -85.8192,-649.786 L -85.9795,-650.253 L -85.9795,-650.747 L -85.8192,-651.214
 L -85.5159,-651.604 L -85.1025,-651.874 L -84.6239,-651.995 L -84.1318,-651.954 L -83.6796,-651.756 L -83.3163,-651.421
 L -83.0813,-650.987 L -83,-650.5 L -83.0813,-650.013 L -83.3163,-649.579 L -83.6796,-649.244 L -84.1318,-649.046
 L -84.6239,-649.005 z
M -116.103,-649.126 L -116.516,-649.396 L -116.819,-649.786 L -116.98,-650.253 L -116.98,-650.747 L -116.819,-651.214
 L -116.516,-651.604 L -116.103,-651.874 L -115.624,-651.995 L -115.132,-651.954 L -114.68,-651.756 L -114.316,-651.421
 L -114.081,-650.987 L -114,-650.5 L -114.081,-650.013 L -114.316,-649.579 L -114.68,-649.244 L -115.132,-649.046
 L -115.624,-649.005 z
M -100.621,-624.018 L -101.117,-624.057 L -101.61,-624.118 L -102.1,-624.202 L -102.586,-624.308 L -103.067,-624.436
 L -103.541,-624.585 L -104.008,-624.756 L -104.467,-624.948 L -104.916,-625.16 L -105.356,-625.392 L -105.785,-625.644
 L -106.201,-625.915 L -106.606,-626.204 L -106.996,-626.512 L -107.373,-626.836 L -107.734,-627.178 L -108.08,-627.535
 L -108.409,-627.908 L -108.721,-628.295 L -109.015,-628.696 L -109.29,-629.11 L -109.547,-629.536 L -109.784,-629.973
 L -110.001,-630.42 L -110.198,-630.877 L -110.374,-631.342 L -110.529,-631.814 L -110.662,-632.293 L -110.773,-632.778
 L -110.863,-633.267 L -110.93,-633.76 L -110.975,-634.255 L -110.997,-634.751 L -110.997,-635.249 L -110.975,-635.745
 L -110.93,-636.24 L -110.863,-636.733 L -110.773,-637.222 L -110.662,-637.707 L -110.529,-638.186 L -110.374,-638.658
 L -110.198,-639.123 L -110.001,-639.58 L -109.784,-640.027 L -109.547,-640.464 L -109.29,-640.89 L -109.015,-641.304
 L -108.721,-641.705 L -108.409,-642.092 L -108.08,-642.465 L -107.734,-642.822 L -107.373,-643.164 L -106.996,-643.488
 L -106.606,-643.796 L -106.201,-644.085 L -105.785,-644.356 L -105.356,-644.608 L -104.916,-644.84 L -104.467,-645.052
 L -104.008,-645.244 L -103.541,-645.415 L -103.067,-645.564 L -102.586,-645.692 L -102.1,-645.798 L -101.61,-645.882
 L -101.117,-645.943 L -100.621,-645.982 L -100.124,-645.999 L -99.6272,-645.994 L -99.1308,-645.966 L -98.6361,-645.915
 L -98.1443,-645.842 L -97.6563,-645.747 L -97.173,-645.631 L -96.6955,-645.492 L -96.2248,-645.332 L -95.7618,-645.151
 L -95.3074,-644.949 L -94.8627,-644.727 L -94.4284,-644.485 L -94.0055,-644.223 L -93.5948,-643.943 L -93.1973,-643.644
 L -92.8136,-643.328 L -92.4446,-642.995 L -92.0911,-642.645 L -91.7537,-642.28 L -91.4332,-641.9 L -91.1301,-641.506
 L -90.8452,-641.098 L -90.579,-640.678 L -90.332,-640.247 L -90.1048,-639.805 L -89.8978,-639.353 L -89.7114,-638.892
 L -89.5461,-638.423 L -89.4021,-637.947 L -89.2798,-637.465 L -89.1793,-636.978 L -89.101,-636.487 L -89.0449,-635.993
 L -89.0112,-635.497 L -89,-635 L -89.0112,-634.503 L -89.0449,-634.007 L -89.101,-633.513 L -89.1793,-633.022
 L -89.2798,-632.535 L -89.4021,-632.053 L -89.5461,-631.577 L -89.7114,-631.108 L -89.8978,-630.647 L -90.1048,-630.195
 L -90.332,-629.753 L -90.579,-629.322 L -90.8452,-628.902 L -91.1301,-628.494 L -91.4332,-628.1 L -91.7537,-627.72
 L -92.0911,-627.355 L -92.4446,-627.005 L -92.8136,-626.672 L -93.1973,-626.356 L -93.5948,-626.057 L -94.0055,-625.777
 L -94.4284,-625.515 L -94.8627,-625.273 L -95.3074,-625.051 L -95.7618,-624.849 L -96.2248,-624.668 L -96.6955,-624.508
 L -97.173,-624.369 L -97.6563,-624.253 L -98.1443,-624.158 L -98.6361,-624.085 L -99.1308,-624.034 L -99.6272,-624.006
 L -100.124,-624.001 z
M -70.6136,-626.047 L -71.0947,-626.153 L -71.5591,-626.316 L -72,-626.536 L -72.4105,-626.808 L -72.7845,-627.128
 L -73.1163,-627.492 L -73.4009,-627.894 L -73.6339,-628.328 L -73.8118,-628.787 L -73.9319,-629.265 L -73.9924,-629.754
 L -73.9924,-630.246 L -73.9319,-630.735 L -73.8118,-631.213 L -73.6339,-631.672 L -73.4009,-632.106 L -73.1163,-632.508
 L -72.7845,-632.872 L -72.4105,-633.192 L -72,-633.464 L -71.5591,-633.684 L -71.0947,-633.847 L -70.6136,-633.953
 L -70.1232,-633.998 L -69.6309,-633.983 L -69.1443,-633.907 L -68.6706,-633.773 L -68.217,-633.581 L -67.7905,-633.334
 L -67.3975,-633.038 L -67.044,-632.695 L -66.7352,-632.311 L -66.476,-631.892 L -66.2701,-631.445 L -66.1208,-630.976
 L -66.0303,-630.492 L -66,-630 L -66.0303,-629.508 L -66.1208,-629.024 L -66.2701,-628.555 L -66.476,-628.108
 L -66.7352,-627.689 L -67.044,-627.305 L -67.3975,-626.962 L -67.7905,-626.666 L -68.217,-626.419 L -68.6706,-626.227
 L -69.1443,-626.093 L -69.6309,-626.017 L -70.1232,-626.002 z
M -130.614,-626.047 L -131.095,-626.153 L -131.559,-626.316 L -132,-626.536 L -132.411,-626.808 L -132.785,-627.128
 L -133.116,-627.492 L -133.401,-627.894 L -133.634,-628.328 L -133.812,-628.787 L -133.932,-629.265 L -133.992,-629.754
 L -133.992,-630.246 L -133.932,-630.735 L -133.812,-631.213 L -133.634,-631.672 L -133.401,-632.106 L -133.116,-632.508
 L -132.785,-632.872 L -132.411,-633.192 L -132,-633.464 L -131.559,-633.684 L -131.095,-633.847 L -130.614,-633.953
 L -130.123,-633.998 L -129.631,-633.983 L -129.144,-633.907 L -128.671,-633.773 L -128.217,-633.581 L -127.791,-633.334
 L -127.398,-633.038 L -127.044,-632.695 L -126.735,-632.311 L -126.476,-631.892 L -126.27,-631.445 L -126.121,-630.976
 L -126.03,-630.492 L -126,-630 L -126.03,-629.508 L -126.121,-629.024 L -126.27,-628.555 L -126.476,-628.108
 L -126.735,-627.689 L -127.044,-627.305 L -127.398,-626.962 L -127.791,-626.666 L -128.217,-626.419 L -128.671,-626.227
 L -129.144,-626.093 L -129.631,-626.017 L -130.123,-626.002 z
M -116.103,-618.126 L -116.516,-618.396 L -116.819,-618.786 L -116.98,-619.253 L -116.98,-619.747 L -116.819,-620.214
 L -116.516,-620.604 L -116.103,-620.874 L -115.624,-620.995 L -115.132,-620.954 L -114.68,-620.756 L -114.316,-620.421
 L -114.081,-619.987 L -114,-619.5 L -114.081,-619.013 L -114.316,-618.579 L -114.68,-618.244 L -115.132,-618.046
 L -115.624,-618.005 z
M -85.1025,-618.126 L -85.5159,-618.396 L -85.8192,-618.786 L -85.9795,-619.253 L -85.9795,-619.747 L -85.8192,-620.214
 L -85.5159,-620.604 L -85.1025,-620.874 L -84.6239,-620.995 L -84.1318,-620.954 L -83.6796,-620.756 L -83.3163,-620.421
 L -83.0813,-619.987 L -83,-619.5 L -83.0813,-619.013 L -83.3163,-618.579 L -83.6796,-618.244 L -84.1318,-618.046
 L -84.6239,-618.005 z
M 500,-550 L 0,-550 L 0,-50 L 500,-50 z
M 150,-300 L 150,-450 L 350,-450 L 350,-300 z
M 264.897,-99.1263 L 264.484,-99.3964 L 264.181,-99.7861 L 264.02,-100.253 L 264.02,-100.747 L 264.181,-101.214
 L 264.484,-101.604 L 264.897,-101.874 L 265.376,-101.995 L 265.868,-101.954 L 266.32,-101.756 L 266.684,-101.421
 L 266.919,-100.987 L 267,-100.5 L 266.919,-100.013 L 266.684,-99.5787 L 266.32,-99.2442 L 265.868,-99.0459
 L 265.376,-99.0051 z
M 233.897,-99.1263 L 233.484,-99.3964 L 233.181,-99.7861 L 233.02,-100.253 L 233.02,-100.747 L 233.181,-101.214
 L 233.484,-101.604 L 233.897,-101.874 L 234.376,-101.995 L 234.868,-101.954 L 235.32,-101.756 L 235.684,-101.421
 L 235.919,-100.987 L 236,-100.5 L 235.919,-100.013 L 235.684,-99.5787 L 235.32,-99.2442 L 234.868,-99.0459
 L 234.376,-99.0051 z
M 249.379,-74.0175 L 248.883,-74.0568 L 248.39,-74.1185 L 247.9,-74.2024 L 247.414,-74.3083 L 246.933,-74.4361
 L 246.459,-74.5854 L 245.992,-74.7561 L 245.533,-74.9476 L 245.084,-75.1597 L 244.644,-75.3919 L 244.215,-75.6438
 L 243.799,-75.9147 L 243.394,-76.2042 L 243.004,-76.5117 L 242.627,-76.8365 L 242.266,-77.178 L 241.92,-77.5355
 L 241.591,-77.9082 L 241.279,-78.2954 L 240.985,-78.6963 L 240.71,-79.1101 L 240.453,-79.5359 L 240.216,-79.9729
 L 239.999,-80.4202 L 239.802,-80.8768 L 239.626,-81.3418 L 239.471,-81.8143 L 239.338,-82.2933 L 239.227,-82.7779
 L 239.137,-83.2669 L 239.07,-83.7596 L 239.025,-84.2547 L 239.003,-84.7514 L 239.003,-85.2486 L 239.025,-85.7453
 L 239.07,-86.2404 L 239.137,-86.733 L 239.227,-87.2221 L 239.338,-87.7067 L 239.471,-88.1857 L 239.626,-88.6582
 L 239.802,-89.1232 L 239.999,-89.5798 L 240.216,-90.0271 L 240.453,-90.4641 L 240.71,-90.8899 L 240.985,-91.3037
 L 241.279,-91.7046 L 241.591,-92.0918 L 241.92,-92.4645 L 242.266,-92.822 L 242.627,-93.1635 L 243.004,-93.4883
 L 243.394,-93.7958 L 243.799,-94.0853 L 244.215,-94.3562 L 244.644,-94.6081 L 245.084,-94.8403 L 245.533,-95.0524
 L 245.992,-95.2439 L 246.459,-95.4146 L 246.933,-95.5639 L 247.414,-95.6917 L 247.9,-95.7976 L 248.39,-95.8815
 L 248.883,-95.9431 L 249.379,-95.9824 L 249.876,-95.9993 L 250.373,-95.9937 L 250.869,-95.9656 L 251.364,-95.9151
 L 251.856,-95.8423 L 252.344,-95.7474 L 252.827,-95.6305 L 253.304,-95.4919 L 253.775,-95.3319 L 254.238,-95.1507
 L 254.693,-94.9489 L 255.137,-94.7267 L 255.572,-94.4846 L 255.995,-94.2231 L 256.405,-93.9428 L 256.803,-93.6443
 L 257.186,-93.328 L 257.555,-92.9948 L 257.909,-92.6452 L 258.246,-92.28 L 258.567,-91.8999 L 258.87,-91.5058
 L 259.155,-91.0983 L 259.421,-90.6784 L 259.668,-90.2469 L 259.895,-89.8047 L 260.102,-89.3526 L 260.289,-88.8917
 L 260.454,-88.4228 L 260.598,-87.9469 L 260.72,-87.465 L 260.821,-86.9781 L 260.899,-86.4871 L 260.955,-85.9931
 L 260.989,-85.4971 L 261,-85 L 260.989,-84.5029 L 260.955,-84.0069 L 260.899,-83.5129 L 260.821,-83.0219
 L 260.72,-82.535 L 260.598,-82.0531 L 260.454,-81.5772 L 260.289,-81.1083 L 260.102,-80.6474 L 259.895,-80.1953
 L 259.668,-79.7531 L 259.421,-79.3216 L 259.155,-78.9016 L 258.87,-78.4942 L 258.567,-78.1 L 258.246,-77.72
 L 257.909,-77.3548 L 257.555,-77.0052 L 257.186,-76.672 L 256.803,-76.3557 L 256.405,-76.0572 L 255.995,-75.7769
 L 255.572,-75.5154 L 255.137,-75.2733 L 254.693,-75.0511 L 254.238,-74.8493 L 253.775,-74.6681 L 253.304,-74.5081
 L 252.827,-74.3695 L 252.344,-74.2526 L 251.856,-74.1577 L 251.364,-74.0849 L 250.869,-74.0344 L 250.373,-74.0063
 L 249.876,-74.0007 z
M 332.72,-86.0473 L 332.239,-86.1527 L 331.774,-86.3164 L 331.333,-86.5359 L 330.923,-86.8079 L 330.549,-87.1283
 L 330.217,-87.4923 L 329.932,-87.8943 L 329.699,-88.3282 L 329.522,-88.7874 L 329.401,-89.265 L 329.341,-89.7538
 L 329.341,-90.2462 L 329.401,-90.735 L 329.522,-91.2126 L 329.699,-91.6718 L 329.932,-92.1057 L 330.217,-92.5077
 L 330.549,-92.8716 L 330.923,-93.1921 L 331.333,-93.4641 L 331.774,-93.6836 L 332.239,-93.8473 L 332.72,-93.9527
 L 333.21,-93.9981 L 333.702,-93.9829 L 334.189,-93.9074 L 334.663,-93.7726 L 335.116,-93.5806 L 335.543,-93.3344
 L 335.936,-93.0376 L 336.289,-92.6948 L 336.598,-92.3111 L 336.857,-91.8924 L 337.063,-91.445 L 337.213,-90.9756
 L 337.303,-90.4915 L 337.333,-90 L 337.303,-89.5084 L 337.213,-89.0243 L 337.063,-88.555 L 336.857,-88.1076
 L 336.598,-87.6889 L 336.289,-87.3052 L 335.936,-86.9624 L 335.543,-86.6656 L 335.116,-86.4193 L 334.663,-86.2274
 L 334.189,-86.0926 L 333.702,-86.0171 L 333.21,-86.0019 z
M 166.053,-86.0473 L 165.572,-86.1527 L 165.108,-86.3164 L 164.667,-86.5359 L 164.256,-86.8079 L 163.882,-87.1283
 L 163.55,-87.4923 L 163.266,-87.8943 L 163.033,-88.3282 L 162.855,-88.7874 L 162.735,-89.265 L 162.674,-89.7538
 L 162.674,-90.2462 L 162.735,-90.735 L 162.855,-91.2126 L 163.033,-91.6718 L 163.266,-92.1057 L 163.55,-92.5077
 L 163.882,-92.8716 L 164.256,-93.1921 L 164.667,-93.4641 L 165.108,-93.6836 L 165.572,-93.8473 L 166.053,-93.9527
 L 166.543,-93.9981 L 167.036,-93.9829 L 167.522,-93.9074 L 167.996,-93.7726 L 168.45,-93.5806 L 168.876,-93.3344
 L 169.269,-93.0376 L 169.623,-92.6948 L 169.931,-92.3111 L 170.191,-91.8924 L 170.397,-91.445 L 170.546,-90.9756
 L 170.636,-90.4915 L 170.667,-90 L 170.636,-89.5084 L 170.546,-89.0243 L 170.397,-88.555 L 170.191,-88.1076
 L 169.931,-87.6889 L 169.623,-87.3052 L 169.269,-86.9624 L 168.876,-86.6656 L 168.45,-86.4193 L 167.996,-86.2274
 L 167.522,-86.0926 L 167.036,-86.0171 L 166.543,-86.0019 z
M 264.897,-68.1263 L 264.484,-68.3964 L 264.181,-68.7861 L 264.02,-69.2531 L 264.02,-69.7469 L 264.181,-70.2139
 L 264.484,-70.6036 L 264.897,-70.8737 L 265.376,-70.9949 L 265.868,-70.9541 L 266.32,-70.7558 L 266.684,-70.4213
 L 266.919,-69.987 L 267,-69.5 L 266.919,-69.0129 L 266.684,-68.5787 L 266.32,-68.2442 L 265.868,-68.0459
 L 265.376,-68.0051 z
M 233.897,-68.1263 L 233.484,-68.3964 L 233.181,-68.7861 L 233.02,-69.2531 L 233.02,-69.7469 L 233.181,-70.2139
 L 233.484,-70.6036 L 233.897,-70.8737 L 234.376,-70.9949 L 234.868,-70.9541 L 235.32,-70.7558 L 235.684,-70.4213
 L 235.919,-69.987 L 236,-69.5 L 235.919,-69.0129 L 235.684,-68.5787 L 235.32,-68.2442 L 234.868,-68.0459
 L 234.376,-68.0051 z
M 630,-287.3 L 630.274,-287.3 L 630.274,-292.526 L 632.447,-302.751 L 636.699,-312.3 L 642.843,-320.757
 L 650.611,-327.751 L 659.663,-332.977 L 669.604,-336.207 L 680,-337.3 L 1050,-337.3 L 1050,-537.3
 L 550,-537.3 L 550,-62.7 L 630,-62.7 z
M 874.503,-391.311 L 874.007,-391.345 L 873.513,-391.401 L 873.022,-391.479 L 872.535,-391.58 L 872.053,-391.702
 L 871.577,-391.846 L 871.108,-392.011 L 870.647,-392.198 L 870.195,-392.405 L 869.753,-392.632 L 869.322,-392.879
 L 868.902,-393.145 L 868.494,-393.43 L 868.1,-393.733 L 867.72,-394.054 L 867.355,-394.391 L 867.005,-394.745
 L 866.672,-395.114 L 866.356,-395.497 L 866.057,-395.895 L 865.777,-396.305 L 865.515,-396.728 L 865.273,-397.163
 L 865.051,-397.607 L 864.849,-398.062 L 864.668,-398.525 L 864.508,-398.996 L 864.369,-399.473 L 864.253,-399.956
 L 864.158,-400.444 L 864.085,-400.936 L 864.034,-401.431 L 864.006,-401.927 L 864.001,-402.424 L 864.018,-402.921
 L 864.057,-403.417 L 864.118,-403.91 L 864.202,-404.4 L 864.308,-404.886 L 864.436,-405.367 L 864.585,-405.841
 L 864.756,-406.308 L 864.948,-406.767 L 865.16,-407.216 L 865.392,-407.656 L 865.644,-408.085 L 865.915,-408.501
 L 866.204,-408.906 L 866.512,-409.296 L 866.836,-409.673 L 867.178,-410.034 L 867.535,-410.38 L 867.908,-410.709
 L 868.295,-411.021 L 868.696,-411.315 L 869.11,-411.59 L 869.536,-411.847 L 869.973,-412.084 L 870.42,-412.301
 L 870.877,-412.498 L 871.342,-412.674 L 871.814,-412.829 L 872.293,-412.962 L 872.778,-413.073 L 873.267,-413.163
 L 873.76,-413.23 L 874.255,-413.275 L 874.751,-413.297 L 875.249,-413.297 L 875.745,-413.275 L 876.24,-413.23
 L 876.733,-413.163 L 877.222,-413.073 L 877.707,-412.962 L 878.186,-412.829 L 878.658,-412.674 L 879.123,-412.498
 L 879.58,-412.301 L 880.027,-412.084 L 880.464,-411.847 L 880.89,-411.59 L 881.304,-411.315 L 881.705,-411.021
 L 882.092,-410.709 L 882.465,-410.38 L 882.822,-410.034 L 883.164,-409.673 L 883.488,-409.296 L 883.796,-408.906
 L 884.085,-408.501 L 884.356,-408.085 L 884.608,-407.656 L 884.84,-407.216 L 885.052,-406.767 L 885.244,-406.308
 L 885.415,-405.841 L 885.564,-405.367 L 885.692,-404.886 L 885.798,-404.4 L 885.882,-403.91 L 885.943,-403.417
 L 885.982,-402.921 L 885.999,-402.424 L 885.994,-401.927 L 885.966,-401.431 L 885.915,-400.936 L 885.842,-400.444
 L 885.747,-399.956 L 885.631,-399.473 L 885.492,-398.996 L 885.332,-398.525 L 885.151,-398.062 L 884.949,-397.607
 L 884.727,-397.163 L 884.485,-396.728 L 884.223,-396.305 L 883.943,-395.895 L 883.644,-395.497 L 883.328,-395.114
 L 882.995,-394.745 L 882.645,-394.391 L 882.28,-394.054 L 881.9,-393.733 L 881.506,-393.43 L 881.098,-393.145
 L 880.678,-392.879 L 880.247,-392.632 L 879.805,-392.405 L 879.353,-392.198 L 878.892,-392.011 L 878.423,-391.846
 L 877.947,-391.702 L 877.465,-391.58 L 876.978,-391.479 L 876.487,-391.401 L 875.993,-391.345 L 875.497,-391.311
 L 875,-391.3 z
M 949.508,-393.33 L 949.024,-393.421 L 948.555,-393.57 L 948.108,-393.776 L 947.689,-394.035 L 947.305,-394.344
 L 946.962,-394.698 L 946.666,-395.091 L 946.419,-395.517 L 946.227,-395.971 L 946.093,-396.444 L 946.017,-396.931
 L 946.002,-397.423 L 946.047,-397.914 L 946.153,-398.395 L 946.316,-398.859 L 946.536,-399.3 L 946.808,-399.711
 L 947.128,-400.085 L 947.492,-400.416 L 947.894,-400.701 L 948.328,-400.934 L 948.787,-401.112 L 949.265,-401.232
 L 949.754,-401.292 L 950.246,-401.292 L 950.735,-401.232 L 951.213,-401.112 L 951.672,-400.934 L 952.106,-400.701
 L 952.508,-400.416 L 952.872,-400.085 L 953.192,-399.711 L 953.464,-399.3 L 953.684,-398.859 L 953.847,-398.395
 L 953.953,-397.914 L 953.998,-397.423 L 953.983,-396.931 L 953.907,-396.444 L 953.773,-395.971 L 953.581,-395.517
 L 953.334,-395.091 L 953.038,-394.698 L 952.695,-394.344 L 952.311,-394.035 L 951.892,-393.776 L 951.445,-393.57
 L 950.976,-393.421 L 950.492,-393.33 L 950,-393.3 z
M 799.508,-393.33 L 799.024,-393.421 L 798.555,-393.57 L 798.108,-393.776 L 797.689,-394.035 L 797.305,-394.344
 L 796.962,-394.698 L 796.666,-395.091 L 796.419,-395.517 L 796.227,-395.971 L 796.093,-396.444 L 796.017,-396.931
 L 796.002,-397.423 L 796.047,-397.914 L 796.153,-398.395 L 796.316,-398.859 L 796.536,-399.3 L 796.808,-399.711
 L 797.128,-400.085 L 797.492,-400.416 L 797.894,-400.701 L 798.328,-400.934 L 798.787,-401.112 L 799.265,-401.232
 L 799.754,-401.292 L 800.246,-401.292 L 800.735,-401.232 L 801.213,-401.112 L 801.672,-400.934 L 802.106,-400.701
 L 802.508,-400.416 L 802.872,-400.085 L 803.192,-399.711 L 803.464,-399.3 L 803.684,-398.859 L 803.847,-398.395
 L 803.953,-397.914 L 803.998,-397.423 L 803.983,-396.931 L 803.907,-396.444 L 803.773,-395.971 L 803.581,-395.517
 L 803.334,-395.091 L 803.038,-394.698 L 802.695,-394.344 L 802.311,-394.035 L 801.892,-393.776 L 801.445,-393.57
 L 800.976,-393.421 L 800.492,-393.33 L 800,-393.3 z
M -50,-537.3 L -550,-537.3 L -550,-337.3 L -180,-337.3 L -169.604,-336.207 L -159.663,-332.977
 L -150.611,-327.751 L -142.843,-320.757 L -136.699,-312.3 L -132.447,-302.751 L -130.274,-292.526 L -130.274,-287.3
 L -130,-287.3 L -130,-62.7 L -50,-62.7 z
M -359.987,-416.381 L -360.421,-416.616 L -360.756,-416.98 L -360.954,-417.432 L -360.995,-417.924 L -360.874,-418.403
 L -360.604,-418.816 L -360.214,-419.119 L -359.747,-419.28 L -359.253,-419.28 L -358.786,-419.119 L -358.396,-418.816
 L -358.126,-418.403 L -358.005,-417.924 L -358.046,-417.432 L -358.244,-416.98 L -358.579,-416.616 L -359.013,-416.381
 L -359.5,-416.3 z
M -390.987,-416.381 L -391.421,-416.616 L -391.756,-416.98 L -391.954,-417.432 L -391.995,-417.924 L -391.874,-418.403
 L -391.604,-418.816 L -391.214,-419.119 L -390.747,-419.28 L -390.253,-419.28 L -389.786,-419.119 L -389.396,-418.816
 L -389.126,-418.403 L -389.005,-417.924 L -389.046,-417.432 L -389.244,-416.98 L -389.579,-416.616 L -390.013,-416.381
 L -390.5,-416.3 z
M -375.497,-391.311 L -375.993,-391.345 L -376.487,-391.401 L -376.978,-391.479 L -377.465,-391.58 L -377.947,-391.702
 L -378.423,-391.846 L -378.892,-392.011 L -379.353,-392.198 L -379.805,-392.405 L -380.247,-392.632 L -380.678,-392.879
 L -381.098,-393.145 L -381.506,-393.43 L -381.9,-393.733 L -382.28,-394.054 L -382.645,-394.391 L -382.995,-394.745
 L -383.328,-395.114 L -383.644,-395.497 L -383.943,-395.895 L -384.223,-396.305 L -384.485,-396.728 L -384.727,-397.163
 L -384.949,-397.607 L -385.151,-398.062 L -385.332,-398.525 L -385.492,-398.996 L -385.631,-399.473 L -385.747,-399.956
 L -385.842,-400.444 L -385.915,-400.936 L -385.966,-401.431 L -385.994,-401.927 L -385.999,-402.424 L -385.982,-402.921
 L -385.943,-403.417 L -385.882,-403.91 L -385.798,-404.4 L -385.692,-404.886 L -385.564,-405.367 L -385.415,-405.841
 L -385.244,-406.308 L -385.052,-406.767 L -384.84,-407.216 L -384.608,-407.656 L -384.356,-408.085 L -384.085,-408.501
 L -383.796,-408.906 L -383.488,-409.296 L -383.163,-409.673 L -382.822,-410.034 L -382.465,-410.38 L -382.092,-410.709
 L -381.705,-411.021 L -381.304,-411.315 L -380.89,-411.59 L -380.464,-411.847 L -380.027,-412.084 L -379.58,-412.301
 L -379.123,-412.498 L -378.658,-412.674 L -378.186,-412.829 L -377.707,-412.962 L -377.222,-413.073 L -376.733,-413.163
 L -376.24,-413.23 L -375.745,-413.275 L -375.249,-413.297 L -374.751,-413.297 L -374.255,-413.275 L -373.76,-413.23
 L -373.267,-413.163 L -372.778,-413.073 L -372.293,-412.962 L -371.814,-412.829 L -371.342,-412.674 L -370.877,-412.498
 L -370.42,-412.301 L -369.973,-412.084 L -369.536,-411.847 L -369.11,-411.59 L -368.696,-411.315 L -368.295,-411.021
 L -367.908,-410.709 L -367.535,-410.38 L -367.178,-410.034 L -366.837,-409.673 L -366.512,-409.296 L -366.204,-408.906
 L -365.915,-408.501 L -365.644,-408.085 L -365.392,-407.656 L -365.16,-407.216 L -364.948,-406.767 L -364.756,-406.308
 L -364.585,-405.841 L -364.436,-405.367 L -364.308,-404.886 L -364.202,-404.4 L -364.118,-403.91 L -364.057,-403.417
 L -364.018,-402.921 L -364.001,-402.424 L -364.006,-401.927 L -364.034,-401.431 L -364.085,-400.936 L -364.158,-400.444
 L -364.253,-399.956 L -364.369,-399.473 L -364.508,-398.996 L -364.668,-398.525 L -364.849,-398.062 L -365.051,-397.607
 L -365.273,-397.163 L -365.515,-396.728 L -365.777,-396.305 L -366.057,-395.895 L -366.356,-395.497 L -366.672,-395.114
 L -367.005,-394.745 L -367.355,-394.391 L -367.72,-394.054 L -368.1,-393.733 L -368.494,-393.43 L -368.902,-393.145
 L -369.322,-392.879 L -369.753,-392.632 L -370.195,-392.405 L -370.647,-392.198 L -371.108,-392.011 L -371.577,-391.846
 L -372.053,-391.702 L -372.535,-391.58 L -373.022,-391.479 L -373.513,-391.401 L -374.007,-391.345 L -374.503,-391.311
 L -375,-391.3 z
M -300.492,-393.33 L -300.976,-393.421 L -301.445,-393.57 L -301.892,-393.776 L -302.311,-394.035 L -302.695,-394.344
 L -303.038,-394.698 L -303.334,-395.091 L -303.581,-395.517 L -303.773,-395.971 L -303.907,-396.444 L -303.983,-396.931
 L -303.998,-397.423 L -303.953,-397.914 L -303.847,-398.395 L -303.684,-398.859 L -303.464,-399.3 L -303.192,-399.711
 L -302.872,-400.085 L -302.508,-400.416 L -302.106,-400.701 L -301.672,-400.934 L -301.213,-401.112 L -300.735,-401.232
 L -300.246,-401.292 L -299.754,-401.292 L -299.265,-401.232 L -298.787,-401.112 L -298.328,-400.934 L -297.894,-400.701
 L -297.492,-400.416 L -297.128,-400.085 L -296.808,-399.711 L -296.536,-399.3 L -296.316,-398.859 L -296.153,-398.395
 L -296.047,-397.914 L -296.002,-397.423 L -296.017,-396.931 L -296.093,-396.444 L -296.227,-395.971 L -296.419,-395.517
 L -296.666,-395.091 L -296.962,-394.698 L -297.305,-394.344 L -297.689,-394.035 L -298.108,-393.776 L -298.555,-393.57
 L -299.024,-393.421 L -299.508,-393.33 L -300,-393.3 z
M -450.492,-393.33 L -450.976,-393.421 L -451.445,-393.57 L -451.892,-393.776 L -452.311,-394.035 L -452.695,-394.344
 L -453.038,-394.698 L -453.334,-395.091 L -453.581,-395.517 L -453.773,-395.971 L -453.907,-396.444 L -453.983,-396.931
 L -453.998,-397.423 L -453.953,-397.914 L -453.847,-398.395 L -453.684,-398.859 L -453.464,-399.3 L -453.192,-399.711
 L -452.872,-400.085 L -452.508,-400.416 L -452.106,-400.701 L -451.672,-400.934 L -451.213,-401.112 L -450.735,-401.232
 L -450.246,-401.292 L -449.754,-401.292 L -449.265,-401.232 L -448.787,-401.112 L -448.328,-400.934 L -447.894,-400.701
 L -447.492,-400.416 L -447.128,-400.085 L -446.808,-399.711 L -446.536,-399.3 L -446.316,-398.859 L -446.153,-398.395
 L -446.047,-397.914 L -446.002,-397.423 L -446.017,-396.931 L -446.093,-396.444 L -446.227,-395.971 L -446.419,-395.517
 L -446.666,-395.091 L -446.962,-394.698 L -447.305,-394.344 L -447.689,-394.035 L -448.108,-393.776 L -448.555,-393.57
 L -449.024,-393.421 L -449.508,-393.33 L -450,-393.3 z
M -359.987,-385.381 L -360.421,-385.616 L -360.756,-385.98 L -360.954,-386.432 L -360.995,-386.924 L -360.874,-387.403
 L -360.604,-387.816 L -360.214,-388.119 L -359.747,-388.28 L -359.253,-388.28 L -358.786,-388.119 L -358.396,-387.816
 L -358.126,-387.403 L -358.005,-386.924 L -358.046,-386.432 L -358.244,-385.98 L -358.579,-385.616 L -359.013,-385.381
 L -359.5,-385.3 z
M -390.987,-385.381 L -391.421,-385.616 L -391.756,-385.98 L -391.954,-386.432 L -391.995,-386.924 L -391.874,-387.403
 L -391.604,-387.816 L -391.214,-388.119 L -390.747,-388.28 L -390.253,-388.28 L -389.786,-388.119 L -389.396,-387.816
 L -389.126,-387.403 L -389.005,-386.924 L -389.046,-386.432 L -389.244,-385.98 L -389.579,-385.616 L -390.013,-385.381
 L -390.5,-385.3 z
M 500,50 L 0,50 L 0,130 L 500,130 z
M 249.379,95.9824 L 248.883,95.9431 L 248.39,95.8815 L 247.9,95.7976 L 247.414,95.6917 L 246.933,95.5639
 L 246.459,95.4146 L 245.992,95.2439 L 245.533,95.0524 L 245.084,94.8403 L 244.644,94.6081 L 244.215,94.3562
 L 243.799,94.0853 L 243.394,93.7958 L 243.004,93.4883 L 242.627,93.1635 L 242.266,92.822 L 241.92,92.4645
 L 241.591,92.0918 L 241.279,91.7046 L 240.985,91.3037 L 240.71,90.8899 L 240.453,90.4641 L 240.216,90.0271
 L 239.999,89.5798 L 239.802,89.1232 L 239.626,88.6582 L 239.471,88.1857 L 239.338,87.7067 L 239.227,87.2221
 L 239.137,86.733 L 239.07,86.2404 L 239.025,85.7453 L 239.003,85.2486 L 239.003,84.7514 L 239.025,84.2547
 L 239.07,83.7596 L 239.137,83.2669 L 239.227,82.7779 L 239.338,82.2933 L 239.471,81.8143 L 239.626,81.3418
 L 239.802,80.8768 L 239.999,80.4202 L 240.216,79.9729 L 240.453,79.5359 L 240.71,79.1101 L 240.985,78.6963
 L 241.279,78.2954 L 241.591,77.9082 L 241.92,77.5355 L 242.266,77.178 L 242.627,76.8365 L 243.004,76.5117
 L 243.394,76.2042 L 243.799,75.9147 L 244.215,75.6438 L 244.644,75.3919 L 245.084,75.1597 L 245.533,74.9476
 L 245.992,74.7561 L 246.459,74.5854 L 246.933,74.4361 L 247.414,74.3083 L 247.9,74.2024 L 248.39,74.1185
 L 248.883,74.0568 L 249.379,74.0175 L 249.876,74.0007 L 250.373,74.0063 L 250.869,74.0344 L 251.364,74.0849
 L 251.856,74.1577 L 252.344,74.2526 L 252.827,74.3695 L 253.304,74.5081 L 253.775,74.6681 L 254.238,74.8493
 L 254.693,75.0511 L 255.137,75.2733 L 255.572,75.5154 L 255.995,75.7769 L 256.405,76.0572 L 256.803,76.3557
 L 257.186,76.672 L 257.555,77.0052 L 257.909,77.3548 L 258.246,77.72 L 258.567,78.1 L 258.87,78.4942
 L 259.155,78.9016 L 259.421,79.3216 L 259.668,79.7531 L 259.895,80.1953 L 260.102,80.6473 L 260.289,81.1083
 L 260.454,81.5772 L 260.598,82.0531 L 260.72,82.535 L 260.821,83.0219 L 260.899,83.5129 L 260.955,84.0069
 L 260.989,84.5029 L 261,85 L 260.989,85.4971 L 260.955,85.9931 L 260.899,86.4871 L 260.821,86.9781
 L 260.72,87.465 L 260.598,87.9469 L 260.454,88.4228 L 260.289,88.8917 L 260.102,89.3526 L 259.895,89.8047
 L 259.668,90.2469 L 259.421,90.6784 L 259.155,91.0983 L 258.87,91.5058 L 258.567,91.8999 L 258.246,92.28
 L 257.909,92.6452 L 257.555,92.9948 L 257.186,93.328 L 256.803,93.6443 L 256.405,93.9428 L 255.995,94.2231
 L 255.572,94.4846 L 255.137,94.7267 L 254.693,94.9489 L 254.238,95.1507 L 253.775,95.3319 L 253.304,95.4919
 L 252.827,95.6305 L 252.344,95.7474 L 251.856,95.8423 L 251.364,95.9151 L 250.869,95.9656 L 250.373,95.9937
 L 249.876,95.9993 z
M 166.053,93.9527 L 165.572,93.8473 L 165.108,93.6836 L 164.667,93.4641 L 164.256,93.1921 L 163.882,92.8716
 L 163.55,92.5077 L 163.266,92.1057 L 163.033,91.6718 L 162.855,91.2126 L 162.735,90.735 L 162.674,90.2462
 L 162.674,89.7538 L 162.735,89.265 L 162.855,88.7874 L 163.033,88.3282 L 163.266,87.8943 L 163.55,87.4923
 L 163.882,87.1283 L 164.256,86.8079 L 164.667,86.5359 L 165.108,86.3164 L 165.572,86.1527 L 166.053,86.0473
 L 166.543,86.0019 L 167.036,86.0171 L 167.522,86.0926 L 167.996,86.2274 L 168.45,86.4193 L 168.876,86.6656
 L 169.269,86.9624 L 169.623,87.3052 L 169.931,87.6889 L 170.191,88.1076 L 170.397,88.555 L 170.546,89.0243
 L 170.636,89.5084 L 170.667,90 L 170.636,90.4915 L 170.546,90.9756 L 170.397,91.445 L 170.191,91.8924
 L 169.931,92.3111 L 169.623,92.6948 L 169.269,93.0376 L 168.876,93.3344 L 168.45,93.5806 L 167.996,93.7726
 L 167.522,93.9074 L 167.036,93.9829 L 166.543,93.9981 z
M 332.72,93.9527 L 332.239,93.8473 L 331.774,93.6836 L 331.333,93.4641 L 330.923,93.1921 L 330.549,92.8716
 L 330.217,92.5077 L 329.932,92.1057 L 329.699,91.6718 L 329.522,91.2126 L 329.401,90.735 L 329.341,90.2462
 L 329.341,89.7538 L 329.401,89.265 L 329.522,88.7874 L 329.699,88.3282 L 329.932,87.8943 L 330.217,87.4923
 L 330.549,87.1283 L 330.923,86.8079 L 331.333,86.5359 L 331.774,86.3164 L 332.239,86.1527 L 332.72,86.0473
 L 333.21,86.0019 L 333.702,86.0171 L 334.189,86.0926 L 334.663,86.2274 L 335.116,86.4193 L 335.543,86.6656
 L 335.936,86.9624 L 336.289,87.3052 L 336.598,87.6889 L 336.857,88.1076 L 337.063,88.555 L 337.213,89.0243
 L 337.303,89.5084 L 337.333,90 L 337.303,90.4915 L 337.213,90.9756 L 337.063,91.445 L 336.857,91.8924
 L 336.598,92.3111 L 336.289,92.6948 L 335.936,93.0376 L 335.543,93.3344 L 335.116,93.5806 L 334.663,93.7726
 L 334.189,93.9074 L 333.702,93.9829 L 333.21,93.9981 z
M 477.3,162.7 L 22.7,162.7 L 22.7,400 L 477.3,400 z
M 37.088,181.956 L 36.6069,181.859 L 36.1399,181.707 L 35.6933,181.503 L 35.2729,181.25 L 34.8841,180.95
 L 34.532,180.608 L 34.2212,180.227 L 33.9558,179.814 L 33.7392,179.374 L 33.5742,178.911 L 33.463,178.433
 L 33.407,177.945 L 33.407,177.455 L 33.463,176.967 L 33.5742,176.489 L 33.7392,176.026 L 33.9558,175.586
 L 34.2212,175.173 L 34.532,174.792 L 34.8841,174.45 L 35.2729,174.15 L 35.6933,173.897 L 36.1399,173.693
 L 36.6069,173.541 L 37.088,173.444 L 37.5772,173.402 L 38.068,173.416 L 38.5539,173.486 L 39.0288,173.61
 L 39.4863,173.789 L 39.9205,174.018 L 40.3258,174.295 L 40.6968,174.616 L 41.0288,174.978 L 41.3174,175.375
 L 41.5588,175.803 L 41.7499,176.255 L 41.8882,176.726 L 41.972,177.21 L 42,177.7 L 41.972,178.19
 L 41.8882,178.674 L 41.7499,179.145 L 41.5588,179.597 L 41.3174,180.025 L 41.0288,180.422 L 40.6968,180.784
 L 40.3258,181.105 L 39.9205,181.382 L 39.4863,181.611 L 39.0288,181.79 L 38.5539,181.914 L 38.068,181.984
 L 37.5772,181.998 z
M 461.688,181.956 L 461.207,181.859 L 460.74,181.707 L 460.293,181.503 L 459.873,181.25 L 459.484,180.95
 L 459.132,180.608 L 458.821,180.227 L 458.556,179.814 L 458.339,179.374 L 458.174,178.911 L 458.063,178.433
 L 458.007,177.945 L 458.007,177.455 L 458.063,176.967 L 458.174,176.489 L 458.339,176.026 L 458.556,175.586
 L 458.821,175.173 L 459.132,174.792 L 459.484,174.45 L 459.873,174.15 L 460.293,173.897 L 460.74,173.693
 L 461.207,173.541 L 461.688,173.444 L 462.177,173.402 L 462.668,173.416 L 463.154,173.486 L 463.629,173.61
 L 464.086,173.789 L 464.521,174.018 L 464.926,174.295 L 465.297,174.616 L 465.629,174.978 L 465.917,175.375
 L 466.159,175.803 L 466.35,176.255 L 466.488,176.726 L 466.572,177.21 L 466.6,177.7 L 466.572,178.19
 L 466.488,178.674 L 466.35,179.145 L 466.159,179.597 L 465.917,180.025 L 465.629,180.422 L 465.297,180.784
 L 464.926,181.105 L 464.521,181.382 L 464.086,181.611 L 463.629,181.79 L 463.154,181.914 L 462.668,181.984
 L 462.177,181.998 z
M 347.942,178.625 L 347.474,178.51 L 347.047,178.286 L 346.686,177.966 L 346.412,177.569 L 346.241,177.119
 L 346.183,176.64 L 346.241,176.161 L 346.412,175.711 L 346.686,175.314 L 347.047,174.994 L 347.474,174.77
 L 347.942,174.655 L 348.424,174.655 L 348.893,174.77 L 349.319,174.994 L 349.68,175.314 L 349.954,175.711
 L 350.125,176.161 L 350.183,176.64 L 350.125,177.119 L 349.954,177.569 L 349.68,177.966 L 349.319,178.286
 L 348.893,178.51 L 348.424,178.625 z
M 181.276,178.625 L 180.807,178.51 L 180.381,178.286 L 180.02,177.966 L 179.746,177.569 L 179.575,177.119
 L 179.517,176.64 L 179.575,176.161 L 179.746,175.711 L 180.02,175.314 L 180.381,174.994 L 180.807,174.77
 L 181.276,174.655 L 181.758,174.655 L 182.226,174.77 L 182.653,174.994 L 183.014,175.314 L 183.288,175.711
 L 183.459,176.161 L 183.517,176.64 L 183.459,177.119 L 183.288,177.569 L 183.014,177.966 L 182.653,178.286
 L 182.226,178.51 L 181.758,178.625 z
M 318.342,178.625 L 317.874,178.51 L 317.447,178.286 L 317.086,177.966 L 316.812,177.569 L 316.641,177.119
 L 316.583,176.64 L 316.641,176.161 L 316.812,175.711 L 317.086,175.314 L 317.447,174.994 L 317.874,174.77
 L 318.342,174.655 L 318.824,174.655 L 319.293,174.77 L 319.719,174.994 L 320.08,175.314 L 320.354,175.711
 L 320.525,176.161 L 320.583,176.64 L 320.525,177.119 L 320.354,177.569 L 320.08,177.966 L 319.719,178.286
 L 319.293,178.51 L 318.824,178.625 z
M 151.676,178.625 L 151.207,178.51 L 150.781,178.286 L 150.42,177.966 L 150.146,177.569 L 149.975,177.119
 L 149.917,176.64 L 149.975,176.161 L 150.146,175.711 L 150.42,175.314 L 150.781,174.994 L 151.207,174.77
 L 151.676,174.655 L 152.158,174.655 L 152.626,174.77 L 153.053,174.994 L 153.414,175.314 L 153.688,175.711
 L 153.859,176.161 L 153.917,176.64 L 153.859,177.119 L 153.688,177.569 L 153.414,177.966 L 153.053,178.286
 L 152.626,178.51 L 152.158,178.625 z
M 318.342,194.835 L 317.874,194.72 L 317.447,194.496 L 317.086,194.176 L 316.812,193.779 L 316.641,193.329
 L 316.583,192.85 L 316.641,192.371 L 316.812,191.921 L 317.086,191.524 L 317.447,191.204 L 317.874,190.98
 L 318.342,190.865 L 318.824,190.865 L 319.293,190.98 L 319.719,191.204 L 320.08,191.524 L 320.354,191.921
 L 320.525,192.371 L 320.583,192.85 L 320.525,193.329 L 320.354,193.779 L 320.08,194.176 L 319.719,194.496
 L 319.293,194.72 L 318.824,194.835 z
M 181.276,194.835 L 180.807,194.72 L 180.381,194.496 L 180.02,194.176 L 179.746,193.779 L 179.575,193.329
 L 179.517,192.85 L 179.575,192.371 L 179.746,191.921 L 180.02,191.524 L 180.381,191.204 L 180.807,190.98
 L 181.276,190.865 L 181.758,190.865 L 182.226,190.98 L 182.653,191.204 L 183.014,191.524 L 183.288,191.921
 L 183.459,192.371 L 183.517,192.85 L 183.459,193.329 L 183.288,193.779 L 183.014,194.176 L 182.653,194.496
 L 182.226,194.72 L 181.758,194.835 z
M 151.676,194.835 L 151.207,194.72 L 150.781,194.496 L 150.42,194.176 L 150.146,193.779 L 149.975,193.329
 L 149.917,192.85 L 149.975,192.371 L 150.146,191.921 L 150.42,191.524 L 150.781,191.204 L 151.207,190.98
 L 151.676,190.865 L 152.158,190.865 L 152.626,190.98 L 153.053,191.204 L 153.414,191.524 L 153.688,191.921
 L 153.859,192.371 L 153.917,192.85 L 153.859,193.329 L 153.688,193.779 L 153.414,194.176 L 153.053,194.496
 L 152.626,194.72 L 152.158,194.835 z
M 347.942,194.835 L 347.474,194.72 L 347.047,194.496 L 346.686,194.176 L 346.412,193.779 L 346.241,193.329
 L 346.183,192.85 L 346.241,192.371 L 346.412,191.921 L 346.686,191.524 L 347.047,191.204 L 347.474,190.98
 L 347.942,190.865 L 348.424,190.865 L 348.893,190.98 L 349.319,191.204 L 349.68,191.524 L 349.954,191.921
 L 350.125,192.371 L 350.183,192.85 L 350.125,193.329 L 349.954,193.779 L 349.68,194.176 L 349.319,194.496
 L 348.893,194.72 L 348.424,194.835 z
M 236.382,268.752 L 235.824,268.468 L 235.382,268.026 L 235.098,267.468 L 235,266.85 L 235.098,266.232
 L 235.382,265.674 L 235.824,265.232 L 236.382,264.948 L 237,264.85 L 237.618,264.948 L 238.176,265.232
 L 238.618,265.674 L 238.902,266.232 L 239,266.85 L 238.902,267.468 L 238.618,268.026 L 238.176,268.468
 L 237.618,268.752 L 237,268.85 z
M 262.382,268.752 L 261.824,268.468 L 261.382,268.026 L 261.098,267.468 L 261,266.85 L 261.098,266.232
 L 261.382,265.674 L 261.824,265.232 L 262.382,264.948 L 263,264.85 L 263.618,264.948 L 264.176,265.232
 L 264.618,265.674 L 264.902,266.232 L 265,266.85 L 264.902,267.468 L 264.618,268.026 L 264.176,268.468
 L 263.618,268.752 L 263,268.85 z
M 236.382,297.752 L 235.824,297.468 L 235.382,297.026 L 235.098,296.468 L 235,295.85 L 235.098,295.232
 L 235.382,294.674 L 235.824,294.232 L 236.382,293.948 L 237,293.85 L 237.618,293.948 L 238.176,294.232
 L 238.618,294.674 L 238.902,295.232 L 239,295.85 L 238.902,296.468 L 238.618,297.026 L 238.176,297.468
 L 237.618,297.752 L 237,297.85 z
M 262.382,297.752 L 261.824,297.468 L 261.382,297.026 L 261.098,296.468 L 261,295.85 L 261.098,295.232
 L 261.382,294.674 L 261.824,294.232 L 262.382,293.948 L 263,293.85 L 263.618,293.948 L 264.176,294.232
 L 264.618,294.674 L 264.902,295.232 L 265,295.85 L 264.902,296.468 L 264.618,297.026 L 264.176,297.468
 L 263.618,297.752 L 263,297.85 z
M 347.942,371.925 L 347.474,371.81 L 347.047,371.586 L 346.686,371.266 L 346.412,370.869 L 346.241,370.419
 L 346.183,369.94 L 346.241,369.461 L 346.412,369.011 L 346.686,368.614 L 347.047,368.294 L 347.474,368.07
 L 347.942,367.955 L 348.424,367.955 L 348.893,368.07 L 349.319,368.294 L 349.68,368.614 L 349.954,369.011
 L 350.125,369.461 L 350.183,369.94 L 350.125,370.419 L 349.954,370.869 L 349.68,371.266 L 349.319,371.586
 L 348.893,371.81 L 348.424,371.925 z
M 318.342,371.925 L 317.874,371.81 L 317.447,371.586 L 317.086,371.266 L 316.812,370.869 L 316.641,370.419
 L 316.583,369.94 L 316.641,369.461 L 316.812,369.011 L 317.086,368.614 L 317.447,368.294 L 317.874,368.07
 L 318.342,367.955 L 318.824,367.955 L 319.293,368.07 L 319.719,368.294 L 320.08,368.614 L 320.354,369.011
 L 320.525,369.461 L 320.583,369.94 L 320.525,370.419 L 320.354,370.869 L 320.08,371.266 L 319.719,371.586
 L 319.293,371.81 L 318.824,371.925 z
M 151.676,371.925 L 151.207,371.81 L 150.781,371.586 L 150.42,371.266 L 150.146,370.869 L 149.975,370.419
 L 149.917,369.94 L 149.975,369.461 L 150.146,369.011 L 150.42,368.614 L 150.781,368.294 L 151.207,368.07
 L 151.676,367.955 L 152.158,367.955 L 152.626,368.07 L 153.053,368.294 L 153.414,368.614 L 153.688,369.011
 L 153.859,369.461 L 153.917,369.94 L 153.859,370.419 L 153.688,370.869 L 153.414,371.266 L 153.053,371.586
 L 152.626,371.81 L 152.158,371.925 z
M 181.276,371.925 L 180.807,371.81 L 180.381,371.586 L 180.02,371.266 L 179.746,370.869 L 179.575,370.419
 L 179.517,369.94 L 179.575,369.461 L 179.746,369.011 L 180.02,368.614 L 180.381,368.294 L 180.807,368.07
 L 181.276,367.955 L 181.758,367.955 L 182.226,368.07 L 182.653,368.294 L 183.014,368.614 L 183.288,369.011
 L 183.459,369.461 L 183.517,369.94 L 183.459,370.419 L 183.288,370.869 L 183.014,371.266 L 182.653,371.586
 L 182.226,371.81 L 181.758,371.925 z
M 37.088,389.256 L 36.6069,389.159 L 36.1399,389.007 L 35.6933,388.803 L 35.2729,388.55 L 34.8841,388.25
 L 34.532,387.908 L 34.2212,387.527 L 33.9558,387.114 L 33.7392,386.674 L 33.5742,386.211 L 33.463,385.733
 L 33.407,385.245 L 33.407,384.755 L 33.463,384.267 L 33.5742,383.789 L 33.7392,383.326 L 33.9558,382.886
 L 34.2212,382.473 L 34.532,382.092 L 34.8841,381.75 L 35.2729,381.45 L 35.6933,381.197 L 36.1399,380.993
 L 36.6069,380.841 L 37.088,380.744 L 37.5772,380.702 L 38.068,380.716 L 38.5539,380.786 L 39.0288,380.91
 L 39.4863,381.089 L 39.9205,381.318 L 40.3258,381.595 L 40.6968,381.916 L 41.0288,382.278 L 41.3174,382.675
 L 41.5588,383.103 L 41.7499,383.555 L 41.8882,384.026 L 41.972,384.51 L 42,385 L 41.972,385.49
 L 41.8882,385.974 L 41.7499,386.445 L 41.5588,386.897 L 41.3174,387.325 L 41.0288,387.722 L 40.6968,388.084
 L 40.3258,388.405 L 39.9205,388.682 L 39.4863,388.911 L 39.0288,389.09 L 38.5539,389.214 L 38.068,389.284
 L 37.5772,389.298 z
M 461.688,389.256 L 461.207,389.159 L 460.74,389.007 L 460.293,388.803 L 459.873,388.55 L 459.484,388.25
 L 459.132,387.908 L 458.821,387.527 L 458.556,387.114 L 458.339,386.674 L 458.174,386.211 L 458.063,385.733
 L 458.007,385.245 L 458.007,384.755 L 458.063,384.267 L 458.174,383.789 L 458.339,383.326 L 458.556,382.886
 L 458.821,382.473 L 459.132,382.092 L 459.484,381.75 L 459.873,381.45 L 460.293,381.197 L 460.74,380.993
 L 461.207,380.841 L 461.688,380.744 L 462.177,380.702 L 462.668,380.716 L 463.154,380.786 L 463.629,380.91
 L 464.086,381.089 L 464.521,381.318 L 464.926,381.595 L 465.297,381.916 L 465.629,382.278 L 465.917,382.675
 L 466.159,383.103 L 466.35,383.555 L 466.488,384.026 L 466.572,384.51 L 466.6,385 L 466.572,385.49
 L 466.488,385.974 L 466.35,386.445 L 466.159,386.897 L 465.917,387.325 L 465.629,387.722 L 465.297,388.084
 L 464.926,388.405 L 464.521,388.682 L 464.086,388.911 L 463.629,389.09 L 463.154,389.214 L 462.668,389.284
 L 462.177,389.298 z
M 347.942,388.135 L 347.474,388.02 L 347.047,387.796 L 346.686,387.476 L 346.412,387.079 L 346.241,386.629
 L 346.183,386.15 L 346.241,385.671 L 346.412,385.221 L 346.686,384.824 L 347.047,384.504 L 347.474,384.28
 L 347.942,384.165 L 348.424,384.165 L 348.893,384.28 L 349.319,384.504 L 349.68,384.824 L 349.954,385.221
 L 350.125,385.671 L 350.183,386.15 L 350.125,386.629 L 349.954,387.079 L 349.68,387.476 L 349.319,387.796
 L 348.893,388.02 L 348.424,388.135 z
M 318.342,388.135 L 317.874,388.02 L 317.447,387.796 L 317.086,387.476 L 316.812,387.079 L 316.641,386.629
 L 316.583,386.15 L 316.641,385.671 L 316.812,385.221 L 317.086,384.824 L 317.447,384.504 L 317.874,384.28
 L 318.342,384.165 L 318.824,384.165 L 319.293,384.28 L 319.719,384.504 L 320.08,384.824 L 320.354,385.221
 L 320.525,385.671 L 320.583,386.15 L 320.525,386.629 L 320.354,387.079 L 320.08,387.476 L 319.719,387.796
 L 319.293,388.02 L 318.824,388.135 z
M 151.676,388.135 L 151.207,388.02 L 150.781,387.796 L 150.42,387.476 L 150.146,387.079 L 149.975,386.629
 L 149.917,386.15 L 149.975,385.671 L 150.146,385.221 L 150.42,384.824 L 150.781,384.504 L 151.207,384.28
 L 151.676,384.165 L 152.158,384.165 L 152.626,384.28 L 153.053,384.504 L 153.414,384.824 L 153.688,385.221
 L 153.859,385.671 L 153.917,386.15 L 153.859,386.629 L 153.688,387.079 L 153.414,387.476 L 153.053,387.796
 L 152.626,388.02 L 152.158,388.135 z
M 181.276,388.135 L 180.807,388.02 L 180.381,387.796 L 180.02,387.476 L 179.746,387.079 L 179.575,386.629
 L 179.517,386.15 L 179.575,385.671 L 179.746,385.221 L 180.02,384.824 L 180.381,384.504 L 180.807,384.28
 L 181.276,384.165 L 181.758,384.165 L 182.226,384.28 L 182.653,384.504 L 183.014,384.824 L 183.288,385.221
 L 183.459,385.671 L 183.517,386.15 L 183.459,386.629 L 183.288,387.079 L 183.014,387.476 L 182.653,387.796
 L 182.226,388.02 L 181.758,388.135 z
" stroke="black" fill="lightgray" stroke-width="0.5"/></svg>
