<?xml version="1.0" standalone="no"?>
<!DOCTYPE svg PUBLIC "-//W3C//DTD SVG 1.1//EN" "http://www.w3.org/Graphics/SVG/1.1/DTD/svg11.dtd">
<svg width="410" height="230" viewBox="0 -230 410 230" xmlns="http://www.w3.org/2000/svg" version="1.1">
<title>OpenSCAD Model</title>
<path d="
M 410,-230 L 0,-230 L 0,-0 L 410,-0 z
M 354.386,-211.047 L 353.905,-211.153 L 353.441,-211.316 L 353,-211.536 L 352.589,-211.808 L 352.215,-212.128
 L 351.884,-212.492 L 351.599,-212.894 L 351.366,-213.328 L 351.188,-213.787 L 351.068,-214.265 L 351.008,-214.754
 L 351.008,-215.246 L 351.068,-215.735 L 351.188,-216.213 L 351.366,-216.672 L 351.599,-217.106 L 351.884,-217.508
 L 352.215,-217.872 L 352.589,-218.192 L 353,-218.464 L 353.441,-218.684 L 353.905,-218.847 L 354.386,-218.953
 L 354.877,-218.998 L 355.369,-218.983 L 355.856,-218.907 L 356.329,-218.773 L 356.783,-218.581 L 357.209,-218.334
 L 357.602,-218.038 L 357.956,-217.695 L 358.265,-217.311 L 358.524,-216.892 L 358.73,-216.445 L 358.879,-215.976
 L 358.97,-215.492 L 359,-215 L 358.97,-214.508 L 358.879,-214.024 L 358.73,-213.555 L 358.524,-213.108
 L 358.265,-212.689 L 357.956,-212.305 L 357.602,-211.962 L 357.209,-211.666 L 356.783,-211.419 L 356.329,-211.227
 L 355.856,-211.093 L 355.369,-211.017 L 354.877,-211.002 z
M 304.386,-211.047 L 303.905,-211.153 L 303.441,-211.316 L 303,-211.536 L 302.589,-211.808 L 302.215,-212.128
 L 301.884,-212.492 L 301.599,-212.894 L 301.366,-213.328 L 301.188,-213.787 L 301.068,-214.265 L 301.008,-214.754
 L 301.008,-215.246 L 301.068,-215.735 L 301.188,-216.213 L 301.366,-216.672 L 301.599,-217.106 L 301.884,-217.508
 L 302.215,-217.872 L 302.589,-218.192 L 303,-218.464 L 303.441,-218.684 L 303.905,-218.847 L 304.386,-218.953
 L 304.877,-218.998 L 305.369,-218.983 L 305.856,-218.907 L 306.329,-218.773 L 306.783,-218.581 L 307.209,-218.334
 L 307.602,-218.038 L 307.956,-217.695 L 308.265,-217.311 L 308.524,-216.892 L 308.73,-216.445 L 308.879,-215.976
 L 308.97,-215.492 L 309,-215 L 308.97,-214.508 L 308.879,-214.024 L 308.73,-213.555 L 308.524,-213.108
 L 308.265,-212.689 L 307.956,-212.305 L 307.602,-211.962 L 307.209,-211.666 L 306.783,-211.419 L 306.329,-211.227
 L 305.856,-211.093 L 305.369,-211.017 L 304.877,-211.002 z
M 154.386,-211.047 L 153.905,-211.153 L 153.441,-211.316 L 153,-211.536 L 152.589,-211.808 L 152.215,-212.128
 L 151.884,-212.492 L 151.599,-212.894 L 151.366,-213.328 L 151.188,-213.787 L 151.068,-214.265 L 151.008,-214.754
 L 151.008,-215.246 L 151.068,-215.735 L 151.188,-216.213 L 151.366,-216.672 L 151.599,-217.106 L 151.884,-217.508
 L 152.215,-217.872 L 152.589,-218.192 L 153,-218.464 L 153.441,-218.684 L 153.905,-218.847 L 154.386,-218.953
 L 154.877,-218.998 L 155.369,-218.983 L 155.856,-218.907 L 156.329,-218.773 L 156.783,-218.581 L 157.209,-218.334
 L 157.602,-218.038 L 157.956,-217.695 L 158.265,-217.311 L 158.524,-216.892 L 158.73,-216.445 L 158.879,-215.976
 L 158.97,-215.492 L 159,-215 L 158.97,-214.508 L 158.879,-214.024 L 158.73,-213.555 L 158.524,-213.108
 L 158.265,-212.689 L 157.956,-212.305 L 157.602,-211.962 L 157.209,-211.666 L 156.783,-211.419 L 156.329,-211.227
 L 155.856,-211.093 L 155.369,-211.017 L 154.877,-211.002 z
M 54.3864,-211.047 L 53.9053,-211.153 L 53.4409,-211.316 L 53,-211.536 L 52.5895,-211.808 L 52.2155,-212.128
 L 51.8837,-212.492 L 51.5991,-212.894 L 51.3661,-213.328 L 51.1882,-213.787 L 51.0681,-214.265 L 51.0076,-214.754
 L 51.0076,-215.246 L 51.0681,-215.735 L 51.1882,-216.213 L 51.3661,-216.672 L 51.5991,-217.106 L 51.8837,-217.508
 L 52.2155,-217.872 L 52.5895,-218.192 L 53,-218.464 L 53.4409,-218.684 L 53.9053,-218.847 L 54.3864,-218.953
 L 54.8768,-218.998 L 55.3691,-218.983 L 55.8557,-218.907 L 56.3294,-218.773 L 56.7829,-218.581 L 57.2095,-218.334
 L 57.6025,-218.038 L 57.956,-217.695 L 58.2648,-217.311 L 58.524,-216.892 L 58.7299,-216.445 L 58.8792,-215.976
 L 58.9697,-215.492 L 59,-215 L 58.9697,-214.508 L 58.8792,-214.024 L 58.7299,-213.555 L 58.524,-213.108
 L 58.2648,-212.689 L 57.956,-212.305 L 57.6025,-211.962 L 57.2095,-211.666 L 56.7829,-211.419 L 56.3294,-211.227
 L 55.8557,-211.093 L 55.3691,-211.017 L 54.8768,-211.002 z
M 254.386,-211.047 L 253.905,-211.153 L 253.441,-211.316 L 253,-211.536 L 252.589,-211.808 L 252.215,-212.128
 L 251.884,-212.492 L 251.599,-212.894 L 251.366,-213.328 L 251.188,-213.787 L 251.068,-214.265 L 251.008,-214.754
 L 251.008,-215.246 L 251.068,-215.735 L 251.188,-216.213 L 251.366,-216.672 L 251.599,-217.106 L 251.884,-217.508
 L 252.215,-217.872 L 252.589,-218.192 L 253,-218.464 L 253.441,-218.684 L 253.905,-218.847 L 254.386,-218.953
 L 254.877,-218.998 L 255.369,-218.983 L 255.856,-218.907 L 256.329,-218.773 L 256.783,-218.581 L 257.209,-218.334
 L 257.602,-218.038 L 257.956,-217.695 L 258.265,-217.311 L 258.524,-216.892 L 258.73,-216.445 L 258.879,-215.976
 L 258.97,-215.492 L 259,-215 L 258.97,-214.508 L 258.879,-214.024 L 258.73,-213.555 L 258.524,-213.108
 L 258.265,-212.689 L 257.956,-212.305 L 257.602,-211.962 L 257.209,-211.666 L 256.783,-211.419 L 256.329,-211.227
 L 255.856,-211.093 L 255.369,-211.017 L 254.877,-211.002 z
M 204.386,-211.047 L 203.905,-211.153 L 203.441,-211.316 L 203,-211.536 L 202.589,-211.808 L 202.215,-212.128
 L 201.884,-212.492 L 201.599,-212.894 L 201.366,-213.328 L 201.188,-213.787 L 201.068,-214.265 L 201.008,-214.754
 L 201.008,-215.246 L 201.068,-215.735 L 201.188,-216.213 L 201.366,-216.672 L 201.599,-217.106 L 201.884,-217.508
 L 202.215,-217.872 L 202.589,-218.192 L 203,-218.464 L 203.441,-218.684 L 203.905,-218.847 L 204.386,-218.953
 L 204.877,-218.998 L 205.369,-218.983 L 205.856,-218.907 L 206.329,-218.773 L 206.783,-218.581 L 207.209,-218.334
 L 207.602,-218.038 L 207.956,-217.695 L 208.265,-217.311 L 208.524,-216.892 L 208.73,-216.445 L 208.879,-215.976
 L 208.97,-215.492 L 209,-215 L 208.97,-214.508 L 208.879,-214.024 L 208.73,-213.555 L 208.524,-213.108
 L 208.265,-212.689 L 207.956,-212.305 L 207.602,-211.962 L 207.209,-211.666 L 206.783,-211.419 L 206.329,-211.227
 L 205.856,-211.093 L 205.369,-211.017 L 204.877,-211.002 z
M 104.386,-211.047 L 103.905,-211.153 L 103.441,-211.316 L 103,-211.536 L 102.589,-211.808 L 102.215,-212.128
 L 101.884,-212.492 L 101.599,-212.894 L 101.366,-213.328 L 101.188,-213.787 L 101.068,-214.265 L 101.008,-214.754
 L 101.008,-215.246 L 101.068,-215.735 L 101.188,-216.213 L 101.366,-216.672 L 101.599,-217.106 L 101.884,-217.508
 L 102.215,-217.872 L 102.589,-218.192 L 103,-218.464 L 103.441,-218.684 L 103.905,-218.847 L 104.386,-218.953
 L 104.877,-218.998 L 105.369,-218.983 L 105.856,-218.907 L 106.329,-218.773 L 106.783,-218.581 L 107.209,-218.334
 L 107.602,-218.038 L 107.956,-217.695 L 108.265,-217.311 L 108.524,-216.892 L 108.73,-216.445 L 108.879,-215.976
 L 108.97,-215.492 L 109,-215 L 108.97,-214.508 L 108.879,-214.024 L 108.73,-213.555 L 108.524,-213.108
 L 108.265,-212.689 L 107.956,-212.305 L 107.602,-211.962 L 107.209,-211.666 L 106.783,-211.419 L 106.329,-211.227
 L 105.856,-211.093 L 105.369,-211.017 L 104.877,-211.002 z
M 16.888,-208.244 L 16.4069,-208.341 L 15.9399,-208.493 L 15.4933,-208.697 L 15.0729,-208.95 L 14.6841,-209.25
 L 14.332,-209.592 L 14.0212,-209.973 L 13.7558,-210.386 L 13.5392,-210.826 L 13.3742,-211.289 L 13.263,-211.767
 L 13.207,-212.255 L 13.207,-212.745 L 13.263,-213.233 L 13.3742,-213.711 L 13.5392,-214.174 L 13.7558,-214.614
 L 14.0212,-215.027 L 14.332,-215.408 L 14.6841,-215.75 L 15.0729,-216.05 L 15.4933,-216.303 L 15.9399,-216.507
 L 16.4069,-216.659 L 16.888,-216.756 L 17.3772,-216.798 L 17.868,-216.784 L 18.3539,-216.714 L 18.8288,-216.59
 L 19.2863,-216.411 L 19.7205,-216.182 L 20.1258,-215.905 L 20.4968,-215.584 L 20.8288,-215.222 L 21.1174,-214.825
 L 21.3588,-214.397 L 21.5499,-213.945 L 21.6882,-213.474 L 21.772,-212.99 L 21.8,-212.5 L 21.772,-212.01
 L 21.6882,-211.526 L 21.5499,-211.055 L 21.3588,-210.603 L 21.1174,-210.175 L 20.8288,-209.778 L 20.4968,-209.416
 L 20.1258,-209.095 L 19.7205,-208.818 L 19.2863,-208.589 L 18.8288,-208.41 L 18.3539,-208.286 L 17.868,-208.216
 L 17.3772,-208.202 z
M 391.888,-208.244 L 391.407,-208.341 L 390.94,-208.493 L 390.493,-208.697 L 390.073,-208.95 L 389.684,-209.25
 L 389.332,-209.592 L 389.021,-209.973 L 388.756,-210.386 L 388.539,-210.826 L 388.374,-211.289 L 388.263,-211.767
 L 388.207,-212.255 L 388.207,-212.745 L 388.263,-213.233 L 388.374,-213.711 L 388.539,-214.174 L 388.756,-214.614
 L 389.021,-215.027 L 389.332,-215.408 L 389.684,-215.75 L 390.073,-216.05 L 390.493,-216.303 L 390.94,-216.507
 L 391.407,-216.659 L 391.888,-216.756 L 392.377,-216.798 L 392.868,-216.784 L 393.354,-216.714 L 393.829,-216.59
 L 394.286,-216.411 L 394.721,-216.182 L 395.126,-215.905 L 395.497,-215.584 L 395.829,-215.222 L 396.117,-214.825
 L 396.359,-214.397 L 396.55,-213.945 L 396.688,-213.474 L 396.772,-212.99 L 396.8,-212.5 L 396.772,-212.01
 L 396.688,-211.526 L 396.55,-211.055 L 396.359,-210.603 L 396.117,-210.175 L 395.829,-209.778 L 395.497,-209.416
 L 395.126,-209.095 L 394.721,-208.818 L 394.286,-208.589 L 393.829,-208.41 L 393.354,-208.286 L 392.868,-208.216
 L 392.377,-208.202 z
M 304.386,-161.047 L 303.905,-161.153 L 303.441,-161.316 L 303,-161.536 L 302.589,-161.808 L 302.215,-162.128
 L 301.884,-162.492 L 301.599,-162.894 L 301.366,-163.328 L 301.188,-163.787 L 301.068,-164.265 L 301.008,-164.754
 L 301.008,-165.246 L 301.068,-165.735 L 301.188,-166.213 L 301.366,-166.672 L 301.599,-167.106 L 301.884,-167.508
 L 302.215,-167.872 L 302.589,-168.192 L 303,-168.464 L 303.441,-168.684 L 303.905,-168.847 L 304.386,-168.953
 L 304.877,-168.998 L 305.369,-168.983 L 305.856,-168.907 L 306.329,-168.773 L 306.783,-168.581 L 307.209,-168.334
 L 307.602,-168.038 L 307.956,-167.695 L 308.265,-167.311 L 308.524,-166.892 L 308.73,-166.445 L 308.879,-165.976
 L 308.97,-165.492 L 309,-165 L 308.97,-164.508 L 308.879,-164.024 L 308.73,-163.555 L 308.524,-163.108
 L 308.265,-162.689 L 307.956,-162.305 L 307.602,-161.962 L 307.209,-161.666 L 306.783,-161.419 L 306.329,-161.227
 L 305.856,-161.093 L 305.369,-161.017 L 304.877,-161.002 z
M 204.386,-161.047 L 203.905,-161.153 L 203.441,-161.316 L 203,-161.536 L 202.589,-161.808 L 202.215,-162.128
 L 201.884,-162.492 L 201.599,-162.894 L 201.366,-163.328 L 201.188,-163.787 L 201.068,-164.265 L 201.008,-164.754
 L 201.008,-165.246 L 201.068,-165.735 L 201.188,-166.213 L 201.366,-166.672 L 201.599,-167.106 L 201.884,-167.508
 L 202.215,-167.872 L 202.589,-168.192 L 203,-168.464 L 203.441,-168.684 L 203.905,-168.847 L 204.386,-168.953
 L 204.877,-168.998 L 205.369,-168.983 L 205.856,-168.907 L 206.329,-168.773 L 206.783,-168.581 L 207.209,-168.334
 L 207.602,-168.038 L 207.956,-167.695 L 208.265,-167.311 L 208.524,-166.892 L 208.73,-166.445 L 208.879,-165.976
 L 208.97,-165.492 L 209,-165 L 208.97,-164.508 L 208.879,-164.024 L 208.73,-163.555 L 208.524,-163.108
 L 208.265,-162.689 L 207.956,-162.305 L 207.602,-161.962 L 207.209,-161.666 L 206.783,-161.419 L 206.329,-161.227
 L 205.856,-161.093 L 205.369,-161.017 L 204.877,-161.002 z
M 354.386,-161.047 L 353.905,-161.153 L 353.441,-161.316 L 353,-161.536 L 352.589,-161.808 L 352.215,-162.128
 L 351.884,-162.492 L 351.599,-162.894 L 351.366,-163.328 L 351.188,-163.787 L 351.068,-164.265 L 351.008,-164.754
 L 351.008,-165.246 L 351.068,-165.735 L 351.188,-166.213 L 351.366,-166.672 L 351.599,-167.106 L 351.884,-167.508
 L 352.215,-167.872 L 352.589,-168.192 L 353,-168.464 L 353.441,-168.684 L 353.905,-168.847 L 354.386,-168.953
 L 354.877,-168.998 L 355.369,-168.983 L 355.856,-168.907 L 356.329,-168.773 L 356.783,-168.581 L 357.209,-168.334
 L 357.602,-168.038 L 357.956,-167.695 L 358.265,-167.311 L 358.524,-166.892 L 358.73,-166.445 L 358.879,-165.976
 L 358.97,-165.492 L 359,-165 L 358.97,-164.508 L 358.879,-164.024 L 358.73,-163.555 L 358.524,-163.108
 L 358.265,-162.689 L 357.956,-162.305 L 357.602,-161.962 L 357.209,-161.666 L 356.783,-161.419 L 356.329,-161.227
 L 355.856,-161.093 L 355.369,-161.017 L 354.877,-161.002 z
M 54.3864,-161.047 L 53.9053,-161.153 L 53.4409,-161.316 L 53,-161.536 L 52.5895,-161.808 L 52.2155,-162.128
 L 51.8837,-162.492 L 51.5991,-162.894 L 51.3661,-163.328 L 51.1882,-163.787 L 51.0681,-164.265 L 51.0076,-164.754
 L 51.0076,-165.246 L 51.0681,-165.735 L 51.1882,-166.213 L 51.3661,-166.672 L 51.5991,-167.106 L 51.8837,-167.508
 L 52.2155,-167.872 L 52.5895,-168.192 L 53,-168.464 L 53.4409,-168.684 L 53.9053,-168.847 L 54.3864,-168.953
 L 54.8768,-168.998 L 55.3691,-168.983 L 55.8557,-168.907 L 56.3294,-168.773 L 56.7829,-168.581 L 57.2095,-168.334
 L 57.6025,-168.038 L 57.956,-167.695 L 58.2648,-167.311 L 58.524,-166.892 L 58.7299,-166.445 L 58.8792,-165.976
 L 58.9697,-165.492 L 59,-165 L 58.9697,-164.508 L 58.8792,-164.024 L 58.7299,-163.555 L 58.524,-163.108
 L 58.2648,-162.689 L 57.956,-162.305 L 57.6025,-161.962 L 57.2095,-161.666 L 56.7829,-161.419 L 56.3294,-161.227
 L 55.8557,-161.093 L 55.3691,-161.017 L 54.8768,-161.002 z
M 254.386,-161.047 L 253.905,-161.153 L 253.441,-161.316 L 253,-161.536 L 252.589,-161.808 L 252.215,-162.128
 L 251.884,-162.492 L 251.599,-162.894 L 251.366,-163.328 L 251.188,-163.787 L 251.068,-164.265 L 251.008,-164.754
 L 251.008,-165.246 L 251.068,-165.735 L 251.188,-166.213 L 251.366,-166.672 L 251.599,-167.106 L 251.884,-167.508
 L 252.215,-167.872 L 252.589,-168.192 L 253,-168.464 L 253.441,-168.684 L 253.905,-168.847 L 254.386,-168.953
 L 254.877,-168.998 L 255.369,-168.983 L 255.856,-168.907 L 256.329,-168.773 L 256.783,-168.581 L 257.209,-168.334
 L 257.602,-168.038 L 257.956,-167.695 L 258.265,-167.311 L 258.524,-166.892 L 258.73,-166.445 L 258.879,-165.976
 L 258.97,-165.492 L 259,-165 L 258.97,-164.508 L 258.879,-164.024 L 258.73,-163.555 L 258.524,-163.108
 L 258.265,-162.689 L 257.956,-162.305 L 257.602,-161.962 L 257.209,-161.666 L 256.783,-161.419 L 256.329,-161.227
 L 255.856,-161.093 L 255.369,-161.017 L 254.877,-161.002 z
M 104.386,-161.047 L 103.905,-161.153 L 103.441,-161.316 L 103,-161.536 L 102.589,-161.808 L 102.215,-162.128
 L 101.884,-162.492 L 101.599,-162.894 L 101.366,-163.328 L 101.188,-163.787 L 101.068,-164.265 L 101.008,-164.754
 L 101.008,-165.246 L 101.068,-165.735 L 101.188,-166.213 L 101.366,-166.672 L 101.599,-167.106 L 101.884,-167.508
 L 102.215,-167.872 L 102.589,-168.192 L 103,-168.464 L 103.441,-168.684 L 103.905,-168.847 L 104.386,-168.953
 L 104.877,-168.998 L 105.369,-168.983 L 105.856,-168.907 L 106.329,-168.773 L 106.783,-168.581 L 107.209,-168.334
 L 107.602,-168.038 L 107.956,-167.695 L 108.265,-167.311 L 108.524,-166.892 L 108.73,-166.445 L 108.879,-165.976
 L 108.97,-165.492 L 109,-165 L 108.97,-164.508 L 108.879,-164.024 L 108.73,-163.555 L 108.524,-163.108
 L 108.265,-162.689 L 107.956,-162.305 L 107.602,-161.962 L 107.209,-161.666 L 106.783,-161.419 L 106.329,-161.227
 L 105.856,-161.093 L 105.369,-161.017 L 104.877,-161.002 z
M 154.386,-161.047 L 153.905,-161.153 L 153.441,-161.316 L 153,-161.536 L 152.589,-161.808 L 152.215,-162.128
 L 151.884,-162.492 L 151.599,-162.894 L 151.366,-163.328 L 151.188,-163.787 L 151.068,-164.265 L 151.008,-164.754
 L 151.008,-165.246 L 151.068,-165.735 L 151.188,-166.213 L 151.366,-166.672 L 151.599,-167.106 L 151.884,-167.508
 L 152.215,-167.872 L 152.589,-168.192 L 153,-168.464 L 153.441,-168.684 L 153.905,-168.847 L 154.386,-168.953
 L 154.877,-168.998 L 155.369,-168.983 L 155.856,-168.907 L 156.329,-168.773 L 156.783,-168.581 L 157.209,-168.334
 L 157.602,-168.038 L 157.956,-167.695 L 158.265,-167.311 L 158.524,-166.892 L 158.73,-166.445 L 158.879,-165.976
 L 158.97,-165.492 L 159,-165 L 158.97,-164.508 L 158.879,-164.024 L 158.73,-163.555 L 158.524,-163.108
 L 158.265,-162.689 L 157.956,-162.305 L 157.602,-161.962 L 157.209,-161.666 L 156.783,-161.419 L 156.329,-161.227
 L 155.856,-161.093 L 155.369,-161.017 L 154.877,-161.002 z
M 304.386,-111.047 L 303.905,-111.153 L 303.441,-111.316 L 303,-111.536 L 302.589,-111.808 L 302.215,-112.128
 L 301.884,-112.492 L 301.599,-112.894 L 301.366,-113.328 L 301.188,-113.787 L 301.068,-114.265 L 301.008,-114.754
 L 301.008,-115.246 L 301.068,-115.735 L 301.188,-116.213 L 301.366,-116.672 L 301.599,-117.106 L 301.884,-117.508
 L 302.215,-117.872 L 302.589,-118.192 L 303,-118.464 L 303.441,-118.684 L 303.905,-118.847 L 304.386,-118.953
 L 304.877,-118.998 L 305.369,-118.983 L 305.856,-118.907 L 306.329,-118.773 L 306.783,-118.581 L 307.209,-118.334
 L 307.602,-118.038 L 307.956,-117.695 L 308.265,-117.311 L 308.524,-116.892 L 308.73,-116.445 L 308.879,-115.976
 L 308.97,-115.492 L 309,-115 L 308.97,-114.508 L 308.879,-114.024 L 308.73,-113.555 L 308.524,-113.108
 L 308.265,-112.689 L 307.956,-112.305 L 307.602,-111.962 L 307.209,-111.666 L 306.783,-111.419 L 306.329,-111.227
 L 305.856,-111.093 L 305.369,-111.017 L 304.877,-111.002 z
M 154.386,-111.047 L 153.905,-111.153 L 153.441,-111.316 L 153,-111.536 L 152.589,-111.808 L 152.215,-112.128
 L 151.884,-112.492 L 151.599,-112.894 L 151.366,-113.328 L 151.188,-113.787 L 151.068,-114.265 L 151.008,-114.754
 L 151.008,-115.246 L 151.068,-115.735 L 151.188,-116.213 L 151.366,-116.672 L 151.599,-117.106 L 151.884,-117.508
 L 152.215,-117.872 L 152.589,-118.192 L 153,-118.464 L 153.441,-118.684 L 153.905,-118.847 L 154.386,-118.953
 L 154.877,-118.998 L 155.369,-118.983 L 155.856,-118.907 L 156.329,-118.773 L 156.783,-118.581 L 157.209,-118.334
 L 157.602,-118.038 L 157.956,-117.695 L 158.265,-117.311 L 158.524,-116.892 L 158.73,-116.445 L 158.879,-115.976
 L 158.97,-115.492 L 159,-115 L 158.97,-114.508 L 158.879,-114.024 L 158.73,-113.555 L 158.524,-113.108
 L 158.265,-112.689 L 157.956,-112.305 L 157.602,-111.962 L 157.209,-111.666 L 156.783,-111.419 L 156.329,-111.227
 L 155.856,-111.093 L 155.369,-111.017 L 154.877,-111.002 z
M 54.3864,-111.047 L 53.9053,-111.153 L 53.4409,-111.316 L 53,-111.536 L 52.5895,-111.808 L 52.2155,-112.128
 L 51.8837,-112.492 L 51.5991,-112.894 L 51.3661,-113.328 L 51.1882,-113.787 L 51.0681,-114.265 L 51.0076,-114.754
 L 51.0076,-115.246 L 51.0681,-115.735 L 51.1882,-116.213 L 51.3661,-116.672 L 51.5991,-117.106 L 51.8837,-117.508
 L 52.2155,-117.872 L 52.5895,-118.192 L 53,-118.464 L 53.4409,-118.684 L 53.9053,-118.847 L 54.3864,-118.953
 L 54.8768,-118.998 L 55.3691,-118.983 L 55.8557,-118.907 L 56.3294,-118.773 L 56.7829,-118.581 L 57.2095,-118.334
 L 57.6025,-118.038 L 57.956,-117.695 L 58.2648,-117.311 L 58.524,-116.892 L 58.7299,-116.445 L 58.8792,-115.976
 L 58.9697,-115.492 L 59,-115 L 58.9697,-114.508 L 58.8792,-114.024 L 58.7299,-113.555 L 58.524,-113.108
 L 58.2648,-112.689 L 57.956,-112.305 L 57.6025,-111.962 L 57.2095,-111.666 L 56.7829,-111.419 L 56.3294,-111.227
 L 55.8557,-111.093 L 55.3691,-111.017 L 54.8768,-111.002 z
M 204.386,-111.047 L 203.905,-111.153 L 203.441,-111.316 L 203,-111.536 L 202.589,-111.808 L 202.215,-112.128
 L 201.884,-112.492 L 201.599,-112.894 L 201.366,-113.328 L 201.188,-113.787 L 201.068,-114.265 L 201.008,-114.754
 L 201.008,-115.246 L 201.068,-115.735 L 201.188,-116.213 L 201.366,-116.672 L 201.599,-117.106 L 201.884,-117.508
 L 202.215,-117.872 L 202.589,-118.192 L 203,-118.464 L 203.441,-118.684 L 203.905,-118.847 L 204.386,-118.953
 L 204.877,-118.998 L 205.369,-118.983 L 205.856,-118.907 L 206.329,-118.773 L 206.783,-118.581 L 207.209,-118.334
 L 207.602,-118.038 L 207.956,-117.695 L 208.265,-117.311 L 208.524,-116.892 L 208.73,-116.445 L 208.879,-115.976
 L 208.97,-115.492 L 209,-115 L 208.97,-114.508 L 208.879,-114.024 L 208.73,-113.555 L 208.524,-113.108
 L 208.265,-112.689 L 207.956,-112.305 L 207.602,-111.962 L 207.209,-111.666 L 206.783,-111.419 L 206.329,-111.227
 L 205.856,-111.093 L 205.369,-111.017 L 204.877,-111.002 z
M 354.386,-111.047 L 353.905,-111.153 L 353.441,-111.316 L 353,-111.536 L 352.589,-111.808 L 352.215,-112.128
 L 351.884,-112.492 L 351.599,-112.894 L 351.366,-113.328 L 351.188,-113.787 L 351.068,-114.265 L 351.008,-114.754
 L 351.008,-115.246 L 351.068,-115.735 L 351.188,-116.213 L 351.366,-116.672 L 351.599,-117.106 L 351.884,-117.508
 L 352.215,-117.872 L 352.589,-118.192 L 353,-118.464 L 353.441,-118.684 L 353.905,-118.847 L 354.386,-118.953
 L 354.877,-118.998 L 355.369,-118.983 L 355.856,-118.907 L 356.329,-118.773 L 356.783,-118.581 L 357.209,-118.334
 L 357.602,-118.038 L 357.956,-117.695 L 358.265,-117.311 L 358.524,-116.892 L 358.73,-116.445 L 358.879,-115.976
 L 358.97,-115.492 L 359,-115 L 358.97,-114.508 L 358.879,-114.024 L 358.73,-113.555 L 358.524,-113.108
 L 358.265,-112.689 L 357.956,-112.305 L 357.602,-111.962 L 357.209,-111.666 L 356.783,-111.419 L 356.329,-111.227
 L 355.856,-111.093 L 355.369,-111.017 L 354.877,-111.002 z
M 254.386,-111.047 L 253.905,-111.153 L 253.441,-111.316 L 253,-111.536 L 252.589,-111.808 L 252.215,-112.128
 L 251.884,-112.492 L 251.599,-112.894 L 251.366,-113.328 L 251.188,-113.787 L 251.068,-114.265 L 251.008,-114.754
 L 251.008,-115.246 L 251.068,-115.735 L 251.188,-116.213 L 251.366,-116.672 L 251.599,-117.106 L 251.884,-117.508
 L 252.215,-117.872 L 252.589,-118.192 L 253,-118.464 L 253.441,-118.684 L 253.905,-118.847 L 254.386,-118.953
 L 254.877,-118.998 L 255.369,-118.983 L 255.856,-118.907 L 256.329,-118.773 L 256.783,-118.581 L 257.209,-118.334
 L 257.602,-118.038 L 257.956,-117.695 L 258.265,-117.311 L 258.524,-116.892 L 258.73,-116.445 L 258.879,-115.976
 L 258.97,-115.492 L 259,-115 L 258.97,-114.508 L 258.879,-114.024 L 258.73,-113.555 L 258.524,-113.108
 L 258.265,-112.689 L 257.956,-112.305 L 257.602,-111.962 L 257.209,-111.666 L 256.783,-111.419 L 256.329,-111.227
 L 255.856,-111.093 L 255.369,-111.017 L 254.877,-111.002 z
M 104.386,-111.047 L 103.905,-111.153 L 103.441,-111.316 L 103,-111.536 L 102.589,-111.808 L 102.215,-112.128
 L 101.884,-112.492 L 101.599,-112.894 L 101.366,-113.328 L 101.188,-113.787 L 101.068,-114.265 L 101.008,-114.754
 L 101.008,-115.246 L 101.068,-115.735 L 101.188,-116.213 L 101.366,-116.672 L 101.599,-117.106 L 101.884,-117.508
 L 102.215,-117.872 L 102.589,-118.192 L 103,-118.464 L 103.441,-118.684 L 103.905,-118.847 L 104.386,-118.953
 L 104.877,-118.998 L 105.369,-118.983 L 105.856,-118.907 L 106.329,-118.773 L 106.783,-118.581 L 107.209,-118.334
 L 107.602,-118.038 L 107.956,-117.695 L 108.265,-117.311 L 108.524,-116.892 L 108.73,-116.445 L 108.879,-115.976
 L 108.97,-115.492 L 109,-115 L 108.97,-114.508 L 108.879,-114.024 L 108.73,-113.555 L 108.524,-113.108
 L 108.265,-112.689 L 107.956,-112.305 L 107.602,-111.962 L 107.209,-111.666 L 106.783,-111.419 L 106.329,-111.227
 L 105.856,-111.093 L 105.369,-111.017 L 104.877,-111.002 z
M 54.3864,-61.0473 L 53.9053,-61.1527 L 53.4409,-61.3164 L 53,-61.5359 L 52.5895,-61.8079 L 52.2155,-62.1283
 L 51.8837,-62.4923 L 51.5991,-62.8943 L 51.3661,-63.3282 L 51.1882,-63.7874 L 51.0681,-64.265 L 51.0076,-64.7538
 L 51.0076,-65.2462 L 51.0681,-65.735 L 51.1882,-66.2126 L 51.3661,-66.6718 L 51.5991,-67.1057 L 51.8837,-67.5077
 L 52.2155,-67.8716 L 52.5895,-68.1921 L 53,-68.4641 L 53.4409,-68.6836 L 53.9053,-68.8473 L 54.3864,-68.9527
 L 54.8768,-68.9981 L 55.3691,-68.9829 L 55.8557,-68.9074 L 56.3294,-68.7726 L 56.7829,-68.5806 L 57.2095,-68.3344
 L 57.6025,-68.0376 L 57.956,-67.6948 L 58.2648,-67.3111 L 58.524,-66.8924 L 58.7299,-66.445 L 58.8792,-65.9756
 L 58.9697,-65.4915 L 59,-65 L 58.9697,-64.5084 L 58.8792,-64.0243 L 58.7299,-63.555 L 58.524,-63.1076
 L 58.2648,-62.6889 L 57.956,-62.3052 L 57.6025,-61.9624 L 57.2095,-61.6656 L 56.7829,-61.4193 L 56.3294,-61.2274
 L 55.8557,-61.0926 L 55.3691,-61.0171 L 54.8768,-61.0019 z
M 204.386,-61.0473 L 203.905,-61.1527 L 203.441,-61.3164 L 203,-61.5359 L 202.589,-61.8079 L 202.215,-62.1283
 L 201.884,-62.4923 L 201.599,-62.8943 L 201.366,-63.3282 L 201.188,-63.7874 L 201.068,-64.265 L 201.008,-64.7538
 L 201.008,-65.2462 L 201.068,-65.735 L 201.188,-66.2126 L 201.366,-66.6718 L 201.599,-67.1057 L 201.884,-67.5077
 L 202.215,-67.8716 L 202.589,-68.1921 L 203,-68.4641 L 203.441,-68.6836 L 203.905,-68.8473 L 204.386,-68.9527
 L 204.877,-68.9981 L 205.369,-68.9829 L 205.856,-68.9074 L 206.329,-68.7726 L 206.783,-68.5806 L 207.209,-68.3344
 L 207.602,-68.0376 L 207.956,-67.6948 L 208.265,-67.3111 L 208.524,-66.8924 L 208.73,-66.445 L 208.879,-65.9756
 L 208.97,-65.4915 L 209,-65 L 208.97,-64.5084 L 208.879,-64.0243 L 208.73,-63.555 L 208.524,-63.1076
 L 208.265,-62.6889 L 207.956,-62.3052 L 207.602,-61.9624 L 207.209,-61.6656 L 206.783,-61.4193 L 206.329,-61.2274
 L 205.856,-61.0926 L 205.369,-61.0171 L 204.877,-61.0019 z
M 104.386,-61.0473 L 103.905,-61.1527 L 103.441,-61.3164 L 103,-61.5359 L 102.589,-61.8079 L 102.215,-62.1283
 L 101.884,-62.4923 L 101.599,-62.8943 L 101.366,-63.3282 L 101.188,-63.7874 L 101.068,-64.265 L 101.008,-64.7538
 L 101.008,-65.2462 L 101.068,-65.735 L 101.188,-66.2126 L 101.366,-66.6718 L 101.599,-67.1057 L 101.884,-67.5077
 L 102.215,-67.8716 L 102.589,-68.1921 L 103,-68.4641 L 103.441,-68.6836 L 103.905,-68.8473 L 104.386,-68.9527
 L 104.877,-68.9981 L 105.369,-68.9829 L 105.856,-68.9074 L 106.329,-68.7726 L 106.783,-68.5806 L 107.209,-68.3344
 L 107.602,-68.0376 L 107.956,-67.6948 L 108.265,-67.3111 L 108.524,-66.8924 L 108.73,-66.445 L 108.879,-65.9756
 L 108.97,-65.4915 L 109,-65 L 108.97,-64.5084 L 108.879,-64.0243 L 108.73,-63.555 L 108.524,-63.1076
 L 108.265,-62.6889 L 107.956,-62.3052 L 107.602,-61.9624 L 107.209,-61.6656 L 106.783,-61.4193 L 106.329,-61.2274
 L 105.856,-61.0926 L 105.369,-61.0171 L 104.877,-61.0019 z
M 304.386,-61.0473 L 303.905,-61.1527 L 303.441,-61.3164 L 303,-61.5359 L 302.589,-61.8079 L 302.215,-62.1283
 L 301.884,-62.4923 L 301.599,-62.8943 L 301.366,-63.3282 L 301.188,-63.7874 L 301.068,-64.265 L 301.008,-64.7538
 L 301.008,-65.2462 L 301.068,-65.735 L 301.188,-66.2126 L 301.366,-66.6718 L 301.599,-67.1057 L 301.884,-67.5077
 L 302.215,-67.8716 L 302.589,-68.1921 L 303,-68.4641 L 303.441,-68.6836 L 303.905,-68.8473 L 304.386,-68.9527
 L 304.877,-68.9981 L 305.369,-68.9829 L 305.856,-68.9074 L 306.329,-68.7726 L 306.783,-68.5806 L 307.209,-68.3344
 L 307.602,-68.0376 L 307.956,-67.6948 L 308.265,-67.3111 L 308.524,-66.8924 L 308.73,-66.445 L 308.879,-65.9756
 L 308.97,-65.4915 L 309,-65 L 308.97,-64.5084 L 308.879,-64.0243 L 308.73,-63.555 L 308.524,-63.1076
 L 308.265,-62.6889 L 307.956,-62.3052 L 307.602,-61.9624 L 307.209,-61.6656 L 306.783,-61.4193 L 306.329,-61.2274
 L 305.856,-61.0926 L 305.369,-61.0171 L 304.877,-61.0019 z
M 254.386,-61.0473 L 253.905,-61.1527 L 253.441,-61.3164 L 253,-61.5359 L 252.589,-61.8079 L 252.215,-62.1283
 L 251.884,-62.4923 L 251.599,-62.8943 L 251.366,-63.3282 L 251.188,-63.7874 L 251.068,-64.265 L 251.008,-64.7538
 L 251.008,-65.2462 L 251.068,-65.735 L 251.188,-66.2126 L 251.366,-66.6718 L 251.599,-67.1057 L 251.884,-67.5077
 L 252.215,-67.8716 L 252.589,-68.1921 L 253,-68.4641 L 253.441,-68.6836 L 253.905,-68.8473 L 254.386,-68.9527
 L 254.877,-68.9981 L 255.369,-68.9829 L 255.856,-68.9074 L 256.329,-68.7726 L 256.783,-68.5806 L 257.209,-68.3344
 L 257.602,-68.0376 L 257.956,-67.6948 L 258.265,-67.3111 L 258.524,-66.8924 L 258.73,-66.445 L 258.879,-65.9756
 L 258.97,-65.4915 L 259,-65 L 258.97,-64.5084 L 258.879,-64.0243 L 258.73,-63.555 L 258.524,-63.1076
 L 258.265,-62.6889 L 257.956,-62.3052 L 257.602,-61.9624 L 257.209,-61.6656 L 256.783,-61.4193 L 256.329,-61.2274
 L 255.856,-61.0926 L 255.369,-61.0171 L 254.877,-61.0019 z
M 154.386,-61.0473 L 153.905,-61.1527 L 153.441,-61.3164 L 153,-61.5359 L 152.589,-61.8079 L 152.215,-62.1283
 L 151.884,-62.4923 L 151.599,-62.8943 L 151.366,-63.3282 L 151.188,-63.7874 L 151.068,-64.265 L 151.008,-64.7538
 L 151.008,-65.2462 L 151.068,-65.735 L 151.188,-66.2126 L 151.366,-66.6718 L 151.599,-67.1057 L 151.884,-67.5077
 L 152.215,-67.8716 L 152.589,-68.1921 L 153,-68.4641 L 153.441,-68.6836 L 153.905,-68.8473 L 154.386,-68.9527
 L 154.877,-68.9981 L 155.369,-68.9829 L 155.856,-68.9074 L 156.329,-68.7726 L 156.783,-68.5806 L 157.209,-68.3344
 L 157.602,-68.0376 L 157.956,-67.6948 L 158.265,-67.3111 L 158.524,-66.8924 L 158.73,-66.445 L 158.879,-65.9756
 L 158.97,-65.4915 L 159,-65 L 158.97,-64.5084 L 158.879,-64.0243 L 158.73,-63.555 L 158.524,-63.1076
 L 158.265,-62.6889 L 157.956,-62.3052 L 157.602,-61.9624 L 157.209,-61.6656 L 156.783,-61.4193 L 156.329,-61.2274
 L 155.856,-61.0926 L 155.369,-61.0171 L 154.877,-61.0019 z
M 354.386,-61.0473 L 353.905,-61.1527 L 353.441,-61.3164 L 353,-61.5359 L 352.589,-61.8079 L 352.215,-62.1283
 L 351.884,-62.4923 L 351.599,-62.8943 L 351.366,-63.3282 L 351.188,-63.7874 L 351.068,-64.265 L 351.008,-64.7538
 L 351.008,-65.2462 L 351.068,-65.735 L 351.188,-66.2126 L 351.366,-66.6718 L 351.599,-67.1057 L 351.884,-67.5077
 L 352.215,-67.8716 L 352.589,-68.1921 L 353,-68.4641 L 353.441,-68.6836 L 353.905,-68.8473 L 354.386,-68.9527
 L 354.877,-68.9981 L 355.369,-68.9829 L 355.856,-68.9074 L 356.329,-68.7726 L 356.783,-68.5806 L 357.209,-68.3344
 L 357.602,-68.0376 L 357.956,-67.6948 L 358.265,-67.3111 L 358.524,-66.8924 L 358.73,-66.445 L 358.879,-65.9756
 L 358.97,-65.4915 L 359,-65 L 358.97,-64.5084 L 358.879,-64.0243 L 358.73,-63.555 L 358.524,-63.1076
 L 358.265,-62.6889 L 357.956,-62.3052 L 357.602,-61.9624 L 357.209,-61.6656 L 356.783,-61.4193 L 356.329,-61.2274
 L 355.856,-61.0926 L 355.369,-61.0171 L 354.877,-61.0019 z
M 16.888,-13.2438 L 16.4069,-13.3413 L 15.9399,-13.493 L 15.4933,-13.6969 L 15.0729,-13.9505 L 14.6841,-14.2503
 L 14.332,-14.5924 L 14.0212,-14.9725 L 13.7558,-15.3855 L 13.5392,-15.8261 L 13.3742,-16.2885 L 13.263,-16.7668
 L 13.207,-17.2545 L 13.207,-17.7455 L 13.263,-18.2332 L 13.3742,-18.7114 L 13.5392,-19.1739 L 13.7558,-19.6144
 L 14.0212,-20.0275 L 14.332,-20.4075 L 14.6841,-20.7497 L 15.0729,-21.0495 L 15.4933,-21.3031 L 15.9399,-21.507
 L 16.4069,-21.6587 L 16.888,-21.7562 L 17.3772,-21.7982 L 17.868,-21.7842 L 18.3539,-21.7144 L 18.8288,-21.5895
 L 19.2863,-21.4114 L 19.7205,-21.1823 L 20.1258,-20.9052 L 20.4968,-20.5837 L 20.8288,-20.222 L 21.1174,-19.8248
 L 21.3588,-19.3972 L 21.5499,-18.945 L 21.6882,-18.4739 L 21.772,-17.9902 L 21.8,-17.5 L 21.772,-17.0098
 L 21.6882,-16.5261 L 21.5499,-16.055 L 21.3588,-15.6027 L 21.1174,-15.1752 L 20.8288,-14.778 L 20.4968,-14.4163
 L 20.1258,-14.0948 L 19.7205,-13.8177 L 19.2863,-13.5886 L 18.8288,-13.4104 L 18.3539,-13.2856 L 17.868,-13.2158
 L 17.3772,-13.2018 z
M 391.888,-13.2438 L 391.407,-13.3413 L 390.94,-13.493 L 390.493,-13.6969 L 390.073,-13.9505 L 389.684,-14.2503
 L 389.332,-14.5924 L 389.021,-14.9725 L 388.756,-15.3855 L 388.539,-15.8261 L 388.374,-16.2885 L 388.263,-16.7668
 L 388.207,-17.2545 L 388.207,-17.7455 L 388.263,-18.2332 L 388.374,-18.7114 L 388.539,-19.1739 L 388.756,-19.6144
 L 389.021,-20.0275 L 389.332,-20.4075 L 389.684,-20.7497 L 390.073,-21.0495 L 390.493,-21.3031 L 390.94,-21.507
 L 391.407,-21.6587 L 391.888,-21.7562 L 392.377,-21.7982 L 392.868,-21.7842 L 393.354,-21.7144 L 393.829,-21.5895
 L 394.286,-21.4114 L 394.721,-21.1823 L 395.126,-20.9052 L 395.497,-20.5837 L 395.829,-20.222 L 396.117,-19.8248
 L 396.359,-19.3972 L 396.55,-18.945 L 396.688,-18.4739 L 396.772,-17.9902 L 396.8,-17.5 L 396.772,-17.0098
 L 396.688,-16.5261 L 396.55,-16.055 L 396.359,-15.6027 L 396.117,-15.1752 L 395.829,-14.778 L 395.497,-14.4163
 L 395.126,-14.0948 L 394.721,-13.8177 L 394.286,-13.5886 L 393.829,-13.4104 L 393.354,-13.2856 L 392.868,-13.2158
 L 392.377,-13.2018 z
M 104.386,-11.0473 L 103.905,-11.1527 L 103.441,-11.3164 L 103,-11.5359 L 102.589,-11.8079 L 102.215,-12.1283
 L 101.884,-12.4923 L 101.599,-12.8943 L 101.366,-13.3282 L 101.188,-13.7874 L 101.068,-14.265 L 101.008,-14.7538
 L 101.008,-15.2462 L 101.068,-15.735 L 101.188,-16.2126 L 101.366,-16.6718 L 101.599,-17.1057 L 101.884,-17.5077
 L 102.215,-17.8716 L 102.589,-18.1921 L 103,-18.4641 L 103.441,-18.6836 L 103.905,-18.8473 L 104.386,-18.9527
 L 104.877,-18.9981 L 105.369,-18.9829 L 105.856,-18.9074 L 106.329,-18.7726 L 106.783,-18.5806 L 107.209,-18.3344
 L 107.602,-18.0376 L 107.956,-17.6948 L 108.265,-17.3111 L 108.524,-16.8924 L 108.73,-16.445 L 108.879,-15.9756
 L 108.97,-15.4915 L 109,-15 L 108.97,-14.5084 L 108.879,-14.0243 L 108.73,-13.555 L 108.524,-13.1076
 L 108.265,-12.6889 L 107.956,-12.3052 L 107.602,-11.9624 L 107.209,-11.6656 L 106.783,-11.4193 L 106.329,-11.2274
 L 105.856,-11.0926 L 105.369,-11.0171 L 104.877,-11.0019 z
M 304.386,-11.0473 L 303.905,-11.1527 L 303.441,-11.3164 L 303,-11.5359 L 302.589,-11.8079 L 302.215,-12.1283
 L 301.884,-12.4923 L 301.599,-12.8943 L 301.366,-13.3282 L 301.188,-13.7874 L 301.068,-14.265 L 301.008,-14.7538
 L 301.008,-15.2462 L 301.068,-15.735 L 301.188,-16.2126 L 301.366,-16.6718 L 301.599,-17.1057 L 301.884,-17.5077
 L 302.215,-17.8716 L 302.589,-18.1921 L 303,-18.4641 L 303.441,-18.6836 L 303.905,-18.8473 L 304.386,-18.9527
 L 304.877,-18.9981 L 305.369,-18.9829 L 305.856,-18.9074 L 306.329,-18.7726 L 306.783,-18.5806 L 307.209,-18.3344
 L 307.602,-18.0376 L 307.956,-17.6948 L 308.265,-17.3111 L 308.524,-16.8924 L 308.73,-16.445 L 308.879,-15.9756
 L 308.97,-15.4915 L 309,-15 L 308.97,-14.5084 L 308.879,-14.0243 L 308.73,-13.555 L 308.524,-13.1076
 L 308.265,-12.6889 L 307.956,-12.3052 L 307.602,-11.9624 L 307.209,-11.6656 L 306.783,-11.4193 L 306.329,-11.2274
 L 305.856,-11.0926 L 305.369,-11.0171 L 304.877,-11.0019 z
M 354.386,-11.0473 L 353.905,-11.1527 L 353.441,-11.3164 L 353,-11.5359 L 352.589,-11.8079 L 352.215,-12.1283
 L 351.884,-12.4923 L 351.599,-12.8943 L 351.366,-13.3282 L 351.188,-13.7874 L 351.068,-14.265 L 351.008,-14.7538
 L 351.008,-15.2462 L 351.068,-15.735 L 351.188,-16.2126 L 351.366,-16.6718 L 351.599,-17.1057 L 351.884,-17.5077
 L 352.215,-17.8716 L 352.589,-18.1921 L 353,-18.4641 L 353.441,-18.6836 L 353.905,-18.8473 L 354.386,-18.9527
 L 354.877,-18.9981 L 355.369,-18.9829 L 355.856,-18.9074 L 356.329,-18.7726 L 356.783,-18.5806 L 357.209,-18.3344
 L 357.602,-18.0376 L 357.956,-17.6948 L 358.265,-17.3111 L 358.524,-16.8924 L 358.73,-16.445 L 358.879,-15.9756
 L 358.97,-15.4915 L 359,-15 L 358.97,-14.5084 L 358.879,-14.0243 L 358.73,-13.555 L 358.524,-13.1076
 L 358.265,-12.6889 L 357.956,-12.3052 L 357.602,-11.9624 L 357.209,-11.6656 L 356.783,-11.4193 L 356.329,-11.2274
 L 355.856,-11.0926 L 355.369,-11.0171 L 354.877,-11.0019 z
M 254.386,-11.0473 L 253.905,-11.1527 L 253.441,-11.3164 L 253,-11.5359 L 252.589,-11.8079 L 252.215,-12.1283
 L 251.884,-12.4923 L 251.599,-12.8943 L 251.366,-13.3282 L 251.188,-13.7874 L 251.068,-14.265 L 251.008,-14.7538
 L 251.008,-15.2462 L 251.068,-15.735 L 251.188,-16.2126 L 251.366,-16.6718 L 251.599,-17.1057 L 251.884,-17.5077
 L 252.215,-17.8716 L 252.589,-18.1921 L 253,-18.4641 L 253.441,-18.6836 L 253.905,-18.8473 L 254.386,-18.9527
 L 254.877,-18.9981 L 255.369,-18.9829 L 255.856,-18.9074 L 256.329,-18.7726 L 256.783,-18.5806 L 257.209,-18.3344
 L 257.602,-18.0376 L 257.956,-17.6948 L 258.265,-17.3111 L 258.524,-16.8924 L 258.73,-16.445 L 258.879,-15.9756
 L 258.97,-15.4915 L 259,-15 L 258.97,-14.5084 L 258.879,-14.0243 L 258.73,-13.555 L 258.524,-13.1076
 L 258.265,-12.6889 L 257.956,-12.3052 L 257.602,-11.9624 L 257.209,-11.6656 L 256.783,-11.4193 L 256.329,-11.2274
 L 255.856,-11.0926 L 255.369,-11.0171 L 254.877,-11.0019 z
M 204.386,-11.0473 L 203.905,-11.1527 L 203.441,-11.3164 L 203,-11.5359 L 202.589,-11.8079 L 202.215,-12.1283
 L 201.884,-12.4923 L 201.599,-12.8943 L 201.366,-13.3282 L 201.188,-13.7874 L 201.068,-14.265 L 201.008,-14.7538
 L 201.008,-15.2462 L 201.068,-15.735 L 201.188,-16.2126 L 201.366,-16.6718 L 201.599,-17.1057 L 201.884,-17.5077
 L 202.215,-17.8716 L 202.589,-18.1921 L 203,-18.4641 L 203.441,-18.6836 L 203.905,-18.8473 L 204.386,-18.9527
 L 204.877,-18.9981 L 205.369,-18.9829 L 205.856,-18.9074 L 206.329,-18.7726 L 206.783,-18.5806 L 207.209,-18.3344
 L 207.602,-18.0376 L 207.956,-17.6948 L 208.265,-17.3111 L 208.524,-16.8924 L 208.73,-16.445 L 208.879,-15.9756
 L 208.97,-15.4915 L 209,-15 L 208.97,-14.5084 L 208.879,-14.0243 L 208.73,-13.555 L 208.524,-13.1076
 L 208.265,-12.6889 L 207.956,-12.3052 L 207.602,-11.9624 L 207.209,-11.6656 L 206.783,-11.4193 L 206.329,-11.2274
 L 205.856,-11.0926 L 205.369,-11.0171 L 204.877,-11.0019 z
M 54.3864,-11.0473 L 53.9053,-11.1527 L 53.4409,-11.3164 L 53,-11.5359 L 52.5895,-11.8079 L 52.2155,-12.1283
 L 51.8837,-12.4923 L 51.5991,-12.8943 L 51.3661,-13.3282 L 51.1882,-13.7874 L 51.0681,-14.265 L 51.0076,-14.7538
 L 51.0076,-15.2462 L 51.0681,-15.735 L 51.1882,-16.2126 L 51.3661,-16.6718 L 51.5991,-17.1057 L 51.8837,-17.5077
 L 52.2155,-17.8716 L 52.5895,-18.1921 L 53,-18.4641 L 53.4409,-18.6836 L 53.9053,-18.8473 L 54.3864,-18.9527
 L 54.8768,-18.9981 L 55.3691,-18.9829 L 55.8557,-18.9074 L 56.3294,-18.7726 L 56.7829,-18.5806 L 57.2095,-18.3344
 L 57.6025,-18.0376 L 57.956,-17.6948 L 58.2648,-17.3111 L 58.524,-16.8924 L 58.7299,-16.445 L 58.8792,-15.9756
 L 58.9697,-15.4915 L 59,-15 L 58.9697,-14.5084 L 58.8792,-14.0243 L 58.7299,-13.555 L 58.524,-13.1076
 L 58.2648,-12.6889 L 57.956,-12.3052 L 57.6025,-11.9624 L 57.2095,-11.6656 L 56.7829,-11.4193 L 56.3294,-11.2274
 L 55.8557,-11.0926 L 55.3691,-11.0171 L 54.8768,-11.0019 z
M 154.386,-11.0473 L 153.905,-11.1527 L 153.441,-11.3164 L 153,-11.5359 L 152.589,-11.8079 L 152.215,-12.1283
 L 151.884,-12.4923 L 151.599,-12.8943 L 151.366,-13.3282 L 151.188,-13.7874 L 151.068,-14.265 L 151.008,-14.7538
 L 151.008,-15.2462 L 151.068,-15.735 L 151.188,-16.2126 L 151.366,-16.6718 L 151.599,-17.1057 L 151.884,-17.5077
 L 152.215,-17.8716 L 152.589,-18.1921 L 153,-18.4641 L 153.441,-18.6836 L 153.905,-18.8473 L 154.386,-18.9527
 L 154.877,-18.9981 L 155.369,-18.9829 L 155.856,-18.9074 L 156.329,-18.7726 L 156.783,-18.5806 L 157.209,-18.3344
 L 157.602,-18.0376 L 157.956,-17.6948 L 158.265,-17.3111 L 158.524,-16.8924 L 158.73,-16.445 L 158.879,-15.9756
 L 158.97,-15.4915 L 159,-15 L 158.97,-14.5084 L 158.879,-14.0243 L 158.73,-13.555 L 158.524,-13.1076
 L 158.265,-12.6889 L 157.956,-12.3052 L 157.602,-11.9624 L 157.209,-11.6656 L 156.783,-11.4193 L 156.329,-11.2274
 L 155.856,-11.0926 L 155.369,-11.0171 L 154.877,-11.0019 z
" stroke="black" fill="lightgray" stroke-width="0.5"/></svg>
