<?xml version="1.0" standalone="no"?>
<!DOCTYPE svg PUBLIC "-//W3C//DTD SVG 1.1//EN" "http://www.w3.org/Graphics/SVG/1.1/DTD/svg11.dtd">
<svg width="410" height="230" viewBox="0 -230 410 230" xmlns="http://www.w3.org/2000/svg" version="1.1">
<title>OpenSCAD Model</title>
<path d="
M 410,-230 L 0,-230 L 0,-0 L 410,-0 z
M 273.342,-214.075 L 272.874,-214.19 L 272.447,-214.414 L 272.086,-214.734 L 271.812,-215.131 L 271.641,-215.581
 L 271.583,-216.06 L 271.641,-216.539 L 271.812,-216.989 L 272.086,-217.386 L 272.447,-217.706 L 272.874,-217.93
 L 273.342,-218.045 L 273.824,-218.045 L 274.293,-217.93 L 274.719,-217.706 L 275.08,-217.386 L 275.354,-216.989
 L 275.525,-216.539 L 275.583,-216.06 L 275.525,-215.581 L 275.354,-215.131 L 275.08,-214.734 L 274.719,-214.414
 L 274.293,-214.19 L 273.824,-214.075 z
M 302.942,-214.075 L 302.474,-214.19 L 302.047,-214.414 L 301.686,-214.734 L 301.412,-215.131 L 301.241,-215.581
 L 301.183,-216.06 L 301.241,-216.539 L 301.412,-216.989 L 301.686,-217.386 L 302.047,-217.706 L 302.474,-217.93
 L 302.942,-218.045 L 303.424,-218.045 L 303.893,-217.93 L 304.319,-217.706 L 304.68,-217.386 L 304.954,-216.989
 L 305.125,-216.539 L 305.183,-216.06 L 305.125,-215.581 L 304.954,-215.131 L 304.68,-214.734 L 304.319,-214.414
 L 303.893,-214.19 L 303.424,-214.075 z
M 136.276,-214.075 L 135.807,-214.19 L 135.381,-214.414 L 135.02,-214.734 L 134.746,-215.131 L 134.575,-215.581
 L 134.517,-216.06 L 134.575,-216.539 L 134.746,-216.989 L 135.02,-217.386 L 135.381,-217.706 L 135.807,-217.93
 L 136.276,-218.045 L 136.758,-218.045 L 137.226,-217.93 L 137.653,-217.706 L 138.014,-217.386 L 138.288,-216.989
 L 138.459,-216.539 L 138.517,-216.06 L 138.459,-215.581 L 138.288,-215.131 L 138.014,-214.734 L 137.653,-214.414
 L 137.226,-214.19 L 136.758,-214.075 z
M 106.676,-214.075 L 106.207,-214.19 L 105.781,-214.414 L 105.42,-214.734 L 105.146,-215.131 L 104.975,-215.581
 L 104.917,-216.06 L 104.975,-216.539 L 105.146,-216.989 L 105.42,-217.386 L 105.781,-217.706 L 106.207,-217.93
 L 106.676,-218.045 L 107.158,-218.045 L 107.626,-217.93 L 108.053,-217.706 L 108.414,-217.386 L 108.688,-216.989
 L 108.859,-216.539 L 108.917,-216.06 L 108.859,-215.581 L 108.688,-215.131 L 108.414,-214.734 L 108.053,-214.414
 L 107.626,-214.19 L 107.158,-214.075 z
M 391.888,-208.244 L 391.407,-208.341 L 390.94,-208.493 L 390.493,-208.697 L 390.073,-208.95 L 389.684,-209.25
 L 389.332,-209.592 L 389.021,-209.973 L 388.756,-210.386 L 388.539,-210.826 L 388.374,-211.289 L 388.263,-211.767
 L 388.207,-212.255 L 388.207,-212.745 L 388.263,-213.233 L 388.374,-213.711 L 388.539,-214.174 L 388.756,-214.614
 L 389.021,-215.027 L 389.332,-215.408 L 389.684,-215.75 L 390.073,-216.05 L 390.493,-216.303 L 390.94,-216.507
 L 391.407,-216.659 L 391.888,-216.756 L 392.377,-216.798 L 392.868,-216.784 L 393.354,-216.714 L 393.829,-216.59
 L 394.286,-216.411 L 394.721,-216.182 L 395.126,-215.905 L 395.497,-215.584 L 395.829,-215.222 L 396.117,-214.825
 L 396.359,-214.397 L 396.55,-213.945 L 396.688,-213.474 L 396.772,-212.99 L 396.8,-212.5 L 396.772,-212.01
 L 396.688,-211.526 L 396.55,-211.055 L 396.359,-210.603 L 396.117,-210.175 L 395.829,-209.778 L 395.497,-209.416
 L 395.126,-209.095 L 394.721,-208.818 L 394.286,-208.589 L 393.829,-208.41 L 393.354,-208.286 L 392.868,-208.216
 L 392.377,-208.202 z
M 16.888,-208.244 L 16.4069,-208.341 L 15.9399,-208.493 L 15.4933,-208.697 L 15.0729,-208.95 L 14.6841,-209.25
 L 14.332,-209.592 L 14.0212,-209.973 L 13.7558,-210.386 L 13.5392,-210.826 L 13.3742,-211.289 L 13.263,-211.767
 L 13.207,-212.255 L 13.207,-212.745 L 13.263,-213.233 L 13.3742,-213.711 L 13.5392,-214.174 L 13.7558,-214.614
 L 14.0212,-215.027 L 14.332,-215.408 L 14.6841,-215.75 L 15.0729,-216.05 L 15.4933,-216.303 L 15.9399,-216.507
 L 16.4069,-216.659 L 16.888,-216.756 L 17.3772,-216.798 L 17.868,-216.784 L 18.3539,-216.714 L 18.8288,-216.59
 L 19.2863,-216.411 L 19.7205,-216.182 L 20.1258,-215.905 L 20.4968,-215.584 L 20.8288,-215.222 L 21.1174,-214.825
 L 21.3588,-214.397 L 21.5499,-213.945 L 21.6882,-213.474 L 21.772,-212.99 L 21.8,-212.5 L 21.772,-212.01
 L 21.6882,-211.526 L 21.5499,-211.055 L 21.3588,-210.603 L 21.1174,-210.175 L 20.8288,-209.778 L 20.4968,-209.416
 L 20.1258,-209.095 L 19.7205,-208.818 L 19.2863,-208.589 L 18.8288,-208.41 L 18.3539,-208.286 L 17.868,-208.216
 L 17.3772,-208.202 z
M 106.676,-197.865 L 106.207,-197.98 L 105.781,-198.204 L 105.42,-198.524 L 105.146,-198.921 L 104.975,-199.371
 L 104.917,-199.85 L 104.975,-200.329 L 105.146,-200.779 L 105.42,-201.176 L 105.781,-201.496 L 106.207,-201.72
 L 106.676,-201.835 L 107.158,-201.835 L 107.626,-201.72 L 108.053,-201.496 L 108.414,-201.176 L 108.688,-200.779
 L 108.859,-200.329 L 108.917,-199.85 L 108.859,-199.371 L 108.688,-198.921 L 108.414,-198.524 L 108.053,-198.204
 L 107.626,-197.98 L 107.158,-197.865 z
M 302.942,-197.865 L 302.474,-197.98 L 302.047,-198.204 L 301.686,-198.524 L 301.412,-198.921 L 301.241,-199.371
 L 301.183,-199.85 L 301.241,-200.329 L 301.412,-200.779 L 301.686,-201.176 L 302.047,-201.496 L 302.474,-201.72
 L 302.942,-201.835 L 303.424,-201.835 L 303.893,-201.72 L 304.319,-201.496 L 304.68,-201.176 L 304.954,-200.779
 L 305.125,-200.329 L 305.183,-199.85 L 305.125,-199.371 L 304.954,-198.921 L 304.68,-198.524 L 304.319,-198.204
 L 303.893,-197.98 L 303.424,-197.865 z
M 136.276,-197.865 L 135.807,-197.98 L 135.381,-198.204 L 135.02,-198.524 L 134.746,-198.921 L 134.575,-199.371
 L 134.517,-199.85 L 134.575,-200.329 L 134.746,-200.779 L 135.02,-201.176 L 135.381,-201.496 L 135.807,-201.72
 L 136.276,-201.835 L 136.758,-201.835 L 137.226,-201.72 L 137.653,-201.496 L 138.014,-201.176 L 138.288,-200.779
 L 138.459,-200.329 L 138.517,-199.85 L 138.459,-199.371 L 138.288,-198.921 L 138.014,-198.524 L 137.653,-198.204
 L 137.226,-197.98 L 136.758,-197.865 z
M 273.342,-197.865 L 272.874,-197.98 L 272.447,-198.204 L 272.086,-198.524 L 271.812,-198.921 L 271.641,-199.371
 L 271.583,-199.85 L 271.641,-200.329 L 271.812,-200.779 L 272.086,-201.176 L 272.447,-201.496 L 272.874,-201.72
 L 273.342,-201.835 L 273.824,-201.835 L 274.293,-201.72 L 274.719,-201.496 L 275.08,-201.176 L 275.354,-200.779
 L 275.525,-200.329 L 275.583,-199.85 L 275.525,-199.371 L 275.354,-198.921 L 275.08,-198.524 L 274.719,-198.204
 L 274.293,-197.98 L 273.824,-197.865 z
M 217.382,-127.598 L 216.824,-127.882 L 216.382,-128.324 L 216.098,-128.882 L 216,-129.5 L 216.098,-130.118
 L 216.382,-130.676 L 216.824,-131.118 L 217.382,-131.402 L 218,-131.5 L 218.618,-131.402 L 219.176,-131.118
 L 219.618,-130.676 L 219.902,-130.118 L 220,-129.5 L 219.902,-128.882 L 219.618,-128.324 L 219.176,-127.882
 L 218.618,-127.598 L 218,-127.5 z
M 191.382,-127.598 L 190.824,-127.882 L 190.382,-128.324 L 190.098,-128.882 L 190,-129.5 L 190.098,-130.118
 L 190.382,-130.676 L 190.824,-131.118 L 191.382,-131.402 L 192,-131.5 L 192.618,-131.402 L 193.176,-131.118
 L 193.618,-130.676 L 193.902,-130.118 L 194,-129.5 L 193.902,-128.882 L 193.618,-128.324 L 193.176,-127.882
 L 192.618,-127.598 L 192,-127.5 z
M 217.382,-98.5979 L 216.824,-98.882 L 216.382,-99.3244 L 216.098,-99.882 L 216,-100.5 L 216.098,-101.118
 L 216.382,-101.676 L 216.824,-102.118 L 217.382,-102.402 L 218,-102.5 L 218.618,-102.402 L 219.176,-102.118
 L 219.618,-101.676 L 219.902,-101.118 L 220,-100.5 L 219.902,-99.882 L 219.618,-99.3244 L 219.176,-98.882
 L 218.618,-98.5979 L 218,-98.5 z
M 191.382,-98.5979 L 190.824,-98.882 L 190.382,-99.3244 L 190.098,-99.882 L 190,-100.5 L 190.098,-101.118
 L 190.382,-101.676 L 190.824,-102.118 L 191.382,-102.402 L 192,-102.5 L 192.618,-102.402 L 193.176,-102.118
 L 193.618,-101.676 L 193.902,-101.118 L 194,-100.5 L 193.902,-99.882 L 193.618,-99.3244 L 193.176,-98.882
 L 192.618,-98.5979 L 192,-98.5 z
M 136.276,-28.0746 L 135.807,-28.19 L 135.381,-28.414 L 135.02,-28.7337 L 134.746,-29.1306 L 134.575,-29.5814
 L 134.517,-30.06 L 134.575,-30.5386 L 134.746,-30.9894 L 135.02,-31.3862 L 135.381,-31.706 L 135.807,-31.93
 L 136.276,-32.0454 L 136.758,-32.0454 L 137.226,-31.93 L 137.653,-31.706 L 138.014,-31.3862 L 138.288,-30.9894
 L 138.459,-30.5386 L 138.517,-30.06 L 138.459,-29.5814 L 138.288,-29.1306 L 138.014,-28.7337 L 137.653,-28.414
 L 137.226,-28.19 L 136.758,-28.0746 z
M 302.942,-28.0746 L 302.474,-28.19 L 302.047,-28.414 L 301.686,-28.7337 L 301.412,-29.1306 L 301.241,-29.5814
 L 301.183,-30.06 L 301.241,-30.5386 L 301.412,-30.9894 L 301.686,-31.3862 L 302.047,-31.706 L 302.474,-31.93
 L 302.942,-32.0454 L 303.424,-32.0454 L 303.893,-31.93 L 304.319,-31.706 L 304.68,-31.3862 L 304.954,-30.9894
 L 305.125,-30.5386 L 305.183,-30.06 L 305.125,-29.5814 L 304.954,-29.1306 L 304.68,-28.7337 L 304.319,-28.414
 L 303.893,-28.19 L 303.424,-28.0746 z
M 106.676,-28.0746 L 106.207,-28.19 L 105.781,-28.414 L 105.42,-28.7337 L 105.146,-29.1306 L 104.975,-29.5814
 L 104.917,-30.06 L 104.975,-30.5386 L 105.146,-30.9894 L 105.42,-31.3862 L 105.781,-31.706 L 106.207,-31.93
 L 106.676,-32.0454 L 107.158,-32.0454 L 107.626,-31.93 L 108.053,-31.706 L 108.414,-31.3862 L 108.688,-30.9894
 L 108.859,-30.5386 L 108.917,-30.06 L 108.859,-29.5814 L 108.688,-29.1306 L 108.414,-28.7337 L 108.053,-28.414
 L 107.626,-28.19 L 107.158,-28.0746 z
M 273.342,-28.0746 L 272.874,-28.19 L 272.447,-28.414 L 272.086,-28.7337 L 271.812,-29.1306 L 271.641,-29.5814
 L 271.583,-30.06 L 271.641,-30.5386 L 271.812,-30.9894 L 272.086,-31.3862 L 272.447,-31.706 L 272.874,-31.93
 L 273.342,-32.0454 L 273.824,-32.0454 L 274.293,-31.93 L 274.719,-31.706 L 275.08,-31.3862 L 275.354,-30.9894
 L 275.525,-30.5386 L 275.583,-30.06 L 275.525,-29.5814 L 275.354,-29.1306 L 275.08,-28.7337 L 274.719,-28.414
 L 274.293,-28.19 L 273.824,-28.0746 z
M 16.888,-13.2438 L 16.4069,-13.3413 L 15.9399,-13.493 L 15.4933,-13.6969 L 15.0729,-13.9505 L 14.6841,-14.2503
 L 14.332,-14.5924 L 14.0212,-14.9725 L 13.7558,-15.3855 L 13.5392,-15.8261 L 13.3742,-16.2885 L 13.263,-16.7668
 L 13.207,-17.2545 L 13.207,-17.7455 L 13.263,-18.2332 L 13.3742,-18.7114 L 13.5392,-19.1739 L 13.7558,-19.6144
 L 14.0212,-20.0275 L 14.332,-20.4075 L 14.6841,-20.7497 L 15.0729,-21.0495 L 15.4933,-21.3031 L 15.9399,-21.507
 L 16.4069,-21.6587 L 16.888,-21.7562 L 17.3772,-21.7982 L 17.868,-21.7842 L 18.3539,-21.7144 L 18.8288,-21.5895
 L 19.2863,-21.4114 L 19.7205,-21.1823 L 20.1258,-20.9052 L 20.4968,-20.5837 L 20.8288,-20.222 L 21.1174,-19.8248
 L 21.3588,-19.3972 L 21.5499,-18.945 L 21.6882,-18.4739 L 21.772,-17.9902 L 21.8,-17.5 L 21.772,-17.0098
 L 21.6882,-16.5261 L 21.5499,-16.055 L 21.3588,-15.6027 L 21.1174,-15.1752 L 20.8288,-14.778 L 20.4968,-14.4163
 L 20.1258,-14.0948 L 19.7205,-13.8177 L 19.2863,-13.5886 L 18.8288,-13.4104 L 18.3539,-13.2856 L 17.868,-13.2158
 L 17.3772,-13.2018 z
M 391.888,-13.2438 L 391.407,-13.3413 L 390.94,-13.493 L 390.493,-13.6969 L 390.073,-13.9505 L 389.684,-14.2503
 L 389.332,-14.5924 L 389.021,-14.9725 L 388.756,-15.3855 L 388.539,-15.8261 L 388.374,-16.2885 L 388.263,-16.7668
 L 388.207,-17.2545 L 388.207,-17.7455 L 388.263,-18.2332 L 388.374,-18.7114 L 388.539,-19.1739 L 388.756,-19.6144
 L 389.021,-20.0275 L 389.332,-20.4075 L 389.684,-20.7497 L 390.073,-21.0495 L 390.493,-21.3031 L 390.94,-21.507
 L 391.407,-21.6587 L 391.888,-21.7562 L 392.377,-21.7982 L 392.868,-21.7842 L 393.354,-21.7144 L 393.829,-21.5895
 L 394.286,-21.4114 L 394.721,-21.1823 L 395.126,-20.9052 L 395.497,-20.5837 L 395.829,-20.222 L 396.117,-19.8248
 L 396.359,-19.3972 L 396.55,-18.945 L 396.688,-18.4739 L 396.772,-17.9902 L 396.8,-17.5 L 396.772,-17.0098
 L 396.688,-16.5261 L 396.55,-16.055 L 396.359,-15.6027 L 396.117,-15.1752 L 395.829,-14.778 L 395.497,-14.4163
 L 395.126,-14.0948 L 394.721,-13.8177 L 394.286,-13.5886 L 393.829,-13.4104 L 393.354,-13.2856 L 392.868,-13.2158
 L 392.377,-13.2018 z
M 136.276,-11.8646 L 135.807,-11.98 L 135.381,-12.204 L 135.02,-12.5237 L 134.746,-12.9205 L 134.575,-13.3714
 L 134.517,-13.85 L 134.575,-14.3286 L 134.746,-14.7794 L 135.02,-15.1762 L 135.381,-15.496 L 135.807,-15.72
 L 136.276,-15.8354 L 136.758,-15.8354 L 137.226,-15.72 L 137.653,-15.496 L 138.014,-15.1762 L 138.288,-14.7794
 L 138.459,-14.3286 L 138.517,-13.85 L 138.459,-13.3714 L 138.288,-12.9205 L 138.014,-12.5237 L 137.653,-12.204
 L 137.226,-11.98 L 136.758,-11.8646 z
M 273.342,-11.8646 L 272.874,-11.98 L 272.447,-12.204 L 272.086,-12.5237 L 271.812,-12.9205 L 271.641,-13.3714
 L 271.583,-13.85 L 271.641,-14.3286 L 271.812,-14.7794 L 272.086,-15.1762 L 272.447,-15.496 L 272.874,-15.72
 L 273.342,-15.8354 L 273.824,-15.8354 L 274.293,-15.72 L 274.719,-15.496 L 275.08,-15.1762 L 275.354,-14.7794
 L 275.525,-14.3286 L 275.583,-13.85 L 275.525,-13.3714 L 275.354,-12.9205 L 275.08,-12.5237 L 274.719,-12.204
 L 274.293,-11.98 L 273.824,-11.8646 z
M 302.942,-11.8646 L 302.474,-11.98 L 302.047,-12.204 L 301.686,-12.5237 L 301.412,-12.9205 L 301.241,-13.3714
 L 301.183,-13.85 L 301.241,-14.3286 L 301.412,-14.7794 L 301.686,-15.1762 L 302.047,-15.496 L 302.474,-15.72
 L 302.942,-15.8354 L 303.424,-15.8354 L 303.893,-15.72 L 304.319,-15.496 L 304.68,-15.1762 L 304.954,-14.7794
 L 305.125,-14.3286 L 305.183,-13.85 L 305.125,-13.3714 L 304.954,-12.9205 L 304.68,-12.5237 L 304.319,-12.204
 L 303.893,-11.98 L 303.424,-11.8646 z
M 106.676,-11.8646 L 106.207,-11.98 L 105.781,-12.204 L 105.42,-12.5237 L 105.146,-12.9205 L 104.975,-13.3714
 L 104.917,-13.85 L 104.975,-14.3286 L 105.146,-14.7794 L 105.42,-15.1762 L 105.781,-15.496 L 106.207,-15.72
 L 106.676,-15.8354 L 107.158,-15.8354 L 107.626,-15.72 L 108.053,-15.496 L 108.414,-15.1762 L 108.688,-14.7794
 L 108.859,-14.3286 L 108.917,-13.85 L 108.859,-13.3714 L 108.688,-12.9205 L 108.414,-12.5237 L 108.053,-12.204
 L 107.626,-11.98 L 107.158,-11.8646 z
" stroke="black" fill="lightgray" stroke-width="0.5"/></svg>
