999
dxflib 3.12.2.0
  0
SECTION
  2
HEADER
  9
$ACADVER
  1
AC1015
  9
$HANDSEED
  5
FFFF
  9
$DIMADEC
 70
0
  9
$DIMASZ
 40
3.0
  9
$DIMAUNIT
 70
0
  9
$DIMAZIN
 70
0
  9
$DIMDEC
 70
1.0
  9
$DIMEXE
 40
1.5
  9
$DIMEXO
 40
0.75
  9
$DIMGAP
 40
0.75
  9
$DIMLUNIT
 70
2
  9
$DIMSCALE
 40
1.0
  9
$DIMTSZ
 40
0.0
  9
$DIMTXT
 40
3.0
  9
$DIMZIN
 70
0
  9
$DWGCODEPAGE
  3
ANSI_1252
  9
$INSUNITS
 70
0
  9
$LTSCALE
 40
1.0
  9
$MEASUREMENT
 70
1
  9
$PDMODE
 70
0
  9
$PDSIZE
 40
0
  0
ENDSEC
  0
SECTION
  2
TABLES
  0
TABLE
  2
VPORT
  5
8
100
AcDbSymbolTable
 70
1
  0
VPORT
  5
30
100
AcDbSymbolTableRecord
100
AcDbViewportTableRecord
  2
*Active
 70
0
 10
0.0
 20
0.0
 11
1.0
 21
1.0
 12
286.30555555555549
 22
148.5
 13
0.0
 23
0.0
 14
10.0
 24
10.0
 15
10.0
 25
10.0
 16
0.0
 26
0.0
 36
1.0
 17
0.0
 27
0.0
 37
0.0
 40
297.0
 41
1.92798353909465
 42
50.0
 43
0.0
 44
0.0
 50
0.0
 51
0.0
 71
0
 72
100
 73
1
 74
3
 75
1
 76
1
 77
0
 78
0
281
0
 65
1
110
0.0
120
0.0
130
0.0
111
1.0
121
0.0
131
0.0
112
0.0
122
1.0
132
0.0
 79
0
146
0.0
  0
ENDTAB
  0
TABLE
  2
LTYPE
  5
5
100
AcDbSymbolTable
 70
41
  0
LTYPE
  5
16
100
AcDbSymbolTableRecord
100
AcDbLinetypeTableRecord
  2
Continuous
 70
0
  3
Solid line
 72
65
 73
0
 40
0.0
  0
LTYPE
  5
31
100
AcDbSymbolTableRecord
100
AcDbLinetypeTableRecord
  2
ACAD_ISO15W100
 70
0
  3
ISO double-dash triple-dot __ __ . . . __ __ . .
 72
65
 73
10
 40
39.000000000000007
 49
12.0
 74
0
 49
-3.0
 74
0
 49
12.0
 74
0
 49
-2.9500000000000002
 74
0
 49
0.1
 74
0
 49
-2.9000000000000004
 74
0
 49
0.1
 74
0
 49
-2.9000000000000004
 74
0
 49
0.1
 74
0
 49
-2.9500000000000002
 74
0
  0
LTYPE
  5
32
100
AcDbSymbolTableRecord
100
AcDbLinetypeTableRecord
  2
DIVIDE
 70
0
  3
Divide ____ . . ____ . . ____ . . ____ . . ____
 72
65
 73
6
 40
31.750000000000004
 49
12.699999999999999
 74
0
 49
-6.2999999999999998
 74
0
 49
0.1
 74
0
 49
-6.25
 74
0
 49
0.1
 74
0
 49
-6.2999999999999998
 74
0
  0
LTYPE
  5
33
100
AcDbSymbolTableRecord
100
AcDbLinetypeTableRecord
  2
ACAD_ISO10W100
 70
0
  3
ISO dash dot __ . __ . __ . __ . __ . __ . __ . 
 72
65
 73
4
 40
18.0
 49
12.0
 74
0
 49
-2.9500000000000002
 74
0
 49
0.1
 74
0
 49
-2.9500000000000002
 74
0
  0
LTYPE
  5
34
100
AcDbSymbolTableRecord
100
AcDbLinetypeTableRecord
  2
ACAD_ISO04W100
 70
0
  3
ISO long-dash dot ____ . ____ . ____ . ____ . _
 72
65
 73
4
 40
30.0
 49
24.0
 74
0
 49
-2.9500000000000002
 74
0
 49
0.1
 74
0
 49
-2.9500000000000002
 74
0
  0
LTYPE
  5
35
100
AcDbSymbolTableRecord
100
AcDbLinetypeTableRecord
  2
CENTER2
 70
0
  3
Center (.5x) ___ _ ___ _ ___ _ ___ _ ___ _ ___
 72
65
 73
4
 40
28.575000000000003
 49
19.050000000000001
 74
0
 49
-3.1749999999999998
 74
0
 49
3.1749999999999998
 74
0
 49
-3.1749999999999998
 74
0
  0
LTYPE
  5
36
100
AcDbSymbolTableRecord
100
AcDbLinetypeTableRecord
  2
ACAD_ISO11W100
 70
0
  3
ISO double-dash dot __ __ . __ __ . __ __ . __ _
 72
65
 73
6
 40
33.0
 49
12.0
 74
0
 49
-3.0
 74
0
 49
12.0
 74
0
 49
-2.9500000000000002
 74
0
 49
0.1
 74
0
 49
-2.9500000000000002
 74
0
  0
LTYPE
  5
37
100
AcDbSymbolTableRecord
100
AcDbLinetypeTableRecord
  2
HIDDEN2
 70
0
  3
Hidden (.5x) _ _ _ _ _ _ _ _ _ _ _ _ _ _ _ _ _ 
 72
65
 73
2
 40
4.7624999999999993
 49
3.1749999999999998
 74
0
 49
-1.5874999999999999
 74
0
  0
LTYPE
  5
38
100
AcDbSymbolTableRecord
100
AcDbLinetypeTableRecord
  2
BORDERX2
 70
0
  3
Border (2x) ____  ____  .  ____  ____  .  ___
 72
65
 73
6
 40
88.899999999999977
 49
25.399999999999999
 74
0
 49
-12.699999999999999
 74
0
 49
25.399999999999999
 74
0
 49
-12.649999999999999
 74
0
 49
0.1
 74
0
 49
-12.649999999999999
 74
0
  0
LTYPE
  5
39
100
AcDbSymbolTableRecord
100
AcDbLinetypeTableRecord
  2
ACAD_ISO05W100
 70
0
  3
ISO long-dash double-dot ____ .. ____ .. ____ . 
 72
65
 73
6
 40
33.000000000000007
 49
24.0
 74
0
 49
-2.9500000000000002
 74
0
 49
0.1
 74
0
 49
-2.9000000000000004
 74
0
 49
0.1
 74
0
 49
-2.9500000000000002
 74
0
  0
LTYPE
  5
3A
100
AcDbSymbolTableRecord
100
AcDbLinetypeTableRecord
  2
DASHDOTX2
 70
0
  3
Dash dot (2x) ____  .  ____  .  ____  .  ___
 72
65
 73
4
 40
50.799999999999997
 49
25.399999999999999
 74
0
 49
-12.649999999999999
 74
0
 49
0.1
 74
0
 49
-12.649999999999999
 74
0
  0
LTYPE
  5
3B
100
AcDbSymbolTableRecord
100
AcDbLinetypeTableRecord
  2
HIDDENX2
 70
0
  3
Hidden (2x) ____ ____ ____ ____ ____ ____ ____ 
 72
65
 73
2
 40
19.049999999999997
 49
12.699999999999999
 74
0
 49
-6.3499999999999996
 74
0
  0
LTYPE
  5
3C
100
AcDbSymbolTableRecord
100
AcDbLinetypeTableRecord
  2
CENTERX2
 70
0
  3
Center (2x) ________  __  ________  __  _____
 72
65
 73
4
 40
101.60000000000001
 49
63.5
 74
0
 49
-12.699999999999999
 74
0
 49
12.699999999999999
 74
0
 49
-12.699999999999999
 74
0
  0
LTYPE
  5
3D
100
AcDbSymbolTableRecord
100
AcDbLinetypeTableRecord
  2
BORDER2
 70
0
  3
Border (.5x) __.__.__.__.__.__.__.__.__.__.__.
 72
65
 73
6
 40
22.225000000000001
 49
6.3499999999999996
 74
0
 49
-3.1749999999999998
 74
0
 49
6.3499999999999996
 74
0
 49
-3.125
 74
0
 49
0.1
 74
0
 49
-3.125
 74
0
  0
LTYPE
  5
3E
100
AcDbSymbolTableRecord
100
AcDbLinetypeTableRecord
  2
DASHDOT2
 70
0
  3
Dash dot (.5x) _._._._._._._._._._._._._._._.
 72
65
 73
4
 40
12.699999999999999
 49
6.3499999999999996
 74
0
 49
-3.125
 74
0
 49
0.1
 74
0
 49
-3.125
 74
0
  0
LTYPE
  5
3F
100
AcDbSymbolTableRecord
100
AcDbLinetypeTableRecord
  2
ACAD_ISO12W100
 70
0
  3
ISO dash double-dot __ . . __ . . __ . . __ . . 
 72
65
 73
6
 40
21.0
 49
12.0
 74
0
 49
-2.9500000000000002
 74
0
 49
0.1
 74
0
 49
-2.9000000000000004
 74
0
 49
0.1
 74
0
 49
-2.9500000000000002
 74
0
  0
LTYPE
  5
40
100
AcDbSymbolTableRecord
100
AcDbLinetypeTableRecord
  2
ACAD_ISO07W100
 70
0
  3
ISO dot . . . . . . . . . . . . . . . . . . . . 
 72
65
 73
2
 40
3.0
 49
0.1
 74
0
 49
-2.8999999999999999
 74
0
  0
LTYPE
  5
41
100
AcDbSymbolTableRecord
100
AcDbLinetypeTableRecord
  2
HIDDEN
 70
0
  3
Hidden __ __ __ __ __ __ __ __ __ __ __ __ __ __
 72
65
 73
2
 40
9.5249999999999986
 49
6.3499999999999996
 74
0
 49
-3.1749999999999998
 74
0
  0
LTYPE
  5
42
100
AcDbSymbolTableRecord
100
AcDbLinetypeTableRecord
  2
ACAD_ISO06W100
 70
0
  3
ISO long-dash triple-dot ____ ... ____ ... ____
 72
65
 73
8
 40
36.000000000000007
 49
24.0
 74
0
 49
-2.9500000000000002
 74
0
 49
0.1
 74
0
 49
-2.9000000000000004
 74
0
 49
0.1
 74
0
 49
-2.9000000000000004
 74
0
 49
0.1
 74
0
 49
-2.9500000000000002
 74
0
  0
LTYPE
  5
43
100
AcDbSymbolTableRecord
100
AcDbLinetypeTableRecord
  2
CENTER
 70
0
  3
Center ____ _ ____ _ ____ _ ____ _ ____ _ ____
 72
65
 73
4
 40
50.800000000000004
 49
31.75
 74
0
 49
-6.3499999999999996
 74
0
 49
6.3499999999999996
 74
0
 49
-6.3499999999999996
 74
0
  0
LTYPE
  5
44
100
AcDbSymbolTableRecord
100
AcDbLinetypeTableRecord
  2
DOTX2
 70
0
  3
Dot (2x) .  .  .  .  .  .  .  .  .  .  .  .  .  .
 72
65
 73
2
 40
12.699999999999999
 49
0.1
 74
0
 49
-12.6
 74
0
  0
LTYPE
  5
45
100
AcDbSymbolTableRecord
100
AcDbLinetypeTableRecord
  2
PHANTOM
 70
0
  3
Phantom ______  __  __  ______  __  __  ______ 
 72
65
 73
6
 40
63.500000000000007
 49
31.75
 74
0
 49
-6.3499999999999996
 74
0
 49
6.3499999999999996
 74
0
 49
-6.3499999999999996
 74
0
 49
6.3499999999999996
 74
0
 49
-6.3499999999999996
 74
0
  0
LTYPE
  5
46
100
AcDbSymbolTableRecord
100
AcDbLinetypeTableRecord
  2
ACAD_ISO08W100
 70
0
  3
ISO long-dash short-dash ____ __ ____ __ ____ _
 72
65
 73
4
 40
36.0
 49
24.0
 74
0
 49
-3.0
 74
0
 49
6.0
 74
0
 49
-3.0
 74
0
  0
LTYPE
  5
47
100
AcDbSymbolTableRecord
100
AcDbLinetypeTableRecord
  2
DASHEDX2
 70
0
  3
Dashed (2x) ____  ____  ____  ____  ____  ___
 72
65
 73
2
 40
38.099999999999994
 49
25.399999999999999
 74
0
 49
-12.699999999999999
 74
0
  0
LTYPE
  5
48
100
AcDbSymbolTableRecord
100
AcDbLinetypeTableRecord
  2
ACAD_ISO02W100
 70
0
  3
ISO dash __ __ __ __ __ __ __ __ __ __ __ __ __
 72
65
 73
2
 40
15.0
 49
12.0
 74
0
 49
-3.0
 74
0
  0
LTYPE
  5
49
100
AcDbSymbolTableRecord
100
AcDbLinetypeTableRecord
  2
PHANTOM2
 70
0
  3
Phantom (.5x) ___ _ _ ___ _ _ ___ _ _ ___ _ _
 72
65
 73
6
 40
31.750000000000004
 49
15.875
 74
0
 49
-3.1749999999999998
 74
0
 49
3.1749999999999998
 74
0
 49
-3.1749999999999998
 74
0
 49
3.1749999999999998
 74
0
 49
-3.1749999999999998
 74
0
  0
LTYPE
  5
4A
100
AcDbSymbolTableRecord
100
AcDbLinetypeTableRecord
  2
DASHED2
 70
0
  3
Dashed (.5x) _ _ _ _ _ _ _ _ _ _ _ _ _ _ _ _ _ 
 72
65
 73
2
 40
9.5249999999999986
 49
6.3499999999999996
 74
0
 49
-3.1749999999999998
 74
0
  0
LTYPE
  5
4B
100
AcDbSymbolTableRecord
100
AcDbLinetypeTableRecord
  2
ACAD_ISO09W100
 70
0
  3
ISO long-dash double-short-dash ____ __ __ ____
 72
65
 73
6
 40
45.0
 49
24.0
 74
0
 49
-3.0
 74
0
 49
6.0
 74
0
 49
-3.0
 74
0
 49
6.0
 74
0
 49
-3.0
 74
0
  0
LTYPE
  5
4C
100
AcDbSymbolTableRecord
100
AcDbLinetypeTableRecord
  2
ACAD_ISO13W100
 70
0
  3
ISO double-dash double-dot __ __ . . __ __ . . _
 72
65
 73
8
 40
36.000000000000007
 49
12.0
 74
0
 49
-3.0
 74
0
 49
12.0
 74
0
 49
-2.9500000000000002
 74
0
 49
0.1
 74
0
 49
-2.9000000000000004
 74
0
 49
0.1
 74
0
 49
-2.9500000000000002
 74
0
  0
LTYPE
  5
4D
100
AcDbSymbolTableRecord
100
AcDbLinetypeTableRecord
  2
DOT2
 70
0
  3
Dot (.5x) ........................................
 72
65
 73
2
 40
3.1749999999999998
 49
0.1
 74
0
 49
-3.0749999999999997
 74
0
  0
LTYPE
  5
4E
100
AcDbSymbolTableRecord
100
AcDbLinetypeTableRecord
  2
DASHED
 70
0
  3
Dashed __ __ __ __ __ __ __ __ __ __ __ __ __ _
 72
65
 73
2
 40
19.049999999999997
 49
12.699999999999999
 74
0
 49
-6.3499999999999996
 74
0
  0
LTYPE
  5
4F
100
AcDbSymbolTableRecord
100
AcDbLinetypeTableRecord
  2
ACAD_ISO14W100
 70
0
  3
ISO dash triple-dot __ . . . __ . . . __ . . . _
 72
65
 73
8
 40
24.000000000000004
 49
12.0
 74
0
 49
-2.9500000000000002
 74
0
 49
0.1
 74
0
 49
-2.9000000000000004
 74
0
 49
0.1
 74
0
 49
-2.9000000000000004
 74
0
 49
0.1
 74
0
 49
-2.9500000000000002
 74
0
  0
LTYPE
  5
15
100
AcDbSymbolTableRecord
100
AcDbLinetypeTableRecord
  2
BYLAYER
 70
0
  3

 72
65
 73
0
 40
0.0
  0
LTYPE
  5
50
100
AcDbSymbolTableRecord
100
AcDbLinetypeTableRecord
  2
PHANTOMX2
 70
0
  3
Phantom (2x) ____________    ____    ____   _
 72
65
 73
6
 40
127.00000000000001
 49
63.5
 74
0
 49
-12.699999999999999
 74
0
 49
12.699999999999999
 74
0
 49
-12.699999999999999
 74
0
 49
12.699999999999999
 74
0
 49
-12.699999999999999
 74
0
  0
LTYPE
  5
14
100
AcDbSymbolTableRecord
100
AcDbLinetypeTableRecord
  2
BYBLOCK
 70
0
  3

 72
65
 73
0
 40
0.0
  0
LTYPE
  5
51
100
AcDbSymbolTableRecord
100
AcDbLinetypeTableRecord
  2
DIVIDEX2
 70
0
  3
Divide (2x) ________  .  .  ________  .  .  _
 72
65
 73
6
 40
63.5
 49
25.399999999999999
 74
0
 49
-12.649999999999999
 74
0
 49
0.1
 74
0
 49
-12.599999999999998
 74
0
 49
0.1
 74
0
 49
-12.649999999999999
 74
0
  0
LTYPE
  5
52
100
AcDbSymbolTableRecord
100
AcDbLinetypeTableRecord
  2
BORDER
 70
0
  3
Border __ __ . __ __ . __ __ . __ __ . __ __ .
 72
65
 73
6
 40
44.449999999999996
 49
12.699999999999999
 74
0
 49
-6.3499999999999996
 74
0
 49
12.699999999999999
 74
0
 49
-6.2999999999999998
 74
0
 49
0.1
 74
0
 49
-6.2999999999999998
 74
0
  0
LTYPE
  5
53
100
AcDbSymbolTableRecord
100
AcDbLinetypeTableRecord
  2
DIVIDE2
 70
0
  3
Divide (.5x) __..__..__..__..__..__..__..__.._
 72
65
 73
6
 40
15.874999999999998
 49
6.3499999999999996
 74
0
 49
-3.125
 74
0
 49
0.1
 74
0
 49
-3.0750000000000002
 74
0
 49
0.1
 74
0
 49
-3.125
 74
0
  0
LTYPE
  5
54
100
AcDbSymbolTableRecord
100
AcDbLinetypeTableRecord
  2
DOT
 70
0
  3
Dot . . . . . . . . . . . . . . . . . . . . . . . .
 72
65
 73
2
 40
6.3499999999999996
 49
0.1
 74
0
 49
-6.25
 74
0
  0
LTYPE
  5
55
100
AcDbSymbolTableRecord
100
AcDbLinetypeTableRecord
  2
DASHDOT
 70
0
  3
Dash dot __ . __ . __ . __ . __ . __ . __ . __
 72
65
 73
4
 40
25.400000000000002
 49
12.699999999999999
 74
0
 49
-6.2999999999999998
 74
0
 49
0.1
 74
0
 49
-6.2999999999999998
 74
0
  0
LTYPE
  5
56
100
AcDbSymbolTableRecord
100
AcDbLinetypeTableRecord
  2
ACAD_ISO03W100
 70
0
  3
ISO dash space __    __    __    __    __    __
 72
65
 73
2
 40
30.0
 49
12.0
 74
0
 49
-18.0
 74
0
  0
ENDTAB
  0
TABLE
  2
LAYER
  5
2
100
AcDbSymbolTable
 70
3
  0
LAYER
  5
57
100
AcDbSymbolTableRecord
100
AcDbLayerTableRecord
  2
Dimensions
 70
0
 62
7
420
0
  6
Continuous
370
25
390
F
  0
LAYER
  5
58
100
AcDbSymbolTableRecord
100
AcDbLayerTableRecord
  2
Circles
 70
0
 62
7
420
0
  6
Continuous
370
25
390
F
  0
LAYER
  5
10
100
AcDbSymbolTableRecord
100
AcDbLayerTableRecord
  2
0
 70
0
 62
7
420
16777215
  6
Continuous
370
25
390
F
  0
ENDTAB
  0
TABLE
  2
STYLE
  5
3
100
AcDbSymbolTable
 70
1
  0
STYLE
  5
59
100
AcDbSymbolTableRecord
100
AcDbTextStyleTableRecord
  2
Standard
 70
0
 40
0.0
 41
1.0
 50
0.0
 71
0
 42
2.5
  3

  4

1001
ACAD
1000
txt
1071
0
  0
ENDTAB
  0
TABLE
  2
VIEW
  5
6
100
AcDbSymbolTable
 70
0
  0
ENDTAB
  0
TABLE
  2
UCS
  5
7
100
AcDbSymbolTable
 70
0
  0
ENDTAB
  0
TABLE
  2
APPID
  5
9
100
AcDbSymbolTable
 70
1
  0
APPID
  5
12
100
AcDbSymbolTableRecord
100
AcDbRegAppTableRecord
  2
ACAD
 70
0
  0
APPID
  5
5A
100
AcDbSymbolTableRecord
100
AcDbRegAppTableRecord
  2
QCAD
 70
0
  0
ENDTAB
  0
TABLE
  2
DIMSTYLE
  5
A
100
AcDbSymbolTable
 70
1
100
AcDbDimStyleTable
 71
0
  0
DIMSTYLE
105
27
100
AcDbSymbolTableRecord
100
AcDbDimStyleTableRecord
  2
Standard
 41
3.0
 42
0.75
 43
3.75
 44
1.5
 70
0
 73
0
 74
0
 77
1
 78
8
140
3.0
141
2.5
143
0.03937007874016
147
0.75
171
3
172
1
271
2
272
2
274
3
278
44
283
0
284
8
340
59
  0
ENDTAB
  0
TABLE
  2
BLOCK_RECORD
  5
1
100
AcDbSymbolTable
 70
1
  0
BLOCK_RECORD
  5
1F
100
AcDbSymbolTableRecord
100
AcDbBlockTableRecord
  2
*Model_Space
340
22
  0
BLOCK_RECORD
  5
1B
100
AcDbSymbolTableRecord
100
AcDbBlockTableRecord
  2
*Paper_Space
340
1E
  0
BLOCK_RECORD
  5
23
100
AcDbSymbolTableRecord
100
AcDbBlockTableRecord
  2
*Paper_Space0
340
26
  0
ENDTAB
  0
ENDSEC
  0
SECTION
  2
BLOCKS
  0
BLOCK
  5
20
100
AcDbEntity
  8
0
100
AcDbBlockBegin
  2
*Model_Space
 70
0
 10
0.0
 20
0.0
 30
0.0
  3
*Model_Space
  1

  0
ENDBLK
  5
21
100
AcDbEntity
  8
0
100
AcDbBlockEnd
  0
BLOCK
  5
1C
100
AcDbEntity
 67
1
  8
0
100
AcDbBlockBegin
  2
*Paper_Space
 70
0
 10
0.0
 20
0.0
 30
0.0
  3
*Paper_Space
  1

  0
ENDBLK
  5
1D
100
AcDbEntity
 67
1
  8
0
100
AcDbBlockEnd
  0
BLOCK
  5
24
100
AcDbEntity
  8
0
100
AcDbBlockBegin
  2
*Paper_Space0
 70
0
 10
0.0
 20
0.0
 30
0.0
  3
*Paper_Space0
  1

  0
ENDBLK
  5
25
100
AcDbEntity
  8
0
100
AcDbBlockEnd
  0
ENDSEC
  0
SECTION
  2
ENTITIES
  0
LINE
  5
5B
100
AcDbEntity
100
AcDbLine
  8
0
 62
256
370
-1
 48
1.0
  6
BYLAYER
 10
800.0
 20
300.0
 30
0.0
 11
300.0
 21
300.0
 31
0.0
  0
LINE
  5
5C
100
AcDbEntity
100
AcDbLine
  8
0
 62
256
370
-1
 48
1.0
  6
BYLAYER
 10
300.0
 20
300.0
 30
0.0
 11
300.0
 21
-200.0
 31
0.0
  0
LINE
  5
5D
100
AcDbEntity
100
AcDbLine
  8
0
 62
256
370
-1
 48
1.0
  6
BYLAYER
 10
300.0
 20
-200.0
 30
0.0
 11
800.0
 21
-200.0
 31
0.0
  0
LINE
  5
5E
100
AcDbEntity
100
AcDbLine
  8
0
 62
256
370
-1
 48
1.0
  6
BYLAYER
 10
800.0
 20
-200.0
 30
0.0
 11
800.0
 21
300.0
 31
0.0
  0
LINE
  5
5F
100
AcDbEntity
100
AcDbLine
  8
0
 62
256
370
-1
 48
1.0
  6
BYLAYER
 10
160.0
 20
270.0
 30
0.0
 11
60.0
 21
270.0
 31
0.0
  0
LINE
  5
60
100
AcDbEntity
100
AcDbLine
  8
0
 62
256
370
-1
 48
1.0
  6
BYLAYER
 10
60.0
 20
270.0
 30
0.0
 11
60.0
 21
210.0
 31
0.0
  0
LINE
  5
61
100
AcDbEntity
100
AcDbLine
  8
0
 62
256
370
-1
 48
1.0
  6
BYLAYER
 10
60.0
 20
210.0
 30
0.0
 11
160.0
 21
210.0
 31
0.0
  0
LINE
  5
62
100
AcDbEntity
100
AcDbLine
  8
0
 62
256
370
-1
 48
1.0
  6
BYLAYER
 10
160.0
 20
210.0
 30
0.0
 11
160.0
 21
270.0
 31
0.0
  0
LINE
  5
63
100
AcDbEntity
100
AcDbLine
  8
0
 62
256
370
-1
 48
1.0
  6
BYLAYER
 10
-100.0
 20
200.0
 30
0.0
 11
-200.0
 21
200.0
 31
0.0
  0
LINE
  5
64
100
AcDbEntity
100
AcDbLine
  8
0
 62
256
370
-1
 48
1.0
  6
BYLAYER
 10
-200.0
 20
200.0
 30
0.0
 11
-200.0
 21
-50.0
 31
0.0
  0
LINE
  5
65
100
AcDbEntity
100
AcDbLine
  8
0
 62
256
370
-1
 48
1.0
  6
BYLAYER
 10
-200.0
 20
-50.0
 30
0.0
 11
-100.0
 21
-50.0
 31
0.0
  0
LINE
  5
66
100
AcDbEntity
100
AcDbLine
  8
0
 62
256
370
-1
 48
1.0
  6
BYLAYER
 10
-100.0
 20
-50.0
 30
0.0
 11
-100.0
 21
200.0
 31
0.0
  0
LINE
  5
67
100
AcDbEntity
100
AcDbLine
  8
0
 62
256
370
-1
 48
1.0
  6
BYLAYER
 10
160.0
 20
180.0
 30
0.0
 11
60.0
 21
180.0
 31
0.0
  0
LINE
  5
68
100
AcDbEntity
100
AcDbLine
  8
0
 62
256
370
-1
 48
1.0
  6
BYLAYER
 10
60.0
 20
180.0
 30
0.0
 11
60.0
 21
120.0
 31
0.0
  0
LINE
  5
69
100
AcDbEntity
100
AcDbLine
  8
0
 62
256
370
-1
 48
1.0
  6
BYLAYER
 10
60.0
 20
120.0
 30
0.0
 11
160.0
 21
120.0
 31
0.0
  0
LINE
  5
6A
100
AcDbEntity
100
AcDbLine
  8
0
 62
256
370
-1
 48
1.0
  6
BYLAYER
 10
160.0
 20
120.0
 30
0.0
 11
160.0
 21
180.0
 31
0.0
  0
LINE
  5
6B
100
AcDbEntity
100
AcDbLine
  8
0
 62
256
370
-1
 48
1.0
  6
BYLAYER
 10
-100.0
 20
-100.0
 30
0.0
 11
-200.0
 21
-100.0
 31
0.0
  0
LINE
  5
6C
100
AcDbEntity
100
AcDbLine
  8
0
 62
256
370
-1
 48
1.0
  6
BYLAYER
 10
-200.0
 20
-100.0
 30
0.0
 11
-200.0
 21
-180.0
 31
0.0
  0
LINE
  5
6D
100
AcDbEntity
100
AcDbLine
  8
0
 62
256
370
-1
 48
1.0
  6
BYLAYER
 10
-200.0
 20
-180.0
 30
0.0
 11
-100.0
 21
-180.0
 31
0.0
  0
LINE
  5
6E
100
AcDbEntity
100
AcDbLine
  8
0
 62
256
370
-1
 48
1.0
  6
BYLAYER
 10
-100.0
 20
-180.0
 30
0.0
 11
-100.0
 21
-100.0
 31
0.0
  0
LINE
  5
6F
100
AcDbEntity
100
AcDbLine
  8
0
 62
256
370
-1
 48
1.0
  6
BYLAYER
 10
160.0
 20
90.0
 30
0.0
 11
60.0
 21
90.0
 31
0.0
  0
LINE
  5
70
100
AcDbEntity
100
AcDbLine
  8
0
 62
256
370
-1
 48
1.0
  6
BYLAYER
 10
60.0
 20
90.0
 30
0.0
 11
60.0
 21
30.0
 31
0.0
  0
LINE
  5
71
100
AcDbEntity
100
AcDbLine
  8
0
 62
256
370
-1
 48
1.0
  6
BYLAYER
 10
60.0
 20
30.0
 30
0.0
 11
160.0
 21
30.0
 31
0.0
  0
LINE
  5
72
100
AcDbEntity
100
AcDbLine
  8
0
 62
256
370
-1
 48
1.0
  6
BYLAYER
 10
160.0
 20
30.0
 30
0.0
 11
160.0
 21
90.0
 31
0.0
  0
LINE
  5
73
100
AcDbEntity
100
AcDbLine
  8
0
 62
256
370
-1
 48
1.0
  6
BYLAYER
 10
1400.0
 20
300.0
 30
0.0
 11
900.0
 21
300.0
 31
0.0
  0
LINE
  5
74
100
AcDbEntity
100
AcDbLine
  8
0
 62
256
370
-1
 48
1.0
  6
BYLAYER
 10
900.0
 20
300.0
 30
0.0
 11
900.0
 21
-200.0
 31
0.0
  0
LINE
  5
75
100
AcDbEntity
100
AcDbLine
  8
0
 62
256
370
-1
 48
1.0
  6
BYLAYER
 10
900.0
 20
-200.0
 30
0.0
 11
1400.0
 21
-200.0
 31
0.0
  0
LINE
  5
76
100
AcDbEntity
100
AcDbLine
  8
0
 62
256
370
-1
 48
1.0
  6
BYLAYER
 10
1400.0
 20
-200.0
 30
0.0
 11
1400.0
 21
300.0
 31
0.0
  0
LINE
  5
77
100
AcDbEntity
100
AcDbLine
  8
0
 62
256
370
-1
 48
1.0
  6
BYLAYER
 10
1050.0
 20
50.0
 30
0.0
 11
1050.0
 21
200.0
 31
0.0
  0
LINE
  5
78
100
AcDbEntity
100
AcDbLine
  8
0
 62
256
370
-1
 48
1.0
  6
BYLAYER
 10
1050.0
 20
200.0
 30
0.0
 11
1250.0
 21
200.0
 31
0.0
  0
LINE
  5
79
100
AcDbEntity
100
AcDbLine
  8
0
 62
256
370
-1
 48
1.0
  6
BYLAYER
 10
1250.0
 20
200.0
 30
0.0
 11
1250.0
 21
50.0
 31
0.0
  0
LINE
  5
7A
100
AcDbEntity
100
AcDbLine
  8
0
 62
256
370
-1
 48
1.0
  6
BYLAYER
 10
1250.0
 20
50.0
 30
0.0
 11
1050.0
 21
50.0
 31
0.0
  0
LINE
  5
7B
100
AcDbEntity
100
AcDbLine
  8
0
 62
256
370
-1
 48
1.0
  6
BYLAYER
 10
980.0
 20
-549.99999999999989
 30
0.0
 11
980.27399999999989
 21
-549.99999999999989
 31
0.0
  0
LINE
  5
7C
100
AcDbEntity
100
AcDbLine
  8
0
 62
256
370
-1
 48
1.0
  6
BYLAYER
 10
980.27399999999989
 20
-549.99999999999989
 30
0.0
 11
980.27399999999989
 21
-544.77399999999989
 31
0.0
  0
LINE
  5
7D
100
AcDbEntity
100
AcDbLine
  8
0
 62
256
370
-1
 48
1.0
  6
BYLAYER
 10
980.27399999999989
 20
-544.77399999999989
 30
0.0
 11
982.44700000000012
 21
-534.54899999999998
 31
0.0
  0
LINE
  5
7E
100
AcDbEntity
100
AcDbLine
  8
0
 62
256
370
-1
 48
1.0
  6
BYLAYER
 10
982.44700000000012
 20
-534.54899999999998
 30
0.0
 11
986.69900000000007
 21
-524.99999999999989
 31
0.0
  0
LINE
  5
7F
100
AcDbEntity
100
AcDbLine
  8
0
 62
256
370
-1
 48
1.0
  6
BYLAYER
 10
986.69900000000007
 20
-524.99999999999989
 30
0.0
 11
992.84299999999985
 21
-516.54299999999989
 31
0.0
  0
LINE
  5
80
100
AcDbEntity
100
AcDbLine
  8
0
 62
256
370
-1
 48
1.0
  6
BYLAYER
 10
992.84299999999985
 20
-516.54299999999989
 30
0.0
 11
1000.6109999999999
 21
-509.54899999999998
 31
0.0
  0
LINE
  5
81
100
AcDbEntity
100
AcDbLine
  8
0
 62
256
370
-1
 48
1.0
  6
BYLAYER
 10
1000.6109999999999
 20
-509.54899999999998
 30
0.0
 11
1009.663
 21
-504.32299999999998
 31
0.0
  0
LINE
  5
82
100
AcDbEntity
100
AcDbLine
  8
0
 62
256
370
-1
 48
1.0
  6
BYLAYER
 10
1009.663
 20
-504.32299999999998
 30
0.0
 11
1019.604
 21
-501.09299999999996
 31
0.0
  0
LINE
  5
83
100
AcDbEntity
100
AcDbLine
  8
0
 62
256
370
-1
 48
1.0
  6
BYLAYER
 10
1019.604
 20
-501.09299999999996
 30
0.0
 11
1030.0
 21
-499.99999999999989
 31
0.0
  0
LINE
  5
84
100
AcDbEntity
100
AcDbLine
  8
0
 62
256
370
-1
 48
1.0
  6
BYLAYER
 10
1030.0
 20
-499.99999999999989
 30
0.0
 11
1400.0
 21
-499.99999999999989
 31
0.0
  0
LINE
  5
85
100
AcDbEntity
100
AcDbLine
  8
0
 62
256
370
-1
 48
1.0
  6
BYLAYER
 10
1400.0
 20
-499.99999999999989
 30
0.0
 11
1400.0
 21
-300.0
 31
0.0
  0
LINE
  5
86
100
AcDbEntity
100
AcDbLine
  8
0
 62
256
370
-1
 48
1.0
  6
BYLAYER
 10
1400.0
 20
-300.0
 30
0.0
 11
900.0
 21
-300.0
 31
0.0
  0
LINE
  5
87
100
AcDbEntity
100
AcDbLine
  8
0
 62
256
370
-1
 48
1.0
  6
BYLAYER
 10
900.0
 20
-300.0
 30
0.0
 11
900.0
 21
-774.59999999999991
 31
0.0
  0
LINE
  5
88
100
AcDbEntity
100
AcDbLine
  8
0
 62
256
370
-1
 48
1.0
  6
BYLAYER
 10
900.0
 20
-774.59999999999991
 30
0.0
 11
980.0
 21
-774.59999999999991
 31
0.0
  0
LINE
  5
89
100
AcDbEntity
100
AcDbLine
  8
0
 62
256
370
-1
 48
1.0
  6
BYLAYER
 10
980.0
 20
-774.59999999999991
 30
0.0
 11
980.0
 21
-549.99999999999989
 31
0.0
  0
LINE
  5
8A
100
AcDbEntity
100
AcDbLine
  8
0
 62
256
370
-1
 48
1.0
  6
BYLAYER
 10
800.0
 20
-300.0
 30
0.0
 11
300.0
 21
-300.0
 31
0.0
  0
LINE
  5
8B
100
AcDbEntity
100
AcDbLine
  8
0
 62
256
370
-1
 48
1.0
  6
BYLAYER
 10
300.0
 20
-300.0
 30
0.0
 11
300.0
 21
-499.99999999999989
 31
0.0
  0
LINE
  5
8C
100
AcDbEntity
100
AcDbLine
  8
0
 62
256
370
-1
 48
1.0
  6
BYLAYER
 10
300.0
 20
-499.99999999999989
 30
0.0
 11
670.0
 21
-499.99999999999989
 31
0.0
  0
LINE
  5
8D
100
AcDbEntity
100
AcDbLine
  8
0
 62
256
370
-1
 48
1.0
  6
BYLAYER
 10
670.0
 20
-499.99999999999989
 30
0.0
 11
680.39599999999996
 21
-501.09299999999996
 31
0.0
  0
LINE
  5
8E
100
AcDbEntity
100
AcDbLine
  8
0
 62
256
370
-1
 48
1.0
  6
BYLAYER
 10
680.39599999999996
 20
-501.09299999999996
 30
0.0
 11
690.33699999999999
 21
-504.32299999999998
 31
0.0
  0
LINE
  5
8F
100
AcDbEntity
100
AcDbLine
  8
0
 62
256
370
-1
 48
1.0
  6
BYLAYER
 10
690.33699999999999
 20
-504.32299999999998
 30
0.0
 11
699.38900000000001
 21
-509.54899999999998
 31
0.0
  0
LINE
  5
90
100
AcDbEntity
100
AcDbLine
  8
0
 62
256
370
-1
 48
1.0
  6
BYLAYER
 10
699.38900000000001
 20
-509.54899999999998
 30
0.0
 11
707.15700000000004
 21
-516.54299999999989
 31
0.0
  0
LINE
  5
91
100
AcDbEntity
100
AcDbLine
  8
0
 62
256
370
-1
 48
1.0
  6
BYLAYER
 10
707.15700000000004
 20
-516.54299999999989
 30
0.0
 11
713.30099999999993
 21
-524.99999999999989
 31
0.0
  0
LINE
  5
92
100
AcDbEntity
100
AcDbLine
  8
0
 62
256
370
-1
 48
1.0
  6
BYLAYER
 10
713.30099999999993
 20
-524.99999999999989
 30
0.0
 11
717.553
 21
-534.54899999999998
 31
0.0
  0
LINE
  5
93
100
AcDbEntity
100
AcDbLine
  8
0
 62
256
370
-1
 48
1.0
  6
BYLAYER
 10
717.553
 20
-534.54899999999998
 30
0.0
 11
719.726
 21
-544.77399999999989
 31
0.0
  0
LINE
  5
94
100
AcDbEntity
100
AcDbLine
  8
0
 62
256
370
-1
 48
1.0
  6
BYLAYER
 10
719.726
 20
-544.77399999999989
 30
0.0
 11
719.726
 21
-549.99999999999989
 31
0.0
  0
LINE
  5
95
100
AcDbEntity
100
AcDbLine
  8
0
 62
256
370
-1
 48
1.0
  6
BYLAYER
 10
719.726
 20
-549.99999999999989
 30
0.0
 11
720.0
 21
-549.99999999999989
 31
0.0
  0
LINE
  5
96
100
AcDbEntity
100
AcDbLine
  8
0
 62
256
370
-1
 48
1.0
  6
BYLAYER
 10
720.0
 20
-549.99999999999989
 30
0.0
 11
720.0
 21
-774.59999999999991
 31
0.0
  0
LINE
  5
97
100
AcDbEntity
100
AcDbLine
  8
0
 62
256
370
-1
 48
1.0
  6
BYLAYER
 10
720.0
 20
-774.59999999999991
 30
0.0
 11
800.0
 21
-774.59999999999991
 31
0.0
  0
LINE
  5
98
100
AcDbEntity
100
AcDbLine
  8
0
 62
256
370
-1
 48
1.0
  6
BYLAYER
 10
800.0
 20
-774.59999999999991
 30
0.0
 11
800.0
 21
-300.0
 31
0.0
  0
LINE
  5
99
100
AcDbEntity
100
AcDbLine
  8
0
 62
256
370
-1
 48
1.0
  6
BYLAYER
 10
200.0
 20
-300.0
 30
0.0
 11
-300.0
 21
-300.0
 31
0.0
  0
LINE
  5
9A
100
AcDbEntity
100
AcDbLine
  8
0
 62
256
370
-1
 48
1.0
  6
BYLAYER
 10
-300.0
 20
-300.0
 30
0.0
 11
-300.0
 21
-380.0
 31
0.0
  0
LINE
  5
9B
100
AcDbEntity
100
AcDbLine
  8
0
 62
256
370
-1
 48
1.0
  6
BYLAYER
 10
-300.0
 20
-380.0
 30
0.0
 11
200.0
 21
-380.0
 31
0.0
  0
LINE
  5
9C
100
AcDbEntity
100
AcDbLine
  8
0
 62
256
370
-1
 48
1.0
  6
BYLAYER
 10
200.0
 20
-380.0
 30
0.0
 11
200.0
 21
-300.0
 31
0.0
  0
LINE
  5
9D
100
AcDbEntity
100
AcDbLine
  8
0
 62
256
370
-1
 48
1.0
  6
BYLAYER
 10
114.59999999999991
 20
-500.0
 30
0.0
 11
-300.0
 21
-500.0
 31
0.0
  0
LINE
  5
9E
100
AcDbEntity
100
AcDbLine
  8
0
 62
256
370
-1
 48
1.0
  6
BYLAYER
 10
-300.0
 20
-500.0
 30
0.0
 11
-300.0
 21
-737.29999999999995
 31
0.0
  0
LINE
  5
9F
100
AcDbEntity
100
AcDbLine
  8
0
 62
256
370
-1
 48
1.0
  6
BYLAYER
 10
-300.0
 20
-737.29999999999995
 30
0.0
 11
114.59999999999991
 21
-737.29999999999995
 31
0.0
  0
LINE
  5
A0
100
AcDbEntity
100
AcDbLine
  8
0
 62
256
370
-1
 48
1.0
  6
BYLAYER
 10
114.59999999999991
 20
-737.29999999999995
 30
0.0
 11
114.59999999999991
 21
-500.0
 31
0.0
  0
LINE
  5
A1
100
AcDbEntity
100
AcDbLine
  8
0
 62
256
370
-1
 48
1.0
  6
BYLAYER
 10
-178.0
 20
-534.0
 30
0.0
 11
-178.0
 21
-510.0
 31
0.0
  0
LINE
  5
A2
100
AcDbEntity
100
AcDbLine
  8
0
 62
256
370
-1
 48
1.0
  6
BYLAYER
 10
-178.0
 20
-510.0
 30
0.0
 11
-168.0
 21
-510.0
 31
0.0
  0
LINE
  5
A3
100
AcDbEntity
100
AcDbLine
  8
0
 62
256
370
-1
 48
1.0
  6
BYLAYER
 10
-168.0
 20
-510.0
 30
0.0
 11
-168.0
 21
-534.0
 31
0.0
  0
LINE
  5
A4
100
AcDbEntity
100
AcDbLine
  8
0
 62
256
370
-1
 48
1.0
  6
BYLAYER
 10
-168.0
 20
-534.0
 30
0.0
 11
-178.0
 21
-534.0
 31
0.0
  0
LINE
  5
A5
100
AcDbEntity
100
AcDbLine
  8
0
 62
256
370
-1
 48
1.0
  6
BYLAYER
 10
-17.400000000000091
 20
-534.0
 30
0.0
 11
-17.400000000000091
 21
-510.0
 31
0.0
  0
LINE
  5
A6
100
AcDbEntity
100
AcDbLine
  8
0
 62
256
370
-1
 48
1.0
  6
BYLAYER
 10
-17.400000000000091
 20
-510.0
 30
0.0
 11
-7.4000000000000909
 21
-510.0
 31
0.0
  0
LINE
  5
A7
100
AcDbEntity
100
AcDbLine
  8
0
 62
256
370
-1
 48
1.0
  6
BYLAYER
 10
-7.4000000000000909
 20
-510.0
 30
0.0
 11
-7.4000000000000909
 21
-534.0
 31
0.0
  0
LINE
  5
A8
100
AcDbEntity
100
AcDbLine
  8
0
 62
256
370
-1
 48
1.0
  6
BYLAYER
 10
-7.4000000000000909
 20
-534.0
 30
0.0
 11
-17.400000000000091
 21
-534.0
 31
0.0
  0
LINE
  5
A9
100
AcDbEntity
100
AcDbLine
  8
0
 62
256
370
-1
 48
1.0
  6
BYLAYER
 10
-178.0
 20
-727.29999999999995
 30
0.0
 11
-178.0
 21
-703.29999999999995
 31
0.0
  0
LINE
  5
AA
100
AcDbEntity
100
AcDbLine
  8
0
 62
256
370
-1
 48
1.0
  6
BYLAYER
 10
-178.0
 20
-703.29999999999995
 30
0.0
 11
-168.0
 21
-703.29999999999995
 31
0.0
  0
LINE
  5
AB
100
AcDbEntity
100
AcDbLine
  8
0
 62
256
370
-1
 48
1.0
  6
BYLAYER
 10
-168.0
 20
-703.29999999999995
 30
0.0
 11
-168.0
 21
-727.29999999999995
 31
0.0
  0
LINE
  5
AC
100
AcDbEntity
100
AcDbLine
  8
0
 62
256
370
-1
 48
1.0
  6
BYLAYER
 10
-168.0
 20
-727.29999999999995
 30
0.0
 11
-178.0
 21
-727.29999999999995
 31
0.0
  0
LINE
  5
AD
100
AcDbEntity
100
AcDbLine
  8
0
 62
256
370
-1
 48
1.0
  6
BYLAYER
 10
-17.400000000000091
 20
-727.29999999999995
 30
0.0
 11
-17.400000000000091
 21
-703.29999999999995
 31
0.0
  0
LINE
  5
AE
100
AcDbEntity
100
AcDbLine
  8
0
 62
256
370
-1
 48
1.0
  6
BYLAYER
 10
-17.400000000000091
 20
-703.29999999999995
 30
0.0
 11
-7.4000000000000909
 21
-703.29999999999995
 31
0.0
  0
LINE
  5
AF
100
AcDbEntity
100
AcDbLine
  8
0
 62
256
370
-1
 48
1.0
  6
BYLAYER
 10
-7.4000000000000909
 20
-703.29999999999995
 30
0.0
 11
-7.4000000000000909
 21
-727.29999999999995
 31
0.0
  0
LINE
  5
B0
100
AcDbEntity
100
AcDbLine
  8
0
 62
256
370
-1
 48
1.0
  6
BYLAYER
 10
-7.4000000000000909
 20
-727.29999999999995
 30
0.0
 11
-17.400000000000091
 21
-727.29999999999995
 31
0.0
  0
CIRCLE
  5
B1
100
AcDbEntity
100
AcDbCircle
  8
Circles
 62
256
370
-1
 48
1.0
  6
BYLAYER
 10
79.99978380494224
 20
240.00150670312468
 30
0.0
 40
3.9994043728720592
  0
CIRCLE
  5
B2
100
AcDbEntity
100
AcDbCircle
  8
Circles
 62
256
370
-1
 48
1.0
  6
BYLAYER
 10
109.99835167202099
 20
245.0
 30
0.0
 40
10.980000102230793
  0
CIRCLE
  5
B3
100
AcDbEntity
100
AcDbCircle
  8
Circles
 62
256
370
-1
 48
1.0
  6
BYLAYER
 10
140.00197386176231
 20
240.0001242691917
 30
0.0
 40
3.9979001177584745
  0
CIRCLE
  5
B4
100
AcDbEntity
100
AcDbCircle
  8
Circles
 62
256
370
-1
 48
1.0
  6
BYLAYER
 10
110.00054149655314
 20
150.0
 30
0.0
 40
14.970000009793509
  0
CIRCLE
  5
B5
100
AcDbEntity
100
AcDbCircle
  8
Circles
 62
256
370
-1
 48
1.0
  6
BYLAYER
 10
80.000116875000046
 20
60.000007348603454
 30
0.0
 40
3.9998831250067042
  0
CIRCLE
  5
B6
100
AcDbEntity
100
AcDbCircle
  8
Circles
 62
256
370
-1
 48
1.0
  6
BYLAYER
 10
94.500051666666707
 20
49.499996755733697
 30
0.0
 40
1.499948333336802
  0
CIRCLE
  5
B7
100
AcDbEntity
100
AcDbCircle
  8
Circles
 62
256
370
-1
 48
1.0
  6
BYLAYER
 10
109.99990582627943
 20
64.999729478859919
 30
0.0
 40
11.999956657179865
  0
CIRCLE
  5
B8
100
AcDbEntity
100
AcDbCircle
  8
Circles
 62
256
370
-1
 48
1.0
  6
BYLAYER
 10
125.49984869825617
 20
49.499762250090946
 30
0.0
 40
1.5002076682557723
  0
CIRCLE
  5
B9
100
AcDbEntity
100
AcDbCircle
  8
Circles
 62
256
370
-1
 48
1.0
  6
BYLAYER
 10
125.5003870120095
 20
80.500012626730168
 30
0.0
 40
1.4996422039080635
  0
CIRCLE
  5
BA
100
AcDbEntity
100
AcDbCircle
  8
Circles
 62
256
370
-1
 48
1.0
  6
BYLAYER
 10
140.00014626073121
 20
60.000032821199639
 30
0.0
 40
3.9998537394034739
  0
CIRCLE
  5
BB
100
AcDbEntity
100
AcDbCircle
  8
Circles
 62
256
370
-1
 48
1.0
  6
BYLAYER
 10
94.500048619824412
 20
80.5
 30
0.0
 40
1.4999513801755882
  0
CIRCLE
  5
BC
100
AcDbEntity
100
AcDbCircle
  8
Circles
 62
256
370
-1
 48
1.0
  6
BYLAYER
 10
110.00064107467662
 20
149.99999999639806
 30
0.0
 40
14.970000010124787
  0
LINE
  5
BD
100
AcDbEntity
100
AcDbLine
  8
Circles
 62
256
370
-1
 48
1.0
  6
BYLAYER
 10
95.03064106455183
 20
149.99999999639806
 30
0.0
 11
124.97064108480141
 21
149.99999999639806
 31
0.0
  0
LINE
  5
BE
100
AcDbEntity
100
AcDbLine
  8
Circles
 62
256
370
-1
 48
1.0
  6
BYLAYER
 10
110.00064107467662
 20
135.02999998627328
 30
0.0
 11
110.00064107467662
 21
164.97000000652284
 31
0.0
  0
LINE
  5
BF
100
AcDbEntity
100
AcDbLine
  8
Circles
 62
256
370
-1
 48
1.0
  6
BYLAYER
 10
76.000379432070176
 20
240.00150670312468
 30
0.0
 11
83.999188177814304
 21
240.00150670312468
 31
0.0
  0
LINE
  5
C0
100
AcDbEntity
100
AcDbLine
  8
Circles
 62
256
370
-1
 48
1.0
  6
BYLAYER
 10
79.99978380494224
 20
236.00210233025263
 30
0.0
 11
79.99978380494224
 21
244.00091107599673
 31
0.0
  0
LINE
  5
C1
100
AcDbEntity
100
AcDbLine
  8
Circles
 62
256
370
-1
 48
1.0
  6
BYLAYER
 10
99.018351569790198
 20
245.0
 30
0.0
 11
120.97835177425178
 21
245.0
 31
0.0
  0
LINE
  5
C2
100
AcDbEntity
100
AcDbLine
  8
Circles
 62
256
370
-1
 48
1.0
  6
BYLAYER
 10
109.99835167202099
 20
234.0199998977692
 30
0.0
 11
109.99835167202099
 21
255.9800001022308
 31
0.0
  0
LINE
  5
C3
100
AcDbEntity
100
AcDbLine
  8
Circles
 62
256
370
-1
 48
1.0
  6
BYLAYER
 10
136.00407374400385
 20
240.0001242691917
 30
0.0
 11
143.99987397952077
 21
240.0001242691917
 31
0.0
  0
LINE
  5
C4
100
AcDbEntity
100
AcDbLine
  8
Circles
 62
256
370
-1
 48
1.0
  6
BYLAYER
 10
140.00197386176231
 20
236.00222415143324
 30
0.0
 11
140.00197386176231
 21
243.99802438695016
 31
0.0
  0
LINE
  5
C5
100
AcDbEntity
100
AcDbLine
  8
Circles
 62
256
370
-1
 48
1.0
  6
BYLAYER
 10
76.000233749993342
 20
60.000007348603454
 30
0.0
 11
84.00000000000675
 21
60.000007348603454
 31
0.0
  0
LINE
  5
C6
100
AcDbEntity
100
AcDbLine
  8
Circles
 62
256
370
-1
 48
1.0
  6
BYLAYER
 10
80.000116875000046
 20
56.00012422359675
 30
0.0
 11
80.000116875000046
 21
63.999890473610158
 31
0.0
  0
LINE
  5
C7
100
AcDbEntity
100
AcDbLine
  8
Circles
 62
256
370
-1
 48
1.0
  6
BYLAYER
 10
93.000097239648824
 20
80.5
 30
0.0
 11
96.0
 21
80.5
 31
0.0
  0
LINE
  5
C8
100
AcDbEntity
100
AcDbLine
  8
Circles
 62
256
370
-1
 48
1.0
  6
BYLAYER
 10
94.500048619824412
 20
79.000048619824412
 30
0.0
 11
94.500048619824412
 21
81.999951380175588
 31
0.0
  0
LINE
  5
C9
100
AcDbEntity
100
AcDbLine
  8
Circles
 62
256
370
-1
 48
1.0
  6
BYLAYER
 10
97.999949169099565
 20
64.999729478859919
 30
0.0
 11
121.9998624834593
 21
64.999729478859919
 31
0.0
  0
LINE
  5
CA
100
AcDbEntity
100
AcDbLine
  8
Circles
 62
256
370
-1
 48
1.0
  6
BYLAYER
 10
109.99990582627943
 20
52.999772821680054
 30
0.0
 11
109.99990582627943
 21
76.999686136039784
 31
0.0
  0
LINE
  5
CB
100
AcDbEntity
100
AcDbLine
  8
Circles
 62
256
370
-1
 48
1.0
  6
BYLAYER
 10
124.00074480810143
 20
80.500012626730168
 30
0.0
 11
127.00002921591756
 21
80.500012626730168
 31
0.0
  0
LINE
  5
CC
100
AcDbEntity
100
AcDbLine
  8
Circles
 62
256
370
-1
 48
1.0
  6
BYLAYER
 10
125.5003870120095
 20
79.000370422822101
 30
0.0
 11
125.5003870120095
 21
81.999654830638235
 31
0.0
  0
LINE
  5
CD
100
AcDbEntity
100
AcDbLine
  8
Circles
 62
256
370
-1
 48
1.0
  6
BYLAYER
 10
136.00029252132774
 20
60.000032821199639
 30
0.0
 11
144.00000000013469
 21
60.000032821199639
 31
0.0
  0
LINE
  5
CE
100
AcDbEntity
100
AcDbLine
  8
Circles
 62
256
370
-1
 48
1.0
  6
BYLAYER
 10
140.00014626073121
 20
56.000179081796162
 30
0.0
 11
140.00014626073121
 21
63.999886560603116
 31
0.0
  0
LINE
  5
CF
100
AcDbEntity
100
AcDbLine
  8
Circles
 62
256
370
-1
 48
1.0
  6
BYLAYER
 10
123.9996410300004
 20
49.499762250090946
 30
0.0
 11
127.00005636651194
 21
49.499762250090946
 31
0.0
  0
LINE
  5
D0
100
AcDbEntity
100
AcDbLine
  8
Circles
 62
256
370
-1
 48
1.0
  6
BYLAYER
 10
125.49984869825617
 20
47.99955458183517
 30
0.0
 11
125.49984869825617
 21
50.999969918346721
 31
0.0
  0
LINE
  5
D1
100
AcDbEntity
100
AcDbLine
  8
Circles
 62
256
370
-1
 48
1.0
  6
BYLAYER
 10
93.000103333329903
 20
49.499996755733697
 30
0.0
 11
96.00000000000351
 21
49.499996755733697
 31
0.0
  0
LINE
  5
D2
100
AcDbEntity
100
AcDbLine
  8
Circles
 62
256
370
-1
 48
1.0
  6
BYLAYER
 10
94.500051666666707
 20
48.000048422396894
 30
0.0
 11
94.500051666666707
 21
50.999945089070501
 31
0.0
  0
DIMENSION
  5
D3
100
AcDbEntity
  8
Dimensions
 62
256
370
-1
 48
1.0
  6
BYLAYER
100
AcDbDimension
 10
60.0
 20
20.0
 30
0.0
 11
110.0
 21
22.25
 31
0.0
 70
1
 71
8
 72
2
 41
1.0
 42
0.0
  1

  3
Standard
100
AcDbAlignedDimension
 13
60.0
 23
30.0
 33
0.0
 14
160.0
 24
30.0
 34
0.0
1001
ACAD
1000
DSTYLE
1002
{
1070
144
1040
1.0
1070
40
1040
1.0
1002
}
  0
DIMENSION
  5
D4
100
AcDbEntity
  8
Dimensions
 62
256
370
-1
 48
1.0
  6
BYLAYER
100
AcDbDimension
 10
94.500051666666707
 20
39.0
 30
0.0
 11
77.250025833333353
 21
41.25
 31
0.0
 70
1
 71
8
 72
2
 41
1.0
 42
0.0
  1

  3
Standard
100
AcDbAlignedDimension
 13
94.500051666666707
 23
49.49999675573369
 33
0.0
 14
60.0
 24
49.49999675573369
 34
0.0
1001
ACAD
1000
DSTYLE
1002
{
1070
144
1040
1.0
1070
40
1040
1.0
1002
}
  0
DIMENSION
  5
D5
100
AcDbEntity
  8
Dimensions
 62
256
370
-1
 48
1.0
  6
BYLAYER
100
AcDbDimension
 10
125.49984869825619
 20
40.0
 30
0.0
 11
142.74992434912809
 21
42.25
 31
0.0
 70
1
 71
8
 72
2
 41
1.0
 42
0.0
  1

  3
Standard
100
AcDbAlignedDimension
 13
125.49984869825619
 23
49.499762250090953
 33
0.0
 14
160.0
 24
49.499762250090953
 34
0.0
1001
ACAD
1000
DSTYLE
1002
{
1070
144
1040
1.0
1070
40
1040
1.0
1002
}
  0
DIMENSION
  5
D6
100
AcDbEntity
  8
Dimensions
 62
256
370
-1
 48
1.0
  6
BYLAYER
100
AcDbDimension
 10
80.000113200723248
 20
70.000006613746052
 30
0.0
 11
70.000053936510895
 21
72.250002939444173
 31
0.0
 70
1
 71
8
 72
2
 41
1.0
 42
0.0
  1

  3
Standard
100
AcDbAlignedDimension
 13
80.000116875000046
 23
60.000007348603447
 33
0.0
 14
60.0
 24
60.0
 34
0.0
1001
ACAD
1000
DSTYLE
1002
{
1070
144
1040
1.0
1070
40
1040
1.0
1002
}
  0
DIMENSION
  5
D7
100
AcDbEntity
  8
Dimensions
 62
256
370
-1
 48
1.0
  6
BYLAYER
100
AcDbDimension
 10
140.0001626723211
 20
70.00003610331666
 30
0.0
 11
150.00009323456203
 21
72.250019692713821
 31
0.0
 70
1
 71
8
 72
2
 41
1.0
 42
0.0
  1

  3
Standard
100
AcDbAlignedDimension
 13
140.00014626073121
 23
60.000032821199632
 33
0.0
 14
160.0
 24
60.0
 34
0.0
1001
ACAD
1000
DSTYLE
1002
{
1070
144
1040
1.0
1070
40
1040
1.0
1002
}
  0
DIMENSION
  5
D8
100
AcDbEntity
  8
Dimensions
 62
256
370
-1
 48
1.0
  6
BYLAYER
100
AcDbDimension
 10
170.0
 20
80.500012626730168
 30
0.0
 11
167.75
 21
85.250006313365077
 31
0.0
 70
1
 71
8
 72
2
 41
1.0
 42
0.0
  1

  3
Standard
100
AcDbAlignedDimension
 13
125.5003870120095
 23
80.500012626730168
 33
0.0
 14
125.5003870120095
 24
90.0
 34
0.0
1001
ACAD
1000
DSTYLE
1002
{
1070
144
1040
1.0
1070
40
1040
1.0
1002
}
  0
DIMENSION
  5
D9
100
AcDbEntity
  8
Dimensions
 62
256
370
-1
 48
1.0
  6
BYLAYER
100
AcDbDimension
 10
50.0
 20
80.5
 30
0.0
 11
47.75
 21
85.25
 31
0.0
 70
1
 71
8
 72
2
 41
1.0
 42
0.0
  1

  3
Standard
100
AcDbAlignedDimension
 13
94.500048619824412
 23
80.5
 33
0.0
 14
94.500048619824412
 24
90.0
 34
0.0
1001
ACAD
1000
DSTYLE
1002
{
1070
144
1040
1.0
1070
40
1040
1.0
1002
}
  0
DIMENSION
  5
DA
100
AcDbEntity
  8
Dimensions
 62
256
370
-1
 48
1.0
  6
BYLAYER
100
AcDbDimension
 10
50.0
 20
49.499996755733697
 30
0.0
 11
47.75
 21
39.749998377866852
 31
0.0
 70
1
 71
8
 72
2
 41
1.0
 42
0.0
  1

  3
Standard
100
AcDbAlignedDimension
 13
94.500051666666707
 23
49.49999675573369
 33
0.0
 14
94.500051666666707
 24
30.0
 34
0.0
1001
ACAD
1000
DSTYLE
1002
{
1070
144
1040
1.0
1070
40
1040
1.0
1002
}
  0
DIMENSION
  5
DB
100
AcDbEntity
  8
Dimensions
 62
256
370
-1
 48
1.0
  6
BYLAYER
100
AcDbDimension
 10
40.0
 20
60.000007348603454
 30
0.0
 11
37.75
 21
45.00000367430173
 31
0.0
 70
1
 71
8
 72
2
 41
1.0
 42
0.0
  1

  3
Standard
100
AcDbAlignedDimension
 13
80.000116875000046
 23
60.000007348603447
 33
0.0
 14
80.000116875000046
 24
30.000000000000004
 34
0.0
1001
ACAD
1000
DSTYLE
1002
{
1070
144
1040
1.0
1070
40
1040
1.0
1002
}
  0
DIMENSION
  5
DC
100
AcDbEntity
  8
Dimensions
 62
256
370
-1
 48
1.0
  6
BYLAYER
100
AcDbDimension
 10
19.999865465652832
 20
89.999784743755853
 30
0.0
 11
17.749946186652984
 21
59.999765236408727
 31
0.0
 70
1
 71
8
 72
2
 41
1.0
 42
0.0
  1

  3
Standard
100
AcDbAlignedDimension
 13
100.0
 23
90.0
 33
0.0
 14
100.00016144198402
 24
29.999973093449121
 34
0.0
1001
ACAD
1000
DSTYLE
1002
{
1070
144
1040
1.0
1070
40
1040
1.0
1002
}
  0
DIMENSION
  5
DD
100
AcDbEntity
  8
Dimensions
 62
256
370
-1
 48
1.0
  6
BYLAYER
100
AcDbDimension
 10
29.999932733843892
 20
64.999514223050156
 30
0.0
 11
27.749979820712319
 21
47.499643429548513
 31
0.0
 70
1
 71
8
 72
2
 41
1.0
 42
0.0
  1

  3
Standard
100
AcDbAlignedDimension
 13
109.99990582627943
 23
64.999729478859919
 33
0.0
 14
110.0
 24
30.0
 34
0.0
1001
ACAD
1000
DSTYLE
1002
{
1070
144
1040
1.0
1070
40
1040
1.0
1002
}
  0
DIMENSION
  5
DE
100
AcDbEntity
  8
Dimensions
 62
256
370
-1
 48
1.0
  6
BYLAYER
100
AcDbDimension
 10
180.0
 20
60.000032821199632
 30
0.0
 11
177.75
 21
75.000016410599812
 31
0.0
 70
1
 71
8
 72
2
 41
1.0
 42
0.0
  1

  3
Standard
100
AcDbAlignedDimension
 13
140.00014626073121
 23
60.000032821199632
 33
0.0
 14
140.00014626073121
 24
90.0
 34
0.0
1001
ACAD
1000
DSTYLE
1002
{
1070
144
1040
1.0
1070
40
1040
1.0
1002
}
  0
DIMENSION
  5
DF
100
AcDbEntity
  8
Dimensions
 62
256
370
-1
 48
1.0
  6
BYLAYER
100
AcDbDimension
 10
190.0
 20
49.499762250090953
 30
0.0
 11
187.75
 21
69.749881125045476
 31
0.0
 70
1
 71
8
 72
2
 41
1.0
 42
0.0
  1

  3
Standard
100
AcDbAlignedDimension
 13
125.49984869825619
 23
49.499762250090953
 33
0.0
 14
125.49984869825619
 24
90.0
 34
0.0
1001
ACAD
1000
DSTYLE
1002
{
1070
144
1040
1.0
1070
40
1040
1.0
1002
}
  0
DIMENSION
  5
E0
100
AcDbEntity
  8
Dimensions
 62
256
370
-1
 48
1.0
  6
BYLAYER
100
AcDbDimension
 10
121.9998624834593
 20
64.999729478859919
 30
0.0
 11
109.99990582627943
 21
67.249729478859919
 31
0.0
 70
3
 71
8
 72
2
 41
1.0
 42
0.0
  1

  3
Standard
100
AcDbDiametricDimension
 15
97.999949169099565
 25
64.999729478859919
 35
0.0
 40
0.0
1001
ACAD
1000
DSTYLE
1002
{
1070
144
1040
1.0
1070
40
1040
1.0
1002
}
  0
DIMENSION
  5
E1
100
AcDbEntity
  8
Dimensions
 62
256
370
-1
 48
1.0
  6
BYLAYER
100
AcDbDimension
 10
84.00000000000675
 20
60.000007348603454
 30
0.0
 11
80.000116875000046
 21
62.250007348603454
 31
0.0
 70
3
 71
8
 72
2
 41
1.0
 42
0.0
  1

  3
Standard
100
AcDbDiametricDimension
 15
76.000233749993342
 25
60.000007348603454
 35
0.0
 40
0.0
1001
ACAD
1000
DSTYLE
1002
{
1070
144
1040
1.0
1070
40
1040
1.0
1002
}
  0
DIMENSION
  5
E2
100
AcDbEntity
  8
Dimensions
 62
256
370
-1
 48
1.0
  6
BYLAYER
100
AcDbDimension
 10
144.00000000013469
 20
60.000032821199639
 30
0.0
 11
140.00014626073121
 21
62.250032821199639
 31
0.0
 70
3
 71
8
 72
2
 41
1.0
 42
0.0
  1

  3
Standard
100
AcDbDiametricDimension
 15
136.00029252132774
 25
60.000032821199639
 35
0.0
 40
0.0
1001
ACAD
1000
DSTYLE
1002
{
1070
144
1040
1.0
1070
40
1040
1.0
1002
}
  0
DIMENSION
  5
E3
100
AcDbEntity
  8
Dimensions
 62
256
370
-1
 48
1.0
  6
BYLAYER
100
AcDbDimension
 10
127.00002921591756
 20
80.500012626730168
 30
0.0
 11
130.54122135132874
 21
82.750012626730168
 31
0.0
 70
3
 71
8
 72
2
 41
1.0
 42
0.0
  1

  3
Standard
100
AcDbDiametricDimension
 15
124.00074480810143
 25
80.500012626730168
 35
0.0
 40
0.0
1001
ACAD
1000
DSTYLE
1002
{
1070
144
1040
1.0
1070
40
1040
1.0
1002
}
  0
DIMENSION
  5
E4
100
AcDbEntity
  8
Dimensions
 62
256
370
-1
 48
1.0
  6
BYLAYER
100
AcDbDimension
 10
124.97054150634665
 20
150.0
 30
0.0
 11
110.00054149655314
 21
152.25
 31
0.0
 70
3
 71
8
 72
2
 41
1.0
 42
0.0
  1

  3
Standard
100
AcDbDiametricDimension
 15
95.030541486759631
 25
150.0
 35
0.0
 40
0.0
1001
ACAD
1000
DSTYLE
1002
{
1070
144
1040
1.0
1070
40
1040
1.0
1002
}
  0
DIMENSION
  5
E5
100
AcDbEntity
  8
Dimensions
 62
256
370
-1
 48
1.0
  6
BYLAYER
100
AcDbDimension
 10
80.000641088375858
 20
150.00064107467637
 30
0.0
 11
77.750320551551255
 21
135.00068915527712
 31
0.0
 70
1
 71
8
 72
2
 41
1.0
 42
0.0
  1

  3
Standard
100
AcDbAlignedDimension
 13
110.00064107467664
 23
150.0
 33
0.0
 14
110.0
 24
120.0
 34
0.0
1001
ACAD
1000
DSTYLE
1002
{
1070
144
1040
1.0
1070
40
1040
1.0
1002
}
  0
DIMENSION
  5
E6
100
AcDbEntity
  8
Dimensions
 62
256
370
-1
 48
1.0
  6
BYLAYER
100
AcDbDimension
 10
110.00064107467662
 20
169.99999999711844
 30
0.0
 11
135.00032053733833
 21
172.24999999891941
 31
0.0
 70
1
 71
8
 72
2
 41
1.0
 42
0.0
  1

  3
Standard
100
AcDbAlignedDimension
 13
110.00064107467662
 23
149.99999999639803
 33
0.0
 14
160.0
 24
150.0
 34
0.0
1001
ACAD
1000
DSTYLE
1002
{
1070
144
1040
1.0
1070
40
1040
1.0
1002
}
  0
DIMENSION
  5
E7
100
AcDbEntity
  8
Dimensions
 62
256
370
-1
 48
1.0
  6
BYLAYER
100
AcDbDimension
 10
110.00064107467662
 20
169.99999999639803
 30
0.0
 11
85.000320537338311
 21
172.24999999819903
 31
0.0
 70
1
 71
8
 72
2
 41
1.0
 42
0.0
  1

  3
Standard
100
AcDbAlignedDimension
 13
110.00064107467662
 23
149.99999999639803
 33
0.0
 14
60.0
 24
150.0
 34
0.0
1001
ACAD
1000
DSTYLE
1002
{
1070
144
1040
1.0
1070
40
1040
1.0
1002
}
  0
DIMENSION
  5
E8
100
AcDbEntity
  8
Dimensions
 62
256
370
-1
 48
1.0
  6
BYLAYER
100
AcDbDimension
 10
150.78218703024504
 20
150.00087146721287
 30
0.0
 11
148.53186649342044
 21
165.00082338661213
 31
0.0
 70
1
 71
8
 72
2
 41
1.0
 42
0.0
  1

  3
Standard
100
AcDbAlignedDimension
 13
110.00064107467664
 23
150.0
 33
0.0
 14
110.0
 24
180.0
 34
0.0
1001
ACAD
1000
DSTYLE
1002
{
1070
144
1040
1.0
1070
40
1040
1.0
1002
}
  0
DIMENSION
  5
E9
100
AcDbEntity
  8
Dimensions
 62
256
370
-1
 48
1.0
  6
BYLAYER
100
AcDbDimension
 10
90.000235519780333
 20
244.99905818701768
 30
0.0
 11
87.751059686265037
 21
227.49895222307629
 31
0.0
 70
1
 71
8
 72
2
 41
1.0
 42
0.0
  1

  3
Standard
100
AcDbAlignedDimension
 13
109.99835167202097
 23
245.0
 33
0.0
 14
110.0
 24
210.0
 34
0.0
1001
ACAD
1000
DSTYLE
1002
{
1070
144
1040
1.0
1070
40
1040
1.0
1002
}
  0
DIMENSION
  5
EA
100
AcDbEntity
  8
Dimensions
 62
256
370
-1
 48
1.0
  6
BYLAYER
100
AcDbDimension
 10
130.0
 20
240.0001242691917
 30
0.0
 11
127.75
 21
255.00006213459585
 31
0.0
 70
1
 71
8
 72
2
 41
1.0
 42
0.0
  1

  3
Standard
100
AcDbAlignedDimension
 13
140.00197386176231
 23
240.0001242691917
 33
0.0
 14
140.00197386176231
 24
270.0
 34
0.0
1001
ACAD
1000
DSTYLE
1002
{
1070
144
1040
1.0
1070
40
1040
1.0
1002
}
  0
DIMENSION
  5
EB
100
AcDbEntity
  8
Dimensions
 62
256
370
-1
 48
1.0
  6
BYLAYER
100
AcDbDimension
 10
130.0
 20
240.0001242691917
 30
0.0
 11
127.75
 21
225.00006213459585
 31
0.0
 70
1
 71
8
 72
2
 41
1.0
 42
0.0
  1

  3
Standard
100
AcDbAlignedDimension
 13
140.00197386176231
 23
240.0001242691917
 33
0.0
 14
140.00197386176231
 24
210.0
 34
0.0
1001
ACAD
1000
DSTYLE
1002
{
1070
144
1040
1.0
1070
40
1040
1.0
1002
}
  0
DIMENSION
  5
EC
100
AcDbEntity
  8
Dimensions
 62
256
370
-1
 48
1.0
  6
BYLAYER
100
AcDbDimension
 10
79.998277199069761
 20
259.99999987021113
 30
0.0
 11
69.998215790667601
 21
262.24924651226382
 31
0.0
 70
1
 71
8
 72
2
 41
1.0
 42
0.0
  1

  3
Standard
100
AcDbAlignedDimension
 13
79.999783804942254
 23
240.0015067031247
 33
0.0
 14
60.0
 24
240.0
 34
0.0
1001
ACAD
1000
DSTYLE
1002
{
1070
144
1040
1.0
1070
40
1040
1.0
1002
}
  0
DIMENSION
  5
ED
100
AcDbEntity
  8
Dimensions
 62
256
370
-1
 48
1.0
  6
BYLAYER
100
AcDbDimension
 10
140.00209814277787
 20
260.00006212769074
 30
0.0
 11
150.00112519355443
 21
262.24999999305146
 31
0.0
 70
1
 71
8
 72
2
 41
1.0
 42
0.0
  1

  3
Standard
100
AcDbAlignedDimension
 13
140.00197386176231
 23
240.0001242691917
 33
0.0
 14
160.0
 24
240.0
 34
0.0
1001
ACAD
1000
DSTYLE
1002
{
1070
144
1040
1.0
1070
40
1040
1.0
1002
}
  0
DIMENSION
  5
EE
100
AcDbEntity
  8
Dimensions
 62
256
370
-1
 48
1.0
  6
BYLAYER
100
AcDbDimension
 10
109.99571462938682
 20
280.00376647563547
 30
0.0
 11
84.996181089408822
 21
282.25188311792266
 31
0.0
 70
1
 71
8
 72
2
 41
1.0
 42
0.0
  1

  3
Standard
100
AcDbAlignedDimension
 13
109.99835167202097
 23
245.0
 33
0.0
 14
59.999623603920391
 24
244.99623329734419
 34
0.0
1001
ACAD
1000
DSTYLE
1002
{
1070
144
1040
1.0
1070
40
1040
1.0
1002
}
  0
DIMENSION
  5
EF
100
AcDbEntity
  8
Dimensions
 62
256
370
-1
 48
1.0
  6
BYLAYER
100
AcDbDimension
 10
109.99835167202097
 20
280.0
 30
0.0
 11
134.99917583601049
 21
282.25
 31
0.0
 70
1
 71
8
 72
2
 41
1.0
 42
0.0
  1

  3
Standard
100
AcDbAlignedDimension
 13
109.99835167202097
 23
245.0
 33
0.0
 14
160.0
 24
245.0
 34
0.0
1001
ACAD
1000
DSTYLE
1002
{
1070
144
1040
1.0
1070
40
1040
1.0
1002
}
  0
DIMENSION
  5
F0
100
AcDbEntity
  8
Dimensions
 62
256
370
-1
 48
1.0
  6
BYLAYER
100
AcDbDimension
 10
120.97835177425178
 20
245.0
 30
0.0
 11
109.99835167202099
 21
247.25
 31
0.0
 70
3
 71
8
 72
2
 41
1.0
 42
0.0
  1

  3
Standard
100
AcDbDiametricDimension
 15
99.018351569790198
 25
245.0
 35
0.0
 40
0.0
1001
ACAD
1000
DSTYLE
1002
{
1070
144
1040
1.0
1070
40
1040
1.0
1002
}
  0
DIMENSION
  5
F1
100
AcDbEntity
  8
Dimensions
 62
256
370
-1
 48
1.0
  6
BYLAYER
100
AcDbDimension
 10
143.99987397921197
 20
240.0000745778004
 30
0.0
 11
140.0020018278513
 21
242.2501242690179
 31
0.0
 70
3
 71
8
 72
2
 41
1.0
 42
0.0
  1

  3
Standard
100
AcDbDiametricDimension
 15
136.00407374431265
 25
240.000173960583
 35
0.0
 40
0.0
1001
ACAD
1000
DSTYLE
1002
{
1070
144
1040
1.0
1070
40
1040
1.0
1002
}
  0
DIMENSION
  5
F2
100
AcDbEntity
  8
Dimensions
 62
256
370
-1
 48
1.0
  6
BYLAYER
100
AcDbDimension
 10
-200.0
 20
210.0
 30
0.0
 11
-150.0
 21
212.25
 31
0.0
 70
1
 71
8
 72
2
 41
1.0
 42
0.0
  1

  3
Standard
100
AcDbAlignedDimension
 13
-200.0
 23
200.0
 33
0.0
 14
-100.0
 24
200.0
 34
0.0
1001
ACAD
1000
DSTYLE
1002
{
1070
144
1040
1.0
1070
40
1040
1.0
1002
}
  0
DIMENSION
  5
F3
100
AcDbEntity
  8
Dimensions
 62
256
370
-1
 48
1.0
  6
BYLAYER
100
AcDbDimension
 10
-210.0
 20
200.0
 30
0.0
 11
-212.25
 21
75.0
 31
0.0
 70
1
 71
8
 72
2
 41
1.0
 42
0.0
  1

  3
Standard
100
AcDbAlignedDimension
 13
-200.0
 23
200.0
 33
0.0
 14
-200.0
 24
-50.0
 34
0.0
1001
ACAD
1000
DSTYLE
1002
{
1070
144
1040
1.0
1070
40
1040
1.0
1002
}
  0
DIMENSION
  5
F4
100
AcDbEntity
  8
Dimensions
 62
256
370
-1
 48
1.0
  6
BYLAYER
100
AcDbDimension
 10
-200.0
 20
-90.0
 30
0.0
 11
-150.0
 21
-87.75
 31
0.0
 70
1
 71
8
 72
2
 41
1.0
 42
0.0
  1

  3
Standard
100
AcDbAlignedDimension
 13
-200.0
 23
-100.0
 33
0.0
 14
-100.0
 24
-100.0
 34
0.0
1001
ACAD
1000
DSTYLE
1002
{
1070
144
1040
1.0
1070
40
1040
1.0
1002
}
  0
DIMENSION
  5
F5
100
AcDbEntity
  8
Dimensions
 62
256
370
-1
 48
1.0
  6
BYLAYER
100
AcDbDimension
 10
-210.0
 20
-100.0
 30
0.0
 11
-212.25
 21
-140.0
 31
0.0
 70
1
 71
8
 72
2
 41
1.0
 42
0.0
  1

  3
Standard
100
AcDbAlignedDimension
 13
-200.0
 23
-100.0
 33
0.0
 14
-200.0
 24
-180.0
 34
0.0
1001
ACAD
1000
DSTYLE
1002
{
1070
144
1040
1.0
1070
40
1040
1.0
1002
}
  0
DIMENSION
  5
F6
100
AcDbEntity
  8
Dimensions
 62
256
370
-1
 48
1.0
  6
BYLAYER
100
AcDbDimension
 10
300.0
 20
310.0
 30
0.0
 11
550.0
 21
312.25
 31
0.0
 70
1
 71
8
 72
2
 41
1.0
 42
0.0
  1

  3
Standard
100
AcDbAlignedDimension
 13
300.0
 23
300.0
 33
0.0
 14
800.0
 24
300.0
 34
0.0
1001
ACAD
1000
DSTYLE
1002
{
1070
144
1040
1.0
1070
40
1040
1.0
1002
}
  0
DIMENSION
  5
F7
100
AcDbEntity
  8
Dimensions
 62
256
370
-1
 48
1.0
  6
BYLAYER
100
AcDbDimension
 10
290.0
 20
300.0
 30
0.0
 11
287.75
 21
50.0
 31
0.0
 70
1
 71
8
 72
2
 41
1.0
 42
0.0
  1

  3
Standard
100
AcDbAlignedDimension
 13
300.0
 23
300.0
 33
0.0
 14
300.0
 24
-200.0
 34
0.0
1001
ACAD
1000
DSTYLE
1002
{
1070
144
1040
1.0
1070
40
1040
1.0
1002
}
  0
DIMENSION
  5
F8
100
AcDbEntity
  8
Dimensions
 62
256
370
-1
 48
1.0
  6
BYLAYER
100
AcDbDimension
 10
900.0
 20
310.0
 30
0.0
 11
1150.0
 21
312.25
 31
0.0
 70
1
 71
8
 72
2
 41
1.0
 42
0.0
  1

  3
Standard
100
AcDbAlignedDimension
 13
900.0
 23
300.0
 33
0.0
 14
1400.0
 24
300.0
 34
0.0
1001
ACAD
1000
DSTYLE
1002
{
1070
144
1040
1.0
1070
40
1040
1.0
1002
}
  0
DIMENSION
  5
F9
100
AcDbEntity
  8
Dimensions
 62
256
370
-1
 48
1.0
  6
BYLAYER
100
AcDbDimension
 10
890.0
 20
300.0
 30
0.0
 11
887.75
 21
50.0
 31
0.0
 70
1
 71
8
 72
2
 41
1.0
 42
0.0
  1

  3
Standard
100
AcDbAlignedDimension
 13
900.0
 23
300.0
 33
0.0
 14
900.0
 24
-200.0
 34
0.0
1001
ACAD
1000
DSTYLE
1002
{
1070
144
1040
1.0
1070
40
1040
1.0
1002
}
  0
DIMENSION
  5
FA
100
AcDbEntity
  8
Dimensions
 62
256
370
-1
 48
1.0
  6
BYLAYER
100
AcDbDimension
 10
1050.0
 20
210.0
 30
0.0
 11
1150.0
 21
212.25
 31
0.0
 70
1
 71
8
 72
2
 41
1.0
 42
0.0
  1

  3
Standard
100
AcDbAlignedDimension
 13
1050.0
 23
200.0
 33
0.0
 14
1250.0
 24
200.0
 34
0.0
1001
ACAD
1000
DSTYLE
1002
{
1070
144
1040
1.0
1070
40
1040
1.0
1002
}
  0
DIMENSION
  5
FB
100
AcDbEntity
  8
Dimensions
 62
256
370
-1
 48
1.0
  6
BYLAYER
100
AcDbDimension
 10
1040.0
 20
200.0
 30
0.0
 11
1037.75
 21
125.0
 31
0.0
 70
1
 71
8
 72
2
 41
1.0
 42
0.0
  1

  3
Standard
100
AcDbAlignedDimension
 13
1050.0
 23
200.0
 33
0.0
 14
1050.0
 24
50.0
 34
0.0
1001
ACAD
1000
DSTYLE
1002
{
1070
144
1040
1.0
1070
40
1040
1.0
1002
}
  0
DIMENSION
  5
FC
100
AcDbEntity
  8
Dimensions
 62
256
370
-1
 48
1.0
  6
BYLAYER
100
AcDbDimension
 10
1250.0
 20
50.0
 30
0.0
 11
1325.0
 21
52.25
 31
0.0
 70
1
 71
8
 72
2
 41
1.0
 42
0.0
  1

  3
Standard
100
AcDbAlignedDimension
 13
1250.0
 23
50.0
 33
0.0
 14
1400.0
 24
50.0
 34
0.0
1001
ACAD
1000
DSTYLE
1002
{
1070
144
1040
1.0
1070
40
1040
1.0
1002
}
  0
DIMENSION
  5
FD
100
AcDbEntity
  8
Dimensions
 62
256
370
-1
 48
1.0
  6
BYLAYER
100
AcDbDimension
 10
1050.0
 20
50.0
 30
0.0
 11
975.0
 21
52.25
 31
0.0
 70
1
 71
8
 72
2
 41
1.0
 42
0.0
  1

  3
Standard
100
AcDbAlignedDimension
 13
1050.0
 23
50.0
 33
0.0
 14
900.0
 24
50.0
 34
0.0
1001
ACAD
1000
DSTYLE
1002
{
1070
144
1040
1.0
1070
40
1040
1.0
1002
}
  0
DIMENSION
  5
FE
100
AcDbEntity
  8
Dimensions
 62
256
370
-1
 48
1.0
  6
BYLAYER
100
AcDbDimension
 10
1250.0
 20
200.0
 30
0.0
 11
1247.75
 21
250.0
 31
0.0
 70
1
 71
8
 72
2
 41
1.0
 42
0.0
  1

  3
Standard
100
AcDbAlignedDimension
 13
1250.0
 23
200.0
 33
0.0
 14
1250.0
 24
300.0
 34
0.0
1001
ACAD
1000
DSTYLE
1002
{
1070
144
1040
1.0
1070
40
1040
1.0
1002
}
  0
CIRCLE
  5
FF
100
AcDbEntity
100
AcDbCircle
  8
Circles
 62
256
370
-1
 48
1.0
  6
BYLAYER
 10
1066.6670105501394
 20
-160.00009845234172
 30
0.0
 40
3.9999482089006801
  0
CIRCLE
  5
100
100
AcDbEntity
100
AcDbCircle
  8
Circles
 62
256
370
-1
 48
1.0
  6
BYLAYER
 10
1134.4998186166304
 20
-149.49999999999997
 30
0.0
 40
1.4999369762849042
  0
CIRCLE
  5
101
100
AcDbEntity
100
AcDbCircle
  8
Circles
 62
256
370
-1
 48
1.0
  6
BYLAYER
 10
1165.4998406593409
 20
-149.5
 30
0.0
 40
1.4999583265656444
  0
CIRCLE
  5
102
100
AcDbEntity
100
AcDbCircle
  8
Circles
 62
256
370
-1
 48
1.0
  6
BYLAYER
 10
1149.999654579575
 20
-164.99999905666562
 30
0.0
 40
11.999969517343969
  0
CIRCLE
  5
103
100
AcDbEntity
100
AcDbCircle
  8
Circles
 62
256
370
-1
 48
1.0
  6
BYLAYER
 10
1134.4998164477479
 20
-180.50001882001268
 30
0.0
 40
1.500009069713647
  0
CIRCLE
  5
104
100
AcDbEntity
100
AcDbCircle
  8
Circles
 62
256
370
-1
 48
1.0
  6
BYLAYER
 10
1165.5000818969056
 20
-180.4999145498785
 30
0.0
 40
1.5000545881376168
  0
CIRCLE
  5
105
100
AcDbEntity
100
AcDbCircle
  8
Circles
 62
256
370
-1
 48
1.0
  6
BYLAYER
 10
1233.3335532449248
 20
-160.00008791205653
 30
0.0
 40
4.0000987232579979
  0
LINE
  5
106
100
AcDbEntity
100
AcDbLine
  8
Circles
 62
256
370
-1
 48
1.0
  6
BYLAYER
 10
1062.6670623412388
 20
-160.00009845234172
 30
0.0
 11
1070.66695875904
 21
-160.00009845234172
 31
0.0
  0
LINE
  5
107
100
AcDbEntity
100
AcDbLine
  8
Circles
 62
256
370
-1
 48
1.0
  6
BYLAYER
 10
1066.6670105501394
 20
-164.00004666124241
 30
0.0
 11
1066.6670105501394
 21
-156.00015024344103
 31
0.0
  0
LINE
  5
108
100
AcDbEntity
100
AcDbLine
  8
Circles
 62
256
370
-1
 48
1.0
  6
BYLAYER
 10
1132.9998816403454
 20
-149.49999999999997
 30
0.0
 11
1135.9997555929153
 21
-149.49999999999997
 31
0.0
  0
LINE
  5
109
100
AcDbEntity
100
AcDbLine
  8
Circles
 62
256
370
-1
 48
1.0
  6
BYLAYER
 10
1134.4998186166304
 20
-150.99993697628489
 30
0.0
 11
1134.4998186166304
 21
-148.00006302371506
 31
0.0
  0
LINE
  5
10A
100
AcDbEntity
100
AcDbLine
  8
Circles
 62
256
370
-1
 48
1.0
  6
BYLAYER
 10
1132.9998073780343
 20
-180.50001882001268
 30
0.0
 11
1135.9998255174614
 21
-180.50001882001268
 31
0.0
  0
LINE
  5
10B
100
AcDbEntity
100
AcDbLine
  8
Circles
 62
256
370
-1
 48
1.0
  6
BYLAYER
 10
1134.4998164477479
 20
-182.00002788972634
 30
0.0
 11
1134.4998164477479
 21
-179.00000975029903
 31
0.0
  0
LINE
  5
10C
100
AcDbEntity
100
AcDbLine
  8
Circles
 62
256
370
-1
 48
1.0
  6
BYLAYER
 10
1137.999685062231
 20
-164.99999905666562
 30
0.0
 11
1161.999624096919
 21
-164.99999905666562
 31
0.0
  0
LINE
  5
10D
100
AcDbEntity
100
AcDbLine
  8
Circles
 62
256
370
-1
 48
1.0
  6
BYLAYER
 10
1149.999654579575
 20
-176.99996857400959
 30
0.0
 11
1149.999654579575
 21
-153.00002953932164
 31
0.0
  0
LINE
  5
10E
100
AcDbEntity
100
AcDbLine
  8
Circles
 62
256
370
-1
 48
1.0
  6
BYLAYER
 10
1163.9998823327753
 20
-149.5
 30
0.0
 11
1166.9997989859064
 21
-149.5
 31
0.0
  0
LINE
  5
10F
100
AcDbEntity
100
AcDbLine
  8
Circles
 62
256
370
-1
 48
1.0
  6
BYLAYER
 10
1165.4998406593409
 20
-150.99995832656563
 30
0.0
 11
1165.4998406593409
 21
-148.00004167343437
 31
0.0
  0
LINE
  5
110
100
AcDbEntity
100
AcDbLine
  8
Circles
 62
256
370
-1
 48
1.0
  6
BYLAYER
 10
1164.000027308768
 20
-180.4999145498785
 30
0.0
 11
1167.0001364850432
 21
-180.4999145498785
 31
0.0
  0
LINE
  5
111
100
AcDbEntity
100
AcDbLine
  8
Circles
 62
256
370
-1
 48
1.0
  6
BYLAYER
 10
1165.5000818969056
 20
-181.99996913801613
 30
0.0
 11
1165.5000818969056
 21
-178.99985996174087
 31
0.0
  0
LINE
  5
112
100
AcDbEntity
100
AcDbLine
  8
Circles
 62
256
370
-1
 48
1.0
  6
BYLAYER
 10
1229.3334545216669
 20
-160.00008791205653
 30
0.0
 11
1237.3336519681827
 21
-160.00008791205653
 31
0.0
  0
LINE
  5
113
100
AcDbEntity
100
AcDbLine
  8
Circles
 62
256
370
-1
 48
1.0
  6
BYLAYER
 10
1233.3335532449248
 20
-164.00018663531452
 30
0.0
 11
1233.3335532449248
 21
-155.99998918879854
 31
0.0
  0
DIMENSION
  5
114
100
AcDbEntity
  8
Dimensions
 62
256
370
-1
 48
1.0
  6
BYLAYER
100
AcDbDimension
 10
1066.6670105501391
 20
-149.99999999999997
 30
0.0
 11
983.33350527506957
 21
-147.75
 31
0.0
 70
1
 71
8
 72
2
 41
1.0
 42
0.0
  1

  3
Standard
100
AcDbAlignedDimension
 13
1066.6670105501391
 23
-160.00009845234169
 33
0.0
 14
900.0
 24
-160.00009845234172
 34
0.0
1001
ACAD
1000
DSTYLE
1002
{
1070
144
1040
1.0
1070
40
1040
1.0
1002
}
  0
DIMENSION
  5
115
100
AcDbEntity
  8
Dimensions
 62
256
370
-1
 48
1.0
  6
BYLAYER
100
AcDbDimension
 10
1233.3335532449248
 20
-150.0
 30
0.0
 11
1316.6667766224623
 21
-147.75
 31
0.0
 70
1
 71
8
 72
2
 41
1.0
 42
0.0
  1

  3
Standard
100
AcDbAlignedDimension
 13
1233.3335532449248
 23
-160.00008791205656
 33
0.0
 14
1400.0
 24
-160.00008791205656
 34
0.0
1001
ACAD
1000
DSTYLE
1002
{
1070
144
1040
1.0
1070
40
1040
1.0
1002
}
  0
DIMENSION
  5
116
100
AcDbEntity
  8
Dimensions
 62
256
370
-1
 48
1.0
  6
BYLAYER
100
AcDbDimension
 10
1149.999654579575
 20
-130.0
 30
0.0
 11
1274.9998272897874
 21
-127.75
 31
0.0
 70
1
 71
8
 72
2
 41
1.0
 42
0.0
  1

  3
Standard
100
AcDbAlignedDimension
 13
1149.999654579575
 23
-164.99999905666562
 33
0.0
 14
1400.0
 24
-164.99999905666562
 34
0.0
1001
ACAD
1000
DSTYLE
1002
{
1070
144
1040
1.0
1070
40
1040
1.0
1002
}
  0
DIMENSION
  5
117
100
AcDbEntity
  8
Dimensions
 62
256
370
-1
 48
1.0
  6
BYLAYER
100
AcDbDimension
 10
1099.9996545844451
 20
-165.00049251440225
 30
0.0
 11
1097.7498272947673
 21
-182.5005151916676
 31
0.0
 70
1
 71
8
 72
2
 41
1.0
 42
0.0
  1

  3
Standard
100
AcDbAlignedDimension
 13
1149.999654579575
 23
-164.99999905666562
 33
0.0
 14
1150.0
 24
-200.0
 34
0.0
1001
ACAD
1000
DSTYLE
1002
{
1070
144
1040
1.0
1070
40
1040
1.0
1002
}
  0
DIMENSION
  5
118
100
AcDbEntity
  8
Dimensions
 62
256
370
-1
 48
1.0
  6
BYLAYER
100
AcDbDimension
 10
1129.9998075521066
 20
-180.50006323129682
 30
0.0
 11
1127.7499037771368
 21
-190.2501525127939
 31
0.0
 70
1
 71
8
 72
2
 41
1.0
 42
0.0
  1

  3
Standard
100
AcDbAlignedDimension
 13
1134.4998164477481
 23
-180.50001882001271
 33
0.0
 14
1134.5000088975894
 24
-200.00015297181056
 34
0.0
1001
ACAD
1000
DSTYLE
1002
{
1070
144
1040
1.0
1070
40
1040
1.0
1002
}
  0
DIMENSION
  5
119
100
AcDbEntity
  8
Dimensions
 62
256
370
-1
 48
1.0
  6
BYLAYER
100
AcDbDimension
 10
1119.9996003006454
 20
-149.50014310489831
 30
0.0
 11
1117.7498494976671
 21
-174.75024179488133
 31
0.0
 70
1
 71
8
 72
2
 41
1.0
 42
0.0
  1

  3
Standard
100
AcDbAlignedDimension
 13
1134.4998186166304
 23
-149.5
 33
0.0
 14
1134.5003170104544
 24
-200.00015296876973
 34
0.0
1001
ACAD
1000
DSTYLE
1002
{
1070
144
1040
1.0
1070
40
1040
1.0
1002
}
  0
DIMENSION
  5
11A
100
AcDbEntity
  8
Dimensions
 62
256
370
-1
 48
1.0
  6
BYLAYER
100
AcDbDimension
 10
1134.4789968226053
 20
-139.73458615542449
 30
0.0
 11
1017.22429008012
 21
-137.734591269958
 31
0.0
 70
1
 71
8
 72
2
 41
1.0
 42
0.0
  1

  3
Standard
100
AcDbAlignedDimension
 13
1134.4998186166304
 23
-149.5
 33
0.0
 14
900.0
 24
-149.99999999999997
 34
0.0
1001
ACAD
1000
DSTYLE
1002
{
1070
144
1040
1.0
1070
40
1040
1.0
1002
}
  0
DIMENSION
  5
11B
100
AcDbEntity
  8
Dimensions
 62
256
370
-1
 48
1.0
  6
BYLAYER
100
AcDbDimension
 10
1165.4998406593409
 20
-140.0
 30
0.0
 11
1282.7499203296704
 21
-137.75
 31
0.0
 70
1
 71
8
 72
2
 41
1.0
 42
0.0
  1

  3
Standard
100
AcDbAlignedDimension
 13
1165.4998406593409
 23
-149.5
 33
0.0
 14
1400.0
 24
-149.5
 34
0.0
1001
ACAD
1000
DSTYLE
1002
{
1070
144
1040
1.0
1070
40
1040
1.0
1002
}
  0
DIMENSION
  5
11C
100
AcDbEntity
  8
Dimensions
 62
256
370
-1
 48
1.0
  6
BYLAYER
100
AcDbDimension
 10
1161.999624096919
 20
-164.99999905666562
 30
0.0
 11
1166.403216672888
 21
-158.92580908966983
 31
0.0
 70
131
 71
8
 72
2
 41
1.0
 42
0.0
  1

  3
Standard
100
AcDbDiametricDimension
 15
1137.999685062231
 25
-164.99999905666562
 35
0.0
 40
0.0
1001
ACAD
1000
DSTYLE
1002
{
1070
144
1040
1.0
1070
40
1040
1.0
1002
}
  0
CIRCLE
  5
11D
100
AcDbEntity
100
AcDbCircle
  8
Circles
 62
256
370
-1
 48
1.0
  6
BYLAYER
 10
-133.33346631001106
 20
-339.99994357350903
 30
0.0
 40
3.9999962467078745
  0
CIRCLE
  5
11E
100
AcDbEntity
100
AcDbCircle
  8
Circles
 62
256
370
-1
 48
1.0
  6
BYLAYER
 10
-50.000280423825444
 20
-334.99998234946537
 30
0.0
 40
11.000025089469005
  0
CIRCLE
  5
11F
100
AcDbEntity
100
AcDbCircle
  8
Circles
 62
256
370
-1
 48
1.0
  6
BYLAYER
 10
33.332854477317632
 20
-339.99994859349863
 30
0.0
 40
3.9999581314026749
  0
LINE
  5
120
100
AcDbEntity
100
AcDbLine
  8
Circles
 62
256
370
-1
 48
1.0
  6
BYLAYER
 10
-137.33346255671893
 20
-339.99994357350903
 30
0.0
 11
-129.3334700633032
 21
-339.99994357350903
 31
0.0
  0
LINE
  5
121
100
AcDbEntity
100
AcDbLine
  8
Circles
 62
256
370
-1
 48
1.0
  6
BYLAYER
 10
-133.33346631001106
 20
-343.99993982021692
 30
0.0
 11
-133.33346631001106
 21
-335.99994732680113
 31
0.0
  0
LINE
  5
122
100
AcDbEntity
100
AcDbLine
  8
Circles
 62
256
370
-1
 48
1.0
  6
BYLAYER
 10
-61.00030551329445
 20
-334.99998234946537
 30
0.0
 11
-39.000255334356439
 21
-334.99998234946537
 31
0.0
  0
LINE
  5
123
100
AcDbEntity
100
AcDbLine
  8
Circles
 62
256
370
-1
 48
1.0
  6
BYLAYER
 10
-50.000280423825444
 20
-346.0000074389344
 30
0.0
 11
-50.000280423825444
 21
-323.99995725999634
 31
0.0
  0
LINE
  5
124
100
AcDbEntity
100
AcDbLine
  8
Circles
 62
256
370
-1
 48
1.0
  6
BYLAYER
 10
29.332896345914957
 20
-339.99994859349863
 30
0.0
 11
37.332812608720303
 21
-339.99994859349863
 31
0.0
  0
LINE
  5
125
100
AcDbEntity
100
AcDbLine
  8
Circles
 62
256
370
-1
 48
1.0
  6
BYLAYER
 10
33.332854477317632
 20
-343.99990672490128
 30
0.0
 11
33.332854477317632
 21
-335.99999046209598
 31
0.0
  0
DIMENSION
  5
126
100
AcDbEntity
  8
Dimensions
 62
256
370
-1
 48
1.0
  6
BYLAYER
100
AcDbDimension
 10
-133.33346969488704
 20
-329.99999435739255
 30
0.0
 11
-216.66673730148247
 21
-327.75002257063812
 31
0.0
 70
1
 71
8
 72
2
 41
1.0
 42
0.0
  1

  3
Standard
100
AcDbAlignedDimension
 13
-133.33346631001109
 23
-339.99994357350909
 33
0.0
 14
-300.0
 24
-340.0
 34
0.0
1001
ACAD
1000
DSTYLE
1002
{
1070
144
1040
1.0
1070
40
1040
1.0
1002
}
  0
DIMENSION
  5
127
100
AcDbEntity
  8
Dimensions
 62
256
370
-1
 48
1.0
  6
BYLAYER
100
AcDbDimension
 10
-50.000285501186674
 20
-319.99991876266085
 30
0.0
 11
-175.00014689708686
 21
-317.74996107377825
 31
0.0
 70
1
 71
8
 72
2
 41
1.0
 42
0.0
  1

  3
Standard
100
AcDbAlignedDimension
 13
-50.000280423825437
 23
-334.99998234946531
 33
0.0
 14
-300.00000169242389
 24
-335.00006697169988
 34
0.0
1001
ACAD
1000
DSTYLE
1002
{
1070
144
1040
1.0
1070
40
1040
1.0
1002
}
  0
DIMENSION
  5
128
100
AcDbEntity
  8
Dimensions
 62
256
370
-1
 48
1.0
  6
BYLAYER
100
AcDbDimension
 10
-50.000280423825437
 20
-320.0
 30
0.0
 11
74.999859788087278
 21
-317.75
 31
0.0
 70
1
 71
8
 72
2
 41
1.0
 42
0.0
  1

  3
Standard
100
AcDbAlignedDimension
 13
-50.000280423825437
 23
-334.99998234946531
 33
0.0
 14
200.0
 24
-334.99998234946531
 34
0.0
1001
ACAD
1000
DSTYLE
1002
{
1070
144
1040
1.0
1070
40
1040
1.0
1002
}
  0
DIMENSION
  5
129
100
AcDbEntity
  8
Dimensions
 62
256
370
-1
 48
1.0
  6
BYLAYER
100
AcDbDimension
 10
33.332857563692158
 20
-329.9999516778808
 30
0.0
 11
116.66643101946782
 21
-327.7499773811316
 31
0.0
 70
1
 71
8
 72
2
 41
1.0
 42
0.0
  1

  3
Standard
100
AcDbAlignedDimension
 13
33.332854477317632
 23
-339.99994859349863
 33
0.0
 14
200.0
 24
-340.0
 34
0.0
1001
ACAD
1000
DSTYLE
1002
{
1070
144
1040
1.0
1070
40
1040
1.0
1002
}
  0
DIMENSION
  5
12A
100
AcDbEntity
  8
Dimensions
 62
256
370
-1
 48
1.0
  6
BYLAYER
100
AcDbDimension
 10
-310.0
 20
-300.0
 30
0.0
 11
-312.25
 21
-340.0
 31
0.0
 70
1
 71
8
 72
2
 41
1.0
 42
0.0
  1

  3
Standard
100
AcDbAlignedDimension
 13
-300.0
 23
-300.0
 33
0.0
 14
-300.0
 24
-380.0
 34
0.0
1001
ACAD
1000
DSTYLE
1002
{
1070
144
1040
1.0
1070
40
1040
1.0
1002
}
  0
DIMENSION
  5
12B
100
AcDbEntity
  8
Dimensions
 62
256
370
-1
 48
1.0
  6
BYLAYER
100
AcDbDimension
 10
-300.0
 20
-290.0
 30
0.0
 11
-50.0
 21
-287.75
 31
0.0
 70
1
 71
8
 72
2
 41
1.0
 42
0.0
  1

  3
Standard
100
AcDbAlignedDimension
 13
-300.0
 23
-300.0
 33
0.0
 14
200.0
 24
-300.0
 34
0.0
1001
ACAD
1000
DSTYLE
1002
{
1070
144
1040
1.0
1070
40
1040
1.0
1002
}
  0
DIMENSION
  5
12C
100
AcDbEntity
  8
Dimensions
 62
256
370
-1
 48
1.0
  6
BYLAYER
100
AcDbDimension
 10
-140.0
 20
-339.99994357350909
 30
0.0
 11
-142.25
 21
-359.99997178675454
 31
0.0
 70
1
 71
8
 72
2
 41
1.0
 42
0.0
  1

  3
Standard
100
AcDbAlignedDimension
 13
-133.33346631001109
 23
-339.99994357350909
 33
0.0
 14
-133.33346631001106
 24
-380.0
 34
0.0
1001
ACAD
1000
DSTYLE
1002
{
1070
144
1040
1.0
1070
40
1040
1.0
1002
}
  0
DIMENSION
  5
12D
100
AcDbEntity
  8
Dimensions
 62
256
370
-1
 48
1.0
  6
BYLAYER
100
AcDbDimension
 10
-70.000093473905139
 20
-335.00010698106274
 30
0.0
 11
-72.249953261948733
 21
-357.50012982751588
 31
0.0
 70
1
 71
8
 72
2
 41
1.0
 42
0.0
  1

  3
Standard
100
AcDbAlignedDimension
 13
-50.000280423825437
 23
-334.99998234946531
 33
0.0
 14
-50.0
 24
-380.0
 34
0.0
1001
ACAD
1000
DSTYLE
1002
{
1070
144
1040
1.0
1070
40
1040
1.0
1002
}
  0
DIMENSION
  5
12E
100
AcDbEntity
  8
Dimensions
 62
256
370
-1
 48
1.0
  6
BYLAYER
100
AcDbDimension
 10
-39.000255334356439
 20
-334.99998234946537
 30
0.0
 11
-34.592773749275977
 21
-330.70423417140057
 31
0.0
 70
131
 71
8
 72
2
 41
1.0
 42
0.0
  1

  3
Standard
100
AcDbDiametricDimension
 15
-61.00030551329445
 25
-334.99998234946537
 35
0.0
 40
0.0
1001
ACAD
1000
DSTYLE
1002
{
1070
144
1040
1.0
1070
40
1040
1.0
1002
}
  0
DIMENSION
  5
12F
100
AcDbEntity
  8
Dimensions
 62
256
370
-1
 48
1.0
  6
BYLAYER
100
AcDbDimension
 10
-129.3334700633032
 20
-339.99994357350903
 30
0.0
 11
-127.6258207406039
 21
-334.44182851280993
 31
0.0
 70
131
 71
8
 72
2
 41
1.0
 42
0.0
  1

  3
Standard
100
AcDbDiametricDimension
 15
-137.33346255671893
 25
-339.99994357350903
 35
0.0
 40
0.0
1001
ACAD
1000
DSTYLE
1002
{
1070
144
1040
1.0
1070
40
1040
1.0
1002
}
  0
DIMENSION
  5
130
100
AcDbEntity
  8
Dimensions
 62
256
370
-1
 48
1.0
  6
BYLAYER
100
AcDbDimension
 10
1070.66695875904
 20
-160.00009845234172
 30
0.0
 11
1072.6612974900331
 21
-154.78902676569948
 31
0.0
 70
131
 71
8
 72
2
 41
1.0
 42
0.0
  1

  3
Standard
100
AcDbDiametricDimension
 15
1062.6670623412388
 25
-160.00009845234172
 35
0.0
 40
0.0
1001
ACAD
1000
DSTYLE
1002
{
1070
144
1040
1.0
1070
40
1040
1.0
1002
}
  0
DIMENSION
  5
131
100
AcDbEntity
  8
Dimensions
 62
256
370
-1
 48
1.0
  6
BYLAYER
100
AcDbDimension
 10
-300.0
 20
-490.0
 30
0.0
 11
-92.700000000000045
 21
-487.75
 31
0.0
 70
1
 71
8
 72
2
 41
1.0
 42
0.0
  1

  3
Standard
100
AcDbAlignedDimension
 13
-300.0
 23
-500.0
 33
0.0
 14
114.59999999999991
 24
-500.0
 34
0.0
1001
ACAD
1000
DSTYLE
1002
{
1070
144
1040
1.0
1070
40
1040
1.0
1002
}
  0
DIMENSION
  5
132
100
AcDbEntity
  8
Dimensions
 62
256
370
-1
 48
1.0
  6
BYLAYER
100
AcDbDimension
 10
-310.0
 20
-500.0
 30
0.0
 11
-312.25
 21
-618.64999999999998
 31
0.0
 70
1
 71
8
 72
2
 41
1.0
 42
0.0
  1

  3
Standard
100
AcDbAlignedDimension
 13
-300.0
 23
-500.0
 33
0.0
 14
-300.0
 24
-737.29999999999995
 34
0.0
1001
ACAD
1000
DSTYLE
1002
{
1070
144
1040
1.0
1070
40
1040
1.0
1002
}
  0
CIRCLE
  5
133
100
AcDbEntity
100
AcDbCircle
  8
Circles
 62
256
370
-1
 48
1.0
  6
BYLAYER
 10
400.00008759340193
 20
-440.00024392767381
 30
0.0
 40
3.9997560732851305
  0
CIRCLE
  5
134
100
AcDbEntity
100
AcDbCircle
  8
Circles
 62
256
370
-1
 48
1.0
  6
BYLAYER
 10
459.50016117988832
 20
-450.49935904100249
 30
0.0
 40
1.5001494957785249
  0
CIRCLE
  5
135
100
AcDbEntity
100
AcDbCircle
  8
Circles
 62
256
370
-1
 48
1.0
  6
BYLAYER
 10
459.49990089926968
 20
-419.49986172513945
 30
0.0
 40
1.499954090314404
  0
CIRCLE
  5
136
100
AcDbEntity
100
AcDbCircle
  8
Circles
 62
256
370
-1
 48
1.0
  6
BYLAYER
 10
490.50045254024042
 20
-419.49982702484022
 30
0.0
 40
1.5000577201956751
  0
CIRCLE
  5
137
100
AcDbEntity
100
AcDbCircle
  8
Circles
 62
256
370
-1
 48
1.0
  6
BYLAYER
 10
490.49999160636668
 20
-450.50018637492695
 30
0.0
 40
1.4999342288644704
  0
CIRCLE
  5
138
100
AcDbEntity
100
AcDbCircle
  8
Circles
 62
256
370
-1
 48
1.0
  6
BYLAYER
 10
474.9850588044564
 20
-435.00973434575923
 30
0.0
 40
11.986794790113322
  0
CIRCLE
  5
139
100
AcDbEntity
100
AcDbCircle
  8
Circles
 62
256
370
-1
 48
1.0
  6
BYLAYER
 10
550.00011710921876
 20
-439.99999999999994
 30
0.0
 40
4.0000000017145148
  0
LINE
  5
13A
100
AcDbEntity
100
AcDbLine
  8
Circles
 62
256
370
-1
 48
1.0
  6
BYLAYER
 10
396.00033152011679
 20
-440.00024392767381
 30
0.0
 11
403.99984366668707
 21
-440.00024392767381
 31
0.0
  0
LINE
  5
13B
100
AcDbEntity
100
AcDbLine
  8
Circles
 62
256
370
-1
 48
1.0
  6
BYLAYER
 10
400.00008759340193
 20
-444.00000000095895
 30
0.0
 11
400.00008759340193
 21
-436.00048785438867
 31
0.0
  0
LINE
  5
13C
100
AcDbEntity
100
AcDbLine
  8
Circles
 62
256
370
-1
 48
1.0
  6
BYLAYER
 10
462.99826401434308
 20
-435.00973434575923
 30
0.0
 11
486.97185359456972
 21
-435.00973434575923
 31
0.0
  0
LINE
  5
13D
100
AcDbEntity
100
AcDbLine
  8
Circles
 62
256
370
-1
 48
1.0
  6
BYLAYER
 10
474.9850588044564
 20
-446.99652913587255
 30
0.0
 11
474.9850588044564
 21
-423.02293955564591
 31
0.0
  0
LINE
  5
13E
100
AcDbEntity
100
AcDbLine
  8
Circles
 62
256
370
-1
 48
1.0
  6
BYLAYER
 10
457.99994680895526
 20
-419.49986172513945
 30
0.0
 11
460.99985498958409
 21
-419.49986172513945
 31
0.0
  0
LINE
  5
13F
100
AcDbEntity
100
AcDbLine
  8
Circles
 62
256
370
-1
 48
1.0
  6
BYLAYER
 10
459.49990089926968
 20
-420.99981581545387
 30
0.0
 11
459.49990089926968
 21
-417.99990763482504
 31
0.0
  0
LINE
  5
140
100
AcDbEntity
100
AcDbLine
  8
Circles
 62
256
370
-1
 48
1.0
  6
BYLAYER
 10
489.00039482004473
 20
-419.49982702484022
 30
0.0
 11
492.0005102604361
 21
-419.49982702484022
 31
0.0
  0
LINE
  5
141
100
AcDbEntity
100
AcDbLine
  8
Circles
 62
256
370
-1
 48
1.0
  6
BYLAYER
 10
490.50045254024042
 20
-420.9998847450359
 30
0.0
 11
490.50045254024042
 21
-417.99976930464453
 31
0.0
  0
LINE
  5
142
100
AcDbEntity
100
AcDbLine
  8
Circles
 62
256
370
-1
 48
1.0
  6
BYLAYER
 10
458.00001168410978
 20
-450.49935904100249
 30
0.0
 11
461.00031067566687
 21
-450.49935904100249
 31
0.0
  0
LINE
  5
143
100
AcDbEntity
100
AcDbLine
  8
Circles
 62
256
370
-1
 48
1.0
  6
BYLAYER
 10
459.50016117988832
 20
-451.99950853678104
 30
0.0
 11
459.50016117988832
 21
-448.99920954522395
 31
0.0
  0
LINE
  5
144
100
AcDbEntity
100
AcDbLine
  8
Circles
 62
256
370
-1
 48
1.0
  6
BYLAYER
 10
489.00005737750223
 20
-450.50018637492695
 30
0.0
 11
491.99992583523112
 21
-450.50018637492695
 31
0.0
  0
LINE
  5
145
100
AcDbEntity
100
AcDbLine
  8
Circles
 62
256
370
-1
 48
1.0
  6
BYLAYER
 10
490.49999160636668
 20
-452.0001206037914
 30
0.0
 11
490.49999160636668
 21
-449.00025214606251
 31
0.0
  0
LINE
  5
146
100
AcDbEntity
100
AcDbLine
  8
Circles
 62
256
370
-1
 48
1.0
  6
BYLAYER
 10
546.00011710750425
 20
-439.99999999999994
 30
0.0
 11
554.00011711093327
 21
-439.99999999999994
 31
0.0
  0
LINE
  5
147
100
AcDbEntity
100
AcDbLine
  8
Circles
 62
256
370
-1
 48
1.0
  6
BYLAYER
 10
550.00011710921876
 20
-444.00000000171445
 30
0.0
 11
550.00011710921876
 21
-435.99999999828543
 31
0.0
  0
DIMENSION
  5
148
100
AcDbEntity
  8
Dimensions
 62
256
370
-1
 48
1.0
  6
BYLAYER
100
AcDbDimension
 10
400.00008759340193
 20
-430.0
 30
0.0
 11
350.00004379670099
 21
-427.75
 31
0.0
 70
1
 71
8
 72
2
 41
1.0
 42
0.0
  1

  3
Standard
100
AcDbAlignedDimension
 13
400.00008759340193
 23
-440.00024392767381
 33
0.0
 14
300.0
 24
-440.00024392767381
 34
0.0
1001
ACAD
1000
DSTYLE
1002
{
1070
144
1040
1.0
1070
40
1040
1.0
1002
}
  0
DIMENSION
  5
149
100
AcDbEntity
  8
Dimensions
 62
256
370
-1
 48
1.0
  6
BYLAYER
100
AcDbDimension
 10
550.00011710921876
 20
-430.0
 30
0.0
 11
675.00005855460938
 21
-427.75
 31
0.0
 70
1
 71
8
 72
2
 41
1.0
 42
0.0
  1

  3
Standard
100
AcDbAlignedDimension
 13
550.00011710921876
 23
-439.99999999999994
 33
0.0
 14
800.0
 24
-439.99999999999994
 34
0.0
1001
ACAD
1000
DSTYLE
1002
{
1070
144
1040
1.0
1070
40
1040
1.0
1002
}
  0
DIMENSION
  5
14A
100
AcDbEntity
  8
Dimensions
 62
256
370
-1
 48
1.0
  6
BYLAYER
100
AcDbDimension
 10
410.0
 20
-440.00024392767381
 30
0.0
 11
407.75
 21
-470.00012196383682
 31
0.0
 70
1
 71
8
 72
2
 41
1.0
 42
0.0
  1

  3
Standard
100
AcDbAlignedDimension
 13
400.00008759340193
 23
-440.00024392767381
 33
0.0
 14
400.00008759340193
 24
-499.99999999999989
 34
0.0
1001
ACAD
1000
DSTYLE
1002
{
1070
144
1040
1.0
1070
40
1040
1.0
1002
}
  0
DIMENSION
  5
14B
100
AcDbEntity
  8
Dimensions
 62
256
370
-1
 48
1.0
  6
BYLAYER
100
AcDbDimension
 10
560.0
 20
-439.99999999999994
 30
0.0
 11
557.75
 21
-469.99999999999989
 31
0.0
 70
1
 71
8
 72
2
 41
1.0
 42
0.0
  1

  3
Standard
100
AcDbAlignedDimension
 13
550.00011710921876
 23
-439.99999999999994
 33
0.0
 14
550.00011710921876
 24
-499.99999999999989
 34
0.0
1001
ACAD
1000
DSTYLE
1002
{
1070
144
1040
1.0
1070
40
1040
1.0
1002
}
  0
DIMENSION
  5
14C
100
AcDbEntity
  8
Dimensions
 62
256
370
-1
 48
1.0
  6
BYLAYER
100
AcDbDimension
 10
500.0
 20
-435.00973434575917
 30
0.0
 11
497.75
 21
-467.50486717287953
 31
0.0
 70
1
 71
8
 72
2
 41
1.0
 42
0.0
  1

  3
Standard
100
AcDbAlignedDimension
 13
474.98505880445634
 23
-435.00973434575917
 33
0.0
 14
474.98505880445634
 24
-499.99999999999989
 34
0.0
1001
ACAD
1000
DSTYLE
1002
{
1070
144
1040
1.0
1070
40
1040
1.0
1002
}
  0
DIMENSION
  5
14D
100
AcDbEntity
  8
Dimensions
 62
256
370
-1
 48
1.0
  6
BYLAYER
100
AcDbDimension
 10
450.0
 20
-450.49935904100249
 30
0.0
 11
447.75
 21
-475.24967952050122
 31
0.0
 70
1
 71
8
 72
2
 41
1.0
 42
0.0
  1

  3
Standard
100
AcDbAlignedDimension
 13
459.50016117988827
 23
-450.49935904100249
 33
0.0
 14
459.50016117988827
 24
-499.99999999999989
 34
0.0
1001
ACAD
1000
DSTYLE
1002
{
1070
144
1040
1.0
1070
40
1040
1.0
1002
}
  0
DIMENSION
  5
14E
100
AcDbEntity
  8
Dimensions
 62
256
370
-1
 48
1.0
  6
BYLAYER
100
AcDbDimension
 10
459.50016117988827
 20
-460.0
 30
0.0
 11
379.7500805899441
 21
-457.75
 31
0.0
 70
1
 71
8
 72
2
 41
1.0
 42
0.0
  1

  3
Standard
100
AcDbAlignedDimension
 13
459.50016117988827
 23
-450.49935904100249
 33
0.0
 14
300.0
 24
-450.49935904100249
 34
0.0
1001
ACAD
1000
DSTYLE
1002
{
1070
144
1040
1.0
1070
40
1040
1.0
1002
}
  0
DIMENSION
  5
14F
100
AcDbEntity
  8
Dimensions
 62
256
370
-1
 48
1.0
  6
BYLAYER
100
AcDbDimension
 10
490.49999160636662
 20
-460.0
 30
0.0
 11
645.24999580318331
 21
-457.75
 31
0.0
 70
1
 71
8
 72
2
 41
1.0
 42
0.0
  1

  3
Standard
100
AcDbAlignedDimension
 13
490.49999160636662
 23
-450.5001863749269
 33
0.0
 14
800.0
 24
-450.5001863749269
 34
0.0
1001
ACAD
1000
DSTYLE
1002
{
1070
144
1040
1.0
1070
40
1040
1.0
1002
}
  0
DIMENSION
  5
150
100
AcDbEntity
  8
Dimensions
 62
256
370
-1
 48
1.0
  6
BYLAYER
100
AcDbDimension
 10
450.0
 20
-419.4998617251394
 30
0.0
 11
447.75
 21
-359.74993086256973
 31
0.0
 70
1
 71
8
 72
2
 41
1.0
 42
0.0
  1

  3
Standard
100
AcDbAlignedDimension
 13
459.49990089926962
 23
-419.4998617251394
 33
0.0
 14
459.49990089926962
 24
-300.0
 34
0.0
1001
ACAD
1000
DSTYLE
1002
{
1070
144
1040
1.0
1070
40
1040
1.0
1002
}
  0
DIMENSION
  5
151
100
AcDbEntity
  8
Dimensions
 62
256
370
-1
 48
1.0
  6
BYLAYER
100
AcDbDimension
 10
499.99999999999994
 20
-419.49982702484016
 30
0.0
 11
497.75
 21
-359.74991351242011
 31
0.0
 70
1
 71
8
 72
2
 41
1.0
 42
0.0
  1

  3
Standard
100
AcDbAlignedDimension
 13
490.50045254024042
 23
-419.49982702484016
 33
0.0
 14
490.50045254024047
 24
-300.0
 34
0.0
1001
ACAD
1000
DSTYLE
1002
{
1070
144
1040
1.0
1070
40
1040
1.0
1002
}
  0
DIMENSION
  5
152
100
AcDbEntity
  8
Dimensions
 62
256
370
-1
 48
1.0
  6
BYLAYER
100
AcDbDimension
 10
480.00000000000006
 20
-435.00973434575917
 30
0.0
 11
477.75
 21
-367.50486717287959
 31
0.0
 70
1
 71
8
 72
2
 41
1.0
 42
0.0
  1

  3
Standard
100
AcDbAlignedDimension
 13
474.98505880445634
 23
-435.00973434575917
 33
0.0
 14
474.98505880445629
 24
-300.0
 34
0.0
1001
ACAD
1000
DSTYLE
1002
{
1070
144
1040
1.0
1070
40
1040
1.0
1002
}
  0
DIMENSION
  5
153
100
AcDbEntity
  8
Dimensions
 62
256
370
-1
 48
1.0
  6
BYLAYER
100
AcDbDimension
 10
469.48153673270031
 20
-435.07324603496778
 30
0.0
 11
472.10638692468541
 21
-467.54241516387884
 31
0.0
 70
1
 71
8
 72
2
 41
1.0
 42
0.0
  1

  3
Standard
100
AcDbAlignedDimension
 13
474.98505880445634
 23
-435.00973434575917
 33
0.0
 14
475.73505880445634
 24
-499.99999999999989
 34
0.0
1001
ACAD
1000
DSTYLE
1002
{
1070
144
1040
1.0
1070
40
1040
1.0
1002
}
  0
DIMENSION
  5
154
100
AcDbEntity
  8
Dimensions
 62
256
370
-1
 48
1.0
  6
BYLAYER
100
AcDbDimension
 10
474.98505880445634
 20
-410.0
 30
0.0
 11
387.49252940222817
 21
-407.75
 31
0.0
 70
1
 71
8
 72
2
 41
1.0
 42
0.0
  1

  3
Standard
100
AcDbAlignedDimension
 13
474.98505880445634
 23
-435.00973434575917
 33
0.0
 14
300.0
 24
-435.00973434575917
 34
0.0
1001
ACAD
1000
DSTYLE
1002
{
1070
144
1040
1.0
1070
40
1040
1.0
1002
}
  0
DIMENSION
  5
155
100
AcDbEntity
  8
Dimensions
 62
256
370
-1
 48
1.0
  6
BYLAYER
100
AcDbDimension
 10
474.98505880445634
 20
-400.0
 30
0.0
 11
637.49252940222823
 21
-397.75
 31
0.0
 70
1
 71
8
 72
2
 41
1.0
 42
0.0
  1

  3
Standard
100
AcDbAlignedDimension
 13
474.98505880445634
 23
-435.00973434575917
 33
0.0
 14
800.0
 24
-435.00973434575917
 34
0.0
1001
ACAD
1000
DSTYLE
1002
{
1070
144
1040
1.0
1070
40
1040
1.0
1002
}
  0
DIMENSION
  5
156
100
AcDbEntity
  8
Dimensions
 62
256
370
-1
 48
1.0
  6
BYLAYER
100
AcDbDimension
 10
720.00000000000011
 20
-790.0
 30
0.0
 11
760.0
 21
-787.75
 31
0.0
 70
1
 71
8
 72
2
 41
1.0
 42
0.0
  1

  3
Standard
100
AcDbAlignedDimension
 13
720.00000000000011
 23
-774.59999999999991
 33
0.0
 14
800.0
 24
-774.59999999999991
 34
0.0
1001
ACAD
1000
DSTYLE
1002
{
1070
144
1040
1.0
1070
40
1040
1.0
1002
}
  0
DIMENSION
  5
157
100
AcDbEntity
  8
Dimensions
 62
256
370
-1
 48
1.0
  6
BYLAYER
100
AcDbDimension
 10
809.99999999999989
 20
-774.59999999999991
 30
0.0
 11
807.75
 21
-537.29999999999995
 31
0.0
 70
1
 71
8
 72
2
 41
1.0
 42
0.0
  1

  3
Standard
100
AcDbAlignedDimension
 13
800.0
 23
-774.59999999999991
 33
0.0
 14
800.00000000000011
 24
-300.0
 34
0.0
1001
ACAD
1000
DSTYLE
1002
{
1070
144
1040
1.0
1070
40
1040
1.0
1002
}
  0
DIMENSION
  5
158
100
AcDbEntity
  8
Dimensions
 62
256
370
-1
 48
1.0
  6
BYLAYER
100
AcDbDimension
 10
300.0
 20
-290.0
 30
0.0
 11
550.0
 21
-287.75
 31
0.0
 70
1
 71
8
 72
2
 41
1.0
 42
0.0
  1

  3
Standard
100
AcDbAlignedDimension
 13
300.0
 23
-300.0
 33
0.0
 14
800.00000000000011
 24
-300.0
 34
0.0
1001
ACAD
1000
DSTYLE
1002
{
1070
144
1040
1.0
1070
40
1040
1.0
1002
}
  0
DIMENSION
  5
159
100
AcDbEntity
  8
Dimensions
 62
256
370
-1
 48
1.0
  6
BYLAYER
100
AcDbDimension
 10
290.0
 20
-300.0
 30
0.0
 11
287.75
 21
-399.99999999999994
 31
0.0
 70
1
 71
8
 72
2
 41
1.0
 42
0.0
  1

  3
Standard
100
AcDbAlignedDimension
 13
300.0
 23
-300.0
 33
0.0
 14
300.0
 24
-499.99999999999989
 34
0.0
1001
ACAD
1000
DSTYLE
1002
{
1070
144
1040
1.0
1070
40
1040
1.0
1002
}
  0
CIRCLE
  5
15A
100
AcDbEntity
100
AcDbCircle
  8
Circles
 62
256
370
-1
 48
1.0
  6
BYLAYER
 10
1149.9999943399346
 20
-440.00008592932068
 30
0.0
 40
3.9997959306040389
  0
CIRCLE
  5
15B
100
AcDbEntity
100
AcDbCircle
  8
Circles
 62
256
370
-1
 48
1.0
  6
BYLAYER
 10
1225.0002748679178
 20
-434.99999999999994
 30
0.0
 40
11.000000003434394
  0
CIRCLE
  5
15C
100
AcDbEntity
100
AcDbCircle
  8
Circles
 62
256
370
-1
 48
1.0
  6
BYLAYER
 10
1300.0002299294333
 20
-439.99987506325061
 30
0.0
 40
3.9998961994068232
  0
LINE
  5
15D
100
AcDbEntity
100
AcDbLine
  8
Circles
 62
256
370
-1
 48
1.0
  6
BYLAYER
 10
1146.0001984093306
 20
-440.00008592932068
 30
0.0
 11
1153.9997902705386
 21
-440.00008592932068
 31
0.0
  0
LINE
  5
15E
100
AcDbEntity
100
AcDbLine
  8
Circles
 62
256
370
-1
 48
1.0
  6
BYLAYER
 10
1149.9999943399346
 20
-443.9998818599247
 30
0.0
 11
1149.9999943399346
 21
-436.00028999871665
 31
0.0
  0
LINE
  5
15F
100
AcDbEntity
100
AcDbLine
  8
Circles
 62
256
370
-1
 48
1.0
  6
BYLAYER
 10
1214.0002748644833
 20
-434.99999999999994
 30
0.0
 11
1236.0002748713523
 21
-434.99999999999994
 31
0.0
  0
LINE
  5
160
100
AcDbEntity
100
AcDbLine
  8
Circles
 62
256
370
-1
 48
1.0
  6
BYLAYER
 10
1225.0002748679178
 20
-446.00000000343437
 30
0.0
 11
1225.0002748679178
 21
-423.99999999656552
 31
0.0
  0
LINE
  5
161
100
AcDbEntity
100
AcDbLine
  8
Circles
 62
256
370
-1
 48
1.0
  6
BYLAYER
 10
1296.0003337300266
 20
-439.99987506325061
 30
0.0
 11
1304.0001261288401
 21
-439.99987506325061
 31
0.0
  0
LINE
  5
162
100
AcDbEntity
100
AcDbLine
  8
Circles
 62
256
370
-1
 48
1.0
  6
BYLAYER
 10
1300.0002299294333
 20
-443.99977126265742
 30
0.0
 11
1300.0002299294333
 21
-435.99997886384381
 31
0.0
  0
DIMENSION
  5
163
100
AcDbEntity
  8
Dimensions
 62
256
370
-1
 48
1.0
  6
BYLAYER
100
AcDbDimension
 10
1225.0002748679178
 20
-410.0
 30
0.0
 11
1312.500137433959
 21
-407.75
 31
0.0
 70
1
 71
8
 72
2
 41
1.0
 42
0.0
  1

  3
Standard
100
AcDbAlignedDimension
 13
1225.0002748679178
 23
-434.99999999999994
 33
0.0
 14
1400.0
 24
-434.99999999999994
 34
0.0
1001
ACAD
1000
DSTYLE
1002
{
1070
144
1040
1.0
1070
40
1040
1.0
1002
}
  0
DIMENSION
  5
164
100
AcDbEntity
  8
Dimensions
 62
256
370
-1
 48
1.0
  6
BYLAYER
100
AcDbDimension
 10
1300.0002299294331
 20
-430.0
 30
0.0
 11
1350.0001149647164
 21
-427.75
 31
0.0
 70
1
 71
8
 72
2
 41
1.0
 42
0.0
  1

  3
Standard
100
AcDbAlignedDimension
 13
1300.0002299294331
 23
-439.99987506325061
 33
0.0
 14
1400.0
 24
-439.99987506325061
 34
0.0
1001
ACAD
1000
DSTYLE
1002
{
1070
144
1040
1.0
1070
40
1040
1.0
1002
}
  0
DIMENSION
  5
165
100
AcDbEntity
  8
Dimensions
 62
256
370
-1
 48
1.0
  6
BYLAYER
100
AcDbDimension
 10
1160.0
 20
-440.00008592932068
 30
0.0
 11
1157.75
 21
-470.00004296466028
 31
0.0
 70
1
 71
8
 72
2
 41
1.0
 42
0.0
  1

  3
Standard
100
AcDbAlignedDimension
 13
1149.9999943399346
 23
-440.00008592932068
 33
0.0
 14
1149.9999943399346
 24
-499.99999999999989
 34
0.0
1001
ACAD
1000
DSTYLE
1002
{
1070
144
1040
1.0
1070
40
1040
1.0
1002
}
  0
DIMENSION
  5
166
100
AcDbEntity
  8
Dimensions
 62
256
370
-1
 48
1.0
  6
BYLAYER
100
AcDbDimension
 10
1240.0
 20
-434.99999999999994
 30
0.0
 11
1237.75
 21
-467.49999999999989
 31
0.0
 70
1
 71
8
 72
2
 41
1.0
 42
0.0
  1

  3
Standard
100
AcDbAlignedDimension
 13
1225.0002748679178
 23
-434.99999999999994
 33
0.0
 14
1225.0002748679178
 24
-499.99999999999989
 34
0.0
1001
ACAD
1000
DSTYLE
1002
{
1070
144
1040
1.0
1070
40
1040
1.0
1002
}
  0
DIMENSION
  5
167
100
AcDbEntity
  8
Dimensions
 62
256
370
-1
 48
1.0
  6
BYLAYER
100
AcDbDimension
 10
1149.9999943399346
 20
-430.0
 30
0.0
 11
1024.9999971699672
 21
-427.75
 31
0.0
 70
1
 71
8
 72
2
 41
1.0
 42
0.0
  1

  3
Standard
100
AcDbAlignedDimension
 13
1149.9999943399346
 23
-440.00008592932068
 33
0.0
 14
900.0
 24
-440.00008592932068
 34
0.0
1001
ACAD
1000
DSTYLE
1002
{
1070
144
1040
1.0
1070
40
1040
1.0
1002
}
  0
DIMENSION
  5
168
100
AcDbEntity
  8
Dimensions
 62
256
370
-1
 48
1.0
  6
BYLAYER
100
AcDbDimension
 10
1225.0002748679178
 20
-410.0
 30
0.0
 11
1062.500137433959
 21
-407.75
 31
0.0
 70
1
 71
8
 72
2
 41
1.0
 42
0.0
  1

  3
Standard
100
AcDbAlignedDimension
 13
1225.0002748679178
 23
-434.99999999999994
 33
0.0
 14
900.0
 24
-434.99999999999994
 34
0.0
1001
ACAD
1000
DSTYLE
1002
{
1070
144
1040
1.0
1070
40
1040
1.0
1002
}
  0
DIMENSION
  5
169
100
AcDbEntity
  8
Dimensions
 62
256
370
-1
 48
1.0
  6
BYLAYER
100
AcDbDimension
 10
1146.0001984093306
 20
-440.00008592932068
 30
0.0
 11
1156.0279443518643
 21
-434.24298948967038
 31
0.0
 70
131
 71
8
 72
2
 41
1.0
 42
0.0
  1

  3
Standard
100
AcDbDiametricDimension
 15
1153.9997902705386
 25
-440.00008592932068
 35
0.0
 40
0.0
1001
ACAD
1000
DSTYLE
1002
{
1070
144
1040
1.0
1070
40
1040
1.0
1002
}
  0
DIMENSION
  5
16A
100
AcDbEntity
  8
Dimensions
 62
256
370
-1
 48
1.0
  6
BYLAYER
100
AcDbDimension
 10
1214.0002748644833
 20
-434.99999999999994
 30
0.0
 11
1236.1393901597903
 21
-424.40752485582601
 31
0.0
 70
131
 71
8
 72
2
 41
1.0
 42
0.0
  1

  3
Standard
100
AcDbDiametricDimension
 15
1236.0002748713523
 25
-434.99999999999994
 35
0.0
 40
0.0
1001
ACAD
1000
DSTYLE
1002
{
1070
144
1040
1.0
1070
40
1040
1.0
1002
}
  0
DIMENSION
  5
16B
100
AcDbEntity
  8
Dimensions
 62
256
370
-1
 48
1.0
  6
BYLAYER
100
AcDbDimension
 10
1296.0003337300266
 20
-439.99987506325061
 30
0.0
 11
1306.8912809129295
 21
-436.62253738495542
 31
0.0
 70
131
 71
8
 72
2
 41
1.0
 42
0.0
  1

  3
Standard
100
AcDbDiametricDimension
 15
1304.0001261288401
 25
-439.99987506325061
 35
0.0
 40
0.0
1001
ACAD
1000
DSTYLE
1002
{
1070
144
1040
1.0
1070
40
1040
1.0
1002
}
  0
ENDSEC
  0
SECTION
  2
OBJECTS
  0
DICTIONARY
  5
C
100
AcDbDictionary
280
0
281
1
  3
ACAD_GROUP
350
D
  3
ACAD_LAYOUT
350
1A
  3
ACAD_MLINESTYLE
350
17
  3
ACAD_PLOTSETTINGS
350
19
  3
ACAD_PLOTSTYLENAME
350
E
  3
AcDbVariableDictionary
350
16C
  3
QCAD_OBJECTS
350
16D
  0
DICTIONARY
  5
D
100
AcDbDictionary
280
0
281
1
  0
ACDBDICTIONARYWDFLT
  5
E
100
AcDbDictionary
281
1
  3
Normal
350
F
100
AcDbDictionaryWithDefault
340
F
  0
ACDBPLACEHOLDER
  5
F
  0
DICTIONARY
  5
17
100
AcDbDictionary
280
0
281
1
  3
Standard
350
18
  0
MLINESTYLE
  5
18
100
AcDbMlineStyle
  2
STANDARD
 70
0
  3

 62
256
 51
90.0
 52
90.0
 71
2
 49
0.5
 62
256
  6
BYLAYER
 49
-0.5
 62
256
  6
BYLAYER
  0
DICTIONARY
  5
19
100
AcDbDictionary
280
0
281
1
  0
DICTIONARY
  5
1A
100
AcDbDictionary
281
1
  3
Layout1
350
1E
  3
Layout2
350
26
  3
Model
350
22
  0
LAYOUT
  5
1E
100
AcDbPlotSettings
  1

  2
none_device
  4

  6

 40
0.0
 41
0.0
 42
0.0
 43
0.0
 44
0.0
 45
0.0
 46
0.0
 47
0.0
 48
0.0
 49
0.0
140
0.0
141
0.0
142
1.0
143
1.0
 70
688
 72
0
 73
0
 74
5
  7

 75
16
147
1.0
148
0.0
149
0.0
100
AcDbLayout
  1
Layout1
 70
1
 71
1
 10
0.0
 20
0.0
 11
420.0
 21
297.0
 12
0.0
 22
0.0
 32
0.0
 14
100000000000000000000.0
 24
100000000000000000000.0
 34
100000000000000000000.0
 15
-100000000000000000000.0
 25
-100000000000000000000.0
 35
-100000000000000000000.0
146
0.0
 13
0.0
 23
0.0
 33
0.0
 16
1.0
 26
0.0
 36
0.0
 17
0.0
 27
1.0
 37
0.0
 76
0
330
1B
  0
LAYOUT
  5
22
100
AcDbPlotSettings
  1

  2
none_device
  4

  6

 40
0.0
 41
0.0
 42
0.0
 43
0.0
 44
0.0
 45
0.0
 46
0.0
 47
0.0
 48
0.0
 49
0.0
140
0.0
141
0.0
142
1.0
143
1.0
 70
1712
 72
0
 73
0
 74
0
  7

 75
0
147
1.0
148
0.0
149
0.0
100
AcDbLayout
  1
Model
 70
1
 71
0
 10
0.0
 20
0.0
 11
12.0
 21
9.0
 12
0.0
 22
0.0
 32
0.0
 14
0.0
 24
0.0
 34
0.0
 15
0.0
 25
0.0
 35
0.0
146
0.0
 13
0.0
 23
0.0
 33
0.0
 16
1.0
 26
0.0
 36
0.0
 17
0.0
 27
1.0
 37
0.0
 76
0
330
1F
  0
LAYOUT
  5
26
100
AcDbPlotSettings
  1

  2
none_device
  4

  6

 40
0.0
 41
0.0
 42
0.0
 43
0.0
 44
0.0
 45
0.0
 46
0.0
 47
0.0
 48
0.0
 49
0.0
140
0.0
141
0.0
142
1.0
143
1.0
 70
688
 72
0
 73
0
 74
5
  7

 75
16
147
1.0
148
0.0
149
0.0
100
AcDbLayout
  1
Layout2
 70
1
 71
2
 10
0.0
 20
0.0
 11
12.0
 21
9.0
 12
0.0
 22
0.0
 32
0.0
 14
0.0
 24
0.0
 34
0.0
 15
0.0
 25
0.0
 35
0.0
146
0.0
 13
0.0
 23
0.0
 33
0.0
 16
1.0
 26
0.0
 36
0.0
 17
0.0
 27
1.0
 37
0.0
 76
0
330
23
  0
DICTIONARY
  5
16C
100
AcDbDictionary
281
1
  3
DIMASSOC
350
16F
  3
HIDETEXT
350
16E
  0
DICTIONARYVAR
  5
16E
100
DictionaryVariables
280
0
  1
2
  0
DICTIONARYVAR
  5
16F
100
DictionaryVariables
280
0
  1
1
  0
DICTIONARY
  5
16D
100
AcDbDictionary
281
1
  3
ColorSettings/BackgroundColor
350
170
  3
ColorSettings/ColorMode
350
171
  3
DimensionSettings/AngularFormat
350
172
  3
DimensionSettings/AngularPrecision
350
173
  3
DimensionSettings/DimensionFont
350
174
  3
DimensionSettings/KeepProportions
350
175
  3
DimensionSettings/LinearFormat
350
176
  3
DimensionSettings/LinearPrecision
350
177
  3
Grid/DisplayGrid00
350
178
  3
Grid/DisplayGrid01
350
179
  3
Grid/DisplayGrid02
350
17A
  3
Grid/DisplayGrid03
350
17B
  3
Grid/GridSpacingX00
350
17C
  3
Grid/GridSpacingX01
350
17D
  3
Grid/GridSpacingX02
350
17E
  3
Grid/GridSpacingX03
350
17F
  3
Grid/GridSpacingY00
350
180
  3
Grid/GridSpacingY01
350
181
  3
Grid/GridSpacingY02
350
182
  3
Grid/GridSpacingY03
350
183
  3
Grid/IsometricGrid00
350
184
  3
Grid/IsometricGrid01
350
185
  3
Grid/IsometricGrid02
350
186
  3
Grid/IsometricGrid03
350
187
  3
Grid/IsometricProjection00
350
188
  3
Grid/IsometricProjection01
350
189
  3
Grid/IsometricProjection02
350
18A
  3
Grid/IsometricProjection03
350
18B
  3
Grid/MetaGridSpacingX00
350
18C
  3
Grid/MetaGridSpacingX01
350
18D
  3
Grid/MetaGridSpacingX02
350
18E
  3
Grid/MetaGridSpacingX03
350
18F
  3
Grid/MetaGridSpacingY00
350
190
  3
Grid/MetaGridSpacingY01
350
191
  3
Grid/MetaGridSpacingY02
350
192
  3
Grid/MetaGridSpacingY03
350
193
  3
MultiPageSettings/Columns
350
194
  3
MultiPageSettings/GlueMarginsBottom
350
195
  3
MultiPageSettings/GlueMarginsLeft
350
196
  3
MultiPageSettings/GlueMarginsRight
350
197
  3
MultiPageSettings/GlueMarginsTop
350
198
  3
MultiPageSettings/PrintCropMarks
350
199
  3
MultiPageSettings/Rows
350
19A
  3
PageSettings/OffsetX
350
19B
  3
PageSettings/OffsetY
350
19C
  3
PageSettings/PageOrientation
350
19D
  3
PageSettings/PaperHeight
350
19E
  3
PageSettings/PaperWidth
350
19F
  3
PageSettings/Scale
350
1A0
  3
PageSettings/ShowPaperBorders
350
1A1
  3
QCADVersion
350
1A2
  3
UnitSettings/PaperUnit
350
1A3
  0
XRECORD
  5
170
330
16D
100
AcDbXrecord
280
1
1000
White
  0
XRECORD
  5
171
330
16D
100
AcDbXrecord
280
1
1000
FullColor
  0
XRECORD
  5
172
330
16D
100
AcDbXrecord
280
1
 40
0.0
  0
XRECORD
  5
173
330
16D
100
AcDbXrecord
280
1
 40
0.0
  0
XRECORD
  5
174
330
16D
100
AcDbXrecord
280
1
1000
MS Shell Dlg 2
  0
XRECORD
  5
175
330
16D
100
AcDbXrecord
280
1
290
1
  0
XRECORD
  5
176
330
16D
100
AcDbXrecord
280
1
 40
2.0
  0
XRECORD
  5
177
330
16D
100
AcDbXrecord
280
1
 40
1.0
  0
XRECORD
  5
178
330
16D
100
AcDbXrecord
280
1
290
1
  0
XRECORD
  5
179
330
16D
100
AcDbXrecord
280
1
290
1
  0
XRECORD
  5
17A
330
16D
100
AcDbXrecord
280
1
290
1
  0
XRECORD
  5
17B
330
16D
100
AcDbXrecord
280
1
290
1
  0
XRECORD
  5
17C
330
16D
100
AcDbXrecord
280
1
1000
auto
  0
XRECORD
  5
17D
330
16D
100
AcDbXrecord
280
1
1000
auto
  0
XRECORD
  5
17E
330
16D
100
AcDbXrecord
280
1
1000
auto
  0
XRECORD
  5
17F
330
16D
100
AcDbXrecord
280
1
1000
auto
  0
XRECORD
  5
180
330
16D
100
AcDbXrecord
280
1
1000
auto
  0
XRECORD
  5
181
330
16D
100
AcDbXrecord
280
1
1000
auto
  0
XRECORD
  5
182
330
16D
100
AcDbXrecord
280
1
1000
auto
  0
XRECORD
  5
183
330
16D
100
AcDbXrecord
280
1
1000
auto
  0
XRECORD
  5
184
330
16D
100
AcDbXrecord
280
1
290
0
  0
XRECORD
  5
185
330
16D
100
AcDbXrecord
280
1
290
0
  0
XRECORD
  5
186
330
16D
100
AcDbXrecord
280
1
290
0
  0
XRECORD
  5
187
330
16D
100
AcDbXrecord
280
1
290
0
  0
XRECORD
  5
188
330
16D
100
AcDbXrecord
280
1
 90
0
  0
XRECORD
  5
189
330
16D
100
AcDbXrecord
280
1
 90
0
  0
XRECORD
  5
18A
330
16D
100
AcDbXrecord
280
1
 90
0
  0
XRECORD
  5
18B
330
16D
100
AcDbXrecord
280
1
 90
0
  0
XRECORD
  5
18C
330
16D
100
AcDbXrecord
280
1
1000
auto
  0
XRECORD
  5
18D
330
16D
100
AcDbXrecord
280
1
1000
auto
  0
XRECORD
  5
18E
330
16D
100
AcDbXrecord
280
1
1000
auto
  0
XRECORD
  5
18F
330
16D
100
AcDbXrecord
280
1
1000
auto
  0
XRECORD
  5
190
330
16D
100
AcDbXrecord
280
1
1000
auto
  0
XRECORD
  5
191
330
16D
100
AcDbXrecord
280
1
1000
auto
  0
XRECORD
  5
192
330
16D
100
AcDbXrecord
280
1
1000
auto
  0
XRECORD
  5
193
330
16D
100
AcDbXrecord
280
1
1000
auto
  0
XRECORD
  5
194
330
16D
100
AcDbXrecord
280
1
 90
1
  0
XRECORD
  5
195
330
16D
100
AcDbXrecord
280
1
 40
10.0
  0
XRECORD
  5
196
330
16D
100
AcDbXrecord
280
1
 40
10.0
  0
XRECORD
  5
197
330
16D
100
AcDbXrecord
280
1
 40
10.0
  0
XRECORD
  5
198
330
16D
100
AcDbXrecord
280
1
 40
10.0
  0
XRECORD
  5
199
330
16D
100
AcDbXrecord
280
1
290
0
  0
XRECORD
  5
19A
330
16D
100
AcDbXrecord
280
1
 90
1
  0
XRECORD
  5
19B
330
16D
100
AcDbXrecord
280
1
 40
0.0
  0
XRECORD
  5
19C
330
16D
100
AcDbXrecord
280
1
 40
0.0
  0
XRECORD
  5
19D
330
16D
100
AcDbXrecord
280
1
1000
Portrait
  0
XRECORD
  5
19E
330
16D
100
AcDbXrecord
280
1
 40
297.0
  0
XRECORD
  5
19F
330
16D
100
AcDbXrecord
280
1
 40
210.0
  0
XRECORD
  5
1A0
330
16D
100
AcDbXrecord
280
1
1000
1:1
  0
XRECORD
  5
1A1
330
16D
100
AcDbXrecord
280
1
290
1
  0
XRECORD
  5
1A2
330
16D
100
AcDbXrecord
280
1
1000
3.12.3
  0
XRECORD
  5
1A3
330
16D
100
AcDbXrecord
280
1
 90
4
  0
ENDSEC
  0
EOF
