  0
SECTION
  2
BLOCKS
  0
ENDSEC
  0
SECTION
  2
ENTITIES
  0
LINE
  8
0
 10
500
 20
1100
 11
0
 21
1100
  0
LINE
  8
0
 10
0
 20
1100
 11
0
 21
600
  0
LINE
  8
0
 10
0
 20
600
 11
500
 21
600
  0
LINE
  8
0
 10
500
 20
600
 11
500
 21
1100
  0
LINE
  8
0
 10
-50
 20
1060
 11
-150
 21
1060
  0
LINE
  8
0
 10
-150
 20
1060
 11
-150
 21
1000
  0
LINE
  8
0
 10
-150
 20
1000
 11
-50
 21
1000
  0
LINE
  8
0
 10
-50
 20
1000
 11
-50
 21
1060
  0
LINE
  8
0
 10
-100.691
 20
1024.02
 11
-102.061
 21
1024.19
  0
LINE
  8
0
 10
-102.061
 20
1024.19
 11
-103.399
 21
1024.54
  0
LINE
  8
0
 10
-103.399
 20
1024.54
 11
-104.684
 21
1025.05
  0
LINE
  8
0
 10
-104.684
 20
1025.05
 11
-105.894
 21
1025.71
  0
LINE
  8
0
 10
-105.894
 20
1025.71
 11
-107.012
 21
1026.52
  0
LINE
  8
0
 10
-107.012
 20
1026.52
 11
-108.019
 21
1027.47
  0
LINE
  8
0
 10
-108.019
 20
1027.47
 11
-108.899
 21
1028.53
  0
LINE
  8
0
 10
-108.899
 20
1028.53
 11
-109.639
 21
1029.7
  0
LINE
  8
0
 10
-109.639
 20
1029.7
 11
-110.228
 21
1030.95
  0
LINE
  8
0
 10
-110.228
 20
1030.95
 11
-110.654
 21
1032.26
  0
LINE
  8
0
 10
-110.654
 20
1032.26
 11
-110.913
 21
1033.62
  0
LINE
  8
0
 10
-110.913
 20
1033.62
 11
-111
 21
1035
  0
LINE
  8
0
 10
-111
 20
1035
 11
-110.913
 21
1036.38
  0
LINE
  8
0
 10
-110.913
 20
1036.38
 11
-110.654
 21
1037.74
  0
LINE
  8
0
 10
-110.654
 20
1037.74
 11
-110.228
 21
1039.05
  0
LINE
  8
0
 10
-110.228
 20
1039.05
 11
-109.639
 21
1040.3
  0
LINE
  8
0
 10
-109.639
 20
1040.3
 11
-108.899
 21
1041.47
  0
LINE
  8
0
 10
-108.899
 20
1041.47
 11
-108.019
 21
1042.53
  0
LINE
  8
0
 10
-108.019
 20
1042.53
 11
-107.012
 21
1043.48
  0
LINE
  8
0
 10
-107.012
 20
1043.48
 11
-105.894
 21
1044.29
  0
LINE
  8
0
 10
-105.894
 20
1044.29
 11
-104.684
 21
1044.95
  0
LINE
  8
0
 10
-104.684
 20
1044.95
 11
-103.399
 21
1045.46
  0
LINE
  8
0
 10
-103.399
 20
1045.46
 11
-102.061
 21
1045.81
  0
LINE
  8
0
 10
-102.061
 20
1045.81
 11
-100.691
 21
1045.98
  0
LINE
  8
0
 10
-100.691
 20
1045.98
 11
-99.3093
 21
1045.98
  0
LINE
  8
0
 10
-99.3093
 20
1045.98
 11
-97.9388
 21
1045.81
  0
LINE
  8
0
 10
-97.9388
 20
1045.81
 11
-96.6008
 21
1045.46
  0
LINE
  8
0
 10
-96.6008
 20
1045.46
 11
-95.3164
 21
1044.95
  0
LINE
  8
0
 10
-95.3164
 20
1044.95
 11
-94.1059
 21
1044.29
  0
LINE
  8
0
 10
-94.1059
 20
1044.29
 11
-92.9883
 21
1043.48
  0
LINE
  8
0
 10
-92.9883
 20
1043.48
 11
-91.9813
 21
1042.53
  0
LINE
  8
0
 10
-91.9813
 20
1042.53
 11
-91.1008
 21
1041.47
  0
LINE
  8
0
 10
-91.1008
 20
1041.47
 11
-90.3606
 21
1040.3
  0
LINE
  8
0
 10
-90.3606
 20
1040.3
 11
-89.7725
 21
1039.05
  0
LINE
  8
0
 10
-89.7725
 20
1039.05
 11
-89.3456
 21
1037.74
  0
LINE
  8
0
 10
-89.3456
 20
1037.74
 11
-89.0867
 21
1036.38
  0
LINE
  8
0
 10
-89.0867
 20
1036.38
 11
-89
 21
1035
  0
LINE
  8
0
 10
-89
 20
1035
 11
-89.0867
 21
1033.62
  0
LINE
  8
0
 10
-89.0867
 20
1033.62
 11
-89.3456
 21
1032.26
  0
LINE
  8
0
 10
-89.3456
 20
1032.26
 11
-89.7725
 21
1030.95
  0
LINE
  8
0
 10
-89.7725
 20
1030.95
 11
-90.3606
 21
1029.7
  0
LINE
  8
0
 10
-90.3606
 20
1029.7
 11
-91.1008
 21
1028.53
  0
LINE
  8
0
 10
-91.1008
 20
1028.53
 11
-91.9813
 21
1027.47
  0
LINE
  8
0
 10
-91.9813
 20
1027.47
 11
-92.9883
 21
1026.52
  0
LINE
  8
0
 10
-92.9883
 20
1026.52
 11
-94.1059
 21
1025.71
  0
LINE
  8
0
 10
-94.1059
 20
1025.71
 11
-95.3164
 21
1025.05
  0
LINE
  8
0
 10
-95.3164
 20
1025.05
 11
-96.6008
 21
1024.54
  0
LINE
  8
0
 10
-96.6008
 20
1024.54
 11
-97.9388
 21
1024.19
  0
LINE
  8
0
 10
-97.9388
 20
1024.19
 11
-99.3093
 21
1024.02
  0
LINE
  8
0
 10
-99.3093
 20
1024.02
 11
-100.691
 21
1024.02
  0
LINE
  8
0
 10
-70.2512
 20
1026.01
 11
-70.7495
 21
1026.07
  0
LINE
  8
0
 10
-70.7495
 20
1026.07
 11
-71.2361
 21
1026.2
  0
LINE
  8
0
 10
-71.2361
 20
1026.2
 11
-71.7031
 21
1026.38
  0
LINE
  8
0
 10
-71.7031
 20
1026.38
 11
-72.1433
 21
1026.62
  0
LINE
  8
0
 10
-72.1433
 20
1026.62
 11
-72.5497
 21
1026.92
  0
LINE
  8
0
 10
-72.5497
 20
1026.92
 11
-72.9159
 21
1027.26
  0
LINE
  8
0
 10
-72.9159
 20
1027.26
 11
-73.2361
 21
1027.65
  0
LINE
  8
0
 10
-73.2361
 20
1027.65
 11
-73.5052
 21
1028.07
  0
LINE
  8
0
 10
-73.5052
 20
1028.07
 11
-73.7191
 21
1028.53
  0
LINE
  8
0
 10
-73.7191
 20
1028.53
 11
-73.8743
 21
1029.01
  0
LINE
  8
0
 10
-73.8743
 20
1029.01
 11
-73.9685
 21
1029.5
  0
LINE
  8
0
 10
-73.9685
 20
1029.5
 11
-74
 21
1030
  0
LINE
  8
0
 10
-74
 20
1030
 11
-73.9685
 21
1030.5
  0
LINE
  8
0
 10
-73.9685
 20
1030.5
 11
-73.8743
 21
1030.99
  0
LINE
  8
0
 10
-73.8743
 20
1030.99
 11
-73.7191
 21
1031.47
  0
LINE
  8
0
 10
-73.7191
 20
1031.47
 11
-73.5052
 21
1031.93
  0
LINE
  8
0
 10
-73.5052
 20
1031.93
 11
-73.2361
 21
1032.35
  0
LINE
  8
0
 10
-73.2361
 20
1032.35
 11
-72.9159
 21
1032.74
  0
LINE
  8
0
 10
-72.9159
 20
1032.74
 11
-72.5497
 21
1033.08
  0
LINE
  8
0
 10
-72.5497
 20
1033.08
 11
-72.1433
 21
1033.38
  0
LINE
  8
0
 10
-72.1433
 20
1033.38
 11
-71.7031
 21
1033.62
  0
LINE
  8
0
 10
-71.7031
 20
1033.62
 11
-71.2361
 21
1033.8
  0
LINE
  8
0
 10
-71.2361
 20
1033.8
 11
-70.7495
 21
1033.93
  0
LINE
  8
0
 10
-70.7495
 20
1033.93
 11
-70.2512
 21
1033.99
  0
LINE
  8
0
 10
-70.2512
 20
1033.99
 11
-69.7488
 21
1033.99
  0
LINE
  8
0
 10
-69.7488
 20
1033.99
 11
-69.2505
 21
1033.93
  0
LINE
  8
0
 10
-69.2505
 20
1033.93
 11
-68.7639
 21
1033.8
  0
LINE
  8
0
 10
-68.7639
 20
1033.8
 11
-68.2969
 21
1033.62
  0
LINE
  8
0
 10
-68.2969
 20
1033.62
 11
-67.8567
 21
1033.38
  0
LINE
  8
0
 10
-67.8567
 20
1033.38
 11
-67.4503
 21
1033.08
  0
LINE
  8
0
 10
-67.4503
 20
1033.08
 11
-67.0841
 21
1032.74
  0
LINE
  8
0
 10
-67.0841
 20
1032.74
 11
-66.7639
 21
1032.35
  0
LINE
  8
0
 10
-66.7639
 20
1032.35
 11
-66.4948
 21
1031.93
  0
LINE
  8
0
 10
-66.4948
 20
1031.93
 11
-66.2809
 21
1031.47
  0
LINE
  8
0
 10
-66.2809
 20
1031.47
 11
-66.1257
 21
1030.99
  0
LINE
  8
0
 10
-66.1257
 20
1030.99
 11
-66.0315
 21
1030.5
  0
LINE
  8
0
 10
-66.0315
 20
1030.5
 11
-66
 21
1030
  0
LINE
  8
0
 10
-66
 20
1030
 11
-66.0315
 21
1029.5
  0
LINE
  8
0
 10
-66.0315
 20
1029.5
 11
-66.1257
 21
1029.01
  0
LINE
  8
0
 10
-66.1257
 20
1029.01
 11
-66.2809
 21
1028.53
  0
LINE
  8
0
 10
-66.2809
 20
1028.53
 11
-66.4948
 21
1028.07
  0
LINE
  8
0
 10
-66.4948
 20
1028.07
 11
-66.7639
 21
1027.65
  0
LINE
  8
0
 10
-66.7639
 20
1027.65
 11
-67.0841
 21
1027.26
  0
LINE
  8
0
 10
-67.0841
 20
1027.26
 11
-67.4503
 21
1026.92
  0
LINE
  8
0
 10
-67.4503
 20
1026.92
 11
-67.8567
 21
1026.62
  0
LINE
  8
0
 10
-67.8567
 20
1026.62
 11
-68.2969
 21
1026.38
  0
LINE
  8
0
 10
-68.2969
 20
1026.38
 11
-68.7639
 21
1026.2
  0
LINE
  8
0
 10
-68.7639
 20
1026.2
 11
-69.2505
 21
1026.07
  0
LINE
  8
0
 10
-69.2505
 20
1026.07
 11
-69.7488
 21
1026.01
  0
LINE
  8
0
 10
-69.7488
 20
1026.01
 11
-70.2512
 21
1026.01
  0
LINE
  8
0
 10
-130.251
 20
1026.01
 11
-130.75
 21
1026.07
  0
LINE
  8
0
 10
-130.75
 20
1026.07
 11
-131.236
 21
1026.2
  0
LINE
  8
0
 10
-131.236
 20
1026.2
 11
-131.703
 21
1026.38
  0
LINE
  8
0
 10
-131.703
 20
1026.38
 11
-132.143
 21
1026.62
  0
LINE
  8
0
 10
-132.143
 20
1026.62
 11
-132.55
 21
1026.92
  0
LINE
  8
0
 10
-132.55
 20
1026.92
 11
-132.916
 21
1027.26
  0
LINE
  8
0
 10
-132.916
 20
1027.26
 11
-133.236
 21
1027.65
  0
LINE
  8
0
 10
-133.236
 20
1027.65
 11
-133.505
 21
1028.07
  0
LINE
  8
0
 10
-133.505
 20
1028.07
 11
-133.719
 21
1028.53
  0
LINE
  8
0
 10
-133.719
 20
1028.53
 11
-133.874
 21
1029.01
  0
LINE
  8
0
 10
-133.874
 20
1029.01
 11
-133.968
 21
1029.5
  0
LINE
  8
0
 10
-133.968
 20
1029.5
 11
-134
 21
1030
  0
LINE
  8
0
 10
-134
 20
1030
 11
-133.968
 21
1030.5
  0
LINE
  8
0
 10
-133.968
 20
1030.5
 11
-133.874
 21
1030.99
  0
LINE
  8
0
 10
-133.874
 20
1030.99
 11
-133.719
 21
1031.47
  0
LINE
  8
0
 10
-133.719
 20
1031.47
 11
-133.505
 21
1031.93
  0
LINE
  8
0
 10
-133.505
 20
1031.93
 11
-133.236
 21
1032.35
  0
LINE
  8
0
 10
-133.236
 20
1032.35
 11
-132.916
 21
1032.74
  0
LINE
  8
0
 10
-132.916
 20
1032.74
 11
-132.55
 21
1033.08
  0
LINE
  8
0
 10
-132.55
 20
1033.08
 11
-132.143
 21
1033.38
  0
LINE
  8
0
 10
-132.143
 20
1033.38
 11
-131.703
 21
1033.62
  0
LINE
  8
0
 10
-131.703
 20
1033.62
 11
-131.236
 21
1033.8
  0
LINE
  8
0
 10
-131.236
 20
1033.8
 11
-130.75
 21
1033.93
  0
LINE
  8
0
 10
-130.75
 20
1033.93
 11
-130.251
 21
1033.99
  0
LINE
  8
0
 10
-130.251
 20
1033.99
 11
-129.749
 21
1033.99
  0
LINE
  8
0
 10
-129.749
 20
1033.99
 11
-129.25
 21
1033.93
  0
LINE
  8
0
 10
-129.25
 20
1033.93
 11
-128.764
 21
1033.8
  0
LINE
  8
0
 10
-128.764
 20
1033.8
 11
-128.297
 21
1033.62
  0
LINE
  8
0
 10
-128.297
 20
1033.62
 11
-127.857
 21
1033.38
  0
LINE
  8
0
 10
-127.857
 20
1033.38
 11
-127.45
 21
1033.08
  0
LINE
  8
0
 10
-127.45
 20
1033.08
 11
-127.084
 21
1032.74
  0
LINE
  8
0
 10
-127.084
 20
1032.74
 11
-126.764
 21
1032.35
  0
LINE
  8
0
 10
-126.764
 20
1032.35
 11
-126.495
 21
1031.93
  0
LINE
  8
0
 10
-126.495
 20
1031.93
 11
-126.281
 21
1031.47
  0
LINE
  8
0
 10
-126.281
 20
1031.47
 11
-126.126
 21
1030.99
  0
LINE
  8
0
 10
-126.126
 20
1030.99
 11
-126.032
 21
1030.5
  0
LINE
  8
0
 10
-126.032
 20
1030.5
 11
-126
 21
1030
  0
LINE
  8
0
 10
-126
 20
1030
 11
-126.032
 21
1029.5
  0
LINE
  8
0
 10
-126.032
 20
1029.5
 11
-126.126
 21
1029.01
  0
LINE
  8
0
 10
-126.126
 20
1029.01
 11
-126.281
 21
1028.53
  0
LINE
  8
0
 10
-126.281
 20
1028.53
 11
-126.495
 21
1028.07
  0
LINE
  8
0
 10
-126.495
 20
1028.07
 11
-126.764
 21
1027.65
  0
LINE
  8
0
 10
-126.764
 20
1027.65
 11
-127.084
 21
1027.26
  0
LINE
  8
0
 10
-127.084
 20
1027.26
 11
-127.45
 21
1026.92
  0
LINE
  8
0
 10
-127.45
 20
1026.92
 11
-127.857
 21
1026.62
  0
LINE
  8
0
 10
-127.857
 20
1026.62
 11
-128.297
 21
1026.38
  0
LINE
  8
0
 10
-128.297
 20
1026.38
 11
-128.764
 21
1026.2
  0
LINE
  8
0
 10
-128.764
 20
1026.2
 11
-129.25
 21
1026.07
  0
LINE
  8
0
 10
-129.25
 20
1026.07
 11
-129.749
 21
1026.01
  0
LINE
  8
0
 10
-129.749
 20
1026.01
 11
-130.251
 21
1026.01
  0
LINE
  8
0
 10
-50
 20
950
 11
-150
 21
950
  0
LINE
  8
0
 10
-150
 20
950
 11
-150
 21
700
  0
LINE
  8
0
 10
-150
 20
700
 11
-50
 21
700
  0
LINE
  8
0
 10
-50
 20
700
 11
-50
 21
950
  0
LINE
  8
0
 10
-200
 20
937.1
 11
-300
 21
937.1
  0
LINE
  8
0
 10
-300
 20
937.1
 11
-300
 21
877.1
  0
LINE
  8
0
 10
-300
 20
877.1
 11
-200
 21
877.1
  0
LINE
  8
0
 10
-200
 20
877.1
 11
-200
 21
937.1
  0
LINE
  8
0
 10
-250.942
 20
892.13
 11
-252.811
 21
892.366
  0
LINE
  8
0
 10
-252.811
 20
892.366
 11
-254.635
 21
892.834
  0
LINE
  8
0
 10
-254.635
 20
892.834
 11
-256.387
 21
893.528
  0
LINE
  8
0
 10
-256.387
 20
893.528
 11
-258.037
 21
894.435
  0
LINE
  8
0
 10
-258.037
 20
894.435
 11
-259.561
 21
895.542
  0
LINE
  8
0
 10
-259.561
 20
895.542
 11
-260.935
 21
896.832
  0
LINE
  8
0
 10
-260.935
 20
896.832
 11
-262.135
 21
898.283
  0
LINE
  8
0
 10
-262.135
 20
898.283
 11
-263.145
 21
899.874
  0
LINE
  8
0
 10
-263.145
 20
899.874
 11
-263.947
 21
901.578
  0
LINE
  8
0
 10
-263.947
 20
901.578
 11
-264.529
 21
903.37
  0
LINE
  8
0
 10
-264.529
 20
903.37
 11
-264.882
 21
905.22
  0
LINE
  8
0
 10
-264.882
 20
905.22
 11
-265
 21
907.1
  0
LINE
  8
0
 10
-265
 20
907.1
 11
-264.882
 21
908.98
  0
LINE
  8
0
 10
-264.882
 20
908.98
 11
-264.529
 21
910.83
  0
LINE
  8
0
 10
-264.529
 20
910.83
 11
-263.947
 21
912.622
  0
LINE
  8
0
 10
-263.947
 20
912.622
 11
-263.145
 21
914.326
  0
LINE
  8
0
 10
-263.145
 20
914.326
 11
-262.135
 21
915.917
  0
LINE
  8
0
 10
-262.135
 20
915.917
 11
-260.935
 21
917.368
  0
LINE
  8
0
 10
-260.935
 20
917.368
 11
-259.561
 21
918.658
  0
LINE
  8
0
 10
-259.561
 20
918.658
 11
-258.037
 21
919.765
  0
LINE
  8
0
 10
-258.037
 20
919.765
 11
-256.387
 21
920.672
  0
LINE
  8
0
 10
-256.387
 20
920.672
 11
-254.635
 21
921.366
  0
LINE
  8
0
 10
-254.635
 20
921.366
 11
-252.811
 21
921.834
  0
LINE
  8
0
 10
-252.811
 20
921.834
 11
-250.942
 21
922.07
  0
LINE
  8
0
 10
-250.942
 20
922.07
 11
-249.058
 21
922.07
  0
LINE
  8
0
 10
-249.058
 20
922.07
 11
-247.189
 21
921.834
  0
LINE
  8
0
 10
-247.189
 20
921.834
 11
-245.365
 21
921.366
  0
LINE
  8
0
 10
-245.365
 20
921.366
 11
-243.613
 21
920.672
  0
LINE
  8
0
 10
-243.613
 20
920.672
 11
-241.963
 21
919.765
  0
LINE
  8
0
 10
-241.963
 20
919.765
 11
-240.439
 21
918.658
  0
LINE
  8
0
 10
-240.439
 20
918.658
 11
-239.065
 21
917.368
  0
LINE
  8
0
 10
-239.065
 20
917.368
 11
-237.865
 21
915.917
  0
LINE
  8
0
 10
-237.865
 20
915.917
 11
-236.855
 21
914.326
  0
LINE
  8
0
 10
-236.855
 20
914.326
 11
-236.053
 21
912.622
  0
LINE
  8
0
 10
-236.053
 20
912.622
 11
-235.471
 21
910.83
  0
LINE
  8
0
 10
-235.471
 20
910.83
 11
-235.118
 21
908.98
  0
LINE
  8
0
 10
-235.118
 20
908.98
 11
-235
 21
907.1
  0
LINE
  8
0
 10
-235
 20
907.1
 11
-235.118
 21
905.22
  0
LINE
  8
0
 10
-235.118
 20
905.22
 11
-235.471
 21
903.37
  0
LINE
  8
0
 10
-235.471
 20
903.37
 11
-236.053
 21
901.578
  0
LINE
  8
0
 10
-236.053
 20
901.578
 11
-236.855
 21
899.874
  0
LINE
  8
0
 10
-236.855
 20
899.874
 11
-237.865
 21
898.283
  0
LINE
  8
0
 10
-237.865
 20
898.283
 11
-239.065
 21
896.832
  0
LINE
  8
0
 10
-239.065
 20
896.832
 11
-240.439
 21
895.542
  0
LINE
  8
0
 10
-240.439
 20
895.542
 11
-241.963
 21
894.435
  0
LINE
  8
0
 10
-241.963
 20
894.435
 11
-243.613
 21
893.528
  0
LINE
  8
0
 10
-243.613
 20
893.528
 11
-245.365
 21
892.834
  0
LINE
  8
0
 10
-245.365
 20
892.834
 11
-247.189
 21
892.366
  0
LINE
  8
0
 10
-247.189
 20
892.366
 11
-249.058
 21
892.13
  0
LINE
  8
0
 10
-249.058
 20
892.13
 11
-250.942
 21
892.13
  0
LINE
  8
0
 10
-200
 20
780
 11
-300
 21
780
  0
LINE
  8
0
 10
-300
 20
780
 11
-300
 21
700
  0
LINE
  8
0
 10
-300
 20
700
 11
-200
 21
700
  0
LINE
  8
0
 10
-200
 20
700
 11
-200
 21
780
  0
LINE
  8
0
 10
-50
 20
660
 11
-150
 21
660
  0
LINE
  8
0
 10
-150
 20
660
 11
-150
 21
600
  0
LINE
  8
0
 10
-150
 20
600
 11
-50
 21
600
  0
LINE
  8
0
 10
-50
 20
600
 11
-50
 21
660
  0
LINE
  8
0
 10
-115.594
 20
649.003
 11
-115.781
 21
649.027
  0
LINE
  8
0
 10
-115.781
 20
649.027
 11
-115.964
 21
649.073
  0
LINE
  8
0
 10
-115.964
 20
649.073
 11
-116.139
 21
649.143
  0
LINE
  8
0
 10
-116.139
 20
649.143
 11
-116.304
 21
649.234
  0
LINE
  8
0
 10
-116.304
 20
649.234
 11
-116.456
 21
649.344
  0
LINE
  8
0
 10
-116.456
 20
649.344
 11
-116.593
 21
649.473
  0
LINE
  8
0
 10
-116.593
 20
649.473
 11
-116.714
 21
649.618
  0
LINE
  8
0
 10
-116.714
 20
649.618
 11
-116.814
 21
649.777
  0
LINE
  8
0
 10
-116.814
 20
649.777
 11
-116.895
 21
649.948
  0
LINE
  8
0
 10
-116.895
 20
649.948
 11
-116.953
 21
650.127
  0
LINE
  8
0
 10
-116.953
 20
650.127
 11
-116.988
 21
650.312
  0
LINE
  8
0
 10
-116.988
 20
650.312
 11
-117
 21
650.5
  0
LINE
  8
0
 10
-117
 20
650.5
 11
-116.988
 21
650.688
  0
LINE
  8
0
 10
-116.988
 20
650.688
 11
-116.953
 21
650.873
  0
LINE
  8
0
 10
-116.953
 20
650.873
 11
-116.895
 21
651.052
  0
LINE
  8
0
 10
-116.895
 20
651.052
 11
-116.814
 21
651.223
  0
LINE
  8
0
 10
-116.814
 20
651.223
 11
-116.714
 21
651.382
  0
LINE
  8
0
 10
-116.714
 20
651.382
 11
-116.593
 21
651.527
  0
LINE
  8
0
 10
-116.593
 20
651.527
 11
-116.456
 21
651.656
  0
LINE
  8
0
 10
-116.456
 20
651.656
 11
-116.304
 21
651.766
  0
LINE
  8
0
 10
-116.304
 20
651.766
 11
-116.139
 21
651.857
  0
LINE
  8
0
 10
-116.139
 20
651.857
 11
-115.964
 21
651.927
  0
LINE
  8
0
 10
-115.964
 20
651.927
 11
-115.781
 21
651.973
  0
LINE
  8
0
 10
-115.781
 20
651.973
 11
-115.594
 21
651.997
  0
LINE
  8
0
 10
-115.594
 20
651.997
 11
-115.406
 21
651.997
  0
LINE
  8
0
 10
-115.406
 20
651.997
 11
-115.219
 21
651.973
  0
LINE
  8
0
 10
-115.219
 20
651.973
 11
-115.036
 21
651.927
  0
LINE
  8
0
 10
-115.036
 20
651.927
 11
-114.861
 21
651.857
  0
LINE
  8
0
 10
-114.861
 20
651.857
 11
-114.696
 21
651.766
  0
LINE
  8
0
 10
-114.696
 20
651.766
 11
-114.544
 21
651.656
  0
LINE
  8
0
 10
-114.544
 20
651.656
 11
-114.407
 21
651.527
  0
LINE
  8
0
 10
-114.407
 20
651.527
 11
-114.286
 21
651.382
  0
LINE
  8
0
 10
-114.286
 20
651.382
 11
-114.186
 21
651.223
  0
LINE
  8
0
 10
-114.186
 20
651.223
 11
-114.105
 21
651.052
  0
LINE
  8
0
 10
-114.105
 20
651.052
 11
-114.047
 21
650.873
  0
LINE
  8
0
 10
-114.047
 20
650.873
 11
-114.012
 21
650.688
  0
LINE
  8
0
 10
-114.012
 20
650.688
 11
-114
 21
650.5
  0
LINE
  8
0
 10
-114
 20
650.5
 11
-114.012
 21
650.312
  0
LINE
  8
0
 10
-114.012
 20
650.312
 11
-114.047
 21
650.127
  0
LINE
  8
0
 10
-114.047
 20
650.127
 11
-114.105
 21
649.948
  0
LINE
  8
0
 10
-114.105
 20
649.948
 11
-114.186
 21
649.777
  0
LINE
  8
0
 10
-114.186
 20
649.777
 11
-114.286
 21
649.618
  0
LINE
  8
0
 10
-114.286
 20
649.618
 11
-114.407
 21
649.473
  0
LINE
  8
0
 10
-114.407
 20
649.473
 11
-114.544
 21
649.344
  0
LINE
  8
0
 10
-114.544
 20
649.344
 11
-114.696
 21
649.234
  0
LINE
  8
0
 10
-114.696
 20
649.234
 11
-114.861
 21
649.143
  0
LINE
  8
0
 10
-114.861
 20
649.143
 11
-115.036
 21
649.073
  0
LINE
  8
0
 10
-115.036
 20
649.073
 11
-115.219
 21
649.027
  0
LINE
  8
0
 10
-115.219
 20
649.027
 11
-115.406
 21
649.003
  0
LINE
  8
0
 10
-115.406
 20
649.003
 11
-115.594
 21
649.003
  0
LINE
  8
0
 10
-84.5942
 20
649.003
 11
-84.7811
 21
649.027
  0
LINE
  8
0
 10
-84.7811
 20
649.027
 11
-84.9635
 21
649.073
  0
LINE
  8
0
 10
-84.9635
 20
649.073
 11
-85.1387
 21
649.143
  0
LINE
  8
0
 10
-85.1387
 20
649.143
 11
-85.3037
 21
649.234
  0
LINE
  8
0
 10
-85.3037
 20
649.234
 11
-85.4561
 21
649.344
  0
LINE
  8
0
 10
-85.4561
 20
649.344
 11
-85.5934
 21
649.473
  0
LINE
  8
0
 10
-85.5934
 20
649.473
 11
-85.7135
 21
649.618
  0
LINE
  8
0
 10
-85.7135
 20
649.618
 11
-85.8145
 21
649.777
  0
LINE
  8
0
 10
-85.8145
 20
649.777
 11
-85.8947
 21
649.948
  0
LINE
  8
0
 10
-85.8947
 20
649.948
 11
-85.9529
 21
650.127
  0
LINE
  8
0
 10
-85.9529
 20
650.127
 11
-85.9882
 21
650.312
  0
LINE
  8
0
 10
-85.9882
 20
650.312
 11
-86
 21
650.5
  0
LINE
  8
0
 10
-86
 20
650.5
 11
-85.9882
 21
650.688
  0
LINE
  8
0
 10
-85.9882
 20
650.688
 11
-85.9529
 21
650.873
  0
LINE
  8
0
 10
-85.9529
 20
650.873
 11
-85.8947
 21
651.052
  0
LINE
  8
0
 10
-85.8947
 20
651.052
 11
-85.8145
 21
651.223
  0
LINE
  8
0
 10
-85.8145
 20
651.223
 11
-85.7135
 21
651.382
  0
LINE
  8
0
 10
-85.7135
 20
651.382
 11
-85.5934
 21
651.527
  0
LINE
  8
0
 10
-85.5934
 20
651.527
 11
-85.4561
 21
651.656
  0
LINE
  8
0
 10
-85.4561
 20
651.656
 11
-85.3037
 21
651.766
  0
LINE
  8
0
 10
-85.3037
 20
651.766
 11
-85.1387
 21
651.857
  0
LINE
  8
0
 10
-85.1387
 20
651.857
 11
-84.9635
 21
651.927
  0
LINE
  8
0
 10
-84.9635
 20
651.927
 11
-84.7811
 21
651.973
  0
LINE
  8
0
 10
-84.7811
 20
651.973
 11
-84.5942
 21
651.997
  0
LINE
  8
0
 10
-84.5942
 20
651.997
 11
-84.4058
 21
651.997
  0
LINE
  8
0
 10
-84.4058
 20
651.997
 11
-84.2189
 21
651.973
  0
LINE
  8
0
 10
-84.2189
 20
651.973
 11
-84.0365
 21
651.927
  0
LINE
  8
0
 10
-84.0365
 20
651.927
 11
-83.8613
 21
651.857
  0
LINE
  8
0
 10
-83.8613
 20
651.857
 11
-83.6963
 21
651.766
  0
LINE
  8
0
 10
-83.6963
 20
651.766
 11
-83.5439
 21
651.656
  0
LINE
  8
0
 10
-83.5439
 20
651.656
 11
-83.4065
 21
651.527
  0
LINE
  8
0
 10
-83.4065
 20
651.527
 11
-83.2865
 21
651.382
  0
LINE
  8
0
 10
-83.2865
 20
651.382
 11
-83.1855
 21
651.223
  0
LINE
  8
0
 10
-83.1855
 20
651.223
 11
-83.1053
 21
651.052
  0
LINE
  8
0
 10
-83.1053
 20
651.052
 11
-83.0471
 21
650.873
  0
LINE
  8
0
 10
-83.0471
 20
650.873
 11
-83.0118
 21
650.688
  0
LINE
  8
0
 10
-83.0118
 20
650.688
 11
-83
 21
650.5
  0
LINE
  8
0
 10
-83
 20
650.5
 11
-83.0118
 21
650.312
  0
LINE
  8
0
 10
-83.0118
 20
650.312
 11
-83.0471
 21
650.127
  0
LINE
  8
0
 10
-83.0471
 20
650.127
 11
-83.1053
 21
649.948
  0
LINE
  8
0
 10
-83.1053
 20
649.948
 11
-83.1855
 21
649.777
  0
LINE
  8
0
 10
-83.1855
 20
649.777
 11
-83.2865
 21
649.618
  0
LINE
  8
0
 10
-83.2865
 20
649.618
 11
-83.4065
 21
649.473
  0
LINE
  8
0
 10
-83.4065
 20
649.473
 11
-83.5439
 21
649.344
  0
LINE
  8
0
 10
-83.5439
 20
649.344
 11
-83.6963
 21
649.234
  0
LINE
  8
0
 10
-83.6963
 20
649.234
 11
-83.8613
 21
649.143
  0
LINE
  8
0
 10
-83.8613
 20
649.143
 11
-84.0365
 21
649.073
  0
LINE
  8
0
 10
-84.0365
 20
649.073
 11
-84.2189
 21
649.027
  0
LINE
  8
0
 10
-84.2189
 20
649.027
 11
-84.4058
 21
649.003
  0
LINE
  8
0
 10
-84.4058
 20
649.003
 11
-84.5942
 21
649.003
  0
LINE
  8
0
 10
-100.753
 20
623.024
 11
-102.249
 21
623.213
  0
LINE
  8
0
 10
-102.249
 20
623.213
 11
-103.708
 21
623.587
  0
LINE
  8
0
 10
-103.708
 20
623.587
 11
-105.109
 21
624.142
  0
LINE
  8
0
 10
-105.109
 20
624.142
 11
-106.43
 21
624.868
  0
LINE
  8
0
 10
-106.43
 20
624.868
 11
-107.649
 21
625.754
  0
LINE
  8
0
 10
-107.649
 20
625.754
 11
-108.748
 21
626.785
  0
LINE
  8
0
 10
-108.748
 20
626.785
 11
-109.708
 21
627.947
  0
LINE
  8
0
 10
-109.708
 20
627.947
 11
-110.516
 21
629.219
  0
LINE
  8
0
 10
-110.516
 20
629.219
 11
-111.157
 21
630.583
  0
LINE
  8
0
 10
-111.157
 20
630.583
 11
-111.623
 21
632.016
  0
LINE
  8
0
 10
-111.623
 20
632.016
 11
-111.905
 21
633.496
  0
LINE
  8
0
 10
-111.905
 20
633.496
 11
-112
 21
635
  0
LINE
  8
0
 10
-112
 20
635
 11
-111.905
 21
636.504
  0
LINE
  8
0
 10
-111.905
 20
636.504
 11
-111.623
 21
637.984
  0
LINE
  8
0
 10
-111.623
 20
637.984
 11
-111.157
 21
639.417
  0
LINE
  8
0
 10
-111.157
 20
639.417
 11
-110.516
 21
640.781
  0
LINE
  8
0
 10
-110.516
 20
640.781
 11
-109.708
 21
642.053
  0
LINE
  8
0
 10
-109.708
 20
642.053
 11
-108.748
 21
643.215
  0
LINE
  8
0
 10
-108.748
 20
643.215
 11
-107.649
 21
644.246
  0
LINE
  8
0
 10
-107.649
 20
644.246
 11
-106.43
 21
645.132
  0
LINE
  8
0
 10
-106.43
 20
645.132
 11
-105.109
 21
645.858
  0
LINE
  8
0
 10
-105.109
 20
645.858
 11
-103.708
 21
646.413
  0
LINE
  8
0
 10
-103.708
 20
646.413
 11
-102.249
 21
646.787
  0
LINE
  8
0
 10
-102.249
 20
646.787
 11
-100.753
 21
646.976
  0
LINE
  8
0
 10
-100.753
 20
646.976
 11
-99.2465
 21
646.976
  0
LINE
  8
0
 10
-99.2465
 20
646.976
 11
-97.7514
 21
646.787
  0
LINE
  8
0
 10
-97.7514
 20
646.787
 11
-96.2918
 21
646.413
  0
LINE
  8
0
 10
-96.2918
 20
646.413
 11
-94.8906
 21
645.858
  0
LINE
  8
0
 10
-94.8906
 20
645.858
 11
-93.5701
 21
645.132
  0
LINE
  8
0
 10
-93.5701
 20
645.132
 11
-92.3509
 21
644.246
  0
LINE
  8
0
 10
-92.3509
 20
644.246
 11
-91.2524
 21
643.215
  0
LINE
  8
0
 10
-91.2524
 20
643.215
 11
-90.2918
 21
642.053
  0
LINE
  8
0
 10
-90.2918
 20
642.053
 11
-89.4843
 21
640.781
  0
LINE
  8
0
 10
-89.4843
 20
640.781
 11
-88.8427
 21
639.417
  0
LINE
  8
0
 10
-88.8427
 20
639.417
 11
-88.377
 21
637.984
  0
LINE
  8
0
 10
-88.377
 20
637.984
 11
-88.0946
 21
636.504
  0
LINE
  8
0
 10
-88.0946
 20
636.504
 11
-88
 21
635
  0
LINE
  8
0
 10
-88
 20
635
 11
-88.0946
 21
633.496
  0
LINE
  8
0
 10
-88.0946
 20
633.496
 11
-88.377
 21
632.016
  0
LINE
  8
0
 10
-88.377
 20
632.016
 11
-88.8427
 21
630.583
  0
LINE
  8
0
 10
-88.8427
 20
630.583
 11
-89.4843
 21
629.219
  0
LINE
  8
0
 10
-89.4843
 20
629.219
 11
-90.2918
 21
627.947
  0
LINE
  8
0
 10
-90.2918
 20
627.947
 11
-91.2524
 21
626.785
  0
LINE
  8
0
 10
-91.2524
 20
626.785
 11
-92.3509
 21
625.754
  0
LINE
  8
0
 10
-92.3509
 20
625.754
 11
-93.5701
 21
624.868
  0
LINE
  8
0
 10
-93.5701
 20
624.868
 11
-94.8906
 21
624.142
  0
LINE
  8
0
 10
-94.8906
 20
624.142
 11
-96.2918
 21
623.587
  0
LINE
  8
0
 10
-96.2918
 20
623.587
 11
-97.7514
 21
623.213
  0
LINE
  8
0
 10
-97.7514
 20
623.213
 11
-99.2465
 21
623.024
  0
LINE
  8
0
 10
-99.2465
 20
623.024
 11
-100.753
 21
623.024
  0
LINE
  8
0
 10
-70.2512
 20
626.008
 11
-70.7495
 21
626.071
  0
LINE
  8
0
 10
-70.7495
 20
626.071
 11
-71.2361
 21
626.196
  0
LINE
  8
0
 10
-71.2361
 20
626.196
 11
-71.7031
 21
626.381
  0
LINE
  8
0
 10
-71.7031
 20
626.381
 11
-72.1433
 21
626.623
  0
LINE
  8
0
 10
-72.1433
 20
626.623
 11
-72.5497
 21
626.918
  0
LINE
  8
0
 10
-72.5497
 20
626.918
 11
-72.9159
 21
627.262
  0
LINE
  8
0
 10
-72.9159
 20
627.262
 11
-73.2361
 21
627.649
  0
LINE
  8
0
 10
-73.2361
 20
627.649
 11
-73.5052
 21
628.073
  0
LINE
  8
0
 10
-73.5052
 20
628.073
 11
-73.7191
 21
628.528
  0
LINE
  8
0
 10
-73.7191
 20
628.528
 11
-73.8743
 21
629.005
  0
LINE
  8
0
 10
-73.8743
 20
629.005
 11
-73.9685
 21
629.499
  0
LINE
  8
0
 10
-73.9685
 20
629.499
 11
-74
 21
630
  0
LINE
  8
0
 10
-74
 20
630
 11
-73.9685
 21
630.501
  0
LINE
  8
0
 10
-73.9685
 20
630.501
 11
-73.8743
 21
630.995
  0
LINE
  8
0
 10
-73.8743
 20
630.995
 11
-73.7191
 21
631.472
  0
LINE
  8
0
 10
-73.7191
 20
631.472
 11
-73.5052
 21
631.927
  0
LINE
  8
0
 10
-73.5052
 20
631.927
 11
-73.2361
 21
632.351
  0
LINE
  8
0
 10
-73.2361
 20
632.351
 11
-72.9159
 21
632.738
  0
LINE
  8
0
 10
-72.9159
 20
632.738
 11
-72.5497
 21
633.082
  0
LINE
  8
0
 10
-72.5497
 20
633.082
 11
-72.1433
 21
633.377
  0
LINE
  8
0
 10
-72.1433
 20
633.377
 11
-71.7031
 21
633.619
  0
LINE
  8
0
 10
-71.7031
 20
633.619
 11
-71.2361
 21
633.804
  0
LINE
  8
0
 10
-71.2361
 20
633.804
 11
-70.7495
 21
633.929
  0
LINE
  8
0
 10
-70.7495
 20
633.929
 11
-70.2512
 21
633.992
  0
LINE
  8
0
 10
-70.2512
 20
633.992
 11
-69.7488
 21
633.992
  0
LINE
  8
0
 10
-69.7488
 20
633.992
 11
-69.2505
 21
633.929
  0
LINE
  8
0
 10
-69.2505
 20
633.929
 11
-68.7639
 21
633.804
  0
LINE
  8
0
 10
-68.7639
 20
633.804
 11
-68.2969
 21
633.619
  0
LINE
  8
0
 10
-68.2969
 20
633.619
 11
-67.8567
 21
633.377
  0
LINE
  8
0
 10
-67.8567
 20
633.377
 11
-67.4503
 21
633.082
  0
LINE
  8
0
 10
-67.4503
 20
633.082
 11
-67.0841
 21
632.738
  0
LINE
  8
0
 10
-67.0841
 20
632.738
 11
-66.7639
 21
632.351
  0
LINE
  8
0
 10
-66.7639
 20
632.351
 11
-66.4948
 21
631.927
  0
LINE
  8
0
 10
-66.4948
 20
631.927
 11
-66.2809
 21
631.472
  0
LINE
  8
0
 10
-66.2809
 20
631.472
 11
-66.1257
 21
630.995
  0
LINE
  8
0
 10
-66.1257
 20
630.995
 11
-66.0315
 21
630.501
  0
LINE
  8
0
 10
-66.0315
 20
630.501
 11
-66
 21
630
  0
LINE
  8
0
 10
-66
 20
630
 11
-66.0315
 21
629.499
  0
LINE
  8
0
 10
-66.0315
 20
629.499
 11
-66.1257
 21
629.005
  0
LINE
  8
0
 10
-66.1257
 20
629.005
 11
-66.2809
 21
628.528
  0
LINE
  8
0
 10
-66.2809
 20
628.528
 11
-66.4948
 21
628.073
  0
LINE
  8
0
 10
-66.4948
 20
628.073
 11
-66.7639
 21
627.649
  0
LINE
  8
0
 10
-66.7639
 20
627.649
 11
-67.0841
 21
627.262
  0
LINE
  8
0
 10
-67.0841
 20
627.262
 11
-67.4503
 21
626.918
  0
LINE
  8
0
 10
-67.4503
 20
626.918
 11
-67.8567
 21
626.623
  0
LINE
  8
0
 10
-67.8567
 20
626.623
 11
-68.2969
 21
626.381
  0
LINE
  8
0
 10
-68.2969
 20
626.381
 11
-68.7639
 21
626.196
  0
LINE
  8
0
 10
-68.7639
 20
626.196
 11
-69.2505
 21
626.071
  0
LINE
  8
0
 10
-69.2505
 20
626.071
 11
-69.7488
 21
626.008
  0
LINE
  8
0
 10
-69.7488
 20
626.008
 11
-70.2512
 21
626.008
  0
LINE
  8
0
 10
-130.251
 20
626.008
 11
-130.75
 21
626.071
  0
LINE
  8
0
 10
-130.75
 20
626.071
 11
-131.236
 21
626.196
  0
LINE
  8
0
 10
-131.236
 20
626.196
 11
-131.703
 21
626.381
  0
LINE
  8
0
 10
-131.703
 20
626.381
 11
-132.143
 21
626.623
  0
LINE
  8
0
 10
-132.143
 20
626.623
 11
-132.55
 21
626.918
  0
LINE
  8
0
 10
-132.55
 20
626.918
 11
-132.916
 21
627.262
  0
LINE
  8
0
 10
-132.916
 20
627.262
 11
-133.236
 21
627.649
  0
LINE
  8
0
 10
-133.236
 20
627.649
 11
-133.505
 21
628.073
  0
LINE
  8
0
 10
-133.505
 20
628.073
 11
-133.719
 21
628.528
  0
LINE
  8
0
 10
-133.719
 20
628.528
 11
-133.874
 21
629.005
  0
LINE
  8
0
 10
-133.874
 20
629.005
 11
-133.968
 21
629.499
  0
LINE
  8
0
 10
-133.968
 20
629.499
 11
-134
 21
630
  0
LINE
  8
0
 10
-134
 20
630
 11
-133.968
 21
630.501
  0
LINE
  8
0
 10
-133.968
 20
630.501
 11
-133.874
 21
630.995
  0
LINE
  8
0
 10
-133.874
 20
630.995
 11
-133.719
 21
631.472
  0
LINE
  8
0
 10
-133.719
 20
631.472
 11
-133.505
 21
631.927
  0
LINE
  8
0
 10
-133.505
 20
631.927
 11
-133.236
 21
632.351
  0
LINE
  8
0
 10
-133.236
 20
632.351
 11
-132.916
 21
632.738
  0
LINE
  8
0
 10
-132.916
 20
632.738
 11
-132.55
 21
633.082
  0
LINE
  8
0
 10
-132.55
 20
633.082
 11
-132.143
 21
633.377
  0
LINE
  8
0
 10
-132.143
 20
633.377
 11
-131.703
 21
633.619
  0
LINE
  8
0
 10
-131.703
 20
633.619
 11
-131.236
 21
633.804
  0
LINE
  8
0
 10
-131.236
 20
633.804
 11
-130.75
 21
633.929
  0
LINE
  8
0
 10
-130.75
 20
633.929
 11
-130.251
 21
633.992
  0
LINE
  8
0
 10
-130.251
 20
633.992
 11
-129.749
 21
633.992
  0
LINE
  8
0
 10
-129.749
 20
633.992
 11
-129.25
 21
633.929
  0
LINE
  8
0
 10
-129.25
 20
633.929
 11
-128.764
 21
633.804
  0
LINE
  8
0
 10
-128.764
 20
633.804
 11
-128.297
 21
633.619
  0
LINE
  8
0
 10
-128.297
 20
633.619
 11
-127.857
 21
633.377
  0
LINE
  8
0
 10
-127.857
 20
633.377
 11
-127.45
 21
633.082
  0
LINE
  8
0
 10
-127.45
 20
633.082
 11
-127.084
 21
632.738
  0
LINE
  8
0
 10
-127.084
 20
632.738
 11
-126.764
 21
632.351
  0
LINE
  8
0
 10
-126.764
 20
632.351
 11
-126.495
 21
631.927
  0
LINE
  8
0
 10
-126.495
 20
631.927
 11
-126.281
 21
631.472
  0
LINE
  8
0
 10
-126.281
 20
631.472
 11
-126.126
 21
630.995
  0
LINE
  8
0
 10
-126.126
 20
630.995
 11
-126.032
 21
630.501
  0
LINE
  8
0
 10
-126.032
 20
630.501
 11
-126
 21
630
  0
LINE
  8
0
 10
-126
 20
630
 11
-126.032
 21
629.499
  0
LINE
  8
0
 10
-126.032
 20
629.499
 11
-126.126
 21
629.005
  0
LINE
  8
0
 10
-126.126
 20
629.005
 11
-126.281
 21
628.528
  0
LINE
  8
0
 10
-126.281
 20
628.528
 11
-126.495
 21
628.073
  0
LINE
  8
0
 10
-126.495
 20
628.073
 11
-126.764
 21
627.649
  0
LINE
  8
0
 10
-126.764
 20
627.649
 11
-127.084
 21
627.262
  0
LINE
  8
0
 10
-127.084
 20
627.262
 11
-127.45
 21
626.918
  0
LINE
  8
0
 10
-127.45
 20
626.918
 11
-127.857
 21
626.623
  0
LINE
  8
0
 10
-127.857
 20
626.623
 11
-128.297
 21
626.381
  0
LINE
  8
0
 10
-128.297
 20
626.381
 11
-128.764
 21
626.196
  0
LINE
  8
0
 10
-128.764
 20
626.196
 11
-129.25
 21
626.071
  0
LINE
  8
0
 10
-129.25
 20
626.071
 11
-129.749
 21
626.008
  0
LINE
  8
0
 10
-129.749
 20
626.008
 11
-130.251
 21
626.008
  0
LINE
  8
0
 10
-84.5942
 20
618.003
 11
-84.7811
 21
618.027
  0
LINE
  8
0
 10
-84.7811
 20
618.027
 11
-84.9635
 21
618.073
  0
LINE
  8
0
 10
-84.9635
 20
618.073
 11
-85.1387
 21
618.143
  0
LINE
  8
0
 10
-85.1387
 20
618.143
 11
-85.3037
 21
618.234
  0
LINE
  8
0
 10
-85.3037
 20
618.234
 11
-85.4561
 21
618.344
  0
LINE
  8
0
 10
-85.4561
 20
618.344
 11
-85.5934
 21
618.473
  0
LINE
  8
0
 10
-85.5934
 20
618.473
 11
-85.7135
 21
618.618
  0
LINE
  8
0
 10
-85.7135
 20
618.618
 11
-85.8145
 21
618.777
  0
LINE
  8
0
 10
-85.8145
 20
618.777
 11
-85.8947
 21
618.948
  0
LINE
  8
0
 10
-85.8947
 20
618.948
 11
-85.9529
 21
619.127
  0
LINE
  8
0
 10
-85.9529
 20
619.127
 11
-85.9882
 21
619.312
  0
LINE
  8
0
 10
-85.9882
 20
619.312
 11
-86
 21
619.5
  0
LINE
  8
0
 10
-86
 20
619.5
 11
-85.9882
 21
619.688
  0
LINE
  8
0
 10
-85.9882
 20
619.688
 11
-85.9529
 21
619.873
  0
LINE
  8
0
 10
-85.9529
 20
619.873
 11
-85.8947
 21
620.052
  0
LINE
  8
0
 10
-85.8947
 20
620.052
 11
-85.8145
 21
620.223
  0
LINE
  8
0
 10
-85.8145
 20
620.223
 11
-85.7135
 21
620.382
  0
LINE
  8
0
 10
-85.7135
 20
620.382
 11
-85.5934
 21
620.527
  0
LINE
  8
0
 10
-85.5934
 20
620.527
 11
-85.4561
 21
620.656
  0
LINE
  8
0
 10
-85.4561
 20
620.656
 11
-85.3037
 21
620.766
  0
LINE
  8
0
 10
-85.3037
 20
620.766
 11
-85.1387
 21
620.857
  0
LINE
  8
0
 10
-85.1387
 20
620.857
 11
-84.9635
 21
620.927
  0
LINE
  8
0
 10
-84.9635
 20
620.927
 11
-84.7811
 21
620.973
  0
LINE
  8
0
 10
-84.7811
 20
620.973
 11
-84.5942
 21
620.997
  0
LINE
  8
0
 10
-84.5942
 20
620.997
 11
-84.4058
 21
620.997
  0
LINE
  8
0
 10
-84.4058
 20
620.997
 11
-84.2189
 21
620.973
  0
LINE
  8
0
 10
-84.2189
 20
620.973
 11
-84.0365
 21
620.927
  0
LINE
  8
0
 10
-84.0365
 20
620.927
 11
-83.8613
 21
620.857
  0
LINE
  8
0
 10
-83.8613
 20
620.857
 11
-83.6963
 21
620.766
  0
LINE
  8
0
 10
-83.6963
 20
620.766
 11
-83.5439
 21
620.656
  0
LINE
  8
0
 10
-83.5439
 20
620.656
 11
-83.4065
 21
620.527
  0
LINE
  8
0
 10
-83.4065
 20
620.527
 11
-83.2865
 21
620.382
  0
LINE
  8
0
 10
-83.2865
 20
620.382
 11
-83.1855
 21
620.223
  0
LINE
  8
0
 10
-83.1855
 20
620.223
 11
-83.1053
 21
620.052
  0
LINE
  8
0
 10
-83.1053
 20
620.052
 11
-83.0471
 21
619.873
  0
LINE
  8
0
 10
-83.0471
 20
619.873
 11
-83.0118
 21
619.688
  0
LINE
  8
0
 10
-83.0118
 20
619.688
 11
-83
 21
619.5
  0
LINE
  8
0
 10
-83
 20
619.5
 11
-83.0118
 21
619.312
  0
LINE
  8
0
 10
-83.0118
 20
619.312
 11
-83.0471
 21
619.127
  0
LINE
  8
0
 10
-83.0471
 20
619.127
 11
-83.1053
 21
618.948
  0
LINE
  8
0
 10
-83.1053
 20
618.948
 11
-83.1855
 21
618.777
  0
LINE
  8
0
 10
-83.1855
 20
618.777
 11
-83.2865
 21
618.618
  0
LINE
  8
0
 10
-83.2865
 20
618.618
 11
-83.4065
 21
618.473
  0
LINE
  8
0
 10
-83.4065
 20
618.473
 11
-83.5439
 21
618.344
  0
LINE
  8
0
 10
-83.5439
 20
618.344
 11
-83.6963
 21
618.234
  0
LINE
  8
0
 10
-83.6963
 20
618.234
 11
-83.8613
 21
618.143
  0
LINE
  8
0
 10
-83.8613
 20
618.143
 11
-84.0365
 21
618.073
  0
LINE
  8
0
 10
-84.0365
 20
618.073
 11
-84.2189
 21
618.027
  0
LINE
  8
0
 10
-84.2189
 20
618.027
 11
-84.4058
 21
618.003
  0
LINE
  8
0
 10
-84.4058
 20
618.003
 11
-84.5942
 21
618.003
  0
LINE
  8
0
 10
-115.594
 20
618.003
 11
-115.781
 21
618.027
  0
LINE
  8
0
 10
-115.781
 20
618.027
 11
-115.964
 21
618.073
  0
LINE
  8
0
 10
-115.964
 20
618.073
 11
-116.139
 21
618.143
  0
LINE
  8
0
 10
-116.139
 20
618.143
 11
-116.304
 21
618.234
  0
LINE
  8
0
 10
-116.304
 20
618.234
 11
-116.456
 21
618.344
  0
LINE
  8
0
 10
-116.456
 20
618.344
 11
-116.593
 21
618.473
  0
LINE
  8
0
 10
-116.593
 20
618.473
 11
-116.714
 21
618.618
  0
LINE
  8
0
 10
-116.714
 20
618.618
 11
-116.814
 21
618.777
  0
LINE
  8
0
 10
-116.814
 20
618.777
 11
-116.895
 21
618.948
  0
LINE
  8
0
 10
-116.895
 20
618.948
 11
-116.953
 21
619.127
  0
LINE
  8
0
 10
-116.953
 20
619.127
 11
-116.988
 21
619.312
  0
LINE
  8
0
 10
-116.988
 20
619.312
 11
-117
 21
619.5
  0
LINE
  8
0
 10
-117
 20
619.5
 11
-116.988
 21
619.688
  0
LINE
  8
0
 10
-116.988
 20
619.688
 11
-116.953
 21
619.873
  0
LINE
  8
0
 10
-116.953
 20
619.873
 11
-116.895
 21
620.052
  0
LINE
  8
0
 10
-116.895
 20
620.052
 11
-116.814
 21
620.223
  0
LINE
  8
0
 10
-116.814
 20
620.223
 11
-116.714
 21
620.382
  0
LINE
  8
0
 10
-116.714
 20
620.382
 11
-116.593
 21
620.527
  0
LINE
  8
0
 10
-116.593
 20
620.527
 11
-116.456
 21
620.656
  0
LINE
  8
0
 10
-116.456
 20
620.656
 11
-116.304
 21
620.766
  0
LINE
  8
0
 10
-116.304
 20
620.766
 11
-116.139
 21
620.857
  0
LINE
  8
0
 10
-116.139
 20
620.857
 11
-115.964
 21
620.927
  0
LINE
  8
0
 10
-115.964
 20
620.927
 11
-115.781
 21
620.973
  0
LINE
  8
0
 10
-115.781
 20
620.973
 11
-115.594
 21
620.997
  0
LINE
  8
0
 10
-115.594
 20
620.997
 11
-115.406
 21
620.997
  0
LINE
  8
0
 10
-115.406
 20
620.997
 11
-115.219
 21
620.973
  0
LINE
  8
0
 10
-115.219
 20
620.973
 11
-115.036
 21
620.927
  0
LINE
  8
0
 10
-115.036
 20
620.927
 11
-114.861
 21
620.857
  0
LINE
  8
0
 10
-114.861
 20
620.857
 11
-114.696
 21
620.766
  0
LINE
  8
0
 10
-114.696
 20
620.766
 11
-114.544
 21
620.656
  0
LINE
  8
0
 10
-114.544
 20
620.656
 11
-114.407
 21
620.527
  0
LINE
  8
0
 10
-114.407
 20
620.527
 11
-114.286
 21
620.382
  0
LINE
  8
0
 10
-114.286
 20
620.382
 11
-114.186
 21
620.223
  0
LINE
  8
0
 10
-114.186
 20
620.223
 11
-114.105
 21
620.052
  0
LINE
  8
0
 10
-114.105
 20
620.052
 11
-114.047
 21
619.873
  0
LINE
  8
0
 10
-114.047
 20
619.873
 11
-114.012
 21
619.688
  0
LINE
  8
0
 10
-114.012
 20
619.688
 11
-114
 21
619.5
  0
LINE
  8
0
 10
-114
 20
619.5
 11
-114.012
 21
619.312
  0
LINE
  8
0
 10
-114.012
 20
619.312
 11
-114.047
 21
619.127
  0
LINE
  8
0
 10
-114.047
 20
619.127
 11
-114.105
 21
618.948
  0
LINE
  8
0
 10
-114.105
 20
618.948
 11
-114.186
 21
618.777
  0
LINE
  8
0
 10
-114.186
 20
618.777
 11
-114.286
 21
618.618
  0
LINE
  8
0
 10
-114.286
 20
618.618
 11
-114.407
 21
618.473
  0
LINE
  8
0
 10
-114.407
 20
618.473
 11
-114.544
 21
618.344
  0
LINE
  8
0
 10
-114.544
 20
618.344
 11
-114.696
 21
618.234
  0
LINE
  8
0
 10
-114.696
 20
618.234
 11
-114.861
 21
618.143
  0
LINE
  8
0
 10
-114.861
 20
618.143
 11
-115.036
 21
618.073
  0
LINE
  8
0
 10
-115.036
 20
618.073
 11
-115.219
 21
618.027
  0
LINE
  8
0
 10
-115.219
 20
618.027
 11
-115.406
 21
618.003
  0
LINE
  8
0
 10
-115.406
 20
618.003
 11
-115.594
 21
618.003
  0
LINE
  8
0
 10
500
 20
550
 11
0
 21
550
  0
LINE
  8
0
 10
0
 20
550
 11
0
 21
50
  0
LINE
  8
0
 10
0
 20
50
 11
500
 21
50
  0
LINE
  8
0
 10
500
 20
50
 11
500
 21
550
  0
LINE
  8
0
 10
150
 20
300
 11
150
 21
450
  0
LINE
  8
0
 10
150
 20
450
 11
350
 21
450
  0
LINE
  8
0
 10
350
 20
450
 11
350
 21
300
  0
LINE
  8
0
 10
350
 20
300
 11
150
 21
300
  0
LINE
  8
0
 10
234.406
 20
99.003
 11
234.219
 21
99.0266
  0
LINE
  8
0
 10
234.219
 20
99.0266
 11
234.036
 21
99.0734
  0
LINE
  8
0
 10
234.036
 20
99.0734
 11
233.861
 21
99.1428
  0
LINE
  8
0
 10
233.861
 20
99.1428
 11
233.696
 21
99.2335
  0
LINE
  8
0
 10
233.696
 20
99.2335
 11
233.544
 21
99.3442
  0
LINE
  8
0
 10
233.544
 20
99.3442
 11
233.407
 21
99.4732
  0
LINE
  8
0
 10
233.407
 20
99.4732
 11
233.286
 21
99.6183
  0
LINE
  8
0
 10
233.286
 20
99.6183
 11
233.186
 21
99.7774
  0
LINE
  8
0
 10
233.186
 20
99.7774
 11
233.105
 21
99.9478
  0
LINE
  8
0
 10
233.105
 20
99.9478
 11
233.047
 21
100.127
  0
LINE
  8
0
 10
233.047
 20
100.127
 11
233.012
 21
100.312
  0
LINE
  8
0
 10
233.012
 20
100.312
 11
233
 21
100.5
  0
LINE
  8
0
 10
233
 20
100.5
 11
233.012
 21
100.688
  0
LINE
  8
0
 10
233.012
 20
100.688
 11
233.047
 21
100.873
  0
LINE
  8
0
 10
233.047
 20
100.873
 11
233.105
 21
101.052
  0
LINE
  8
0
 10
233.105
 20
101.052
 11
233.186
 21
101.223
  0
LINE
  8
0
 10
233.186
 20
101.223
 11
233.286
 21
101.382
  0
LINE
  8
0
 10
233.286
 20
101.382
 11
233.407
 21
101.527
  0
LINE
  8
0
 10
233.407
 20
101.527
 11
233.544
 21
101.656
  0
LINE
  8
0
 10
233.544
 20
101.656
 11
233.696
 21
101.766
  0
LINE
  8
0
 10
233.696
 20
101.766
 11
233.861
 21
101.857
  0
LINE
  8
0
 10
233.861
 20
101.857
 11
234.036
 21
101.927
  0
LINE
  8
0
 10
234.036
 20
101.927
 11
234.219
 21
101.973
  0
LINE
  8
0
 10
234.219
 20
101.973
 11
234.406
 21
101.997
  0
LINE
  8
0
 10
234.406
 20
101.997
 11
234.594
 21
101.997
  0
LINE
  8
0
 10
234.594
 20
101.997
 11
234.781
 21
101.973
  0
LINE
  8
0
 10
234.781
 20
101.973
 11
234.964
 21
101.927
  0
LINE
  8
0
 10
234.964
 20
101.927
 11
235.139
 21
101.857
  0
LINE
  8
0
 10
235.139
 20
101.857
 11
235.304
 21
101.766
  0
LINE
  8
0
 10
235.304
 20
101.766
 11
235.456
 21
101.656
  0
LINE
  8
0
 10
235.456
 20
101.656
 11
235.593
 21
101.527
  0
LINE
  8
0
 10
235.593
 20
101.527
 11
235.714
 21
101.382
  0
LINE
  8
0
 10
235.714
 20
101.382
 11
235.814
 21
101.223
  0
LINE
  8
0
 10
235.814
 20
101.223
 11
235.895
 21
101.052
  0
LINE
  8
0
 10
235.895
 20
101.052
 11
235.953
 21
100.873
  0
LINE
  8
0
 10
235.953
 20
100.873
 11
235.988
 21
100.688
  0
LINE
  8
0
 10
235.988
 20
100.688
 11
236
 21
100.5
  0
LINE
  8
0
 10
236
 20
100.5
 11
235.988
 21
100.312
  0
LINE
  8
0
 10
235.988
 20
100.312
 11
235.953
 21
100.127
  0
LINE
  8
0
 10
235.953
 20
100.127
 11
235.895
 21
99.9478
  0
LINE
  8
0
 10
235.895
 20
99.9478
 11
235.814
 21
99.7774
  0
LINE
  8
0
 10
235.814
 20
99.7774
 11
235.714
 21
99.6183
  0
LINE
  8
0
 10
235.714
 20
99.6183
 11
235.593
 21
99.4732
  0
LINE
  8
0
 10
235.593
 20
99.4732
 11
235.456
 21
99.3442
  0
LINE
  8
0
 10
235.456
 20
99.3442
 11
235.304
 21
99.2335
  0
LINE
  8
0
 10
235.304
 20
99.2335
 11
235.139
 21
99.1428
  0
LINE
  8
0
 10
235.139
 20
99.1428
 11
234.964
 21
99.0734
  0
LINE
  8
0
 10
234.964
 20
99.0734
 11
234.781
 21
99.0266
  0
LINE
  8
0
 10
234.781
 20
99.0266
 11
234.594
 21
99.003
  0
LINE
  8
0
 10
234.594
 20
99.003
 11
234.406
 21
99.003
  0
LINE
  8
0
 10
265.406
 20
99.003
 11
265.219
 21
99.0266
  0
LINE
  8
0
 10
265.219
 20
99.0266
 11
265.036
 21
99.0734
  0
LINE
  8
0
 10
265.036
 20
99.0734
 11
264.861
 21
99.1428
  0
LINE
  8
0
 10
264.861
 20
99.1428
 11
264.696
 21
99.2335
  0
LINE
  8
0
 10
264.696
 20
99.2335
 11
264.544
 21
99.3442
  0
LINE
  8
0
 10
264.544
 20
99.3442
 11
264.407
 21
99.4732
  0
LINE
  8
0
 10
264.407
 20
99.4732
 11
264.286
 21
99.6183
  0
LINE
  8
0
 10
264.286
 20
99.6183
 11
264.186
 21
99.7774
  0
LINE
  8
0
 10
264.186
 20
99.7774
 11
264.105
 21
99.9478
  0
LINE
  8
0
 10
264.105
 20
99.9478
 11
264.047
 21
100.127
  0
LINE
  8
0
 10
264.047
 20
100.127
 11
264.012
 21
100.312
  0
LINE
  8
0
 10
264.012
 20
100.312
 11
264
 21
100.5
  0
LINE
  8
0
 10
264
 20
100.5
 11
264.012
 21
100.688
  0
LINE
  8
0
 10
264.012
 20
100.688
 11
264.047
 21
100.873
  0
LINE
  8
0
 10
264.047
 20
100.873
 11
264.105
 21
101.052
  0
LINE
  8
0
 10
264.105
 20
101.052
 11
264.186
 21
101.223
  0
LINE
  8
0
 10
264.186
 20
101.223
 11
264.286
 21
101.382
  0
LINE
  8
0
 10
264.286
 20
101.382
 11
264.407
 21
101.527
  0
LINE
  8
0
 10
264.407
 20
101.527
 11
264.544
 21
101.656
  0
LINE
  8
0
 10
264.544
 20
101.656
 11
264.696
 21
101.766
  0
LINE
  8
0
 10
264.696
 20
101.766
 11
264.861
 21
101.857
  0
LINE
  8
0
 10
264.861
 20
101.857
 11
265.036
 21
101.927
  0
LINE
  8
0
 10
265.036
 20
101.927
 11
265.219
 21
101.973
  0
LINE
  8
0
 10
265.219
 20
101.973
 11
265.406
 21
101.997
  0
LINE
  8
0
 10
265.406
 20
101.997
 11
265.594
 21
101.997
  0
LINE
  8
0
 10
265.594
 20
101.997
 11
265.781
 21
101.973
  0
LINE
  8
0
 10
265.781
 20
101.973
 11
265.964
 21
101.927
  0
LINE
  8
0
 10
265.964
 20
101.927
 11
266.139
 21
101.857
  0
LINE
  8
0
 10
266.139
 20
101.857
 11
266.304
 21
101.766
  0
LINE
  8
0
 10
266.304
 20
101.766
 11
266.456
 21
101.656
  0
LINE
  8
0
 10
266.456
 20
101.656
 11
266.593
 21
101.527
  0
LINE
  8
0
 10
266.593
 20
101.527
 11
266.714
 21
101.382
  0
LINE
  8
0
 10
266.714
 20
101.382
 11
266.814
 21
101.223
  0
LINE
  8
0
 10
266.814
 20
101.223
 11
266.895
 21
101.052
  0
LINE
  8
0
 10
266.895
 20
101.052
 11
266.953
 21
100.873
  0
LINE
  8
0
 10
266.953
 20
100.873
 11
266.988
 21
100.688
  0
LINE
  8
0
 10
266.988
 20
100.688
 11
267
 21
100.5
  0
LINE
  8
0
 10
267
 20
100.5
 11
266.988
 21
100.312
  0
LINE
  8
0
 10
266.988
 20
100.312
 11
266.953
 21
100.127
  0
LINE
  8
0
 10
266.953
 20
100.127
 11
266.895
 21
99.9478
  0
LINE
  8
0
 10
266.895
 20
99.9478
 11
266.814
 21
99.7774
  0
LINE
  8
0
 10
266.814
 20
99.7774
 11
266.714
 21
99.6183
  0
LINE
  8
0
 10
266.714
 20
99.6183
 11
266.593
 21
99.4732
  0
LINE
  8
0
 10
266.593
 20
99.4732
 11
266.456
 21
99.3442
  0
LINE
  8
0
 10
266.456
 20
99.3442
 11
266.304
 21
99.2335
  0
LINE
  8
0
 10
266.304
 20
99.2335
 11
266.139
 21
99.1428
  0
LINE
  8
0
 10
266.139
 20
99.1428
 11
265.964
 21
99.0734
  0
LINE
  8
0
 10
265.964
 20
99.0734
 11
265.781
 21
99.0266
  0
LINE
  8
0
 10
265.781
 20
99.0266
 11
265.594
 21
99.003
  0
LINE
  8
0
 10
265.594
 20
99.003
 11
265.406
 21
99.003
  0
LINE
  8
0
 10
249.247
 20
73.0237
 11
247.751
 21
73.2126
  0
LINE
  8
0
 10
247.751
 20
73.2126
 11
246.292
 21
73.5873
  0
LINE
  8
0
 10
246.292
 20
73.5873
 11
244.891
 21
74.1421
  0
LINE
  8
0
 10
244.891
 20
74.1421
 11
243.57
 21
74.8681
  0
LINE
  8
0
 10
243.57
 20
74.8681
 11
242.351
 21
75.7538
  0
LINE
  8
0
 10
242.351
 20
75.7538
 11
241.252
 21
76.7854
  0
LINE
  8
0
 10
241.252
 20
76.7854
 11
240.292
 21
77.9466
  0
LINE
  8
0
 10
240.292
 20
77.9466
 11
239.484
 21
79.2189
  0
LINE
  8
0
 10
239.484
 20
79.2189
 11
238.843
 21
80.5825
  0
LINE
  8
0
 10
238.843
 20
80.5825
 11
238.377
 21
82.0157
  0
LINE
  8
0
 10
238.377
 20
82.0157
 11
238.095
 21
83.496
  0
LINE
  8
0
 10
238.095
 20
83.496
 11
238
 21
85
  0
LINE
  8
0
 10
238
 20
85
 11
238.095
 21
86.504
  0
LINE
  8
0
 10
238.095
 20
86.504
 11
238.377
 21
87.9843
  0
LINE
  8
0
 10
238.377
 20
87.9843
 11
238.843
 21
89.4175
  0
LINE
  8
0
 10
238.843
 20
89.4175
 11
239.484
 21
90.781
  0
LINE
  8
0
 10
239.484
 20
90.781
 11
240.292
 21
92.0534
  0
LINE
  8
0
 10
240.292
 20
92.0534
 11
241.252
 21
93.2146
  0
LINE
  8
0
 10
241.252
 20
93.2146
 11
242.351
 21
94.2462
  0
LINE
  8
0
 10
242.351
 20
94.2462
 11
243.57
 21
95.1319
  0
LINE
  8
0
 10
243.57
 20
95.1319
 11
244.891
 21
95.8579
  0
LINE
  8
0
 10
244.891
 20
95.8579
 11
246.292
 21
96.4127
  0
LINE
  8
0
 10
246.292
 20
96.4127
 11
247.751
 21
96.7874
  0
LINE
  8
0
 10
247.751
 20
96.7874
 11
249.247
 21
96.9763
  0
LINE
  8
0
 10
249.247
 20
96.9763
 11
250.753
 21
96.9763
  0
LINE
  8
0
 10
250.753
 20
96.9763
 11
252.249
 21
96.7874
  0
LINE
  8
0
 10
252.249
 20
96.7874
 11
253.708
 21
96.4127
  0
LINE
  8
0
 10
253.708
 20
96.4127
 11
255.109
 21
95.8579
  0
LINE
  8
0
 10
255.109
 20
95.8579
 11
256.43
 21
95.1319
  0
LINE
  8
0
 10
256.43
 20
95.1319
 11
257.649
 21
94.2462
  0
LINE
  8
0
 10
257.649
 20
94.2462
 11
258.748
 21
93.2146
  0
LINE
  8
0
 10
258.748
 20
93.2146
 11
259.708
 21
92.0534
  0
LINE
  8
0
 10
259.708
 20
92.0534
 11
260.516
 21
90.781
  0
LINE
  8
0
 10
260.516
 20
90.781
 11
261.157
 21
89.4175
  0
LINE
  8
0
 10
261.157
 20
89.4175
 11
261.623
 21
87.9843
  0
LINE
  8
0
 10
261.623
 20
87.9843
 11
261.905
 21
86.504
  0
LINE
  8
0
 10
261.905
 20
86.504
 11
262
 21
85
  0
LINE
  8
0
 10
262
 20
85
 11
261.905
 21
83.496
  0
LINE
  8
0
 10
261.905
 20
83.496
 11
261.623
 21
82.0157
  0
LINE
  8
0
 10
261.623
 20
82.0157
 11
261.157
 21
80.5825
  0
LINE
  8
0
 10
261.157
 20
80.5825
 11
260.516
 21
79.2189
  0
LINE
  8
0
 10
260.516
 20
79.2189
 11
259.708
 21
77.9466
  0
LINE
  8
0
 10
259.708
 20
77.9466
 11
258.748
 21
76.7854
  0
LINE
  8
0
 10
258.748
 20
76.7854
 11
257.649
 21
75.7538
  0
LINE
  8
0
 10
257.649
 20
75.7538
 11
256.43
 21
74.8681
  0
LINE
  8
0
 10
256.43
 20
74.8681
 11
255.109
 21
74.1421
  0
LINE
  8
0
 10
255.109
 20
74.1421
 11
253.708
 21
73.5873
  0
LINE
  8
0
 10
253.708
 20
73.5873
 11
252.249
 21
73.2126
  0
LINE
  8
0
 10
252.249
 20
73.2126
 11
250.753
 21
73.0237
  0
LINE
  8
0
 10
250.753
 20
73.0237
 11
249.247
 21
73.0237
  0
LINE
  8
0
 10
166.415
 20
86.0079
 11
165.917
 21
86.0708
  0
LINE
  8
0
 10
165.917
 20
86.0708
 11
165.431
 21
86.1958
  0
LINE
  8
0
 10
165.431
 20
86.1958
 11
164.964
 21
86.3807
  0
LINE
  8
0
 10
164.964
 20
86.3807
 11
164.523
 21
86.6227
  0
LINE
  8
0
 10
164.523
 20
86.6227
 11
164.117
 21
86.9179
  0
LINE
  8
0
 10
164.117
 20
86.9179
 11
163.751
 21
87.2618
  0
LINE
  8
0
 10
163.751
 20
87.2618
 11
163.431
 21
87.6488
  0
LINE
  8
0
 10
163.431
 20
87.6488
 11
163.161
 21
88.073
  0
LINE
  8
0
 10
163.161
 20
88.073
 11
162.948
 21
88.5275
  0
LINE
  8
0
 10
162.948
 20
88.5275
 11
162.792
 21
89.0052
  0
LINE
  8
0
 10
162.792
 20
89.0052
 11
162.698
 21
89.4987
  0
LINE
  8
0
 10
162.698
 20
89.4987
 11
162.667
 21
90
  0
LINE
  8
0
 10
162.667
 20
90
 11
162.698
 21
90.5013
  0
LINE
  8
0
 10
162.698
 20
90.5013
 11
162.792
 21
90.9948
  0
LINE
  8
0
 10
162.792
 20
90.9948
 11
162.948
 21
91.4725
  0
LINE
  8
0
 10
162.948
 20
91.4725
 11
163.161
 21
91.927
  0
LINE
  8
0
 10
163.161
 20
91.927
 11
163.431
 21
92.3511
  0
LINE
  8
0
 10
163.431
 20
92.3511
 11
163.751
 21
92.7382
  0
LINE
  8
0
 10
163.751
 20
92.7382
 11
164.117
 21
93.082
  0
LINE
  8
0
 10
164.117
 20
93.082
 11
164.523
 21
93.3773
  0
LINE
  8
0
 10
164.523
 20
93.3773
 11
164.964
 21
93.6193
  0
LINE
  8
0
 10
164.964
 20
93.6193
 11
165.431
 21
93.8042
  0
LINE
  8
0
 10
165.431
 20
93.8042
 11
165.917
 21
93.9291
  0
LINE
  8
0
 10
165.917
 20
93.9291
 11
166.415
 21
93.9921
  0
LINE
  8
0
 10
166.415
 20
93.9921
 11
166.918
 21
93.9921
  0
LINE
  8
0
 10
166.918
 20
93.9921
 11
167.416
 21
93.9291
  0
LINE
  8
0
 10
167.416
 20
93.9291
 11
167.903
 21
93.8042
  0
LINE
  8
0
 10
167.903
 20
93.8042
 11
168.37
 21
93.6193
  0
LINE
  8
0
 10
168.37
 20
93.6193
 11
168.81
 21
93.3773
  0
LINE
  8
0
 10
168.81
 20
93.3773
 11
169.216
 21
93.082
  0
LINE
  8
0
 10
169.216
 20
93.082
 11
169.583
 21
92.7382
  0
LINE
  8
0
 10
169.583
 20
92.7382
 11
169.903
 21
92.3511
  0
LINE
  8
0
 10
169.903
 20
92.3511
 11
170.172
 21
91.927
  0
LINE
  8
0
 10
170.172
 20
91.927
 11
170.386
 21
91.4725
  0
LINE
  8
0
 10
170.386
 20
91.4725
 11
170.541
 21
90.9948
  0
LINE
  8
0
 10
170.541
 20
90.9948
 11
170.635
 21
90.5013
  0
LINE
  8
0
 10
170.635
 20
90.5013
 11
170.667
 21
90
  0
LINE
  8
0
 10
170.667
 20
90
 11
170.635
 21
89.4987
  0
LINE
  8
0
 10
170.635
 20
89.4987
 11
170.541
 21
89.0052
  0
LINE
  8
0
 10
170.541
 20
89.0052
 11
170.386
 21
88.5275
  0
LINE
  8
0
 10
170.386
 20
88.5275
 11
170.172
 21
88.073
  0
LINE
  8
0
 10
170.172
 20
88.073
 11
169.903
 21
87.6488
  0
LINE
  8
0
 10
169.903
 20
87.6488
 11
169.583
 21
87.2618
  0
LINE
  8
0
 10
169.583
 20
87.2618
 11
169.216
 21
86.9179
  0
LINE
  8
0
 10
169.216
 20
86.9179
 11
168.81
 21
86.6227
  0
LINE
  8
0
 10
168.81
 20
86.6227
 11
168.37
 21
86.3807
  0
LINE
  8
0
 10
168.37
 20
86.3807
 11
167.903
 21
86.1958
  0
LINE
  8
0
 10
167.903
 20
86.1958
 11
167.416
 21
86.0708
  0
LINE
  8
0
 10
167.416
 20
86.0708
 11
166.918
 21
86.0079
  0
LINE
  8
0
 10
166.918
 20
86.0079
 11
166.415
 21
86.0079
  0
LINE
  8
0
 10
333.082
 20
86.0079
 11
332.584
 21
86.0708
  0
LINE
  8
0
 10
332.584
 20
86.0708
 11
332.097
 21
86.1958
  0
LINE
  8
0
 10
332.097
 20
86.1958
 11
331.63
 21
86.3807
  0
LINE
  8
0
 10
331.63
 20
86.3807
 11
331.19
 21
86.6227
  0
LINE
  8
0
 10
331.19
 20
86.6227
 11
330.784
 21
86.9179
  0
LINE
  8
0
 10
330.784
 20
86.9179
 11
330.417
 21
87.2618
  0
LINE
  8
0
 10
330.417
 20
87.2618
 11
330.097
 21
87.6488
  0
LINE
  8
0
 10
330.097
 20
87.6488
 11
329.828
 21
88.073
  0
LINE
  8
0
 10
329.828
 20
88.073
 11
329.614
 21
88.5275
  0
LINE
  8
0
 10
329.614
 20
88.5275
 11
329.459
 21
89.0052
  0
LINE
  8
0
 10
329.459
 20
89.0052
 11
329.365
 21
89.4987
  0
LINE
  8
0
 10
329.365
 20
89.4987
 11
329.333
 21
90
  0
LINE
  8
0
 10
329.333
 20
90
 11
329.365
 21
90.5013
  0
LINE
  8
0
 10
329.365
 20
90.5013
 11
329.459
 21
90.9948
  0
LINE
  8
0
 10
329.459
 20
90.9948
 11
329.614
 21
91.4725
  0
LINE
  8
0
 10
329.614
 20
91.4725
 11
329.828
 21
91.927
  0
LINE
  8
0
 10
329.828
 20
91.927
 11
330.097
 21
92.3511
  0
LINE
  8
0
 10
330.097
 20
92.3511
 11
330.417
 21
92.7382
  0
LINE
  8
0
 10
330.417
 20
92.7382
 11
330.784
 21
93.082
  0
LINE
  8
0
 10
330.784
 20
93.082
 11
331.19
 21
93.3773
  0
LINE
  8
0
 10
331.19
 20
93.3773
 11
331.63
 21
93.6193
  0
LINE
  8
0
 10
331.63
 20
93.6193
 11
332.097
 21
93.8042
  0
LINE
  8
0
 10
332.097
 20
93.8042
 11
332.584
 21
93.9291
  0
LINE
  8
0
 10
332.584
 20
93.9291
 11
333.082
 21
93.9921
  0
LINE
  8
0
 10
333.082
 20
93.9921
 11
333.585
 21
93.9921
  0
LINE
  8
0
 10
333.585
 20
93.9921
 11
334.083
 21
93.9291
  0
LINE
  8
0
 10
334.083
 20
93.9291
 11
334.569
 21
93.8042
  0
LINE
  8
0
 10
334.569
 20
93.8042
 11
335.036
 21
93.6193
  0
LINE
  8
0
 10
335.036
 20
93.6193
 11
335.477
 21
93.3773
  0
LINE
  8
0
 10
335.477
 20
93.3773
 11
335.883
 21
93.082
  0
LINE
  8
0
 10
335.883
 20
93.082
 11
336.249
 21
92.7382
  0
LINE
  8
0
 10
336.249
 20
92.7382
 11
336.569
 21
92.3511
  0
LINE
  8
0
 10
336.569
 20
92.3511
 11
336.839
 21
91.927
  0
LINE
  8
0
 10
336.839
 20
91.927
 11
337.052
 21
91.4725
  0
LINE
  8
0
 10
337.052
 20
91.4725
 11
337.208
 21
90.9948
  0
LINE
  8
0
 10
337.208
 20
90.9948
 11
337.302
 21
90.5013
  0
LINE
  8
0
 10
337.302
 20
90.5013
 11
337.333
 21
90
  0
LINE
  8
0
 10
337.333
 20
90
 11
337.302
 21
89.4987
  0
LINE
  8
0
 10
337.302
 20
89.4987
 11
337.208
 21
89.0052
  0
LINE
  8
0
 10
337.208
 20
89.0052
 11
337.052
 21
88.5275
  0
LINE
  8
0
 10
337.052
 20
88.5275
 11
336.839
 21
88.073
  0
LINE
  8
0
 10
336.839
 20
88.073
 11
336.569
 21
87.6488
  0
LINE
  8
0
 10
336.569
 20
87.6488
 11
336.249
 21
87.2618
  0
LINE
  8
0
 10
336.249
 20
87.2618
 11
335.883
 21
86.9179
  0
LINE
  8
0
 10
335.883
 20
86.9179
 11
335.477
 21
86.6227
  0
LINE
  8
0
 10
335.477
 20
86.6227
 11
335.036
 21
86.3807
  0
LINE
  8
0
 10
335.036
 20
86.3807
 11
334.569
 21
86.1958
  0
LINE
  8
0
 10
334.569
 20
86.1958
 11
334.083
 21
86.0708
  0
LINE
  8
0
 10
334.083
 20
86.0708
 11
333.585
 21
86.0079
  0
LINE
  8
0
 10
333.585
 20
86.0079
 11
333.082
 21
86.0079
  0
LINE
  8
0
 10
234.406
 20
68.003
 11
234.219
 21
68.0266
  0
LINE
  8
0
 10
234.219
 20
68.0266
 11
234.036
 21
68.0734
  0
LINE
  8
0
 10
234.036
 20
68.0734
 11
233.861
 21
68.1428
  0
LINE
  8
0
 10
233.861
 20
68.1428
 11
233.696
 21
68.2335
  0
LINE
  8
0
 10
233.696
 20
68.2335
 11
233.544
 21
68.3442
  0
LINE
  8
0
 10
233.544
 20
68.3442
 11
233.407
 21
68.4732
  0
LINE
  8
0
 10
233.407
 20
68.4732
 11
233.286
 21
68.6183
  0
LINE
  8
0
 10
233.286
 20
68.6183
 11
233.186
 21
68.7774
  0
LINE
  8
0
 10
233.186
 20
68.7774
 11
233.105
 21
68.9478
  0
LINE
  8
0
 10
233.105
 20
68.9478
 11
233.047
 21
69.127
  0
LINE
  8
0
 10
233.047
 20
69.127
 11
233.012
 21
69.312
  0
LINE
  8
0
 10
233.012
 20
69.312
 11
233
 21
69.5
  0
LINE
  8
0
 10
233
 20
69.5
 11
233.012
 21
69.688
  0
LINE
  8
0
 10
233.012
 20
69.688
 11
233.047
 21
69.873
  0
LINE
  8
0
 10
233.047
 20
69.873
 11
233.105
 21
70.0522
  0
LINE
  8
0
 10
233.105
 20
70.0522
 11
233.186
 21
70.2226
  0
LINE
  8
0
 10
233.186
 20
70.2226
 11
233.286
 21
70.3817
  0
LINE
  8
0
 10
233.286
 20
70.3817
 11
233.407
 21
70.5268
  0
LINE
  8
0
 10
233.407
 20
70.5268
 11
233.544
 21
70.6558
  0
LINE
  8
0
 10
233.544
 20
70.6558
 11
233.696
 21
70.7665
  0
LINE
  8
0
 10
233.696
 20
70.7665
 11
233.861
 21
70.8572
  0
LINE
  8
0
 10
233.861
 20
70.8572
 11
234.036
 21
70.9266
  0
LINE
  8
0
 10
234.036
 20
70.9266
 11
234.219
 21
70.9734
  0
LINE
  8
0
 10
234.219
 20
70.9734
 11
234.406
 21
70.997
  0
LINE
  8
0
 10
234.406
 20
70.997
 11
234.594
 21
70.997
  0
LINE
  8
0
 10
234.594
 20
70.997
 11
234.781
 21
70.9734
  0
LINE
  8
0
 10
234.781
 20
70.9734
 11
234.964
 21
70.9266
  0
LINE
  8
0
 10
234.964
 20
70.9266
 11
235.139
 21
70.8572
  0
LINE
  8
0
 10
235.139
 20
70.8572
 11
235.304
 21
70.7665
  0
LINE
  8
0
 10
235.304
 20
70.7665
 11
235.456
 21
70.6558
  0
LINE
  8
0
 10
235.456
 20
70.6558
 11
235.593
 21
70.5268
  0
LINE
  8
0
 10
235.593
 20
70.5268
 11
235.714
 21
70.3817
  0
LINE
  8
0
 10
235.714
 20
70.3817
 11
235.814
 21
70.2226
  0
LINE
  8
0
 10
235.814
 20
70.2226
 11
235.895
 21
70.0522
  0
LINE
  8
0
 10
235.895
 20
70.0522
 11
235.953
 21
69.873
  0
LINE
  8
0
 10
235.953
 20
69.873
 11
235.988
 21
69.688
  0
LINE
  8
0
 10
235.988
 20
69.688
 11
236
 21
69.5
  0
LINE
  8
0
 10
236
 20
69.5
 11
235.988
 21
69.312
  0
LINE
  8
0
 10
235.988
 20
69.312
 11
235.953
 21
69.127
  0
LINE
  8
0
 10
235.953
 20
69.127
 11
235.895
 21
68.9478
  0
LINE
  8
0
 10
235.895
 20
68.9478
 11
235.814
 21
68.7774
  0
LINE
  8
0
 10
235.814
 20
68.7774
 11
235.714
 21
68.6183
  0
LINE
  8
0
 10
235.714
 20
68.6183
 11
235.593
 21
68.4732
  0
LINE
  8
0
 10
235.593
 20
68.4732
 11
235.456
 21
68.3442
  0
LINE
  8
0
 10
235.456
 20
68.3442
 11
235.304
 21
68.2335
  0
LINE
  8
0
 10
235.304
 20
68.2335
 11
235.139
 21
68.1428
  0
LINE
  8
0
 10
235.139
 20
68.1428
 11
234.964
 21
68.0734
  0
LINE
  8
0
 10
234.964
 20
68.0734
 11
234.781
 21
68.0266
  0
LINE
  8
0
 10
234.781
 20
68.0266
 11
234.594
 21
68.003
  0
LINE
  8
0
 10
234.594
 20
68.003
 11
234.406
 21
68.003
  0
LINE
  8
0
 10
265.406
 20
68.003
 11
265.219
 21
68.0266
  0
LINE
  8
0
 10
265.219
 20
68.0266
 11
265.036
 21
68.0734
  0
LINE
  8
0
 10
265.036
 20
68.0734
 11
264.861
 21
68.1428
  0
LINE
  8
0
 10
264.861
 20
68.1428
 11
264.696
 21
68.2335
  0
LINE
  8
0
 10
264.696
 20
68.2335
 11
264.544
 21
68.3442
  0
LINE
  8
0
 10
264.544
 20
68.3442
 11
264.407
 21
68.4732
  0
LINE
  8
0
 10
264.407
 20
68.4732
 11
264.286
 21
68.6183
  0
LINE
  8
0
 10
264.286
 20
68.6183
 11
264.186
 21
68.7774
  0
LINE
  8
0
 10
264.186
 20
68.7774
 11
264.105
 21
68.9478
  0
LINE
  8
0
 10
264.105
 20
68.9478
 11
264.047
 21
69.127
  0
LINE
  8
0
 10
264.047
 20
69.127
 11
264.012
 21
69.312
  0
LINE
  8
0
 10
264.012
 20
69.312
 11
264
 21
69.5
  0
LINE
  8
0
 10
264
 20
69.5
 11
264.012
 21
69.688
  0
LINE
  8
0
 10
264.012
 20
69.688
 11
264.047
 21
69.873
  0
LINE
  8
0
 10
264.047
 20
69.873
 11
264.105
 21
70.0522
  0
LINE
  8
0
 10
264.105
 20
70.0522
 11
264.186
 21
70.2226
  0
LINE
  8
0
 10
264.186
 20
70.2226
 11
264.286
 21
70.3817
  0
LINE
  8
0
 10
264.286
 20
70.3817
 11
264.407
 21
70.5268
  0
LINE
  8
0
 10
264.407
 20
70.5268
 11
264.544
 21
70.6558
  0
LINE
  8
0
 10
264.544
 20
70.6558
 11
264.696
 21
70.7665
  0
LINE
  8
0
 10
264.696
 20
70.7665
 11
264.861
 21
70.8572
  0
LINE
  8
0
 10
264.861
 20
70.8572
 11
265.036
 21
70.9266
  0
LINE
  8
0
 10
265.036
 20
70.9266
 11
265.219
 21
70.9734
  0
LINE
  8
0
 10
265.219
 20
70.9734
 11
265.406
 21
70.997
  0
LINE
  8
0
 10
265.406
 20
70.997
 11
265.594
 21
70.997
  0
LINE
  8
0
 10
265.594
 20
70.997
 11
265.781
 21
70.9734
  0
LINE
  8
0
 10
265.781
 20
70.9734
 11
265.964
 21
70.9266
  0
LINE
  8
0
 10
265.964
 20
70.9266
 11
266.139
 21
70.8572
  0
LINE
  8
0
 10
266.139
 20
70.8572
 11
266.304
 21
70.7665
  0
LINE
  8
0
 10
266.304
 20
70.7665
 11
266.456
 21
70.6558
  0
LINE
  8
0
 10
266.456
 20
70.6558
 11
266.593
 21
70.5268
  0
LINE
  8
0
 10
266.593
 20
70.5268
 11
266.714
 21
70.3817
  0
LINE
  8
0
 10
266.714
 20
70.3817
 11
266.814
 21
70.2226
  0
LINE
  8
0
 10
266.814
 20
70.2226
 11
266.895
 21
70.0522
  0
LINE
  8
0
 10
266.895
 20
70.0522
 11
266.953
 21
69.873
  0
LINE
  8
0
 10
266.953
 20
69.873
 11
266.988
 21
69.688
  0
LINE
  8
0
 10
266.988
 20
69.688
 11
267
 21
69.5
  0
LINE
  8
0
 10
267
 20
69.5
 11
266.988
 21
69.312
  0
LINE
  8
0
 10
266.988
 20
69.312
 11
266.953
 21
69.127
  0
LINE
  8
0
 10
266.953
 20
69.127
 11
266.895
 21
68.9478
  0
LINE
  8
0
 10
266.895
 20
68.9478
 11
266.814
 21
68.7774
  0
LINE
  8
0
 10
266.814
 20
68.7774
 11
266.714
 21
68.6183
  0
LINE
  8
0
 10
266.714
 20
68.6183
 11
266.593
 21
68.4732
  0
LINE
  8
0
 10
266.593
 20
68.4732
 11
266.456
 21
68.3442
  0
LINE
  8
0
 10
266.456
 20
68.3442
 11
266.304
 21
68.2335
  0
LINE
  8
0
 10
266.304
 20
68.2335
 11
266.139
 21
68.1428
  0
LINE
  8
0
 10
266.139
 20
68.1428
 11
265.964
 21
68.0734
  0
LINE
  8
0
 10
265.964
 20
68.0734
 11
265.781
 21
68.0266
  0
LINE
  8
0
 10
265.781
 20
68.0266
 11
265.594
 21
68.003
  0
LINE
  8
0
 10
265.594
 20
68.003
 11
265.406
 21
68.003
  0
LINE
  8
0
 10
630
 20
287.3
 11
630.274
 21
287.3
  0
LINE
  8
0
 10
630.274
 20
287.3
 11
630.274
 21
292.526
  0
LINE
  8
0
 10
630.274
 20
292.526
 11
632.447
 21
302.751
  0
LINE
  8
0
 10
632.447
 20
302.751
 11
636.699
 21
312.3
  0
LINE
  8
0
 10
636.699
 20
312.3
 11
642.843
 21
320.757
  0
LINE
  8
0
 10
642.843
 20
320.757
 11
650.611
 21
327.751
  0
LINE
  8
0
 10
650.611
 20
327.751
 11
659.663
 21
332.977
  0
LINE
  8
0
 10
659.663
 20
332.977
 11
669.604
 21
336.207
  0
LINE
  8
0
 10
669.604
 20
336.207
 11
680
 21
337.3
  0
LINE
  8
0
 10
680
 20
337.3
 11
1050
 21
337.3
  0
LINE
  8
0
 10
1050
 20
337.3
 11
1050
 21
537.3
  0
LINE
  8
0
 10
1050
 20
537.3
 11
550
 21
537.3
  0
LINE
  8
0
 10
550
 20
537.3
 11
550
 21
62.7
  0
LINE
  8
0
 10
550
 20
62.7
 11
630
 21
62.7
  0
LINE
  8
0
 10
630
 20
62.7
 11
630
 21
287.3
  0
LINE
  8
0
 10
873.621
 20
391.387
 11
872.264
 21
391.646
  0
LINE
  8
0
 10
872.264
 20
391.646
 11
870.951
 21
392.072
  0
LINE
  8
0
 10
870.951
 20
392.072
 11
869.701
 21
392.661
  0
LINE
  8
0
 10
869.701
 20
392.661
 11
868.534
 21
393.401
  0
LINE
  8
0
 10
868.534
 20
393.401
 11
867.47
 21
394.281
  0
LINE
  8
0
 10
867.47
 20
394.281
 11
866.524
 21
395.288
  0
LINE
  8
0
 10
866.524
 20
395.288
 11
865.712
 21
396.406
  0
LINE
  8
0
 10
865.712
 20
396.406
 11
865.047
 21
397.616
  0
LINE
  8
0
 10
865.047
 20
397.616
 11
864.538
 21
398.901
  0
LINE
  8
0
 10
864.538
 20
398.901
 11
864.195
 21
400.239
  0
LINE
  8
0
 10
864.195
 20
400.239
 11
864.022
 21
401.609
  0
LINE
  8
0
 10
864.022
 20
401.609
 11
864.022
 21
402.991
  0
LINE
  8
0
 10
864.022
 20
402.991
 11
864.195
 21
404.361
  0
LINE
  8
0
 10
864.195
 20
404.361
 11
864.538
 21
405.699
  0
LINE
  8
0
 10
864.538
 20
405.699
 11
865.047
 21
406.984
  0
LINE
  8
0
 10
865.047
 20
406.984
 11
865.712
 21
408.194
  0
LINE
  8
0
 10
865.712
 20
408.194
 11
866.524
 21
409.312
  0
LINE
  8
0
 10
866.524
 20
409.312
 11
867.47
 21
410.319
  0
LINE
  8
0
 10
867.47
 20
410.319
 11
868.534
 21
411.199
  0
LINE
  8
0
 10
868.534
 20
411.199
 11
869.701
 21
411.939
  0
LINE
  8
0
 10
869.701
 20
411.939
 11
870.951
 21
412.528
  0
LINE
  8
0
 10
870.951
 20
412.528
 11
872.264
 21
412.954
  0
LINE
  8
0
 10
872.264
 20
412.954
 11
873.621
 21
413.213
  0
LINE
  8
0
 10
873.621
 20
413.213
 11
875
 21
413.3
  0
LINE
  8
0
 10
875
 20
413.3
 11
876.379
 21
413.213
  0
LINE
  8
0
 10
876.379
 20
413.213
 11
877.736
 21
412.954
  0
LINE
  8
0
 10
877.736
 20
412.954
 11
879.049
 21
412.528
  0
LINE
  8
0
 10
879.049
 20
412.528
 11
880.299
 21
411.939
  0
LINE
  8
0
 10
880.299
 20
411.939
 11
881.466
 21
411.199
  0
LINE
  8
0
 10
881.466
 20
411.199
 11
882.53
 21
410.319
  0
LINE
  8
0
 10
882.53
 20
410.319
 11
883.476
 21
409.312
  0
LINE
  8
0
 10
883.476
 20
409.312
 11
884.288
 21
408.194
  0
LINE
  8
0
 10
884.288
 20
408.194
 11
884.953
 21
406.984
  0
LINE
  8
0
 10
884.953
 20
406.984
 11
885.462
 21
405.699
  0
LINE
  8
0
 10
885.462
 20
405.699
 11
885.805
 21
404.361
  0
LINE
  8
0
 10
885.805
 20
404.361
 11
885.978
 21
402.991
  0
LINE
  8
0
 10
885.978
 20
402.991
 11
885.978
 21
401.609
  0
LINE
  8
0
 10
885.978
 20
401.609
 11
885.805
 21
400.239
  0
LINE
  8
0
 10
885.805
 20
400.239
 11
885.462
 21
398.901
  0
LINE
  8
0
 10
885.462
 20
398.901
 11
884.953
 21
397.616
  0
LINE
  8
0
 10
884.953
 20
397.616
 11
884.288
 21
396.406
  0
LINE
  8
0
 10
884.288
 20
396.406
 11
883.476
 21
395.288
  0
LINE
  8
0
 10
883.476
 20
395.288
 11
882.53
 21
394.281
  0
LINE
  8
0
 10
882.53
 20
394.281
 11
881.466
 21
393.401
  0
LINE
  8
0
 10
881.466
 20
393.401
 11
880.299
 21
392.661
  0
LINE
  8
0
 10
880.299
 20
392.661
 11
879.049
 21
392.072
  0
LINE
  8
0
 10
879.049
 20
392.072
 11
877.736
 21
391.646
  0
LINE
  8
0
 10
877.736
 20
391.646
 11
876.379
 21
391.387
  0
LINE
  8
0
 10
876.379
 20
391.387
 11
875
 21
391.3
  0
LINE
  8
0
 10
875
 20
391.3
 11
873.621
 21
391.387
  0
LINE
  8
0
 10
799.499
 20
393.332
 11
799.005
 21
393.426
  0
LINE
  8
0
 10
799.005
 20
393.426
 11
798.528
 21
393.581
  0
LINE
  8
0
 10
798.528
 20
393.581
 11
798.073
 21
393.795
  0
LINE
  8
0
 10
798.073
 20
393.795
 11
797.649
 21
394.064
  0
LINE
  8
0
 10
797.649
 20
394.064
 11
797.262
 21
394.384
  0
LINE
  8
0
 10
797.262
 20
394.384
 11
796.918
 21
394.75
  0
LINE
  8
0
 10
796.918
 20
394.75
 11
796.623
 21
395.157
  0
LINE
  8
0
 10
796.623
 20
395.157
 11
796.381
 21
395.597
  0
LINE
  8
0
 10
796.381
 20
395.597
 11
796.196
 21
396.064
  0
LINE
  8
0
 10
796.196
 20
396.064
 11
796.071
 21
396.55
  0
LINE
  8
0
 10
796.071
 20
396.55
 11
796.008
 21
397.049
  0
LINE
  8
0
 10
796.008
 20
397.049
 11
796.008
 21
397.551
  0
LINE
  8
0
 10
796.008
 20
397.551
 11
796.071
 21
398.05
  0
LINE
  8
0
 10
796.071
 20
398.05
 11
796.196
 21
398.536
  0
LINE
  8
0
 10
796.196
 20
398.536
 11
796.381
 21
399.003
  0
LINE
  8
0
 10
796.381
 20
399.003
 11
796.623
 21
399.443
  0
LINE
  8
0
 10
796.623
 20
399.443
 11
796.918
 21
399.85
  0
LINE
  8
0
 10
796.918
 20
399.85
 11
797.262
 21
400.216
  0
LINE
  8
0
 10
797.262
 20
400.216
 11
797.649
 21
400.536
  0
LINE
  8
0
 10
797.649
 20
400.536
 11
798.073
 21
400.805
  0
LINE
  8
0
 10
798.073
 20
400.805
 11
798.528
 21
401.019
  0
LINE
  8
0
 10
798.528
 20
401.019
 11
799.005
 21
401.174
  0
LINE
  8
0
 10
799.005
 20
401.174
 11
799.499
 21
401.268
  0
LINE
  8
0
 10
799.499
 20
401.268
 11
800
 21
401.3
  0
LINE
  8
0
 10
800
 20
401.3
 11
800.501
 21
401.268
  0
LINE
  8
0
 10
800.501
 20
401.268
 11
800.995
 21
401.174
  0
LINE
  8
0
 10
800.995
 20
401.174
 11
801.472
 21
401.019
  0
LINE
  8
0
 10
801.472
 20
401.019
 11
801.927
 21
400.805
  0
LINE
  8
0
 10
801.927
 20
400.805
 11
802.351
 21
400.536
  0
LINE
  8
0
 10
802.351
 20
400.536
 11
802.738
 21
400.216
  0
LINE
  8
0
 10
802.738
 20
400.216
 11
803.082
 21
399.85
  0
LINE
  8
0
 10
803.082
 20
399.85
 11
803.377
 21
399.443
  0
LINE
  8
0
 10
803.377
 20
399.443
 11
803.619
 21
399.003
  0
LINE
  8
0
 10
803.619
 20
399.003
 11
803.804
 21
398.536
  0
LINE
  8
0
 10
803.804
 20
398.536
 11
803.929
 21
398.05
  0
LINE
  8
0
 10
803.929
 20
398.05
 11
803.992
 21
397.551
  0
LINE
  8
0
 10
803.992
 20
397.551
 11
803.992
 21
397.049
  0
LINE
  8
0
 10
803.992
 20
397.049
 11
803.929
 21
396.55
  0
LINE
  8
0
 10
803.929
 20
396.55
 11
803.804
 21
396.064
  0
LINE
  8
0
 10
803.804
 20
396.064
 11
803.619
 21
395.597
  0
LINE
  8
0
 10
803.619
 20
395.597
 11
803.377
 21
395.157
  0
LINE
  8
0
 10
803.377
 20
395.157
 11
803.082
 21
394.75
  0
LINE
  8
0
 10
803.082
 20
394.75
 11
802.738
 21
394.384
  0
LINE
  8
0
 10
802.738
 20
394.384
 11
802.351
 21
394.064
  0
LINE
  8
0
 10
802.351
 20
394.064
 11
801.927
 21
393.795
  0
LINE
  8
0
 10
801.927
 20
393.795
 11
801.472
 21
393.581
  0
LINE
  8
0
 10
801.472
 20
393.581
 11
800.995
 21
393.426
  0
LINE
  8
0
 10
800.995
 20
393.426
 11
800.501
 21
393.332
  0
LINE
  8
0
 10
800.501
 20
393.332
 11
800
 21
393.3
  0
LINE
  8
0
 10
800
 20
393.3
 11
799.499
 21
393.332
  0
LINE
  8
0
 10
949.499
 20
393.332
 11
949.005
 21
393.426
  0
LINE
  8
0
 10
949.005
 20
393.426
 11
948.528
 21
393.581
  0
LINE
  8
0
 10
948.528
 20
393.581
 11
948.073
 21
393.795
  0
LINE
  8
0
 10
948.073
 20
393.795
 11
947.649
 21
394.064
  0
LINE
  8
0
 10
947.649
 20
394.064
 11
947.262
 21
394.384
  0
LINE
  8
0
 10
947.262
 20
394.384
 11
946.918
 21
394.75
  0
LINE
  8
0
 10
946.918
 20
394.75
 11
946.623
 21
395.157
  0
LINE
  8
0
 10
946.623
 20
395.157
 11
946.381
 21
395.597
  0
LINE
  8
0
 10
946.381
 20
395.597
 11
946.196
 21
396.064
  0
LINE
  8
0
 10
946.196
 20
396.064
 11
946.071
 21
396.55
  0
LINE
  8
0
 10
946.071
 20
396.55
 11
946.008
 21
397.049
  0
LINE
  8
0
 10
946.008
 20
397.049
 11
946.008
 21
397.551
  0
LINE
  8
0
 10
946.008
 20
397.551
 11
946.071
 21
398.05
  0
LINE
  8
0
 10
946.071
 20
398.05
 11
946.196
 21
398.536
  0
LINE
  8
0
 10
946.196
 20
398.536
 11
946.381
 21
399.003
  0
LINE
  8
0
 10
946.381
 20
399.003
 11
946.623
 21
399.443
  0
LINE
  8
0
 10
946.623
 20
399.443
 11
946.918
 21
399.85
  0
LINE
  8
0
 10
946.918
 20
399.85
 11
947.262
 21
400.216
  0
LINE
  8
0
 10
947.262
 20
400.216
 11
947.649
 21
400.536
  0
LINE
  8
0
 10
947.649
 20
400.536
 11
948.073
 21
400.805
  0
LINE
  8
0
 10
948.073
 20
400.805
 11
948.528
 21
401.019
  0
LINE
  8
0
 10
948.528
 20
401.019
 11
949.005
 21
401.174
  0
LINE
  8
0
 10
949.005
 20
401.174
 11
949.499
 21
401.268
  0
LINE
  8
0
 10
949.499
 20
401.268
 11
950
 21
401.3
  0
LINE
  8
0
 10
950
 20
401.3
 11
950.501
 21
401.268
  0
LINE
  8
0
 10
950.501
 20
401.268
 11
950.995
 21
401.174
  0
LINE
  8
0
 10
950.995
 20
401.174
 11
951.472
 21
401.019
  0
LINE
  8
0
 10
951.472
 20
401.019
 11
951.927
 21
400.805
  0
LINE
  8
0
 10
951.927
 20
400.805
 11
952.351
 21
400.536
  0
LINE
  8
0
 10
952.351
 20
400.536
 11
952.738
 21
400.216
  0
LINE
  8
0
 10
952.738
 20
400.216
 11
953.082
 21
399.85
  0
LINE
  8
0
 10
953.082
 20
399.85
 11
953.377
 21
399.443
  0
LINE
  8
0
 10
953.377
 20
399.443
 11
953.619
 21
399.003
  0
LINE
  8
0
 10
953.619
 20
399.003
 11
953.804
 21
398.536
  0
LINE
  8
0
 10
953.804
 20
398.536
 11
953.929
 21
398.05
  0
LINE
  8
0
 10
953.929
 20
398.05
 11
953.992
 21
397.551
  0
LINE
  8
0
 10
953.992
 20
397.551
 11
953.992
 21
397.049
  0
LINE
  8
0
 10
953.992
 20
397.049
 11
953.929
 21
396.55
  0
LINE
  8
0
 10
953.929
 20
396.55
 11
953.804
 21
396.064
  0
LINE
  8
0
 10
953.804
 20
396.064
 11
953.619
 21
395.597
  0
LINE
  8
0
 10
953.619
 20
395.597
 11
953.377
 21
395.157
  0
LINE
  8
0
 10
953.377
 20
395.157
 11
953.082
 21
394.75
  0
LINE
  8
0
 10
953.082
 20
394.75
 11
952.738
 21
394.384
  0
LINE
  8
0
 10
952.738
 20
394.384
 11
952.351
 21
394.064
  0
LINE
  8
0
 10
952.351
 20
394.064
 11
951.927
 21
393.795
  0
LINE
  8
0
 10
951.927
 20
393.795
 11
951.472
 21
393.581
  0
LINE
  8
0
 10
951.472
 20
393.581
 11
950.995
 21
393.426
  0
LINE
  8
0
 10
950.995
 20
393.426
 11
950.501
 21
393.332
  0
LINE
  8
0
 10
950.501
 20
393.332
 11
950
 21
393.3
  0
LINE
  8
0
 10
950
 20
393.3
 11
949.499
 21
393.332
  0
LINE
  8
0
 10
-50
 20
537.3
 11
-550
 21
537.3
  0
LINE
  8
0
 10
-550
 20
537.3
 11
-550
 21
337.3
  0
LINE
  8
0
 10
-550
 20
337.3
 11
-180
 21
337.3
  0
LINE
  8
0
 10
-180
 20
337.3
 11
-169.604
 21
336.207
  0
LINE
  8
0
 10
-169.604
 20
336.207
 11
-159.663
 21
332.977
  0
LINE
  8
0
 10
-159.663
 20
332.977
 11
-150.611
 21
327.751
  0
LINE
  8
0
 10
-150.611
 20
327.751
 11
-142.843
 21
320.757
  0
LINE
  8
0
 10
-142.843
 20
320.757
 11
-136.699
 21
312.3
  0
LINE
  8
0
 10
-136.699
 20
312.3
 11
-132.447
 21
302.751
  0
LINE
  8
0
 10
-132.447
 20
302.751
 11
-130.274
 21
292.526
  0
LINE
  8
0
 10
-130.274
 20
292.526
 11
-130.274
 21
287.3
  0
LINE
  8
0
 10
-130.274
 20
287.3
 11
-130
 21
287.3
  0
LINE
  8
0
 10
-130
 20
287.3
 11
-130
 21
62.7
  0
LINE
  8
0
 10
-130
 20
62.7
 11
-50
 21
62.7
  0
LINE
  8
0
 10
-50
 20
62.7
 11
-50
 21
537.3
  0
LINE
  8
0
 10
-359.688
 20
416.312
 11
-359.873
 21
416.347
  0
LINE
  8
0
 10
-359.873
 20
416.347
 11
-360.052
 21
416.405
  0
LINE
  8
0
 10
-360.052
 20
416.405
 11
-360.223
 21
416.486
  0
LINE
  8
0
 10
-360.223
 20
416.486
 11
-360.382
 21
416.586
  0
LINE
  8
0
 10
-360.382
 20
416.586
 11
-360.527
 21
416.707
  0
LINE
  8
0
 10
-360.527
 20
416.707
 11
-360.656
 21
416.844
  0
LINE
  8
0
 10
-360.656
 20
416.844
 11
-360.766
 21
416.996
  0
LINE
  8
0
 10
-360.766
 20
416.996
 11
-360.857
 21
417.161
  0
LINE
  8
0
 10
-360.857
 20
417.161
 11
-360.927
 21
417.336
  0
LINE
  8
0
 10
-360.927
 20
417.336
 11
-360.973
 21
417.519
  0
LINE
  8
0
 10
-360.973
 20
417.519
 11
-360.997
 21
417.706
  0
LINE
  8
0
 10
-360.997
 20
417.706
 11
-360.997
 21
417.894
  0
LINE
  8
0
 10
-360.997
 20
417.894
 11
-360.973
 21
418.081
  0
LINE
  8
0
 10
-360.973
 20
418.081
 11
-360.927
 21
418.264
  0
LINE
  8
0
 10
-360.927
 20
418.264
 11
-360.857
 21
418.439
  0
LINE
  8
0
 10
-360.857
 20
418.439
 11
-360.766
 21
418.604
  0
LINE
  8
0
 10
-360.766
 20
418.604
 11
-360.656
 21
418.756
  0
LINE
  8
0
 10
-360.656
 20
418.756
 11
-360.527
 21
418.893
  0
LINE
  8
0
 10
-360.527
 20
418.893
 11
-360.382
 21
419.014
  0
LINE
  8
0
 10
-360.382
 20
419.014
 11
-360.223
 21
419.114
  0
LINE
  8
0
 10
-360.223
 20
419.114
 11
-360.052
 21
419.195
  0
LINE
  8
0
 10
-360.052
 20
419.195
 11
-359.873
 21
419.253
  0
LINE
  8
0
 10
-359.873
 20
419.253
 11
-359.688
 21
419.288
  0
LINE
  8
0
 10
-359.688
 20
419.288
 11
-359.5
 21
419.3
  0
LINE
  8
0
 10
-359.5
 20
419.3
 11
-359.312
 21
419.288
  0
LINE
  8
0
 10
-359.312
 20
419.288
 11
-359.127
 21
419.253
  0
LINE
  8
0
 10
-359.127
 20
419.253
 11
-358.948
 21
419.195
  0
LINE
  8
0
 10
-358.948
 20
419.195
 11
-358.777
 21
419.114
  0
LINE
  8
0
 10
-358.777
 20
419.114
 11
-358.618
 21
419.014
  0
LINE
  8
0
 10
-358.618
 20
419.014
 11
-358.473
 21
418.893
  0
LINE
  8
0
 10
-358.473
 20
418.893
 11
-358.344
 21
418.756
  0
LINE
  8
0
 10
-358.344
 20
418.756
 11
-358.234
 21
418.604
  0
LINE
  8
0
 10
-358.234
 20
418.604
 11
-358.143
 21
418.439
  0
LINE
  8
0
 10
-358.143
 20
418.439
 11
-358.073
 21
418.264
  0
LINE
  8
0
 10
-358.073
 20
418.264
 11
-358.027
 21
418.081
  0
LINE
  8
0
 10
-358.027
 20
418.081
 11
-358.003
 21
417.894
  0
LINE
  8
0
 10
-358.003
 20
417.894
 11
-358.003
 21
417.706
  0
LINE
  8
0
 10
-358.003
 20
417.706
 11
-358.027
 21
417.519
  0
LINE
  8
0
 10
-358.027
 20
417.519
 11
-358.073
 21
417.336
  0
LINE
  8
0
 10
-358.073
 20
417.336
 11
-358.143
 21
417.161
  0
LINE
  8
0
 10
-358.143
 20
417.161
 11
-358.234
 21
416.996
  0
LINE
  8
0
 10
-358.234
 20
416.996
 11
-358.344
 21
416.844
  0
LINE
  8
0
 10
-358.344
 20
416.844
 11
-358.473
 21
416.707
  0
LINE
  8
0
 10
-358.473
 20
416.707
 11
-358.618
 21
416.586
  0
LINE
  8
0
 10
-358.618
 20
416.586
 11
-358.777
 21
416.486
  0
LINE
  8
0
 10
-358.777
 20
416.486
 11
-358.948
 21
416.405
  0
LINE
  8
0
 10
-358.948
 20
416.405
 11
-359.127
 21
416.347
  0
LINE
  8
0
 10
-359.127
 20
416.347
 11
-359.312
 21
416.312
  0
LINE
  8
0
 10
-359.312
 20
416.312
 11
-359.5
 21
416.3
  0
LINE
  8
0
 10
-359.5
 20
416.3
 11
-359.688
 21
416.312
  0
LINE
  8
0
 10
-390.688
 20
416.312
 11
-390.873
 21
416.347
  0
LINE
  8
0
 10
-390.873
 20
416.347
 11
-391.052
 21
416.405
  0
LINE
  8
0
 10
-391.052
 20
416.405
 11
-391.223
 21
416.486
  0
LINE
  8
0
 10
-391.223
 20
416.486
 11
-391.382
 21
416.586
  0
LINE
  8
0
 10
-391.382
 20
416.586
 11
-391.527
 21
416.707
  0
LINE
  8
0
 10
-391.527
 20
416.707
 11
-391.656
 21
416.844
  0
LINE
  8
0
 10
-391.656
 20
416.844
 11
-391.766
 21
416.996
  0
LINE
  8
0
 10
-391.766
 20
416.996
 11
-391.857
 21
417.161
  0
LINE
  8
0
 10
-391.857
 20
417.161
 11
-391.927
 21
417.336
  0
LINE
  8
0
 10
-391.927
 20
417.336
 11
-391.973
 21
417.519
  0
LINE
  8
0
 10
-391.973
 20
417.519
 11
-391.997
 21
417.706
  0
LINE
  8
0
 10
-391.997
 20
417.706
 11
-391.997
 21
417.894
  0
LINE
  8
0
 10
-391.997
 20
417.894
 11
-391.973
 21
418.081
  0
LINE
  8
0
 10
-391.973
 20
418.081
 11
-391.927
 21
418.264
  0
LINE
  8
0
 10
-391.927
 20
418.264
 11
-391.857
 21
418.439
  0
LINE
  8
0
 10
-391.857
 20
418.439
 11
-391.766
 21
418.604
  0
LINE
  8
0
 10
-391.766
 20
418.604
 11
-391.656
 21
418.756
  0
LINE
  8
0
 10
-391.656
 20
418.756
 11
-391.527
 21
418.893
  0
LINE
  8
0
 10
-391.527
 20
418.893
 11
-391.382
 21
419.014
  0
LINE
  8
0
 10
-391.382
 20
419.014
 11
-391.223
 21
419.114
  0
LINE
  8
0
 10
-391.223
 20
419.114
 11
-391.052
 21
419.195
  0
LINE
  8
0
 10
-391.052
 20
419.195
 11
-390.873
 21
419.253
  0
LINE
  8
0
 10
-390.873
 20
419.253
 11
-390.688
 21
419.288
  0
LINE
  8
0
 10
-390.688
 20
419.288
 11
-390.5
 21
419.3
  0
LINE
  8
0
 10
-390.5
 20
419.3
 11
-390.312
 21
419.288
  0
LINE
  8
0
 10
-390.312
 20
419.288
 11
-390.127
 21
419.253
  0
LINE
  8
0
 10
-390.127
 20
419.253
 11
-389.948
 21
419.195
  0
LINE
  8
0
 10
-389.948
 20
419.195
 11
-389.777
 21
419.114
  0
LINE
  8
0
 10
-389.777
 20
419.114
 11
-389.618
 21
419.014
  0
LINE
  8
0
 10
-389.618
 20
419.014
 11
-389.473
 21
418.893
  0
LINE
  8
0
 10
-389.473
 20
418.893
 11
-389.344
 21
418.756
  0
LINE
  8
0
 10
-389.344
 20
418.756
 11
-389.234
 21
418.604
  0
LINE
  8
0
 10
-389.234
 20
418.604
 11
-389.143
 21
418.439
  0
LINE
  8
0
 10
-389.143
 20
418.439
 11
-389.073
 21
418.264
  0
LINE
  8
0
 10
-389.073
 20
418.264
 11
-389.027
 21
418.081
  0
LINE
  8
0
 10
-389.027
 20
418.081
 11
-389.003
 21
417.894
  0
LINE
  8
0
 10
-389.003
 20
417.894
 11
-389.003
 21
417.706
  0
LINE
  8
0
 10
-389.003
 20
417.706
 11
-389.027
 21
417.519
  0
LINE
  8
0
 10
-389.027
 20
417.519
 11
-389.073
 21
417.336
  0
LINE
  8
0
 10
-389.073
 20
417.336
 11
-389.143
 21
417.161
  0
LINE
  8
0
 10
-389.143
 20
417.161
 11
-389.234
 21
416.996
  0
LINE
  8
0
 10
-389.234
 20
416.996
 11
-389.344
 21
416.844
  0
LINE
  8
0
 10
-389.344
 20
416.844
 11
-389.473
 21
416.707
  0
LINE
  8
0
 10
-389.473
 20
416.707
 11
-389.618
 21
416.586
  0
LINE
  8
0
 10
-389.618
 20
416.586
 11
-389.777
 21
416.486
  0
LINE
  8
0
 10
-389.777
 20
416.486
 11
-389.948
 21
416.405
  0
LINE
  8
0
 10
-389.948
 20
416.405
 11
-390.127
 21
416.347
  0
LINE
  8
0
 10
-390.127
 20
416.347
 11
-390.312
 21
416.312
  0
LINE
  8
0
 10
-390.312
 20
416.312
 11
-390.5
 21
416.3
  0
LINE
  8
0
 10
-390.5
 20
416.3
 11
-390.688
 21
416.312
  0
LINE
  8
0
 10
-376.504
 20
390.395
 11
-377.984
 21
390.677
  0
LINE
  8
0
 10
-377.984
 20
390.677
 11
-379.417
 21
391.143
  0
LINE
  8
0
 10
-379.417
 20
391.143
 11
-380.781
 21
391.784
  0
LINE
  8
0
 10
-380.781
 20
391.784
 11
-382.053
 21
392.592
  0
LINE
  8
0
 10
-382.053
 20
392.592
 11
-383.215
 21
393.552
  0
LINE
  8
0
 10
-383.215
 20
393.552
 11
-384.246
 21
394.651
  0
LINE
  8
0
 10
-384.246
 20
394.651
 11
-385.132
 21
395.87
  0
LINE
  8
0
 10
-385.132
 20
395.87
 11
-385.858
 21
397.191
  0
LINE
  8
0
 10
-385.858
 20
397.191
 11
-386.413
 21
398.592
  0
LINE
  8
0
 10
-386.413
 20
398.592
 11
-386.787
 21
400.051
  0
LINE
  8
0
 10
-386.787
 20
400.051
 11
-386.976
 21
401.547
  0
LINE
  8
0
 10
-386.976
 20
401.547
 11
-386.976
 21
403.053
  0
LINE
  8
0
 10
-386.976
 20
403.053
 11
-386.787
 21
404.549
  0
LINE
  8
0
 10
-386.787
 20
404.549
 11
-386.413
 21
406.008
  0
LINE
  8
0
 10
-386.413
 20
406.008
 11
-385.858
 21
407.409
  0
LINE
  8
0
 10
-385.858
 20
407.409
 11
-385.132
 21
408.73
  0
LINE
  8
0
 10
-385.132
 20
408.73
 11
-384.246
 21
409.949
  0
LINE
  8
0
 10
-384.246
 20
409.949
 11
-383.215
 21
411.048
  0
LINE
  8
0
 10
-383.215
 20
411.048
 11
-382.053
 21
412.008
  0
LINE
  8
0
 10
-382.053
 20
412.008
 11
-380.781
 21
412.816
  0
LINE
  8
0
 10
-380.781
 20
412.816
 11
-379.417
 21
413.457
  0
LINE
  8
0
 10
-379.417
 20
413.457
 11
-377.984
 21
413.923
  0
LINE
  8
0
 10
-377.984
 20
413.923
 11
-376.504
 21
414.205
  0
LINE
  8
0
 10
-376.504
 20
414.205
 11
-375
 21
414.3
  0
LINE
  8
0
 10
-375
 20
414.3
 11
-373.496
 21
414.205
  0
LINE
  8
0
 10
-373.496
 20
414.205
 11
-372.016
 21
413.923
  0
LINE
  8
0
 10
-372.016
 20
413.923
 11
-370.583
 21
413.457
  0
LINE
  8
0
 10
-370.583
 20
413.457
 11
-369.219
 21
412.816
  0
LINE
  8
0
 10
-369.219
 20
412.816
 11
-367.947
 21
412.008
  0
LINE
  8
0
 10
-367.947
 20
412.008
 11
-366.785
 21
411.048
  0
LINE
  8
0
 10
-366.785
 20
411.048
 11
-365.754
 21
409.949
  0
LINE
  8
0
 10
-365.754
 20
409.949
 11
-364.868
 21
408.73
  0
LINE
  8
0
 10
-364.868
 20
408.73
 11
-364.142
 21
407.409
  0
LINE
  8
0
 10
-364.142
 20
407.409
 11
-363.587
 21
406.008
  0
LINE
  8
0
 10
-363.587
 20
406.008
 11
-363.213
 21
404.549
  0
LINE
  8
0
 10
-363.213
 20
404.549
 11
-363.024
 21
403.053
  0
LINE
  8
0
 10
-363.024
 20
403.053
 11
-363.024
 21
401.547
  0
LINE
  8
0
 10
-363.024
 20
401.547
 11
-363.213
 21
400.051
  0
LINE
  8
0
 10
-363.213
 20
400.051
 11
-363.587
 21
398.592
  0
LINE
  8
0
 10
-363.587
 20
398.592
 11
-364.142
 21
397.191
  0
LINE
  8
0
 10
-364.142
 20
397.191
 11
-364.868
 21
395.87
  0
LINE
  8
0
 10
-364.868
 20
395.87
 11
-365.754
 21
394.651
  0
LINE
  8
0
 10
-365.754
 20
394.651
 11
-366.785
 21
393.552
  0
LINE
  8
0
 10
-366.785
 20
393.552
 11
-367.947
 21
392.592
  0
LINE
  8
0
 10
-367.947
 20
392.592
 11
-369.219
 21
391.784
  0
LINE
  8
0
 10
-369.219
 20
391.784
 11
-370.583
 21
391.143
  0
LINE
  8
0
 10
-370.583
 20
391.143
 11
-372.016
 21
390.677
  0
LINE
  8
0
 10
-372.016
 20
390.677
 11
-373.496
 21
390.395
  0
LINE
  8
0
 10
-373.496
 20
390.395
 11
-375
 21
390.3
  0
LINE
  8
0
 10
-375
 20
390.3
 11
-376.504
 21
390.395
  0
LINE
  8
0
 10
-300.501
 20
393.332
 11
-300.995
 21
393.426
  0
LINE
  8
0
 10
-300.995
 20
393.426
 11
-301.473
 21
393.581
  0
LINE
  8
0
 10
-301.473
 20
393.581
 11
-301.927
 21
393.795
  0
LINE
  8
0
 10
-301.927
 20
393.795
 11
-302.351
 21
394.064
  0
LINE
  8
0
 10
-302.351
 20
394.064
 11
-302.738
 21
394.384
  0
LINE
  8
0
 10
-302.738
 20
394.384
 11
-303.082
 21
394.75
  0
LINE
  8
0
 10
-303.082
 20
394.75
 11
-303.377
 21
395.157
  0
LINE
  8
0
 10
-303.377
 20
395.157
 11
-303.619
 21
395.597
  0
LINE
  8
0
 10
-303.619
 20
395.597
 11
-303.804
 21
396.064
  0
LINE
  8
0
 10
-303.804
 20
396.064
 11
-303.929
 21
396.55
  0
LINE
  8
0
 10
-303.929
 20
396.55
 11
-303.992
 21
397.049
  0
LINE
  8
0
 10
-303.992
 20
397.049
 11
-303.992
 21
397.551
  0
LINE
  8
0
 10
-303.992
 20
397.551
 11
-303.929
 21
398.05
  0
LINE
  8
0
 10
-303.929
 20
398.05
 11
-303.804
 21
398.536
  0
LINE
  8
0
 10
-303.804
 20
398.536
 11
-303.619
 21
399.003
  0
LINE
  8
0
 10
-303.619
 20
399.003
 11
-303.377
 21
399.443
  0
LINE
  8
0
 10
-303.377
 20
399.443
 11
-303.082
 21
399.85
  0
LINE
  8
0
 10
-303.082
 20
399.85
 11
-302.738
 21
400.216
  0
LINE
  8
0
 10
-302.738
 20
400.216
 11
-302.351
 21
400.536
  0
LINE
  8
0
 10
-302.351
 20
400.536
 11
-301.927
 21
400.805
  0
LINE
  8
0
 10
-301.927
 20
400.805
 11
-301.473
 21
401.019
  0
LINE
  8
0
 10
-301.473
 20
401.019
 11
-300.995
 21
401.174
  0
LINE
  8
0
 10
-300.995
 20
401.174
 11
-300.501
 21
401.268
  0
LINE
  8
0
 10
-300.501
 20
401.268
 11
-300
 21
401.3
  0
LINE
  8
0
 10
-300
 20
401.3
 11
-299.499
 21
401.268
  0
LINE
  8
0
 10
-299.499
 20
401.268
 11
-299.005
 21
401.174
  0
LINE
  8
0
 10
-299.005
 20
401.174
 11
-298.527
 21
401.019
  0
LINE
  8
0
 10
-298.527
 20
401.019
 11
-298.073
 21
400.805
  0
LINE
  8
0
 10
-298.073
 20
400.805
 11
-297.649
 21
400.536
  0
LINE
  8
0
 10
-297.649
 20
400.536
 11
-297.262
 21
400.216
  0
LINE
  8
0
 10
-297.262
 20
400.216
 11
-296.918
 21
399.85
  0
LINE
  8
0
 10
-296.918
 20
399.85
 11
-296.623
 21
399.443
  0
LINE
  8
0
 10
-296.623
 20
399.443
 11
-296.381
 21
399.003
  0
LINE
  8
0
 10
-296.381
 20
399.003
 11
-296.196
 21
398.536
  0
LINE
  8
0
 10
-296.196
 20
398.536
 11
-296.071
 21
398.05
  0
LINE
  8
0
 10
-296.071
 20
398.05
 11
-296.008
 21
397.551
  0
LINE
  8
0
 10
-296.008
 20
397.551
 11
-296.008
 21
397.049
  0
LINE
  8
0
 10
-296.008
 20
397.049
 11
-296.071
 21
396.55
  0
LINE
  8
0
 10
-296.071
 20
396.55
 11
-296.196
 21
396.064
  0
LINE
  8
0
 10
-296.196
 20
396.064
 11
-296.381
 21
395.597
  0
LINE
  8
0
 10
-296.381
 20
395.597
 11
-296.623
 21
395.157
  0
LINE
  8
0
 10
-296.623
 20
395.157
 11
-296.918
 21
394.75
  0
LINE
  8
0
 10
-296.918
 20
394.75
 11
-297.262
 21
394.384
  0
LINE
  8
0
 10
-297.262
 20
394.384
 11
-297.649
 21
394.064
  0
LINE
  8
0
 10
-297.649
 20
394.064
 11
-298.073
 21
393.795
  0
LINE
  8
0
 10
-298.073
 20
393.795
 11
-298.527
 21
393.581
  0
LINE
  8
0
 10
-298.527
 20
393.581
 11
-299.005
 21
393.426
  0
LINE
  8
0
 10
-299.005
 20
393.426
 11
-299.499
 21
393.332
  0
LINE
  8
0
 10
-299.499
 20
393.332
 11
-300
 21
393.3
  0
LINE
  8
0
 10
-300
 20
393.3
 11
-300.501
 21
393.332
  0
LINE
  8
0
 10
-450.501
 20
393.332
 11
-450.995
 21
393.426
  0
LINE
  8
0
 10
-450.995
 20
393.426
 11
-451.473
 21
393.581
  0
LINE
  8
0
 10
-451.473
 20
393.581
 11
-451.927
 21
393.795
  0
LINE
  8
0
 10
-451.927
 20
393.795
 11
-452.351
 21
394.064
  0
LINE
  8
0
 10
-452.351
 20
394.064
 11
-452.738
 21
394.384
  0
LINE
  8
0
 10
-452.738
 20
394.384
 11
-453.082
 21
394.75
  0
LINE
  8
0
 10
-453.082
 20
394.75
 11
-453.377
 21
395.157
  0
LINE
  8
0
 10
-453.377
 20
395.157
 11
-453.619
 21
395.597
  0
LINE
  8
0
 10
-453.619
 20
395.597
 11
-453.804
 21
396.064
  0
LINE
  8
0
 10
-453.804
 20
396.064
 11
-453.929
 21
396.55
  0
LINE
  8
0
 10
-453.929
 20
396.55
 11
-453.992
 21
397.049
  0
LINE
  8
0
 10
-453.992
 20
397.049
 11
-453.992
 21
397.551
  0
LINE
  8
0
 10
-453.992
 20
397.551
 11
-453.929
 21
398.05
  0
LINE
  8
0
 10
-453.929
 20
398.05
 11
-453.804
 21
398.536
  0
LINE
  8
0
 10
-453.804
 20
398.536
 11
-453.619
 21
399.003
  0
LINE
  8
0
 10
-453.619
 20
399.003
 11
-453.377
 21
399.443
  0
LINE
  8
0
 10
-453.377
 20
399.443
 11
-453.082
 21
399.85
  0
LINE
  8
0
 10
-453.082
 20
399.85
 11
-452.738
 21
400.216
  0
LINE
  8
0
 10
-452.738
 20
400.216
 11
-452.351
 21
400.536
  0
LINE
  8
0
 10
-452.351
 20
400.536
 11
-451.927
 21
400.805
  0
LINE
  8
0
 10
-451.927
 20
400.805
 11
-451.473
 21
401.019
  0
LINE
  8
0
 10
-451.473
 20
401.019
 11
-450.995
 21
401.174
  0
LINE
  8
0
 10
-450.995
 20
401.174
 11
-450.501
 21
401.268
  0
LINE
  8
0
 10
-450.501
 20
401.268
 11
-450
 21
401.3
  0
LINE
  8
0
 10
-450
 20
401.3
 11
-449.499
 21
401.268
  0
LINE
  8
0
 10
-449.499
 20
401.268
 11
-449.005
 21
401.174
  0
LINE
  8
0
 10
-449.005
 20
401.174
 11
-448.527
 21
401.019
  0
LINE
  8
0
 10
-448.527
 20
401.019
 11
-448.073
 21
400.805
  0
LINE
  8
0
 10
-448.073
 20
400.805
 11
-447.649
 21
400.536
  0
LINE
  8
0
 10
-447.649
 20
400.536
 11
-447.262
 21
400.216
  0
LINE
  8
0
 10
-447.262
 20
400.216
 11
-446.918
 21
399.85
  0
LINE
  8
0
 10
-446.918
 20
399.85
 11
-446.623
 21
399.443
  0
LINE
  8
0
 10
-446.623
 20
399.443
 11
-446.381
 21
399.003
  0
LINE
  8
0
 10
-446.381
 20
399.003
 11
-446.196
 21
398.536
  0
LINE
  8
0
 10
-446.196
 20
398.536
 11
-446.071
 21
398.05
  0
LINE
  8
0
 10
-446.071
 20
398.05
 11
-446.008
 21
397.551
  0
LINE
  8
0
 10
-446.008
 20
397.551
 11
-446.008
 21
397.049
  0
LINE
  8
0
 10
-446.008
 20
397.049
 11
-446.071
 21
396.55
  0
LINE
  8
0
 10
-446.071
 20
396.55
 11
-446.196
 21
396.064
  0
LINE
  8
0
 10
-446.196
 20
396.064
 11
-446.381
 21
395.597
  0
LINE
  8
0
 10
-446.381
 20
395.597
 11
-446.623
 21
395.157
  0
LINE
  8
0
 10
-446.623
 20
395.157
 11
-446.918
 21
394.75
  0
LINE
  8
0
 10
-446.918
 20
394.75
 11
-447.262
 21
394.384
  0
LINE
  8
0
 10
-447.262
 20
394.384
 11
-447.649
 21
394.064
  0
LINE
  8
0
 10
-447.649
 20
394.064
 11
-448.073
 21
393.795
  0
LINE
  8
0
 10
-448.073
 20
393.795
 11
-448.527
 21
393.581
  0
LINE
  8
0
 10
-448.527
 20
393.581
 11
-449.005
 21
393.426
  0
LINE
  8
0
 10
-449.005
 20
393.426
 11
-449.499
 21
393.332
  0
LINE
  8
0
 10
-449.499
 20
393.332
 11
-450
 21
393.3
  0
LINE
  8
0
 10
-450
 20
393.3
 11
-450.501
 21
393.332
  0
LINE
  8
0
 10
-390.688
 20
385.312
 11
-390.873
 21
385.347
  0
LINE
  8
0
 10
-390.873
 20
385.347
 11
-391.052
 21
385.405
  0
LINE
  8
0
 10
-391.052
 20
385.405
 11
-391.223
 21
385.486
  0
LINE
  8
0
 10
-391.223
 20
385.486
 11
-391.382
 21
385.586
  0
LINE
  8
0
 10
-391.382
 20
385.586
 11
-391.527
 21
385.707
  0
LINE
  8
0
 10
-391.527
 20
385.707
 11
-391.656
 21
385.844
  0
LINE
  8
0
 10
-391.656
 20
385.844
 11
-391.766
 21
385.996
  0
LINE
  8
0
 10
-391.766
 20
385.996
 11
-391.857
 21
386.161
  0
LINE
  8
0
 10
-391.857
 20
386.161
 11
-391.927
 21
386.336
  0
LINE
  8
0
 10
-391.927
 20
386.336
 11
-391.973
 21
386.519
  0
LINE
  8
0
 10
-391.973
 20
386.519
 11
-391.997
 21
386.706
  0
LINE
  8
0
 10
-391.997
 20
386.706
 11
-391.997
 21
386.894
  0
LINE
  8
0
 10
-391.997
 20
386.894
 11
-391.973
 21
387.081
  0
LINE
  8
0
 10
-391.973
 20
387.081
 11
-391.927
 21
387.264
  0
LINE
  8
0
 10
-391.927
 20
387.264
 11
-391.857
 21
387.439
  0
LINE
  8
0
 10
-391.857
 20
387.439
 11
-391.766
 21
387.604
  0
LINE
  8
0
 10
-391.766
 20
387.604
 11
-391.656
 21
387.756
  0
LINE
  8
0
 10
-391.656
 20
387.756
 11
-391.527
 21
387.893
  0
LINE
  8
0
 10
-391.527
 20
387.893
 11
-391.382
 21
388.014
  0
LINE
  8
0
 10
-391.382
 20
388.014
 11
-391.223
 21
388.114
  0
LINE
  8
0
 10
-391.223
 20
388.114
 11
-391.052
 21
388.195
  0
LINE
  8
0
 10
-391.052
 20
388.195
 11
-390.873
 21
388.253
  0
LINE
  8
0
 10
-390.873
 20
388.253
 11
-390.688
 21
388.288
  0
LINE
  8
0
 10
-390.688
 20
388.288
 11
-390.5
 21
388.3
  0
LINE
  8
0
 10
-390.5
 20
388.3
 11
-390.312
 21
388.288
  0
LINE
  8
0
 10
-390.312
 20
388.288
 11
-390.127
 21
388.253
  0
LINE
  8
0
 10
-390.127
 20
388.253
 11
-389.948
 21
388.195
  0
LINE
  8
0
 10
-389.948
 20
388.195
 11
-389.777
 21
388.114
  0
LINE
  8
0
 10
-389.777
 20
388.114
 11
-389.618
 21
388.014
  0
LINE
  8
0
 10
-389.618
 20
388.014
 11
-389.473
 21
387.893
  0
LINE
  8
0
 10
-389.473
 20
387.893
 11
-389.344
 21
387.756
  0
LINE
  8
0
 10
-389.344
 20
387.756
 11
-389.234
 21
387.604
  0
LINE
  8
0
 10
-389.234
 20
387.604
 11
-389.143
 21
387.439
  0
LINE
  8
0
 10
-389.143
 20
387.439
 11
-389.073
 21
387.264
  0
LINE
  8
0
 10
-389.073
 20
387.264
 11
-389.027
 21
387.081
  0
LINE
  8
0
 10
-389.027
 20
387.081
 11
-389.003
 21
386.894
  0
LINE
  8
0
 10
-389.003
 20
386.894
 11
-389.003
 21
386.706
  0
LINE
  8
0
 10
-389.003
 20
386.706
 11
-389.027
 21
386.519
  0
LINE
  8
0
 10
-389.027
 20
386.519
 11
-389.073
 21
386.336
  0
LINE
  8
0
 10
-389.073
 20
386.336
 11
-389.143
 21
386.161
  0
LINE
  8
0
 10
-389.143
 20
386.161
 11
-389.234
 21
385.996
  0
LINE
  8
0
 10
-389.234
 20
385.996
 11
-389.344
 21
385.844
  0
LINE
  8
0
 10
-389.344
 20
385.844
 11
-389.473
 21
385.707
  0
LINE
  8
0
 10
-389.473
 20
385.707
 11
-389.618
 21
385.586
  0
LINE
  8
0
 10
-389.618
 20
385.586
 11
-389.777
 21
385.486
  0
LINE
  8
0
 10
-389.777
 20
385.486
 11
-389.948
 21
385.405
  0
LINE
  8
0
 10
-389.948
 20
385.405
 11
-390.127
 21
385.347
  0
LINE
  8
0
 10
-390.127
 20
385.347
 11
-390.312
 21
385.312
  0
LINE
  8
0
 10
-390.312
 20
385.312
 11
-390.5
 21
385.3
  0
LINE
  8
0
 10
-390.5
 20
385.3
 11
-390.688
 21
385.312
  0
LINE
  8
0
 10
-359.688
 20
385.312
 11
-359.873
 21
385.347
  0
LINE
  8
0
 10
-359.873
 20
385.347
 11
-360.052
 21
385.405
  0
LINE
  8
0
 10
-360.052
 20
385.405
 11
-360.223
 21
385.486
  0
LINE
  8
0
 10
-360.223
 20
385.486
 11
-360.382
 21
385.586
  0
LINE
  8
0
 10
-360.382
 20
385.586
 11
-360.527
 21
385.707
  0
LINE
  8
0
 10
-360.527
 20
385.707
 11
-360.656
 21
385.844
  0
LINE
  8
0
 10
-360.656
 20
385.844
 11
-360.766
 21
385.996
  0
LINE
  8
0
 10
-360.766
 20
385.996
 11
-360.857
 21
386.161
  0
LINE
  8
0
 10
-360.857
 20
386.161
 11
-360.927
 21
386.336
  0
LINE
  8
0
 10
-360.927
 20
386.336
 11
-360.973
 21
386.519
  0
LINE
  8
0
 10
-360.973
 20
386.519
 11
-360.997
 21
386.706
  0
LINE
  8
0
 10
-360.997
 20
386.706
 11
-360.997
 21
386.894
  0
LINE
  8
0
 10
-360.997
 20
386.894
 11
-360.973
 21
387.081
  0
LINE
  8
0
 10
-360.973
 20
387.081
 11
-360.927
 21
387.264
  0
LINE
  8
0
 10
-360.927
 20
387.264
 11
-360.857
 21
387.439
  0
LINE
  8
0
 10
-360.857
 20
387.439
 11
-360.766
 21
387.604
  0
LINE
  8
0
 10
-360.766
 20
387.604
 11
-360.656
 21
387.756
  0
LINE
  8
0
 10
-360.656
 20
387.756
 11
-360.527
 21
387.893
  0
LINE
  8
0
 10
-360.527
 20
387.893
 11
-360.382
 21
388.014
  0
LINE
  8
0
 10
-360.382
 20
388.014
 11
-360.223
 21
388.114
  0
LINE
  8
0
 10
-360.223
 20
388.114
 11
-360.052
 21
388.195
  0
LINE
  8
0
 10
-360.052
 20
388.195
 11
-359.873
 21
388.253
  0
LINE
  8
0
 10
-359.873
 20
388.253
 11
-359.688
 21
388.288
  0
LINE
  8
0
 10
-359.688
 20
388.288
 11
-359.5
 21
388.3
  0
LINE
  8
0
 10
-359.5
 20
388.3
 11
-359.312
 21
388.288
  0
LINE
  8
0
 10
-359.312
 20
388.288
 11
-359.127
 21
388.253
  0
LINE
  8
0
 10
-359.127
 20
388.253
 11
-358.948
 21
388.195
  0
LINE
  8
0
 10
-358.948
 20
388.195
 11
-358.777
 21
388.114
  0
LINE
  8
0
 10
-358.777
 20
388.114
 11
-358.618
 21
388.014
  0
LINE
  8
0
 10
-358.618
 20
388.014
 11
-358.473
 21
387.893
  0
LINE
  8
0
 10
-358.473
 20
387.893
 11
-358.344
 21
387.756
  0
LINE
  8
0
 10
-358.344
 20
387.756
 11
-358.234
 21
387.604
  0
LINE
  8
0
 10
-358.234
 20
387.604
 11
-358.143
 21
387.439
  0
LINE
  8
0
 10
-358.143
 20
387.439
 11
-358.073
 21
387.264
  0
LINE
  8
0
 10
-358.073
 20
387.264
 11
-358.027
 21
387.081
  0
LINE
  8
0
 10
-358.027
 20
387.081
 11
-358.003
 21
386.894
  0
LINE
  8
0
 10
-358.003
 20
386.894
 11
-358.003
 21
386.706
  0
LINE
  8
0
 10
-358.003
 20
386.706
 11
-358.027
 21
386.519
  0
LINE
  8
0
 10
-358.027
 20
386.519
 11
-358.073
 21
386.336
  0
LINE
  8
0
 10
-358.073
 20
386.336
 11
-358.143
 21
386.161
  0
LINE
  8
0
 10
-358.143
 20
386.161
 11
-358.234
 21
385.996
  0
LINE
  8
0
 10
-358.234
 20
385.996
 11
-358.344
 21
385.844
  0
LINE
  8
0
 10
-358.344
 20
385.844
 11
-358.473
 21
385.707
  0
LINE
  8
0
 10
-358.473
 20
385.707
 11
-358.618
 21
385.586
  0
LINE
  8
0
 10
-358.618
 20
385.586
 11
-358.777
 21
385.486
  0
LINE
  8
0
 10
-358.777
 20
385.486
 11
-358.948
 21
385.405
  0
LINE
  8
0
 10
-358.948
 20
385.405
 11
-359.127
 21
385.347
  0
LINE
  8
0
 10
-359.127
 20
385.347
 11
-359.312
 21
385.312
  0
LINE
  8
0
 10
-359.312
 20
385.312
 11
-359.5
 21
385.3
  0
LINE
  8
0
 10
-359.5
 20
385.3
 11
-359.688
 21
385.312
  0
LINE
  8
0
 10
500
 20
-50
 11
0
 21
-50
  0
LINE
  8
0
 10
0
 20
-50
 11
0
 21
-130
  0
LINE
  8
0
 10
0
 20
-130
 11
500
 21
-130
  0
LINE
  8
0
 10
500
 20
-130
 11
500
 21
-50
  0
LINE
  8
0
 10
249.309
 20
-95.9783
 11
247.939
 21
-95.8052
  0
LINE
  8
0
 10
247.939
 20
-95.8052
 11
246.601
 21
-95.4616
  0
LINE
  8
0
 10
246.601
 20
-95.4616
 11
245.316
 21
-94.9531
  0
LINE
  8
0
 10
245.316
 20
-94.9531
 11
244.106
 21
-94.2876
  0
LINE
  8
0
 10
244.106
 20
-94.2876
 11
242.988
 21
-93.4756
  0
LINE
  8
0
 10
242.988
 20
-93.4756
 11
241.981
 21
-92.53
  0
LINE
  8
0
 10
241.981
 20
-92.53
 11
241.101
 21
-91.4656
  0
LINE
  8
0
 10
241.101
 20
-91.4656
 11
240.361
 21
-90.2993
  0
LINE
  8
0
 10
240.361
 20
-90.2993
 11
239.772
 21
-89.0494
  0
LINE
  8
0
 10
239.772
 20
-89.0494
 11
239.346
 21
-87.7356
  0
LINE
  8
0
 10
239.346
 20
-87.7356
 11
239.087
 21
-86.3787
  0
LINE
  8
0
 10
239.087
 20
-86.3787
 11
239
 21
-85
  0
LINE
  8
0
 10
239
 20
-85
 11
239.087
 21
-83.6213
  0
LINE
  8
0
 10
239.087
 20
-83.6213
 11
239.346
 21
-82.2644
  0
LINE
  8
0
 10
239.346
 20
-82.2644
 11
239.772
 21
-80.9506
  0
LINE
  8
0
 10
239.772
 20
-80.9506
 11
240.361
 21
-79.7007
  0
LINE
  8
0
 10
240.361
 20
-79.7007
 11
241.101
 21
-78.5344
  0
LINE
  8
0
 10
241.101
 20
-78.5344
 11
241.981
 21
-77.47
  0
LINE
  8
0
 10
241.981
 20
-77.47
 11
242.988
 21
-76.5244
  0
LINE
  8
0
 10
242.988
 20
-76.5244
 11
244.106
 21
-75.7124
  0
LINE
  8
0
 10
244.106
 20
-75.7124
 11
245.316
 21
-75.0469
  0
LINE
  8
0
 10
245.316
 20
-75.0469
 11
246.601
 21
-74.5384
  0
LINE
  8
0
 10
246.601
 20
-74.5384
 11
247.939
 21
-74.1948
  0
LINE
  8
0
 10
247.939
 20
-74.1948
 11
249.309
 21
-74.0217
  0
LINE
  8
0
 10
249.309
 20
-74.0217
 11
250.691
 21
-74.0217
  0
LINE
  8
0
 10
250.691
 20
-74.0217
 11
252.061
 21
-74.1948
  0
LINE
  8
0
 10
252.061
 20
-74.1948
 11
253.399
 21
-74.5384
  0
LINE
  8
0
 10
253.399
 20
-74.5384
 11
254.684
 21
-75.0469
  0
LINE
  8
0
 10
254.684
 20
-75.0469
 11
255.894
 21
-75.7124
  0
LINE
  8
0
 10
255.894
 20
-75.7124
 11
257.012
 21
-76.5244
  0
LINE
  8
0
 10
257.012
 20
-76.5244
 11
258.019
 21
-77.47
  0
LINE
  8
0
 10
258.019
 20
-77.47
 11
258.899
 21
-78.5344
  0
LINE
  8
0
 10
258.899
 20
-78.5344
 11
259.639
 21
-79.7007
  0
LINE
  8
0
 10
259.639
 20
-79.7007
 11
260.228
 21
-80.9506
  0
LINE
  8
0
 10
260.228
 20
-80.9506
 11
260.654
 21
-82.2644
  0
LINE
  8
0
 10
260.654
 20
-82.2644
 11
260.913
 21
-83.6213
  0
LINE
  8
0
 10
260.913
 20
-83.6213
 11
261
 21
-85
  0
LINE
  8
0
 10
261
 20
-85
 11
260.913
 21
-86.3787
  0
LINE
  8
0
 10
260.913
 20
-86.3787
 11
260.654
 21
-87.7356
  0
LINE
  8
0
 10
260.654
 20
-87.7356
 11
260.228
 21
-89.0494
  0
LINE
  8
0
 10
260.228
 20
-89.0494
 11
259.639
 21
-90.2993
  0
LINE
  8
0
 10
259.639
 20
-90.2993
 11
258.899
 21
-91.4656
  0
LINE
  8
0
 10
258.899
 20
-91.4656
 11
258.019
 21
-92.53
  0
LINE
  8
0
 10
258.019
 20
-92.53
 11
257.012
 21
-93.4756
  0
LINE
  8
0
 10
257.012
 20
-93.4756
 11
255.894
 21
-94.2876
  0
LINE
  8
0
 10
255.894
 20
-94.2876
 11
254.684
 21
-94.9531
  0
LINE
  8
0
 10
254.684
 20
-94.9531
 11
253.399
 21
-95.4616
  0
LINE
  8
0
 10
253.399
 20
-95.4616
 11
252.061
 21
-95.8052
  0
LINE
  8
0
 10
252.061
 20
-95.8052
 11
250.691
 21
-95.9783
  0
LINE
  8
0
 10
250.691
 20
-95.9783
 11
249.309
 21
-95.9783
  0
LINE
  8
0
 10
333.082
 20
-93.9921
 11
332.584
 21
-93.9291
  0
LINE
  8
0
 10
332.584
 20
-93.9291
 11
332.097
 21
-93.8042
  0
LINE
  8
0
 10
332.097
 20
-93.8042
 11
331.63
 21
-93.6193
  0
LINE
  8
0
 10
331.63
 20
-93.6193
 11
331.19
 21
-93.3773
  0
LINE
  8
0
 10
331.19
 20
-93.3773
 11
330.784
 21
-93.082
  0
LINE
  8
0
 10
330.784
 20
-93.082
 11
330.417
 21
-92.7382
  0
LINE
  8
0
 10
330.417
 20
-92.7382
 11
330.097
 21
-92.3511
  0
LINE
  8
0
 10
330.097
 20
-92.3511
 11
329.828
 21
-91.927
  0
LINE
  8
0
 10
329.828
 20
-91.927
 11
329.614
 21
-91.4725
  0
LINE
  8
0
 10
329.614
 20
-91.4725
 11
329.459
 21
-90.9948
  0
LINE
  8
0
 10
329.459
 20
-90.9948
 11
329.365
 21
-90.5013
  0
LINE
  8
0
 10
329.365
 20
-90.5013
 11
329.333
 21
-90
  0
LINE
  8
0
 10
329.333
 20
-90
 11
329.365
 21
-89.4987
  0
LINE
  8
0
 10
329.365
 20
-89.4987
 11
329.459
 21
-89.0052
  0
LINE
  8
0
 10
329.459
 20
-89.0052
 11
329.614
 21
-88.5275
  0
LINE
  8
0
 10
329.614
 20
-88.5275
 11
329.828
 21
-88.073
  0
LINE
  8
0
 10
329.828
 20
-88.073
 11
330.097
 21
-87.6488
  0
LINE
  8
0
 10
330.097
 20
-87.6488
 11
330.417
 21
-87.2618
  0
LINE
  8
0
 10
330.417
 20
-87.2618
 11
330.784
 21
-86.9179
  0
LINE
  8
0
 10
330.784
 20
-86.9179
 11
331.19
 21
-86.6227
  0
LINE
  8
0
 10
331.19
 20
-86.6227
 11
331.63
 21
-86.3807
  0
LINE
  8
0
 10
331.63
 20
-86.3807
 11
332.097
 21
-86.1958
  0
LINE
  8
0
 10
332.097
 20
-86.1958
 11
332.584
 21
-86.0708
  0
LINE
  8
0
 10
332.584
 20
-86.0708
 11
333.082
 21
-86.0079
  0
LINE
  8
0
 10
333.082
 20
-86.0079
 11
333.585
 21
-86.0079
  0
LINE
  8
0
 10
333.585
 20
-86.0079
 11
334.083
 21
-86.0708
  0
LINE
  8
0
 10
334.083
 20
-86.0708
 11
334.569
 21
-86.1958
  0
LINE
  8
0
 10
334.569
 20
-86.1958
 11
335.036
 21
-86.3807
  0
LINE
  8
0
 10
335.036
 20
-86.3807
 11
335.477
 21
-86.6227
  0
LINE
  8
0
 10
335.477
 20
-86.6227
 11
335.883
 21
-86.9179
  0
LINE
  8
0
 10
335.883
 20
-86.9179
 11
336.249
 21
-87.2618
  0
LINE
  8
0
 10
336.249
 20
-87.2618
 11
336.569
 21
-87.6488
  0
LINE
  8
0
 10
336.569
 20
-87.6488
 11
336.839
 21
-88.073
  0
LINE
  8
0
 10
336.839
 20
-88.073
 11
337.052
 21
-88.5275
  0
LINE
  8
0
 10
337.052
 20
-88.5275
 11
337.208
 21
-89.0052
  0
LINE
  8
0
 10
337.208
 20
-89.0052
 11
337.302
 21
-89.4987
  0
LINE
  8
0
 10
337.302
 20
-89.4987
 11
337.333
 21
-90
  0
LINE
  8
0
 10
337.333
 20
-90
 11
337.302
 21
-90.5013
  0
LINE
  8
0
 10
337.302
 20
-90.5013
 11
337.208
 21
-90.9948
  0
LINE
  8
0
 10
337.208
 20
-90.9948
 11
337.052
 21
-91.4725
  0
LINE
  8
0
 10
337.052
 20
-91.4725
 11
336.839
 21
-91.927
  0
LINE
  8
0
 10
336.839
 20
-91.927
 11
336.569
 21
-92.3511
  0
LINE
  8
0
 10
336.569
 20
-92.3511
 11
336.249
 21
-92.7382
  0
LINE
  8
0
 10
336.249
 20
-92.7382
 11
335.883
 21
-93.082
  0
LINE
  8
0
 10
335.883
 20
-93.082
 11
335.477
 21
-93.3773
  0
LINE
  8
0
 10
335.477
 20
-93.3773
 11
335.036
 21
-93.6193
  0
LINE
  8
0
 10
335.036
 20
-93.6193
 11
334.569
 21
-93.8042
  0
LINE
  8
0
 10
334.569
 20
-93.8042
 11
334.083
 21
-93.9291
  0
LINE
  8
0
 10
334.083
 20
-93.9291
 11
333.585
 21
-93.9921
  0
LINE
  8
0
 10
333.585
 20
-93.9921
 11
333.082
 21
-93.9921
  0
LINE
  8
0
 10
166.415
 20
-93.9921
 11
165.917
 21
-93.9291
  0
LINE
  8
0
 10
165.917
 20
-93.9291
 11
165.431
 21
-93.8042
  0
LINE
  8
0
 10
165.431
 20
-93.8042
 11
164.964
 21
-93.6193
  0
LINE
  8
0
 10
164.964
 20
-93.6193
 11
164.523
 21
-93.3773
  0
LINE
  8
0
 10
164.523
 20
-93.3773
 11
164.117
 21
-93.082
  0
LINE
  8
0
 10
164.117
 20
-93.082
 11
163.751
 21
-92.7382
  0
LINE
  8
0
 10
163.751
 20
-92.7382
 11
163.431
 21
-92.3511
  0
LINE
  8
0
 10
163.431
 20
-92.3511
 11
163.161
 21
-91.927
  0
LINE
  8
0
 10
163.161
 20
-91.927
 11
162.948
 21
-91.4725
  0
LINE
  8
0
 10
162.948
 20
-91.4725
 11
162.792
 21
-90.9948
  0
LINE
  8
0
 10
162.792
 20
-90.9948
 11
162.698
 21
-90.5013
  0
LINE
  8
0
 10
162.698
 20
-90.5013
 11
162.667
 21
-90
  0
LINE
  8
0
 10
162.667
 20
-90
 11
162.698
 21
-89.4987
  0
LINE
  8
0
 10
162.698
 20
-89.4987
 11
162.792
 21
-89.0052
  0
LINE
  8
0
 10
162.792
 20
-89.0052
 11
162.948
 21
-88.5275
  0
LINE
  8
0
 10
162.948
 20
-88.5275
 11
163.161
 21
-88.073
  0
LINE
  8
0
 10
163.161
 20
-88.073
 11
163.431
 21
-87.6488
  0
LINE
  8
0
 10
163.431
 20
-87.6488
 11
163.751
 21
-87.2618
  0
LINE
  8
0
 10
163.751
 20
-87.2618
 11
164.117
 21
-86.9179
  0
LINE
  8
0
 10
164.117
 20
-86.9179
 11
164.523
 21
-86.6227
  0
LINE
  8
0
 10
164.523
 20
-86.6227
 11
164.964
 21
-86.3807
  0
LINE
  8
0
 10
164.964
 20
-86.3807
 11
165.431
 21
-86.1958
  0
LINE
  8
0
 10
165.431
 20
-86.1958
 11
165.917
 21
-86.0708
  0
LINE
  8
0
 10
165.917
 20
-86.0708
 11
166.415
 21
-86.0079
  0
LINE
  8
0
 10
166.415
 20
-86.0079
 11
166.918
 21
-86.0079
  0
LINE
  8
0
 10
166.918
 20
-86.0079
 11
167.416
 21
-86.0708
  0
LINE
  8
0
 10
167.416
 20
-86.0708
 11
167.903
 21
-86.1958
  0
LINE
  8
0
 10
167.903
 20
-86.1958
 11
168.37
 21
-86.3807
  0
LINE
  8
0
 10
168.37
 20
-86.3807
 11
168.81
 21
-86.6227
  0
LINE
  8
0
 10
168.81
 20
-86.6227
 11
169.216
 21
-86.9179
  0
LINE
  8
0
 10
169.216
 20
-86.9179
 11
169.583
 21
-87.2618
  0
LINE
  8
0
 10
169.583
 20
-87.2618
 11
169.903
 21
-87.6488
  0
LINE
  8
0
 10
169.903
 20
-87.6488
 11
170.172
 21
-88.073
  0
LINE
  8
0
 10
170.172
 20
-88.073
 11
170.386
 21
-88.5275
  0
LINE
  8
0
 10
170.386
 20
-88.5275
 11
170.541
 21
-89.0052
  0
LINE
  8
0
 10
170.541
 20
-89.0052
 11
170.635
 21
-89.4987
  0
LINE
  8
0
 10
170.635
 20
-89.4987
 11
170.667
 21
-90
  0
LINE
  8
0
 10
170.667
 20
-90
 11
170.635
 21
-90.5013
  0
LINE
  8
0
 10
170.635
 20
-90.5013
 11
170.541
 21
-90.9948
  0
LINE
  8
0
 10
170.541
 20
-90.9948
 11
170.386
 21
-91.4725
  0
LINE
  8
0
 10
170.386
 20
-91.4725
 11
170.172
 21
-91.927
  0
LINE
  8
0
 10
170.172
 20
-91.927
 11
169.903
 21
-92.3511
  0
LINE
  8
0
 10
169.903
 20
-92.3511
 11
169.583
 21
-92.7382
  0
LINE
  8
0
 10
169.583
 20
-92.7382
 11
169.216
 21
-93.082
  0
LINE
  8
0
 10
169.216
 20
-93.082
 11
168.81
 21
-93.3773
  0
LINE
  8
0
 10
168.81
 20
-93.3773
 11
168.37
 21
-93.6193
  0
LINE
  8
0
 10
168.37
 20
-93.6193
 11
167.903
 21
-93.8042
  0
LINE
  8
0
 10
167.903
 20
-93.8042
 11
167.416
 21
-93.9291
  0
LINE
  8
0
 10
167.416
 20
-93.9291
 11
166.918
 21
-93.9921
  0
LINE
  8
0
 10
166.918
 20
-93.9921
 11
166.415
 21
-93.9921
  0
LINE
  8
0
 10
457.3
 20
-162.7
 11
42.7
 21
-162.7
  0
LINE
  8
0
 10
42.7
 20
-162.7
 11
42.7
 21
-400
  0
LINE
  8
0
 10
42.7
 20
-400
 11
457.3
 21
-400
  0
LINE
  8
0
 10
457.3
 20
-400
 11
457.3
 21
-162.7
  0
LINE
  8
0
 10
164.7
 20
-196.7
 11
164.7
 21
-172.7
  0
LINE
  8
0
 10
164.7
 20
-172.7
 11
174.7
 21
-172.7
  0
LINE
  8
0
 10
174.7
 20
-172.7
 11
174.7
 21
-196.7
  0
LINE
  8
0
 10
174.7
 20
-196.7
 11
164.7
 21
-196.7
  0
LINE
  8
0
 10
325.3
 20
-196.7
 11
325.3
 21
-172.7
  0
LINE
  8
0
 10
325.3
 20
-172.7
 11
335.3
 21
-172.7
  0
LINE
  8
0
 10
335.3
 20
-172.7
 11
335.3
 21
-196.7
  0
LINE
  8
0
 10
335.3
 20
-196.7
 11
325.3
 21
-196.7
  0
LINE
  8
0
 10
164.7
 20
-390
 11
164.7
 21
-366
  0
LINE
  8
0
 10
164.7
 20
-366
 11
174.7
 21
-366
  0
LINE
  8
0
 10
174.7
 20
-366
 11
174.7
 21
-390
  0
LINE
  8
0
 10
174.7
 20
-390
 11
164.7
 21
-390
  0
LINE
  8
0
 10
325.3
 20
-390
 11
325.3
 21
-366
  0
LINE
  8
0
 10
325.3
 20
-366
 11
335.3
 21
-366
  0
LINE
  8
0
 10
335.3
 20
-366
 11
335.3
 21
-390
  0
LINE
  8
0
 10
335.3
 20
-390
 11
325.3
 21
-390
  0
ENDSEC
  0
SECTION
  2
OBJECTS
  0
DICTIONARY
  0
ENDSEC
  0
EOF
