  0
SECTION
  2
BLOCKS
  0
ENDSEC
  0
SECTION
  2
ENTITIES
  0
LINE
  8
0
 10
500
 20
1100
 11
0
 21
1100
  0
LINE
  8
0
 10
0
 20
1100
 11
0
 21
600
  0
LINE
  8
0
 10
0
 20
600
 11
500
 21
600
  0
LINE
  8
0
 10
500
 20
600
 11
500
 21
1100
  0
LINE
  8
0
 10
-50
 20
1060
 11
-150
 21
1060
  0
LINE
  8
0
 10
-150
 20
1060
 11
-150
 21
1000
  0
LINE
  8
0
 10
-150
 20
1000
 11
-50
 21
1000
  0
LINE
  8
0
 10
-50
 20
1000
 11
-50
 21
1060
  0
LINE
  8
0
 10
-100.621
 20
1024.02
 11
-101.117
 21
1024.06
  0
LINE
  8
0
 10
-101.117
 20
1024.06
 11
-101.61
 21
1024.12
  0
LINE
  8
0
 10
-101.61
 20
1024.12
 11
-102.1
 21
1024.2
  0
LINE
  8
0
 10
-102.1
 20
1024.2
 11
-102.586
 21
1024.31
  0
LINE
  8
0
 10
-102.586
 20
1024.31
 11
-103.067
 21
1024.44
  0
LINE
  8
0
 10
-103.067
 20
1024.44
 11
-103.541
 21
1024.59
  0
LINE
  8
0
 10
-103.541
 20
1024.59
 11
-104.008
 21
1024.76
  0
LINE
  8
0
 10
-104.008
 20
1024.76
 11
-104.467
 21
1024.95
  0
LINE
  8
0
 10
-104.467
 20
1024.95
 11
-104.916
 21
1025.16
  0
LINE
  8
0
 10
-104.916
 20
1025.16
 11
-105.356
 21
1025.39
  0
LINE
  8
0
 10
-105.356
 20
1025.39
 11
-105.785
 21
1025.64
  0
LINE
  8
0
 10
-105.785
 20
1025.64
 11
-106.201
 21
1025.91
  0
LINE
  8
0
 10
-106.201
 20
1025.91
 11
-106.606
 21
1026.2
  0
LINE
  8
0
 10
-106.606
 20
1026.2
 11
-106.996
 21
1026.51
  0
LINE
  8
0
 10
-106.996
 20
1026.51
 11
-107.373
 21
1026.84
  0
LINE
  8
0
 10
-107.373
 20
1026.84
 11
-107.734
 21
1027.18
  0
LINE
  8
0
 10
-107.734
 20
1027.18
 11
-108.08
 21
1027.54
  0
LINE
  8
0
 10
-108.08
 20
1027.54
 11
-108.409
 21
1027.91
  0
LINE
  8
0
 10
-108.409
 20
1027.91
 11
-108.721
 21
1028.3
  0
LINE
  8
0
 10
-108.721
 20
1028.3
 11
-109.015
 21
1028.7
  0
LINE
  8
0
 10
-109.015
 20
1028.7
 11
-109.29
 21
1029.11
  0
LINE
  8
0
 10
-109.29
 20
1029.11
 11
-109.547
 21
1029.54
  0
LINE
  8
0
 10
-109.547
 20
1029.54
 11
-109.784
 21
1029.97
  0
LINE
  8
0
 10
-109.784
 20
1029.97
 11
-110.001
 21
1030.42
  0
LINE
  8
0
 10
-110.001
 20
1030.42
 11
-110.198
 21
1030.88
  0
LINE
  8
0
 10
-110.198
 20
1030.88
 11
-110.374
 21
1031.34
  0
LINE
  8
0
 10
-110.374
 20
1031.34
 11
-110.529
 21
1031.81
  0
LINE
  8
0
 10
-110.529
 20
1031.81
 11
-110.662
 21
1032.29
  0
LINE
  8
0
 10
-110.662
 20
1032.29
 11
-110.773
 21
1032.78
  0
LINE
  8
0
 10
-110.773
 20
1032.78
 11
-110.863
 21
1033.27
  0
LINE
  8
0
 10
-110.863
 20
1033.27
 11
-110.93
 21
1033.76
  0
LINE
  8
0
 10
-110.93
 20
1033.76
 11
-110.975
 21
1034.25
  0
LINE
  8
0
 10
-110.975
 20
1034.25
 11
-110.997
 21
1034.75
  0
LINE
  8
0
 10
-110.997
 20
1034.75
 11
-110.997
 21
1035.25
  0
LINE
  8
0
 10
-110.997
 20
1035.25
 11
-110.975
 21
1035.75
  0
LINE
  8
0
 10
-110.975
 20
1035.75
 11
-110.93
 21
1036.24
  0
LINE
  8
0
 10
-110.93
 20
1036.24
 11
-110.863
 21
1036.73
  0
LINE
  8
0
 10
-110.863
 20
1036.73
 11
-110.773
 21
1037.22
  0
LINE
  8
0
 10
-110.773
 20
1037.22
 11
-110.662
 21
1037.71
  0
LINE
  8
0
 10
-110.662
 20
1037.71
 11
-110.529
 21
1038.19
  0
LINE
  8
0
 10
-110.529
 20
1038.19
 11
-110.374
 21
1038.66
  0
LINE
  8
0
 10
-110.374
 20
1038.66
 11
-110.198
 21
1039.12
  0
LINE
  8
0
 10
-110.198
 20
1039.12
 11
-110.001
 21
1039.58
  0
LINE
  8
0
 10
-110.001
 20
1039.58
 11
-109.784
 21
1040.03
  0
LINE
  8
0
 10
-109.784
 20
1040.03
 11
-109.547
 21
1040.46
  0
LINE
  8
0
 10
-109.547
 20
1040.46
 11
-109.29
 21
1040.89
  0
LINE
  8
0
 10
-109.29
 20
1040.89
 11
-109.015
 21
1041.3
  0
LINE
  8
0
 10
-109.015
 20
1041.3
 11
-108.721
 21
1041.7
  0
LINE
  8
0
 10
-108.721
 20
1041.7
 11
-108.409
 21
1042.09
  0
LINE
  8
0
 10
-108.409
 20
1042.09
 11
-108.08
 21
1042.46
  0
LINE
  8
0
 10
-108.08
 20
1042.46
 11
-107.734
 21
1042.82
  0
LINE
  8
0
 10
-107.734
 20
1042.82
 11
-107.373
 21
1043.16
  0
LINE
  8
0
 10
-107.373
 20
1043.16
 11
-106.996
 21
1043.49
  0
LINE
  8
0
 10
-106.996
 20
1043.49
 11
-106.606
 21
1043.8
  0
LINE
  8
0
 10
-106.606
 20
1043.8
 11
-106.201
 21
1044.09
  0
LINE
  8
0
 10
-106.201
 20
1044.09
 11
-105.785
 21
1044.36
  0
LINE
  8
0
 10
-105.785
 20
1044.36
 11
-105.356
 21
1044.61
  0
LINE
  8
0
 10
-105.356
 20
1044.61
 11
-104.916
 21
1044.84
  0
LINE
  8
0
 10
-104.916
 20
1044.84
 11
-104.467
 21
1045.05
  0
LINE
  8
0
 10
-104.467
 20
1045.05
 11
-104.008
 21
1045.24
  0
LINE
  8
0
 10
-104.008
 20
1045.24
 11
-103.541
 21
1045.41
  0
LINE
  8
0
 10
-103.541
 20
1045.41
 11
-103.067
 21
1045.56
  0
LINE
  8
0
 10
-103.067
 20
1045.56
 11
-102.586
 21
1045.69
  0
LINE
  8
0
 10
-102.586
 20
1045.69
 11
-102.1
 21
1045.8
  0
LINE
  8
0
 10
-102.1
 20
1045.8
 11
-101.61
 21
1045.88
  0
LINE
  8
0
 10
-101.61
 20
1045.88
 11
-101.117
 21
1045.94
  0
LINE
  8
0
 10
-101.117
 20
1045.94
 11
-100.621
 21
1045.98
  0
LINE
  8
0
 10
-100.621
 20
1045.98
 11
-100.124
 21
1046
  0
LINE
  8
0
 10
-100.124
 20
1046
 11
-99.6272
 21
1045.99
  0
LINE
  8
0
 10
-99.6272
 20
1045.99
 11
-99.1308
 21
1045.97
  0
LINE
  8
0
 10
-99.1308
 20
1045.97
 11
-98.6361
 21
1045.92
  0
LINE
  8
0
 10
-98.6361
 20
1045.92
 11
-98.1443
 21
1045.84
  0
LINE
  8
0
 10
-98.1443
 20
1045.84
 11
-97.6563
 21
1045.75
  0
LINE
  8
0
 10
-97.6563
 20
1045.75
 11
-97.173
 21
1045.63
  0
LINE
  8
0
 10
-97.173
 20
1045.63
 11
-96.6955
 21
1045.49
  0
LINE
  8
0
 10
-96.6955
 20
1045.49
 11
-96.2248
 21
1045.33
  0
LINE
  8
0
 10
-96.2248
 20
1045.33
 11
-95.7618
 21
1045.15
  0
LINE
  8
0
 10
-95.7618
 20
1045.15
 11
-95.3074
 21
1044.95
  0
LINE
  8
0
 10
-95.3074
 20
1044.95
 11
-94.8627
 21
1044.73
  0
LINE
  8
0
 10
-94.8627
 20
1044.73
 11
-94.4284
 21
1044.48
  0
LINE
  8
0
 10
-94.4284
 20
1044.48
 11
-94.0055
 21
1044.22
  0
LINE
  8
0
 10
-94.0055
 20
1044.22
 11
-93.5948
 21
1043.94
  0
LINE
  8
0
 10
-93.5948
 20
1043.94
 11
-93.1973
 21
1043.64
  0
LINE
  8
0
 10
-93.1973
 20
1043.64
 11
-92.8136
 21
1043.33
  0
LINE
  8
0
 10
-92.8136
 20
1043.33
 11
-92.4446
 21
1042.99
  0
LINE
  8
0
 10
-92.4446
 20
1042.99
 11
-92.0911
 21
1042.65
  0
LINE
  8
0
 10
-92.0911
 20
1042.65
 11
-91.7537
 21
1042.28
  0
LINE
  8
0
 10
-91.7537
 20
1042.28
 11
-91.4332
 21
1041.9
  0
LINE
  8
0
 10
-91.4332
 20
1041.9
 11
-91.1301
 21
1041.51
  0
LINE
  8
0
 10
-91.1301
 20
1041.51
 11
-90.8452
 21
1041.1
  0
LINE
  8
0
 10
-90.8452
 20
1041.1
 11
-90.579
 21
1040.68
  0
LINE
  8
0
 10
-90.579
 20
1040.68
 11
-90.332
 21
1040.25
  0
LINE
  8
0
 10
-90.332
 20
1040.25
 11
-90.1048
 21
1039.8
  0
LINE
  8
0
 10
-90.1048
 20
1039.8
 11
-89.8978
 21
1039.35
  0
LINE
  8
0
 10
-89.8978
 20
1039.35
 11
-89.7114
 21
1038.89
  0
LINE
  8
0
 10
-89.7114
 20
1038.89
 11
-89.5461
 21
1038.42
  0
LINE
  8
0
 10
-89.5461
 20
1038.42
 11
-89.4021
 21
1037.95
  0
LINE
  8
0
 10
-89.4021
 20
1037.95
 11
-89.2798
 21
1037.47
  0
LINE
  8
0
 10
-89.2798
 20
1037.47
 11
-89.1793
 21
1036.98
  0
LINE
  8
0
 10
-89.1793
 20
1036.98
 11
-89.101
 21
1036.49
  0
LINE
  8
0
 10
-89.101
 20
1036.49
 11
-89.0449
 21
1035.99
  0
LINE
  8
0
 10
-89.0449
 20
1035.99
 11
-89.0112
 21
1035.5
  0
LINE
  8
0
 10
-89.0112
 20
1035.5
 11
-89
 21
1035
  0
LINE
  8
0
 10
-89
 20
1035
 11
-89.0112
 21
1034.5
  0
LINE
  8
0
 10
-89.0112
 20
1034.5
 11
-89.0449
 21
1034.01
  0
LINE
  8
0
 10
-89.0449
 20
1034.01
 11
-89.101
 21
1033.51
  0
LINE
  8
0
 10
-89.101
 20
1033.51
 11
-89.1793
 21
1033.02
  0
LINE
  8
0
 10
-89.1793
 20
1033.02
 11
-89.2798
 21
1032.53
  0
LINE
  8
0
 10
-89.2798
 20
1032.53
 11
-89.4021
 21
1032.05
  0
LINE
  8
0
 10
-89.4021
 20
1032.05
 11
-89.5461
 21
1031.58
  0
LINE
  8
0
 10
-89.5461
 20
1031.58
 11
-89.7114
 21
1031.11
  0
LINE
  8
0
 10
-89.7114
 20
1031.11
 11
-89.8978
 21
1030.65
  0
LINE
  8
0
 10
-89.8978
 20
1030.65
 11
-90.1048
 21
1030.2
  0
LINE
  8
0
 10
-90.1048
 20
1030.2
 11
-90.332
 21
1029.75
  0
LINE
  8
0
 10
-90.332
 20
1029.75
 11
-90.579
 21
1029.32
  0
LINE
  8
0
 10
-90.579
 20
1029.32
 11
-90.8452
 21
1028.9
  0
LINE
  8
0
 10
-90.8452
 20
1028.9
 11
-91.1301
 21
1028.49
  0
LINE
  8
0
 10
-91.1301
 20
1028.49
 11
-91.4332
 21
1028.1
  0
LINE
  8
0
 10
-91.4332
 20
1028.1
 11
-91.7537
 21
1027.72
  0
LINE
  8
0
 10
-91.7537
 20
1027.72
 11
-92.0911
 21
1027.35
  0
LINE
  8
0
 10
-92.0911
 20
1027.35
 11
-92.4446
 21
1027.01
  0
LINE
  8
0
 10
-92.4446
 20
1027.01
 11
-92.8136
 21
1026.67
  0
LINE
  8
0
 10
-92.8136
 20
1026.67
 11
-93.1973
 21
1026.36
  0
LINE
  8
0
 10
-93.1973
 20
1026.36
 11
-93.5948
 21
1026.06
  0
LINE
  8
0
 10
-93.5948
 20
1026.06
 11
-94.0055
 21
1025.78
  0
LINE
  8
0
 10
-94.0055
 20
1025.78
 11
-94.4284
 21
1025.52
  0
LINE
  8
0
 10
-94.4284
 20
1025.52
 11
-94.8627
 21
1025.27
  0
LINE
  8
0
 10
-94.8627
 20
1025.27
 11
-95.3074
 21
1025.05
  0
LINE
  8
0
 10
-95.3074
 20
1025.05
 11
-95.7618
 21
1024.85
  0
LINE
  8
0
 10
-95.7618
 20
1024.85
 11
-96.2248
 21
1024.67
  0
LINE
  8
0
 10
-96.2248
 20
1024.67
 11
-96.6955
 21
1024.51
  0
LINE
  8
0
 10
-96.6955
 20
1024.51
 11
-97.173
 21
1024.37
  0
LINE
  8
0
 10
-97.173
 20
1024.37
 11
-97.6563
 21
1024.25
  0
LINE
  8
0
 10
-97.6563
 20
1024.25
 11
-98.1443
 21
1024.16
  0
LINE
  8
0
 10
-98.1443
 20
1024.16
 11
-98.6361
 21
1024.08
  0
LINE
  8
0
 10
-98.6361
 20
1024.08
 11
-99.1308
 21
1024.03
  0
LINE
  8
0
 10
-99.1308
 20
1024.03
 11
-99.6272
 21
1024.01
  0
LINE
  8
0
 10
-99.6272
 20
1024.01
 11
-100.124
 21
1024
  0
LINE
  8
0
 10
-100.124
 20
1024
 11
-100.621
 21
1024.02
  0
LINE
  8
0
 10
-130.614
 20
1026.05
 11
-131.095
 21
1026.15
  0
LINE
  8
0
 10
-131.095
 20
1026.15
 11
-131.559
 21
1026.32
  0
LINE
  8
0
 10
-131.559
 20
1026.32
 11
-132
 21
1026.54
  0
LINE
  8
0
 10
-132
 20
1026.54
 11
-132.411
 21
1026.81
  0
LINE
  8
0
 10
-132.411
 20
1026.81
 11
-132.785
 21
1027.13
  0
LINE
  8
0
 10
-132.785
 20
1027.13
 11
-133.116
 21
1027.49
  0
LINE
  8
0
 10
-133.116
 20
1027.49
 11
-133.401
 21
1027.89
  0
LINE
  8
0
 10
-133.401
 20
1027.89
 11
-133.634
 21
1028.33
  0
LINE
  8
0
 10
-133.634
 20
1028.33
 11
-133.812
 21
1028.79
  0
LINE
  8
0
 10
-133.812
 20
1028.79
 11
-133.932
 21
1029.27
  0
LINE
  8
0
 10
-133.932
 20
1029.27
 11
-133.992
 21
1029.75
  0
LINE
  8
0
 10
-133.992
 20
1029.75
 11
-133.992
 21
1030.25
  0
LINE
  8
0
 10
-133.992
 20
1030.25
 11
-133.932
 21
1030.73
  0
LINE
  8
0
 10
-133.932
 20
1030.73
 11
-133.812
 21
1031.21
  0
LINE
  8
0
 10
-133.812
 20
1031.21
 11
-133.634
 21
1031.67
  0
LINE
  8
0
 10
-133.634
 20
1031.67
 11
-133.401
 21
1032.11
  0
LINE
  8
0
 10
-133.401
 20
1032.11
 11
-133.116
 21
1032.51
  0
LINE
  8
0
 10
-133.116
 20
1032.51
 11
-132.785
 21
1032.87
  0
LINE
  8
0
 10
-132.785
 20
1032.87
 11
-132.411
 21
1033.19
  0
LINE
  8
0
 10
-132.411
 20
1033.19
 11
-132
 21
1033.46
  0
LINE
  8
0
 10
-132
 20
1033.46
 11
-131.559
 21
1033.68
  0
LINE
  8
0
 10
-131.559
 20
1033.68
 11
-131.095
 21
1033.85
  0
LINE
  8
0
 10
-131.095
 20
1033.85
 11
-130.614
 21
1033.95
  0
LINE
  8
0
 10
-130.614
 20
1033.95
 11
-130.123
 21
1034
  0
LINE
  8
0
 10
-130.123
 20
1034
 11
-129.631
 21
1033.98
  0
LINE
  8
0
 10
-129.631
 20
1033.98
 11
-129.144
 21
1033.91
  0
LINE
  8
0
 10
-129.144
 20
1033.91
 11
-128.671
 21
1033.77
  0
LINE
  8
0
 10
-128.671
 20
1033.77
 11
-128.217
 21
1033.58
  0
LINE
  8
0
 10
-128.217
 20
1033.58
 11
-127.791
 21
1033.33
  0
LINE
  8
0
 10
-127.791
 20
1033.33
 11
-127.398
 21
1033.04
  0
LINE
  8
0
 10
-127.398
 20
1033.04
 11
-127.044
 21
1032.69
  0
LINE
  8
0
 10
-127.044
 20
1032.69
 11
-126.735
 21
1032.31
  0
LINE
  8
0
 10
-126.735
 20
1032.31
 11
-126.476
 21
1031.89
  0
LINE
  8
0
 10
-126.476
 20
1031.89
 11
-126.27
 21
1031.44
  0
LINE
  8
0
 10
-126.27
 20
1031.44
 11
-126.121
 21
1030.98
  0
LINE
  8
0
 10
-126.121
 20
1030.98
 11
-126.03
 21
1030.49
  0
LINE
  8
0
 10
-126.03
 20
1030.49
 11
-126
 21
1030
  0
LINE
  8
0
 10
-126
 20
1030
 11
-126.03
 21
1029.51
  0
LINE
  8
0
 10
-126.03
 20
1029.51
 11
-126.121
 21
1029.02
  0
LINE
  8
0
 10
-126.121
 20
1029.02
 11
-126.27
 21
1028.56
  0
LINE
  8
0
 10
-126.27
 20
1028.56
 11
-126.476
 21
1028.11
  0
LINE
  8
0
 10
-126.476
 20
1028.11
 11
-126.735
 21
1027.69
  0
LINE
  8
0
 10
-126.735
 20
1027.69
 11
-127.044
 21
1027.31
  0
LINE
  8
0
 10
-127.044
 20
1027.31
 11
-127.398
 21
1026.96
  0
LINE
  8
0
 10
-127.398
 20
1026.96
 11
-127.791
 21
1026.67
  0
LINE
  8
0
 10
-127.791
 20
1026.67
 11
-128.217
 21
1026.42
  0
LINE
  8
0
 10
-128.217
 20
1026.42
 11
-128.671
 21
1026.23
  0
LINE
  8
0
 10
-128.671
 20
1026.23
 11
-129.144
 21
1026.09
  0
LINE
  8
0
 10
-129.144
 20
1026.09
 11
-129.631
 21
1026.02
  0
LINE
  8
0
 10
-129.631
 20
1026.02
 11
-130.123
 21
1026
  0
LINE
  8
0
 10
-130.123
 20
1026
 11
-130.614
 21
1026.05
  0
LINE
  8
0
 10
-70.6136
 20
1026.05
 11
-71.0947
 21
1026.15
  0
LINE
  8
0
 10
-71.0947
 20
1026.15
 11
-71.5591
 21
1026.32
  0
LINE
  8
0
 10
-71.5591
 20
1026.32
 11
-72
 21
1026.54
  0
LINE
  8
0
 10
-72
 20
1026.54
 11
-72.4105
 21
1026.81
  0
LINE
  8
0
 10
-72.4105
 20
1026.81
 11
-72.7845
 21
1027.13
  0
LINE
  8
0
 10
-72.7845
 20
1027.13
 11
-73.1163
 21
1027.49
  0
LINE
  8
0
 10
-73.1163
 20
1027.49
 11
-73.4009
 21
1027.89
  0
LINE
  8
0
 10
-73.4009
 20
1027.89
 11
-73.6339
 21
1028.33
  0
LINE
  8
0
 10
-73.6339
 20
1028.33
 11
-73.8118
 21
1028.79
  0
LINE
  8
0
 10
-73.8118
 20
1028.79
 11
-73.9319
 21
1029.27
  0
LINE
  8
0
 10
-73.9319
 20
1029.27
 11
-73.9924
 21
1029.75
  0
LINE
  8
0
 10
-73.9924
 20
1029.75
 11
-73.9924
 21
1030.25
  0
LINE
  8
0
 10
-73.9924
 20
1030.25
 11
-73.9319
 21
1030.73
  0
LINE
  8
0
 10
-73.9319
 20
1030.73
 11
-73.8118
 21
1031.21
  0
LINE
  8
0
 10
-73.8118
 20
1031.21
 11
-73.6339
 21
1031.67
  0
LINE
  8
0
 10
-73.6339
 20
1031.67
 11
-73.4009
 21
1032.11
  0
LINE
  8
0
 10
-73.4009
 20
1032.11
 11
-73.1163
 21
1032.51
  0
LINE
  8
0
 10
-73.1163
 20
1032.51
 11
-72.7845
 21
1032.87
  0
LINE
  8
0
 10
-72.7845
 20
1032.87
 11
-72.4105
 21
1033.19
  0
LINE
  8
0
 10
-72.4105
 20
1033.19
 11
-72
 21
1033.46
  0
LINE
  8
0
 10
-72
 20
1033.46
 11
-71.5591
 21
1033.68
  0
LINE
  8
0
 10
-71.5591
 20
1033.68
 11
-71.0947
 21
1033.85
  0
LINE
  8
0
 10
-71.0947
 20
1033.85
 11
-70.6136
 21
1033.95
  0
LINE
  8
0
 10
-70.6136
 20
1033.95
 11
-70.1232
 21
1034
  0
LINE
  8
0
 10
-70.1232
 20
1034
 11
-69.6309
 21
1033.98
  0
LINE
  8
0
 10
-69.6309
 20
1033.98
 11
-69.1443
 21
1033.91
  0
LINE
  8
0
 10
-69.1443
 20
1033.91
 11
-68.6706
 21
1033.77
  0
LINE
  8
0
 10
-68.6706
 20
1033.77
 11
-68.217
 21
1033.58
  0
LINE
  8
0
 10
-68.217
 20
1033.58
 11
-67.7905
 21
1033.33
  0
LINE
  8
0
 10
-67.7905
 20
1033.33
 11
-67.3975
 21
1033.04
  0
LINE
  8
0
 10
-67.3975
 20
1033.04
 11
-67.044
 21
1032.69
  0
LINE
  8
0
 10
-67.044
 20
1032.69
 11
-66.7352
 21
1032.31
  0
LINE
  8
0
 10
-66.7352
 20
1032.31
 11
-66.476
 21
1031.89
  0
LINE
  8
0
 10
-66.476
 20
1031.89
 11
-66.2701
 21
1031.44
  0
LINE
  8
0
 10
-66.2701
 20
1031.44
 11
-66.1208
 21
1030.98
  0
LINE
  8
0
 10
-66.1208
 20
1030.98
 11
-66.0303
 21
1030.49
  0
LINE
  8
0
 10
-66.0303
 20
1030.49
 11
-66
 21
1030
  0
LINE
  8
0
 10
-66
 20
1030
 11
-66.0303
 21
1029.51
  0
LINE
  8
0
 10
-66.0303
 20
1029.51
 11
-66.1208
 21
1029.02
  0
LINE
  8
0
 10
-66.1208
 20
1029.02
 11
-66.2701
 21
1028.56
  0
LINE
  8
0
 10
-66.2701
 20
1028.56
 11
-66.476
 21
1028.11
  0
LINE
  8
0
 10
-66.476
 20
1028.11
 11
-66.7352
 21
1027.69
  0
LINE
  8
0
 10
-66.7352
 20
1027.69
 11
-67.044
 21
1027.31
  0
LINE
  8
0
 10
-67.044
 20
1027.31
 11
-67.3975
 21
1026.96
  0
LINE
  8
0
 10
-67.3975
 20
1026.96
 11
-67.7905
 21
1026.67
  0
LINE
  8
0
 10
-67.7905
 20
1026.67
 11
-68.217
 21
1026.42
  0
LINE
  8
0
 10
-68.217
 20
1026.42
 11
-68.6706
 21
1026.23
  0
LINE
  8
0
 10
-68.6706
 20
1026.23
 11
-69.1443
 21
1026.09
  0
LINE
  8
0
 10
-69.1443
 20
1026.09
 11
-69.6309
 21
1026.02
  0
LINE
  8
0
 10
-69.6309
 20
1026.02
 11
-70.1232
 21
1026
  0
LINE
  8
0
 10
-70.1232
 20
1026
 11
-70.6136
 21
1026.05
  0
LINE
  8
0
 10
-50
 20
950
 11
-150
 21
950
  0
LINE
  8
0
 10
-150
 20
950
 11
-150
 21
700
  0
LINE
  8
0
 10
-150
 20
700
 11
-50
 21
700
  0
LINE
  8
0
 10
-50
 20
700
 11
-50
 21
950
  0
LINE
  8
0
 10
-119.747
 20
907.52
 11
-120.214
 21
907.681
  0
LINE
  8
0
 10
-120.214
 20
907.681
 11
-120.604
 21
907.984
  0
LINE
  8
0
 10
-120.604
 20
907.984
 11
-120.874
 21
908.397
  0
LINE
  8
0
 10
-120.874
 20
908.397
 11
-120.995
 21
908.876
  0
LINE
  8
0
 10
-120.995
 20
908.876
 11
-120.954
 21
909.368
  0
LINE
  8
0
 10
-120.954
 20
909.368
 11
-120.756
 21
909.82
  0
LINE
  8
0
 10
-120.756
 20
909.82
 11
-120.421
 21
910.184
  0
LINE
  8
0
 10
-120.421
 20
910.184
 11
-119.987
 21
910.419
  0
LINE
  8
0
 10
-119.987
 20
910.419
 11
-119.5
 21
910.5
  0
LINE
  8
0
 10
-119.5
 20
910.5
 11
-119.013
 21
910.419
  0
LINE
  8
0
 10
-119.013
 20
910.419
 11
-118.579
 21
910.184
  0
LINE
  8
0
 10
-118.579
 20
910.184
 11
-118.244
 21
909.82
  0
LINE
  8
0
 10
-118.244
 20
909.82
 11
-118.046
 21
909.368
  0
LINE
  8
0
 10
-118.046
 20
909.368
 11
-118.005
 21
908.876
  0
LINE
  8
0
 10
-118.005
 20
908.876
 11
-118.126
 21
908.397
  0
LINE
  8
0
 10
-118.126
 20
908.397
 11
-118.396
 21
907.984
  0
LINE
  8
0
 10
-118.396
 20
907.984
 11
-118.786
 21
907.681
  0
LINE
  8
0
 10
-118.786
 20
907.681
 11
-119.253
 21
907.52
  0
LINE
  8
0
 10
-119.253
 20
907.52
 11
-119.747
 21
907.52
  0
LINE
  8
0
 10
-136.747
 20
907.52
 11
-137.214
 21
907.681
  0
LINE
  8
0
 10
-137.214
 20
907.681
 11
-137.604
 21
907.984
  0
LINE
  8
0
 10
-137.604
 20
907.984
 11
-137.874
 21
908.397
  0
LINE
  8
0
 10
-137.874
 20
908.397
 11
-137.995
 21
908.876
  0
LINE
  8
0
 10
-137.995
 20
908.876
 11
-137.954
 21
909.368
  0
LINE
  8
0
 10
-137.954
 20
909.368
 11
-137.756
 21
909.82
  0
LINE
  8
0
 10
-137.756
 20
909.82
 11
-137.421
 21
910.184
  0
LINE
  8
0
 10
-137.421
 20
910.184
 11
-136.987
 21
910.419
  0
LINE
  8
0
 10
-136.987
 20
910.419
 11
-136.5
 21
910.5
  0
LINE
  8
0
 10
-136.5
 20
910.5
 11
-136.013
 21
910.419
  0
LINE
  8
0
 10
-136.013
 20
910.419
 11
-135.579
 21
910.184
  0
LINE
  8
0
 10
-135.579
 20
910.184
 11
-135.244
 21
909.82
  0
LINE
  8
0
 10
-135.244
 20
909.82
 11
-135.046
 21
909.368
  0
LINE
  8
0
 10
-135.046
 20
909.368
 11
-135.005
 21
908.876
  0
LINE
  8
0
 10
-135.005
 20
908.876
 11
-135.126
 21
908.397
  0
LINE
  8
0
 10
-135.126
 20
908.397
 11
-135.396
 21
907.984
  0
LINE
  8
0
 10
-135.396
 20
907.984
 11
-135.786
 21
907.681
  0
LINE
  8
0
 10
-135.786
 20
907.681
 11
-136.253
 21
907.52
  0
LINE
  8
0
 10
-136.253
 20
907.52
 11
-136.747
 21
907.52
  0
LINE
  8
0
 10
-63.7469
 20
907.52
 11
-64.2139
 21
907.681
  0
LINE
  8
0
 10
-64.2139
 20
907.681
 11
-64.6036
 21
907.984
  0
LINE
  8
0
 10
-64.6036
 20
907.984
 11
-64.8737
 21
908.397
  0
LINE
  8
0
 10
-64.8737
 20
908.397
 11
-64.9949
 21
908.876
  0
LINE
  8
0
 10
-64.9949
 20
908.876
 11
-64.9541
 21
909.368
  0
LINE
  8
0
 10
-64.9541
 20
909.368
 11
-64.7558
 21
909.82
  0
LINE
  8
0
 10
-64.7558
 20
909.82
 11
-64.4213
 21
910.184
  0
LINE
  8
0
 10
-64.4213
 20
910.184
 11
-63.987
 21
910.419
  0
LINE
  8
0
 10
-63.987
 20
910.419
 11
-63.5
 21
910.5
  0
LINE
  8
0
 10
-63.5
 20
910.5
 11
-63.0129
 21
910.419
  0
LINE
  8
0
 10
-63.0129
 20
910.419
 11
-62.5787
 21
910.184
  0
LINE
  8
0
 10
-62.5787
 20
910.184
 11
-62.2442
 21
909.82
  0
LINE
  8
0
 10
-62.2442
 20
909.82
 11
-62.0459
 21
909.368
  0
LINE
  8
0
 10
-62.0459
 20
909.368
 11
-62.0051
 21
908.876
  0
LINE
  8
0
 10
-62.0051
 20
908.876
 11
-62.1263
 21
908.397
  0
LINE
  8
0
 10
-62.1263
 20
908.397
 11
-62.3964
 21
907.984
  0
LINE
  8
0
 10
-62.3964
 20
907.984
 11
-62.7861
 21
907.681
  0
LINE
  8
0
 10
-62.7861
 20
907.681
 11
-63.2531
 21
907.52
  0
LINE
  8
0
 10
-63.2531
 20
907.52
 11
-63.7469
 21
907.52
  0
LINE
  8
0
 10
-80.7469
 20
907.52
 11
-81.2139
 21
907.681
  0
LINE
  8
0
 10
-81.2139
 20
907.681
 11
-81.6036
 21
907.984
  0
LINE
  8
0
 10
-81.6036
 20
907.984
 11
-81.8737
 21
908.397
  0
LINE
  8
0
 10
-81.8737
 20
908.397
 11
-81.9949
 21
908.876
  0
LINE
  8
0
 10
-81.9949
 20
908.876
 11
-81.9541
 21
909.368
  0
LINE
  8
0
 10
-81.9541
 20
909.368
 11
-81.7558
 21
909.82
  0
LINE
  8
0
 10
-81.7558
 20
909.82
 11
-81.4213
 21
910.184
  0
LINE
  8
0
 10
-81.4213
 20
910.184
 11
-80.987
 21
910.419
  0
LINE
  8
0
 10
-80.987
 20
910.419
 11
-80.5
 21
910.5
  0
LINE
  8
0
 10
-80.5
 20
910.5
 11
-80.0129
 21
910.419
  0
LINE
  8
0
 10
-80.0129
 20
910.419
 11
-79.5787
 21
910.184
  0
LINE
  8
0
 10
-79.5787
 20
910.184
 11
-79.2442
 21
909.82
  0
LINE
  8
0
 10
-79.2442
 20
909.82
 11
-79.0459
 21
909.368
  0
LINE
  8
0
 10
-79.0459
 20
909.368
 11
-79.0051
 21
908.876
  0
LINE
  8
0
 10
-79.0051
 20
908.876
 11
-79.1263
 21
908.397
  0
LINE
  8
0
 10
-79.1263
 20
908.397
 11
-79.3964
 21
907.984
  0
LINE
  8
0
 10
-79.3964
 20
907.984
 11
-79.7861
 21
907.681
  0
LINE
  8
0
 10
-79.7861
 20
907.681
 11
-80.2531
 21
907.52
  0
LINE
  8
0
 10
-80.2531
 20
907.52
 11
-80.7469
 21
907.52
  0
LINE
  8
0
 10
-80.7469
 20
889.52
 11
-81.2139
 21
889.681
  0
LINE
  8
0
 10
-81.2139
 20
889.681
 11
-81.6036
 21
889.984
  0
LINE
  8
0
 10
-81.6036
 20
889.984
 11
-81.8737
 21
890.397
  0
LINE
  8
0
 10
-81.8737
 20
890.397
 11
-81.9949
 21
890.876
  0
LINE
  8
0
 10
-81.9949
 20
890.876
 11
-81.9541
 21
891.368
  0
LINE
  8
0
 10
-81.9541
 20
891.368
 11
-81.7558
 21
891.82
  0
LINE
  8
0
 10
-81.7558
 20
891.82
 11
-81.4213
 21
892.184
  0
LINE
  8
0
 10
-81.4213
 20
892.184
 11
-80.987
 21
892.419
  0
LINE
  8
0
 10
-80.987
 20
892.419
 11
-80.5
 21
892.5
  0
LINE
  8
0
 10
-80.5
 20
892.5
 11
-80.0129
 21
892.419
  0
LINE
  8
0
 10
-80.0129
 20
892.419
 11
-79.5787
 21
892.184
  0
LINE
  8
0
 10
-79.5787
 20
892.184
 11
-79.2442
 21
891.82
  0
LINE
  8
0
 10
-79.2442
 20
891.82
 11
-79.0459
 21
891.368
  0
LINE
  8
0
 10
-79.0459
 20
891.368
 11
-79.0051
 21
890.876
  0
LINE
  8
0
 10
-79.0051
 20
890.876
 11
-79.1263
 21
890.397
  0
LINE
  8
0
 10
-79.1263
 20
890.397
 11
-79.3964
 21
889.984
  0
LINE
  8
0
 10
-79.3964
 20
889.984
 11
-79.7861
 21
889.681
  0
LINE
  8
0
 10
-79.7861
 20
889.681
 11
-80.2531
 21
889.52
  0
LINE
  8
0
 10
-80.2531
 20
889.52
 11
-80.7469
 21
889.52
  0
LINE
  8
0
 10
-63.7469
 20
889.52
 11
-64.2139
 21
889.681
  0
LINE
  8
0
 10
-64.2139
 20
889.681
 11
-64.6036
 21
889.984
  0
LINE
  8
0
 10
-64.6036
 20
889.984
 11
-64.8737
 21
890.397
  0
LINE
  8
0
 10
-64.8737
 20
890.397
 11
-64.9949
 21
890.876
  0
LINE
  8
0
 10
-64.9949
 20
890.876
 11
-64.9541
 21
891.368
  0
LINE
  8
0
 10
-64.9541
 20
891.368
 11
-64.7558
 21
891.82
  0
LINE
  8
0
 10
-64.7558
 20
891.82
 11
-64.4213
 21
892.184
  0
LINE
  8
0
 10
-64.4213
 20
892.184
 11
-63.987
 21
892.419
  0
LINE
  8
0
 10
-63.987
 20
892.419
 11
-63.5
 21
892.5
  0
LINE
  8
0
 10
-63.5
 20
892.5
 11
-63.0129
 21
892.419
  0
LINE
  8
0
 10
-63.0129
 20
892.419
 11
-62.5787
 21
892.184
  0
LINE
  8
0
 10
-62.5787
 20
892.184
 11
-62.2442
 21
891.82
  0
LINE
  8
0
 10
-62.2442
 20
891.82
 11
-62.0459
 21
891.368
  0
LINE
  8
0
 10
-62.0459
 20
891.368
 11
-62.0051
 21
890.876
  0
LINE
  8
0
 10
-62.0051
 20
890.876
 11
-62.1263
 21
890.397
  0
LINE
  8
0
 10
-62.1263
 20
890.397
 11
-62.3964
 21
889.984
  0
LINE
  8
0
 10
-62.3964
 20
889.984
 11
-62.7861
 21
889.681
  0
LINE
  8
0
 10
-62.7861
 20
889.681
 11
-63.2531
 21
889.52
  0
LINE
  8
0
 10
-63.2531
 20
889.52
 11
-63.7469
 21
889.52
  0
LINE
  8
0
 10
-136.747
 20
889.52
 11
-137.214
 21
889.681
  0
LINE
  8
0
 10
-137.214
 20
889.681
 11
-137.604
 21
889.984
  0
LINE
  8
0
 10
-137.604
 20
889.984
 11
-137.874
 21
890.397
  0
LINE
  8
0
 10
-137.874
 20
890.397
 11
-137.995
 21
890.876
  0
LINE
  8
0
 10
-137.995
 20
890.876
 11
-137.954
 21
891.368
  0
LINE
  8
0
 10
-137.954
 20
891.368
 11
-137.756
 21
891.82
  0
LINE
  8
0
 10
-137.756
 20
891.82
 11
-137.421
 21
892.184
  0
LINE
  8
0
 10
-137.421
 20
892.184
 11
-136.987
 21
892.419
  0
LINE
  8
0
 10
-136.987
 20
892.419
 11
-136.5
 21
892.5
  0
LINE
  8
0
 10
-136.5
 20
892.5
 11
-136.013
 21
892.419
  0
LINE
  8
0
 10
-136.013
 20
892.419
 11
-135.579
 21
892.184
  0
LINE
  8
0
 10
-135.579
 20
892.184
 11
-135.244
 21
891.82
  0
LINE
  8
0
 10
-135.244
 20
891.82
 11
-135.046
 21
891.368
  0
LINE
  8
0
 10
-135.046
 20
891.368
 11
-135.005
 21
890.876
  0
LINE
  8
0
 10
-135.005
 20
890.876
 11
-135.126
 21
890.397
  0
LINE
  8
0
 10
-135.126
 20
890.397
 11
-135.396
 21
889.984
  0
LINE
  8
0
 10
-135.396
 20
889.984
 11
-135.786
 21
889.681
  0
LINE
  8
0
 10
-135.786
 20
889.681
 11
-136.253
 21
889.52
  0
LINE
  8
0
 10
-136.253
 20
889.52
 11
-136.747
 21
889.52
  0
LINE
  8
0
 10
-119.747
 20
889.52
 11
-120.214
 21
889.681
  0
LINE
  8
0
 10
-120.214
 20
889.681
 11
-120.604
 21
889.984
  0
LINE
  8
0
 10
-120.604
 20
889.984
 11
-120.874
 21
890.397
  0
LINE
  8
0
 10
-120.874
 20
890.397
 11
-120.995
 21
890.876
  0
LINE
  8
0
 10
-120.995
 20
890.876
 11
-120.954
 21
891.368
  0
LINE
  8
0
 10
-120.954
 20
891.368
 11
-120.756
 21
891.82
  0
LINE
  8
0
 10
-120.756
 20
891.82
 11
-120.421
 21
892.184
  0
LINE
  8
0
 10
-120.421
 20
892.184
 11
-119.987
 21
892.419
  0
LINE
  8
0
 10
-119.987
 20
892.419
 11
-119.5
 21
892.5
  0
LINE
  8
0
 10
-119.5
 20
892.5
 11
-119.013
 21
892.419
  0
LINE
  8
0
 10
-119.013
 20
892.419
 11
-118.579
 21
892.184
  0
LINE
  8
0
 10
-118.579
 20
892.184
 11
-118.244
 21
891.82
  0
LINE
  8
0
 10
-118.244
 20
891.82
 11
-118.046
 21
891.368
  0
LINE
  8
0
 10
-118.046
 20
891.368
 11
-118.005
 21
890.876
  0
LINE
  8
0
 10
-118.005
 20
890.876
 11
-118.126
 21
890.397
  0
LINE
  8
0
 10
-118.126
 20
890.397
 11
-118.396
 21
889.984
  0
LINE
  8
0
 10
-118.396
 20
889.984
 11
-118.786
 21
889.681
  0
LINE
  8
0
 10
-118.786
 20
889.681
 11
-119.253
 21
889.52
  0
LINE
  8
0
 10
-119.253
 20
889.52
 11
-119.747
 21
889.52
  0
LINE
  8
0
 10
-100.479
 20
831.558
 11
-100.929
 21
831.729
  0
LINE
  8
0
 10
-100.929
 20
831.729
 11
-101.326
 21
832.003
  0
LINE
  8
0
 10
-101.326
 20
832.003
 11
-101.646
 21
832.364
  0
LINE
  8
0
 10
-101.646
 20
832.364
 11
-101.87
 21
832.791
  0
LINE
  8
0
 10
-101.87
 20
832.791
 11
-101.985
 21
833.259
  0
LINE
  8
0
 10
-101.985
 20
833.259
 11
-101.985
 21
833.741
  0
LINE
  8
0
 10
-101.985
 20
833.741
 11
-101.87
 21
834.209
  0
LINE
  8
0
 10
-101.87
 20
834.209
 11
-101.646
 21
834.636
  0
LINE
  8
0
 10
-101.646
 20
834.636
 11
-101.326
 21
834.997
  0
LINE
  8
0
 10
-101.326
 20
834.997
 11
-100.929
 21
835.271
  0
LINE
  8
0
 10
-100.929
 20
835.271
 11
-100.479
 21
835.442
  0
LINE
  8
0
 10
-100.479
 20
835.442
 11
-100
 21
835.5
  0
LINE
  8
0
 10
-100
 20
835.5
 11
-99.5214
 21
835.442
  0
LINE
  8
0
 10
-99.5214
 20
835.442
 11
-99.0706
 21
835.271
  0
LINE
  8
0
 10
-99.0706
 20
835.271
 11
-98.6738
 21
834.997
  0
LINE
  8
0
 10
-98.6738
 20
834.997
 11
-98.354
 21
834.636
  0
LINE
  8
0
 10
-98.354
 20
834.636
 11
-98.13
 21
834.209
  0
LINE
  8
0
 10
-98.13
 20
834.209
 11
-98.0146
 21
833.741
  0
LINE
  8
0
 10
-98.0146
 20
833.741
 11
-98.0146
 21
833.259
  0
LINE
  8
0
 10
-98.0146
 20
833.259
 11
-98.13
 21
832.791
  0
LINE
  8
0
 10
-98.13
 20
832.791
 11
-98.354
 21
832.364
  0
LINE
  8
0
 10
-98.354
 20
832.364
 11
-98.6738
 21
832.003
  0
LINE
  8
0
 10
-98.6738
 20
832.003
 11
-99.0706
 21
831.729
  0
LINE
  8
0
 10
-99.0706
 20
831.729
 11
-99.5214
 21
831.558
  0
LINE
  8
0
 10
-99.5214
 20
831.558
 11
-100
 21
831.5
  0
LINE
  8
0
 10
-100
 20
831.5
 11
-100.479
 21
831.558
  0
LINE
  8
0
 10
-100.479
 20
814.558
 11
-100.929
 21
814.729
  0
LINE
  8
0
 10
-100.929
 20
814.729
 11
-101.326
 21
815.003
  0
LINE
  8
0
 10
-101.326
 20
815.003
 11
-101.646
 21
815.364
  0
LINE
  8
0
 10
-101.646
 20
815.364
 11
-101.87
 21
815.791
  0
LINE
  8
0
 10
-101.87
 20
815.791
 11
-101.985
 21
816.259
  0
LINE
  8
0
 10
-101.985
 20
816.259
 11
-101.985
 21
816.741
  0
LINE
  8
0
 10
-101.985
 20
816.741
 11
-101.87
 21
817.209
  0
LINE
  8
0
 10
-101.87
 20
817.209
 11
-101.646
 21
817.636
  0
LINE
  8
0
 10
-101.646
 20
817.636
 11
-101.326
 21
817.997
  0
LINE
  8
0
 10
-101.326
 20
817.997
 11
-100.929
 21
818.271
  0
LINE
  8
0
 10
-100.929
 20
818.271
 11
-100.479
 21
818.442
  0
LINE
  8
0
 10
-100.479
 20
818.442
 11
-100
 21
818.5
  0
LINE
  8
0
 10
-100
 20
818.5
 11
-99.5214
 21
818.442
  0
LINE
  8
0
 10
-99.5214
 20
818.442
 11
-99.0706
 21
818.271
  0
LINE
  8
0
 10
-99.0706
 20
818.271
 11
-98.6738
 21
817.997
  0
LINE
  8
0
 10
-98.6738
 20
817.997
 11
-98.354
 21
817.636
  0
LINE
  8
0
 10
-98.354
 20
817.636
 11
-98.13
 21
817.209
  0
LINE
  8
0
 10
-98.13
 20
817.209
 11
-98.0146
 21
816.741
  0
LINE
  8
0
 10
-98.0146
 20
816.741
 11
-98.0146
 21
816.259
  0
LINE
  8
0
 10
-98.0146
 20
816.259
 11
-98.13
 21
815.791
  0
LINE
  8
0
 10
-98.13
 20
815.791
 11
-98.354
 21
815.364
  0
LINE
  8
0
 10
-98.354
 20
815.364
 11
-98.6738
 21
815.003
  0
LINE
  8
0
 10
-98.6738
 20
815.003
 11
-99.0706
 21
814.729
  0
LINE
  8
0
 10
-99.0706
 20
814.729
 11
-99.5214
 21
814.558
  0
LINE
  8
0
 10
-99.5214
 20
814.558
 11
-100
 21
814.5
  0
LINE
  8
0
 10
-100
 20
814.5
 11
-100.479
 21
814.558
  0
LINE
  8
0
 10
-63.7469
 20
757.52
 11
-64.2139
 21
757.681
  0
LINE
  8
0
 10
-64.2139
 20
757.681
 11
-64.6036
 21
757.984
  0
LINE
  8
0
 10
-64.6036
 20
757.984
 11
-64.8737
 21
758.397
  0
LINE
  8
0
 10
-64.8737
 20
758.397
 11
-64.9949
 21
758.876
  0
LINE
  8
0
 10
-64.9949
 20
758.876
 11
-64.9541
 21
759.368
  0
LINE
  8
0
 10
-64.9541
 20
759.368
 11
-64.7558
 21
759.82
  0
LINE
  8
0
 10
-64.7558
 20
759.82
 11
-64.4213
 21
760.184
  0
LINE
  8
0
 10
-64.4213
 20
760.184
 11
-63.987
 21
760.419
  0
LINE
  8
0
 10
-63.987
 20
760.419
 11
-63.5
 21
760.5
  0
LINE
  8
0
 10
-63.5
 20
760.5
 11
-63.0129
 21
760.419
  0
LINE
  8
0
 10
-63.0129
 20
760.419
 11
-62.5787
 21
760.184
  0
LINE
  8
0
 10
-62.5787
 20
760.184
 11
-62.2442
 21
759.82
  0
LINE
  8
0
 10
-62.2442
 20
759.82
 11
-62.0459
 21
759.368
  0
LINE
  8
0
 10
-62.0459
 20
759.368
 11
-62.0051
 21
758.876
  0
LINE
  8
0
 10
-62.0051
 20
758.876
 11
-62.1263
 21
758.397
  0
LINE
  8
0
 10
-62.1263
 20
758.397
 11
-62.3964
 21
757.984
  0
LINE
  8
0
 10
-62.3964
 20
757.984
 11
-62.7861
 21
757.681
  0
LINE
  8
0
 10
-62.7861
 20
757.681
 11
-63.2531
 21
757.52
  0
LINE
  8
0
 10
-63.2531
 20
757.52
 11
-63.7469
 21
757.52
  0
LINE
  8
0
 10
-80.7469
 20
757.52
 11
-81.2139
 21
757.681
  0
LINE
  8
0
 10
-81.2139
 20
757.681
 11
-81.6036
 21
757.984
  0
LINE
  8
0
 10
-81.6036
 20
757.984
 11
-81.8737
 21
758.397
  0
LINE
  8
0
 10
-81.8737
 20
758.397
 11
-81.9949
 21
758.876
  0
LINE
  8
0
 10
-81.9949
 20
758.876
 11
-81.9541
 21
759.368
  0
LINE
  8
0
 10
-81.9541
 20
759.368
 11
-81.7558
 21
759.82
  0
LINE
  8
0
 10
-81.7558
 20
759.82
 11
-81.4213
 21
760.184
  0
LINE
  8
0
 10
-81.4213
 20
760.184
 11
-80.987
 21
760.419
  0
LINE
  8
0
 10
-80.987
 20
760.419
 11
-80.5
 21
760.5
  0
LINE
  8
0
 10
-80.5
 20
760.5
 11
-80.0129
 21
760.419
  0
LINE
  8
0
 10
-80.0129
 20
760.419
 11
-79.5787
 21
760.184
  0
LINE
  8
0
 10
-79.5787
 20
760.184
 11
-79.2442
 21
759.82
  0
LINE
  8
0
 10
-79.2442
 20
759.82
 11
-79.0459
 21
759.368
  0
LINE
  8
0
 10
-79.0459
 20
759.368
 11
-79.0051
 21
758.876
  0
LINE
  8
0
 10
-79.0051
 20
758.876
 11
-79.1263
 21
758.397
  0
LINE
  8
0
 10
-79.1263
 20
758.397
 11
-79.3964
 21
757.984
  0
LINE
  8
0
 10
-79.3964
 20
757.984
 11
-79.7861
 21
757.681
  0
LINE
  8
0
 10
-79.7861
 20
757.681
 11
-80.2531
 21
757.52
  0
LINE
  8
0
 10
-80.2531
 20
757.52
 11
-80.7469
 21
757.52
  0
LINE
  8
0
 10
-119.747
 20
757.52
 11
-120.214
 21
757.681
  0
LINE
  8
0
 10
-120.214
 20
757.681
 11
-120.604
 21
757.984
  0
LINE
  8
0
 10
-120.604
 20
757.984
 11
-120.874
 21
758.397
  0
LINE
  8
0
 10
-120.874
 20
758.397
 11
-120.995
 21
758.876
  0
LINE
  8
0
 10
-120.995
 20
758.876
 11
-120.954
 21
759.368
  0
LINE
  8
0
 10
-120.954
 20
759.368
 11
-120.756
 21
759.82
  0
LINE
  8
0
 10
-120.756
 20
759.82
 11
-120.421
 21
760.184
  0
LINE
  8
0
 10
-120.421
 20
760.184
 11
-119.987
 21
760.419
  0
LINE
  8
0
 10
-119.987
 20
760.419
 11
-119.5
 21
760.5
  0
LINE
  8
0
 10
-119.5
 20
760.5
 11
-119.013
 21
760.419
  0
LINE
  8
0
 10
-119.013
 20
760.419
 11
-118.579
 21
760.184
  0
LINE
  8
0
 10
-118.579
 20
760.184
 11
-118.244
 21
759.82
  0
LINE
  8
0
 10
-118.244
 20
759.82
 11
-118.046
 21
759.368
  0
LINE
  8
0
 10
-118.046
 20
759.368
 11
-118.005
 21
758.876
  0
LINE
  8
0
 10
-118.005
 20
758.876
 11
-118.126
 21
758.397
  0
LINE
  8
0
 10
-118.126
 20
758.397
 11
-118.396
 21
757.984
  0
LINE
  8
0
 10
-118.396
 20
757.984
 11
-118.786
 21
757.681
  0
LINE
  8
0
 10
-118.786
 20
757.681
 11
-119.253
 21
757.52
  0
LINE
  8
0
 10
-119.253
 20
757.52
 11
-119.747
 21
757.52
  0
LINE
  8
0
 10
-136.747
 20
757.52
 11
-137.214
 21
757.681
  0
LINE
  8
0
 10
-137.214
 20
757.681
 11
-137.604
 21
757.984
  0
LINE
  8
0
 10
-137.604
 20
757.984
 11
-137.874
 21
758.397
  0
LINE
  8
0
 10
-137.874
 20
758.397
 11
-137.995
 21
758.876
  0
LINE
  8
0
 10
-137.995
 20
758.876
 11
-137.954
 21
759.368
  0
LINE
  8
0
 10
-137.954
 20
759.368
 11
-137.756
 21
759.82
  0
LINE
  8
0
 10
-137.756
 20
759.82
 11
-137.421
 21
760.184
  0
LINE
  8
0
 10
-137.421
 20
760.184
 11
-136.987
 21
760.419
  0
LINE
  8
0
 10
-136.987
 20
760.419
 11
-136.5
 21
760.5
  0
LINE
  8
0
 10
-136.5
 20
760.5
 11
-136.013
 21
760.419
  0
LINE
  8
0
 10
-136.013
 20
760.419
 11
-135.579
 21
760.184
  0
LINE
  8
0
 10
-135.579
 20
760.184
 11
-135.244
 21
759.82
  0
LINE
  8
0
 10
-135.244
 20
759.82
 11
-135.046
 21
759.368
  0
LINE
  8
0
 10
-135.046
 20
759.368
 11
-135.005
 21
758.876
  0
LINE
  8
0
 10
-135.005
 20
758.876
 11
-135.126
 21
758.397
  0
LINE
  8
0
 10
-135.126
 20
758.397
 11
-135.396
 21
757.984
  0
LINE
  8
0
 10
-135.396
 20
757.984
 11
-135.786
 21
757.681
  0
LINE
  8
0
 10
-135.786
 20
757.681
 11
-136.253
 21
757.52
  0
LINE
  8
0
 10
-136.253
 20
757.52
 11
-136.747
 21
757.52
  0
LINE
  8
0
 10
-136.747
 20
739.52
 11
-137.214
 21
739.681
  0
LINE
  8
0
 10
-137.214
 20
739.681
 11
-137.604
 21
739.984
  0
LINE
  8
0
 10
-137.604
 20
739.984
 11
-137.874
 21
740.397
  0
LINE
  8
0
 10
-137.874
 20
740.397
 11
-137.995
 21
740.876
  0
LINE
  8
0
 10
-137.995
 20
740.876
 11
-137.954
 21
741.368
  0
LINE
  8
0
 10
-137.954
 20
741.368
 11
-137.756
 21
741.82
  0
LINE
  8
0
 10
-137.756
 20
741.82
 11
-137.421
 21
742.184
  0
LINE
  8
0
 10
-137.421
 20
742.184
 11
-136.987
 21
742.419
  0
LINE
  8
0
 10
-136.987
 20
742.419
 11
-136.5
 21
742.5
  0
LINE
  8
0
 10
-136.5
 20
742.5
 11
-136.013
 21
742.419
  0
LINE
  8
0
 10
-136.013
 20
742.419
 11
-135.579
 21
742.184
  0
LINE
  8
0
 10
-135.579
 20
742.184
 11
-135.244
 21
741.82
  0
LINE
  8
0
 10
-135.244
 20
741.82
 11
-135.046
 21
741.368
  0
LINE
  8
0
 10
-135.046
 20
741.368
 11
-135.005
 21
740.876
  0
LINE
  8
0
 10
-135.005
 20
740.876
 11
-135.126
 21
740.397
  0
LINE
  8
0
 10
-135.126
 20
740.397
 11
-135.396
 21
739.984
  0
LINE
  8
0
 10
-135.396
 20
739.984
 11
-135.786
 21
739.681
  0
LINE
  8
0
 10
-135.786
 20
739.681
 11
-136.253
 21
739.52
  0
LINE
  8
0
 10
-136.253
 20
739.52
 11
-136.747
 21
739.52
  0
LINE
  8
0
 10
-80.7469
 20
739.52
 11
-81.2139
 21
739.681
  0
LINE
  8
0
 10
-81.2139
 20
739.681
 11
-81.6036
 21
739.984
  0
LINE
  8
0
 10
-81.6036
 20
739.984
 11
-81.8737
 21
740.397
  0
LINE
  8
0
 10
-81.8737
 20
740.397
 11
-81.9949
 21
740.876
  0
LINE
  8
0
 10
-81.9949
 20
740.876
 11
-81.9541
 21
741.368
  0
LINE
  8
0
 10
-81.9541
 20
741.368
 11
-81.7558
 21
741.82
  0
LINE
  8
0
 10
-81.7558
 20
741.82
 11
-81.4213
 21
742.184
  0
LINE
  8
0
 10
-81.4213
 20
742.184
 11
-80.987
 21
742.419
  0
LINE
  8
0
 10
-80.987
 20
742.419
 11
-80.5
 21
742.5
  0
LINE
  8
0
 10
-80.5
 20
742.5
 11
-80.0129
 21
742.419
  0
LINE
  8
0
 10
-80.0129
 20
742.419
 11
-79.5787
 21
742.184
  0
LINE
  8
0
 10
-79.5787
 20
742.184
 11
-79.2442
 21
741.82
  0
LINE
  8
0
 10
-79.2442
 20
741.82
 11
-79.0459
 21
741.368
  0
LINE
  8
0
 10
-79.0459
 20
741.368
 11
-79.0051
 21
740.876
  0
LINE
  8
0
 10
-79.0051
 20
740.876
 11
-79.1263
 21
740.397
  0
LINE
  8
0
 10
-79.1263
 20
740.397
 11
-79.3964
 21
739.984
  0
LINE
  8
0
 10
-79.3964
 20
739.984
 11
-79.7861
 21
739.681
  0
LINE
  8
0
 10
-79.7861
 20
739.681
 11
-80.2531
 21
739.52
  0
LINE
  8
0
 10
-80.2531
 20
739.52
 11
-80.7469
 21
739.52
  0
LINE
  8
0
 10
-63.7469
 20
739.52
 11
-64.2139
 21
739.681
  0
LINE
  8
0
 10
-64.2139
 20
739.681
 11
-64.6036
 21
739.984
  0
LINE
  8
0
 10
-64.6036
 20
739.984
 11
-64.8737
 21
740.397
  0
LINE
  8
0
 10
-64.8737
 20
740.397
 11
-64.9949
 21
740.876
  0
LINE
  8
0
 10
-64.9949
 20
740.876
 11
-64.9541
 21
741.368
  0
LINE
  8
0
 10
-64.9541
 20
741.368
 11
-64.7558
 21
741.82
  0
LINE
  8
0
 10
-64.7558
 20
741.82
 11
-64.4213
 21
742.184
  0
LINE
  8
0
 10
-64.4213
 20
742.184
 11
-63.987
 21
742.419
  0
LINE
  8
0
 10
-63.987
 20
742.419
 11
-63.5
 21
742.5
  0
LINE
  8
0
 10
-63.5
 20
742.5
 11
-63.0129
 21
742.419
  0
LINE
  8
0
 10
-63.0129
 20
742.419
 11
-62.5787
 21
742.184
  0
LINE
  8
0
 10
-62.5787
 20
742.184
 11
-62.2442
 21
741.82
  0
LINE
  8
0
 10
-62.2442
 20
741.82
 11
-62.0459
 21
741.368
  0
LINE
  8
0
 10
-62.0459
 20
741.368
 11
-62.0051
 21
740.876
  0
LINE
  8
0
 10
-62.0051
 20
740.876
 11
-62.1263
 21
740.397
  0
LINE
  8
0
 10
-62.1263
 20
740.397
 11
-62.3964
 21
739.984
  0
LINE
  8
0
 10
-62.3964
 20
739.984
 11
-62.7861
 21
739.681
  0
LINE
  8
0
 10
-62.7861
 20
739.681
 11
-63.2531
 21
739.52
  0
LINE
  8
0
 10
-63.2531
 20
739.52
 11
-63.7469
 21
739.52
  0
LINE
  8
0
 10
-119.747
 20
739.52
 11
-120.214
 21
739.681
  0
LINE
  8
0
 10
-120.214
 20
739.681
 11
-120.604
 21
739.984
  0
LINE
  8
0
 10
-120.604
 20
739.984
 11
-120.874
 21
740.397
  0
LINE
  8
0
 10
-120.874
 20
740.397
 11
-120.995
 21
740.876
  0
LINE
  8
0
 10
-120.995
 20
740.876
 11
-120.954
 21
741.368
  0
LINE
  8
0
 10
-120.954
 20
741.368
 11
-120.756
 21
741.82
  0
LINE
  8
0
 10
-120.756
 20
741.82
 11
-120.421
 21
742.184
  0
LINE
  8
0
 10
-120.421
 20
742.184
 11
-119.987
 21
742.419
  0
LINE
  8
0
 10
-119.987
 20
742.419
 11
-119.5
 21
742.5
  0
LINE
  8
0
 10
-119.5
 20
742.5
 11
-119.013
 21
742.419
  0
LINE
  8
0
 10
-119.013
 20
742.419
 11
-118.579
 21
742.184
  0
LINE
  8
0
 10
-118.579
 20
742.184
 11
-118.244
 21
741.82
  0
LINE
  8
0
 10
-118.244
 20
741.82
 11
-118.046
 21
741.368
  0
LINE
  8
0
 10
-118.046
 20
741.368
 11
-118.005
 21
740.876
  0
LINE
  8
0
 10
-118.005
 20
740.876
 11
-118.126
 21
740.397
  0
LINE
  8
0
 10
-118.126
 20
740.397
 11
-118.396
 21
739.984
  0
LINE
  8
0
 10
-118.396
 20
739.984
 11
-118.786
 21
739.681
  0
LINE
  8
0
 10
-118.786
 20
739.681
 11
-119.253
 21
739.52
  0
LINE
  8
0
 10
-119.253
 20
739.52
 11
-119.747
 21
739.52
  0
LINE
  8
0
 10
-200
 20
937.1
 11
-300
 21
937.1
  0
LINE
  8
0
 10
-300
 20
937.1
 11
-300
 21
877.1
  0
LINE
  8
0
 10
-300
 20
877.1
 11
-200
 21
877.1
  0
LINE
  8
0
 10
-200
 20
877.1
 11
-200
 21
937.1
  0
LINE
  8
0
 10
-250.374
 20
892.105
 11
-250.872
 21
892.125
  0
LINE
  8
0
 10
-250.872
 20
892.125
 11
-251.369
 21
892.163
  0
LINE
  8
0
 10
-251.369
 20
892.163
 11
-251.865
 21
892.216
  0
LINE
  8
0
 10
-251.865
 20
892.216
 11
-252.359
 21
892.287
  0
LINE
  8
0
 10
-252.359
 20
892.287
 11
-252.85
 21
892.373
  0
LINE
  8
0
 10
-252.85
 20
892.373
 11
-253.338
 21
892.476
  0
LINE
  8
0
 10
-253.338
 20
892.476
 11
-253.822
 21
892.595
  0
LINE
  8
0
 10
-253.822
 20
892.595
 11
-254.302
 21
892.73
  0
LINE
  8
0
 10
-254.302
 20
892.73
 11
-254.777
 21
892.881
  0
LINE
  8
0
 10
-254.777
 20
892.881
 11
-255.247
 21
893.048
  0
LINE
  8
0
 10
-255.247
 20
893.048
 11
-255.711
 21
893.23
  0
LINE
  8
0
 10
-255.711
 20
893.23
 11
-256.169
 21
893.427
  0
LINE
  8
0
 10
-256.169
 20
893.427
 11
-256.62
 21
893.64
  0
LINE
  8
0
 10
-256.62
 20
893.64
 11
-257.064
 21
893.867
  0
LINE
  8
0
 10
-257.064
 20
893.867
 11
-257.5
 21
894.11
  0
LINE
  8
0
 10
-257.5
 20
894.11
 11
-257.928
 21
894.366
  0
LINE
  8
0
 10
-257.928
 20
894.366
 11
-258.346
 21
894.637
  0
LINE
  8
0
 10
-258.346
 20
894.637
 11
-258.756
 21
894.921
  0
LINE
  8
0
 10
-258.756
 20
894.921
 11
-259.156
 21
895.219
  0
LINE
  8
0
 10
-259.156
 20
895.219
 11
-259.546
 21
895.53
  0
LINE
  8
0
 10
-259.546
 20
895.53
 11
-259.925
 21
895.853
  0
LINE
  8
0
 10
-259.925
 20
895.853
 11
-260.294
 21
896.189
  0
LINE
  8
0
 10
-260.294
 20
896.189
 11
-260.651
 21
896.538
  0
LINE
  8
0
 10
-260.651
 20
896.538
 11
-260.996
 21
896.897
  0
LINE
  8
0
 10
-260.996
 20
896.897
 11
-261.329
 21
897.269
  0
LINE
  8
0
 10
-261.329
 20
897.269
 11
-261.649
 21
897.651
  0
LINE
  8
0
 10
-261.649
 20
897.651
 11
-261.957
 21
898.043
  0
LINE
  8
0
 10
-261.957
 20
898.043
 11
-262.251
 21
898.445
  0
LINE
  8
0
 10
-262.251
 20
898.445
 11
-262.532
 21
898.857
  0
LINE
  8
0
 10
-262.532
 20
898.857
 11
-262.799
 21
899.278
  0
LINE
  8
0
 10
-262.799
 20
899.278
 11
-263.052
 21
899.708
  0
LINE
  8
0
 10
-263.052
 20
899.708
 11
-263.291
 21
900.146
  0
LINE
  8
0
 10
-263.291
 20
900.146
 11
-263.515
 21
900.592
  0
LINE
  8
0
 10
-263.515
 20
900.592
 11
-263.723
 21
901.045
  0
LINE
  8
0
 10
-263.723
 20
901.045
 11
-263.917
 21
901.504
  0
LINE
  8
0
 10
-263.917
 20
901.504
 11
-264.095
 21
901.97
  0
LINE
  8
0
 10
-264.095
 20
901.97
 11
-264.258
 21
902.441
  0
LINE
  8
0
 10
-264.258
 20
902.441
 11
-264.405
 21
902.918
  0
LINE
  8
0
 10
-264.405
 20
902.918
 11
-264.536
 21
903.399
  0
LINE
  8
0
 10
-264.536
 20
903.399
 11
-264.651
 21
903.884
  0
LINE
  8
0
 10
-264.651
 20
903.884
 11
-264.75
 21
904.373
  0
LINE
  8
0
 10
-264.75
 20
904.373
 11
-264.832
 21
904.864
  0
LINE
  8
0
 10
-264.832
 20
904.864
 11
-264.899
 21
905.359
  0
LINE
  8
0
 10
-264.899
 20
905.359
 11
-264.948
 21
905.855
  0
LINE
  8
0
 10
-264.948
 20
905.855
 11
-264.981
 21
906.352
  0
LINE
  8
0
 10
-264.981
 20
906.352
 11
-264.998
 21
906.851
  0
LINE
  8
0
 10
-264.998
 20
906.851
 11
-264.998
 21
907.349
  0
LINE
  8
0
 10
-264.998
 20
907.349
 11
-264.981
 21
907.848
  0
LINE
  8
0
 10
-264.981
 20
907.848
 11
-264.948
 21
908.345
  0
LINE
  8
0
 10
-264.948
 20
908.345
 11
-264.899
 21
908.841
  0
LINE
  8
0
 10
-264.899
 20
908.841
 11
-264.832
 21
909.336
  0
LINE
  8
0
 10
-264.832
 20
909.336
 11
-264.75
 21
909.827
  0
LINE
  8
0
 10
-264.75
 20
909.827
 11
-264.651
 21
910.316
  0
LINE
  8
0
 10
-264.651
 20
910.316
 11
-264.536
 21
910.801
  0
LINE
  8
0
 10
-264.536
 20
910.801
 11
-264.405
 21
911.282
  0
LINE
  8
0
 10
-264.405
 20
911.282
 11
-264.258
 21
911.759
  0
LINE
  8
0
 10
-264.258
 20
911.759
 11
-264.095
 21
912.23
  0
LINE
  8
0
 10
-264.095
 20
912.23
 11
-263.917
 21
912.696
  0
LINE
  8
0
 10
-263.917
 20
912.696
 11
-263.723
 21
913.155
  0
LINE
  8
0
 10
-263.723
 20
913.155
 11
-263.515
 21
913.608
  0
LINE
  8
0
 10
-263.515
 20
913.608
 11
-263.291
 21
914.054
  0
LINE
  8
0
 10
-263.291
 20
914.054
 11
-263.052
 21
914.492
  0
LINE
  8
0
 10
-263.052
 20
914.492
 11
-262.799
 21
914.922
  0
LINE
  8
0
 10
-262.799
 20
914.922
 11
-262.532
 21
915.343
  0
LINE
  8
0
 10
-262.532
 20
915.343
 11
-262.251
 21
915.755
  0
LINE
  8
0
 10
-262.251
 20
915.755
 11
-261.957
 21
916.157
  0
LINE
  8
0
 10
-261.957
 20
916.157
 11
-261.649
 21
916.549
  0
LINE
  8
0
 10
-261.649
 20
916.549
 11
-261.329
 21
916.931
  0
LINE
  8
0
 10
-261.329
 20
916.931
 11
-260.996
 21
917.303
  0
LINE
  8
0
 10
-260.996
 20
917.303
 11
-260.651
 21
917.662
  0
LINE
  8
0
 10
-260.651
 20
917.662
 11
-260.294
 21
918.011
  0
LINE
  8
0
 10
-260.294
 20
918.011
 11
-259.925
 21
918.347
  0
LINE
  8
0
 10
-259.925
 20
918.347
 11
-259.546
 21
918.67
  0
LINE
  8
0
 10
-259.546
 20
918.67
 11
-259.156
 21
918.981
  0
LINE
  8
0
 10
-259.156
 20
918.981
 11
-258.756
 21
919.279
  0
LINE
  8
0
 10
-258.756
 20
919.279
 11
-258.346
 21
919.563
  0
LINE
  8
0
 10
-258.346
 20
919.563
 11
-257.928
 21
919.834
  0
LINE
  8
0
 10
-257.928
 20
919.834
 11
-257.5
 21
920.09
  0
LINE
  8
0
 10
-257.5
 20
920.09
 11
-257.064
 21
920.333
  0
LINE
  8
0
 10
-257.064
 20
920.333
 11
-256.62
 21
920.56
  0
LINE
  8
0
 10
-256.62
 20
920.56
 11
-256.169
 21
920.773
  0
LINE
  8
0
 10
-256.169
 20
920.773
 11
-255.711
 21
920.97
  0
LINE
  8
0
 10
-255.711
 20
920.97
 11
-255.247
 21
921.152
  0
LINE
  8
0
 10
-255.247
 20
921.152
 11
-254.777
 21
921.319
  0
LINE
  8
0
 10
-254.777
 20
921.319
 11
-254.302
 21
921.47
  0
LINE
  8
0
 10
-254.302
 20
921.47
 11
-253.822
 21
921.605
  0
LINE
  8
0
 10
-253.822
 20
921.605
 11
-253.338
 21
921.724
  0
LINE
  8
0
 10
-253.338
 20
921.724
 11
-252.85
 21
921.827
  0
LINE
  8
0
 10
-252.85
 20
921.827
 11
-252.359
 21
921.913
  0
LINE
  8
0
 10
-252.359
 20
921.913
 11
-251.865
 21
921.984
  0
LINE
  8
0
 10
-251.865
 20
921.984
 11
-251.369
 21
922.037
  0
LINE
  8
0
 10
-251.369
 20
922.037
 11
-250.872
 21
922.075
  0
LINE
  8
0
 10
-250.872
 20
922.075
 11
-250.374
 21
922.095
  0
LINE
  8
0
 10
-250.374
 20
922.095
 11
-249.875
 21
922.099
  0
LINE
  8
0
 10
-249.875
 20
922.099
 11
-249.377
 21
922.087
  0
LINE
  8
0
 10
-249.377
 20
922.087
 11
-248.879
 21
922.058
  0
LINE
  8
0
 10
-248.879
 20
922.058
 11
-248.382
 21
922.013
  0
LINE
  8
0
 10
-248.382
 20
922.013
 11
-247.888
 21
921.951
  0
LINE
  8
0
 10
-247.888
 20
921.951
 11
-247.395
 21
921.872
  0
LINE
  8
0
 10
-247.395
 20
921.872
 11
-246.906
 21
921.777
  0
LINE
  8
0
 10
-246.906
 20
921.777
 11
-246.42
 21
921.666
  0
LINE
  8
0
 10
-246.42
 20
921.666
 11
-245.937
 21
921.539
  0
LINE
  8
0
 10
-245.937
 20
921.539
 11
-245.46
 21
921.396
  0
LINE
  8
0
 10
-245.46
 20
921.396
 11
-244.987
 21
921.238
  0
LINE
  8
0
 10
-244.987
 20
921.238
 11
-244.52
 21
921.063
  0
LINE
  8
0
 10
-244.52
 20
921.063
 11
-244.059
 21
920.873
  0
LINE
  8
0
 10
-244.059
 20
920.873
 11
-243.604
 21
920.668
  0
LINE
  8
0
 10
-243.604
 20
920.668
 11
-243.157
 21
920.448
  0
LINE
  8
0
 10
-243.157
 20
920.448
 11
-242.717
 21
920.213
  0
LINE
  8
0
 10
-242.717
 20
920.213
 11
-242.285
 21
919.964
  0
LINE
  8
0
 10
-242.285
 20
919.964
 11
-241.862
 21
919.7
  0
LINE
  8
0
 10
-241.862
 20
919.7
 11
-241.447
 21
919.423
  0
LINE
  8
0
 10
-241.447
 20
919.423
 11
-241.043
 21
919.132
  0
LINE
  8
0
 10
-241.043
 20
919.132
 11
-240.648
 21
918.827
  0
LINE
  8
0
 10
-240.648
 20
918.827
 11
-240.263
 21
918.51
  0
LINE
  8
0
 10
-240.263
 20
918.51
 11
-239.889
 21
918.18
  0
LINE
  8
0
 10
-239.889
 20
918.18
 11
-239.526
 21
917.838
  0
LINE
  8
0
 10
-239.526
 20
917.838
 11
-239.175
 21
917.484
  0
LINE
  8
0
 10
-239.175
 20
917.484
 11
-238.836
 21
917.118
  0
LINE
  8
0
 10
-238.836
 20
917.118
 11
-238.509
 21
916.742
  0
LINE
  8
0
 10
-238.509
 20
916.742
 11
-238.195
 21
916.355
  0
LINE
  8
0
 10
-238.195
 20
916.355
 11
-237.894
 21
915.957
  0
LINE
  8
0
 10
-237.894
 20
915.957
 11
-237.606
 21
915.55
  0
LINE
  8
0
 10
-237.606
 20
915.55
 11
-237.332
 21
915.133
  0
LINE
  8
0
 10
-237.332
 20
915.133
 11
-237.072
 21
914.708
  0
LINE
  8
0
 10
-237.072
 20
914.708
 11
-236.827
 21
914.274
  0
LINE
  8
0
 10
-236.827
 20
914.274
 11
-236.596
 21
913.832
  0
LINE
  8
0
 10
-236.596
 20
913.832
 11
-236.379
 21
913.383
  0
LINE
  8
0
 10
-236.379
 20
913.383
 11
-236.178
 21
912.927
  0
LINE
  8
0
 10
-236.178
 20
912.927
 11
-235.992
 21
912.464
  0
LINE
  8
0
 10
-235.992
 20
912.464
 11
-235.821
 21
911.995
  0
LINE
  8
0
 10
-235.821
 20
911.995
 11
-235.666
 21
911.521
  0
LINE
  8
0
 10
-235.666
 20
911.521
 11
-235.527
 21
911.042
  0
LINE
  8
0
 10
-235.527
 20
911.042
 11
-235.404
 21
910.559
  0
LINE
  8
0
 10
-235.404
 20
910.559
 11
-235.297
 21
910.072
  0
LINE
  8
0
 10
-235.297
 20
910.072
 11
-235.207
 21
909.582
  0
LINE
  8
0
 10
-235.207
 20
909.582
 11
-235.132
 21
909.089
  0
LINE
  8
0
 10
-235.132
 20
909.089
 11
-235.075
 21
908.594
  0
LINE
  8
0
 10
-235.075
 20
908.594
 11
-235.033
 21
908.097
  0
LINE
  8
0
 10
-235.033
 20
908.097
 11
-235.008
 21
907.599
  0
LINE
  8
0
 10
-235.008
 20
907.599
 11
-235
 21
907.1
  0
LINE
  8
0
 10
-235
 20
907.1
 11
-235.008
 21
906.601
  0
LINE
  8
0
 10
-235.008
 20
906.601
 11
-235.033
 21
906.103
  0
LINE
  8
0
 10
-235.033
 20
906.103
 11
-235.075
 21
905.607
  0
LINE
  8
0
 10
-235.075
 20
905.607
 11
-235.132
 21
905.111
  0
LINE
  8
0
 10
-235.132
 20
905.111
 11
-235.207
 21
904.618
  0
LINE
  8
0
 10
-235.207
 20
904.618
 11
-235.297
 21
904.128
  0
LINE
  8
0
 10
-235.297
 20
904.128
 11
-235.404
 21
903.641
  0
LINE
  8
0
 10
-235.404
 20
903.641
 11
-235.527
 21
903.158
  0
LINE
  8
0
 10
-235.527
 20
903.158
 11
-235.666
 21
902.679
  0
LINE
  8
0
 10
-235.666
 20
902.679
 11
-235.821
 21
902.205
  0
LINE
  8
0
 10
-235.821
 20
902.205
 11
-235.992
 21
901.736
  0
LINE
  8
0
 10
-235.992
 20
901.736
 11
-236.178
 21
901.273
  0
LINE
  8
0
 10
-236.178
 20
901.273
 11
-236.379
 21
900.817
  0
LINE
  8
0
 10
-236.379
 20
900.817
 11
-236.596
 21
900.368
  0
LINE
  8
0
 10
-236.596
 20
900.368
 11
-236.827
 21
899.926
  0
LINE
  8
0
 10
-236.827
 20
899.926
 11
-237.072
 21
899.492
  0
LINE
  8
0
 10
-237.072
 20
899.492
 11
-237.332
 21
899.067
  0
LINE
  8
0
 10
-237.332
 20
899.067
 11
-237.606
 21
898.65
  0
LINE
  8
0
 10
-237.606
 20
898.65
 11
-237.894
 21
898.243
  0
LINE
  8
0
 10
-237.894
 20
898.243
 11
-238.195
 21
897.845
  0
LINE
  8
0
 10
-238.195
 20
897.845
 11
-238.509
 21
897.458
  0
LINE
  8
0
 10
-238.509
 20
897.458
 11
-238.836
 21
897.082
  0
LINE
  8
0
 10
-238.836
 20
897.082
 11
-239.175
 21
896.716
  0
LINE
  8
0
 10
-239.175
 20
896.716
 11
-239.526
 21
896.362
  0
LINE
  8
0
 10
-239.526
 20
896.362
 11
-239.889
 21
896.02
  0
LINE
  8
0
 10
-239.889
 20
896.02
 11
-240.263
 21
895.69
  0
LINE
  8
0
 10
-240.263
 20
895.69
 11
-240.648
 21
895.373
  0
LINE
  8
0
 10
-240.648
 20
895.373
 11
-241.043
 21
895.068
  0
LINE
  8
0
 10
-241.043
 20
895.068
 11
-241.447
 21
894.777
  0
LINE
  8
0
 10
-241.447
 20
894.777
 11
-241.862
 21
894.5
  0
LINE
  8
0
 10
-241.862
 20
894.5
 11
-242.285
 21
894.236
  0
LINE
  8
0
 10
-242.285
 20
894.236
 11
-242.717
 21
893.987
  0
LINE
  8
0
 10
-242.717
 20
893.987
 11
-243.157
 21
893.752
  0
LINE
  8
0
 10
-243.157
 20
893.752
 11
-243.604
 21
893.532
  0
LINE
  8
0
 10
-243.604
 20
893.532
 11
-244.059
 21
893.327
  0
LINE
  8
0
 10
-244.059
 20
893.327
 11
-244.52
 21
893.137
  0
LINE
  8
0
 10
-244.52
 20
893.137
 11
-244.987
 21
892.962
  0
LINE
  8
0
 10
-244.987
 20
892.962
 11
-245.46
 21
892.804
  0
LINE
  8
0
 10
-245.46
 20
892.804
 11
-245.937
 21
892.661
  0
LINE
  8
0
 10
-245.937
 20
892.661
 11
-246.42
 21
892.534
  0
LINE
  8
0
 10
-246.42
 20
892.534
 11
-246.906
 21
892.423
  0
LINE
  8
0
 10
-246.906
 20
892.423
 11
-247.395
 21
892.328
  0
LINE
  8
0
 10
-247.395
 20
892.328
 11
-247.888
 21
892.249
  0
LINE
  8
0
 10
-247.888
 20
892.249
 11
-248.382
 21
892.187
  0
LINE
  8
0
 10
-248.382
 20
892.187
 11
-248.879
 21
892.142
  0
LINE
  8
0
 10
-248.879
 20
892.142
 11
-249.377
 21
892.113
  0
LINE
  8
0
 10
-249.377
 20
892.113
 11
-249.875
 21
892.101
  0
LINE
  8
0
 10
-249.875
 20
892.101
 11
-250.374
 21
892.105
  0
LINE
  8
0
 10
-200
 20
780
 11
-300
 21
780
  0
LINE
  8
0
 10
-300
 20
780
 11
-300
 21
700
  0
LINE
  8
0
 10
-300
 20
700
 11
-200
 21
700
  0
LINE
  8
0
 10
-200
 20
700
 11
-200
 21
780
  0
LINE
  8
0
 10
-211.603
 20
765.126
 11
-212.016
 21
765.396
  0
LINE
  8
0
 10
-212.016
 20
765.396
 11
-212.319
 21
765.786
  0
LINE
  8
0
 10
-212.319
 20
765.786
 11
-212.48
 21
766.253
  0
LINE
  8
0
 10
-212.48
 20
766.253
 11
-212.48
 21
766.747
  0
LINE
  8
0
 10
-212.48
 20
766.747
 11
-212.319
 21
767.214
  0
LINE
  8
0
 10
-212.319
 20
767.214
 11
-212.016
 21
767.604
  0
LINE
  8
0
 10
-212.016
 20
767.604
 11
-211.603
 21
767.874
  0
LINE
  8
0
 10
-211.603
 20
767.874
 11
-211.124
 21
767.995
  0
LINE
  8
0
 10
-211.124
 20
767.995
 11
-210.632
 21
767.954
  0
LINE
  8
0
 10
-210.632
 20
767.954
 11
-210.18
 21
767.756
  0
LINE
  8
0
 10
-210.18
 20
767.756
 11
-209.816
 21
767.421
  0
LINE
  8
0
 10
-209.816
 20
767.421
 11
-209.581
 21
766.987
  0
LINE
  8
0
 10
-209.581
 20
766.987
 11
-209.5
 21
766.5
  0
LINE
  8
0
 10
-209.5
 20
766.5
 11
-209.581
 21
766.013
  0
LINE
  8
0
 10
-209.581
 20
766.013
 11
-209.816
 21
765.579
  0
LINE
  8
0
 10
-209.816
 20
765.579
 11
-210.18
 21
765.244
  0
LINE
  8
0
 10
-210.18
 20
765.244
 11
-210.632
 21
765.046
  0
LINE
  8
0
 10
-210.632
 20
765.046
 11
-211.124
 21
765.005
  0
LINE
  8
0
 10
-211.124
 20
765.005
 11
-211.603
 21
765.126
  0
LINE
  8
0
 10
-289.603
 20
765.126
 11
-290.016
 21
765.396
  0
LINE
  8
0
 10
-290.016
 20
765.396
 11
-290.319
 21
765.786
  0
LINE
  8
0
 10
-290.319
 20
765.786
 11
-290.48
 21
766.253
  0
LINE
  8
0
 10
-290.48
 20
766.253
 11
-290.48
 21
766.747
  0
LINE
  8
0
 10
-290.48
 20
766.747
 11
-290.319
 21
767.214
  0
LINE
  8
0
 10
-290.319
 20
767.214
 11
-290.016
 21
767.604
  0
LINE
  8
0
 10
-290.016
 20
767.604
 11
-289.603
 21
767.874
  0
LINE
  8
0
 10
-289.603
 20
767.874
 11
-289.124
 21
767.995
  0
LINE
  8
0
 10
-289.124
 20
767.995
 11
-288.632
 21
767.954
  0
LINE
  8
0
 10
-288.632
 20
767.954
 11
-288.18
 21
767.756
  0
LINE
  8
0
 10
-288.18
 20
767.756
 11
-287.816
 21
767.421
  0
LINE
  8
0
 10
-287.816
 20
767.421
 11
-287.581
 21
766.987
  0
LINE
  8
0
 10
-287.581
 20
766.987
 11
-287.5
 21
766.5
  0
LINE
  8
0
 10
-287.5
 20
766.5
 11
-287.581
 21
766.013
  0
LINE
  8
0
 10
-287.581
 20
766.013
 11
-287.816
 21
765.579
  0
LINE
  8
0
 10
-287.816
 20
765.579
 11
-288.18
 21
765.244
  0
LINE
  8
0
 10
-288.18
 20
765.244
 11
-288.632
 21
765.046
  0
LINE
  8
0
 10
-288.632
 20
765.046
 11
-289.124
 21
765.005
  0
LINE
  8
0
 10
-289.124
 20
765.005
 11
-289.603
 21
765.126
  0
LINE
  8
0
 10
-229.603
 20
765.126
 11
-230.016
 21
765.396
  0
LINE
  8
0
 10
-230.016
 20
765.396
 11
-230.319
 21
765.786
  0
LINE
  8
0
 10
-230.319
 20
765.786
 11
-230.48
 21
766.253
  0
LINE
  8
0
 10
-230.48
 20
766.253
 11
-230.48
 21
766.747
  0
LINE
  8
0
 10
-230.48
 20
766.747
 11
-230.319
 21
767.214
  0
LINE
  8
0
 10
-230.319
 20
767.214
 11
-230.016
 21
767.604
  0
LINE
  8
0
 10
-230.016
 20
767.604
 11
-229.603
 21
767.874
  0
LINE
  8
0
 10
-229.603
 20
767.874
 11
-229.124
 21
767.995
  0
LINE
  8
0
 10
-229.124
 20
767.995
 11
-228.632
 21
767.954
  0
LINE
  8
0
 10
-228.632
 20
767.954
 11
-228.18
 21
767.756
  0
LINE
  8
0
 10
-228.18
 20
767.756
 11
-227.816
 21
767.421
  0
LINE
  8
0
 10
-227.816
 20
767.421
 11
-227.581
 21
766.987
  0
LINE
  8
0
 10
-227.581
 20
766.987
 11
-227.5
 21
766.5
  0
LINE
  8
0
 10
-227.5
 20
766.5
 11
-227.581
 21
766.013
  0
LINE
  8
0
 10
-227.581
 20
766.013
 11
-227.816
 21
765.579
  0
LINE
  8
0
 10
-227.816
 20
765.579
 11
-228.18
 21
765.244
  0
LINE
  8
0
 10
-228.18
 20
765.244
 11
-228.632
 21
765.046
  0
LINE
  8
0
 10
-228.632
 20
765.046
 11
-229.124
 21
765.005
  0
LINE
  8
0
 10
-229.124
 20
765.005
 11
-229.603
 21
765.126
  0
LINE
  8
0
 10
-271.603
 20
765.126
 11
-272.016
 21
765.396
  0
LINE
  8
0
 10
-272.016
 20
765.396
 11
-272.319
 21
765.786
  0
LINE
  8
0
 10
-272.319
 20
765.786
 11
-272.48
 21
766.253
  0
LINE
  8
0
 10
-272.48
 20
766.253
 11
-272.48
 21
766.747
  0
LINE
  8
0
 10
-272.48
 20
766.747
 11
-272.319
 21
767.214
  0
LINE
  8
0
 10
-272.319
 20
767.214
 11
-272.016
 21
767.604
  0
LINE
  8
0
 10
-272.016
 20
767.604
 11
-271.603
 21
767.874
  0
LINE
  8
0
 10
-271.603
 20
767.874
 11
-271.124
 21
767.995
  0
LINE
  8
0
 10
-271.124
 20
767.995
 11
-270.632
 21
767.954
  0
LINE
  8
0
 10
-270.632
 20
767.954
 11
-270.18
 21
767.756
  0
LINE
  8
0
 10
-270.18
 20
767.756
 11
-269.816
 21
767.421
  0
LINE
  8
0
 10
-269.816
 20
767.421
 11
-269.581
 21
766.987
  0
LINE
  8
0
 10
-269.581
 20
766.987
 11
-269.5
 21
766.5
  0
LINE
  8
0
 10
-269.5
 20
766.5
 11
-269.581
 21
766.013
  0
LINE
  8
0
 10
-269.581
 20
766.013
 11
-269.816
 21
765.579
  0
LINE
  8
0
 10
-269.816
 20
765.579
 11
-270.18
 21
765.244
  0
LINE
  8
0
 10
-270.18
 20
765.244
 11
-270.632
 21
765.046
  0
LINE
  8
0
 10
-270.632
 20
765.046
 11
-271.124
 21
765.005
  0
LINE
  8
0
 10
-271.124
 20
765.005
 11
-271.603
 21
765.126
  0
LINE
  8
0
 10
-271.603
 20
748.126
 11
-272.016
 21
748.396
  0
LINE
  8
0
 10
-272.016
 20
748.396
 11
-272.319
 21
748.786
  0
LINE
  8
0
 10
-272.319
 20
748.786
 11
-272.48
 21
749.253
  0
LINE
  8
0
 10
-272.48
 20
749.253
 11
-272.48
 21
749.747
  0
LINE
  8
0
 10
-272.48
 20
749.747
 11
-272.319
 21
750.214
  0
LINE
  8
0
 10
-272.319
 20
750.214
 11
-272.016
 21
750.604
  0
LINE
  8
0
 10
-272.016
 20
750.604
 11
-271.603
 21
750.874
  0
LINE
  8
0
 10
-271.603
 20
750.874
 11
-271.124
 21
750.995
  0
LINE
  8
0
 10
-271.124
 20
750.995
 11
-270.632
 21
750.954
  0
LINE
  8
0
 10
-270.632
 20
750.954
 11
-270.18
 21
750.756
  0
LINE
  8
0
 10
-270.18
 20
750.756
 11
-269.816
 21
750.421
  0
LINE
  8
0
 10
-269.816
 20
750.421
 11
-269.581
 21
749.987
  0
LINE
  8
0
 10
-269.581
 20
749.987
 11
-269.5
 21
749.5
  0
LINE
  8
0
 10
-269.5
 20
749.5
 11
-269.581
 21
749.013
  0
LINE
  8
0
 10
-269.581
 20
749.013
 11
-269.816
 21
748.579
  0
LINE
  8
0
 10
-269.816
 20
748.579
 11
-270.18
 21
748.244
  0
LINE
  8
0
 10
-270.18
 20
748.244
 11
-270.632
 21
748.046
  0
LINE
  8
0
 10
-270.632
 20
748.046
 11
-271.124
 21
748.005
  0
LINE
  8
0
 10
-271.124
 20
748.005
 11
-271.603
 21
748.126
  0
LINE
  8
0
 10
-211.603
 20
748.126
 11
-212.016
 21
748.396
  0
LINE
  8
0
 10
-212.016
 20
748.396
 11
-212.319
 21
748.786
  0
LINE
  8
0
 10
-212.319
 20
748.786
 11
-212.48
 21
749.253
  0
LINE
  8
0
 10
-212.48
 20
749.253
 11
-212.48
 21
749.747
  0
LINE
  8
0
 10
-212.48
 20
749.747
 11
-212.319
 21
750.214
  0
LINE
  8
0
 10
-212.319
 20
750.214
 11
-212.016
 21
750.604
  0
LINE
  8
0
 10
-212.016
 20
750.604
 11
-211.603
 21
750.874
  0
LINE
  8
0
 10
-211.603
 20
750.874
 11
-211.124
 21
750.995
  0
LINE
  8
0
 10
-211.124
 20
750.995
 11
-210.632
 21
750.954
  0
LINE
  8
0
 10
-210.632
 20
750.954
 11
-210.18
 21
750.756
  0
LINE
  8
0
 10
-210.18
 20
750.756
 11
-209.816
 21
750.421
  0
LINE
  8
0
 10
-209.816
 20
750.421
 11
-209.581
 21
749.987
  0
LINE
  8
0
 10
-209.581
 20
749.987
 11
-209.5
 21
749.5
  0
LINE
  8
0
 10
-209.5
 20
749.5
 11
-209.581
 21
749.013
  0
LINE
  8
0
 10
-209.581
 20
749.013
 11
-209.816
 21
748.579
  0
LINE
  8
0
 10
-209.816
 20
748.579
 11
-210.18
 21
748.244
  0
LINE
  8
0
 10
-210.18
 20
748.244
 11
-210.632
 21
748.046
  0
LINE
  8
0
 10
-210.632
 20
748.046
 11
-211.124
 21
748.005
  0
LINE
  8
0
 10
-211.124
 20
748.005
 11
-211.603
 21
748.126
  0
LINE
  8
0
 10
-229.603
 20
748.126
 11
-230.016
 21
748.396
  0
LINE
  8
0
 10
-230.016
 20
748.396
 11
-230.319
 21
748.786
  0
LINE
  8
0
 10
-230.319
 20
748.786
 11
-230.48
 21
749.253
  0
LINE
  8
0
 10
-230.48
 20
749.253
 11
-230.48
 21
749.747
  0
LINE
  8
0
 10
-230.48
 20
749.747
 11
-230.319
 21
750.214
  0
LINE
  8
0
 10
-230.319
 20
750.214
 11
-230.016
 21
750.604
  0
LINE
  8
0
 10
-230.016
 20
750.604
 11
-229.603
 21
750.874
  0
LINE
  8
0
 10
-229.603
 20
750.874
 11
-229.124
 21
750.995
  0
LINE
  8
0
 10
-229.124
 20
750.995
 11
-228.632
 21
750.954
  0
LINE
  8
0
 10
-228.632
 20
750.954
 11
-228.18
 21
750.756
  0
LINE
  8
0
 10
-228.18
 20
750.756
 11
-227.816
 21
750.421
  0
LINE
  8
0
 10
-227.816
 20
750.421
 11
-227.581
 21
749.987
  0
LINE
  8
0
 10
-227.581
 20
749.987
 11
-227.5
 21
749.5
  0
LINE
  8
0
 10
-227.5
 20
749.5
 11
-227.581
 21
749.013
  0
LINE
  8
0
 10
-227.581
 20
749.013
 11
-227.816
 21
748.579
  0
LINE
  8
0
 10
-227.816
 20
748.579
 11
-228.18
 21
748.244
  0
LINE
  8
0
 10
-228.18
 20
748.244
 11
-228.632
 21
748.046
  0
LINE
  8
0
 10
-228.632
 20
748.046
 11
-229.124
 21
748.005
  0
LINE
  8
0
 10
-229.124
 20
748.005
 11
-229.603
 21
748.126
  0
LINE
  8
0
 10
-289.603
 20
748.126
 11
-290.016
 21
748.396
  0
LINE
  8
0
 10
-290.016
 20
748.396
 11
-290.319
 21
748.786
  0
LINE
  8
0
 10
-290.319
 20
748.786
 11
-290.48
 21
749.253
  0
LINE
  8
0
 10
-290.48
 20
749.253
 11
-290.48
 21
749.747
  0
LINE
  8
0
 10
-290.48
 20
749.747
 11
-290.319
 21
750.214
  0
LINE
  8
0
 10
-290.319
 20
750.214
 11
-290.016
 21
750.604
  0
LINE
  8
0
 10
-290.016
 20
750.604
 11
-289.603
 21
750.874
  0
LINE
  8
0
 10
-289.603
 20
750.874
 11
-289.124
 21
750.995
  0
LINE
  8
0
 10
-289.124
 20
750.995
 11
-288.632
 21
750.954
  0
LINE
  8
0
 10
-288.632
 20
750.954
 11
-288.18
 21
750.756
  0
LINE
  8
0
 10
-288.18
 20
750.756
 11
-287.816
 21
750.421
  0
LINE
  8
0
 10
-287.816
 20
750.421
 11
-287.581
 21
749.987
  0
LINE
  8
0
 10
-287.581
 20
749.987
 11
-287.5
 21
749.5
  0
LINE
  8
0
 10
-287.5
 20
749.5
 11
-287.581
 21
749.013
  0
LINE
  8
0
 10
-287.581
 20
749.013
 11
-287.816
 21
748.579
  0
LINE
  8
0
 10
-287.816
 20
748.579
 11
-288.18
 21
748.244
  0
LINE
  8
0
 10
-288.18
 20
748.244
 11
-288.632
 21
748.046
  0
LINE
  8
0
 10
-288.632
 20
748.046
 11
-289.124
 21
748.005
  0
LINE
  8
0
 10
-289.124
 20
748.005
 11
-289.603
 21
748.126
  0
LINE
  8
0
 10
-258.741
 20
738.015
 11
-259.209
 21
738.13
  0
LINE
  8
0
 10
-259.209
 20
738.13
 11
-259.636
 21
738.354
  0
LINE
  8
0
 10
-259.636
 20
738.354
 11
-259.997
 21
738.674
  0
LINE
  8
0
 10
-259.997
 20
738.674
 11
-260.271
 21
739.071
  0
LINE
  8
0
 10
-260.271
 20
739.071
 11
-260.442
 21
739.521
  0
LINE
  8
0
 10
-260.442
 20
739.521
 11
-260.5
 21
740
  0
LINE
  8
0
 10
-260.5
 20
740
 11
-260.442
 21
740.479
  0
LINE
  8
0
 10
-260.442
 20
740.479
 11
-260.271
 21
740.929
  0
LINE
  8
0
 10
-260.271
 20
740.929
 11
-259.997
 21
741.326
  0
LINE
  8
0
 10
-259.997
 20
741.326
 11
-259.636
 21
741.646
  0
LINE
  8
0
 10
-259.636
 20
741.646
 11
-259.209
 21
741.87
  0
LINE
  8
0
 10
-259.209
 20
741.87
 11
-258.741
 21
741.985
  0
LINE
  8
0
 10
-258.741
 20
741.985
 11
-258.259
 21
741.985
  0
LINE
  8
0
 10
-258.259
 20
741.985
 11
-257.791
 21
741.87
  0
LINE
  8
0
 10
-257.791
 20
741.87
 11
-257.364
 21
741.646
  0
LINE
  8
0
 10
-257.364
 20
741.646
 11
-257.003
 21
741.326
  0
LINE
  8
0
 10
-257.003
 20
741.326
 11
-256.729
 21
740.929
  0
LINE
  8
0
 10
-256.729
 20
740.929
 11
-256.558
 21
740.479
  0
LINE
  8
0
 10
-256.558
 20
740.479
 11
-256.5
 21
740
  0
LINE
  8
0
 10
-256.5
 20
740
 11
-256.558
 21
739.521
  0
LINE
  8
0
 10
-256.558
 20
739.521
 11
-256.729
 21
739.071
  0
LINE
  8
0
 10
-256.729
 20
739.071
 11
-257.003
 21
738.674
  0
LINE
  8
0
 10
-257.003
 20
738.674
 11
-257.364
 21
738.354
  0
LINE
  8
0
 10
-257.364
 20
738.354
 11
-257.791
 21
738.13
  0
LINE
  8
0
 10
-257.791
 20
738.13
 11
-258.259
 21
738.015
  0
LINE
  8
0
 10
-258.259
 20
738.015
 11
-258.741
 21
738.015
  0
LINE
  8
0
 10
-241.741
 20
738.015
 11
-242.209
 21
738.13
  0
LINE
  8
0
 10
-242.209
 20
738.13
 11
-242.636
 21
738.354
  0
LINE
  8
0
 10
-242.636
 20
738.354
 11
-242.997
 21
738.674
  0
LINE
  8
0
 10
-242.997
 20
738.674
 11
-243.271
 21
739.071
  0
LINE
  8
0
 10
-243.271
 20
739.071
 11
-243.442
 21
739.521
  0
LINE
  8
0
 10
-243.442
 20
739.521
 11
-243.5
 21
740
  0
LINE
  8
0
 10
-243.5
 20
740
 11
-243.442
 21
740.479
  0
LINE
  8
0
 10
-243.442
 20
740.479
 11
-243.271
 21
740.929
  0
LINE
  8
0
 10
-243.271
 20
740.929
 11
-242.997
 21
741.326
  0
LINE
  8
0
 10
-242.997
 20
741.326
 11
-242.636
 21
741.646
  0
LINE
  8
0
 10
-242.636
 20
741.646
 11
-242.209
 21
741.87
  0
LINE
  8
0
 10
-242.209
 20
741.87
 11
-241.741
 21
741.985
  0
LINE
  8
0
 10
-241.741
 20
741.985
 11
-241.259
 21
741.985
  0
LINE
  8
0
 10
-241.259
 20
741.985
 11
-240.791
 21
741.87
  0
LINE
  8
0
 10
-240.791
 20
741.87
 11
-240.364
 21
741.646
  0
LINE
  8
0
 10
-240.364
 20
741.646
 11
-240.003
 21
741.326
  0
LINE
  8
0
 10
-240.003
 20
741.326
 11
-239.729
 21
740.929
  0
LINE
  8
0
 10
-239.729
 20
740.929
 11
-239.558
 21
740.479
  0
LINE
  8
0
 10
-239.558
 20
740.479
 11
-239.5
 21
740
  0
LINE
  8
0
 10
-239.5
 20
740
 11
-239.558
 21
739.521
  0
LINE
  8
0
 10
-239.558
 20
739.521
 11
-239.729
 21
739.071
  0
LINE
  8
0
 10
-239.729
 20
739.071
 11
-240.003
 21
738.674
  0
LINE
  8
0
 10
-240.003
 20
738.674
 11
-240.364
 21
738.354
  0
LINE
  8
0
 10
-240.364
 20
738.354
 11
-240.791
 21
738.13
  0
LINE
  8
0
 10
-240.791
 20
738.13
 11
-241.259
 21
738.015
  0
LINE
  8
0
 10
-241.259
 20
738.015
 11
-241.741
 21
738.015
  0
LINE
  8
0
 10
-289.603
 20
729.126
 11
-290.016
 21
729.396
  0
LINE
  8
0
 10
-290.016
 20
729.396
 11
-290.319
 21
729.786
  0
LINE
  8
0
 10
-290.319
 20
729.786
 11
-290.48
 21
730.253
  0
LINE
  8
0
 10
-290.48
 20
730.253
 11
-290.48
 21
730.747
  0
LINE
  8
0
 10
-290.48
 20
730.747
 11
-290.319
 21
731.214
  0
LINE
  8
0
 10
-290.319
 20
731.214
 11
-290.016
 21
731.604
  0
LINE
  8
0
 10
-290.016
 20
731.604
 11
-289.603
 21
731.874
  0
LINE
  8
0
 10
-289.603
 20
731.874
 11
-289.124
 21
731.995
  0
LINE
  8
0
 10
-289.124
 20
731.995
 11
-288.632
 21
731.954
  0
LINE
  8
0
 10
-288.632
 20
731.954
 11
-288.18
 21
731.756
  0
LINE
  8
0
 10
-288.18
 20
731.756
 11
-287.816
 21
731.421
  0
LINE
  8
0
 10
-287.816
 20
731.421
 11
-287.581
 21
730.987
  0
LINE
  8
0
 10
-287.581
 20
730.987
 11
-287.5
 21
730.5
  0
LINE
  8
0
 10
-287.5
 20
730.5
 11
-287.581
 21
730.013
  0
LINE
  8
0
 10
-287.581
 20
730.013
 11
-287.816
 21
729.579
  0
LINE
  8
0
 10
-287.816
 20
729.579
 11
-288.18
 21
729.244
  0
LINE
  8
0
 10
-288.18
 20
729.244
 11
-288.632
 21
729.046
  0
LINE
  8
0
 10
-288.632
 20
729.046
 11
-289.124
 21
729.005
  0
LINE
  8
0
 10
-289.124
 20
729.005
 11
-289.603
 21
729.126
  0
LINE
  8
0
 10
-271.603
 20
729.126
 11
-272.016
 21
729.396
  0
LINE
  8
0
 10
-272.016
 20
729.396
 11
-272.319
 21
729.786
  0
LINE
  8
0
 10
-272.319
 20
729.786
 11
-272.48
 21
730.253
  0
LINE
  8
0
 10
-272.48
 20
730.253
 11
-272.48
 21
730.747
  0
LINE
  8
0
 10
-272.48
 20
730.747
 11
-272.319
 21
731.214
  0
LINE
  8
0
 10
-272.319
 20
731.214
 11
-272.016
 21
731.604
  0
LINE
  8
0
 10
-272.016
 20
731.604
 11
-271.603
 21
731.874
  0
LINE
  8
0
 10
-271.603
 20
731.874
 11
-271.124
 21
731.995
  0
LINE
  8
0
 10
-271.124
 20
731.995
 11
-270.632
 21
731.954
  0
LINE
  8
0
 10
-270.632
 20
731.954
 11
-270.18
 21
731.756
  0
LINE
  8
0
 10
-270.18
 20
731.756
 11
-269.816
 21
731.421
  0
LINE
  8
0
 10
-269.816
 20
731.421
 11
-269.581
 21
730.987
  0
LINE
  8
0
 10
-269.581
 20
730.987
 11
-269.5
 21
730.5
  0
LINE
  8
0
 10
-269.5
 20
730.5
 11
-269.581
 21
730.013
  0
LINE
  8
0
 10
-269.581
 20
730.013
 11
-269.816
 21
729.579
  0
LINE
  8
0
 10
-269.816
 20
729.579
 11
-270.18
 21
729.244
  0
LINE
  8
0
 10
-270.18
 20
729.244
 11
-270.632
 21
729.046
  0
LINE
  8
0
 10
-270.632
 20
729.046
 11
-271.124
 21
729.005
  0
LINE
  8
0
 10
-271.124
 20
729.005
 11
-271.603
 21
729.126
  0
LINE
  8
0
 10
-229.603
 20
729.126
 11
-230.016
 21
729.396
  0
LINE
  8
0
 10
-230.016
 20
729.396
 11
-230.319
 21
729.786
  0
LINE
  8
0
 10
-230.319
 20
729.786
 11
-230.48
 21
730.253
  0
LINE
  8
0
 10
-230.48
 20
730.253
 11
-230.48
 21
730.747
  0
LINE
  8
0
 10
-230.48
 20
730.747
 11
-230.319
 21
731.214
  0
LINE
  8
0
 10
-230.319
 20
731.214
 11
-230.016
 21
731.604
  0
LINE
  8
0
 10
-230.016
 20
731.604
 11
-229.603
 21
731.874
  0
LINE
  8
0
 10
-229.603
 20
731.874
 11
-229.124
 21
731.995
  0
LINE
  8
0
 10
-229.124
 20
731.995
 11
-228.632
 21
731.954
  0
LINE
  8
0
 10
-228.632
 20
731.954
 11
-228.18
 21
731.756
  0
LINE
  8
0
 10
-228.18
 20
731.756
 11
-227.816
 21
731.421
  0
LINE
  8
0
 10
-227.816
 20
731.421
 11
-227.581
 21
730.987
  0
LINE
  8
0
 10
-227.581
 20
730.987
 11
-227.5
 21
730.5
  0
LINE
  8
0
 10
-227.5
 20
730.5
 11
-227.581
 21
730.013
  0
LINE
  8
0
 10
-227.581
 20
730.013
 11
-227.816
 21
729.579
  0
LINE
  8
0
 10
-227.816
 20
729.579
 11
-228.18
 21
729.244
  0
LINE
  8
0
 10
-228.18
 20
729.244
 11
-228.632
 21
729.046
  0
LINE
  8
0
 10
-228.632
 20
729.046
 11
-229.124
 21
729.005
  0
LINE
  8
0
 10
-229.124
 20
729.005
 11
-229.603
 21
729.126
  0
LINE
  8
0
 10
-211.603
 20
729.126
 11
-212.016
 21
729.396
  0
LINE
  8
0
 10
-212.016
 20
729.396
 11
-212.319
 21
729.786
  0
LINE
  8
0
 10
-212.319
 20
729.786
 11
-212.48
 21
730.253
  0
LINE
  8
0
 10
-212.48
 20
730.253
 11
-212.48
 21
730.747
  0
LINE
  8
0
 10
-212.48
 20
730.747
 11
-212.319
 21
731.214
  0
LINE
  8
0
 10
-212.319
 20
731.214
 11
-212.016
 21
731.604
  0
LINE
  8
0
 10
-212.016
 20
731.604
 11
-211.603
 21
731.874
  0
LINE
  8
0
 10
-211.603
 20
731.874
 11
-211.124
 21
731.995
  0
LINE
  8
0
 10
-211.124
 20
731.995
 11
-210.632
 21
731.954
  0
LINE
  8
0
 10
-210.632
 20
731.954
 11
-210.18
 21
731.756
  0
LINE
  8
0
 10
-210.18
 20
731.756
 11
-209.816
 21
731.421
  0
LINE
  8
0
 10
-209.816
 20
731.421
 11
-209.581
 21
730.987
  0
LINE
  8
0
 10
-209.581
 20
730.987
 11
-209.5
 21
730.5
  0
LINE
  8
0
 10
-209.5
 20
730.5
 11
-209.581
 21
730.013
  0
LINE
  8
0
 10
-209.581
 20
730.013
 11
-209.816
 21
729.579
  0
LINE
  8
0
 10
-209.816
 20
729.579
 11
-210.18
 21
729.244
  0
LINE
  8
0
 10
-210.18
 20
729.244
 11
-210.632
 21
729.046
  0
LINE
  8
0
 10
-210.632
 20
729.046
 11
-211.124
 21
729.005
  0
LINE
  8
0
 10
-211.124
 20
729.005
 11
-211.603
 21
729.126
  0
LINE
  8
0
 10
-289.603
 20
712.126
 11
-290.016
 21
712.396
  0
LINE
  8
0
 10
-290.016
 20
712.396
 11
-290.319
 21
712.786
  0
LINE
  8
0
 10
-290.319
 20
712.786
 11
-290.48
 21
713.253
  0
LINE
  8
0
 10
-290.48
 20
713.253
 11
-290.48
 21
713.747
  0
LINE
  8
0
 10
-290.48
 20
713.747
 11
-290.319
 21
714.214
  0
LINE
  8
0
 10
-290.319
 20
714.214
 11
-290.016
 21
714.604
  0
LINE
  8
0
 10
-290.016
 20
714.604
 11
-289.603
 21
714.874
  0
LINE
  8
0
 10
-289.603
 20
714.874
 11
-289.124
 21
714.995
  0
LINE
  8
0
 10
-289.124
 20
714.995
 11
-288.632
 21
714.954
  0
LINE
  8
0
 10
-288.632
 20
714.954
 11
-288.18
 21
714.756
  0
LINE
  8
0
 10
-288.18
 20
714.756
 11
-287.816
 21
714.421
  0
LINE
  8
0
 10
-287.816
 20
714.421
 11
-287.581
 21
713.987
  0
LINE
  8
0
 10
-287.581
 20
713.987
 11
-287.5
 21
713.5
  0
LINE
  8
0
 10
-287.5
 20
713.5
 11
-287.581
 21
713.013
  0
LINE
  8
0
 10
-287.581
 20
713.013
 11
-287.816
 21
712.579
  0
LINE
  8
0
 10
-287.816
 20
712.579
 11
-288.18
 21
712.244
  0
LINE
  8
0
 10
-288.18
 20
712.244
 11
-288.632
 21
712.046
  0
LINE
  8
0
 10
-288.632
 20
712.046
 11
-289.124
 21
712.005
  0
LINE
  8
0
 10
-289.124
 20
712.005
 11
-289.603
 21
712.126
  0
LINE
  8
0
 10
-211.603
 20
712.126
 11
-212.016
 21
712.396
  0
LINE
  8
0
 10
-212.016
 20
712.396
 11
-212.319
 21
712.786
  0
LINE
  8
0
 10
-212.319
 20
712.786
 11
-212.48
 21
713.253
  0
LINE
  8
0
 10
-212.48
 20
713.253
 11
-212.48
 21
713.747
  0
LINE
  8
0
 10
-212.48
 20
713.747
 11
-212.319
 21
714.214
  0
LINE
  8
0
 10
-212.319
 20
714.214
 11
-212.016
 21
714.604
  0
LINE
  8
0
 10
-212.016
 20
714.604
 11
-211.603
 21
714.874
  0
LINE
  8
0
 10
-211.603
 20
714.874
 11
-211.124
 21
714.995
  0
LINE
  8
0
 10
-211.124
 20
714.995
 11
-210.632
 21
714.954
  0
LINE
  8
0
 10
-210.632
 20
714.954
 11
-210.18
 21
714.756
  0
LINE
  8
0
 10
-210.18
 20
714.756
 11
-209.816
 21
714.421
  0
LINE
  8
0
 10
-209.816
 20
714.421
 11
-209.581
 21
713.987
  0
LINE
  8
0
 10
-209.581
 20
713.987
 11
-209.5
 21
713.5
  0
LINE
  8
0
 10
-209.5
 20
713.5
 11
-209.581
 21
713.013
  0
LINE
  8
0
 10
-209.581
 20
713.013
 11
-209.816
 21
712.579
  0
LINE
  8
0
 10
-209.816
 20
712.579
 11
-210.18
 21
712.244
  0
LINE
  8
0
 10
-210.18
 20
712.244
 11
-210.632
 21
712.046
  0
LINE
  8
0
 10
-210.632
 20
712.046
 11
-211.124
 21
712.005
  0
LINE
  8
0
 10
-211.124
 20
712.005
 11
-211.603
 21
712.126
  0
LINE
  8
0
 10
-229.603
 20
712.126
 11
-230.016
 21
712.396
  0
LINE
  8
0
 10
-230.016
 20
712.396
 11
-230.319
 21
712.786
  0
LINE
  8
0
 10
-230.319
 20
712.786
 11
-230.48
 21
713.253
  0
LINE
  8
0
 10
-230.48
 20
713.253
 11
-230.48
 21
713.747
  0
LINE
  8
0
 10
-230.48
 20
713.747
 11
-230.319
 21
714.214
  0
LINE
  8
0
 10
-230.319
 20
714.214
 11
-230.016
 21
714.604
  0
LINE
  8
0
 10
-230.016
 20
714.604
 11
-229.603
 21
714.874
  0
LINE
  8
0
 10
-229.603
 20
714.874
 11
-229.124
 21
714.995
  0
LINE
  8
0
 10
-229.124
 20
714.995
 11
-228.632
 21
714.954
  0
LINE
  8
0
 10
-228.632
 20
714.954
 11
-228.18
 21
714.756
  0
LINE
  8
0
 10
-228.18
 20
714.756
 11
-227.816
 21
714.421
  0
LINE
  8
0
 10
-227.816
 20
714.421
 11
-227.581
 21
713.987
  0
LINE
  8
0
 10
-227.581
 20
713.987
 11
-227.5
 21
713.5
  0
LINE
  8
0
 10
-227.5
 20
713.5
 11
-227.581
 21
713.013
  0
LINE
  8
0
 10
-227.581
 20
713.013
 11
-227.816
 21
712.579
  0
LINE
  8
0
 10
-227.816
 20
712.579
 11
-228.18
 21
712.244
  0
LINE
  8
0
 10
-228.18
 20
712.244
 11
-228.632
 21
712.046
  0
LINE
  8
0
 10
-228.632
 20
712.046
 11
-229.124
 21
712.005
  0
LINE
  8
0
 10
-229.124
 20
712.005
 11
-229.603
 21
712.126
  0
LINE
  8
0
 10
-271.603
 20
712.126
 11
-272.016
 21
712.396
  0
LINE
  8
0
 10
-272.016
 20
712.396
 11
-272.319
 21
712.786
  0
LINE
  8
0
 10
-272.319
 20
712.786
 11
-272.48
 21
713.253
  0
LINE
  8
0
 10
-272.48
 20
713.253
 11
-272.48
 21
713.747
  0
LINE
  8
0
 10
-272.48
 20
713.747
 11
-272.319
 21
714.214
  0
LINE
  8
0
 10
-272.319
 20
714.214
 11
-272.016
 21
714.604
  0
LINE
  8
0
 10
-272.016
 20
714.604
 11
-271.603
 21
714.874
  0
LINE
  8
0
 10
-271.603
 20
714.874
 11
-271.124
 21
714.995
  0
LINE
  8
0
 10
-271.124
 20
714.995
 11
-270.632
 21
714.954
  0
LINE
  8
0
 10
-270.632
 20
714.954
 11
-270.18
 21
714.756
  0
LINE
  8
0
 10
-270.18
 20
714.756
 11
-269.816
 21
714.421
  0
LINE
  8
0
 10
-269.816
 20
714.421
 11
-269.581
 21
713.987
  0
LINE
  8
0
 10
-269.581
 20
713.987
 11
-269.5
 21
713.5
  0
LINE
  8
0
 10
-269.5
 20
713.5
 11
-269.581
 21
713.013
  0
LINE
  8
0
 10
-269.581
 20
713.013
 11
-269.816
 21
712.579
  0
LINE
  8
0
 10
-269.816
 20
712.579
 11
-270.18
 21
712.244
  0
LINE
  8
0
 10
-270.18
 20
712.244
 11
-270.632
 21
712.046
  0
LINE
  8
0
 10
-270.632
 20
712.046
 11
-271.124
 21
712.005
  0
LINE
  8
0
 10
-271.124
 20
712.005
 11
-271.603
 21
712.126
  0
LINE
  8
0
 10
-50
 20
660
 11
-150
 21
660
  0
LINE
  8
0
 10
-150
 20
660
 11
-150
 21
600
  0
LINE
  8
0
 10
-150
 20
600
 11
-50
 21
600
  0
LINE
  8
0
 10
-50
 20
600
 11
-50
 21
660
  0
LINE
  8
0
 10
-116.103
 20
649.126
 11
-116.516
 21
649.396
  0
LINE
  8
0
 10
-116.516
 20
649.396
 11
-116.819
 21
649.786
  0
LINE
  8
0
 10
-116.819
 20
649.786
 11
-116.98
 21
650.253
  0
LINE
  8
0
 10
-116.98
 20
650.253
 11
-116.98
 21
650.747
  0
LINE
  8
0
 10
-116.98
 20
650.747
 11
-116.819
 21
651.214
  0
LINE
  8
0
 10
-116.819
 20
651.214
 11
-116.516
 21
651.604
  0
LINE
  8
0
 10
-116.516
 20
651.604
 11
-116.103
 21
651.874
  0
LINE
  8
0
 10
-116.103
 20
651.874
 11
-115.624
 21
651.995
  0
LINE
  8
0
 10
-115.624
 20
651.995
 11
-115.132
 21
651.954
  0
LINE
  8
0
 10
-115.132
 20
651.954
 11
-114.68
 21
651.756
  0
LINE
  8
0
 10
-114.68
 20
651.756
 11
-114.316
 21
651.421
  0
LINE
  8
0
 10
-114.316
 20
651.421
 11
-114.081
 21
650.987
  0
LINE
  8
0
 10
-114.081
 20
650.987
 11
-114
 21
650.5
  0
LINE
  8
0
 10
-114
 20
650.5
 11
-114.081
 21
650.013
  0
LINE
  8
0
 10
-114.081
 20
650.013
 11
-114.316
 21
649.579
  0
LINE
  8
0
 10
-114.316
 20
649.579
 11
-114.68
 21
649.244
  0
LINE
  8
0
 10
-114.68
 20
649.244
 11
-115.132
 21
649.046
  0
LINE
  8
0
 10
-115.132
 20
649.046
 11
-115.624
 21
649.005
  0
LINE
  8
0
 10
-115.624
 20
649.005
 11
-116.103
 21
649.126
  0
LINE
  8
0
 10
-85.1025
 20
649.126
 11
-85.5159
 21
649.396
  0
LINE
  8
0
 10
-85.5159
 20
649.396
 11
-85.8192
 21
649.786
  0
LINE
  8
0
 10
-85.8192
 20
649.786
 11
-85.9795
 21
650.253
  0
LINE
  8
0
 10
-85.9795
 20
650.253
 11
-85.9795
 21
650.747
  0
LINE
  8
0
 10
-85.9795
 20
650.747
 11
-85.8192
 21
651.214
  0
LINE
  8
0
 10
-85.8192
 20
651.214
 11
-85.5159
 21
651.604
  0
LINE
  8
0
 10
-85.5159
 20
651.604
 11
-85.1025
 21
651.874
  0
LINE
  8
0
 10
-85.1025
 20
651.874
 11
-84.6239
 21
651.995
  0
LINE
  8
0
 10
-84.6239
 20
651.995
 11
-84.1318
 21
651.954
  0
LINE
  8
0
 10
-84.1318
 20
651.954
 11
-83.6796
 21
651.756
  0
LINE
  8
0
 10
-83.6796
 20
651.756
 11
-83.3163
 21
651.421
  0
LINE
  8
0
 10
-83.3163
 20
651.421
 11
-83.0813
 21
650.987
  0
LINE
  8
0
 10
-83.0813
 20
650.987
 11
-83
 21
650.5
  0
LINE
  8
0
 10
-83
 20
650.5
 11
-83.0813
 21
650.013
  0
LINE
  8
0
 10
-83.0813
 20
650.013
 11
-83.3163
 21
649.579
  0
LINE
  8
0
 10
-83.3163
 20
649.579
 11
-83.6796
 21
649.244
  0
LINE
  8
0
 10
-83.6796
 20
649.244
 11
-84.1318
 21
649.046
  0
LINE
  8
0
 10
-84.1318
 20
649.046
 11
-84.6239
 21
649.005
  0
LINE
  8
0
 10
-84.6239
 20
649.005
 11
-85.1025
 21
649.126
  0
LINE
  8
0
 10
-100.621
 20
624.018
 11
-101.117
 21
624.057
  0
LINE
  8
0
 10
-101.117
 20
624.057
 11
-101.61
 21
624.118
  0
LINE
  8
0
 10
-101.61
 20
624.118
 11
-102.1
 21
624.202
  0
LINE
  8
0
 10
-102.1
 20
624.202
 11
-102.586
 21
624.308
  0
LINE
  8
0
 10
-102.586
 20
624.308
 11
-103.067
 21
624.436
  0
LINE
  8
0
 10
-103.067
 20
624.436
 11
-103.541
 21
624.585
  0
LINE
  8
0
 10
-103.541
 20
624.585
 11
-104.008
 21
624.756
  0
LINE
  8
0
 10
-104.008
 20
624.756
 11
-104.467
 21
624.948
  0
LINE
  8
0
 10
-104.467
 20
624.948
 11
-104.916
 21
625.16
  0
LINE
  8
0
 10
-104.916
 20
625.16
 11
-105.356
 21
625.392
  0
LINE
  8
0
 10
-105.356
 20
625.392
 11
-105.785
 21
625.644
  0
LINE
  8
0
 10
-105.785
 20
625.644
 11
-106.201
 21
625.915
  0
LINE
  8
0
 10
-106.201
 20
625.915
 11
-106.606
 21
626.204
  0
LINE
  8
0
 10
-106.606
 20
626.204
 11
-106.996
 21
626.512
  0
LINE
  8
0
 10
-106.996
 20
626.512
 11
-107.373
 21
626.836
  0
LINE
  8
0
 10
-107.373
 20
626.836
 11
-107.734
 21
627.178
  0
LINE
  8
0
 10
-107.734
 20
627.178
 11
-108.08
 21
627.535
  0
LINE
  8
0
 10
-108.08
 20
627.535
 11
-108.409
 21
627.908
  0
LINE
  8
0
 10
-108.409
 20
627.908
 11
-108.721
 21
628.295
  0
LINE
  8
0
 10
-108.721
 20
628.295
 11
-109.015
 21
628.696
  0
LINE
  8
0
 10
-109.015
 20
628.696
 11
-109.29
 21
629.11
  0
LINE
  8
0
 10
-109.29
 20
629.11
 11
-109.547
 21
629.536
  0
LINE
  8
0
 10
-109.547
 20
629.536
 11
-109.784
 21
629.973
  0
LINE
  8
0
 10
-109.784
 20
629.973
 11
-110.001
 21
630.42
  0
LINE
  8
0
 10
-110.001
 20
630.42
 11
-110.198
 21
630.877
  0
LINE
  8
0
 10
-110.198
 20
630.877
 11
-110.374
 21
631.342
  0
LINE
  8
0
 10
-110.374
 20
631.342
 11
-110.529
 21
631.814
  0
LINE
  8
0
 10
-110.529
 20
631.814
 11
-110.662
 21
632.293
  0
LINE
  8
0
 10
-110.662
 20
632.293
 11
-110.773
 21
632.778
  0
LINE
  8
0
 10
-110.773
 20
632.778
 11
-110.863
 21
633.267
  0
LINE
  8
0
 10
-110.863
 20
633.267
 11
-110.93
 21
633.76
  0
LINE
  8
0
 10
-110.93
 20
633.76
 11
-110.975
 21
634.255
  0
LINE
  8
0
 10
-110.975
 20
634.255
 11
-110.997
 21
634.751
  0
LINE
  8
0
 10
-110.997
 20
634.751
 11
-110.997
 21
635.249
  0
LINE
  8
0
 10
-110.997
 20
635.249
 11
-110.975
 21
635.745
  0
LINE
  8
0
 10
-110.975
 20
635.745
 11
-110.93
 21
636.24
  0
LINE
  8
0
 10
-110.93
 20
636.24
 11
-110.863
 21
636.733
  0
LINE
  8
0
 10
-110.863
 20
636.733
 11
-110.773
 21
637.222
  0
LINE
  8
0
 10
-110.773
 20
637.222
 11
-110.662
 21
637.707
  0
LINE
  8
0
 10
-110.662
 20
637.707
 11
-110.529
 21
638.186
  0
LINE
  8
0
 10
-110.529
 20
638.186
 11
-110.374
 21
638.658
  0
LINE
  8
0
 10
-110.374
 20
638.658
 11
-110.198
 21
639.123
  0
LINE
  8
0
 10
-110.198
 20
639.123
 11
-110.001
 21
639.58
  0
LINE
  8
0
 10
-110.001
 20
639.58
 11
-109.784
 21
640.027
  0
LINE
  8
0
 10
-109.784
 20
640.027
 11
-109.547
 21
640.464
  0
LINE
  8
0
 10
-109.547
 20
640.464
 11
-109.29
 21
640.89
  0
LINE
  8
0
 10
-109.29
 20
640.89
 11
-109.015
 21
641.304
  0
LINE
  8
0
 10
-109.015
 20
641.304
 11
-108.721
 21
641.705
  0
LINE
  8
0
 10
-108.721
 20
641.705
 11
-108.409
 21
642.092
  0
LINE
  8
0
 10
-108.409
 20
642.092
 11
-108.08
 21
642.465
  0
LINE
  8
0
 10
-108.08
 20
642.465
 11
-107.734
 21
642.822
  0
LINE
  8
0
 10
-107.734
 20
642.822
 11
-107.373
 21
643.164
  0
LINE
  8
0
 10
-107.373
 20
643.164
 11
-106.996
 21
643.488
  0
LINE
  8
0
 10
-106.996
 20
643.488
 11
-106.606
 21
643.796
  0
LINE
  8
0
 10
-106.606
 20
643.796
 11
-106.201
 21
644.085
  0
LINE
  8
0
 10
-106.201
 20
644.085
 11
-105.785
 21
644.356
  0
LINE
  8
0
 10
-105.785
 20
644.356
 11
-105.356
 21
644.608
  0
LINE
  8
0
 10
-105.356
 20
644.608
 11
-104.916
 21
644.84
  0
LINE
  8
0
 10
-104.916
 20
644.84
 11
-104.467
 21
645.052
  0
LINE
  8
0
 10
-104.467
 20
645.052
 11
-104.008
 21
645.244
  0
LINE
  8
0
 10
-104.008
 20
645.244
 11
-103.541
 21
645.415
  0
LINE
  8
0
 10
-103.541
 20
645.415
 11
-103.067
 21
645.564
  0
LINE
  8
0
 10
-103.067
 20
645.564
 11
-102.586
 21
645.692
  0
LINE
  8
0
 10
-102.586
 20
645.692
 11
-102.1
 21
645.798
  0
LINE
  8
0
 10
-102.1
 20
645.798
 11
-101.61
 21
645.882
  0
LINE
  8
0
 10
-101.61
 20
645.882
 11
-101.117
 21
645.943
  0
LINE
  8
0
 10
-101.117
 20
645.943
 11
-100.621
 21
645.982
  0
LINE
  8
0
 10
-100.621
 20
645.982
 11
-100.124
 21
645.999
  0
LINE
  8
0
 10
-100.124
 20
645.999
 11
-99.6272
 21
645.994
  0
LINE
  8
0
 10
-99.6272
 20
645.994
 11
-99.1308
 21
645.966
  0
LINE
  8
0
 10
-99.1308
 20
645.966
 11
-98.6361
 21
645.915
  0
LINE
  8
0
 10
-98.6361
 20
645.915
 11
-98.1443
 21
645.842
  0
LINE
  8
0
 10
-98.1443
 20
645.842
 11
-97.6563
 21
645.747
  0
LINE
  8
0
 10
-97.6563
 20
645.747
 11
-97.173
 21
645.631
  0
LINE
  8
0
 10
-97.173
 20
645.631
 11
-96.6955
 21
645.492
  0
LINE
  8
0
 10
-96.6955
 20
645.492
 11
-96.2248
 21
645.332
  0
LINE
  8
0
 10
-96.2248
 20
645.332
 11
-95.7618
 21
645.151
  0
LINE
  8
0
 10
-95.7618
 20
645.151
 11
-95.3074
 21
644.949
  0
LINE
  8
0
 10
-95.3074
 20
644.949
 11
-94.8627
 21
644.727
  0
LINE
  8
0
 10
-94.8627
 20
644.727
 11
-94.4284
 21
644.485
  0
LINE
  8
0
 10
-94.4284
 20
644.485
 11
-94.0055
 21
644.223
  0
LINE
  8
0
 10
-94.0055
 20
644.223
 11
-93.5948
 21
643.943
  0
LINE
  8
0
 10
-93.5948
 20
643.943
 11
-93.1973
 21
643.644
  0
LINE
  8
0
 10
-93.1973
 20
643.644
 11
-92.8136
 21
643.328
  0
LINE
  8
0
 10
-92.8136
 20
643.328
 11
-92.4446
 21
642.995
  0
LINE
  8
0
 10
-92.4446
 20
642.995
 11
-92.0911
 21
642.645
  0
LINE
  8
0
 10
-92.0911
 20
642.645
 11
-91.7537
 21
642.28
  0
LINE
  8
0
 10
-91.7537
 20
642.28
 11
-91.4332
 21
641.9
  0
LINE
  8
0
 10
-91.4332
 20
641.9
 11
-91.1301
 21
641.506
  0
LINE
  8
0
 10
-91.1301
 20
641.506
 11
-90.8452
 21
641.098
  0
LINE
  8
0
 10
-90.8452
 20
641.098
 11
-90.579
 21
640.678
  0
LINE
  8
0
 10
-90.579
 20
640.678
 11
-90.332
 21
640.247
  0
LINE
  8
0
 10
-90.332
 20
640.247
 11
-90.1048
 21
639.805
  0
LINE
  8
0
 10
-90.1048
 20
639.805
 11
-89.8978
 21
639.353
  0
LINE
  8
0
 10
-89.8978
 20
639.353
 11
-89.7114
 21
638.892
  0
LINE
  8
0
 10
-89.7114
 20
638.892
 11
-89.5461
 21
638.423
  0
LINE
  8
0
 10
-89.5461
 20
638.423
 11
-89.4021
 21
637.947
  0
LINE
  8
0
 10
-89.4021
 20
637.947
 11
-89.2798
 21
637.465
  0
LINE
  8
0
 10
-89.2798
 20
637.465
 11
-89.1793
 21
636.978
  0
LINE
  8
0
 10
-89.1793
 20
636.978
 11
-89.101
 21
636.487
  0
LINE
  8
0
 10
-89.101
 20
636.487
 11
-89.0449
 21
635.993
  0
LINE
  8
0
 10
-89.0449
 20
635.993
 11
-89.0112
 21
635.497
  0
LINE
  8
0
 10
-89.0112
 20
635.497
 11
-89
 21
635
  0
LINE
  8
0
 10
-89
 20
635
 11
-89.0112
 21
634.503
  0
LINE
  8
0
 10
-89.0112
 20
634.503
 11
-89.0449
 21
634.007
  0
LINE
  8
0
 10
-89.0449
 20
634.007
 11
-89.101
 21
633.513
  0
LINE
  8
0
 10
-89.101
 20
633.513
 11
-89.1793
 21
633.022
  0
LINE
  8
0
 10
-89.1793
 20
633.022
 11
-89.2798
 21
632.535
  0
LINE
  8
0
 10
-89.2798
 20
632.535
 11
-89.4021
 21
632.053
  0
LINE
  8
0
 10
-89.4021
 20
632.053
 11
-89.5461
 21
631.577
  0
LINE
  8
0
 10
-89.5461
 20
631.577
 11
-89.7114
 21
631.108
  0
LINE
  8
0
 10
-89.7114
 20
631.108
 11
-89.8978
 21
630.647
  0
LINE
  8
0
 10
-89.8978
 20
630.647
 11
-90.1048
 21
630.195
  0
LINE
  8
0
 10
-90.1048
 20
630.195
 11
-90.332
 21
629.753
  0
LINE
  8
0
 10
-90.332
 20
629.753
 11
-90.579
 21
629.322
  0
LINE
  8
0
 10
-90.579
 20
629.322
 11
-90.8452
 21
628.902
  0
LINE
  8
0
 10
-90.8452
 20
628.902
 11
-91.1301
 21
628.494
  0
LINE
  8
0
 10
-91.1301
 20
628.494
 11
-91.4332
 21
628.1
  0
LINE
  8
0
 10
-91.4332
 20
628.1
 11
-91.7537
 21
627.72
  0
LINE
  8
0
 10
-91.7537
 20
627.72
 11
-92.0911
 21
627.355
  0
LINE
  8
0
 10
-92.0911
 20
627.355
 11
-92.4446
 21
627.005
  0
LINE
  8
0
 10
-92.4446
 20
627.005
 11
-92.8136
 21
626.672
  0
LINE
  8
0
 10
-92.8136
 20
626.672
 11
-93.1973
 21
626.356
  0
LINE
  8
0
 10
-93.1973
 20
626.356
 11
-93.5948
 21
626.057
  0
LINE
  8
0
 10
-93.5948
 20
626.057
 11
-94.0055
 21
625.777
  0
LINE
  8
0
 10
-94.0055
 20
625.777
 11
-94.4284
 21
625.515
  0
LINE
  8
0
 10
-94.4284
 20
625.515
 11
-94.8627
 21
625.273
  0
LINE
  8
0
 10
-94.8627
 20
625.273
 11
-95.3074
 21
625.051
  0
LINE
  8
0
 10
-95.3074
 20
625.051
 11
-95.7618
 21
624.849
  0
LINE
  8
0
 10
-95.7618
 20
624.849
 11
-96.2248
 21
624.668
  0
LINE
  8
0
 10
-96.2248
 20
624.668
 11
-96.6955
 21
624.508
  0
LINE
  8
0
 10
-96.6955
 20
624.508
 11
-97.173
 21
624.369
  0
LINE
  8
0
 10
-97.173
 20
624.369
 11
-97.6563
 21
624.253
  0
LINE
  8
0
 10
-97.6563
 20
624.253
 11
-98.1443
 21
624.158
  0
LINE
  8
0
 10
-98.1443
 20
624.158
 11
-98.6361
 21
624.085
  0
LINE
  8
0
 10
-98.6361
 20
624.085
 11
-99.1308
 21
624.034
  0
LINE
  8
0
 10
-99.1308
 20
624.034
 11
-99.6272
 21
624.006
  0
LINE
  8
0
 10
-99.6272
 20
624.006
 11
-100.124
 21
624.001
  0
LINE
  8
0
 10
-100.124
 20
624.001
 11
-100.621
 21
624.018
  0
LINE
  8
0
 10
-130.614
 20
626.047
 11
-131.095
 21
626.153
  0
LINE
  8
0
 10
-131.095
 20
626.153
 11
-131.559
 21
626.316
  0
LINE
  8
0
 10
-131.559
 20
626.316
 11
-132
 21
626.536
  0
LINE
  8
0
 10
-132
 20
626.536
 11
-132.411
 21
626.808
  0
LINE
  8
0
 10
-132.411
 20
626.808
 11
-132.785
 21
627.128
  0
LINE
  8
0
 10
-132.785
 20
627.128
 11
-133.116
 21
627.492
  0
LINE
  8
0
 10
-133.116
 20
627.492
 11
-133.401
 21
627.894
  0
LINE
  8
0
 10
-133.401
 20
627.894
 11
-133.634
 21
628.328
  0
LINE
  8
0
 10
-133.634
 20
628.328
 11
-133.812
 21
628.787
  0
LINE
  8
0
 10
-133.812
 20
628.787
 11
-133.932
 21
629.265
  0
LINE
  8
0
 10
-133.932
 20
629.265
 11
-133.992
 21
629.754
  0
LINE
  8
0
 10
-133.992
 20
629.754
 11
-133.992
 21
630.246
  0
LINE
  8
0
 10
-133.992
 20
630.246
 11
-133.932
 21
630.735
  0
LINE
  8
0
 10
-133.932
 20
630.735
 11
-133.812
 21
631.213
  0
LINE
  8
0
 10
-133.812
 20
631.213
 11
-133.634
 21
631.672
  0
LINE
  8
0
 10
-133.634
 20
631.672
 11
-133.401
 21
632.106
  0
LINE
  8
0
 10
-133.401
 20
632.106
 11
-133.116
 21
632.508
  0
LINE
  8
0
 10
-133.116
 20
632.508
 11
-132.785
 21
632.872
  0
LINE
  8
0
 10
-132.785
 20
632.872
 11
-132.411
 21
633.192
  0
LINE
  8
0
 10
-132.411
 20
633.192
 11
-132
 21
633.464
  0
LINE
  8
0
 10
-132
 20
633.464
 11
-131.559
 21
633.684
  0
LINE
  8
0
 10
-131.559
 20
633.684
 11
-131.095
 21
633.847
  0
LINE
  8
0
 10
-131.095
 20
633.847
 11
-130.614
 21
633.953
  0
LINE
  8
0
 10
-130.614
 20
633.953
 11
-130.123
 21
633.998
  0
LINE
  8
0
 10
-130.123
 20
633.998
 11
-129.631
 21
633.983
  0
LINE
  8
0
 10
-129.631
 20
633.983
 11
-129.144
 21
633.907
  0
LINE
  8
0
 10
-129.144
 20
633.907
 11
-128.671
 21
633.773
  0
LINE
  8
0
 10
-128.671
 20
633.773
 11
-128.217
 21
633.581
  0
LINE
  8
0
 10
-128.217
 20
633.581
 11
-127.791
 21
633.334
  0
LINE
  8
0
 10
-127.791
 20
633.334
 11
-127.398
 21
633.038
  0
LINE
  8
0
 10
-127.398
 20
633.038
 11
-127.044
 21
632.695
  0
LINE
  8
0
 10
-127.044
 20
632.695
 11
-126.735
 21
632.311
  0
LINE
  8
0
 10
-126.735
 20
632.311
 11
-126.476
 21
631.892
  0
LINE
  8
0
 10
-126.476
 20
631.892
 11
-126.27
 21
631.445
  0
LINE
  8
0
 10
-126.27
 20
631.445
 11
-126.121
 21
630.976
  0
LINE
  8
0
 10
-126.121
 20
630.976
 11
-126.03
 21
630.492
  0
LINE
  8
0
 10
-126.03
 20
630.492
 11
-126
 21
630
  0
LINE
  8
0
 10
-126
 20
630
 11
-126.03
 21
629.508
  0
LINE
  8
0
 10
-126.03
 20
629.508
 11
-126.121
 21
629.024
  0
LINE
  8
0
 10
-126.121
 20
629.024
 11
-126.27
 21
628.555
  0
LINE
  8
0
 10
-126.27
 20
628.555
 11
-126.476
 21
628.108
  0
LINE
  8
0
 10
-126.476
 20
628.108
 11
-126.735
 21
627.689
  0
LINE
  8
0
 10
-126.735
 20
627.689
 11
-127.044
 21
627.305
  0
LINE
  8
0
 10
-127.044
 20
627.305
 11
-127.398
 21
626.962
  0
LINE
  8
0
 10
-127.398
 20
626.962
 11
-127.791
 21
626.666
  0
LINE
  8
0
 10
-127.791
 20
626.666
 11
-128.217
 21
626.419
  0
LINE
  8
0
 10
-128.217
 20
626.419
 11
-128.671
 21
626.227
  0
LINE
  8
0
 10
-128.671
 20
626.227
 11
-129.144
 21
626.093
  0
LINE
  8
0
 10
-129.144
 20
626.093
 11
-129.631
 21
626.017
  0
LINE
  8
0
 10
-129.631
 20
626.017
 11
-130.123
 21
626.002
  0
LINE
  8
0
 10
-130.123
 20
626.002
 11
-130.614
 21
626.047
  0
LINE
  8
0
 10
-70.6136
 20
626.047
 11
-71.0947
 21
626.153
  0
LINE
  8
0
 10
-71.0947
 20
626.153
 11
-71.5591
 21
626.316
  0
LINE
  8
0
 10
-71.5591
 20
626.316
 11
-72
 21
626.536
  0
LINE
  8
0
 10
-72
 20
626.536
 11
-72.4105
 21
626.808
  0
LINE
  8
0
 10
-72.4105
 20
626.808
 11
-72.7845
 21
627.128
  0
LINE
  8
0
 10
-72.7845
 20
627.128
 11
-73.1163
 21
627.492
  0
LINE
  8
0
 10
-73.1163
 20
627.492
 11
-73.4009
 21
627.894
  0
LINE
  8
0
 10
-73.4009
 20
627.894
 11
-73.6339
 21
628.328
  0
LINE
  8
0
 10
-73.6339
 20
628.328
 11
-73.8118
 21
628.787
  0
LINE
  8
0
 10
-73.8118
 20
628.787
 11
-73.9319
 21
629.265
  0
LINE
  8
0
 10
-73.9319
 20
629.265
 11
-73.9924
 21
629.754
  0
LINE
  8
0
 10
-73.9924
 20
629.754
 11
-73.9924
 21
630.246
  0
LINE
  8
0
 10
-73.9924
 20
630.246
 11
-73.9319
 21
630.735
  0
LINE
  8
0
 10
-73.9319
 20
630.735
 11
-73.8118
 21
631.213
  0
LINE
  8
0
 10
-73.8118
 20
631.213
 11
-73.6339
 21
631.672
  0
LINE
  8
0
 10
-73.6339
 20
631.672
 11
-73.4009
 21
632.106
  0
LINE
  8
0
 10
-73.4009
 20
632.106
 11
-73.1163
 21
632.508
  0
LINE
  8
0
 10
-73.1163
 20
632.508
 11
-72.7845
 21
632.872
  0
LINE
  8
0
 10
-72.7845
 20
632.872
 11
-72.4105
 21
633.192
  0
LINE
  8
0
 10
-72.4105
 20
633.192
 11
-72
 21
633.464
  0
LINE
  8
0
 10
-72
 20
633.464
 11
-71.5591
 21
633.684
  0
LINE
  8
0
 10
-71.5591
 20
633.684
 11
-71.0947
 21
633.847
  0
LINE
  8
0
 10
-71.0947
 20
633.847
 11
-70.6136
 21
633.953
  0
LINE
  8
0
 10
-70.6136
 20
633.953
 11
-70.1232
 21
633.998
  0
LINE
  8
0
 10
-70.1232
 20
633.998
 11
-69.6309
 21
633.983
  0
LINE
  8
0
 10
-69.6309
 20
633.983
 11
-69.1443
 21
633.907
  0
LINE
  8
0
 10
-69.1443
 20
633.907
 11
-68.6706
 21
633.773
  0
LINE
  8
0
 10
-68.6706
 20
633.773
 11
-68.217
 21
633.581
  0
LINE
  8
0
 10
-68.217
 20
633.581
 11
-67.7905
 21
633.334
  0
LINE
  8
0
 10
-67.7905
 20
633.334
 11
-67.3975
 21
633.038
  0
LINE
  8
0
 10
-67.3975
 20
633.038
 11
-67.044
 21
632.695
  0
LINE
  8
0
 10
-67.044
 20
632.695
 11
-66.7352
 21
632.311
  0
LINE
  8
0
 10
-66.7352
 20
632.311
 11
-66.476
 21
631.892
  0
LINE
  8
0
 10
-66.476
 20
631.892
 11
-66.2701
 21
631.445
  0
LINE
  8
0
 10
-66.2701
 20
631.445
 11
-66.1208
 21
630.976
  0
LINE
  8
0
 10
-66.1208
 20
630.976
 11
-66.0303
 21
630.492
  0
LINE
  8
0
 10
-66.0303
 20
630.492
 11
-66
 21
630
  0
LINE
  8
0
 10
-66
 20
630
 11
-66.0303
 21
629.508
  0
LINE
  8
0
 10
-66.0303
 20
629.508
 11
-66.1208
 21
629.024
  0
LINE
  8
0
 10
-66.1208
 20
629.024
 11
-66.2701
 21
628.555
  0
LINE
  8
0
 10
-66.2701
 20
628.555
 11
-66.476
 21
628.108
  0
LINE
  8
0
 10
-66.476
 20
628.108
 11
-66.7352
 21
627.689
  0
LINE
  8
0
 10
-66.7352
 20
627.689
 11
-67.044
 21
627.305
  0
LINE
  8
0
 10
-67.044
 20
627.305
 11
-67.3975
 21
626.962
  0
LINE
  8
0
 10
-67.3975
 20
626.962
 11
-67.7905
 21
626.666
  0
LINE
  8
0
 10
-67.7905
 20
626.666
 11
-68.217
 21
626.419
  0
LINE
  8
0
 10
-68.217
 20
626.419
 11
-68.6706
 21
626.227
  0
LINE
  8
0
 10
-68.6706
 20
626.227
 11
-69.1443
 21
626.093
  0
LINE
  8
0
 10
-69.1443
 20
626.093
 11
-69.6309
 21
626.017
  0
LINE
  8
0
 10
-69.6309
 20
626.017
 11
-70.1232
 21
626.002
  0
LINE
  8
0
 10
-70.1232
 20
626.002
 11
-70.6136
 21
626.047
  0
LINE
  8
0
 10
-116.103
 20
618.126
 11
-116.516
 21
618.396
  0
LINE
  8
0
 10
-116.516
 20
618.396
 11
-116.819
 21
618.786
  0
LINE
  8
0
 10
-116.819
 20
618.786
 11
-116.98
 21
619.253
  0
LINE
  8
0
 10
-116.98
 20
619.253
 11
-116.98
 21
619.747
  0
LINE
  8
0
 10
-116.98
 20
619.747
 11
-116.819
 21
620.214
  0
LINE
  8
0
 10
-116.819
 20
620.214
 11
-116.516
 21
620.604
  0
LINE
  8
0
 10
-116.516
 20
620.604
 11
-116.103
 21
620.874
  0
LINE
  8
0
 10
-116.103
 20
620.874
 11
-115.624
 21
620.995
  0
LINE
  8
0
 10
-115.624
 20
620.995
 11
-115.132
 21
620.954
  0
LINE
  8
0
 10
-115.132
 20
620.954
 11
-114.68
 21
620.756
  0
LINE
  8
0
 10
-114.68
 20
620.756
 11
-114.316
 21
620.421
  0
LINE
  8
0
 10
-114.316
 20
620.421
 11
-114.081
 21
619.987
  0
LINE
  8
0
 10
-114.081
 20
619.987
 11
-114
 21
619.5
  0
LINE
  8
0
 10
-114
 20
619.5
 11
-114.081
 21
619.013
  0
LINE
  8
0
 10
-114.081
 20
619.013
 11
-114.316
 21
618.579
  0
LINE
  8
0
 10
-114.316
 20
618.579
 11
-114.68
 21
618.244
  0
LINE
  8
0
 10
-114.68
 20
618.244
 11
-115.132
 21
618.046
  0
LINE
  8
0
 10
-115.132
 20
618.046
 11
-115.624
 21
618.005
  0
LINE
  8
0
 10
-115.624
 20
618.005
 11
-116.103
 21
618.126
  0
LINE
  8
0
 10
-85.1025
 20
618.126
 11
-85.5159
 21
618.396
  0
LINE
  8
0
 10
-85.5159
 20
618.396
 11
-85.8192
 21
618.786
  0
LINE
  8
0
 10
-85.8192
 20
618.786
 11
-85.9795
 21
619.253
  0
LINE
  8
0
 10
-85.9795
 20
619.253
 11
-85.9795
 21
619.747
  0
LINE
  8
0
 10
-85.9795
 20
619.747
 11
-85.8192
 21
620.214
  0
LINE
  8
0
 10
-85.8192
 20
620.214
 11
-85.5159
 21
620.604
  0
LINE
  8
0
 10
-85.5159
 20
620.604
 11
-85.1025
 21
620.874
  0
LINE
  8
0
 10
-85.1025
 20
620.874
 11
-84.6239
 21
620.995
  0
LINE
  8
0
 10
-84.6239
 20
620.995
 11
-84.1318
 21
620.954
  0
LINE
  8
0
 10
-84.1318
 20
620.954
 11
-83.6796
 21
620.756
  0
LINE
  8
0
 10
-83.6796
 20
620.756
 11
-83.3163
 21
620.421
  0
LINE
  8
0
 10
-83.3163
 20
620.421
 11
-83.0813
 21
619.987
  0
LINE
  8
0
 10
-83.0813
 20
619.987
 11
-83
 21
619.5
  0
LINE
  8
0
 10
-83
 20
619.5
 11
-83.0813
 21
619.013
  0
LINE
  8
0
 10
-83.0813
 20
619.013
 11
-83.3163
 21
618.579
  0
LINE
  8
0
 10
-83.3163
 20
618.579
 11
-83.6796
 21
618.244
  0
LINE
  8
0
 10
-83.6796
 20
618.244
 11
-84.1318
 21
618.046
  0
LINE
  8
0
 10
-84.1318
 20
618.046
 11
-84.6239
 21
618.005
  0
LINE
  8
0
 10
-84.6239
 20
618.005
 11
-85.1025
 21
618.126
  0
LINE
  8
0
 10
500
 20
550
 11
0
 21
550
  0
LINE
  8
0
 10
0
 20
550
 11
0
 21
50
  0
LINE
  8
0
 10
0
 20
50
 11
500
 21
50
  0
LINE
  8
0
 10
500
 20
50
 11
500
 21
550
  0
LINE
  8
0
 10
150
 20
300
 11
150
 21
450
  0
LINE
  8
0
 10
150
 20
450
 11
350
 21
450
  0
LINE
  8
0
 10
350
 20
450
 11
350
 21
300
  0
LINE
  8
0
 10
350
 20
300
 11
150
 21
300
  0
LINE
  8
0
 10
264.897
 20
99.1263
 11
264.484
 21
99.3964
  0
LINE
  8
0
 10
264.484
 20
99.3964
 11
264.181
 21
99.7861
  0
LINE
  8
0
 10
264.181
 20
99.7861
 11
264.02
 21
100.253
  0
LINE
  8
0
 10
264.02
 20
100.253
 11
264.02
 21
100.747
  0
LINE
  8
0
 10
264.02
 20
100.747
 11
264.181
 21
101.214
  0
LINE
  8
0
 10
264.181
 20
101.214
 11
264.484
 21
101.604
  0
LINE
  8
0
 10
264.484
 20
101.604
 11
264.897
 21
101.874
  0
LINE
  8
0
 10
264.897
 20
101.874
 11
265.376
 21
101.995
  0
LINE
  8
0
 10
265.376
 20
101.995
 11
265.868
 21
101.954
  0
LINE
  8
0
 10
265.868
 20
101.954
 11
266.32
 21
101.756
  0
LINE
  8
0
 10
266.32
 20
101.756
 11
266.684
 21
101.421
  0
LINE
  8
0
 10
266.684
 20
101.421
 11
266.919
 21
100.987
  0
LINE
  8
0
 10
266.919
 20
100.987
 11
267
 21
100.5
  0
LINE
  8
0
 10
267
 20
100.5
 11
266.919
 21
100.013
  0
LINE
  8
0
 10
266.919
 20
100.013
 11
266.684
 21
99.5787
  0
LINE
  8
0
 10
266.684
 20
99.5787
 11
266.32
 21
99.2442
  0
LINE
  8
0
 10
266.32
 20
99.2442
 11
265.868
 21
99.0459
  0
LINE
  8
0
 10
265.868
 20
99.0459
 11
265.376
 21
99.0051
  0
LINE
  8
0
 10
265.376
 20
99.0051
 11
264.897
 21
99.1263
  0
LINE
  8
0
 10
233.897
 20
99.1263
 11
233.484
 21
99.3964
  0
LINE
  8
0
 10
233.484
 20
99.3964
 11
233.181
 21
99.7861
  0
LINE
  8
0
 10
233.181
 20
99.7861
 11
233.02
 21
100.253
  0
LINE
  8
0
 10
233.02
 20
100.253
 11
233.02
 21
100.747
  0
LINE
  8
0
 10
233.02
 20
100.747
 11
233.181
 21
101.214
  0
LINE
  8
0
 10
233.181
 20
101.214
 11
233.484
 21
101.604
  0
LINE
  8
0
 10
233.484
 20
101.604
 11
233.897
 21
101.874
  0
LINE
  8
0
 10
233.897
 20
101.874
 11
234.376
 21
101.995
  0
LINE
  8
0
 10
234.376
 20
101.995
 11
234.868
 21
101.954
  0
LINE
  8
0
 10
234.868
 20
101.954
 11
235.32
 21
101.756
  0
LINE
  8
0
 10
235.32
 20
101.756
 11
235.684
 21
101.421
  0
LINE
  8
0
 10
235.684
 20
101.421
 11
235.919
 21
100.987
  0
LINE
  8
0
 10
235.919
 20
100.987
 11
236
 21
100.5
  0
LINE
  8
0
 10
236
 20
100.5
 11
235.919
 21
100.013
  0
LINE
  8
0
 10
235.919
 20
100.013
 11
235.684
 21
99.5787
  0
LINE
  8
0
 10
235.684
 20
99.5787
 11
235.32
 21
99.2442
  0
LINE
  8
0
 10
235.32
 20
99.2442
 11
234.868
 21
99.0459
  0
LINE
  8
0
 10
234.868
 20
99.0459
 11
234.376
 21
99.0051
  0
LINE
  8
0
 10
234.376
 20
99.0051
 11
233.897
 21
99.1263
  0
LINE
  8
0
 10
249.379
 20
74.0175
 11
248.883
 21
74.0568
  0
LINE
  8
0
 10
248.883
 20
74.0568
 11
248.39
 21
74.1185
  0
LINE
  8
0
 10
248.39
 20
74.1185
 11
247.9
 21
74.2024
  0
LINE
  8
0
 10
247.9
 20
74.2024
 11
247.414
 21
74.3083
  0
LINE
  8
0
 10
247.414
 20
74.3083
 11
246.933
 21
74.4361
  0
LINE
  8
0
 10
246.933
 20
74.4361
 11
246.459
 21
74.5854
  0
LINE
  8
0
 10
246.459
 20
74.5854
 11
245.992
 21
74.7561
  0
LINE
  8
0
 10
245.992
 20
74.7561
 11
245.533
 21
74.9476
  0
LINE
  8
0
 10
245.533
 20
74.9476
 11
245.084
 21
75.1597
  0
LINE
  8
0
 10
245.084
 20
75.1597
 11
244.644
 21
75.3919
  0
LINE
  8
0
 10
244.644
 20
75.3919
 11
244.215
 21
75.6438
  0
LINE
  8
0
 10
244.215
 20
75.6438
 11
243.799
 21
75.9147
  0
LINE
  8
0
 10
243.799
 20
75.9147
 11
243.394
 21
76.2042
  0
LINE
  8
0
 10
243.394
 20
76.2042
 11
243.004
 21
76.5117
  0
LINE
  8
0
 10
243.004
 20
76.5117
 11
242.627
 21
76.8365
  0
LINE
  8
0
 10
242.627
 20
76.8365
 11
242.266
 21
77.178
  0
LINE
  8
0
 10
242.266
 20
77.178
 11
241.92
 21
77.5355
  0
LINE
  8
0
 10
241.92
 20
77.5355
 11
241.591
 21
77.9082
  0
LINE
  8
0
 10
241.591
 20
77.9082
 11
241.279
 21
78.2954
  0
LINE
  8
0
 10
241.279
 20
78.2954
 11
240.985
 21
78.6963
  0
LINE
  8
0
 10
240.985
 20
78.6963
 11
240.71
 21
79.1101
  0
LINE
  8
0
 10
240.71
 20
79.1101
 11
240.453
 21
79.5359
  0
LINE
  8
0
 10
240.453
 20
79.5359
 11
240.216
 21
79.9729
  0
LINE
  8
0
 10
240.216
 20
79.9729
 11
239.999
 21
80.4202
  0
LINE
  8
0
 10
239.999
 20
80.4202
 11
239.802
 21
80.8768
  0
LINE
  8
0
 10
239.802
 20
80.8768
 11
239.626
 21
81.3418
  0
LINE
  8
0
 10
239.626
 20
81.3418
 11
239.471
 21
81.8143
  0
LINE
  8
0
 10
239.471
 20
81.8143
 11
239.338
 21
82.2933
  0
LINE
  8
0
 10
239.338
 20
82.2933
 11
239.227
 21
82.7779
  0
LINE
  8
0
 10
239.227
 20
82.7779
 11
239.137
 21
83.2669
  0
LINE
  8
0
 10
239.137
 20
83.2669
 11
239.07
 21
83.7596
  0
LINE
  8
0
 10
239.07
 20
83.7596
 11
239.025
 21
84.2547
  0
LINE
  8
0
 10
239.025
 20
84.2547
 11
239.003
 21
84.7514
  0
LINE
  8
0
 10
239.003
 20
84.7514
 11
239.003
 21
85.2486
  0
LINE
  8
0
 10
239.003
 20
85.2486
 11
239.025
 21
85.7453
  0
LINE
  8
0
 10
239.025
 20
85.7453
 11
239.07
 21
86.2404
  0
LINE
  8
0
 10
239.07
 20
86.2404
 11
239.137
 21
86.733
  0
LINE
  8
0
 10
239.137
 20
86.733
 11
239.227
 21
87.2221
  0
LINE
  8
0
 10
239.227
 20
87.2221
 11
239.338
 21
87.7067
  0
LINE
  8
0
 10
239.338
 20
87.7067
 11
239.471
 21
88.1857
  0
LINE
  8
0
 10
239.471
 20
88.1857
 11
239.626
 21
88.6582
  0
LINE
  8
0
 10
239.626
 20
88.6582
 11
239.802
 21
89.1232
  0
LINE
  8
0
 10
239.802
 20
89.1232
 11
239.999
 21
89.5798
  0
LINE
  8
0
 10
239.999
 20
89.5798
 11
240.216
 21
90.0271
  0
LINE
  8
0
 10
240.216
 20
90.0271
 11
240.453
 21
90.4641
  0
LINE
  8
0
 10
240.453
 20
90.4641
 11
240.71
 21
90.8899
  0
LINE
  8
0
 10
240.71
 20
90.8899
 11
240.985
 21
91.3037
  0
LINE
  8
0
 10
240.985
 20
91.3037
 11
241.279
 21
91.7046
  0
LINE
  8
0
 10
241.279
 20
91.7046
 11
241.591
 21
92.0918
  0
LINE
  8
0
 10
241.591
 20
92.0918
 11
241.92
 21
92.4645
  0
LINE
  8
0
 10
241.92
 20
92.4645
 11
242.266
 21
92.822
  0
LINE
  8
0
 10
242.266
 20
92.822
 11
242.627
 21
93.1635
  0
LINE
  8
0
 10
242.627
 20
93.1635
 11
243.004
 21
93.4883
  0
LINE
  8
0
 10
243.004
 20
93.4883
 11
243.394
 21
93.7958
  0
LINE
  8
0
 10
243.394
 20
93.7958
 11
243.799
 21
94.0853
  0
LINE
  8
0
 10
243.799
 20
94.0853
 11
244.215
 21
94.3562
  0
LINE
  8
0
 10
244.215
 20
94.3562
 11
244.644
 21
94.6081
  0
LINE
  8
0
 10
244.644
 20
94.6081
 11
245.084
 21
94.8403
  0
LINE
  8
0
 10
245.084
 20
94.8403
 11
245.533
 21
95.0524
  0
LINE
  8
0
 10
245.533
 20
95.0524
 11
245.992
 21
95.2439
  0
LINE
  8
0
 10
245.992
 20
95.2439
 11
246.459
 21
95.4146
  0
LINE
  8
0
 10
246.459
 20
95.4146
 11
246.933
 21
95.5639
  0
LINE
  8
0
 10
246.933
 20
95.5639
 11
247.414
 21
95.6917
  0
LINE
  8
0
 10
247.414
 20
95.6917
 11
247.9
 21
95.7976
  0
LINE
  8
0
 10
247.9
 20
95.7976
 11
248.39
 21
95.8815
  0
LINE
  8
0
 10
248.39
 20
95.8815
 11
248.883
 21
95.9431
  0
LINE
  8
0
 10
248.883
 20
95.9431
 11
249.379
 21
95.9824
  0
LINE
  8
0
 10
249.379
 20
95.9824
 11
249.876
 21
95.9993
  0
LINE
  8
0
 10
249.876
 20
95.9993
 11
250.373
 21
95.9937
  0
LINE
  8
0
 10
250.373
 20
95.9937
 11
250.869
 21
95.9656
  0
LINE
  8
0
 10
250.869
 20
95.9656
 11
251.364
 21
95.9151
  0
LINE
  8
0
 10
251.364
 20
95.9151
 11
251.856
 21
95.8423
  0
LINE
  8
0
 10
251.856
 20
95.8423
 11
252.344
 21
95.7474
  0
LINE
  8
0
 10
252.344
 20
95.7474
 11
252.827
 21
95.6305
  0
LINE
  8
0
 10
252.827
 20
95.6305
 11
253.304
 21
95.4919
  0
LINE
  8
0
 10
253.304
 20
95.4919
 11
253.775
 21
95.3319
  0
LINE
  8
0
 10
253.775
 20
95.3319
 11
254.238
 21
95.1507
  0
LINE
  8
0
 10
254.238
 20
95.1507
 11
254.693
 21
94.9489
  0
LINE
  8
0
 10
254.693
 20
94.9489
 11
255.137
 21
94.7267
  0
LINE
  8
0
 10
255.137
 20
94.7267
 11
255.572
 21
94.4846
  0
LINE
  8
0
 10
255.572
 20
94.4846
 11
255.995
 21
94.2231
  0
LINE
  8
0
 10
255.995
 20
94.2231
 11
256.405
 21
93.9428
  0
LINE
  8
0
 10
256.405
 20
93.9428
 11
256.803
 21
93.6443
  0
LINE
  8
0
 10
256.803
 20
93.6443
 11
257.186
 21
93.328
  0
LINE
  8
0
 10
257.186
 20
93.328
 11
257.555
 21
92.9948
  0
LINE
  8
0
 10
257.555
 20
92.9948
 11
257.909
 21
92.6452
  0
LINE
  8
0
 10
257.909
 20
92.6452
 11
258.246
 21
92.28
  0
LINE
  8
0
 10
258.246
 20
92.28
 11
258.567
 21
91.8999
  0
LINE
  8
0
 10
258.567
 20
91.8999
 11
258.87
 21
91.5058
  0
LINE
  8
0
 10
258.87
 20
91.5058
 11
259.155
 21
91.0983
  0
LINE
  8
0
 10
259.155
 20
91.0983
 11
259.421
 21
90.6784
  0
LINE
  8
0
 10
259.421
 20
90.6784
 11
259.668
 21
90.2469
  0
LINE
  8
0
 10
259.668
 20
90.2469
 11
259.895
 21
89.8047
  0
LINE
  8
0
 10
259.895
 20
89.8047
 11
260.102
 21
89.3526
  0
LINE
  8
0
 10
260.102
 20
89.3526
 11
260.289
 21
88.8917
  0
LINE
  8
0
 10
260.289
 20
88.8917
 11
260.454
 21
88.4228
  0
LINE
  8
0
 10
260.454
 20
88.4228
 11
260.598
 21
87.9469
  0
LINE
  8
0
 10
260.598
 20
87.9469
 11
260.72
 21
87.465
  0
LINE
  8
0
 10
260.72
 20
87.465
 11
260.821
 21
86.9781
  0
LINE
  8
0
 10
260.821
 20
86.9781
 11
260.899
 21
86.4871
  0
LINE
  8
0
 10
260.899
 20
86.4871
 11
260.955
 21
85.9931
  0
LINE
  8
0
 10
260.955
 20
85.9931
 11
260.989
 21
85.4971
  0
LINE
  8
0
 10
260.989
 20
85.4971
 11
261
 21
85
  0
LINE
  8
0
 10
261
 20
85
 11
260.989
 21
84.5029
  0
LINE
  8
0
 10
260.989
 20
84.5029
 11
260.955
 21
84.0069
  0
LINE
  8
0
 10
260.955
 20
84.0069
 11
260.899
 21
83.5129
  0
LINE
  8
0
 10
260.899
 20
83.5129
 11
260.821
 21
83.0219
  0
LINE
  8
0
 10
260.821
 20
83.0219
 11
260.72
 21
82.535
  0
LINE
  8
0
 10
260.72
 20
82.535
 11
260.598
 21
82.0531
  0
LINE
  8
0
 10
260.598
 20
82.0531
 11
260.454
 21
81.5772
  0
LINE
  8
0
 10
260.454
 20
81.5772
 11
260.289
 21
81.1083
  0
LINE
  8
0
 10
260.289
 20
81.1083
 11
260.102
 21
80.6474
  0
LINE
  8
0
 10
260.102
 20
80.6474
 11
259.895
 21
80.1953
  0
LINE
  8
0
 10
259.895
 20
80.1953
 11
259.668
 21
79.7531
  0
LINE
  8
0
 10
259.668
 20
79.7531
 11
259.421
 21
79.3216
  0
LINE
  8
0
 10
259.421
 20
79.3216
 11
259.155
 21
78.9016
  0
LINE
  8
0
 10
259.155
 20
78.9016
 11
258.87
 21
78.4942
  0
LINE
  8
0
 10
258.87
 20
78.4942
 11
258.567
 21
78.1
  0
LINE
  8
0
 10
258.567
 20
78.1
 11
258.246
 21
77.72
  0
LINE
  8
0
 10
258.246
 20
77.72
 11
257.909
 21
77.3548
  0
LINE
  8
0
 10
257.909
 20
77.3548
 11
257.555
 21
77.0052
  0
LINE
  8
0
 10
257.555
 20
77.0052
 11
257.186
 21
76.672
  0
LINE
  8
0
 10
257.186
 20
76.672
 11
256.803
 21
76.3557
  0
LINE
  8
0
 10
256.803
 20
76.3557
 11
256.405
 21
76.0572
  0
LINE
  8
0
 10
256.405
 20
76.0572
 11
255.995
 21
75.7769
  0
LINE
  8
0
 10
255.995
 20
75.7769
 11
255.572
 21
75.5154
  0
LINE
  8
0
 10
255.572
 20
75.5154
 11
255.137
 21
75.2733
  0
LINE
  8
0
 10
255.137
 20
75.2733
 11
254.693
 21
75.0511
  0
LINE
  8
0
 10
254.693
 20
75.0511
 11
254.238
 21
74.8493
  0
LINE
  8
0
 10
254.238
 20
74.8493
 11
253.775
 21
74.6681
  0
LINE
  8
0
 10
253.775
 20
74.6681
 11
253.304
 21
74.5081
  0
LINE
  8
0
 10
253.304
 20
74.5081
 11
252.827
 21
74.3695
  0
LINE
  8
0
 10
252.827
 20
74.3695
 11
252.344
 21
74.2526
  0
LINE
  8
0
 10
252.344
 20
74.2526
 11
251.856
 21
74.1577
  0
LINE
  8
0
 10
251.856
 20
74.1577
 11
251.364
 21
74.0849
  0
LINE
  8
0
 10
251.364
 20
74.0849
 11
250.869
 21
74.0344
  0
LINE
  8
0
 10
250.869
 20
74.0344
 11
250.373
 21
74.0063
  0
LINE
  8
0
 10
250.373
 20
74.0063
 11
249.876
 21
74.0007
  0
LINE
  8
0
 10
249.876
 20
74.0007
 11
249.379
 21
74.0175
  0
LINE
  8
0
 10
332.72
 20
86.0473
 11
332.239
 21
86.1527
  0
LINE
  8
0
 10
332.239
 20
86.1527
 11
331.774
 21
86.3164
  0
LINE
  8
0
 10
331.774
 20
86.3164
 11
331.333
 21
86.5359
  0
LINE
  8
0
 10
331.333
 20
86.5359
 11
330.923
 21
86.8079
  0
LINE
  8
0
 10
330.923
 20
86.8079
 11
330.549
 21
87.1283
  0
LINE
  8
0
 10
330.549
 20
87.1283
 11
330.217
 21
87.4923
  0
LINE
  8
0
 10
330.217
 20
87.4923
 11
329.932
 21
87.8943
  0
LINE
  8
0
 10
329.932
 20
87.8943
 11
329.699
 21
88.3282
  0
LINE
  8
0
 10
329.699
 20
88.3282
 11
329.522
 21
88.7874
  0
LINE
  8
0
 10
329.522
 20
88.7874
 11
329.401
 21
89.265
  0
LINE
  8
0
 10
329.401
 20
89.265
 11
329.341
 21
89.7538
  0
LINE
  8
0
 10
329.341
 20
89.7538
 11
329.341
 21
90.2462
  0
LINE
  8
0
 10
329.341
 20
90.2462
 11
329.401
 21
90.735
  0
LINE
  8
0
 10
329.401
 20
90.735
 11
329.522
 21
91.2126
  0
LINE
  8
0
 10
329.522
 20
91.2126
 11
329.699
 21
91.6718
  0
LINE
  8
0
 10
329.699
 20
91.6718
 11
329.932
 21
92.1057
  0
LINE
  8
0
 10
329.932
 20
92.1057
 11
330.217
 21
92.5077
  0
LINE
  8
0
 10
330.217
 20
92.5077
 11
330.549
 21
92.8716
  0
LINE
  8
0
 10
330.549
 20
92.8716
 11
330.923
 21
93.1921
  0
LINE
  8
0
 10
330.923
 20
93.1921
 11
331.333
 21
93.4641
  0
LINE
  8
0
 10
331.333
 20
93.4641
 11
331.774
 21
93.6836
  0
LINE
  8
0
 10
331.774
 20
93.6836
 11
332.239
 21
93.8473
  0
LINE
  8
0
 10
332.239
 20
93.8473
 11
332.72
 21
93.9527
  0
LINE
  8
0
 10
332.72
 20
93.9527
 11
333.21
 21
93.9981
  0
LINE
  8
0
 10
333.21
 20
93.9981
 11
333.702
 21
93.9829
  0
LINE
  8
0
 10
333.702
 20
93.9829
 11
334.189
 21
93.9074
  0
LINE
  8
0
 10
334.189
 20
93.9074
 11
334.663
 21
93.7726
  0
LINE
  8
0
 10
334.663
 20
93.7726
 11
335.116
 21
93.5806
  0
LINE
  8
0
 10
335.116
 20
93.5806
 11
335.543
 21
93.3344
  0
LINE
  8
0
 10
335.543
 20
93.3344
 11
335.936
 21
93.0376
  0
LINE
  8
0
 10
335.936
 20
93.0376
 11
336.289
 21
92.6948
  0
LINE
  8
0
 10
336.289
 20
92.6948
 11
336.598
 21
92.3111
  0
LINE
  8
0
 10
336.598
 20
92.3111
 11
336.857
 21
91.8924
  0
LINE
  8
0
 10
336.857
 20
91.8924
 11
337.063
 21
91.445
  0
LINE
  8
0
 10
337.063
 20
91.445
 11
337.213
 21
90.9756
  0
LINE
  8
0
 10
337.213
 20
90.9756
 11
337.303
 21
90.4915
  0
LINE
  8
0
 10
337.303
 20
90.4915
 11
337.333
 21
90
  0
LINE
  8
0
 10
337.333
 20
90
 11
337.303
 21
89.5084
  0
LINE
  8
0
 10
337.303
 20
89.5084
 11
337.213
 21
89.0243
  0
LINE
  8
0
 10
337.213
 20
89.0243
 11
337.063
 21
88.555
  0
LINE
  8
0
 10
337.063
 20
88.555
 11
336.857
 21
88.1076
  0
LINE
  8
0
 10
336.857
 20
88.1076
 11
336.598
 21
87.6889
  0
LINE
  8
0
 10
336.598
 20
87.6889
 11
336.289
 21
87.3052
  0
LINE
  8
0
 10
336.289
 20
87.3052
 11
335.936
 21
86.9624
  0
LINE
  8
0
 10
335.936
 20
86.9624
 11
335.543
 21
86.6656
  0
LINE
  8
0
 10
335.543
 20
86.6656
 11
335.116
 21
86.4193
  0
LINE
  8
0
 10
335.116
 20
86.4193
 11
334.663
 21
86.2274
  0
LINE
  8
0
 10
334.663
 20
86.2274
 11
334.189
 21
86.0926
  0
LINE
  8
0
 10
334.189
 20
86.0926
 11
333.702
 21
86.0171
  0
LINE
  8
0
 10
333.702
 20
86.0171
 11
333.21
 21
86.0019
  0
LINE
  8
0
 10
333.21
 20
86.0019
 11
332.72
 21
86.0473
  0
LINE
  8
0
 10
166.053
 20
86.0473
 11
165.572
 21
86.1527
  0
LINE
  8
0
 10
165.572
 20
86.1527
 11
165.108
 21
86.3164
  0
LINE
  8
0
 10
165.108
 20
86.3164
 11
164.667
 21
86.5359
  0
LINE
  8
0
 10
164.667
 20
86.5359
 11
164.256
 21
86.8079
  0
LINE
  8
0
 10
164.256
 20
86.8079
 11
163.882
 21
87.1283
  0
LINE
  8
0
 10
163.882
 20
87.1283
 11
163.55
 21
87.4923
  0
LINE
  8
0
 10
163.55
 20
87.4923
 11
163.266
 21
87.8943
  0
LINE
  8
0
 10
163.266
 20
87.8943
 11
163.033
 21
88.3282
  0
LINE
  8
0
 10
163.033
 20
88.3282
 11
162.855
 21
88.7874
  0
LINE
  8
0
 10
162.855
 20
88.7874
 11
162.735
 21
89.265
  0
LINE
  8
0
 10
162.735
 20
89.265
 11
162.674
 21
89.7538
  0
LINE
  8
0
 10
162.674
 20
89.7538
 11
162.674
 21
90.2462
  0
LINE
  8
0
 10
162.674
 20
90.2462
 11
162.735
 21
90.735
  0
LINE
  8
0
 10
162.735
 20
90.735
 11
162.855
 21
91.2126
  0
LINE
  8
0
 10
162.855
 20
91.2126
 11
163.033
 21
91.6718
  0
LINE
  8
0
 10
163.033
 20
91.6718
 11
163.266
 21
92.1057
  0
LINE
  8
0
 10
163.266
 20
92.1057
 11
163.55
 21
92.5077
  0
LINE
  8
0
 10
163.55
 20
92.5077
 11
163.882
 21
92.8716
  0
LINE
  8
0
 10
163.882
 20
92.8716
 11
164.256
 21
93.1921
  0
LINE
  8
0
 10
164.256
 20
93.1921
 11
164.667
 21
93.4641
  0
LINE
  8
0
 10
164.667
 20
93.4641
 11
165.108
 21
93.6836
  0
LINE
  8
0
 10
165.108
 20
93.6836
 11
165.572
 21
93.8473
  0
LINE
  8
0
 10
165.572
 20
93.8473
 11
166.053
 21
93.9527
  0
LINE
  8
0
 10
166.053
 20
93.9527
 11
166.543
 21
93.9981
  0
LINE
  8
0
 10
166.543
 20
93.9981
 11
167.036
 21
93.9829
  0
LINE
  8
0
 10
167.036
 20
93.9829
 11
167.522
 21
93.9074
  0
LINE
  8
0
 10
167.522
 20
93.9074
 11
167.996
 21
93.7726
  0
LINE
  8
0
 10
167.996
 20
93.7726
 11
168.45
 21
93.5806
  0
LINE
  8
0
 10
168.45
 20
93.5806
 11
168.876
 21
93.3344
  0
LINE
  8
0
 10
168.876
 20
93.3344
 11
169.269
 21
93.0376
  0
LINE
  8
0
 10
169.269
 20
93.0376
 11
169.623
 21
92.6948
  0
LINE
  8
0
 10
169.623
 20
92.6948
 11
169.931
 21
92.3111
  0
LINE
  8
0
 10
169.931
 20
92.3111
 11
170.191
 21
91.8924
  0
LINE
  8
0
 10
170.191
 20
91.8924
 11
170.397
 21
91.445
  0
LINE
  8
0
 10
170.397
 20
91.445
 11
170.546
 21
90.9756
  0
LINE
  8
0
 10
170.546
 20
90.9756
 11
170.636
 21
90.4915
  0
LINE
  8
0
 10
170.636
 20
90.4915
 11
170.667
 21
90
  0
LINE
  8
0
 10
170.667
 20
90
 11
170.636
 21
89.5084
  0
LINE
  8
0
 10
170.636
 20
89.5084
 11
170.546
 21
89.0243
  0
LINE
  8
0
 10
170.546
 20
89.0243
 11
170.397
 21
88.555
  0
LINE
  8
0
 10
170.397
 20
88.555
 11
170.191
 21
88.1076
  0
LINE
  8
0
 10
170.191
 20
88.1076
 11
169.931
 21
87.6889
  0
LINE
  8
0
 10
169.931
 20
87.6889
 11
169.623
 21
87.3052
  0
LINE
  8
0
 10
169.623
 20
87.3052
 11
169.269
 21
86.9624
  0
LINE
  8
0
 10
169.269
 20
86.9624
 11
168.876
 21
86.6656
  0
LINE
  8
0
 10
168.876
 20
86.6656
 11
168.45
 21
86.4193
  0
LINE
  8
0
 10
168.45
 20
86.4193
 11
167.996
 21
86.2274
  0
LINE
  8
0
 10
167.996
 20
86.2274
 11
167.522
 21
86.0926
  0
LINE
  8
0
 10
167.522
 20
86.0926
 11
167.036
 21
86.0171
  0
LINE
  8
0
 10
167.036
 20
86.0171
 11
166.543
 21
86.0019
  0
LINE
  8
0
 10
166.543
 20
86.0019
 11
166.053
 21
86.0473
  0
LINE
  8
0
 10
233.897
 20
68.1263
 11
233.484
 21
68.3964
  0
LINE
  8
0
 10
233.484
 20
68.3964
 11
233.181
 21
68.7861
  0
LINE
  8
0
 10
233.181
 20
68.7861
 11
233.02
 21
69.2531
  0
LINE
  8
0
 10
233.02
 20
69.2531
 11
233.02
 21
69.7469
  0
LINE
  8
0
 10
233.02
 20
69.7469
 11
233.181
 21
70.2139
  0
LINE
  8
0
 10
233.181
 20
70.2139
 11
233.484
 21
70.6036
  0
LINE
  8
0
 10
233.484
 20
70.6036
 11
233.897
 21
70.8737
  0
LINE
  8
0
 10
233.897
 20
70.8737
 11
234.376
 21
70.9949
  0
LINE
  8
0
 10
234.376
 20
70.9949
 11
234.868
 21
70.9541
  0
LINE
  8
0
 10
234.868
 20
70.9541
 11
235.32
 21
70.7558
  0
LINE
  8
0
 10
235.32
 20
70.7558
 11
235.684
 21
70.4213
  0
LINE
  8
0
 10
235.684
 20
70.4213
 11
235.919
 21
69.987
  0
LINE
  8
0
 10
235.919
 20
69.987
 11
236
 21
69.5
  0
LINE
  8
0
 10
236
 20
69.5
 11
235.919
 21
69.0129
  0
LINE
  8
0
 10
235.919
 20
69.0129
 11
235.684
 21
68.5787
  0
LINE
  8
0
 10
235.684
 20
68.5787
 11
235.32
 21
68.2442
  0
LINE
  8
0
 10
235.32
 20
68.2442
 11
234.868
 21
68.0459
  0
LINE
  8
0
 10
234.868
 20
68.0459
 11
234.376
 21
68.0051
  0
LINE
  8
0
 10
234.376
 20
68.0051
 11
233.897
 21
68.1263
  0
LINE
  8
0
 10
264.897
 20
68.1263
 11
264.484
 21
68.3964
  0
LINE
  8
0
 10
264.484
 20
68.3964
 11
264.181
 21
68.7861
  0
LINE
  8
0
 10
264.181
 20
68.7861
 11
264.02
 21
69.2531
  0
LINE
  8
0
 10
264.02
 20
69.2531
 11
264.02
 21
69.7469
  0
LINE
  8
0
 10
264.02
 20
69.7469
 11
264.181
 21
70.2139
  0
LINE
  8
0
 10
264.181
 20
70.2139
 11
264.484
 21
70.6036
  0
LINE
  8
0
 10
264.484
 20
70.6036
 11
264.897
 21
70.8737
  0
LINE
  8
0
 10
264.897
 20
70.8737
 11
265.376
 21
70.9949
  0
LINE
  8
0
 10
265.376
 20
70.9949
 11
265.868
 21
70.9541
  0
LINE
  8
0
 10
265.868
 20
70.9541
 11
266.32
 21
70.7558
  0
LINE
  8
0
 10
266.32
 20
70.7558
 11
266.684
 21
70.4213
  0
LINE
  8
0
 10
266.684
 20
70.4213
 11
266.919
 21
69.987
  0
LINE
  8
0
 10
266.919
 20
69.987
 11
267
 21
69.5
  0
LINE
  8
0
 10
267
 20
69.5
 11
266.919
 21
69.0129
  0
LINE
  8
0
 10
266.919
 20
69.0129
 11
266.684
 21
68.5787
  0
LINE
  8
0
 10
266.684
 20
68.5787
 11
266.32
 21
68.2442
  0
LINE
  8
0
 10
266.32
 20
68.2442
 11
265.868
 21
68.0459
  0
LINE
  8
0
 10
265.868
 20
68.0459
 11
265.376
 21
68.0051
  0
LINE
  8
0
 10
265.376
 20
68.0051
 11
264.897
 21
68.1263
  0
LINE
  8
0
 10
-50
 20
537.3
 11
-550
 21
537.3
  0
LINE
  8
0
 10
-550
 20
537.3
 11
-550
 21
337.3
  0
LINE
  8
0
 10
-550
 20
337.3
 11
-180
 21
337.3
  0
LINE
  8
0
 10
-180
 20
337.3
 11
-169.604
 21
336.207
  0
LINE
  8
0
 10
-169.604
 20
336.207
 11
-159.663
 21
332.977
  0
LINE
  8
0
 10
-159.663
 20
332.977
 11
-150.611
 21
327.751
  0
LINE
  8
0
 10
-150.611
 20
327.751
 11
-142.843
 21
320.757
  0
LINE
  8
0
 10
-142.843
 20
320.757
 11
-136.699
 21
312.3
  0
LINE
  8
0
 10
-136.699
 20
312.3
 11
-132.447
 21
302.751
  0
LINE
  8
0
 10
-132.447
 20
302.751
 11
-130.274
 21
292.526
  0
LINE
  8
0
 10
-130.274
 20
292.526
 11
-130.274
 21
287.3
  0
LINE
  8
0
 10
-130.274
 20
287.3
 11
-130
 21
287.3
  0
LINE
  8
0
 10
-130
 20
287.3
 11
-130
 21
62.7
  0
LINE
  8
0
 10
-130
 20
62.7
 11
-50
 21
62.7
  0
LINE
  8
0
 10
-50
 20
62.7
 11
-50
 21
537.3
  0
LINE
  8
0
 10
-390.987
 20
416.381
 11
-391.421
 21
416.616
  0
LINE
  8
0
 10
-391.421
 20
416.616
 11
-391.756
 21
416.98
  0
LINE
  8
0
 10
-391.756
 20
416.98
 11
-391.954
 21
417.432
  0
LINE
  8
0
 10
-391.954
 20
417.432
 11
-391.995
 21
417.924
  0
LINE
  8
0
 10
-391.995
 20
417.924
 11
-391.874
 21
418.403
  0
LINE
  8
0
 10
-391.874
 20
418.403
 11
-391.604
 21
418.816
  0
LINE
  8
0
 10
-391.604
 20
418.816
 11
-391.214
 21
419.119
  0
LINE
  8
0
 10
-391.214
 20
419.119
 11
-390.747
 21
419.28
  0
LINE
  8
0
 10
-390.747
 20
419.28
 11
-390.253
 21
419.28
  0
LINE
  8
0
 10
-390.253
 20
419.28
 11
-389.786
 21
419.119
  0
LINE
  8
0
 10
-389.786
 20
419.119
 11
-389.396
 21
418.816
  0
LINE
  8
0
 10
-389.396
 20
418.816
 11
-389.126
 21
418.403
  0
LINE
  8
0
 10
-389.126
 20
418.403
 11
-389.005
 21
417.924
  0
LINE
  8
0
 10
-389.005
 20
417.924
 11
-389.046
 21
417.432
  0
LINE
  8
0
 10
-389.046
 20
417.432
 11
-389.244
 21
416.98
  0
LINE
  8
0
 10
-389.244
 20
416.98
 11
-389.579
 21
416.616
  0
LINE
  8
0
 10
-389.579
 20
416.616
 11
-390.013
 21
416.381
  0
LINE
  8
0
 10
-390.013
 20
416.381
 11
-390.5
 21
416.3
  0
LINE
  8
0
 10
-390.5
 20
416.3
 11
-390.987
 21
416.381
  0
LINE
  8
0
 10
-359.987
 20
416.381
 11
-360.421
 21
416.616
  0
LINE
  8
0
 10
-360.421
 20
416.616
 11
-360.756
 21
416.98
  0
LINE
  8
0
 10
-360.756
 20
416.98
 11
-360.954
 21
417.432
  0
LINE
  8
0
 10
-360.954
 20
417.432
 11
-360.995
 21
417.924
  0
LINE
  8
0
 10
-360.995
 20
417.924
 11
-360.874
 21
418.403
  0
LINE
  8
0
 10
-360.874
 20
418.403
 11
-360.604
 21
418.816
  0
LINE
  8
0
 10
-360.604
 20
418.816
 11
-360.214
 21
419.119
  0
LINE
  8
0
 10
-360.214
 20
419.119
 11
-359.747
 21
419.28
  0
LINE
  8
0
 10
-359.747
 20
419.28
 11
-359.253
 21
419.28
  0
LINE
  8
0
 10
-359.253
 20
419.28
 11
-358.786
 21
419.119
  0
LINE
  8
0
 10
-358.786
 20
419.119
 11
-358.396
 21
418.816
  0
LINE
  8
0
 10
-358.396
 20
418.816
 11
-358.126
 21
418.403
  0
LINE
  8
0
 10
-358.126
 20
418.403
 11
-358.005
 21
417.924
  0
LINE
  8
0
 10
-358.005
 20
417.924
 11
-358.046
 21
417.432
  0
LINE
  8
0
 10
-358.046
 20
417.432
 11
-358.244
 21
416.98
  0
LINE
  8
0
 10
-358.244
 20
416.98
 11
-358.579
 21
416.616
  0
LINE
  8
0
 10
-358.579
 20
416.616
 11
-359.013
 21
416.381
  0
LINE
  8
0
 10
-359.013
 20
416.381
 11
-359.5
 21
416.3
  0
LINE
  8
0
 10
-359.5
 20
416.3
 11
-359.987
 21
416.381
  0
LINE
  8
0
 10
-375.497
 20
391.311
 11
-375.993
 21
391.345
  0
LINE
  8
0
 10
-375.993
 20
391.345
 11
-376.487
 21
391.401
  0
LINE
  8
0
 10
-376.487
 20
391.401
 11
-376.978
 21
391.479
  0
LINE
  8
0
 10
-376.978
 20
391.479
 11
-377.465
 21
391.58
  0
LINE
  8
0
 10
-377.465
 20
391.58
 11
-377.947
 21
391.702
  0
LINE
  8
0
 10
-377.947
 20
391.702
 11
-378.423
 21
391.846
  0
LINE
  8
0
 10
-378.423
 20
391.846
 11
-378.892
 21
392.011
  0
LINE
  8
0
 10
-378.892
 20
392.011
 11
-379.353
 21
392.198
  0
LINE
  8
0
 10
-379.353
 20
392.198
 11
-379.805
 21
392.405
  0
LINE
  8
0
 10
-379.805
 20
392.405
 11
-380.247
 21
392.632
  0
LINE
  8
0
 10
-380.247
 20
392.632
 11
-380.678
 21
392.879
  0
LINE
  8
0
 10
-380.678
 20
392.879
 11
-381.098
 21
393.145
  0
LINE
  8
0
 10
-381.098
 20
393.145
 11
-381.506
 21
393.43
  0
LINE
  8
0
 10
-381.506
 20
393.43
 11
-381.9
 21
393.733
  0
LINE
  8
0
 10
-381.9
 20
393.733
 11
-382.28
 21
394.054
  0
LINE
  8
0
 10
-382.28
 20
394.054
 11
-382.645
 21
394.391
  0
LINE
  8
0
 10
-382.645
 20
394.391
 11
-382.995
 21
394.745
  0
LINE
  8
0
 10
-382.995
 20
394.745
 11
-383.328
 21
395.114
  0
LINE
  8
0
 10
-383.328
 20
395.114
 11
-383.644
 21
395.497
  0
LINE
  8
0
 10
-383.644
 20
395.497
 11
-383.943
 21
395.895
  0
LINE
  8
0
 10
-383.943
 20
395.895
 11
-384.223
 21
396.305
  0
LINE
  8
0
 10
-384.223
 20
396.305
 11
-384.485
 21
396.728
  0
LINE
  8
0
 10
-384.485
 20
396.728
 11
-384.727
 21
397.163
  0
LINE
  8
0
 10
-384.727
 20
397.163
 11
-384.949
 21
397.607
  0
LINE
  8
0
 10
-384.949
 20
397.607
 11
-385.151
 21
398.062
  0
LINE
  8
0
 10
-385.151
 20
398.062
 11
-385.332
 21
398.525
  0
LINE
  8
0
 10
-385.332
 20
398.525
 11
-385.492
 21
398.996
  0
LINE
  8
0
 10
-385.492
 20
398.996
 11
-385.631
 21
399.473
  0
LINE
  8
0
 10
-385.631
 20
399.473
 11
-385.747
 21
399.956
  0
LINE
  8
0
 10
-385.747
 20
399.956
 11
-385.842
 21
400.444
  0
LINE
  8
0
 10
-385.842
 20
400.444
 11
-385.915
 21
400.936
  0
LINE
  8
0
 10
-385.915
 20
400.936
 11
-385.966
 21
401.431
  0
LINE
  8
0
 10
-385.966
 20
401.431
 11
-385.994
 21
401.927
  0
LINE
  8
0
 10
-385.994
 20
401.927
 11
-385.999
 21
402.424
  0
LINE
  8
0
 10
-385.999
 20
402.424
 11
-385.982
 21
402.921
  0
LINE
  8
0
 10
-385.982
 20
402.921
 11
-385.943
 21
403.417
  0
LINE
  8
0
 10
-385.943
 20
403.417
 11
-385.882
 21
403.91
  0
LINE
  8
0
 10
-385.882
 20
403.91
 11
-385.798
 21
404.4
  0
LINE
  8
0
 10
-385.798
 20
404.4
 11
-385.692
 21
404.886
  0
LINE
  8
0
 10
-385.692
 20
404.886
 11
-385.564
 21
405.367
  0
LINE
  8
0
 10
-385.564
 20
405.367
 11
-385.415
 21
405.841
  0
LINE
  8
0
 10
-385.415
 20
405.841
 11
-385.244
 21
406.308
  0
LINE
  8
0
 10
-385.244
 20
406.308
 11
-385.052
 21
406.767
  0
LINE
  8
0
 10
-385.052
 20
406.767
 11
-384.84
 21
407.216
  0
LINE
  8
0
 10
-384.84
 20
407.216
 11
-384.608
 21
407.656
  0
LINE
  8
0
 10
-384.608
 20
407.656
 11
-384.356
 21
408.085
  0
LINE
  8
0
 10
-384.356
 20
408.085
 11
-384.085
 21
408.501
  0
LINE
  8
0
 10
-384.085
 20
408.501
 11
-383.796
 21
408.906
  0
LINE
  8
0
 10
-383.796
 20
408.906
 11
-383.488
 21
409.296
  0
LINE
  8
0
 10
-383.488
 20
409.296
 11
-383.163
 21
409.673
  0
LINE
  8
0
 10
-383.163
 20
409.673
 11
-382.822
 21
410.034
  0
LINE
  8
0
 10
-382.822
 20
410.034
 11
-382.465
 21
410.38
  0
LINE
  8
0
 10
-382.465
 20
410.38
 11
-382.092
 21
410.709
  0
LINE
  8
0
 10
-382.092
 20
410.709
 11
-381.705
 21
411.021
  0
LINE
  8
0
 10
-381.705
 20
411.021
 11
-381.304
 21
411.315
  0
LINE
  8
0
 10
-381.304
 20
411.315
 11
-380.89
 21
411.59
  0
LINE
  8
0
 10
-380.89
 20
411.59
 11
-380.464
 21
411.847
  0
LINE
  8
0
 10
-380.464
 20
411.847
 11
-380.027
 21
412.084
  0
LINE
  8
0
 10
-380.027
 20
412.084
 11
-379.58
 21
412.301
  0
LINE
  8
0
 10
-379.58
 20
412.301
 11
-379.123
 21
412.498
  0
LINE
  8
0
 10
-379.123
 20
412.498
 11
-378.658
 21
412.674
  0
LINE
  8
0
 10
-378.658
 20
412.674
 11
-378.186
 21
412.829
  0
LINE
  8
0
 10
-378.186
 20
412.829
 11
-377.707
 21
412.962
  0
LINE
  8
0
 10
-377.707
 20
412.962
 11
-377.222
 21
413.073
  0
LINE
  8
0
 10
-377.222
 20
413.073
 11
-376.733
 21
413.163
  0
LINE
  8
0
 10
-376.733
 20
413.163
 11
-376.24
 21
413.23
  0
LINE
  8
0
 10
-376.24
 20
413.23
 11
-375.745
 21
413.275
  0
LINE
  8
0
 10
-375.745
 20
413.275
 11
-375.249
 21
413.297
  0
LINE
  8
0
 10
-375.249
 20
413.297
 11
-374.751
 21
413.297
  0
LINE
  8
0
 10
-374.751
 20
413.297
 11
-374.255
 21
413.275
  0
LINE
  8
0
 10
-374.255
 20
413.275
 11
-373.76
 21
413.23
  0
LINE
  8
0
 10
-373.76
 20
413.23
 11
-373.267
 21
413.163
  0
LINE
  8
0
 10
-373.267
 20
413.163
 11
-372.778
 21
413.073
  0
LINE
  8
0
 10
-372.778
 20
413.073
 11
-372.293
 21
412.962
  0
LINE
  8
0
 10
-372.293
 20
412.962
 11
-371.814
 21
412.829
  0
LINE
  8
0
 10
-371.814
 20
412.829
 11
-371.342
 21
412.674
  0
LINE
  8
0
 10
-371.342
 20
412.674
 11
-370.877
 21
412.498
  0
LINE
  8
0
 10
-370.877
 20
412.498
 11
-370.42
 21
412.301
  0
LINE
  8
0
 10
-370.42
 20
412.301
 11
-369.973
 21
412.084
  0
LINE
  8
0
 10
-369.973
 20
412.084
 11
-369.536
 21
411.847
  0
LINE
  8
0
 10
-369.536
 20
411.847
 11
-369.11
 21
411.59
  0
LINE
  8
0
 10
-369.11
 20
411.59
 11
-368.696
 21
411.315
  0
LINE
  8
0
 10
-368.696
 20
411.315
 11
-368.295
 21
411.021
  0
LINE
  8
0
 10
-368.295
 20
411.021
 11
-367.908
 21
410.709
  0
LINE
  8
0
 10
-367.908
 20
410.709
 11
-367.535
 21
410.38
  0
LINE
  8
0
 10
-367.535
 20
410.38
 11
-367.178
 21
410.034
  0
LINE
  8
0
 10
-367.178
 20
410.034
 11
-366.837
 21
409.673
  0
LINE
  8
0
 10
-366.837
 20
409.673
 11
-366.512
 21
409.296
  0
LINE
  8
0
 10
-366.512
 20
409.296
 11
-366.204
 21
408.906
  0
LINE
  8
0
 10
-366.204
 20
408.906
 11
-365.915
 21
408.501
  0
LINE
  8
0
 10
-365.915
 20
408.501
 11
-365.644
 21
408.085
  0
LINE
  8
0
 10
-365.644
 20
408.085
 11
-365.392
 21
407.656
  0
LINE
  8
0
 10
-365.392
 20
407.656
 11
-365.16
 21
407.216
  0
LINE
  8
0
 10
-365.16
 20
407.216
 11
-364.948
 21
406.767
  0
LINE
  8
0
 10
-364.948
 20
406.767
 11
-364.756
 21
406.308
  0
LINE
  8
0
 10
-364.756
 20
406.308
 11
-364.585
 21
405.841
  0
LINE
  8
0
 10
-364.585
 20
405.841
 11
-364.436
 21
405.367
  0
LINE
  8
0
 10
-364.436
 20
405.367
 11
-364.308
 21
404.886
  0
LINE
  8
0
 10
-364.308
 20
404.886
 11
-364.202
 21
404.4
  0
LINE
  8
0
 10
-364.202
 20
404.4
 11
-364.118
 21
403.91
  0
LINE
  8
0
 10
-364.118
 20
403.91
 11
-364.057
 21
403.417
  0
LINE
  8
0
 10
-364.057
 20
403.417
 11
-364.018
 21
402.921
  0
LINE
  8
0
 10
-364.018
 20
402.921
 11
-364.001
 21
402.424
  0
LINE
  8
0
 10
-364.001
 20
402.424
 11
-364.006
 21
401.927
  0
LINE
  8
0
 10
-364.006
 20
401.927
 11
-364.034
 21
401.431
  0
LINE
  8
0
 10
-364.034
 20
401.431
 11
-364.085
 21
400.936
  0
LINE
  8
0
 10
-364.085
 20
400.936
 11
-364.158
 21
400.444
  0
LINE
  8
0
 10
-364.158
 20
400.444
 11
-364.253
 21
399.956
  0
LINE
  8
0
 10
-364.253
 20
399.956
 11
-364.369
 21
399.473
  0
LINE
  8
0
 10
-364.369
 20
399.473
 11
-364.508
 21
398.996
  0
LINE
  8
0
 10
-364.508
 20
398.996
 11
-364.668
 21
398.525
  0
LINE
  8
0
 10
-364.668
 20
398.525
 11
-364.849
 21
398.062
  0
LINE
  8
0
 10
-364.849
 20
398.062
 11
-365.051
 21
397.607
  0
LINE
  8
0
 10
-365.051
 20
397.607
 11
-365.273
 21
397.163
  0
LINE
  8
0
 10
-365.273
 20
397.163
 11
-365.515
 21
396.728
  0
LINE
  8
0
 10
-365.515
 20
396.728
 11
-365.777
 21
396.305
  0
LINE
  8
0
 10
-365.777
 20
396.305
 11
-366.057
 21
395.895
  0
LINE
  8
0
 10
-366.057
 20
395.895
 11
-366.356
 21
395.497
  0
LINE
  8
0
 10
-366.356
 20
395.497
 11
-366.672
 21
395.114
  0
LINE
  8
0
 10
-366.672
 20
395.114
 11
-367.005
 21
394.745
  0
LINE
  8
0
 10
-367.005
 20
394.745
 11
-367.355
 21
394.391
  0
LINE
  8
0
 10
-367.355
 20
394.391
 11
-367.72
 21
394.054
  0
LINE
  8
0
 10
-367.72
 20
394.054
 11
-368.1
 21
393.733
  0
LINE
  8
0
 10
-368.1
 20
393.733
 11
-368.494
 21
393.43
  0
LINE
  8
0
 10
-368.494
 20
393.43
 11
-368.902
 21
393.145
  0
LINE
  8
0
 10
-368.902
 20
393.145
 11
-369.322
 21
392.879
  0
LINE
  8
0
 10
-369.322
 20
392.879
 11
-369.753
 21
392.632
  0
LINE
  8
0
 10
-369.753
 20
392.632
 11
-370.195
 21
392.405
  0
LINE
  8
0
 10
-370.195
 20
392.405
 11
-370.647
 21
392.198
  0
LINE
  8
0
 10
-370.647
 20
392.198
 11
-371.108
 21
392.011
  0
LINE
  8
0
 10
-371.108
 20
392.011
 11
-371.577
 21
391.846
  0
LINE
  8
0
 10
-371.577
 20
391.846
 11
-372.053
 21
391.702
  0
LINE
  8
0
 10
-372.053
 20
391.702
 11
-372.535
 21
391.58
  0
LINE
  8
0
 10
-372.535
 20
391.58
 11
-373.022
 21
391.479
  0
LINE
  8
0
 10
-373.022
 20
391.479
 11
-373.513
 21
391.401
  0
LINE
  8
0
 10
-373.513
 20
391.401
 11
-374.007
 21
391.345
  0
LINE
  8
0
 10
-374.007
 20
391.345
 11
-374.503
 21
391.311
  0
LINE
  8
0
 10
-374.503
 20
391.311
 11
-375
 21
391.3
  0
LINE
  8
0
 10
-375
 20
391.3
 11
-375.497
 21
391.311
  0
LINE
  8
0
 10
-450.492
 20
393.33
 11
-450.976
 21
393.421
  0
LINE
  8
0
 10
-450.976
 20
393.421
 11
-451.445
 21
393.57
  0
LINE
  8
0
 10
-451.445
 20
393.57
 11
-451.892
 21
393.776
  0
LINE
  8
0
 10
-451.892
 20
393.776
 11
-452.311
 21
394.035
  0
LINE
  8
0
 10
-452.311
 20
394.035
 11
-452.695
 21
394.344
  0
LINE
  8
0
 10
-452.695
 20
394.344
 11
-453.038
 21
394.698
  0
LINE
  8
0
 10
-453.038
 20
394.698
 11
-453.334
 21
395.091
  0
LINE
  8
0
 10
-453.334
 20
395.091
 11
-453.581
 21
395.517
  0
LINE
  8
0
 10
-453.581
 20
395.517
 11
-453.773
 21
395.971
  0
LINE
  8
0
 10
-453.773
 20
395.971
 11
-453.907
 21
396.444
  0
LINE
  8
0
 10
-453.907
 20
396.444
 11
-453.983
 21
396.931
  0
LINE
  8
0
 10
-453.983
 20
396.931
 11
-453.998
 21
397.423
  0
LINE
  8
0
 10
-453.998
 20
397.423
 11
-453.953
 21
397.914
  0
LINE
  8
0
 10
-453.953
 20
397.914
 11
-453.847
 21
398.395
  0
LINE
  8
0
 10
-453.847
 20
398.395
 11
-453.684
 21
398.859
  0
LINE
  8
0
 10
-453.684
 20
398.859
 11
-453.464
 21
399.3
  0
LINE
  8
0
 10
-453.464
 20
399.3
 11
-453.192
 21
399.711
  0
LINE
  8
0
 10
-453.192
 20
399.711
 11
-452.872
 21
400.085
  0
LINE
  8
0
 10
-452.872
 20
400.085
 11
-452.508
 21
400.416
  0
LINE
  8
0
 10
-452.508
 20
400.416
 11
-452.106
 21
400.701
  0
LINE
  8
0
 10
-452.106
 20
400.701
 11
-451.672
 21
400.934
  0
LINE
  8
0
 10
-451.672
 20
400.934
 11
-451.213
 21
401.112
  0
LINE
  8
0
 10
-451.213
 20
401.112
 11
-450.735
 21
401.232
  0
LINE
  8
0
 10
-450.735
 20
401.232
 11
-450.246
 21
401.292
  0
LINE
  8
0
 10
-450.246
 20
401.292
 11
-449.754
 21
401.292
  0
LINE
  8
0
 10
-449.754
 20
401.292
 11
-449.265
 21
401.232
  0
LINE
  8
0
 10
-449.265
 20
401.232
 11
-448.787
 21
401.112
  0
LINE
  8
0
 10
-448.787
 20
401.112
 11
-448.328
 21
400.934
  0
LINE
  8
0
 10
-448.328
 20
400.934
 11
-447.894
 21
400.701
  0
LINE
  8
0
 10
-447.894
 20
400.701
 11
-447.492
 21
400.416
  0
LINE
  8
0
 10
-447.492
 20
400.416
 11
-447.128
 21
400.085
  0
LINE
  8
0
 10
-447.128
 20
400.085
 11
-446.808
 21
399.711
  0
LINE
  8
0
 10
-446.808
 20
399.711
 11
-446.536
 21
399.3
  0
LINE
  8
0
 10
-446.536
 20
399.3
 11
-446.316
 21
398.859
  0
LINE
  8
0
 10
-446.316
 20
398.859
 11
-446.153
 21
398.395
  0
LINE
  8
0
 10
-446.153
 20
398.395
 11
-446.047
 21
397.914
  0
LINE
  8
0
 10
-446.047
 20
397.914
 11
-446.002
 21
397.423
  0
LINE
  8
0
 10
-446.002
 20
397.423
 11
-446.017
 21
396.931
  0
LINE
  8
0
 10
-446.017
 20
396.931
 11
-446.093
 21
396.444
  0
LINE
  8
0
 10
-446.093
 20
396.444
 11
-446.227
 21
395.971
  0
LINE
  8
0
 10
-446.227
 20
395.971
 11
-446.419
 21
395.517
  0
LINE
  8
0
 10
-446.419
 20
395.517
 11
-446.666
 21
395.091
  0
LINE
  8
0
 10
-446.666
 20
395.091
 11
-446.962
 21
394.698
  0
LINE
  8
0
 10
-446.962
 20
394.698
 11
-447.305
 21
394.344
  0
LINE
  8
0
 10
-447.305
 20
394.344
 11
-447.689
 21
394.035
  0
LINE
  8
0
 10
-447.689
 20
394.035
 11
-448.108
 21
393.776
  0
LINE
  8
0
 10
-448.108
 20
393.776
 11
-448.555
 21
393.57
  0
LINE
  8
0
 10
-448.555
 20
393.57
 11
-449.024
 21
393.421
  0
LINE
  8
0
 10
-449.024
 20
393.421
 11
-449.508
 21
393.33
  0
LINE
  8
0
 10
-449.508
 20
393.33
 11
-450
 21
393.3
  0
LINE
  8
0
 10
-450
 20
393.3
 11
-450.492
 21
393.33
  0
LINE
  8
0
 10
-300.492
 20
393.33
 11
-300.976
 21
393.421
  0
LINE
  8
0
 10
-300.976
 20
393.421
 11
-301.445
 21
393.57
  0
LINE
  8
0
 10
-301.445
 20
393.57
 11
-301.892
 21
393.776
  0
LINE
  8
0
 10
-301.892
 20
393.776
 11
-302.311
 21
394.035
  0
LINE
  8
0
 10
-302.311
 20
394.035
 11
-302.695
 21
394.344
  0
LINE
  8
0
 10
-302.695
 20
394.344
 11
-303.038
 21
394.698
  0
LINE
  8
0
 10
-303.038
 20
394.698
 11
-303.334
 21
395.091
  0
LINE
  8
0
 10
-303.334
 20
395.091
 11
-303.581
 21
395.517
  0
LINE
  8
0
 10
-303.581
 20
395.517
 11
-303.773
 21
395.971
  0
LINE
  8
0
 10
-303.773
 20
395.971
 11
-303.907
 21
396.444
  0
LINE
  8
0
 10
-303.907
 20
396.444
 11
-303.983
 21
396.931
  0
LINE
  8
0
 10
-303.983
 20
396.931
 11
-303.998
 21
397.423
  0
LINE
  8
0
 10
-303.998
 20
397.423
 11
-303.953
 21
397.914
  0
LINE
  8
0
 10
-303.953
 20
397.914
 11
-303.847
 21
398.395
  0
LINE
  8
0
 10
-303.847
 20
398.395
 11
-303.684
 21
398.859
  0
LINE
  8
0
 10
-303.684
 20
398.859
 11
-303.464
 21
399.3
  0
LINE
  8
0
 10
-303.464
 20
399.3
 11
-303.192
 21
399.711
  0
LINE
  8
0
 10
-303.192
 20
399.711
 11
-302.872
 21
400.085
  0
LINE
  8
0
 10
-302.872
 20
400.085
 11
-302.508
 21
400.416
  0
LINE
  8
0
 10
-302.508
 20
400.416
 11
-302.106
 21
400.701
  0
LINE
  8
0
 10
-302.106
 20
400.701
 11
-301.672
 21
400.934
  0
LINE
  8
0
 10
-301.672
 20
400.934
 11
-301.213
 21
401.112
  0
LINE
  8
0
 10
-301.213
 20
401.112
 11
-300.735
 21
401.232
  0
LINE
  8
0
 10
-300.735
 20
401.232
 11
-300.246
 21
401.292
  0
LINE
  8
0
 10
-300.246
 20
401.292
 11
-299.754
 21
401.292
  0
LINE
  8
0
 10
-299.754
 20
401.292
 11
-299.265
 21
401.232
  0
LINE
  8
0
 10
-299.265
 20
401.232
 11
-298.787
 21
401.112
  0
LINE
  8
0
 10
-298.787
 20
401.112
 11
-298.328
 21
400.934
  0
LINE
  8
0
 10
-298.328
 20
400.934
 11
-297.894
 21
400.701
  0
LINE
  8
0
 10
-297.894
 20
400.701
 11
-297.492
 21
400.416
  0
LINE
  8
0
 10
-297.492
 20
400.416
 11
-297.128
 21
400.085
  0
LINE
  8
0
 10
-297.128
 20
400.085
 11
-296.808
 21
399.711
  0
LINE
  8
0
 10
-296.808
 20
399.711
 11
-296.536
 21
399.3
  0
LINE
  8
0
 10
-296.536
 20
399.3
 11
-296.316
 21
398.859
  0
LINE
  8
0
 10
-296.316
 20
398.859
 11
-296.153
 21
398.395
  0
LINE
  8
0
 10
-296.153
 20
398.395
 11
-296.047
 21
397.914
  0
LINE
  8
0
 10
-296.047
 20
397.914
 11
-296.002
 21
397.423
  0
LINE
  8
0
 10
-296.002
 20
397.423
 11
-296.017
 21
396.931
  0
LINE
  8
0
 10
-296.017
 20
396.931
 11
-296.093
 21
396.444
  0
LINE
  8
0
 10
-296.093
 20
396.444
 11
-296.227
 21
395.971
  0
LINE
  8
0
 10
-296.227
 20
395.971
 11
-296.419
 21
395.517
  0
LINE
  8
0
 10
-296.419
 20
395.517
 11
-296.666
 21
395.091
  0
LINE
  8
0
 10
-296.666
 20
395.091
 11
-296.962
 21
394.698
  0
LINE
  8
0
 10
-296.962
 20
394.698
 11
-297.305
 21
394.344
  0
LINE
  8
0
 10
-297.305
 20
394.344
 11
-297.689
 21
394.035
  0
LINE
  8
0
 10
-297.689
 20
394.035
 11
-298.108
 21
393.776
  0
LINE
  8
0
 10
-298.108
 20
393.776
 11
-298.555
 21
393.57
  0
LINE
  8
0
 10
-298.555
 20
393.57
 11
-299.024
 21
393.421
  0
LINE
  8
0
 10
-299.024
 20
393.421
 11
-299.508
 21
393.33
  0
LINE
  8
0
 10
-299.508
 20
393.33
 11
-300
 21
393.3
  0
LINE
  8
0
 10
-300
 20
393.3
 11
-300.492
 21
393.33
  0
LINE
  8
0
 10
-359.987
 20
385.381
 11
-360.421
 21
385.616
  0
LINE
  8
0
 10
-360.421
 20
385.616
 11
-360.756
 21
385.98
  0
LINE
  8
0
 10
-360.756
 20
385.98
 11
-360.954
 21
386.432
  0
LINE
  8
0
 10
-360.954
 20
386.432
 11
-360.995
 21
386.924
  0
LINE
  8
0
 10
-360.995
 20
386.924
 11
-360.874
 21
387.403
  0
LINE
  8
0
 10
-360.874
 20
387.403
 11
-360.604
 21
387.816
  0
LINE
  8
0
 10
-360.604
 20
387.816
 11
-360.214
 21
388.119
  0
LINE
  8
0
 10
-360.214
 20
388.119
 11
-359.747
 21
388.28
  0
LINE
  8
0
 10
-359.747
 20
388.28
 11
-359.253
 21
388.28
  0
LINE
  8
0
 10
-359.253
 20
388.28
 11
-358.786
 21
388.119
  0
LINE
  8
0
 10
-358.786
 20
388.119
 11
-358.396
 21
387.816
  0
LINE
  8
0
 10
-358.396
 20
387.816
 11
-358.126
 21
387.403
  0
LINE
  8
0
 10
-358.126
 20
387.403
 11
-358.005
 21
386.924
  0
LINE
  8
0
 10
-358.005
 20
386.924
 11
-358.046
 21
386.432
  0
LINE
  8
0
 10
-358.046
 20
386.432
 11
-358.244
 21
385.98
  0
LINE
  8
0
 10
-358.244
 20
385.98
 11
-358.579
 21
385.616
  0
LINE
  8
0
 10
-358.579
 20
385.616
 11
-359.013
 21
385.381
  0
LINE
  8
0
 10
-359.013
 20
385.381
 11
-359.5
 21
385.3
  0
LINE
  8
0
 10
-359.5
 20
385.3
 11
-359.987
 21
385.381
  0
LINE
  8
0
 10
-390.987
 20
385.381
 11
-391.421
 21
385.616
  0
LINE
  8
0
 10
-391.421
 20
385.616
 11
-391.756
 21
385.98
  0
LINE
  8
0
 10
-391.756
 20
385.98
 11
-391.954
 21
386.432
  0
LINE
  8
0
 10
-391.954
 20
386.432
 11
-391.995
 21
386.924
  0
LINE
  8
0
 10
-391.995
 20
386.924
 11
-391.874
 21
387.403
  0
LINE
  8
0
 10
-391.874
 20
387.403
 11
-391.604
 21
387.816
  0
LINE
  8
0
 10
-391.604
 20
387.816
 11
-391.214
 21
388.119
  0
LINE
  8
0
 10
-391.214
 20
388.119
 11
-390.747
 21
388.28
  0
LINE
  8
0
 10
-390.747
 20
388.28
 11
-390.253
 21
388.28
  0
LINE
  8
0
 10
-390.253
 20
388.28
 11
-389.786
 21
388.119
  0
LINE
  8
0
 10
-389.786
 20
388.119
 11
-389.396
 21
387.816
  0
LINE
  8
0
 10
-389.396
 20
387.816
 11
-389.126
 21
387.403
  0
LINE
  8
0
 10
-389.126
 20
387.403
 11
-389.005
 21
386.924
  0
LINE
  8
0
 10
-389.005
 20
386.924
 11
-389.046
 21
386.432
  0
LINE
  8
0
 10
-389.046
 20
386.432
 11
-389.244
 21
385.98
  0
LINE
  8
0
 10
-389.244
 20
385.98
 11
-389.579
 21
385.616
  0
LINE
  8
0
 10
-389.579
 20
385.616
 11
-390.013
 21
385.381
  0
LINE
  8
0
 10
-390.013
 20
385.381
 11
-390.5
 21
385.3
  0
LINE
  8
0
 10
-390.5
 20
385.3
 11
-390.987
 21
385.381
  0
LINE
  8
0
 10
630
 20
287.3
 11
630.274
 21
287.3
  0
LINE
  8
0
 10
630.274
 20
287.3
 11
630.274
 21
292.526
  0
LINE
  8
0
 10
630.274
 20
292.526
 11
632.447
 21
302.751
  0
LINE
  8
0
 10
632.447
 20
302.751
 11
636.699
 21
312.3
  0
LINE
  8
0
 10
636.699
 20
312.3
 11
642.843
 21
320.757
  0
LINE
  8
0
 10
642.843
 20
320.757
 11
650.611
 21
327.751
  0
LINE
  8
0
 10
650.611
 20
327.751
 11
659.663
 21
332.977
  0
LINE
  8
0
 10
659.663
 20
332.977
 11
669.604
 21
336.207
  0
LINE
  8
0
 10
669.604
 20
336.207
 11
680
 21
337.3
  0
LINE
  8
0
 10
680
 20
337.3
 11
1050
 21
337.3
  0
LINE
  8
0
 10
1050
 20
337.3
 11
1050
 21
537.3
  0
LINE
  8
0
 10
1050
 20
537.3
 11
550
 21
537.3
  0
LINE
  8
0
 10
550
 20
537.3
 11
550
 21
62.7
  0
LINE
  8
0
 10
550
 20
62.7
 11
630
 21
62.7
  0
LINE
  8
0
 10
630
 20
62.7
 11
630
 21
287.3
  0
LINE
  8
0
 10
874.503
 20
391.311
 11
874.007
 21
391.345
  0
LINE
  8
0
 10
874.007
 20
391.345
 11
873.513
 21
391.401
  0
LINE
  8
0
 10
873.513
 20
391.401
 11
873.022
 21
391.479
  0
LINE
  8
0
 10
873.022
 20
391.479
 11
872.535
 21
391.58
  0
LINE
  8
0
 10
872.535
 20
391.58
 11
872.053
 21
391.702
  0
LINE
  8
0
 10
872.053
 20
391.702
 11
871.577
 21
391.846
  0
LINE
  8
0
 10
871.577
 20
391.846
 11
871.108
 21
392.011
  0
LINE
  8
0
 10
871.108
 20
392.011
 11
870.647
 21
392.198
  0
LINE
  8
0
 10
870.647
 20
392.198
 11
870.195
 21
392.405
  0
LINE
  8
0
 10
870.195
 20
392.405
 11
869.753
 21
392.632
  0
LINE
  8
0
 10
869.753
 20
392.632
 11
869.322
 21
392.879
  0
LINE
  8
0
 10
869.322
 20
392.879
 11
868.902
 21
393.145
  0
LINE
  8
0
 10
868.902
 20
393.145
 11
868.494
 21
393.43
  0
LINE
  8
0
 10
868.494
 20
393.43
 11
868.1
 21
393.733
  0
LINE
  8
0
 10
868.1
 20
393.733
 11
867.72
 21
394.054
  0
LINE
  8
0
 10
867.72
 20
394.054
 11
867.355
 21
394.391
  0
LINE
  8
0
 10
867.355
 20
394.391
 11
867.005
 21
394.745
  0
LINE
  8
0
 10
867.005
 20
394.745
 11
866.672
 21
395.114
  0
LINE
  8
0
 10
866.672
 20
395.114
 11
866.356
 21
395.497
  0
LINE
  8
0
 10
866.356
 20
395.497
 11
866.057
 21
395.895
  0
LINE
  8
0
 10
866.057
 20
395.895
 11
865.777
 21
396.305
  0
LINE
  8
0
 10
865.777
 20
396.305
 11
865.515
 21
396.728
  0
LINE
  8
0
 10
865.515
 20
396.728
 11
865.273
 21
397.163
  0
LINE
  8
0
 10
865.273
 20
397.163
 11
865.051
 21
397.607
  0
LINE
  8
0
 10
865.051
 20
397.607
 11
864.849
 21
398.062
  0
LINE
  8
0
 10
864.849
 20
398.062
 11
864.668
 21
398.525
  0
LINE
  8
0
 10
864.668
 20
398.525
 11
864.508
 21
398.996
  0
LINE
  8
0
 10
864.508
 20
398.996
 11
864.369
 21
399.473
  0
LINE
  8
0
 10
864.369
 20
399.473
 11
864.253
 21
399.956
  0
LINE
  8
0
 10
864.253
 20
399.956
 11
864.158
 21
400.444
  0
LINE
  8
0
 10
864.158
 20
400.444
 11
864.085
 21
400.936
  0
LINE
  8
0
 10
864.085
 20
400.936
 11
864.034
 21
401.431
  0
LINE
  8
0
 10
864.034
 20
401.431
 11
864.006
 21
401.927
  0
LINE
  8
0
 10
864.006
 20
401.927
 11
864.001
 21
402.424
  0
LINE
  8
0
 10
864.001
 20
402.424
 11
864.018
 21
402.921
  0
LINE
  8
0
 10
864.018
 20
402.921
 11
864.057
 21
403.417
  0
LINE
  8
0
 10
864.057
 20
403.417
 11
864.118
 21
403.91
  0
LINE
  8
0
 10
864.118
 20
403.91
 11
864.202
 21
404.4
  0
LINE
  8
0
 10
864.202
 20
404.4
 11
864.308
 21
404.886
  0
LINE
  8
0
 10
864.308
 20
404.886
 11
864.436
 21
405.367
  0
LINE
  8
0
 10
864.436
 20
405.367
 11
864.585
 21
405.841
  0
LINE
  8
0
 10
864.585
 20
405.841
 11
864.756
 21
406.308
  0
LINE
  8
0
 10
864.756
 20
406.308
 11
864.948
 21
406.767
  0
LINE
  8
0
 10
864.948
 20
406.767
 11
865.16
 21
407.216
  0
LINE
  8
0
 10
865.16
 20
407.216
 11
865.392
 21
407.656
  0
LINE
  8
0
 10
865.392
 20
407.656
 11
865.644
 21
408.085
  0
LINE
  8
0
 10
865.644
 20
408.085
 11
865.915
 21
408.501
  0
LINE
  8
0
 10
865.915
 20
408.501
 11
866.204
 21
408.906
  0
LINE
  8
0
 10
866.204
 20
408.906
 11
866.512
 21
409.296
  0
LINE
  8
0
 10
866.512
 20
409.296
 11
866.836
 21
409.673
  0
LINE
  8
0
 10
866.836
 20
409.673
 11
867.178
 21
410.034
  0
LINE
  8
0
 10
867.178
 20
410.034
 11
867.535
 21
410.38
  0
LINE
  8
0
 10
867.535
 20
410.38
 11
867.908
 21
410.709
  0
LINE
  8
0
 10
867.908
 20
410.709
 11
868.295
 21
411.021
  0
LINE
  8
0
 10
868.295
 20
411.021
 11
868.696
 21
411.315
  0
LINE
  8
0
 10
868.696
 20
411.315
 11
869.11
 21
411.59
  0
LINE
  8
0
 10
869.11
 20
411.59
 11
869.536
 21
411.847
  0
LINE
  8
0
 10
869.536
 20
411.847
 11
869.973
 21
412.084
  0
LINE
  8
0
 10
869.973
 20
412.084
 11
870.42
 21
412.301
  0
LINE
  8
0
 10
870.42
 20
412.301
 11
870.877
 21
412.498
  0
LINE
  8
0
 10
870.877
 20
412.498
 11
871.342
 21
412.674
  0
LINE
  8
0
 10
871.342
 20
412.674
 11
871.814
 21
412.829
  0
LINE
  8
0
 10
871.814
 20
412.829
 11
872.293
 21
412.962
  0
LINE
  8
0
 10
872.293
 20
412.962
 11
872.778
 21
413.073
  0
LINE
  8
0
 10
872.778
 20
413.073
 11
873.267
 21
413.163
  0
LINE
  8
0
 10
873.267
 20
413.163
 11
873.76
 21
413.23
  0
LINE
  8
0
 10
873.76
 20
413.23
 11
874.255
 21
413.275
  0
LINE
  8
0
 10
874.255
 20
413.275
 11
874.751
 21
413.297
  0
LINE
  8
0
 10
874.751
 20
413.297
 11
875.249
 21
413.297
  0
LINE
  8
0
 10
875.249
 20
413.297
 11
875.745
 21
413.275
  0
LINE
  8
0
 10
875.745
 20
413.275
 11
876.24
 21
413.23
  0
LINE
  8
0
 10
876.24
 20
413.23
 11
876.733
 21
413.163
  0
LINE
  8
0
 10
876.733
 20
413.163
 11
877.222
 21
413.073
  0
LINE
  8
0
 10
877.222
 20
413.073
 11
877.707
 21
412.962
  0
LINE
  8
0
 10
877.707
 20
412.962
 11
878.186
 21
412.829
  0
LINE
  8
0
 10
878.186
 20
412.829
 11
878.658
 21
412.674
  0
LINE
  8
0
 10
878.658
 20
412.674
 11
879.123
 21
412.498
  0
LINE
  8
0
 10
879.123
 20
412.498
 11
879.58
 21
412.301
  0
LINE
  8
0
 10
879.58
 20
412.301
 11
880.027
 21
412.084
  0
LINE
  8
0
 10
880.027
 20
412.084
 11
880.464
 21
411.847
  0
LINE
  8
0
 10
880.464
 20
411.847
 11
880.89
 21
411.59
  0
LINE
  8
0
 10
880.89
 20
411.59
 11
881.304
 21
411.315
  0
LINE
  8
0
 10
881.304
 20
411.315
 11
881.705
 21
411.021
  0
LINE
  8
0
 10
881.705
 20
411.021
 11
882.092
 21
410.709
  0
LINE
  8
0
 10
882.092
 20
410.709
 11
882.465
 21
410.38
  0
LINE
  8
0
 10
882.465
 20
410.38
 11
882.822
 21
410.034
  0
LINE
  8
0
 10
882.822
 20
410.034
 11
883.164
 21
409.673
  0
LINE
  8
0
 10
883.164
 20
409.673
 11
883.488
 21
409.296
  0
LINE
  8
0
 10
883.488
 20
409.296
 11
883.796
 21
408.906
  0
LINE
  8
0
 10
883.796
 20
408.906
 11
884.085
 21
408.501
  0
LINE
  8
0
 10
884.085
 20
408.501
 11
884.356
 21
408.085
  0
LINE
  8
0
 10
884.356
 20
408.085
 11
884.608
 21
407.656
  0
LINE
  8
0
 10
884.608
 20
407.656
 11
884.84
 21
407.216
  0
LINE
  8
0
 10
884.84
 20
407.216
 11
885.052
 21
406.767
  0
LINE
  8
0
 10
885.052
 20
406.767
 11
885.244
 21
406.308
  0
LINE
  8
0
 10
885.244
 20
406.308
 11
885.415
 21
405.841
  0
LINE
  8
0
 10
885.415
 20
405.841
 11
885.564
 21
405.367
  0
LINE
  8
0
 10
885.564
 20
405.367
 11
885.692
 21
404.886
  0
LINE
  8
0
 10
885.692
 20
404.886
 11
885.798
 21
404.4
  0
LINE
  8
0
 10
885.798
 20
404.4
 11
885.882
 21
403.91
  0
LINE
  8
0
 10
885.882
 20
403.91
 11
885.943
 21
403.417
  0
LINE
  8
0
 10
885.943
 20
403.417
 11
885.982
 21
402.921
  0
LINE
  8
0
 10
885.982
 20
402.921
 11
885.999
 21
402.424
  0
LINE
  8
0
 10
885.999
 20
402.424
 11
885.994
 21
401.927
  0
LINE
  8
0
 10
885.994
 20
401.927
 11
885.966
 21
401.431
  0
LINE
  8
0
 10
885.966
 20
401.431
 11
885.915
 21
400.936
  0
LINE
  8
0
 10
885.915
 20
400.936
 11
885.842
 21
400.444
  0
LINE
  8
0
 10
885.842
 20
400.444
 11
885.747
 21
399.956
  0
LINE
  8
0
 10
885.747
 20
399.956
 11
885.631
 21
399.473
  0
LINE
  8
0
 10
885.631
 20
399.473
 11
885.492
 21
398.996
  0
LINE
  8
0
 10
885.492
 20
398.996
 11
885.332
 21
398.525
  0
LINE
  8
0
 10
885.332
 20
398.525
 11
885.151
 21
398.062
  0
LINE
  8
0
 10
885.151
 20
398.062
 11
884.949
 21
397.607
  0
LINE
  8
0
 10
884.949
 20
397.607
 11
884.727
 21
397.163
  0
LINE
  8
0
 10
884.727
 20
397.163
 11
884.485
 21
396.728
  0
LINE
  8
0
 10
884.485
 20
396.728
 11
884.223
 21
396.305
  0
LINE
  8
0
 10
884.223
 20
396.305
 11
883.943
 21
395.895
  0
LINE
  8
0
 10
883.943
 20
395.895
 11
883.644
 21
395.497
  0
LINE
  8
0
 10
883.644
 20
395.497
 11
883.328
 21
395.114
  0
LINE
  8
0
 10
883.328
 20
395.114
 11
882.995
 21
394.745
  0
LINE
  8
0
 10
882.995
 20
394.745
 11
882.645
 21
394.391
  0
LINE
  8
0
 10
882.645
 20
394.391
 11
882.28
 21
394.054
  0
LINE
  8
0
 10
882.28
 20
394.054
 11
881.9
 21
393.733
  0
LINE
  8
0
 10
881.9
 20
393.733
 11
881.506
 21
393.43
  0
LINE
  8
0
 10
881.506
 20
393.43
 11
881.098
 21
393.145
  0
LINE
  8
0
 10
881.098
 20
393.145
 11
880.678
 21
392.879
  0
LINE
  8
0
 10
880.678
 20
392.879
 11
880.247
 21
392.632
  0
LINE
  8
0
 10
880.247
 20
392.632
 11
879.805
 21
392.405
  0
LINE
  8
0
 10
879.805
 20
392.405
 11
879.353
 21
392.198
  0
LINE
  8
0
 10
879.353
 20
392.198
 11
878.892
 21
392.011
  0
LINE
  8
0
 10
878.892
 20
392.011
 11
878.423
 21
391.846
  0
LINE
  8
0
 10
878.423
 20
391.846
 11
877.947
 21
391.702
  0
LINE
  8
0
 10
877.947
 20
391.702
 11
877.465
 21
391.58
  0
LINE
  8
0
 10
877.465
 20
391.58
 11
876.978
 21
391.479
  0
LINE
  8
0
 10
876.978
 20
391.479
 11
876.487
 21
391.401
  0
LINE
  8
0
 10
876.487
 20
391.401
 11
875.993
 21
391.345
  0
LINE
  8
0
 10
875.993
 20
391.345
 11
875.497
 21
391.311
  0
LINE
  8
0
 10
875.497
 20
391.311
 11
875
 21
391.3
  0
LINE
  8
0
 10
875
 20
391.3
 11
874.503
 21
391.311
  0
LINE
  8
0
 10
949.508
 20
393.33
 11
949.024
 21
393.421
  0
LINE
  8
0
 10
949.024
 20
393.421
 11
948.555
 21
393.57
  0
LINE
  8
0
 10
948.555
 20
393.57
 11
948.108
 21
393.776
  0
LINE
  8
0
 10
948.108
 20
393.776
 11
947.689
 21
394.035
  0
LINE
  8
0
 10
947.689
 20
394.035
 11
947.305
 21
394.344
  0
LINE
  8
0
 10
947.305
 20
394.344
 11
946.962
 21
394.698
  0
LINE
  8
0
 10
946.962
 20
394.698
 11
946.666
 21
395.091
  0
LINE
  8
0
 10
946.666
 20
395.091
 11
946.419
 21
395.517
  0
LINE
  8
0
 10
946.419
 20
395.517
 11
946.227
 21
395.971
  0
LINE
  8
0
 10
946.227
 20
395.971
 11
946.093
 21
396.444
  0
LINE
  8
0
 10
946.093
 20
396.444
 11
946.017
 21
396.931
  0
LINE
  8
0
 10
946.017
 20
396.931
 11
946.002
 21
397.423
  0
LINE
  8
0
 10
946.002
 20
397.423
 11
946.047
 21
397.914
  0
LINE
  8
0
 10
946.047
 20
397.914
 11
946.153
 21
398.395
  0
LINE
  8
0
 10
946.153
 20
398.395
 11
946.316
 21
398.859
  0
LINE
  8
0
 10
946.316
 20
398.859
 11
946.536
 21
399.3
  0
LINE
  8
0
 10
946.536
 20
399.3
 11
946.808
 21
399.711
  0
LINE
  8
0
 10
946.808
 20
399.711
 11
947.128
 21
400.085
  0
LINE
  8
0
 10
947.128
 20
400.085
 11
947.492
 21
400.416
  0
LINE
  8
0
 10
947.492
 20
400.416
 11
947.894
 21
400.701
  0
LINE
  8
0
 10
947.894
 20
400.701
 11
948.328
 21
400.934
  0
LINE
  8
0
 10
948.328
 20
400.934
 11
948.787
 21
401.112
  0
LINE
  8
0
 10
948.787
 20
401.112
 11
949.265
 21
401.232
  0
LINE
  8
0
 10
949.265
 20
401.232
 11
949.754
 21
401.292
  0
LINE
  8
0
 10
949.754
 20
401.292
 11
950.246
 21
401.292
  0
LINE
  8
0
 10
950.246
 20
401.292
 11
950.735
 21
401.232
  0
LINE
  8
0
 10
950.735
 20
401.232
 11
951.213
 21
401.112
  0
LINE
  8
0
 10
951.213
 20
401.112
 11
951.672
 21
400.934
  0
LINE
  8
0
 10
951.672
 20
400.934
 11
952.106
 21
400.701
  0
LINE
  8
0
 10
952.106
 20
400.701
 11
952.508
 21
400.416
  0
LINE
  8
0
 10
952.508
 20
400.416
 11
952.872
 21
400.085
  0
LINE
  8
0
 10
952.872
 20
400.085
 11
953.192
 21
399.711
  0
LINE
  8
0
 10
953.192
 20
399.711
 11
953.464
 21
399.3
  0
LINE
  8
0
 10
953.464
 20
399.3
 11
953.684
 21
398.859
  0
LINE
  8
0
 10
953.684
 20
398.859
 11
953.847
 21
398.395
  0
LINE
  8
0
 10
953.847
 20
398.395
 11
953.953
 21
397.914
  0
LINE
  8
0
 10
953.953
 20
397.914
 11
953.998
 21
397.423
  0
LINE
  8
0
 10
953.998
 20
397.423
 11
953.983
 21
396.931
  0
LINE
  8
0
 10
953.983
 20
396.931
 11
953.907
 21
396.444
  0
LINE
  8
0
 10
953.907
 20
396.444
 11
953.773
 21
395.971
  0
LINE
  8
0
 10
953.773
 20
395.971
 11
953.581
 21
395.517
  0
LINE
  8
0
 10
953.581
 20
395.517
 11
953.334
 21
395.091
  0
LINE
  8
0
 10
953.334
 20
395.091
 11
953.038
 21
394.698
  0
LINE
  8
0
 10
953.038
 20
394.698
 11
952.695
 21
394.344
  0
LINE
  8
0
 10
952.695
 20
394.344
 11
952.311
 21
394.035
  0
LINE
  8
0
 10
952.311
 20
394.035
 11
951.892
 21
393.776
  0
LINE
  8
0
 10
951.892
 20
393.776
 11
951.445
 21
393.57
  0
LINE
  8
0
 10
951.445
 20
393.57
 11
950.976
 21
393.421
  0
LINE
  8
0
 10
950.976
 20
393.421
 11
950.492
 21
393.33
  0
LINE
  8
0
 10
950.492
 20
393.33
 11
950
 21
393.3
  0
LINE
  8
0
 10
950
 20
393.3
 11
949.508
 21
393.33
  0
LINE
  8
0
 10
799.508
 20
393.33
 11
799.024
 21
393.421
  0
LINE
  8
0
 10
799.024
 20
393.421
 11
798.555
 21
393.57
  0
LINE
  8
0
 10
798.555
 20
393.57
 11
798.108
 21
393.776
  0
LINE
  8
0
 10
798.108
 20
393.776
 11
797.689
 21
394.035
  0
LINE
  8
0
 10
797.689
 20
394.035
 11
797.305
 21
394.344
  0
LINE
  8
0
 10
797.305
 20
394.344
 11
796.962
 21
394.698
  0
LINE
  8
0
 10
796.962
 20
394.698
 11
796.666
 21
395.091
  0
LINE
  8
0
 10
796.666
 20
395.091
 11
796.419
 21
395.517
  0
LINE
  8
0
 10
796.419
 20
395.517
 11
796.227
 21
395.971
  0
LINE
  8
0
 10
796.227
 20
395.971
 11
796.093
 21
396.444
  0
LINE
  8
0
 10
796.093
 20
396.444
 11
796.017
 21
396.931
  0
LINE
  8
0
 10
796.017
 20
396.931
 11
796.002
 21
397.423
  0
LINE
  8
0
 10
796.002
 20
397.423
 11
796.047
 21
397.914
  0
LINE
  8
0
 10
796.047
 20
397.914
 11
796.153
 21
398.395
  0
LINE
  8
0
 10
796.153
 20
398.395
 11
796.316
 21
398.859
  0
LINE
  8
0
 10
796.316
 20
398.859
 11
796.536
 21
399.3
  0
LINE
  8
0
 10
796.536
 20
399.3
 11
796.808
 21
399.711
  0
LINE
  8
0
 10
796.808
 20
399.711
 11
797.128
 21
400.085
  0
LINE
  8
0
 10
797.128
 20
400.085
 11
797.492
 21
400.416
  0
LINE
  8
0
 10
797.492
 20
400.416
 11
797.894
 21
400.701
  0
LINE
  8
0
 10
797.894
 20
400.701
 11
798.328
 21
400.934
  0
LINE
  8
0
 10
798.328
 20
400.934
 11
798.787
 21
401.112
  0
LINE
  8
0
 10
798.787
 20
401.112
 11
799.265
 21
401.232
  0
LINE
  8
0
 10
799.265
 20
401.232
 11
799.754
 21
401.292
  0
LINE
  8
0
 10
799.754
 20
401.292
 11
800.246
 21
401.292
  0
LINE
  8
0
 10
800.246
 20
401.292
 11
800.735
 21
401.232
  0
LINE
  8
0
 10
800.735
 20
401.232
 11
801.213
 21
401.112
  0
LINE
  8
0
 10
801.213
 20
401.112
 11
801.672
 21
400.934
  0
LINE
  8
0
 10
801.672
 20
400.934
 11
802.106
 21
400.701
  0
LINE
  8
0
 10
802.106
 20
400.701
 11
802.508
 21
400.416
  0
LINE
  8
0
 10
802.508
 20
400.416
 11
802.872
 21
400.085
  0
LINE
  8
0
 10
802.872
 20
400.085
 11
803.192
 21
399.711
  0
LINE
  8
0
 10
803.192
 20
399.711
 11
803.464
 21
399.3
  0
LINE
  8
0
 10
803.464
 20
399.3
 11
803.684
 21
398.859
  0
LINE
  8
0
 10
803.684
 20
398.859
 11
803.847
 21
398.395
  0
LINE
  8
0
 10
803.847
 20
398.395
 11
803.953
 21
397.914
  0
LINE
  8
0
 10
803.953
 20
397.914
 11
803.998
 21
397.423
  0
LINE
  8
0
 10
803.998
 20
397.423
 11
803.983
 21
396.931
  0
LINE
  8
0
 10
803.983
 20
396.931
 11
803.907
 21
396.444
  0
LINE
  8
0
 10
803.907
 20
396.444
 11
803.773
 21
395.971
  0
LINE
  8
0
 10
803.773
 20
395.971
 11
803.581
 21
395.517
  0
LINE
  8
0
 10
803.581
 20
395.517
 11
803.334
 21
395.091
  0
LINE
  8
0
 10
803.334
 20
395.091
 11
803.038
 21
394.698
  0
LINE
  8
0
 10
803.038
 20
394.698
 11
802.695
 21
394.344
  0
LINE
  8
0
 10
802.695
 20
394.344
 11
802.311
 21
394.035
  0
LINE
  8
0
 10
802.311
 20
394.035
 11
801.892
 21
393.776
  0
LINE
  8
0
 10
801.892
 20
393.776
 11
801.445
 21
393.57
  0
LINE
  8
0
 10
801.445
 20
393.57
 11
800.976
 21
393.421
  0
LINE
  8
0
 10
800.976
 20
393.421
 11
800.492
 21
393.33
  0
LINE
  8
0
 10
800.492
 20
393.33
 11
800
 21
393.3
  0
LINE
  8
0
 10
800
 20
393.3
 11
799.508
 21
393.33
  0
LINE
  8
0
 10
500
 20
-50
 11
0
 21
-50
  0
LINE
  8
0
 10
0
 20
-50
 11
0
 21
-130
  0
LINE
  8
0
 10
0
 20
-130
 11
500
 21
-130
  0
LINE
  8
0
 10
500
 20
-130
 11
500
 21
-50
  0
LINE
  8
0
 10
249.379
 20
-95.9824
 11
248.883
 21
-95.9431
  0
LINE
  8
0
 10
248.883
 20
-95.9431
 11
248.39
 21
-95.8815
  0
LINE
  8
0
 10
248.39
 20
-95.8815
 11
247.9
 21
-95.7976
  0
LINE
  8
0
 10
247.9
 20
-95.7976
 11
247.414
 21
-95.6917
  0
LINE
  8
0
 10
247.414
 20
-95.6917
 11
246.933
 21
-95.5639
  0
LINE
  8
0
 10
246.933
 20
-95.5639
 11
246.459
 21
-95.4146
  0
LINE
  8
0
 10
246.459
 20
-95.4146
 11
245.992
 21
-95.2439
  0
LINE
  8
0
 10
245.992
 20
-95.2439
 11
245.533
 21
-95.0524
  0
LINE
  8
0
 10
245.533
 20
-95.0524
 11
245.084
 21
-94.8403
  0
LINE
  8
0
 10
245.084
 20
-94.8403
 11
244.644
 21
-94.6081
  0
LINE
  8
0
 10
244.644
 20
-94.6081
 11
244.215
 21
-94.3562
  0
LINE
  8
0
 10
244.215
 20
-94.3562
 11
243.799
 21
-94.0853
  0
LINE
  8
0
 10
243.799
 20
-94.0853
 11
243.394
 21
-93.7958
  0
LINE
  8
0
 10
243.394
 20
-93.7958
 11
243.004
 21
-93.4883
  0
LINE
  8
0
 10
243.004
 20
-93.4883
 11
242.627
 21
-93.1635
  0
LINE
  8
0
 10
242.627
 20
-93.1635
 11
242.266
 21
-92.822
  0
LINE
  8
0
 10
242.266
 20
-92.822
 11
241.92
 21
-92.4645
  0
LINE
  8
0
 10
241.92
 20
-92.4645
 11
241.591
 21
-92.0918
  0
LINE
  8
0
 10
241.591
 20
-92.0918
 11
241.279
 21
-91.7046
  0
LINE
  8
0
 10
241.279
 20
-91.7046
 11
240.985
 21
-91.3037
  0
LINE
  8
0
 10
240.985
 20
-91.3037
 11
240.71
 21
-90.8899
  0
LINE
  8
0
 10
240.71
 20
-90.8899
 11
240.453
 21
-90.4641
  0
LINE
  8
0
 10
240.453
 20
-90.4641
 11
240.216
 21
-90.0271
  0
LINE
  8
0
 10
240.216
 20
-90.0271
 11
239.999
 21
-89.5798
  0
LINE
  8
0
 10
239.999
 20
-89.5798
 11
239.802
 21
-89.1232
  0
LINE
  8
0
 10
239.802
 20
-89.1232
 11
239.626
 21
-88.6582
  0
LINE
  8
0
 10
239.626
 20
-88.6582
 11
239.471
 21
-88.1857
  0
LINE
  8
0
 10
239.471
 20
-88.1857
 11
239.338
 21
-87.7067
  0
LINE
  8
0
 10
239.338
 20
-87.7067
 11
239.227
 21
-87.2221
  0
LINE
  8
0
 10
239.227
 20
-87.2221
 11
239.137
 21
-86.733
  0
LINE
  8
0
 10
239.137
 20
-86.733
 11
239.07
 21
-86.2404
  0
LINE
  8
0
 10
239.07
 20
-86.2404
 11
239.025
 21
-85.7453
  0
LINE
  8
0
 10
239.025
 20
-85.7453
 11
239.003
 21
-85.2486
  0
LINE
  8
0
 10
239.003
 20
-85.2486
 11
239.003
 21
-84.7514
  0
LINE
  8
0
 10
239.003
 20
-84.7514
 11
239.025
 21
-84.2547
  0
LINE
  8
0
 10
239.025
 20
-84.2547
 11
239.07
 21
-83.7596
  0
LINE
  8
0
 10
239.07
 20
-83.7596
 11
239.137
 21
-83.2669
  0
LINE
  8
0
 10
239.137
 20
-83.2669
 11
239.227
 21
-82.7779
  0
LINE
  8
0
 10
239.227
 20
-82.7779
 11
239.338
 21
-82.2933
  0
LINE
  8
0
 10
239.338
 20
-82.2933
 11
239.471
 21
-81.8143
  0
LINE
  8
0
 10
239.471
 20
-81.8143
 11
239.626
 21
-81.3418
  0
LINE
  8
0
 10
239.626
 20
-81.3418
 11
239.802
 21
-80.8768
  0
LINE
  8
0
 10
239.802
 20
-80.8768
 11
239.999
 21
-80.4202
  0
LINE
  8
0
 10
239.999
 20
-80.4202
 11
240.216
 21
-79.9729
  0
LINE
  8
0
 10
240.216
 20
-79.9729
 11
240.453
 21
-79.5359
  0
LINE
  8
0
 10
240.453
 20
-79.5359
 11
240.71
 21
-79.1101
  0
LINE
  8
0
 10
240.71
 20
-79.1101
 11
240.985
 21
-78.6963
  0
LINE
  8
0
 10
240.985
 20
-78.6963
 11
241.279
 21
-78.2954
  0
LINE
  8
0
 10
241.279
 20
-78.2954
 11
241.591
 21
-77.9082
  0
LINE
  8
0
 10
241.591
 20
-77.9082
 11
241.92
 21
-77.5355
  0
LINE
  8
0
 10
241.92
 20
-77.5355
 11
242.266
 21
-77.178
  0
LINE
  8
0
 10
242.266
 20
-77.178
 11
242.627
 21
-76.8365
  0
LINE
  8
0
 10
242.627
 20
-76.8365
 11
243.004
 21
-76.5117
  0
LINE
  8
0
 10
243.004
 20
-76.5117
 11
243.394
 21
-76.2042
  0
LINE
  8
0
 10
243.394
 20
-76.2042
 11
243.799
 21
-75.9147
  0
LINE
  8
0
 10
243.799
 20
-75.9147
 11
244.215
 21
-75.6438
  0
LINE
  8
0
 10
244.215
 20
-75.6438
 11
244.644
 21
-75.3919
  0
LINE
  8
0
 10
244.644
 20
-75.3919
 11
245.084
 21
-75.1597
  0
LINE
  8
0
 10
245.084
 20
-75.1597
 11
245.533
 21
-74.9476
  0
LINE
  8
0
 10
245.533
 20
-74.9476
 11
245.992
 21
-74.7561
  0
LINE
  8
0
 10
245.992
 20
-74.7561
 11
246.459
 21
-74.5854
  0
LINE
  8
0
 10
246.459
 20
-74.5854
 11
246.933
 21
-74.4361
  0
LINE
  8
0
 10
246.933
 20
-74.4361
 11
247.414
 21
-74.3083
  0
LINE
  8
0
 10
247.414
 20
-74.3083
 11
247.9
 21
-74.2024
  0
LINE
  8
0
 10
247.9
 20
-74.2024
 11
248.39
 21
-74.1185
  0
LINE
  8
0
 10
248.39
 20
-74.1185
 11
248.883
 21
-74.0568
  0
LINE
  8
0
 10
248.883
 20
-74.0568
 11
249.379
 21
-74.0175
  0
LINE
  8
0
 10
249.379
 20
-74.0175
 11
249.876
 21
-74.0007
  0
LINE
  8
0
 10
249.876
 20
-74.0007
 11
250.373
 21
-74.0063
  0
LINE
  8
0
 10
250.373
 20
-74.0063
 11
250.869
 21
-74.0344
  0
LINE
  8
0
 10
250.869
 20
-74.0344
 11
251.364
 21
-74.0849
  0
LINE
  8
0
 10
251.364
 20
-74.0849
 11
251.856
 21
-74.1577
  0
LINE
  8
0
 10
251.856
 20
-74.1577
 11
252.344
 21
-74.2526
  0
LINE
  8
0
 10
252.344
 20
-74.2526
 11
252.827
 21
-74.3695
  0
LINE
  8
0
 10
252.827
 20
-74.3695
 11
253.304
 21
-74.5081
  0
LINE
  8
0
 10
253.304
 20
-74.5081
 11
253.775
 21
-74.6681
  0
LINE
  8
0
 10
253.775
 20
-74.6681
 11
254.238
 21
-74.8493
  0
LINE
  8
0
 10
254.238
 20
-74.8493
 11
254.693
 21
-75.0511
  0
LINE
  8
0
 10
254.693
 20
-75.0511
 11
255.137
 21
-75.2733
  0
LINE
  8
0
 10
255.137
 20
-75.2733
 11
255.572
 21
-75.5154
  0
LINE
  8
0
 10
255.572
 20
-75.5154
 11
255.995
 21
-75.7769
  0
LINE
  8
0
 10
255.995
 20
-75.7769
 11
256.405
 21
-76.0572
  0
LINE
  8
0
 10
256.405
 20
-76.0572
 11
256.803
 21
-76.3557
  0
LINE
  8
0
 10
256.803
 20
-76.3557
 11
257.186
 21
-76.672
  0
LINE
  8
0
 10
257.186
 20
-76.672
 11
257.555
 21
-77.0052
  0
LINE
  8
0
 10
257.555
 20
-77.0052
 11
257.909
 21
-77.3548
  0
LINE
  8
0
 10
257.909
 20
-77.3548
 11
258.246
 21
-77.72
  0
LINE
  8
0
 10
258.246
 20
-77.72
 11
258.567
 21
-78.1
  0
LINE
  8
0
 10
258.567
 20
-78.1
 11
258.87
 21
-78.4942
  0
LINE
  8
0
 10
258.87
 20
-78.4942
 11
259.155
 21
-78.9016
  0
LINE
  8
0
 10
259.155
 20
-78.9016
 11
259.421
 21
-79.3216
  0
LINE
  8
0
 10
259.421
 20
-79.3216
 11
259.668
 21
-79.7531
  0
LINE
  8
0
 10
259.668
 20
-79.7531
 11
259.895
 21
-80.1953
  0
LINE
  8
0
 10
259.895
 20
-80.1953
 11
260.102
 21
-80.6473
  0
LINE
  8
0
 10
260.102
 20
-80.6473
 11
260.289
 21
-81.1083
  0
LINE
  8
0
 10
260.289
 20
-81.1083
 11
260.454
 21
-81.5772
  0
LINE
  8
0
 10
260.454
 20
-81.5772
 11
260.598
 21
-82.0531
  0
LINE
  8
0
 10
260.598
 20
-82.0531
 11
260.72
 21
-82.535
  0
LINE
  8
0
 10
260.72
 20
-82.535
 11
260.821
 21
-83.0219
  0
LINE
  8
0
 10
260.821
 20
-83.0219
 11
260.899
 21
-83.5129
  0
LINE
  8
0
 10
260.899
 20
-83.5129
 11
260.955
 21
-84.0069
  0
LINE
  8
0
 10
260.955
 20
-84.0069
 11
260.989
 21
-84.5029
  0
LINE
  8
0
 10
260.989
 20
-84.5029
 11
261
 21
-85
  0
LINE
  8
0
 10
261
 20
-85
 11
260.989
 21
-85.4971
  0
LINE
  8
0
 10
260.989
 20
-85.4971
 11
260.955
 21
-85.9931
  0
LINE
  8
0
 10
260.955
 20
-85.9931
 11
260.899
 21
-86.4871
  0
LINE
  8
0
 10
260.899
 20
-86.4871
 11
260.821
 21
-86.9781
  0
LINE
  8
0
 10
260.821
 20
-86.9781
 11
260.72
 21
-87.465
  0
LINE
  8
0
 10
260.72
 20
-87.465
 11
260.598
 21
-87.9469
  0
LINE
  8
0
 10
260.598
 20
-87.9469
 11
260.454
 21
-88.4228
  0
LINE
  8
0
 10
260.454
 20
-88.4228
 11
260.289
 21
-88.8917
  0
LINE
  8
0
 10
260.289
 20
-88.8917
 11
260.102
 21
-89.3526
  0
LINE
  8
0
 10
260.102
 20
-89.3526
 11
259.895
 21
-89.8047
  0
LINE
  8
0
 10
259.895
 20
-89.8047
 11
259.668
 21
-90.2469
  0
LINE
  8
0
 10
259.668
 20
-90.2469
 11
259.421
 21
-90.6784
  0
LINE
  8
0
 10
259.421
 20
-90.6784
 11
259.155
 21
-91.0983
  0
LINE
  8
0
 10
259.155
 20
-91.0983
 11
258.87
 21
-91.5058
  0
LINE
  8
0
 10
258.87
 20
-91.5058
 11
258.567
 21
-91.8999
  0
LINE
  8
0
 10
258.567
 20
-91.8999
 11
258.246
 21
-92.28
  0
LINE
  8
0
 10
258.246
 20
-92.28
 11
257.909
 21
-92.6452
  0
LINE
  8
0
 10
257.909
 20
-92.6452
 11
257.555
 21
-92.9948
  0
LINE
  8
0
 10
257.555
 20
-92.9948
 11
257.186
 21
-93.328
  0
LINE
  8
0
 10
257.186
 20
-93.328
 11
256.803
 21
-93.6443
  0
LINE
  8
0
 10
256.803
 20
-93.6443
 11
256.405
 21
-93.9428
  0
LINE
  8
0
 10
256.405
 20
-93.9428
 11
255.995
 21
-94.2231
  0
LINE
  8
0
 10
255.995
 20
-94.2231
 11
255.572
 21
-94.4846
  0
LINE
  8
0
 10
255.572
 20
-94.4846
 11
255.137
 21
-94.7267
  0
LINE
  8
0
 10
255.137
 20
-94.7267
 11
254.693
 21
-94.9489
  0
LINE
  8
0
 10
254.693
 20
-94.9489
 11
254.238
 21
-95.1507
  0
LINE
  8
0
 10
254.238
 20
-95.1507
 11
253.775
 21
-95.3319
  0
LINE
  8
0
 10
253.775
 20
-95.3319
 11
253.304
 21
-95.4919
  0
LINE
  8
0
 10
253.304
 20
-95.4919
 11
252.827
 21
-95.6305
  0
LINE
  8
0
 10
252.827
 20
-95.6305
 11
252.344
 21
-95.7474
  0
LINE
  8
0
 10
252.344
 20
-95.7474
 11
251.856
 21
-95.8423
  0
LINE
  8
0
 10
251.856
 20
-95.8423
 11
251.364
 21
-95.9151
  0
LINE
  8
0
 10
251.364
 20
-95.9151
 11
250.869
 21
-95.9656
  0
LINE
  8
0
 10
250.869
 20
-95.9656
 11
250.373
 21
-95.9937
  0
LINE
  8
0
 10
250.373
 20
-95.9937
 11
249.876
 21
-95.9993
  0
LINE
  8
0
 10
249.876
 20
-95.9993
 11
249.379
 21
-95.9824
  0
LINE
  8
0
 10
332.72
 20
-93.9527
 11
332.239
 21
-93.8473
  0
LINE
  8
0
 10
332.239
 20
-93.8473
 11
331.774
 21
-93.6836
  0
LINE
  8
0
 10
331.774
 20
-93.6836
 11
331.333
 21
-93.4641
  0
LINE
  8
0
 10
331.333
 20
-93.4641
 11
330.923
 21
-93.1921
  0
LINE
  8
0
 10
330.923
 20
-93.1921
 11
330.549
 21
-92.8716
  0
LINE
  8
0
 10
330.549
 20
-92.8716
 11
330.217
 21
-92.5077
  0
LINE
  8
0
 10
330.217
 20
-92.5077
 11
329.932
 21
-92.1057
  0
LINE
  8
0
 10
329.932
 20
-92.1057
 11
329.699
 21
-91.6718
  0
LINE
  8
0
 10
329.699
 20
-91.6718
 11
329.522
 21
-91.2126
  0
LINE
  8
0
 10
329.522
 20
-91.2126
 11
329.401
 21
-90.735
  0
LINE
  8
0
 10
329.401
 20
-90.735
 11
329.341
 21
-90.2462
  0
LINE
  8
0
 10
329.341
 20
-90.2462
 11
329.341
 21
-89.7538
  0
LINE
  8
0
 10
329.341
 20
-89.7538
 11
329.401
 21
-89.265
  0
LINE
  8
0
 10
329.401
 20
-89.265
 11
329.522
 21
-88.7874
  0
LINE
  8
0
 10
329.522
 20
-88.7874
 11
329.699
 21
-88.3282
  0
LINE
  8
0
 10
329.699
 20
-88.3282
 11
329.932
 21
-87.8943
  0
LINE
  8
0
 10
329.932
 20
-87.8943
 11
330.217
 21
-87.4923
  0
LINE
  8
0
 10
330.217
 20
-87.4923
 11
330.549
 21
-87.1283
  0
LINE
  8
0
 10
330.549
 20
-87.1283
 11
330.923
 21
-86.8079
  0
LINE
  8
0
 10
330.923
 20
-86.8079
 11
331.333
 21
-86.5359
  0
LINE
  8
0
 10
331.333
 20
-86.5359
 11
331.774
 21
-86.3164
  0
LINE
  8
0
 10
331.774
 20
-86.3164
 11
332.239
 21
-86.1527
  0
LINE
  8
0
 10
332.239
 20
-86.1527
 11
332.72
 21
-86.0473
  0
LINE
  8
0
 10
332.72
 20
-86.0473
 11
333.21
 21
-86.0019
  0
LINE
  8
0
 10
333.21
 20
-86.0019
 11
333.702
 21
-86.0171
  0
LINE
  8
0
 10
333.702
 20
-86.0171
 11
334.189
 21
-86.0926
  0
LINE
  8
0
 10
334.189
 20
-86.0926
 11
334.663
 21
-86.2274
  0
LINE
  8
0
 10
334.663
 20
-86.2274
 11
335.116
 21
-86.4193
  0
LINE
  8
0
 10
335.116
 20
-86.4193
 11
335.543
 21
-86.6656
  0
LINE
  8
0
 10
335.543
 20
-86.6656
 11
335.936
 21
-86.9624
  0
LINE
  8
0
 10
335.936
 20
-86.9624
 11
336.289
 21
-87.3052
  0
LINE
  8
0
 10
336.289
 20
-87.3052
 11
336.598
 21
-87.6889
  0
LINE
  8
0
 10
336.598
 20
-87.6889
 11
336.857
 21
-88.1076
  0
LINE
  8
0
 10
336.857
 20
-88.1076
 11
337.063
 21
-88.555
  0
LINE
  8
0
 10
337.063
 20
-88.555
 11
337.213
 21
-89.0243
  0
LINE
  8
0
 10
337.213
 20
-89.0243
 11
337.303
 21
-89.5084
  0
LINE
  8
0
 10
337.303
 20
-89.5084
 11
337.333
 21
-90
  0
LINE
  8
0
 10
337.333
 20
-90
 11
337.303
 21
-90.4915
  0
LINE
  8
0
 10
337.303
 20
-90.4915
 11
337.213
 21
-90.9756
  0
LINE
  8
0
 10
337.213
 20
-90.9756
 11
337.063
 21
-91.445
  0
LINE
  8
0
 10
337.063
 20
-91.445
 11
336.857
 21
-91.8924
  0
LINE
  8
0
 10
336.857
 20
-91.8924
 11
336.598
 21
-92.3111
  0
LINE
  8
0
 10
336.598
 20
-92.3111
 11
336.289
 21
-92.6948
  0
LINE
  8
0
 10
336.289
 20
-92.6948
 11
335.936
 21
-93.0376
  0
LINE
  8
0
 10
335.936
 20
-93.0376
 11
335.543
 21
-93.3344
  0
LINE
  8
0
 10
335.543
 20
-93.3344
 11
335.116
 21
-93.5806
  0
LINE
  8
0
 10
335.116
 20
-93.5806
 11
334.663
 21
-93.7726
  0
LINE
  8
0
 10
334.663
 20
-93.7726
 11
334.189
 21
-93.9074
  0
LINE
  8
0
 10
334.189
 20
-93.9074
 11
333.702
 21
-93.9829
  0
LINE
  8
0
 10
333.702
 20
-93.9829
 11
333.21
 21
-93.9981
  0
LINE
  8
0
 10
333.21
 20
-93.9981
 11
332.72
 21
-93.9527
  0
LINE
  8
0
 10
166.053
 20
-93.9527
 11
165.572
 21
-93.8473
  0
LINE
  8
0
 10
165.572
 20
-93.8473
 11
165.108
 21
-93.6836
  0
LINE
  8
0
 10
165.108
 20
-93.6836
 11
164.667
 21
-93.4641
  0
LINE
  8
0
 10
164.667
 20
-93.4641
 11
164.256
 21
-93.1921
  0
LINE
  8
0
 10
164.256
 20
-93.1921
 11
163.882
 21
-92.8716
  0
LINE
  8
0
 10
163.882
 20
-92.8716
 11
163.55
 21
-92.5077
  0
LINE
  8
0
 10
163.55
 20
-92.5077
 11
163.266
 21
-92.1057
  0
LINE
  8
0
 10
163.266
 20
-92.1057
 11
163.033
 21
-91.6718
  0
LINE
  8
0
 10
163.033
 20
-91.6718
 11
162.855
 21
-91.2126
  0
LINE
  8
0
 10
162.855
 20
-91.2126
 11
162.735
 21
-90.735
  0
LINE
  8
0
 10
162.735
 20
-90.735
 11
162.674
 21
-90.2462
  0
LINE
  8
0
 10
162.674
 20
-90.2462
 11
162.674
 21
-89.7538
  0
LINE
  8
0
 10
162.674
 20
-89.7538
 11
162.735
 21
-89.265
  0
LINE
  8
0
 10
162.735
 20
-89.265
 11
162.855
 21
-88.7874
  0
LINE
  8
0
 10
162.855
 20
-88.7874
 11
163.033
 21
-88.3282
  0
LINE
  8
0
 10
163.033
 20
-88.3282
 11
163.266
 21
-87.8943
  0
LINE
  8
0
 10
163.266
 20
-87.8943
 11
163.55
 21
-87.4923
  0
LINE
  8
0
 10
163.55
 20
-87.4923
 11
163.882
 21
-87.1283
  0
LINE
  8
0
 10
163.882
 20
-87.1283
 11
164.256
 21
-86.8079
  0
LINE
  8
0
 10
164.256
 20
-86.8079
 11
164.667
 21
-86.5359
  0
LINE
  8
0
 10
164.667
 20
-86.5359
 11
165.108
 21
-86.3164
  0
LINE
  8
0
 10
165.108
 20
-86.3164
 11
165.572
 21
-86.1527
  0
LINE
  8
0
 10
165.572
 20
-86.1527
 11
166.053
 21
-86.0473
  0
LINE
  8
0
 10
166.053
 20
-86.0473
 11
166.543
 21
-86.0019
  0
LINE
  8
0
 10
166.543
 20
-86.0019
 11
167.036
 21
-86.0171
  0
LINE
  8
0
 10
167.036
 20
-86.0171
 11
167.522
 21
-86.0926
  0
LINE
  8
0
 10
167.522
 20
-86.0926
 11
167.996
 21
-86.2274
  0
LINE
  8
0
 10
167.996
 20
-86.2274
 11
168.45
 21
-86.4193
  0
LINE
  8
0
 10
168.45
 20
-86.4193
 11
168.876
 21
-86.6656
  0
LINE
  8
0
 10
168.876
 20
-86.6656
 11
169.269
 21
-86.9624
  0
LINE
  8
0
 10
169.269
 20
-86.9624
 11
169.623
 21
-87.3052
  0
LINE
  8
0
 10
169.623
 20
-87.3052
 11
169.931
 21
-87.6889
  0
LINE
  8
0
 10
169.931
 20
-87.6889
 11
170.191
 21
-88.1076
  0
LINE
  8
0
 10
170.191
 20
-88.1076
 11
170.397
 21
-88.555
  0
LINE
  8
0
 10
170.397
 20
-88.555
 11
170.546
 21
-89.0243
  0
LINE
  8
0
 10
170.546
 20
-89.0243
 11
170.636
 21
-89.5084
  0
LINE
  8
0
 10
170.636
 20
-89.5084
 11
170.667
 21
-90
  0
LINE
  8
0
 10
170.667
 20
-90
 11
170.636
 21
-90.4915
  0
LINE
  8
0
 10
170.636
 20
-90.4915
 11
170.546
 21
-90.9756
  0
LINE
  8
0
 10
170.546
 20
-90.9756
 11
170.397
 21
-91.445
  0
LINE
  8
0
 10
170.397
 20
-91.445
 11
170.191
 21
-91.8924
  0
LINE
  8
0
 10
170.191
 20
-91.8924
 11
169.931
 21
-92.3111
  0
LINE
  8
0
 10
169.931
 20
-92.3111
 11
169.623
 21
-92.6948
  0
LINE
  8
0
 10
169.623
 20
-92.6948
 11
169.269
 21
-93.0376
  0
LINE
  8
0
 10
169.269
 20
-93.0376
 11
168.876
 21
-93.3344
  0
LINE
  8
0
 10
168.876
 20
-93.3344
 11
168.45
 21
-93.5806
  0
LINE
  8
0
 10
168.45
 20
-93.5806
 11
167.996
 21
-93.7726
  0
LINE
  8
0
 10
167.996
 20
-93.7726
 11
167.522
 21
-93.9074
  0
LINE
  8
0
 10
167.522
 20
-93.9074
 11
167.036
 21
-93.9829
  0
LINE
  8
0
 10
167.036
 20
-93.9829
 11
166.543
 21
-93.9981
  0
LINE
  8
0
 10
166.543
 20
-93.9981
 11
166.053
 21
-93.9527
  0
LINE
  8
0
 10
457.3
 20
-162.7
 11
42.7
 21
-162.7
  0
LINE
  8
0
 10
42.7
 20
-162.7
 11
42.7
 21
-400
  0
LINE
  8
0
 10
42.7
 20
-400
 11
457.3
 21
-400
  0
LINE
  8
0
 10
457.3
 20
-400
 11
457.3
 21
-162.7
  0
LINE
  8
0
 10
341.731
 20
-177.574
 11
341.317
 21
-177.304
  0
LINE
  8
0
 10
341.317
 20
-177.304
 11
341.014
 21
-176.914
  0
LINE
  8
0
 10
341.014
 20
-176.914
 11
340.854
 21
-176.447
  0
LINE
  8
0
 10
340.854
 20
-176.447
 11
340.854
 21
-175.953
  0
LINE
  8
0
 10
340.854
 20
-175.953
 11
341.014
 21
-175.486
  0
LINE
  8
0
 10
341.014
 20
-175.486
 11
341.317
 21
-175.096
  0
LINE
  8
0
 10
341.317
 20
-175.096
 11
341.731
 21
-174.826
  0
LINE
  8
0
 10
341.731
 20
-174.826
 11
342.209
 21
-174.705
  0
LINE
  8
0
 10
342.209
 20
-174.705
 11
342.702
 21
-174.746
  0
LINE
  8
0
 10
342.702
 20
-174.746
 11
343.154
 21
-174.944
  0
LINE
  8
0
 10
343.154
 20
-174.944
 11
343.517
 21
-175.279
  0
LINE
  8
0
 10
343.517
 20
-175.279
 11
343.752
 21
-175.713
  0
LINE
  8
0
 10
343.752
 20
-175.713
 11
343.833
 21
-176.2
  0
LINE
  8
0
 10
343.833
 20
-176.2
 11
343.752
 21
-176.687
  0
LINE
  8
0
 10
343.752
 20
-176.687
 11
343.517
 21
-177.121
  0
LINE
  8
0
 10
343.517
 20
-177.121
 11
343.154
 21
-177.456
  0
LINE
  8
0
 10
343.154
 20
-177.456
 11
342.702
 21
-177.654
  0
LINE
  8
0
 10
342.702
 20
-177.654
 11
342.209
 21
-177.695
  0
LINE
  8
0
 10
342.209
 20
-177.695
 11
341.731
 21
-177.574
  0
LINE
  8
0
 10
157.064
 20
-177.574
 11
156.651
 21
-177.304
  0
LINE
  8
0
 10
156.651
 20
-177.304
 11
156.347
 21
-176.914
  0
LINE
  8
0
 10
156.347
 20
-176.914
 11
156.187
 21
-176.447
  0
LINE
  8
0
 10
156.187
 20
-176.447
 11
156.187
 21
-175.953
  0
LINE
  8
0
 10
156.187
 20
-175.953
 11
156.347
 21
-175.486
  0
LINE
  8
0
 10
156.347
 20
-175.486
 11
156.651
 21
-175.096
  0
LINE
  8
0
 10
156.651
 20
-175.096
 11
157.064
 21
-174.826
  0
LINE
  8
0
 10
157.064
 20
-174.826
 11
157.543
 21
-174.705
  0
LINE
  8
0
 10
157.543
 20
-174.705
 11
158.035
 21
-174.746
  0
LINE
  8
0
 10
158.035
 20
-174.746
 11
158.487
 21
-174.944
  0
LINE
  8
0
 10
158.487
 20
-174.944
 11
158.85
 21
-175.279
  0
LINE
  8
0
 10
158.85
 20
-175.279
 11
159.085
 21
-175.713
  0
LINE
  8
0
 10
159.085
 20
-175.713
 11
159.167
 21
-176.2
  0
LINE
  8
0
 10
159.167
 20
-176.2
 11
159.085
 21
-176.687
  0
LINE
  8
0
 10
159.085
 20
-176.687
 11
158.85
 21
-177.121
  0
LINE
  8
0
 10
158.85
 20
-177.121
 11
158.487
 21
-177.456
  0
LINE
  8
0
 10
158.487
 20
-177.456
 11
158.035
 21
-177.654
  0
LINE
  8
0
 10
158.035
 20
-177.654
 11
157.543
 21
-177.695
  0
LINE
  8
0
 10
157.543
 20
-177.695
 11
157.064
 21
-177.574
  0
LINE
  8
0
 10
175.064
 20
-177.574
 11
174.651
 21
-177.304
  0
LINE
  8
0
 10
174.651
 20
-177.304
 11
174.347
 21
-176.914
  0
LINE
  8
0
 10
174.347
 20
-176.914
 11
174.187
 21
-176.447
  0
LINE
  8
0
 10
174.187
 20
-176.447
 11
174.187
 21
-175.953
  0
LINE
  8
0
 10
174.187
 20
-175.953
 11
174.347
 21
-175.486
  0
LINE
  8
0
 10
174.347
 20
-175.486
 11
174.651
 21
-175.096
  0
LINE
  8
0
 10
174.651
 20
-175.096
 11
175.064
 21
-174.826
  0
LINE
  8
0
 10
175.064
 20
-174.826
 11
175.543
 21
-174.705
  0
LINE
  8
0
 10
175.543
 20
-174.705
 11
176.035
 21
-174.746
  0
LINE
  8
0
 10
176.035
 20
-174.746
 11
176.487
 21
-174.944
  0
LINE
  8
0
 10
176.487
 20
-174.944
 11
176.85
 21
-175.279
  0
LINE
  8
0
 10
176.85
 20
-175.279
 11
177.085
 21
-175.713
  0
LINE
  8
0
 10
177.085
 20
-175.713
 11
177.167
 21
-176.2
  0
LINE
  8
0
 10
177.167
 20
-176.2
 11
177.085
 21
-176.687
  0
LINE
  8
0
 10
177.085
 20
-176.687
 11
176.85
 21
-177.121
  0
LINE
  8
0
 10
176.85
 20
-177.121
 11
176.487
 21
-177.456
  0
LINE
  8
0
 10
176.487
 20
-177.456
 11
176.035
 21
-177.654
  0
LINE
  8
0
 10
176.035
 20
-177.654
 11
175.543
 21
-177.695
  0
LINE
  8
0
 10
175.543
 20
-177.695
 11
175.064
 21
-177.574
  0
LINE
  8
0
 10
323.731
 20
-177.574
 11
323.317
 21
-177.304
  0
LINE
  8
0
 10
323.317
 20
-177.304
 11
323.014
 21
-176.914
  0
LINE
  8
0
 10
323.014
 20
-176.914
 11
322.854
 21
-176.447
  0
LINE
  8
0
 10
322.854
 20
-176.447
 11
322.854
 21
-175.953
  0
LINE
  8
0
 10
322.854
 20
-175.953
 11
323.014
 21
-175.486
  0
LINE
  8
0
 10
323.014
 20
-175.486
 11
323.317
 21
-175.096
  0
LINE
  8
0
 10
323.317
 20
-175.096
 11
323.731
 21
-174.826
  0
LINE
  8
0
 10
323.731
 20
-174.826
 11
324.209
 21
-174.705
  0
LINE
  8
0
 10
324.209
 20
-174.705
 11
324.702
 21
-174.746
  0
LINE
  8
0
 10
324.702
 20
-174.746
 11
325.154
 21
-174.944
  0
LINE
  8
0
 10
325.154
 20
-174.944
 11
325.517
 21
-175.279
  0
LINE
  8
0
 10
325.517
 20
-175.279
 11
325.752
 21
-175.713
  0
LINE
  8
0
 10
325.752
 20
-175.713
 11
325.833
 21
-176.2
  0
LINE
  8
0
 10
325.833
 20
-176.2
 11
325.752
 21
-176.687
  0
LINE
  8
0
 10
325.752
 20
-176.687
 11
325.517
 21
-177.121
  0
LINE
  8
0
 10
325.517
 20
-177.121
 11
325.154
 21
-177.456
  0
LINE
  8
0
 10
325.154
 20
-177.456
 11
324.702
 21
-177.654
  0
LINE
  8
0
 10
324.702
 20
-177.654
 11
324.209
 21
-177.695
  0
LINE
  8
0
 10
324.209
 20
-177.695
 11
323.731
 21
-177.574
  0
LINE
  8
0
 10
323.731
 20
-194.574
 11
323.317
 21
-194.304
  0
LINE
  8
0
 10
323.317
 20
-194.304
 11
323.014
 21
-193.914
  0
LINE
  8
0
 10
323.014
 20
-193.914
 11
322.854
 21
-193.447
  0
LINE
  8
0
 10
322.854
 20
-193.447
 11
322.854
 21
-192.953
  0
LINE
  8
0
 10
322.854
 20
-192.953
 11
323.014
 21
-192.486
  0
LINE
  8
0
 10
323.014
 20
-192.486
 11
323.317
 21
-192.096
  0
LINE
  8
0
 10
323.317
 20
-192.096
 11
323.731
 21
-191.826
  0
LINE
  8
0
 10
323.731
 20
-191.826
 11
324.209
 21
-191.705
  0
LINE
  8
0
 10
324.209
 20
-191.705
 11
324.702
 21
-191.746
  0
LINE
  8
0
 10
324.702
 20
-191.746
 11
325.154
 21
-191.944
  0
LINE
  8
0
 10
325.154
 20
-191.944
 11
325.517
 21
-192.279
  0
LINE
  8
0
 10
325.517
 20
-192.279
 11
325.752
 21
-192.713
  0
LINE
  8
0
 10
325.752
 20
-192.713
 11
325.833
 21
-193.2
  0
LINE
  8
0
 10
325.833
 20
-193.2
 11
325.752
 21
-193.687
  0
LINE
  8
0
 10
325.752
 20
-193.687
 11
325.517
 21
-194.121
  0
LINE
  8
0
 10
325.517
 20
-194.121
 11
325.154
 21
-194.456
  0
LINE
  8
0
 10
325.154
 20
-194.456
 11
324.702
 21
-194.654
  0
LINE
  8
0
 10
324.702
 20
-194.654
 11
324.209
 21
-194.695
  0
LINE
  8
0
 10
324.209
 20
-194.695
 11
323.731
 21
-194.574
  0
LINE
  8
0
 10
157.064
 20
-194.574
 11
156.651
 21
-194.304
  0
LINE
  8
0
 10
156.651
 20
-194.304
 11
156.347
 21
-193.914
  0
LINE
  8
0
 10
156.347
 20
-193.914
 11
156.187
 21
-193.447
  0
LINE
  8
0
 10
156.187
 20
-193.447
 11
156.187
 21
-192.953
  0
LINE
  8
0
 10
156.187
 20
-192.953
 11
156.347
 21
-192.486
  0
LINE
  8
0
 10
156.347
 20
-192.486
 11
156.651
 21
-192.096
  0
LINE
  8
0
 10
156.651
 20
-192.096
 11
157.064
 21
-191.826
  0
LINE
  8
0
 10
157.064
 20
-191.826
 11
157.543
 21
-191.705
  0
LINE
  8
0
 10
157.543
 20
-191.705
 11
158.035
 21
-191.746
  0
LINE
  8
0
 10
158.035
 20
-191.746
 11
158.487
 21
-191.944
  0
LINE
  8
0
 10
158.487
 20
-191.944
 11
158.85
 21
-192.279
  0
LINE
  8
0
 10
158.85
 20
-192.279
 11
159.085
 21
-192.713
  0
LINE
  8
0
 10
159.085
 20
-192.713
 11
159.167
 21
-193.2
  0
LINE
  8
0
 10
159.167
 20
-193.2
 11
159.085
 21
-193.687
  0
LINE
  8
0
 10
159.085
 20
-193.687
 11
158.85
 21
-194.121
  0
LINE
  8
0
 10
158.85
 20
-194.121
 11
158.487
 21
-194.456
  0
LINE
  8
0
 10
158.487
 20
-194.456
 11
158.035
 21
-194.654
  0
LINE
  8
0
 10
158.035
 20
-194.654
 11
157.543
 21
-194.695
  0
LINE
  8
0
 10
157.543
 20
-194.695
 11
157.064
 21
-194.574
  0
LINE
  8
0
 10
341.731
 20
-194.574
 11
341.317
 21
-194.304
  0
LINE
  8
0
 10
341.317
 20
-194.304
 11
341.014
 21
-193.914
  0
LINE
  8
0
 10
341.014
 20
-193.914
 11
340.854
 21
-193.447
  0
LINE
  8
0
 10
340.854
 20
-193.447
 11
340.854
 21
-192.953
  0
LINE
  8
0
 10
340.854
 20
-192.953
 11
341.014
 21
-192.486
  0
LINE
  8
0
 10
341.014
 20
-192.486
 11
341.317
 21
-192.096
  0
LINE
  8
0
 10
341.317
 20
-192.096
 11
341.731
 21
-191.826
  0
LINE
  8
0
 10
341.731
 20
-191.826
 11
342.209
 21
-191.705
  0
LINE
  8
0
 10
342.209
 20
-191.705
 11
342.702
 21
-191.746
  0
LINE
  8
0
 10
342.702
 20
-191.746
 11
343.154
 21
-191.944
  0
LINE
  8
0
 10
343.154
 20
-191.944
 11
343.517
 21
-192.279
  0
LINE
  8
0
 10
343.517
 20
-192.279
 11
343.752
 21
-192.713
  0
LINE
  8
0
 10
343.752
 20
-192.713
 11
343.833
 21
-193.2
  0
LINE
  8
0
 10
343.833
 20
-193.2
 11
343.752
 21
-193.687
  0
LINE
  8
0
 10
343.752
 20
-193.687
 11
343.517
 21
-194.121
  0
LINE
  8
0
 10
343.517
 20
-194.121
 11
343.154
 21
-194.456
  0
LINE
  8
0
 10
343.154
 20
-194.456
 11
342.702
 21
-194.654
  0
LINE
  8
0
 10
342.702
 20
-194.654
 11
342.209
 21
-194.695
  0
LINE
  8
0
 10
342.209
 20
-194.695
 11
341.731
 21
-194.574
  0
LINE
  8
0
 10
175.064
 20
-194.574
 11
174.651
 21
-194.304
  0
LINE
  8
0
 10
174.651
 20
-194.304
 11
174.347
 21
-193.914
  0
LINE
  8
0
 10
174.347
 20
-193.914
 11
174.187
 21
-193.447
  0
LINE
  8
0
 10
174.187
 20
-193.447
 11
174.187
 21
-192.953
  0
LINE
  8
0
 10
174.187
 20
-192.953
 11
174.347
 21
-192.486
  0
LINE
  8
0
 10
174.347
 20
-192.486
 11
174.651
 21
-192.096
  0
LINE
  8
0
 10
174.651
 20
-192.096
 11
175.064
 21
-191.826
  0
LINE
  8
0
 10
175.064
 20
-191.826
 11
175.543
 21
-191.705
  0
LINE
  8
0
 10
175.543
 20
-191.705
 11
176.035
 21
-191.746
  0
LINE
  8
0
 10
176.035
 20
-191.746
 11
176.487
 21
-191.944
  0
LINE
  8
0
 10
176.487
 20
-191.944
 11
176.85
 21
-192.279
  0
LINE
  8
0
 10
176.85
 20
-192.279
 11
177.085
 21
-192.713
  0
LINE
  8
0
 10
177.085
 20
-192.713
 11
177.167
 21
-193.2
  0
LINE
  8
0
 10
177.167
 20
-193.2
 11
177.085
 21
-193.687
  0
LINE
  8
0
 10
177.085
 20
-193.687
 11
176.85
 21
-194.121
  0
LINE
  8
0
 10
176.85
 20
-194.121
 11
176.487
 21
-194.456
  0
LINE
  8
0
 10
176.487
 20
-194.456
 11
176.035
 21
-194.654
  0
LINE
  8
0
 10
176.035
 20
-194.654
 11
175.543
 21
-194.695
  0
LINE
  8
0
 10
175.543
 20
-194.695
 11
175.064
 21
-194.574
  0
LINE
  8
0
 10
241.259
 20
-283.335
 11
240.791
 21
-283.22
  0
LINE
  8
0
 10
240.791
 20
-283.22
 11
240.364
 21
-282.996
  0
LINE
  8
0
 10
240.364
 20
-282.996
 11
240.003
 21
-282.676
  0
LINE
  8
0
 10
240.003
 20
-282.676
 11
239.729
 21
-282.279
  0
LINE
  8
0
 10
239.729
 20
-282.279
 11
239.558
 21
-281.829
  0
LINE
  8
0
 10
239.558
 20
-281.829
 11
239.5
 21
-281.35
  0
LINE
  8
0
 10
239.5
 20
-281.35
 11
239.558
 21
-280.871
  0
LINE
  8
0
 10
239.558
 20
-280.871
 11
239.729
 21
-280.421
  0
LINE
  8
0
 10
239.729
 20
-280.421
 11
240.003
 21
-280.024
  0
LINE
  8
0
 10
240.003
 20
-280.024
 11
240.364
 21
-279.704
  0
LINE
  8
0
 10
240.364
 20
-279.704
 11
240.791
 21
-279.48
  0
LINE
  8
0
 10
240.791
 20
-279.48
 11
241.259
 21
-279.365
  0
LINE
  8
0
 10
241.259
 20
-279.365
 11
241.741
 21
-279.365
  0
LINE
  8
0
 10
241.741
 20
-279.365
 11
242.209
 21
-279.48
  0
LINE
  8
0
 10
242.209
 20
-279.48
 11
242.636
 21
-279.704
  0
LINE
  8
0
 10
242.636
 20
-279.704
 11
242.997
 21
-280.024
  0
LINE
  8
0
 10
242.997
 20
-280.024
 11
243.271
 21
-280.421
  0
LINE
  8
0
 10
243.271
 20
-280.421
 11
243.442
 21
-280.871
  0
LINE
  8
0
 10
243.442
 20
-280.871
 11
243.5
 21
-281.35
  0
LINE
  8
0
 10
243.5
 20
-281.35
 11
243.442
 21
-281.829
  0
LINE
  8
0
 10
243.442
 20
-281.829
 11
243.271
 21
-282.279
  0
LINE
  8
0
 10
243.271
 20
-282.279
 11
242.997
 21
-282.676
  0
LINE
  8
0
 10
242.997
 20
-282.676
 11
242.636
 21
-282.996
  0
LINE
  8
0
 10
242.636
 20
-282.996
 11
242.209
 21
-283.22
  0
LINE
  8
0
 10
242.209
 20
-283.22
 11
241.741
 21
-283.335
  0
LINE
  8
0
 10
241.741
 20
-283.335
 11
241.259
 21
-283.335
  0
LINE
  8
0
 10
258.259
 20
-283.335
 11
257.791
 21
-283.22
  0
LINE
  8
0
 10
257.791
 20
-283.22
 11
257.364
 21
-282.996
  0
LINE
  8
0
 10
257.364
 20
-282.996
 11
257.003
 21
-282.676
  0
LINE
  8
0
 10
257.003
 20
-282.676
 11
256.729
 21
-282.279
  0
LINE
  8
0
 10
256.729
 20
-282.279
 11
256.558
 21
-281.829
  0
LINE
  8
0
 10
256.558
 20
-281.829
 11
256.5
 21
-281.35
  0
LINE
  8
0
 10
256.5
 20
-281.35
 11
256.558
 21
-280.871
  0
LINE
  8
0
 10
256.558
 20
-280.871
 11
256.729
 21
-280.421
  0
LINE
  8
0
 10
256.729
 20
-280.421
 11
257.003
 21
-280.024
  0
LINE
  8
0
 10
257.003
 20
-280.024
 11
257.364
 21
-279.704
  0
LINE
  8
0
 10
257.364
 20
-279.704
 11
257.791
 21
-279.48
  0
LINE
  8
0
 10
257.791
 20
-279.48
 11
258.259
 21
-279.365
  0
LINE
  8
0
 10
258.259
 20
-279.365
 11
258.741
 21
-279.365
  0
LINE
  8
0
 10
258.741
 20
-279.365
 11
259.209
 21
-279.48
  0
LINE
  8
0
 10
259.209
 20
-279.48
 11
259.636
 21
-279.704
  0
LINE
  8
0
 10
259.636
 20
-279.704
 11
259.997
 21
-280.024
  0
LINE
  8
0
 10
259.997
 20
-280.024
 11
260.271
 21
-280.421
  0
LINE
  8
0
 10
260.271
 20
-280.421
 11
260.442
 21
-280.871
  0
LINE
  8
0
 10
260.442
 20
-280.871
 11
260.5
 21
-281.35
  0
LINE
  8
0
 10
260.5
 20
-281.35
 11
260.442
 21
-281.829
  0
LINE
  8
0
 10
260.442
 20
-281.829
 11
260.271
 21
-282.279
  0
LINE
  8
0
 10
260.271
 20
-282.279
 11
259.997
 21
-282.676
  0
LINE
  8
0
 10
259.997
 20
-282.676
 11
259.636
 21
-282.996
  0
LINE
  8
0
 10
259.636
 20
-282.996
 11
259.209
 21
-283.22
  0
LINE
  8
0
 10
259.209
 20
-283.22
 11
258.741
 21
-283.335
  0
LINE
  8
0
 10
258.741
 20
-283.335
 11
258.259
 21
-283.335
  0
LINE
  8
0
 10
323.731
 20
-370.874
 11
323.317
 21
-370.604
  0
LINE
  8
0
 10
323.317
 20
-370.604
 11
323.014
 21
-370.214
  0
LINE
  8
0
 10
323.014
 20
-370.214
 11
322.854
 21
-369.747
  0
LINE
  8
0
 10
322.854
 20
-369.747
 11
322.854
 21
-369.253
  0
LINE
  8
0
 10
322.854
 20
-369.253
 11
323.014
 21
-368.786
  0
LINE
  8
0
 10
323.014
 20
-368.786
 11
323.317
 21
-368.396
  0
LINE
  8
0
 10
323.317
 20
-368.396
 11
323.731
 21
-368.126
  0
LINE
  8
0
 10
323.731
 20
-368.126
 11
324.209
 21
-368.005
  0
LINE
  8
0
 10
324.209
 20
-368.005
 11
324.702
 21
-368.046
  0
LINE
  8
0
 10
324.702
 20
-368.046
 11
325.154
 21
-368.244
  0
LINE
  8
0
 10
325.154
 20
-368.244
 11
325.517
 21
-368.579
  0
LINE
  8
0
 10
325.517
 20
-368.579
 11
325.752
 21
-369.013
  0
LINE
  8
0
 10
325.752
 20
-369.013
 11
325.833
 21
-369.5
  0
LINE
  8
0
 10
325.833
 20
-369.5
 11
325.752
 21
-369.987
  0
LINE
  8
0
 10
325.752
 20
-369.987
 11
325.517
 21
-370.421
  0
LINE
  8
0
 10
325.517
 20
-370.421
 11
325.154
 21
-370.756
  0
LINE
  8
0
 10
325.154
 20
-370.756
 11
324.702
 21
-370.954
  0
LINE
  8
0
 10
324.702
 20
-370.954
 11
324.209
 21
-370.995
  0
LINE
  8
0
 10
324.209
 20
-370.995
 11
323.731
 21
-370.874
  0
LINE
  8
0
 10
341.731
 20
-370.874
 11
341.317
 21
-370.604
  0
LINE
  8
0
 10
341.317
 20
-370.604
 11
341.014
 21
-370.214
  0
LINE
  8
0
 10
341.014
 20
-370.214
 11
340.854
 21
-369.747
  0
LINE
  8
0
 10
340.854
 20
-369.747
 11
340.854
 21
-369.253
  0
LINE
  8
0
 10
340.854
 20
-369.253
 11
341.014
 21
-368.786
  0
LINE
  8
0
 10
341.014
 20
-368.786
 11
341.317
 21
-368.396
  0
LINE
  8
0
 10
341.317
 20
-368.396
 11
341.731
 21
-368.126
  0
LINE
  8
0
 10
341.731
 20
-368.126
 11
342.209
 21
-368.005
  0
LINE
  8
0
 10
342.209
 20
-368.005
 11
342.702
 21
-368.046
  0
LINE
  8
0
 10
342.702
 20
-368.046
 11
343.154
 21
-368.244
  0
LINE
  8
0
 10
343.154
 20
-368.244
 11
343.517
 21
-368.579
  0
LINE
  8
0
 10
343.517
 20
-368.579
 11
343.752
 21
-369.013
  0
LINE
  8
0
 10
343.752
 20
-369.013
 11
343.833
 21
-369.5
  0
LINE
  8
0
 10
343.833
 20
-369.5
 11
343.752
 21
-369.987
  0
LINE
  8
0
 10
343.752
 20
-369.987
 11
343.517
 21
-370.421
  0
LINE
  8
0
 10
343.517
 20
-370.421
 11
343.154
 21
-370.756
  0
LINE
  8
0
 10
343.154
 20
-370.756
 11
342.702
 21
-370.954
  0
LINE
  8
0
 10
342.702
 20
-370.954
 11
342.209
 21
-370.995
  0
LINE
  8
0
 10
342.209
 20
-370.995
 11
341.731
 21
-370.874
  0
LINE
  8
0
 10
157.064
 20
-370.874
 11
156.651
 21
-370.604
  0
LINE
  8
0
 10
156.651
 20
-370.604
 11
156.347
 21
-370.214
  0
LINE
  8
0
 10
156.347
 20
-370.214
 11
156.187
 21
-369.747
  0
LINE
  8
0
 10
156.187
 20
-369.747
 11
156.187
 21
-369.253
  0
LINE
  8
0
 10
156.187
 20
-369.253
 11
156.347
 21
-368.786
  0
LINE
  8
0
 10
156.347
 20
-368.786
 11
156.651
 21
-368.396
  0
LINE
  8
0
 10
156.651
 20
-368.396
 11
157.064
 21
-368.126
  0
LINE
  8
0
 10
157.064
 20
-368.126
 11
157.543
 21
-368.005
  0
LINE
  8
0
 10
157.543
 20
-368.005
 11
158.035
 21
-368.046
  0
LINE
  8
0
 10
158.035
 20
-368.046
 11
158.487
 21
-368.244
  0
LINE
  8
0
 10
158.487
 20
-368.244
 11
158.85
 21
-368.579
  0
LINE
  8
0
 10
158.85
 20
-368.579
 11
159.085
 21
-369.013
  0
LINE
  8
0
 10
159.085
 20
-369.013
 11
159.167
 21
-369.5
  0
LINE
  8
0
 10
159.167
 20
-369.5
 11
159.085
 21
-369.987
  0
LINE
  8
0
 10
159.085
 20
-369.987
 11
158.85
 21
-370.421
  0
LINE
  8
0
 10
158.85
 20
-370.421
 11
158.487
 21
-370.756
  0
LINE
  8
0
 10
158.487
 20
-370.756
 11
158.035
 21
-370.954
  0
LINE
  8
0
 10
158.035
 20
-370.954
 11
157.543
 21
-370.995
  0
LINE
  8
0
 10
157.543
 20
-370.995
 11
157.064
 21
-370.874
  0
LINE
  8
0
 10
175.064
 20
-370.874
 11
174.651
 21
-370.604
  0
LINE
  8
0
 10
174.651
 20
-370.604
 11
174.347
 21
-370.214
  0
LINE
  8
0
 10
174.347
 20
-370.214
 11
174.187
 21
-369.747
  0
LINE
  8
0
 10
174.187
 20
-369.747
 11
174.187
 21
-369.253
  0
LINE
  8
0
 10
174.187
 20
-369.253
 11
174.347
 21
-368.786
  0
LINE
  8
0
 10
174.347
 20
-368.786
 11
174.651
 21
-368.396
  0
LINE
  8
0
 10
174.651
 20
-368.396
 11
175.064
 21
-368.126
  0
LINE
  8
0
 10
175.064
 20
-368.126
 11
175.543
 21
-368.005
  0
LINE
  8
0
 10
175.543
 20
-368.005
 11
176.035
 21
-368.046
  0
LINE
  8
0
 10
176.035
 20
-368.046
 11
176.487
 21
-368.244
  0
LINE
  8
0
 10
176.487
 20
-368.244
 11
176.85
 21
-368.579
  0
LINE
  8
0
 10
176.85
 20
-368.579
 11
177.085
 21
-369.013
  0
LINE
  8
0
 10
177.085
 20
-369.013
 11
177.167
 21
-369.5
  0
LINE
  8
0
 10
177.167
 20
-369.5
 11
177.085
 21
-369.987
  0
LINE
  8
0
 10
177.085
 20
-369.987
 11
176.85
 21
-370.421
  0
LINE
  8
0
 10
176.85
 20
-370.421
 11
176.487
 21
-370.756
  0
LINE
  8
0
 10
176.487
 20
-370.756
 11
176.035
 21
-370.954
  0
LINE
  8
0
 10
176.035
 20
-370.954
 11
175.543
 21
-370.995
  0
LINE
  8
0
 10
175.543
 20
-370.995
 11
175.064
 21
-370.874
  0
LINE
  8
0
 10
323.731
 20
-387.874
 11
323.317
 21
-387.604
  0
LINE
  8
0
 10
323.317
 20
-387.604
 11
323.014
 21
-387.214
  0
LINE
  8
0
 10
323.014
 20
-387.214
 11
322.854
 21
-386.747
  0
LINE
  8
0
 10
322.854
 20
-386.747
 11
322.854
 21
-386.253
  0
LINE
  8
0
 10
322.854
 20
-386.253
 11
323.014
 21
-385.786
  0
LINE
  8
0
 10
323.014
 20
-385.786
 11
323.317
 21
-385.396
  0
LINE
  8
0
 10
323.317
 20
-385.396
 11
323.731
 21
-385.126
  0
LINE
  8
0
 10
323.731
 20
-385.126
 11
324.209
 21
-385.005
  0
LINE
  8
0
 10
324.209
 20
-385.005
 11
324.702
 21
-385.046
  0
LINE
  8
0
 10
324.702
 20
-385.046
 11
325.154
 21
-385.244
  0
LINE
  8
0
 10
325.154
 20
-385.244
 11
325.517
 21
-385.579
  0
LINE
  8
0
 10
325.517
 20
-385.579
 11
325.752
 21
-386.013
  0
LINE
  8
0
 10
325.752
 20
-386.013
 11
325.833
 21
-386.5
  0
LINE
  8
0
 10
325.833
 20
-386.5
 11
325.752
 21
-386.987
  0
LINE
  8
0
 10
325.752
 20
-386.987
 11
325.517
 21
-387.421
  0
LINE
  8
0
 10
325.517
 20
-387.421
 11
325.154
 21
-387.756
  0
LINE
  8
0
 10
325.154
 20
-387.756
 11
324.702
 21
-387.954
  0
LINE
  8
0
 10
324.702
 20
-387.954
 11
324.209
 21
-387.995
  0
LINE
  8
0
 10
324.209
 20
-387.995
 11
323.731
 21
-387.874
  0
LINE
  8
0
 10
157.064
 20
-387.874
 11
156.651
 21
-387.604
  0
LINE
  8
0
 10
156.651
 20
-387.604
 11
156.347
 21
-387.214
  0
LINE
  8
0
 10
156.347
 20
-387.214
 11
156.187
 21
-386.747
  0
LINE
  8
0
 10
156.187
 20
-386.747
 11
156.187
 21
-386.253
  0
LINE
  8
0
 10
156.187
 20
-386.253
 11
156.347
 21
-385.786
  0
LINE
  8
0
 10
156.347
 20
-385.786
 11
156.651
 21
-385.396
  0
LINE
  8
0
 10
156.651
 20
-385.396
 11
157.064
 21
-385.126
  0
LINE
  8
0
 10
157.064
 20
-385.126
 11
157.543
 21
-385.005
  0
LINE
  8
0
 10
157.543
 20
-385.005
 11
158.035
 21
-385.046
  0
LINE
  8
0
 10
158.035
 20
-385.046
 11
158.487
 21
-385.244
  0
LINE
  8
0
 10
158.487
 20
-385.244
 11
158.85
 21
-385.579
  0
LINE
  8
0
 10
158.85
 20
-385.579
 11
159.085
 21
-386.013
  0
LINE
  8
0
 10
159.085
 20
-386.013
 11
159.167
 21
-386.5
  0
LINE
  8
0
 10
159.167
 20
-386.5
 11
159.085
 21
-386.987
  0
LINE
  8
0
 10
159.085
 20
-386.987
 11
158.85
 21
-387.421
  0
LINE
  8
0
 10
158.85
 20
-387.421
 11
158.487
 21
-387.756
  0
LINE
  8
0
 10
158.487
 20
-387.756
 11
158.035
 21
-387.954
  0
LINE
  8
0
 10
158.035
 20
-387.954
 11
157.543
 21
-387.995
  0
LINE
  8
0
 10
157.543
 20
-387.995
 11
157.064
 21
-387.874
  0
LINE
  8
0
 10
341.731
 20
-387.874
 11
341.317
 21
-387.604
  0
LINE
  8
0
 10
341.317
 20
-387.604
 11
341.014
 21
-387.214
  0
LINE
  8
0
 10
341.014
 20
-387.214
 11
340.854
 21
-386.747
  0
LINE
  8
0
 10
340.854
 20
-386.747
 11
340.854
 21
-386.253
  0
LINE
  8
0
 10
340.854
 20
-386.253
 11
341.014
 21
-385.786
  0
LINE
  8
0
 10
341.014
 20
-385.786
 11
341.317
 21
-385.396
  0
LINE
  8
0
 10
341.317
 20
-385.396
 11
341.731
 21
-385.126
  0
LINE
  8
0
 10
341.731
 20
-385.126
 11
342.209
 21
-385.005
  0
LINE
  8
0
 10
342.209
 20
-385.005
 11
342.702
 21
-385.046
  0
LINE
  8
0
 10
342.702
 20
-385.046
 11
343.154
 21
-385.244
  0
LINE
  8
0
 10
343.154
 20
-385.244
 11
343.517
 21
-385.579
  0
LINE
  8
0
 10
343.517
 20
-385.579
 11
343.752
 21
-386.013
  0
LINE
  8
0
 10
343.752
 20
-386.013
 11
343.833
 21
-386.5
  0
LINE
  8
0
 10
343.833
 20
-386.5
 11
343.752
 21
-386.987
  0
LINE
  8
0
 10
343.752
 20
-386.987
 11
343.517
 21
-387.421
  0
LINE
  8
0
 10
343.517
 20
-387.421
 11
343.154
 21
-387.756
  0
LINE
  8
0
 10
343.154
 20
-387.756
 11
342.702
 21
-387.954
  0
LINE
  8
0
 10
342.702
 20
-387.954
 11
342.209
 21
-387.995
  0
LINE
  8
0
 10
342.209
 20
-387.995
 11
341.731
 21
-387.874
  0
LINE
  8
0
 10
175.064
 20
-387.874
 11
174.651
 21
-387.604
  0
LINE
  8
0
 10
174.651
 20
-387.604
 11
174.347
 21
-387.214
  0
LINE
  8
0
 10
174.347
 20
-387.214
 11
174.187
 21
-386.747
  0
LINE
  8
0
 10
174.187
 20
-386.747
 11
174.187
 21
-386.253
  0
LINE
  8
0
 10
174.187
 20
-386.253
 11
174.347
 21
-385.786
  0
LINE
  8
0
 10
174.347
 20
-385.786
 11
174.651
 21
-385.396
  0
LINE
  8
0
 10
174.651
 20
-385.396
 11
175.064
 21
-385.126
  0
LINE
  8
0
 10
175.064
 20
-385.126
 11
175.543
 21
-385.005
  0
LINE
  8
0
 10
175.543
 20
-385.005
 11
176.035
 21
-385.046
  0
LINE
  8
0
 10
176.035
 20
-385.046
 11
176.487
 21
-385.244
  0
LINE
  8
0
 10
176.487
 20
-385.244
 11
176.85
 21
-385.579
  0
LINE
  8
0
 10
176.85
 20
-385.579
 11
177.085
 21
-386.013
  0
LINE
  8
0
 10
177.085
 20
-386.013
 11
177.167
 21
-386.5
  0
LINE
  8
0
 10
177.167
 20
-386.5
 11
177.085
 21
-386.987
  0
LINE
  8
0
 10
177.085
 20
-386.987
 11
176.85
 21
-387.421
  0
LINE
  8
0
 10
176.85
 20
-387.421
 11
176.487
 21
-387.756
  0
LINE
  8
0
 10
176.487
 20
-387.756
 11
176.035
 21
-387.954
  0
LINE
  8
0
 10
176.035
 20
-387.954
 11
175.543
 21
-387.995
  0
LINE
  8
0
 10
175.543
 20
-387.995
 11
175.064
 21
-387.874
  0
ENDSEC
  0
SECTION
  2
OBJECTS
  0
DICTIONARY
  0
ENDSEC
  0
EOF
