  0
SECTION
  2
BLOCKS
  0
ENDSEC
  0
SECTION
  2
ENTITIES
  0
LINE
  8
0
 10
500
 20
1100
 11
0
 21
1100
  0
LINE
  8
0
 10
0
 20
1100
 11
0
 21
600
  0
LINE
  8
0
 10
0
 20
600
 11
500
 21
600
  0
LINE
  8
0
 10
500
 20
600
 11
500
 21
1100
  0
LINE
  8
0
 10
-50
 20
1050
 11
-150
 21
1050
  0
LINE
  8
0
 10
-150
 20
1050
 11
-150
 21
1000
  0
LINE
  8
0
 10
-150
 20
1000
 11
-50
 21
1000
  0
LINE
  8
0
 10
-50
 20
1000
 11
-50
 21
1050
  0
LINE
  8
0
 10
-100.691
 20
1014.02
 11
-102.061
 21
1014.19
  0
LINE
  8
0
 10
-102.061
 20
1014.19
 11
-103.399
 21
1014.54
  0
LINE
  8
0
 10
-103.399
 20
1014.54
 11
-104.684
 21
1015.05
  0
LINE
  8
0
 10
-104.684
 20
1015.05
 11
-105.894
 21
1015.71
  0
LINE
  8
0
 10
-105.894
 20
1015.71
 11
-107.012
 21
1016.52
  0
LINE
  8
0
 10
-107.012
 20
1016.52
 11
-108.019
 21
1017.47
  0
LINE
  8
0
 10
-108.019
 20
1017.47
 11
-108.899
 21
1018.53
  0
LINE
  8
0
 10
-108.899
 20
1018.53
 11
-109.639
 21
1019.7
  0
LINE
  8
0
 10
-109.639
 20
1019.7
 11
-110.228
 21
1020.95
  0
LINE
  8
0
 10
-110.228
 20
1020.95
 11
-110.654
 21
1022.26
  0
LINE
  8
0
 10
-110.654
 20
1022.26
 11
-110.913
 21
1023.62
  0
LINE
  8
0
 10
-110.913
 20
1023.62
 11
-111
 21
1025
  0
LINE
  8
0
 10
-111
 20
1025
 11
-110.913
 21
1026.38
  0
LINE
  8
0
 10
-110.913
 20
1026.38
 11
-110.654
 21
1027.74
  0
LINE
  8
0
 10
-110.654
 20
1027.74
 11
-110.228
 21
1029.05
  0
LINE
  8
0
 10
-110.228
 20
1029.05
 11
-109.639
 21
1030.3
  0
LINE
  8
0
 10
-109.639
 20
1030.3
 11
-108.899
 21
1031.47
  0
LINE
  8
0
 10
-108.899
 20
1031.47
 11
-108.019
 21
1032.53
  0
LINE
  8
0
 10
-108.019
 20
1032.53
 11
-107.012
 21
1033.48
  0
LINE
  8
0
 10
-107.012
 20
1033.48
 11
-105.894
 21
1034.29
  0
LINE
  8
0
 10
-105.894
 20
1034.29
 11
-104.684
 21
1034.95
  0
LINE
  8
0
 10
-104.684
 20
1034.95
 11
-103.399
 21
1035.46
  0
LINE
  8
0
 10
-103.399
 20
1035.46
 11
-102.061
 21
1035.81
  0
LINE
  8
0
 10
-102.061
 20
1035.81
 11
-100.691
 21
1035.98
  0
LINE
  8
0
 10
-100.691
 20
1035.98
 11
-99.3093
 21
1035.98
  0
LINE
  8
0
 10
-99.3093
 20
1035.98
 11
-97.9388
 21
1035.81
  0
LINE
  8
0
 10
-97.9388
 20
1035.81
 11
-96.6008
 21
1035.46
  0
LINE
  8
0
 10
-96.6008
 20
1035.46
 11
-95.3164
 21
1034.95
  0
LINE
  8
0
 10
-95.3164
 20
1034.95
 11
-94.1059
 21
1034.29
  0
LINE
  8
0
 10
-94.1059
 20
1034.29
 11
-92.9883
 21
1033.48
  0
LINE
  8
0
 10
-92.9883
 20
1033.48
 11
-91.9813
 21
1032.53
  0
LINE
  8
0
 10
-91.9813
 20
1032.53
 11
-91.1008
 21
1031.47
  0
LINE
  8
0
 10
-91.1008
 20
1031.47
 11
-90.3606
 21
1030.3
  0
LINE
  8
0
 10
-90.3606
 20
1030.3
 11
-89.7725
 21
1029.05
  0
LINE
  8
0
 10
-89.7725
 20
1029.05
 11
-89.3456
 21
1027.74
  0
LINE
  8
0
 10
-89.3456
 20
1027.74
 11
-89.0867
 21
1026.38
  0
LINE
  8
0
 10
-89.0867
 20
1026.38
 11
-89
 21
1025
  0
LINE
  8
0
 10
-89
 20
1025
 11
-89.0867
 21
1023.62
  0
LINE
  8
0
 10
-89.0867
 20
1023.62
 11
-89.3456
 21
1022.26
  0
LINE
  8
0
 10
-89.3456
 20
1022.26
 11
-89.7725
 21
1020.95
  0
LINE
  8
0
 10
-89.7725
 20
1020.95
 11
-90.3606
 21
1019.7
  0
LINE
  8
0
 10
-90.3606
 20
1019.7
 11
-91.1008
 21
1018.53
  0
LINE
  8
0
 10
-91.1008
 20
1018.53
 11
-91.9813
 21
1017.47
  0
LINE
  8
0
 10
-91.9813
 20
1017.47
 11
-92.9883
 21
1016.52
  0
LINE
  8
0
 10
-92.9883
 20
1016.52
 11
-94.1059
 21
1015.71
  0
LINE
  8
0
 10
-94.1059
 20
1015.71
 11
-95.3164
 21
1015.05
  0
LINE
  8
0
 10
-95.3164
 20
1015.05
 11
-96.6008
 21
1014.54
  0
LINE
  8
0
 10
-96.6008
 20
1014.54
 11
-97.9388
 21
1014.19
  0
LINE
  8
0
 10
-97.9388
 20
1014.19
 11
-99.3093
 21
1014.02
  0
LINE
  8
0
 10
-99.3093
 20
1014.02
 11
-100.691
 21
1014.02
  0
LINE
  8
0
 10
-70.2512
 20
1021.01
 11
-70.7495
 21
1021.07
  0
LINE
  8
0
 10
-70.7495
 20
1021.07
 11
-71.2361
 21
1021.2
  0
LINE
  8
0
 10
-71.2361
 20
1021.2
 11
-71.7031
 21
1021.38
  0
LINE
  8
0
 10
-71.7031
 20
1021.38
 11
-72.1433
 21
1021.62
  0
LINE
  8
0
 10
-72.1433
 20
1021.62
 11
-72.5497
 21
1021.92
  0
LINE
  8
0
 10
-72.5497
 20
1021.92
 11
-72.9159
 21
1022.26
  0
LINE
  8
0
 10
-72.9159
 20
1022.26
 11
-73.2361
 21
1022.65
  0
LINE
  8
0
 10
-73.2361
 20
1022.65
 11
-73.5052
 21
1023.07
  0
LINE
  8
0
 10
-73.5052
 20
1023.07
 11
-73.7191
 21
1023.53
  0
LINE
  8
0
 10
-73.7191
 20
1023.53
 11
-73.8743
 21
1024.01
  0
LINE
  8
0
 10
-73.8743
 20
1024.01
 11
-73.9685
 21
1024.5
  0
LINE
  8
0
 10
-73.9685
 20
1024.5
 11
-74
 21
1025
  0
LINE
  8
0
 10
-74
 20
1025
 11
-73.9685
 21
1025.5
  0
LINE
  8
0
 10
-73.9685
 20
1025.5
 11
-73.8743
 21
1025.99
  0
LINE
  8
0
 10
-73.8743
 20
1025.99
 11
-73.7191
 21
1026.47
  0
LINE
  8
0
 10
-73.7191
 20
1026.47
 11
-73.5052
 21
1026.93
  0
LINE
  8
0
 10
-73.5052
 20
1026.93
 11
-73.2361
 21
1027.35
  0
LINE
  8
0
 10
-73.2361
 20
1027.35
 11
-72.9159
 21
1027.74
  0
LINE
  8
0
 10
-72.9159
 20
1027.74
 11
-72.5497
 21
1028.08
  0
LINE
  8
0
 10
-72.5497
 20
1028.08
 11
-72.1433
 21
1028.38
  0
LINE
  8
0
 10
-72.1433
 20
1028.38
 11
-71.7031
 21
1028.62
  0
LINE
  8
0
 10
-71.7031
 20
1028.62
 11
-71.2361
 21
1028.8
  0
LINE
  8
0
 10
-71.2361
 20
1028.8
 11
-70.7495
 21
1028.93
  0
LINE
  8
0
 10
-70.7495
 20
1028.93
 11
-70.2512
 21
1028.99
  0
LINE
  8
0
 10
-70.2512
 20
1028.99
 11
-69.7488
 21
1028.99
  0
LINE
  8
0
 10
-69.7488
 20
1028.99
 11
-69.2505
 21
1028.93
  0
LINE
  8
0
 10
-69.2505
 20
1028.93
 11
-68.7639
 21
1028.8
  0
LINE
  8
0
 10
-68.7639
 20
1028.8
 11
-68.2969
 21
1028.62
  0
LINE
  8
0
 10
-68.2969
 20
1028.62
 11
-67.8567
 21
1028.38
  0
LINE
  8
0
 10
-67.8567
 20
1028.38
 11
-67.4503
 21
1028.08
  0
LINE
  8
0
 10
-67.4503
 20
1028.08
 11
-67.0841
 21
1027.74
  0
LINE
  8
0
 10
-67.0841
 20
1027.74
 11
-66.7639
 21
1027.35
  0
LINE
  8
0
 10
-66.7639
 20
1027.35
 11
-66.4948
 21
1026.93
  0
LINE
  8
0
 10
-66.4948
 20
1026.93
 11
-66.2809
 21
1026.47
  0
LINE
  8
0
 10
-66.2809
 20
1026.47
 11
-66.1257
 21
1025.99
  0
LINE
  8
0
 10
-66.1257
 20
1025.99
 11
-66.0315
 21
1025.5
  0
LINE
  8
0
 10
-66.0315
 20
1025.5
 11
-66
 21
1025
  0
LINE
  8
0
 10
-66
 20
1025
 11
-66.0315
 21
1024.5
  0
LINE
  8
0
 10
-66.0315
 20
1024.5
 11
-66.1257
 21
1024.01
  0
LINE
  8
0
 10
-66.1257
 20
1024.01
 11
-66.2809
 21
1023.53
  0
LINE
  8
0
 10
-66.2809
 20
1023.53
 11
-66.4948
 21
1023.07
  0
LINE
  8
0
 10
-66.4948
 20
1023.07
 11
-66.7639
 21
1022.65
  0
LINE
  8
0
 10
-66.7639
 20
1022.65
 11
-67.0841
 21
1022.26
  0
LINE
  8
0
 10
-67.0841
 20
1022.26
 11
-67.4503
 21
1021.92
  0
LINE
  8
0
 10
-67.4503
 20
1021.92
 11
-67.8567
 21
1021.62
  0
LINE
  8
0
 10
-67.8567
 20
1021.62
 11
-68.2969
 21
1021.38
  0
LINE
  8
0
 10
-68.2969
 20
1021.38
 11
-68.7639
 21
1021.2
  0
LINE
  8
0
 10
-68.7639
 20
1021.2
 11
-69.2505
 21
1021.07
  0
LINE
  8
0
 10
-69.2505
 20
1021.07
 11
-69.7488
 21
1021.01
  0
LINE
  8
0
 10
-69.7488
 20
1021.01
 11
-70.2512
 21
1021.01
  0
LINE
  8
0
 10
-130.251
 20
1021.01
 11
-130.75
 21
1021.07
  0
LINE
  8
0
 10
-130.75
 20
1021.07
 11
-131.236
 21
1021.2
  0
LINE
  8
0
 10
-131.236
 20
1021.2
 11
-131.703
 21
1021.38
  0
LINE
  8
0
 10
-131.703
 20
1021.38
 11
-132.143
 21
1021.62
  0
LINE
  8
0
 10
-132.143
 20
1021.62
 11
-132.55
 21
1021.92
  0
LINE
  8
0
 10
-132.55
 20
1021.92
 11
-132.916
 21
1022.26
  0
LINE
  8
0
 10
-132.916
 20
1022.26
 11
-133.236
 21
1022.65
  0
LINE
  8
0
 10
-133.236
 20
1022.65
 11
-133.505
 21
1023.07
  0
LINE
  8
0
 10
-133.505
 20
1023.07
 11
-133.719
 21
1023.53
  0
LINE
  8
0
 10
-133.719
 20
1023.53
 11
-133.874
 21
1024.01
  0
LINE
  8
0
 10
-133.874
 20
1024.01
 11
-133.968
 21
1024.5
  0
LINE
  8
0
 10
-133.968
 20
1024.5
 11
-134
 21
1025
  0
LINE
  8
0
 10
-134
 20
1025
 11
-133.968
 21
1025.5
  0
LINE
  8
0
 10
-133.968
 20
1025.5
 11
-133.874
 21
1025.99
  0
LINE
  8
0
 10
-133.874
 20
1025.99
 11
-133.719
 21
1026.47
  0
LINE
  8
0
 10
-133.719
 20
1026.47
 11
-133.505
 21
1026.93
  0
LINE
  8
0
 10
-133.505
 20
1026.93
 11
-133.236
 21
1027.35
  0
LINE
  8
0
 10
-133.236
 20
1027.35
 11
-132.916
 21
1027.74
  0
LINE
  8
0
 10
-132.916
 20
1027.74
 11
-132.55
 21
1028.08
  0
LINE
  8
0
 10
-132.55
 20
1028.08
 11
-132.143
 21
1028.38
  0
LINE
  8
0
 10
-132.143
 20
1028.38
 11
-131.703
 21
1028.62
  0
LINE
  8
0
 10
-131.703
 20
1028.62
 11
-131.236
 21
1028.8
  0
LINE
  8
0
 10
-131.236
 20
1028.8
 11
-130.75
 21
1028.93
  0
LINE
  8
0
 10
-130.75
 20
1028.93
 11
-130.251
 21
1028.99
  0
LINE
  8
0
 10
-130.251
 20
1028.99
 11
-129.749
 21
1028.99
  0
LINE
  8
0
 10
-129.749
 20
1028.99
 11
-129.25
 21
1028.93
  0
LINE
  8
0
 10
-129.25
 20
1028.93
 11
-128.764
 21
1028.8
  0
LINE
  8
0
 10
-128.764
 20
1028.8
 11
-128.297
 21
1028.62
  0
LINE
  8
0
 10
-128.297
 20
1028.62
 11
-127.857
 21
1028.38
  0
LINE
  8
0
 10
-127.857
 20
1028.38
 11
-127.45
 21
1028.08
  0
LINE
  8
0
 10
-127.45
 20
1028.08
 11
-127.084
 21
1027.74
  0
LINE
  8
0
 10
-127.084
 20
1027.74
 11
-126.764
 21
1027.35
  0
LINE
  8
0
 10
-126.764
 20
1027.35
 11
-126.495
 21
1026.93
  0
LINE
  8
0
 10
-126.495
 20
1026.93
 11
-126.281
 21
1026.47
  0
LINE
  8
0
 10
-126.281
 20
1026.47
 11
-126.126
 21
1025.99
  0
LINE
  8
0
 10
-126.126
 20
1025.99
 11
-126.032
 21
1025.5
  0
LINE
  8
0
 10
-126.032
 20
1025.5
 11
-126
 21
1025
  0
LINE
  8
0
 10
-126
 20
1025
 11
-126.032
 21
1024.5
  0
LINE
  8
0
 10
-126.032
 20
1024.5
 11
-126.126
 21
1024.01
  0
LINE
  8
0
 10
-126.126
 20
1024.01
 11
-126.281
 21
1023.53
  0
LINE
  8
0
 10
-126.281
 20
1023.53
 11
-126.495
 21
1023.07
  0
LINE
  8
0
 10
-126.495
 20
1023.07
 11
-126.764
 21
1022.65
  0
LINE
  8
0
 10
-126.764
 20
1022.65
 11
-127.084
 21
1022.26
  0
LINE
  8
0
 10
-127.084
 20
1022.26
 11
-127.45
 21
1021.92
  0
LINE
  8
0
 10
-127.45
 20
1021.92
 11
-127.857
 21
1021.62
  0
LINE
  8
0
 10
-127.857
 20
1021.62
 11
-128.297
 21
1021.38
  0
LINE
  8
0
 10
-128.297
 20
1021.38
 11
-128.764
 21
1021.2
  0
LINE
  8
0
 10
-128.764
 20
1021.2
 11
-129.25
 21
1021.07
  0
LINE
  8
0
 10
-129.25
 20
1021.07
 11
-129.749
 21
1021.01
  0
LINE
  8
0
 10
-129.749
 20
1021.01
 11
-130.251
 21
1021.01
  0
LINE
  8
0
 10
-50
 20
950
 11
-150
 21
950
  0
LINE
  8
0
 10
-150
 20
950
 11
-150
 21
840
  0
LINE
  8
0
 10
-150
 20
840
 11
-120
 21
840
  0
LINE
  8
0
 10
-120
 20
840
 11
-120
 21
810
  0
LINE
  8
0
 10
-120
 20
810
 11
-150
 21
810
  0
LINE
  8
0
 10
-150
 20
810
 11
-150
 21
700
  0
LINE
  8
0
 10
-150
 20
700
 11
-50
 21
700
  0
LINE
  8
0
 10
-50
 20
700
 11
-50
 21
950
  0
LINE
  8
0
 10
-200
 20
942.1
 11
-300
 21
942.1
  0
LINE
  8
0
 10
-300
 20
942.1
 11
-300
 21
882.1
  0
LINE
  8
0
 10
-300
 20
882.1
 11
-200
 21
882.1
  0
LINE
  8
0
 10
-200
 20
882.1
 11
-200
 21
942.1
  0
LINE
  8
0
 10
-251.256
 20
892.139
 11
-253.748
 21
892.454
  0
LINE
  8
0
 10
-253.748
 20
892.454
 11
-256.18
 21
893.079
  0
LINE
  8
0
 10
-256.18
 20
893.079
 11
-258.516
 21
894.003
  0
LINE
  8
0
 10
-258.516
 20
894.003
 11
-260.717
 21
895.213
  0
LINE
  8
0
 10
-260.717
 20
895.213
 11
-262.748
 21
896.69
  0
LINE
  8
0
 10
-262.748
 20
896.69
 11
-264.579
 21
898.409
  0
LINE
  8
0
 10
-264.579
 20
898.409
 11
-266.18
 21
900.344
  0
LINE
  8
0
 10
-266.18
 20
900.344
 11
-267.526
 21
902.465
  0
LINE
  8
0
 10
-267.526
 20
902.465
 11
-268.596
 21
904.737
  0
LINE
  8
0
 10
-268.596
 20
904.737
 11
-269.372
 21
907.126
  0
LINE
  8
0
 10
-269.372
 20
907.126
 11
-269.842
 21
909.593
  0
LINE
  8
0
 10
-269.842
 20
909.593
 11
-270
 21
912.1
  0
LINE
  8
0
 10
-270
 20
912.1
 11
-269.842
 21
914.607
  0
LINE
  8
0
 10
-269.842
 20
914.607
 11
-269.372
 21
917.074
  0
LINE
  8
0
 10
-269.372
 20
917.074
 11
-268.596
 21
919.462
  0
LINE
  8
0
 10
-268.596
 20
919.462
 11
-267.526
 21
921.735
  0
LINE
  8
0
 10
-267.526
 20
921.735
 11
-266.18
 21
923.856
  0
LINE
  8
0
 10
-266.18
 20
923.856
 11
-264.579
 21
925.791
  0
LINE
  8
0
 10
-264.579
 20
925.791
 11
-262.748
 21
927.51
  0
LINE
  8
0
 10
-262.748
 20
927.51
 11
-260.717
 21
928.987
  0
LINE
  8
0
 10
-260.717
 20
928.987
 11
-258.516
 21
930.197
  0
LINE
  8
0
 10
-258.516
 20
930.197
 11
-256.18
 21
931.121
  0
LINE
  8
0
 10
-256.18
 20
931.121
 11
-253.748
 21
931.746
  0
LINE
  8
0
 10
-253.748
 20
931.746
 11
-251.256
 21
932.061
  0
LINE
  8
0
 10
-251.256
 20
932.061
 11
-248.744
 21
932.061
  0
LINE
  8
0
 10
-248.744
 20
932.061
 11
-246.252
 21
931.746
  0
LINE
  8
0
 10
-246.252
 20
931.746
 11
-243.82
 21
931.121
  0
LINE
  8
0
 10
-243.82
 20
931.121
 11
-241.484
 21
930.197
  0
LINE
  8
0
 10
-241.484
 20
930.197
 11
-239.283
 21
928.987
  0
LINE
  8
0
 10
-239.283
 20
928.987
 11
-237.252
 21
927.51
  0
LINE
  8
0
 10
-237.252
 20
927.51
 11
-235.421
 21
925.791
  0
LINE
  8
0
 10
-235.421
 20
925.791
 11
-233.82
 21
923.856
  0
LINE
  8
0
 10
-233.82
 20
923.856
 11
-232.474
 21
921.735
  0
LINE
  8
0
 10
-232.474
 20
921.735
 11
-231.404
 21
919.462
  0
LINE
  8
0
 10
-231.404
 20
919.462
 11
-230.628
 21
917.074
  0
LINE
  8
0
 10
-230.628
 20
917.074
 11
-230.158
 21
914.607
  0
LINE
  8
0
 10
-230.158
 20
914.607
 11
-230
 21
912.1
  0
LINE
  8
0
 10
-230
 20
912.1
 11
-230.158
 21
909.593
  0
LINE
  8
0
 10
-230.158
 20
909.593
 11
-230.628
 21
907.126
  0
LINE
  8
0
 10
-230.628
 20
907.126
 11
-231.404
 21
904.737
  0
LINE
  8
0
 10
-231.404
 20
904.737
 11
-232.474
 21
902.465
  0
LINE
  8
0
 10
-232.474
 20
902.465
 11
-233.82
 21
900.344
  0
LINE
  8
0
 10
-233.82
 20
900.344
 11
-235.421
 21
898.409
  0
LINE
  8
0
 10
-235.421
 20
898.409
 11
-237.252
 21
896.69
  0
LINE
  8
0
 10
-237.252
 20
896.69
 11
-239.283
 21
895.213
  0
LINE
  8
0
 10
-239.283
 20
895.213
 11
-241.484
 21
894.003
  0
LINE
  8
0
 10
-241.484
 20
894.003
 11
-243.82
 21
893.079
  0
LINE
  8
0
 10
-243.82
 20
893.079
 11
-246.252
 21
892.454
  0
LINE
  8
0
 10
-246.252
 20
892.454
 11
-248.744
 21
892.139
  0
LINE
  8
0
 10
-248.744
 20
892.139
 11
-251.256
 21
892.139
  0
LINE
  8
0
 10
-200
 20
780
 11
-234
 21
780
  0
LINE
  8
0
 10
-234
 20
780
 11
-234
 21
750
  0
LINE
  8
0
 10
-234
 20
750
 11
-264
 21
750
  0
LINE
  8
0
 10
-264
 20
750
 11
-264
 21
780
  0
LINE
  8
0
 10
-264
 20
780
 11
-300
 21
780
  0
LINE
  8
0
 10
-300
 20
780
 11
-300
 21
700
  0
LINE
  8
0
 10
-300
 20
700
 11
-200
 21
700
  0
LINE
  8
0
 10
-200
 20
700
 11
-200
 21
780
  0
LINE
  8
0
 10
-50
 20
650
 11
-150
 21
650
  0
LINE
  8
0
 10
-150
 20
650
 11
-150
 21
600
  0
LINE
  8
0
 10
-150
 20
600
 11
-50
 21
600
  0
LINE
  8
0
 10
-50
 20
600
 11
-50
 21
650
  0
LINE
  8
0
 10
-84.5942
 20
639.003
 11
-84.7811
 21
639.027
  0
LINE
  8
0
 10
-84.7811
 20
639.027
 11
-84.9635
 21
639.073
  0
LINE
  8
0
 10
-84.9635
 20
639.073
 11
-85.1387
 21
639.143
  0
LINE
  8
0
 10
-85.1387
 20
639.143
 11
-85.3037
 21
639.234
  0
LINE
  8
0
 10
-85.3037
 20
639.234
 11
-85.4561
 21
639.344
  0
LINE
  8
0
 10
-85.4561
 20
639.344
 11
-85.5934
 21
639.473
  0
LINE
  8
0
 10
-85.5934
 20
639.473
 11
-85.7135
 21
639.618
  0
LINE
  8
0
 10
-85.7135
 20
639.618
 11
-85.8145
 21
639.777
  0
LINE
  8
0
 10
-85.8145
 20
639.777
 11
-85.8947
 21
639.948
  0
LINE
  8
0
 10
-85.8947
 20
639.948
 11
-85.9529
 21
640.127
  0
LINE
  8
0
 10
-85.9529
 20
640.127
 11
-85.9882
 21
640.312
  0
LINE
  8
0
 10
-85.9882
 20
640.312
 11
-86
 21
640.5
  0
LINE
  8
0
 10
-86
 20
640.5
 11
-85.9882
 21
640.688
  0
LINE
  8
0
 10
-85.9882
 20
640.688
 11
-85.9529
 21
640.873
  0
LINE
  8
0
 10
-85.9529
 20
640.873
 11
-85.8947
 21
641.052
  0
LINE
  8
0
 10
-85.8947
 20
641.052
 11
-85.8145
 21
641.223
  0
LINE
  8
0
 10
-85.8145
 20
641.223
 11
-85.7135
 21
641.382
  0
LINE
  8
0
 10
-85.7135
 20
641.382
 11
-85.5934
 21
641.527
  0
LINE
  8
0
 10
-85.5934
 20
641.527
 11
-85.4561
 21
641.656
  0
LINE
  8
0
 10
-85.4561
 20
641.656
 11
-85.3037
 21
641.766
  0
LINE
  8
0
 10
-85.3037
 20
641.766
 11
-85.1387
 21
641.857
  0
LINE
  8
0
 10
-85.1387
 20
641.857
 11
-84.9635
 21
641.927
  0
LINE
  8
0
 10
-84.9635
 20
641.927
 11
-84.7811
 21
641.973
  0
LINE
  8
0
 10
-84.7811
 20
641.973
 11
-84.5942
 21
641.997
  0
LINE
  8
0
 10
-84.5942
 20
641.997
 11
-84.4058
 21
641.997
  0
LINE
  8
0
 10
-84.4058
 20
641.997
 11
-84.2189
 21
641.973
  0
LINE
  8
0
 10
-84.2189
 20
641.973
 11
-84.0365
 21
641.927
  0
LINE
  8
0
 10
-84.0365
 20
641.927
 11
-83.8613
 21
641.857
  0
LINE
  8
0
 10
-83.8613
 20
641.857
 11
-83.6963
 21
641.766
  0
LINE
  8
0
 10
-83.6963
 20
641.766
 11
-83.5439
 21
641.656
  0
LINE
  8
0
 10
-83.5439
 20
641.656
 11
-83.4065
 21
641.527
  0
LINE
  8
0
 10
-83.4065
 20
641.527
 11
-83.2865
 21
641.382
  0
LINE
  8
0
 10
-83.2865
 20
641.382
 11
-83.1855
 21
641.223
  0
LINE
  8
0
 10
-83.1855
 20
641.223
 11
-83.1053
 21
641.052
  0
LINE
  8
0
 10
-83.1053
 20
641.052
 11
-83.0471
 21
640.873
  0
LINE
  8
0
 10
-83.0471
 20
640.873
 11
-83.0118
 21
640.688
  0
LINE
  8
0
 10
-83.0118
 20
640.688
 11
-83
 21
640.5
  0
LINE
  8
0
 10
-83
 20
640.5
 11
-83.0118
 21
640.312
  0
LINE
  8
0
 10
-83.0118
 20
640.312
 11
-83.0471
 21
640.127
  0
LINE
  8
0
 10
-83.0471
 20
640.127
 11
-83.1053
 21
639.948
  0
LINE
  8
0
 10
-83.1053
 20
639.948
 11
-83.1855
 21
639.777
  0
LINE
  8
0
 10
-83.1855
 20
639.777
 11
-83.2865
 21
639.618
  0
LINE
  8
0
 10
-83.2865
 20
639.618
 11
-83.4065
 21
639.473
  0
LINE
  8
0
 10
-83.4065
 20
639.473
 11
-83.5439
 21
639.344
  0
LINE
  8
0
 10
-83.5439
 20
639.344
 11
-83.6963
 21
639.234
  0
LINE
  8
0
 10
-83.6963
 20
639.234
 11
-83.8613
 21
639.143
  0
LINE
  8
0
 10
-83.8613
 20
639.143
 11
-84.0365
 21
639.073
  0
LINE
  8
0
 10
-84.0365
 20
639.073
 11
-84.2189
 21
639.027
  0
LINE
  8
0
 10
-84.2189
 20
639.027
 11
-84.4058
 21
639.003
  0
LINE
  8
0
 10
-84.4058
 20
639.003
 11
-84.5942
 21
639.003
  0
LINE
  8
0
 10
-115.594
 20
639.003
 11
-115.781
 21
639.027
  0
LINE
  8
0
 10
-115.781
 20
639.027
 11
-115.964
 21
639.073
  0
LINE
  8
0
 10
-115.964
 20
639.073
 11
-116.139
 21
639.143
  0
LINE
  8
0
 10
-116.139
 20
639.143
 11
-116.304
 21
639.234
  0
LINE
  8
0
 10
-116.304
 20
639.234
 11
-116.456
 21
639.344
  0
LINE
  8
0
 10
-116.456
 20
639.344
 11
-116.593
 21
639.473
  0
LINE
  8
0
 10
-116.593
 20
639.473
 11
-116.714
 21
639.618
  0
LINE
  8
0
 10
-116.714
 20
639.618
 11
-116.814
 21
639.777
  0
LINE
  8
0
 10
-116.814
 20
639.777
 11
-116.895
 21
639.948
  0
LINE
  8
0
 10
-116.895
 20
639.948
 11
-116.953
 21
640.127
  0
LINE
  8
0
 10
-116.953
 20
640.127
 11
-116.988
 21
640.312
  0
LINE
  8
0
 10
-116.988
 20
640.312
 11
-117
 21
640.5
  0
LINE
  8
0
 10
-117
 20
640.5
 11
-116.988
 21
640.688
  0
LINE
  8
0
 10
-116.988
 20
640.688
 11
-116.953
 21
640.873
  0
LINE
  8
0
 10
-116.953
 20
640.873
 11
-116.895
 21
641.052
  0
LINE
  8
0
 10
-116.895
 20
641.052
 11
-116.814
 21
641.223
  0
LINE
  8
0
 10
-116.814
 20
641.223
 11
-116.714
 21
641.382
  0
LINE
  8
0
 10
-116.714
 20
641.382
 11
-116.593
 21
641.527
  0
LINE
  8
0
 10
-116.593
 20
641.527
 11
-116.456
 21
641.656
  0
LINE
  8
0
 10
-116.456
 20
641.656
 11
-116.304
 21
641.766
  0
LINE
  8
0
 10
-116.304
 20
641.766
 11
-116.139
 21
641.857
  0
LINE
  8
0
 10
-116.139
 20
641.857
 11
-115.964
 21
641.927
  0
LINE
  8
0
 10
-115.964
 20
641.927
 11
-115.781
 21
641.973
  0
LINE
  8
0
 10
-115.781
 20
641.973
 11
-115.594
 21
641.997
  0
LINE
  8
0
 10
-115.594
 20
641.997
 11
-115.406
 21
641.997
  0
LINE
  8
0
 10
-115.406
 20
641.997
 11
-115.219
 21
641.973
  0
LINE
  8
0
 10
-115.219
 20
641.973
 11
-115.036
 21
641.927
  0
LINE
  8
0
 10
-115.036
 20
641.927
 11
-114.861
 21
641.857
  0
LINE
  8
0
 10
-114.861
 20
641.857
 11
-114.696
 21
641.766
  0
LINE
  8
0
 10
-114.696
 20
641.766
 11
-114.544
 21
641.656
  0
LINE
  8
0
 10
-114.544
 20
641.656
 11
-114.407
 21
641.527
  0
LINE
  8
0
 10
-114.407
 20
641.527
 11
-114.286
 21
641.382
  0
LINE
  8
0
 10
-114.286
 20
641.382
 11
-114.186
 21
641.223
  0
LINE
  8
0
 10
-114.186
 20
641.223
 11
-114.105
 21
641.052
  0
LINE
  8
0
 10
-114.105
 20
641.052
 11
-114.047
 21
640.873
  0
LINE
  8
0
 10
-114.047
 20
640.873
 11
-114.012
 21
640.688
  0
LINE
  8
0
 10
-114.012
 20
640.688
 11
-114
 21
640.5
  0
LINE
  8
0
 10
-114
 20
640.5
 11
-114.012
 21
640.312
  0
LINE
  8
0
 10
-114.012
 20
640.312
 11
-114.047
 21
640.127
  0
LINE
  8
0
 10
-114.047
 20
640.127
 11
-114.105
 21
639.948
  0
LINE
  8
0
 10
-114.105
 20
639.948
 11
-114.186
 21
639.777
  0
LINE
  8
0
 10
-114.186
 20
639.777
 11
-114.286
 21
639.618
  0
LINE
  8
0
 10
-114.286
 20
639.618
 11
-114.407
 21
639.473
  0
LINE
  8
0
 10
-114.407
 20
639.473
 11
-114.544
 21
639.344
  0
LINE
  8
0
 10
-114.544
 20
639.344
 11
-114.696
 21
639.234
  0
LINE
  8
0
 10
-114.696
 20
639.234
 11
-114.861
 21
639.143
  0
LINE
  8
0
 10
-114.861
 20
639.143
 11
-115.036
 21
639.073
  0
LINE
  8
0
 10
-115.036
 20
639.073
 11
-115.219
 21
639.027
  0
LINE
  8
0
 10
-115.219
 20
639.027
 11
-115.406
 21
639.003
  0
LINE
  8
0
 10
-115.406
 20
639.003
 11
-115.594
 21
639.003
  0
LINE
  8
0
 10
-100.753
 20
613.024
 11
-102.249
 21
613.213
  0
LINE
  8
0
 10
-102.249
 20
613.213
 11
-103.708
 21
613.587
  0
LINE
  8
0
 10
-103.708
 20
613.587
 11
-105.109
 21
614.142
  0
LINE
  8
0
 10
-105.109
 20
614.142
 11
-106.43
 21
614.868
  0
LINE
  8
0
 10
-106.43
 20
614.868
 11
-107.649
 21
615.754
  0
LINE
  8
0
 10
-107.649
 20
615.754
 11
-108.748
 21
616.785
  0
LINE
  8
0
 10
-108.748
 20
616.785
 11
-109.708
 21
617.947
  0
LINE
  8
0
 10
-109.708
 20
617.947
 11
-110.516
 21
619.219
  0
LINE
  8
0
 10
-110.516
 20
619.219
 11
-111.157
 21
620.583
  0
LINE
  8
0
 10
-111.157
 20
620.583
 11
-111.623
 21
622.016
  0
LINE
  8
0
 10
-111.623
 20
622.016
 11
-111.905
 21
623.496
  0
LINE
  8
0
 10
-111.905
 20
623.496
 11
-112
 21
625
  0
LINE
  8
0
 10
-112
 20
625
 11
-111.905
 21
626.504
  0
LINE
  8
0
 10
-111.905
 20
626.504
 11
-111.623
 21
627.984
  0
LINE
  8
0
 10
-111.623
 20
627.984
 11
-111.157
 21
629.417
  0
LINE
  8
0
 10
-111.157
 20
629.417
 11
-110.516
 21
630.781
  0
LINE
  8
0
 10
-110.516
 20
630.781
 11
-109.708
 21
632.053
  0
LINE
  8
0
 10
-109.708
 20
632.053
 11
-108.748
 21
633.215
  0
LINE
  8
0
 10
-108.748
 20
633.215
 11
-107.649
 21
634.246
  0
LINE
  8
0
 10
-107.649
 20
634.246
 11
-106.43
 21
635.132
  0
LINE
  8
0
 10
-106.43
 20
635.132
 11
-105.109
 21
635.858
  0
LINE
  8
0
 10
-105.109
 20
635.858
 11
-103.708
 21
636.413
  0
LINE
  8
0
 10
-103.708
 20
636.413
 11
-102.249
 21
636.787
  0
LINE
  8
0
 10
-102.249
 20
636.787
 11
-100.753
 21
636.976
  0
LINE
  8
0
 10
-100.753
 20
636.976
 11
-99.2465
 21
636.976
  0
LINE
  8
0
 10
-99.2465
 20
636.976
 11
-97.7514
 21
636.787
  0
LINE
  8
0
 10
-97.7514
 20
636.787
 11
-96.2918
 21
636.413
  0
LINE
  8
0
 10
-96.2918
 20
636.413
 11
-94.8906
 21
635.858
  0
LINE
  8
0
 10
-94.8906
 20
635.858
 11
-93.5701
 21
635.132
  0
LINE
  8
0
 10
-93.5701
 20
635.132
 11
-92.3509
 21
634.246
  0
LINE
  8
0
 10
-92.3509
 20
634.246
 11
-91.2524
 21
633.215
  0
LINE
  8
0
 10
-91.2524
 20
633.215
 11
-90.2918
 21
632.053
  0
LINE
  8
0
 10
-90.2918
 20
632.053
 11
-89.4843
 21
630.781
  0
LINE
  8
0
 10
-89.4843
 20
630.781
 11
-88.8427
 21
629.417
  0
LINE
  8
0
 10
-88.8427
 20
629.417
 11
-88.377
 21
627.984
  0
LINE
  8
0
 10
-88.377
 20
627.984
 11
-88.0946
 21
626.504
  0
LINE
  8
0
 10
-88.0946
 20
626.504
 11
-88
 21
625
  0
LINE
  8
0
 10
-88
 20
625
 11
-88.0946
 21
623.496
  0
LINE
  8
0
 10
-88.0946
 20
623.496
 11
-88.377
 21
622.016
  0
LINE
  8
0
 10
-88.377
 20
622.016
 11
-88.8427
 21
620.583
  0
LINE
  8
0
 10
-88.8427
 20
620.583
 11
-89.4843
 21
619.219
  0
LINE
  8
0
 10
-89.4843
 20
619.219
 11
-90.2918
 21
617.947
  0
LINE
  8
0
 10
-90.2918
 20
617.947
 11
-91.2524
 21
616.785
  0
LINE
  8
0
 10
-91.2524
 20
616.785
 11
-92.3509
 21
615.754
  0
LINE
  8
0
 10
-92.3509
 20
615.754
 11
-93.5701
 21
614.868
  0
LINE
  8
0
 10
-93.5701
 20
614.868
 11
-94.8906
 21
614.142
  0
LINE
  8
0
 10
-94.8906
 20
614.142
 11
-96.2918
 21
613.587
  0
LINE
  8
0
 10
-96.2918
 20
613.587
 11
-97.7514
 21
613.213
  0
LINE
  8
0
 10
-97.7514
 20
613.213
 11
-99.2465
 21
613.024
  0
LINE
  8
0
 10
-99.2465
 20
613.024
 11
-100.753
 21
613.024
  0
LINE
  8
0
 10
-70.2512
 20
621.008
 11
-70.7495
 21
621.071
  0
LINE
  8
0
 10
-70.7495
 20
621.071
 11
-71.2361
 21
621.196
  0
LINE
  8
0
 10
-71.2361
 20
621.196
 11
-71.7031
 21
621.381
  0
LINE
  8
0
 10
-71.7031
 20
621.381
 11
-72.1433
 21
621.623
  0
LINE
  8
0
 10
-72.1433
 20
621.623
 11
-72.5497
 21
621.918
  0
LINE
  8
0
 10
-72.5497
 20
621.918
 11
-72.9159
 21
622.262
  0
LINE
  8
0
 10
-72.9159
 20
622.262
 11
-73.2361
 21
622.649
  0
LINE
  8
0
 10
-73.2361
 20
622.649
 11
-73.5052
 21
623.073
  0
LINE
  8
0
 10
-73.5052
 20
623.073
 11
-73.7191
 21
623.528
  0
LINE
  8
0
 10
-73.7191
 20
623.528
 11
-73.8743
 21
624.005
  0
LINE
  8
0
 10
-73.8743
 20
624.005
 11
-73.9685
 21
624.499
  0
LINE
  8
0
 10
-73.9685
 20
624.499
 11
-74
 21
625
  0
LINE
  8
0
 10
-74
 20
625
 11
-73.9685
 21
625.501
  0
LINE
  8
0
 10
-73.9685
 20
625.501
 11
-73.8743
 21
625.995
  0
LINE
  8
0
 10
-73.8743
 20
625.995
 11
-73.7191
 21
626.472
  0
LINE
  8
0
 10
-73.7191
 20
626.472
 11
-73.5052
 21
626.927
  0
LINE
  8
0
 10
-73.5052
 20
626.927
 11
-73.2361
 21
627.351
  0
LINE
  8
0
 10
-73.2361
 20
627.351
 11
-72.9159
 21
627.738
  0
LINE
  8
0
 10
-72.9159
 20
627.738
 11
-72.5497
 21
628.082
  0
LINE
  8
0
 10
-72.5497
 20
628.082
 11
-72.1433
 21
628.377
  0
LINE
  8
0
 10
-72.1433
 20
628.377
 11
-71.7031
 21
628.619
  0
LINE
  8
0
 10
-71.7031
 20
628.619
 11
-71.2361
 21
628.804
  0
LINE
  8
0
 10
-71.2361
 20
628.804
 11
-70.7495
 21
628.929
  0
LINE
  8
0
 10
-70.7495
 20
628.929
 11
-70.2512
 21
628.992
  0
LINE
  8
0
 10
-70.2512
 20
628.992
 11
-69.7488
 21
628.992
  0
LINE
  8
0
 10
-69.7488
 20
628.992
 11
-69.2505
 21
628.929
  0
LINE
  8
0
 10
-69.2505
 20
628.929
 11
-68.7639
 21
628.804
  0
LINE
  8
0
 10
-68.7639
 20
628.804
 11
-68.2969
 21
628.619
  0
LINE
  8
0
 10
-68.2969
 20
628.619
 11
-67.8567
 21
628.377
  0
LINE
  8
0
 10
-67.8567
 20
628.377
 11
-67.4503
 21
628.082
  0
LINE
  8
0
 10
-67.4503
 20
628.082
 11
-67.0841
 21
627.738
  0
LINE
  8
0
 10
-67.0841
 20
627.738
 11
-66.7639
 21
627.351
  0
LINE
  8
0
 10
-66.7639
 20
627.351
 11
-66.4948
 21
626.927
  0
LINE
  8
0
 10
-66.4948
 20
626.927
 11
-66.2809
 21
626.472
  0
LINE
  8
0
 10
-66.2809
 20
626.472
 11
-66.1257
 21
625.995
  0
LINE
  8
0
 10
-66.1257
 20
625.995
 11
-66.0315
 21
625.501
  0
LINE
  8
0
 10
-66.0315
 20
625.501
 11
-66
 21
625
  0
LINE
  8
0
 10
-66
 20
625
 11
-66.0315
 21
624.499
  0
LINE
  8
0
 10
-66.0315
 20
624.499
 11
-66.1257
 21
624.005
  0
LINE
  8
0
 10
-66.1257
 20
624.005
 11
-66.2809
 21
623.528
  0
LINE
  8
0
 10
-66.2809
 20
623.528
 11
-66.4948
 21
623.073
  0
LINE
  8
0
 10
-66.4948
 20
623.073
 11
-66.7639
 21
622.649
  0
LINE
  8
0
 10
-66.7639
 20
622.649
 11
-67.0841
 21
622.262
  0
LINE
  8
0
 10
-67.0841
 20
622.262
 11
-67.4503
 21
621.918
  0
LINE
  8
0
 10
-67.4503
 20
621.918
 11
-67.8567
 21
621.623
  0
LINE
  8
0
 10
-67.8567
 20
621.623
 11
-68.2969
 21
621.381
  0
LINE
  8
0
 10
-68.2969
 20
621.381
 11
-68.7639
 21
621.196
  0
LINE
  8
0
 10
-68.7639
 20
621.196
 11
-69.2505
 21
621.071
  0
LINE
  8
0
 10
-69.2505
 20
621.071
 11
-69.7488
 21
621.008
  0
LINE
  8
0
 10
-69.7488
 20
621.008
 11
-70.2512
 21
621.008
  0
LINE
  8
0
 10
-130.251
 20
621.008
 11
-130.75
 21
621.071
  0
LINE
  8
0
 10
-130.75
 20
621.071
 11
-131.236
 21
621.196
  0
LINE
  8
0
 10
-131.236
 20
621.196
 11
-131.703
 21
621.381
  0
LINE
  8
0
 10
-131.703
 20
621.381
 11
-132.143
 21
621.623
  0
LINE
  8
0
 10
-132.143
 20
621.623
 11
-132.55
 21
621.918
  0
LINE
  8
0
 10
-132.55
 20
621.918
 11
-132.916
 21
622.262
  0
LINE
  8
0
 10
-132.916
 20
622.262
 11
-133.236
 21
622.649
  0
LINE
  8
0
 10
-133.236
 20
622.649
 11
-133.505
 21
623.073
  0
LINE
  8
0
 10
-133.505
 20
623.073
 11
-133.719
 21
623.528
  0
LINE
  8
0
 10
-133.719
 20
623.528
 11
-133.874
 21
624.005
  0
LINE
  8
0
 10
-133.874
 20
624.005
 11
-133.968
 21
624.499
  0
LINE
  8
0
 10
-133.968
 20
624.499
 11
-134
 21
625
  0
LINE
  8
0
 10
-134
 20
625
 11
-133.968
 21
625.501
  0
LINE
  8
0
 10
-133.968
 20
625.501
 11
-133.874
 21
625.995
  0
LINE
  8
0
 10
-133.874
 20
625.995
 11
-133.719
 21
626.472
  0
LINE
  8
0
 10
-133.719
 20
626.472
 11
-133.505
 21
626.927
  0
LINE
  8
0
 10
-133.505
 20
626.927
 11
-133.236
 21
627.351
  0
LINE
  8
0
 10
-133.236
 20
627.351
 11
-132.916
 21
627.738
  0
LINE
  8
0
 10
-132.916
 20
627.738
 11
-132.55
 21
628.082
  0
LINE
  8
0
 10
-132.55
 20
628.082
 11
-132.143
 21
628.377
  0
LINE
  8
0
 10
-132.143
 20
628.377
 11
-131.703
 21
628.619
  0
LINE
  8
0
 10
-131.703
 20
628.619
 11
-131.236
 21
628.804
  0
LINE
  8
0
 10
-131.236
 20
628.804
 11
-130.75
 21
628.929
  0
LINE
  8
0
 10
-130.75
 20
628.929
 11
-130.251
 21
628.992
  0
LINE
  8
0
 10
-130.251
 20
628.992
 11
-129.749
 21
628.992
  0
LINE
  8
0
 10
-129.749
 20
628.992
 11
-129.25
 21
628.929
  0
LINE
  8
0
 10
-129.25
 20
628.929
 11
-128.764
 21
628.804
  0
LINE
  8
0
 10
-128.764
 20
628.804
 11
-128.297
 21
628.619
  0
LINE
  8
0
 10
-128.297
 20
628.619
 11
-127.857
 21
628.377
  0
LINE
  8
0
 10
-127.857
 20
628.377
 11
-127.45
 21
628.082
  0
LINE
  8
0
 10
-127.45
 20
628.082
 11
-127.084
 21
627.738
  0
LINE
  8
0
 10
-127.084
 20
627.738
 11
-126.764
 21
627.351
  0
LINE
  8
0
 10
-126.764
 20
627.351
 11
-126.495
 21
626.927
  0
LINE
  8
0
 10
-126.495
 20
626.927
 11
-126.281
 21
626.472
  0
LINE
  8
0
 10
-126.281
 20
626.472
 11
-126.126
 21
625.995
  0
LINE
  8
0
 10
-126.126
 20
625.995
 11
-126.032
 21
625.501
  0
LINE
  8
0
 10
-126.032
 20
625.501
 11
-126
 21
625
  0
LINE
  8
0
 10
-126
 20
625
 11
-126.032
 21
624.499
  0
LINE
  8
0
 10
-126.032
 20
624.499
 11
-126.126
 21
624.005
  0
LINE
  8
0
 10
-126.126
 20
624.005
 11
-126.281
 21
623.528
  0
LINE
  8
0
 10
-126.281
 20
623.528
 11
-126.495
 21
623.073
  0
LINE
  8
0
 10
-126.495
 20
623.073
 11
-126.764
 21
622.649
  0
LINE
  8
0
 10
-126.764
 20
622.649
 11
-127.084
 21
622.262
  0
LINE
  8
0
 10
-127.084
 20
622.262
 11
-127.45
 21
621.918
  0
LINE
  8
0
 10
-127.45
 20
621.918
 11
-127.857
 21
621.623
  0
LINE
  8
0
 10
-127.857
 20
621.623
 11
-128.297
 21
621.381
  0
LINE
  8
0
 10
-128.297
 20
621.381
 11
-128.764
 21
621.196
  0
LINE
  8
0
 10
-128.764
 20
621.196
 11
-129.25
 21
621.071
  0
LINE
  8
0
 10
-129.25
 20
621.071
 11
-129.749
 21
621.008
  0
LINE
  8
0
 10
-129.749
 20
621.008
 11
-130.251
 21
621.008
  0
LINE
  8
0
 10
-115.594
 20
608.003
 11
-115.781
 21
608.027
  0
LINE
  8
0
 10
-115.781
 20
608.027
 11
-115.964
 21
608.073
  0
LINE
  8
0
 10
-115.964
 20
608.073
 11
-116.139
 21
608.143
  0
LINE
  8
0
 10
-116.139
 20
608.143
 11
-116.304
 21
608.234
  0
LINE
  8
0
 10
-116.304
 20
608.234
 11
-116.456
 21
608.344
  0
LINE
  8
0
 10
-116.456
 20
608.344
 11
-116.593
 21
608.473
  0
LINE
  8
0
 10
-116.593
 20
608.473
 11
-116.714
 21
608.618
  0
LINE
  8
0
 10
-116.714
 20
608.618
 11
-116.814
 21
608.777
  0
LINE
  8
0
 10
-116.814
 20
608.777
 11
-116.895
 21
608.948
  0
LINE
  8
0
 10
-116.895
 20
608.948
 11
-116.953
 21
609.127
  0
LINE
  8
0
 10
-116.953
 20
609.127
 11
-116.988
 21
609.312
  0
LINE
  8
0
 10
-116.988
 20
609.312
 11
-117
 21
609.5
  0
LINE
  8
0
 10
-117
 20
609.5
 11
-116.988
 21
609.688
  0
LINE
  8
0
 10
-116.988
 20
609.688
 11
-116.953
 21
609.873
  0
LINE
  8
0
 10
-116.953
 20
609.873
 11
-116.895
 21
610.052
  0
LINE
  8
0
 10
-116.895
 20
610.052
 11
-116.814
 21
610.223
  0
LINE
  8
0
 10
-116.814
 20
610.223
 11
-116.714
 21
610.382
  0
LINE
  8
0
 10
-116.714
 20
610.382
 11
-116.593
 21
610.527
  0
LINE
  8
0
 10
-116.593
 20
610.527
 11
-116.456
 21
610.656
  0
LINE
  8
0
 10
-116.456
 20
610.656
 11
-116.304
 21
610.766
  0
LINE
  8
0
 10
-116.304
 20
610.766
 11
-116.139
 21
610.857
  0
LINE
  8
0
 10
-116.139
 20
610.857
 11
-115.964
 21
610.927
  0
LINE
  8
0
 10
-115.964
 20
610.927
 11
-115.781
 21
610.973
  0
LINE
  8
0
 10
-115.781
 20
610.973
 11
-115.594
 21
610.997
  0
LINE
  8
0
 10
-115.594
 20
610.997
 11
-115.406
 21
610.997
  0
LINE
  8
0
 10
-115.406
 20
610.997
 11
-115.219
 21
610.973
  0
LINE
  8
0
 10
-115.219
 20
610.973
 11
-115.036
 21
610.927
  0
LINE
  8
0
 10
-115.036
 20
610.927
 11
-114.861
 21
610.857
  0
LINE
  8
0
 10
-114.861
 20
610.857
 11
-114.696
 21
610.766
  0
LINE
  8
0
 10
-114.696
 20
610.766
 11
-114.544
 21
610.656
  0
LINE
  8
0
 10
-114.544
 20
610.656
 11
-114.407
 21
610.527
  0
LINE
  8
0
 10
-114.407
 20
610.527
 11
-114.286
 21
610.382
  0
LINE
  8
0
 10
-114.286
 20
610.382
 11
-114.186
 21
610.223
  0
LINE
  8
0
 10
-114.186
 20
610.223
 11
-114.105
 21
610.052
  0
LINE
  8
0
 10
-114.105
 20
610.052
 11
-114.047
 21
609.873
  0
LINE
  8
0
 10
-114.047
 20
609.873
 11
-114.012
 21
609.688
  0
LINE
  8
0
 10
-114.012
 20
609.688
 11
-114
 21
609.5
  0
LINE
  8
0
 10
-114
 20
609.5
 11
-114.012
 21
609.312
  0
LINE
  8
0
 10
-114.012
 20
609.312
 11
-114.047
 21
609.127
  0
LINE
  8
0
 10
-114.047
 20
609.127
 11
-114.105
 21
608.948
  0
LINE
  8
0
 10
-114.105
 20
608.948
 11
-114.186
 21
608.777
  0
LINE
  8
0
 10
-114.186
 20
608.777
 11
-114.286
 21
608.618
  0
LINE
  8
0
 10
-114.286
 20
608.618
 11
-114.407
 21
608.473
  0
LINE
  8
0
 10
-114.407
 20
608.473
 11
-114.544
 21
608.344
  0
LINE
  8
0
 10
-114.544
 20
608.344
 11
-114.696
 21
608.234
  0
LINE
  8
0
 10
-114.696
 20
608.234
 11
-114.861
 21
608.143
  0
LINE
  8
0
 10
-114.861
 20
608.143
 11
-115.036
 21
608.073
  0
LINE
  8
0
 10
-115.036
 20
608.073
 11
-115.219
 21
608.027
  0
LINE
  8
0
 10
-115.219
 20
608.027
 11
-115.406
 21
608.003
  0
LINE
  8
0
 10
-115.406
 20
608.003
 11
-115.594
 21
608.003
  0
LINE
  8
0
 10
-84.5942
 20
608.003
 11
-84.7811
 21
608.027
  0
LINE
  8
0
 10
-84.7811
 20
608.027
 11
-84.9635
 21
608.073
  0
LINE
  8
0
 10
-84.9635
 20
608.073
 11
-85.1387
 21
608.143
  0
LINE
  8
0
 10
-85.1387
 20
608.143
 11
-85.3037
 21
608.234
  0
LINE
  8
0
 10
-85.3037
 20
608.234
 11
-85.4561
 21
608.344
  0
LINE
  8
0
 10
-85.4561
 20
608.344
 11
-85.5934
 21
608.473
  0
LINE
  8
0
 10
-85.5934
 20
608.473
 11
-85.7135
 21
608.618
  0
LINE
  8
0
 10
-85.7135
 20
608.618
 11
-85.8145
 21
608.777
  0
LINE
  8
0
 10
-85.8145
 20
608.777
 11
-85.8947
 21
608.948
  0
LINE
  8
0
 10
-85.8947
 20
608.948
 11
-85.9529
 21
609.127
  0
LINE
  8
0
 10
-85.9529
 20
609.127
 11
-85.9882
 21
609.312
  0
LINE
  8
0
 10
-85.9882
 20
609.312
 11
-86
 21
609.5
  0
LINE
  8
0
 10
-86
 20
609.5
 11
-85.9882
 21
609.688
  0
LINE
  8
0
 10
-85.9882
 20
609.688
 11
-85.9529
 21
609.873
  0
LINE
  8
0
 10
-85.9529
 20
609.873
 11
-85.8947
 21
610.052
  0
LINE
  8
0
 10
-85.8947
 20
610.052
 11
-85.8145
 21
610.223
  0
LINE
  8
0
 10
-85.8145
 20
610.223
 11
-85.7135
 21
610.382
  0
LINE
  8
0
 10
-85.7135
 20
610.382
 11
-85.5934
 21
610.527
  0
LINE
  8
0
 10
-85.5934
 20
610.527
 11
-85.4561
 21
610.656
  0
LINE
  8
0
 10
-85.4561
 20
610.656
 11
-85.3037
 21
610.766
  0
LINE
  8
0
 10
-85.3037
 20
610.766
 11
-85.1387
 21
610.857
  0
LINE
  8
0
 10
-85.1387
 20
610.857
 11
-84.9635
 21
610.927
  0
LINE
  8
0
 10
-84.9635
 20
610.927
 11
-84.7811
 21
610.973
  0
LINE
  8
0
 10
-84.7811
 20
610.973
 11
-84.5942
 21
610.997
  0
LINE
  8
0
 10
-84.5942
 20
610.997
 11
-84.4058
 21
610.997
  0
LINE
  8
0
 10
-84.4058
 20
610.997
 11
-84.2189
 21
610.973
  0
LINE
  8
0
 10
-84.2189
 20
610.973
 11
-84.0365
 21
610.927
  0
LINE
  8
0
 10
-84.0365
 20
610.927
 11
-83.8613
 21
610.857
  0
LINE
  8
0
 10
-83.8613
 20
610.857
 11
-83.6963
 21
610.766
  0
LINE
  8
0
 10
-83.6963
 20
610.766
 11
-83.5439
 21
610.656
  0
LINE
  8
0
 10
-83.5439
 20
610.656
 11
-83.4065
 21
610.527
  0
LINE
  8
0
 10
-83.4065
 20
610.527
 11
-83.2865
 21
610.382
  0
LINE
  8
0
 10
-83.2865
 20
610.382
 11
-83.1855
 21
610.223
  0
LINE
  8
0
 10
-83.1855
 20
610.223
 11
-83.1053
 21
610.052
  0
LINE
  8
0
 10
-83.1053
 20
610.052
 11
-83.0471
 21
609.873
  0
LINE
  8
0
 10
-83.0471
 20
609.873
 11
-83.0118
 21
609.688
  0
LINE
  8
0
 10
-83.0118
 20
609.688
 11
-83
 21
609.5
  0
LINE
  8
0
 10
-83
 20
609.5
 11
-83.0118
 21
609.312
  0
LINE
  8
0
 10
-83.0118
 20
609.312
 11
-83.0471
 21
609.127
  0
LINE
  8
0
 10
-83.0471
 20
609.127
 11
-83.1053
 21
608.948
  0
LINE
  8
0
 10
-83.1053
 20
608.948
 11
-83.1855
 21
608.777
  0
LINE
  8
0
 10
-83.1855
 20
608.777
 11
-83.2865
 21
608.618
  0
LINE
  8
0
 10
-83.2865
 20
608.618
 11
-83.4065
 21
608.473
  0
LINE
  8
0
 10
-83.4065
 20
608.473
 11
-83.5439
 21
608.344
  0
LINE
  8
0
 10
-83.5439
 20
608.344
 11
-83.6963
 21
608.234
  0
LINE
  8
0
 10
-83.6963
 20
608.234
 11
-83.8613
 21
608.143
  0
LINE
  8
0
 10
-83.8613
 20
608.143
 11
-84.0365
 21
608.073
  0
LINE
  8
0
 10
-84.0365
 20
608.073
 11
-84.2189
 21
608.027
  0
LINE
  8
0
 10
-84.2189
 20
608.027
 11
-84.4058
 21
608.003
  0
LINE
  8
0
 10
-84.4058
 20
608.003
 11
-84.5942
 21
608.003
  0
LINE
  8
0
 10
500
 20
550
 11
0
 21
550
  0
LINE
  8
0
 10
0
 20
550
 11
0
 21
50
  0
LINE
  8
0
 10
0
 20
50
 11
500
 21
50
  0
LINE
  8
0
 10
500
 20
50
 11
500
 21
550
  0
LINE
  8
0
 10
150
 20
300
 11
150
 21
450
  0
LINE
  8
0
 10
150
 20
450
 11
350
 21
450
  0
LINE
  8
0
 10
350
 20
450
 11
350
 21
300
  0
LINE
  8
0
 10
350
 20
300
 11
150
 21
300
  0
LINE
  8
0
 10
234.406
 20
104.003
 11
234.219
 21
104.027
  0
LINE
  8
0
 10
234.219
 20
104.027
 11
234.036
 21
104.073
  0
LINE
  8
0
 10
234.036
 20
104.073
 11
233.861
 21
104.143
  0
LINE
  8
0
 10
233.861
 20
104.143
 11
233.696
 21
104.234
  0
LINE
  8
0
 10
233.696
 20
104.234
 11
233.544
 21
104.344
  0
LINE
  8
0
 10
233.544
 20
104.344
 11
233.407
 21
104.473
  0
LINE
  8
0
 10
233.407
 20
104.473
 11
233.286
 21
104.618
  0
LINE
  8
0
 10
233.286
 20
104.618
 11
233.186
 21
104.777
  0
LINE
  8
0
 10
233.186
 20
104.777
 11
233.105
 21
104.948
  0
LINE
  8
0
 10
233.105
 20
104.948
 11
233.047
 21
105.127
  0
LINE
  8
0
 10
233.047
 20
105.127
 11
233.012
 21
105.312
  0
LINE
  8
0
 10
233.012
 20
105.312
 11
233
 21
105.5
  0
LINE
  8
0
 10
233
 20
105.5
 11
233.012
 21
105.688
  0
LINE
  8
0
 10
233.012
 20
105.688
 11
233.047
 21
105.873
  0
LINE
  8
0
 10
233.047
 20
105.873
 11
233.105
 21
106.052
  0
LINE
  8
0
 10
233.105
 20
106.052
 11
233.186
 21
106.223
  0
LINE
  8
0
 10
233.186
 20
106.223
 11
233.286
 21
106.382
  0
LINE
  8
0
 10
233.286
 20
106.382
 11
233.407
 21
106.527
  0
LINE
  8
0
 10
233.407
 20
106.527
 11
233.544
 21
106.656
  0
LINE
  8
0
 10
233.544
 20
106.656
 11
233.696
 21
106.766
  0
LINE
  8
0
 10
233.696
 20
106.766
 11
233.861
 21
106.857
  0
LINE
  8
0
 10
233.861
 20
106.857
 11
234.036
 21
106.927
  0
LINE
  8
0
 10
234.036
 20
106.927
 11
234.219
 21
106.973
  0
LINE
  8
0
 10
234.219
 20
106.973
 11
234.406
 21
106.997
  0
LINE
  8
0
 10
234.406
 20
106.997
 11
234.594
 21
106.997
  0
LINE
  8
0
 10
234.594
 20
106.997
 11
234.781
 21
106.973
  0
LINE
  8
0
 10
234.781
 20
106.973
 11
234.964
 21
106.927
  0
LINE
  8
0
 10
234.964
 20
106.927
 11
235.139
 21
106.857
  0
LINE
  8
0
 10
235.139
 20
106.857
 11
235.304
 21
106.766
  0
LINE
  8
0
 10
235.304
 20
106.766
 11
235.456
 21
106.656
  0
LINE
  8
0
 10
235.456
 20
106.656
 11
235.593
 21
106.527
  0
LINE
  8
0
 10
235.593
 20
106.527
 11
235.714
 21
106.382
  0
LINE
  8
0
 10
235.714
 20
106.382
 11
235.814
 21
106.223
  0
LINE
  8
0
 10
235.814
 20
106.223
 11
235.895
 21
106.052
  0
LINE
  8
0
 10
235.895
 20
106.052
 11
235.953
 21
105.873
  0
LINE
  8
0
 10
235.953
 20
105.873
 11
235.988
 21
105.688
  0
LINE
  8
0
 10
235.988
 20
105.688
 11
236
 21
105.5
  0
LINE
  8
0
 10
236
 20
105.5
 11
235.988
 21
105.312
  0
LINE
  8
0
 10
235.988
 20
105.312
 11
235.953
 21
105.127
  0
LINE
  8
0
 10
235.953
 20
105.127
 11
235.895
 21
104.948
  0
LINE
  8
0
 10
235.895
 20
104.948
 11
235.814
 21
104.777
  0
LINE
  8
0
 10
235.814
 20
104.777
 11
235.714
 21
104.618
  0
LINE
  8
0
 10
235.714
 20
104.618
 11
235.593
 21
104.473
  0
LINE
  8
0
 10
235.593
 20
104.473
 11
235.456
 21
104.344
  0
LINE
  8
0
 10
235.456
 20
104.344
 11
235.304
 21
104.234
  0
LINE
  8
0
 10
235.304
 20
104.234
 11
235.139
 21
104.143
  0
LINE
  8
0
 10
235.139
 20
104.143
 11
234.964
 21
104.073
  0
LINE
  8
0
 10
234.964
 20
104.073
 11
234.781
 21
104.027
  0
LINE
  8
0
 10
234.781
 20
104.027
 11
234.594
 21
104.003
  0
LINE
  8
0
 10
234.594
 20
104.003
 11
234.406
 21
104.003
  0
LINE
  8
0
 10
265.406
 20
104.003
 11
265.219
 21
104.027
  0
LINE
  8
0
 10
265.219
 20
104.027
 11
265.036
 21
104.073
  0
LINE
  8
0
 10
265.036
 20
104.073
 11
264.861
 21
104.143
  0
LINE
  8
0
 10
264.861
 20
104.143
 11
264.696
 21
104.234
  0
LINE
  8
0
 10
264.696
 20
104.234
 11
264.544
 21
104.344
  0
LINE
  8
0
 10
264.544
 20
104.344
 11
264.407
 21
104.473
  0
LINE
  8
0
 10
264.407
 20
104.473
 11
264.286
 21
104.618
  0
LINE
  8
0
 10
264.286
 20
104.618
 11
264.186
 21
104.777
  0
LINE
  8
0
 10
264.186
 20
104.777
 11
264.105
 21
104.948
  0
LINE
  8
0
 10
264.105
 20
104.948
 11
264.047
 21
105.127
  0
LINE
  8
0
 10
264.047
 20
105.127
 11
264.012
 21
105.312
  0
LINE
  8
0
 10
264.012
 20
105.312
 11
264
 21
105.5
  0
LINE
  8
0
 10
264
 20
105.5
 11
264.012
 21
105.688
  0
LINE
  8
0
 10
264.012
 20
105.688
 11
264.047
 21
105.873
  0
LINE
  8
0
 10
264.047
 20
105.873
 11
264.105
 21
106.052
  0
LINE
  8
0
 10
264.105
 20
106.052
 11
264.186
 21
106.223
  0
LINE
  8
0
 10
264.186
 20
106.223
 11
264.286
 21
106.382
  0
LINE
  8
0
 10
264.286
 20
106.382
 11
264.407
 21
106.527
  0
LINE
  8
0
 10
264.407
 20
106.527
 11
264.544
 21
106.656
  0
LINE
  8
0
 10
264.544
 20
106.656
 11
264.696
 21
106.766
  0
LINE
  8
0
 10
264.696
 20
106.766
 11
264.861
 21
106.857
  0
LINE
  8
0
 10
264.861
 20
106.857
 11
265.036
 21
106.927
  0
LINE
  8
0
 10
265.036
 20
106.927
 11
265.219
 21
106.973
  0
LINE
  8
0
 10
265.219
 20
106.973
 11
265.406
 21
106.997
  0
LINE
  8
0
 10
265.406
 20
106.997
 11
265.594
 21
106.997
  0
LINE
  8
0
 10
265.594
 20
106.997
 11
265.781
 21
106.973
  0
LINE
  8
0
 10
265.781
 20
106.973
 11
265.964
 21
106.927
  0
LINE
  8
0
 10
265.964
 20
106.927
 11
266.139
 21
106.857
  0
LINE
  8
0
 10
266.139
 20
106.857
 11
266.304
 21
106.766
  0
LINE
  8
0
 10
266.304
 20
106.766
 11
266.456
 21
106.656
  0
LINE
  8
0
 10
266.456
 20
106.656
 11
266.593
 21
106.527
  0
LINE
  8
0
 10
266.593
 20
106.527
 11
266.714
 21
106.382
  0
LINE
  8
0
 10
266.714
 20
106.382
 11
266.814
 21
106.223
  0
LINE
  8
0
 10
266.814
 20
106.223
 11
266.895
 21
106.052
  0
LINE
  8
0
 10
266.895
 20
106.052
 11
266.953
 21
105.873
  0
LINE
  8
0
 10
266.953
 20
105.873
 11
266.988
 21
105.688
  0
LINE
  8
0
 10
266.988
 20
105.688
 11
267
 21
105.5
  0
LINE
  8
0
 10
267
 20
105.5
 11
266.988
 21
105.312
  0
LINE
  8
0
 10
266.988
 20
105.312
 11
266.953
 21
105.127
  0
LINE
  8
0
 10
266.953
 20
105.127
 11
266.895
 21
104.948
  0
LINE
  8
0
 10
266.895
 20
104.948
 11
266.814
 21
104.777
  0
LINE
  8
0
 10
266.814
 20
104.777
 11
266.714
 21
104.618
  0
LINE
  8
0
 10
266.714
 20
104.618
 11
266.593
 21
104.473
  0
LINE
  8
0
 10
266.593
 20
104.473
 11
266.456
 21
104.344
  0
LINE
  8
0
 10
266.456
 20
104.344
 11
266.304
 21
104.234
  0
LINE
  8
0
 10
266.304
 20
104.234
 11
266.139
 21
104.143
  0
LINE
  8
0
 10
266.139
 20
104.143
 11
265.964
 21
104.073
  0
LINE
  8
0
 10
265.964
 20
104.073
 11
265.781
 21
104.027
  0
LINE
  8
0
 10
265.781
 20
104.027
 11
265.594
 21
104.003
  0
LINE
  8
0
 10
265.594
 20
104.003
 11
265.406
 21
104.003
  0
LINE
  8
0
 10
249.247
 20
78.0237
 11
247.751
 21
78.2126
  0
LINE
  8
0
 10
247.751
 20
78.2126
 11
246.292
 21
78.5873
  0
LINE
  8
0
 10
246.292
 20
78.5873
 11
244.891
 21
79.1421
  0
LINE
  8
0
 10
244.891
 20
79.1421
 11
243.57
 21
79.8681
  0
LINE
  8
0
 10
243.57
 20
79.8681
 11
242.351
 21
80.7538
  0
LINE
  8
0
 10
242.351
 20
80.7538
 11
241.252
 21
81.7854
  0
LINE
  8
0
 10
241.252
 20
81.7854
 11
240.292
 21
82.9466
  0
LINE
  8
0
 10
240.292
 20
82.9466
 11
239.484
 21
84.2189
  0
LINE
  8
0
 10
239.484
 20
84.2189
 11
238.843
 21
85.5825
  0
LINE
  8
0
 10
238.843
 20
85.5825
 11
238.377
 21
87.0157
  0
LINE
  8
0
 10
238.377
 20
87.0157
 11
238.095
 21
88.496
  0
LINE
  8
0
 10
238.095
 20
88.496
 11
238
 21
90
  0
LINE
  8
0
 10
238
 20
90
 11
238.095
 21
91.504
  0
LINE
  8
0
 10
238.095
 20
91.504
 11
238.377
 21
92.9843
  0
LINE
  8
0
 10
238.377
 20
92.9843
 11
238.843
 21
94.4175
  0
LINE
  8
0
 10
238.843
 20
94.4175
 11
239.484
 21
95.781
  0
LINE
  8
0
 10
239.484
 20
95.781
 11
240.292
 21
97.0534
  0
LINE
  8
0
 10
240.292
 20
97.0534
 11
241.252
 21
98.2146
  0
LINE
  8
0
 10
241.252
 20
98.2146
 11
242.351
 21
99.2462
  0
LINE
  8
0
 10
242.351
 20
99.2462
 11
243.57
 21
100.132
  0
LINE
  8
0
 10
243.57
 20
100.132
 11
244.891
 21
100.858
  0
LINE
  8
0
 10
244.891
 20
100.858
 11
246.292
 21
101.413
  0
LINE
  8
0
 10
246.292
 20
101.413
 11
247.751
 21
101.787
  0
LINE
  8
0
 10
247.751
 20
101.787
 11
249.247
 21
101.976
  0
LINE
  8
0
 10
249.247
 20
101.976
 11
250.753
 21
101.976
  0
LINE
  8
0
 10
250.753
 20
101.976
 11
252.249
 21
101.787
  0
LINE
  8
0
 10
252.249
 20
101.787
 11
253.708
 21
101.413
  0
LINE
  8
0
 10
253.708
 20
101.413
 11
255.109
 21
100.858
  0
LINE
  8
0
 10
255.109
 20
100.858
 11
256.43
 21
100.132
  0
LINE
  8
0
 10
256.43
 20
100.132
 11
257.649
 21
99.2462
  0
LINE
  8
0
 10
257.649
 20
99.2462
 11
258.748
 21
98.2146
  0
LINE
  8
0
 10
258.748
 20
98.2146
 11
259.708
 21
97.0534
  0
LINE
  8
0
 10
259.708
 20
97.0534
 11
260.516
 21
95.781
  0
LINE
  8
0
 10
260.516
 20
95.781
 11
261.157
 21
94.4175
  0
LINE
  8
0
 10
261.157
 20
94.4175
 11
261.623
 21
92.9843
  0
LINE
  8
0
 10
261.623
 20
92.9843
 11
261.905
 21
91.504
  0
LINE
  8
0
 10
261.905
 20
91.504
 11
262
 21
90
  0
LINE
  8
0
 10
262
 20
90
 11
261.905
 21
88.496
  0
LINE
  8
0
 10
261.905
 20
88.496
 11
261.623
 21
87.0157
  0
LINE
  8
0
 10
261.623
 20
87.0157
 11
261.157
 21
85.5825
  0
LINE
  8
0
 10
261.157
 20
85.5825
 11
260.516
 21
84.2189
  0
LINE
  8
0
 10
260.516
 20
84.2189
 11
259.708
 21
82.9466
  0
LINE
  8
0
 10
259.708
 20
82.9466
 11
258.748
 21
81.7854
  0
LINE
  8
0
 10
258.748
 20
81.7854
 11
257.649
 21
80.7538
  0
LINE
  8
0
 10
257.649
 20
80.7538
 11
256.43
 21
79.8681
  0
LINE
  8
0
 10
256.43
 20
79.8681
 11
255.109
 21
79.1421
  0
LINE
  8
0
 10
255.109
 20
79.1421
 11
253.708
 21
78.5873
  0
LINE
  8
0
 10
253.708
 20
78.5873
 11
252.249
 21
78.2126
  0
LINE
  8
0
 10
252.249
 20
78.2126
 11
250.753
 21
78.0237
  0
LINE
  8
0
 10
250.753
 20
78.0237
 11
249.247
 21
78.0237
  0
LINE
  8
0
 10
166.415
 20
86.0079
 11
165.917
 21
86.0708
  0
LINE
  8
0
 10
165.917
 20
86.0708
 11
165.431
 21
86.1958
  0
LINE
  8
0
 10
165.431
 20
86.1958
 11
164.964
 21
86.3807
  0
LINE
  8
0
 10
164.964
 20
86.3807
 11
164.523
 21
86.6227
  0
LINE
  8
0
 10
164.523
 20
86.6227
 11
164.117
 21
86.9179
  0
LINE
  8
0
 10
164.117
 20
86.9179
 11
163.751
 21
87.2618
  0
LINE
  8
0
 10
163.751
 20
87.2618
 11
163.431
 21
87.6488
  0
LINE
  8
0
 10
163.431
 20
87.6488
 11
163.161
 21
88.073
  0
LINE
  8
0
 10
163.161
 20
88.073
 11
162.948
 21
88.5275
  0
LINE
  8
0
 10
162.948
 20
88.5275
 11
162.792
 21
89.0052
  0
LINE
  8
0
 10
162.792
 20
89.0052
 11
162.698
 21
89.4987
  0
LINE
  8
0
 10
162.698
 20
89.4987
 11
162.667
 21
90
  0
LINE
  8
0
 10
162.667
 20
90
 11
162.698
 21
90.5013
  0
LINE
  8
0
 10
162.698
 20
90.5013
 11
162.792
 21
90.9948
  0
LINE
  8
0
 10
162.792
 20
90.9948
 11
162.948
 21
91.4725
  0
LINE
  8
0
 10
162.948
 20
91.4725
 11
163.161
 21
91.927
  0
LINE
  8
0
 10
163.161
 20
91.927
 11
163.431
 21
92.3511
  0
LINE
  8
0
 10
163.431
 20
92.3511
 11
163.751
 21
92.7382
  0
LINE
  8
0
 10
163.751
 20
92.7382
 11
164.117
 21
93.082
  0
LINE
  8
0
 10
164.117
 20
93.082
 11
164.523
 21
93.3773
  0
LINE
  8
0
 10
164.523
 20
93.3773
 11
164.964
 21
93.6193
  0
LINE
  8
0
 10
164.964
 20
93.6193
 11
165.431
 21
93.8042
  0
LINE
  8
0
 10
165.431
 20
93.8042
 11
165.917
 21
93.9291
  0
LINE
  8
0
 10
165.917
 20
93.9291
 11
166.415
 21
93.9921
  0
LINE
  8
0
 10
166.415
 20
93.9921
 11
166.918
 21
93.9921
  0
LINE
  8
0
 10
166.918
 20
93.9921
 11
167.416
 21
93.9291
  0
LINE
  8
0
 10
167.416
 20
93.9291
 11
167.903
 21
93.8042
  0
LINE
  8
0
 10
167.903
 20
93.8042
 11
168.37
 21
93.6193
  0
LINE
  8
0
 10
168.37
 20
93.6193
 11
168.81
 21
93.3773
  0
LINE
  8
0
 10
168.81
 20
93.3773
 11
169.216
 21
93.082
  0
LINE
  8
0
 10
169.216
 20
93.082
 11
169.583
 21
92.7382
  0
LINE
  8
0
 10
169.583
 20
92.7382
 11
169.903
 21
92.3511
  0
LINE
  8
0
 10
169.903
 20
92.3511
 11
170.172
 21
91.927
  0
LINE
  8
0
 10
170.172
 20
91.927
 11
170.386
 21
91.4725
  0
LINE
  8
0
 10
170.386
 20
91.4725
 11
170.541
 21
90.9948
  0
LINE
  8
0
 10
170.541
 20
90.9948
 11
170.635
 21
90.5013
  0
LINE
  8
0
 10
170.635
 20
90.5013
 11
170.667
 21
90
  0
LINE
  8
0
 10
170.667
 20
90
 11
170.635
 21
89.4987
  0
LINE
  8
0
 10
170.635
 20
89.4987
 11
170.541
 21
89.0052
  0
LINE
  8
0
 10
170.541
 20
89.0052
 11
170.386
 21
88.5275
  0
LINE
  8
0
 10
170.386
 20
88.5275
 11
170.172
 21
88.073
  0
LINE
  8
0
 10
170.172
 20
88.073
 11
169.903
 21
87.6488
  0
LINE
  8
0
 10
169.903
 20
87.6488
 11
169.583
 21
87.2618
  0
LINE
  8
0
 10
169.583
 20
87.2618
 11
169.216
 21
86.9179
  0
LINE
  8
0
 10
169.216
 20
86.9179
 11
168.81
 21
86.6227
  0
LINE
  8
0
 10
168.81
 20
86.6227
 11
168.37
 21
86.3807
  0
LINE
  8
0
 10
168.37
 20
86.3807
 11
167.903
 21
86.1958
  0
LINE
  8
0
 10
167.903
 20
86.1958
 11
167.416
 21
86.0708
  0
LINE
  8
0
 10
167.416
 20
86.0708
 11
166.918
 21
86.0079
  0
LINE
  8
0
 10
166.918
 20
86.0079
 11
166.415
 21
86.0079
  0
LINE
  8
0
 10
333.082
 20
86.0079
 11
332.584
 21
86.0708
  0
LINE
  8
0
 10
332.584
 20
86.0708
 11
332.097
 21
86.1958
  0
LINE
  8
0
 10
332.097
 20
86.1958
 11
331.63
 21
86.3807
  0
LINE
  8
0
 10
331.63
 20
86.3807
 11
331.19
 21
86.6227
  0
LINE
  8
0
 10
331.19
 20
86.6227
 11
330.784
 21
86.9179
  0
LINE
  8
0
 10
330.784
 20
86.9179
 11
330.417
 21
87.2618
  0
LINE
  8
0
 10
330.417
 20
87.2618
 11
330.097
 21
87.6488
  0
LINE
  8
0
 10
330.097
 20
87.6488
 11
329.828
 21
88.073
  0
LINE
  8
0
 10
329.828
 20
88.073
 11
329.614
 21
88.5275
  0
LINE
  8
0
 10
329.614
 20
88.5275
 11
329.459
 21
89.0052
  0
LINE
  8
0
 10
329.459
 20
89.0052
 11
329.365
 21
89.4987
  0
LINE
  8
0
 10
329.365
 20
89.4987
 11
329.333
 21
90
  0
LINE
  8
0
 10
329.333
 20
90
 11
329.365
 21
90.5013
  0
LINE
  8
0
 10
329.365
 20
90.5013
 11
329.459
 21
90.9948
  0
LINE
  8
0
 10
329.459
 20
90.9948
 11
329.614
 21
91.4725
  0
LINE
  8
0
 10
329.614
 20
91.4725
 11
329.828
 21
91.927
  0
LINE
  8
0
 10
329.828
 20
91.927
 11
330.097
 21
92.3511
  0
LINE
  8
0
 10
330.097
 20
92.3511
 11
330.417
 21
92.7382
  0
LINE
  8
0
 10
330.417
 20
92.7382
 11
330.784
 21
93.082
  0
LINE
  8
0
 10
330.784
 20
93.082
 11
331.19
 21
93.3773
  0
LINE
  8
0
 10
331.19
 20
93.3773
 11
331.63
 21
93.6193
  0
LINE
  8
0
 10
331.63
 20
93.6193
 11
332.097
 21
93.8042
  0
LINE
  8
0
 10
332.097
 20
93.8042
 11
332.584
 21
93.9291
  0
LINE
  8
0
 10
332.584
 20
93.9291
 11
333.082
 21
93.9921
  0
LINE
  8
0
 10
333.082
 20
93.9921
 11
333.585
 21
93.9921
  0
LINE
  8
0
 10
333.585
 20
93.9921
 11
334.083
 21
93.9291
  0
LINE
  8
0
 10
334.083
 20
93.9291
 11
334.569
 21
93.8042
  0
LINE
  8
0
 10
334.569
 20
93.8042
 11
335.036
 21
93.6193
  0
LINE
  8
0
 10
335.036
 20
93.6193
 11
335.477
 21
93.3773
  0
LINE
  8
0
 10
335.477
 20
93.3773
 11
335.883
 21
93.082
  0
LINE
  8
0
 10
335.883
 20
93.082
 11
336.249
 21
92.7382
  0
LINE
  8
0
 10
336.249
 20
92.7382
 11
336.569
 21
92.3511
  0
LINE
  8
0
 10
336.569
 20
92.3511
 11
336.839
 21
91.927
  0
LINE
  8
0
 10
336.839
 20
91.927
 11
337.052
 21
91.4725
  0
LINE
  8
0
 10
337.052
 20
91.4725
 11
337.208
 21
90.9948
  0
LINE
  8
0
 10
337.208
 20
90.9948
 11
337.302
 21
90.5013
  0
LINE
  8
0
 10
337.302
 20
90.5013
 11
337.333
 21
90
  0
LINE
  8
0
 10
337.333
 20
90
 11
337.302
 21
89.4987
  0
LINE
  8
0
 10
337.302
 20
89.4987
 11
337.208
 21
89.0052
  0
LINE
  8
0
 10
337.208
 20
89.0052
 11
337.052
 21
88.5275
  0
LINE
  8
0
 10
337.052
 20
88.5275
 11
336.839
 21
88.073
  0
LINE
  8
0
 10
336.839
 20
88.073
 11
336.569
 21
87.6488
  0
LINE
  8
0
 10
336.569
 20
87.6488
 11
336.249
 21
87.2618
  0
LINE
  8
0
 10
336.249
 20
87.2618
 11
335.883
 21
86.9179
  0
LINE
  8
0
 10
335.883
 20
86.9179
 11
335.477
 21
86.6227
  0
LINE
  8
0
 10
335.477
 20
86.6227
 11
335.036
 21
86.3807
  0
LINE
  8
0
 10
335.036
 20
86.3807
 11
334.569
 21
86.1958
  0
LINE
  8
0
 10
334.569
 20
86.1958
 11
334.083
 21
86.0708
  0
LINE
  8
0
 10
334.083
 20
86.0708
 11
333.585
 21
86.0079
  0
LINE
  8
0
 10
333.585
 20
86.0079
 11
333.082
 21
86.0079
  0
LINE
  8
0
 10
234.406
 20
73.003
 11
234.219
 21
73.0266
  0
LINE
  8
0
 10
234.219
 20
73.0266
 11
234.036
 21
73.0734
  0
LINE
  8
0
 10
234.036
 20
73.0734
 11
233.861
 21
73.1428
  0
LINE
  8
0
 10
233.861
 20
73.1428
 11
233.696
 21
73.2335
  0
LINE
  8
0
 10
233.696
 20
73.2335
 11
233.544
 21
73.3442
  0
LINE
  8
0
 10
233.544
 20
73.3442
 11
233.407
 21
73.4732
  0
LINE
  8
0
 10
233.407
 20
73.4732
 11
233.286
 21
73.6183
  0
LINE
  8
0
 10
233.286
 20
73.6183
 11
233.186
 21
73.7774
  0
LINE
  8
0
 10
233.186
 20
73.7774
 11
233.105
 21
73.9478
  0
LINE
  8
0
 10
233.105
 20
73.9478
 11
233.047
 21
74.127
  0
LINE
  8
0
 10
233.047
 20
74.127
 11
233.012
 21
74.312
  0
LINE
  8
0
 10
233.012
 20
74.312
 11
233
 21
74.5
  0
LINE
  8
0
 10
233
 20
74.5
 11
233.012
 21
74.688
  0
LINE
  8
0
 10
233.012
 20
74.688
 11
233.047
 21
74.873
  0
LINE
  8
0
 10
233.047
 20
74.873
 11
233.105
 21
75.0522
  0
LINE
  8
0
 10
233.105
 20
75.0522
 11
233.186
 21
75.2226
  0
LINE
  8
0
 10
233.186
 20
75.2226
 11
233.286
 21
75.3817
  0
LINE
  8
0
 10
233.286
 20
75.3817
 11
233.407
 21
75.5268
  0
LINE
  8
0
 10
233.407
 20
75.5268
 11
233.544
 21
75.6558
  0
LINE
  8
0
 10
233.544
 20
75.6558
 11
233.696
 21
75.7665
  0
LINE
  8
0
 10
233.696
 20
75.7665
 11
233.861
 21
75.8572
  0
LINE
  8
0
 10
233.861
 20
75.8572
 11
234.036
 21
75.9266
  0
LINE
  8
0
 10
234.036
 20
75.9266
 11
234.219
 21
75.9734
  0
LINE
  8
0
 10
234.219
 20
75.9734
 11
234.406
 21
75.997
  0
LINE
  8
0
 10
234.406
 20
75.997
 11
234.594
 21
75.997
  0
LINE
  8
0
 10
234.594
 20
75.997
 11
234.781
 21
75.9734
  0
LINE
  8
0
 10
234.781
 20
75.9734
 11
234.964
 21
75.9266
  0
LINE
  8
0
 10
234.964
 20
75.9266
 11
235.139
 21
75.8572
  0
LINE
  8
0
 10
235.139
 20
75.8572
 11
235.304
 21
75.7665
  0
LINE
  8
0
 10
235.304
 20
75.7665
 11
235.456
 21
75.6558
  0
LINE
  8
0
 10
235.456
 20
75.6558
 11
235.593
 21
75.5268
  0
LINE
  8
0
 10
235.593
 20
75.5268
 11
235.714
 21
75.3817
  0
LINE
  8
0
 10
235.714
 20
75.3817
 11
235.814
 21
75.2226
  0
LINE
  8
0
 10
235.814
 20
75.2226
 11
235.895
 21
75.0522
  0
LINE
  8
0
 10
235.895
 20
75.0522
 11
235.953
 21
74.873
  0
LINE
  8
0
 10
235.953
 20
74.873
 11
235.988
 21
74.688
  0
LINE
  8
0
 10
235.988
 20
74.688
 11
236
 21
74.5
  0
LINE
  8
0
 10
236
 20
74.5
 11
235.988
 21
74.312
  0
LINE
  8
0
 10
235.988
 20
74.312
 11
235.953
 21
74.127
  0
LINE
  8
0
 10
235.953
 20
74.127
 11
235.895
 21
73.9478
  0
LINE
  8
0
 10
235.895
 20
73.9478
 11
235.814
 21
73.7774
  0
LINE
  8
0
 10
235.814
 20
73.7774
 11
235.714
 21
73.6183
  0
LINE
  8
0
 10
235.714
 20
73.6183
 11
235.593
 21
73.4732
  0
LINE
  8
0
 10
235.593
 20
73.4732
 11
235.456
 21
73.3442
  0
LINE
  8
0
 10
235.456
 20
73.3442
 11
235.304
 21
73.2335
  0
LINE
  8
0
 10
235.304
 20
73.2335
 11
235.139
 21
73.1428
  0
LINE
  8
0
 10
235.139
 20
73.1428
 11
234.964
 21
73.0734
  0
LINE
  8
0
 10
234.964
 20
73.0734
 11
234.781
 21
73.0266
  0
LINE
  8
0
 10
234.781
 20
73.0266
 11
234.594
 21
73.003
  0
LINE
  8
0
 10
234.594
 20
73.003
 11
234.406
 21
73.003
  0
LINE
  8
0
 10
265.406
 20
73.003
 11
265.219
 21
73.0266
  0
LINE
  8
0
 10
265.219
 20
73.0266
 11
265.036
 21
73.0734
  0
LINE
  8
0
 10
265.036
 20
73.0734
 11
264.861
 21
73.1428
  0
LINE
  8
0
 10
264.861
 20
73.1428
 11
264.696
 21
73.2335
  0
LINE
  8
0
 10
264.696
 20
73.2335
 11
264.544
 21
73.3442
  0
LINE
  8
0
 10
264.544
 20
73.3442
 11
264.407
 21
73.4732
  0
LINE
  8
0
 10
264.407
 20
73.4732
 11
264.286
 21
73.6183
  0
LINE
  8
0
 10
264.286
 20
73.6183
 11
264.186
 21
73.7774
  0
LINE
  8
0
 10
264.186
 20
73.7774
 11
264.105
 21
73.9478
  0
LINE
  8
0
 10
264.105
 20
73.9478
 11
264.047
 21
74.127
  0
LINE
  8
0
 10
264.047
 20
74.127
 11
264.012
 21
74.312
  0
LINE
  8
0
 10
264.012
 20
74.312
 11
264
 21
74.5
  0
LINE
  8
0
 10
264
 20
74.5
 11
264.012
 21
74.688
  0
LINE
  8
0
 10
264.012
 20
74.688
 11
264.047
 21
74.873
  0
LINE
  8
0
 10
264.047
 20
74.873
 11
264.105
 21
75.0522
  0
LINE
  8
0
 10
264.105
 20
75.0522
 11
264.186
 21
75.2226
  0
LINE
  8
0
 10
264.186
 20
75.2226
 11
264.286
 21
75.3817
  0
LINE
  8
0
 10
264.286
 20
75.3817
 11
264.407
 21
75.5268
  0
LINE
  8
0
 10
264.407
 20
75.5268
 11
264.544
 21
75.6558
  0
LINE
  8
0
 10
264.544
 20
75.6558
 11
264.696
 21
75.7665
  0
LINE
  8
0
 10
264.696
 20
75.7665
 11
264.861
 21
75.8572
  0
LINE
  8
0
 10
264.861
 20
75.8572
 11
265.036
 21
75.9266
  0
LINE
  8
0
 10
265.036
 20
75.9266
 11
265.219
 21
75.9734
  0
LINE
  8
0
 10
265.219
 20
75.9734
 11
265.406
 21
75.997
  0
LINE
  8
0
 10
265.406
 20
75.997
 11
265.594
 21
75.997
  0
LINE
  8
0
 10
265.594
 20
75.997
 11
265.781
 21
75.9734
  0
LINE
  8
0
 10
265.781
 20
75.9734
 11
265.964
 21
75.9266
  0
LINE
  8
0
 10
265.964
 20
75.9266
 11
266.139
 21
75.8572
  0
LINE
  8
0
 10
266.139
 20
75.8572
 11
266.304
 21
75.7665
  0
LINE
  8
0
 10
266.304
 20
75.7665
 11
266.456
 21
75.6558
  0
LINE
  8
0
 10
266.456
 20
75.6558
 11
266.593
 21
75.5268
  0
LINE
  8
0
 10
266.593
 20
75.5268
 11
266.714
 21
75.3817
  0
LINE
  8
0
 10
266.714
 20
75.3817
 11
266.814
 21
75.2226
  0
LINE
  8
0
 10
266.814
 20
75.2226
 11
266.895
 21
75.0522
  0
LINE
  8
0
 10
266.895
 20
75.0522
 11
266.953
 21
74.873
  0
LINE
  8
0
 10
266.953
 20
74.873
 11
266.988
 21
74.688
  0
LINE
  8
0
 10
266.988
 20
74.688
 11
267
 21
74.5
  0
LINE
  8
0
 10
267
 20
74.5
 11
266.988
 21
74.312
  0
LINE
  8
0
 10
266.988
 20
74.312
 11
266.953
 21
74.127
  0
LINE
  8
0
 10
266.953
 20
74.127
 11
266.895
 21
73.9478
  0
LINE
  8
0
 10
266.895
 20
73.9478
 11
266.814
 21
73.7774
  0
LINE
  8
0
 10
266.814
 20
73.7774
 11
266.714
 21
73.6183
  0
LINE
  8
0
 10
266.714
 20
73.6183
 11
266.593
 21
73.4732
  0
LINE
  8
0
 10
266.593
 20
73.4732
 11
266.456
 21
73.3442
  0
LINE
  8
0
 10
266.456
 20
73.3442
 11
266.304
 21
73.2335
  0
LINE
  8
0
 10
266.304
 20
73.2335
 11
266.139
 21
73.1428
  0
LINE
  8
0
 10
266.139
 20
73.1428
 11
265.964
 21
73.0734
  0
LINE
  8
0
 10
265.964
 20
73.0734
 11
265.781
 21
73.0266
  0
LINE
  8
0
 10
265.781
 20
73.0266
 11
265.594
 21
73.003
  0
LINE
  8
0
 10
265.594
 20
73.003
 11
265.406
 21
73.003
  0
LINE
  8
0
 10
-50
 20
537.3
 11
-550
 21
537.3
  0
LINE
  8
0
 10
-550
 20
537.3
 11
-550
 21
337.3
  0
LINE
  8
0
 10
-550
 20
337.3
 11
-180
 21
337.3
  0
LINE
  8
0
 10
-180
 20
337.3
 11
-169.604
 21
336.207
  0
LINE
  8
0
 10
-169.604
 20
336.207
 11
-159.663
 21
332.977
  0
LINE
  8
0
 10
-159.663
 20
332.977
 11
-150.611
 21
327.751
  0
LINE
  8
0
 10
-150.611
 20
327.751
 11
-142.843
 21
320.757
  0
LINE
  8
0
 10
-142.843
 20
320.757
 11
-136.699
 21
312.3
  0
LINE
  8
0
 10
-136.699
 20
312.3
 11
-132.447
 21
302.751
  0
LINE
  8
0
 10
-132.447
 20
302.751
 11
-130.274
 21
292.526
  0
LINE
  8
0
 10
-130.274
 20
292.526
 11
-130.274
 21
287.3
  0
LINE
  8
0
 10
-130.274
 20
287.3
 11
-130
 21
287.3
  0
LINE
  8
0
 10
-130
 20
287.3
 11
-130
 21
62.7
  0
LINE
  8
0
 10
-130
 20
62.7
 11
-50
 21
62.7
  0
LINE
  8
0
 10
-50
 20
62.7
 11
-50
 21
537.3
  0
LINE
  8
0
 10
-390.688
 20
411.312
 11
-390.873
 21
411.347
  0
LINE
  8
0
 10
-390.873
 20
411.347
 11
-391.052
 21
411.405
  0
LINE
  8
0
 10
-391.052
 20
411.405
 11
-391.223
 21
411.486
  0
LINE
  8
0
 10
-391.223
 20
411.486
 11
-391.382
 21
411.586
  0
LINE
  8
0
 10
-391.382
 20
411.586
 11
-391.527
 21
411.707
  0
LINE
  8
0
 10
-391.527
 20
411.707
 11
-391.656
 21
411.844
  0
LINE
  8
0
 10
-391.656
 20
411.844
 11
-391.766
 21
411.996
  0
LINE
  8
0
 10
-391.766
 20
411.996
 11
-391.857
 21
412.161
  0
LINE
  8
0
 10
-391.857
 20
412.161
 11
-391.927
 21
412.336
  0
LINE
  8
0
 10
-391.927
 20
412.336
 11
-391.973
 21
412.519
  0
LINE
  8
0
 10
-391.973
 20
412.519
 11
-391.997
 21
412.706
  0
LINE
  8
0
 10
-391.997
 20
412.706
 11
-391.997
 21
412.894
  0
LINE
  8
0
 10
-391.997
 20
412.894
 11
-391.973
 21
413.081
  0
LINE
  8
0
 10
-391.973
 20
413.081
 11
-391.927
 21
413.264
  0
LINE
  8
0
 10
-391.927
 20
413.264
 11
-391.857
 21
413.439
  0
LINE
  8
0
 10
-391.857
 20
413.439
 11
-391.766
 21
413.604
  0
LINE
  8
0
 10
-391.766
 20
413.604
 11
-391.656
 21
413.756
  0
LINE
  8
0
 10
-391.656
 20
413.756
 11
-391.527
 21
413.893
  0
LINE
  8
0
 10
-391.527
 20
413.893
 11
-391.382
 21
414.014
  0
LINE
  8
0
 10
-391.382
 20
414.014
 11
-391.223
 21
414.114
  0
LINE
  8
0
 10
-391.223
 20
414.114
 11
-391.052
 21
414.195
  0
LINE
  8
0
 10
-391.052
 20
414.195
 11
-390.873
 21
414.253
  0
LINE
  8
0
 10
-390.873
 20
414.253
 11
-390.688
 21
414.288
  0
LINE
  8
0
 10
-390.688
 20
414.288
 11
-390.5
 21
414.3
  0
LINE
  8
0
 10
-390.5
 20
414.3
 11
-390.312
 21
414.288
  0
LINE
  8
0
 10
-390.312
 20
414.288
 11
-390.127
 21
414.253
  0
LINE
  8
0
 10
-390.127
 20
414.253
 11
-389.948
 21
414.195
  0
LINE
  8
0
 10
-389.948
 20
414.195
 11
-389.777
 21
414.114
  0
LINE
  8
0
 10
-389.777
 20
414.114
 11
-389.618
 21
414.014
  0
LINE
  8
0
 10
-389.618
 20
414.014
 11
-389.473
 21
413.893
  0
LINE
  8
0
 10
-389.473
 20
413.893
 11
-389.344
 21
413.756
  0
LINE
  8
0
 10
-389.344
 20
413.756
 11
-389.234
 21
413.604
  0
LINE
  8
0
 10
-389.234
 20
413.604
 11
-389.143
 21
413.439
  0
LINE
  8
0
 10
-389.143
 20
413.439
 11
-389.073
 21
413.264
  0
LINE
  8
0
 10
-389.073
 20
413.264
 11
-389.027
 21
413.081
  0
LINE
  8
0
 10
-389.027
 20
413.081
 11
-389.003
 21
412.894
  0
LINE
  8
0
 10
-389.003
 20
412.894
 11
-389.003
 21
412.706
  0
LINE
  8
0
 10
-389.003
 20
412.706
 11
-389.027
 21
412.519
  0
LINE
  8
0
 10
-389.027
 20
412.519
 11
-389.073
 21
412.336
  0
LINE
  8
0
 10
-389.073
 20
412.336
 11
-389.143
 21
412.161
  0
LINE
  8
0
 10
-389.143
 20
412.161
 11
-389.234
 21
411.996
  0
LINE
  8
0
 10
-389.234
 20
411.996
 11
-389.344
 21
411.844
  0
LINE
  8
0
 10
-389.344
 20
411.844
 11
-389.473
 21
411.707
  0
LINE
  8
0
 10
-389.473
 20
411.707
 11
-389.618
 21
411.586
  0
LINE
  8
0
 10
-389.618
 20
411.586
 11
-389.777
 21
411.486
  0
LINE
  8
0
 10
-389.777
 20
411.486
 11
-389.948
 21
411.405
  0
LINE
  8
0
 10
-389.948
 20
411.405
 11
-390.127
 21
411.347
  0
LINE
  8
0
 10
-390.127
 20
411.347
 11
-390.312
 21
411.312
  0
LINE
  8
0
 10
-390.312
 20
411.312
 11
-390.5
 21
411.3
  0
LINE
  8
0
 10
-390.5
 20
411.3
 11
-390.688
 21
411.312
  0
LINE
  8
0
 10
-359.688
 20
411.312
 11
-359.873
 21
411.347
  0
LINE
  8
0
 10
-359.873
 20
411.347
 11
-360.052
 21
411.405
  0
LINE
  8
0
 10
-360.052
 20
411.405
 11
-360.223
 21
411.486
  0
LINE
  8
0
 10
-360.223
 20
411.486
 11
-360.382
 21
411.586
  0
LINE
  8
0
 10
-360.382
 20
411.586
 11
-360.527
 21
411.707
  0
LINE
  8
0
 10
-360.527
 20
411.707
 11
-360.656
 21
411.844
  0
LINE
  8
0
 10
-360.656
 20
411.844
 11
-360.766
 21
411.996
  0
LINE
  8
0
 10
-360.766
 20
411.996
 11
-360.857
 21
412.161
  0
LINE
  8
0
 10
-360.857
 20
412.161
 11
-360.927
 21
412.336
  0
LINE
  8
0
 10
-360.927
 20
412.336
 11
-360.973
 21
412.519
  0
LINE
  8
0
 10
-360.973
 20
412.519
 11
-360.997
 21
412.706
  0
LINE
  8
0
 10
-360.997
 20
412.706
 11
-360.997
 21
412.894
  0
LINE
  8
0
 10
-360.997
 20
412.894
 11
-360.973
 21
413.081
  0
LINE
  8
0
 10
-360.973
 20
413.081
 11
-360.927
 21
413.264
  0
LINE
  8
0
 10
-360.927
 20
413.264
 11
-360.857
 21
413.439
  0
LINE
  8
0
 10
-360.857
 20
413.439
 11
-360.766
 21
413.604
  0
LINE
  8
0
 10
-360.766
 20
413.604
 11
-360.656
 21
413.756
  0
LINE
  8
0
 10
-360.656
 20
413.756
 11
-360.527
 21
413.893
  0
LINE
  8
0
 10
-360.527
 20
413.893
 11
-360.382
 21
414.014
  0
LINE
  8
0
 10
-360.382
 20
414.014
 11
-360.223
 21
414.114
  0
LINE
  8
0
 10
-360.223
 20
414.114
 11
-360.052
 21
414.195
  0
LINE
  8
0
 10
-360.052
 20
414.195
 11
-359.873
 21
414.253
  0
LINE
  8
0
 10
-359.873
 20
414.253
 11
-359.688
 21
414.288
  0
LINE
  8
0
 10
-359.688
 20
414.288
 11
-359.5
 21
414.3
  0
LINE
  8
0
 10
-359.5
 20
414.3
 11
-359.312
 21
414.288
  0
LINE
  8
0
 10
-359.312
 20
414.288
 11
-359.127
 21
414.253
  0
LINE
  8
0
 10
-359.127
 20
414.253
 11
-358.948
 21
414.195
  0
LINE
  8
0
 10
-358.948
 20
414.195
 11
-358.777
 21
414.114
  0
LINE
  8
0
 10
-358.777
 20
414.114
 11
-358.618
 21
414.014
  0
LINE
  8
0
 10
-358.618
 20
414.014
 11
-358.473
 21
413.893
  0
LINE
  8
0
 10
-358.473
 20
413.893
 11
-358.344
 21
413.756
  0
LINE
  8
0
 10
-358.344
 20
413.756
 11
-358.234
 21
413.604
  0
LINE
  8
0
 10
-358.234
 20
413.604
 11
-358.143
 21
413.439
  0
LINE
  8
0
 10
-358.143
 20
413.439
 11
-358.073
 21
413.264
  0
LINE
  8
0
 10
-358.073
 20
413.264
 11
-358.027
 21
413.081
  0
LINE
  8
0
 10
-358.027
 20
413.081
 11
-358.003
 21
412.894
  0
LINE
  8
0
 10
-358.003
 20
412.894
 11
-358.003
 21
412.706
  0
LINE
  8
0
 10
-358.003
 20
412.706
 11
-358.027
 21
412.519
  0
LINE
  8
0
 10
-358.027
 20
412.519
 11
-358.073
 21
412.336
  0
LINE
  8
0
 10
-358.073
 20
412.336
 11
-358.143
 21
412.161
  0
LINE
  8
0
 10
-358.143
 20
412.161
 11
-358.234
 21
411.996
  0
LINE
  8
0
 10
-358.234
 20
411.996
 11
-358.344
 21
411.844
  0
LINE
  8
0
 10
-358.344
 20
411.844
 11
-358.473
 21
411.707
  0
LINE
  8
0
 10
-358.473
 20
411.707
 11
-358.618
 21
411.586
  0
LINE
  8
0
 10
-358.618
 20
411.586
 11
-358.777
 21
411.486
  0
LINE
  8
0
 10
-358.777
 20
411.486
 11
-358.948
 21
411.405
  0
LINE
  8
0
 10
-358.948
 20
411.405
 11
-359.127
 21
411.347
  0
LINE
  8
0
 10
-359.127
 20
411.347
 11
-359.312
 21
411.312
  0
LINE
  8
0
 10
-359.312
 20
411.312
 11
-359.5
 21
411.3
  0
LINE
  8
0
 10
-359.5
 20
411.3
 11
-359.688
 21
411.312
  0
LINE
  8
0
 10
-376.504
 20
385.395
 11
-377.984
 21
385.677
  0
LINE
  8
0
 10
-377.984
 20
385.677
 11
-379.417
 21
386.143
  0
LINE
  8
0
 10
-379.417
 20
386.143
 11
-380.781
 21
386.784
  0
LINE
  8
0
 10
-380.781
 20
386.784
 11
-382.053
 21
387.592
  0
LINE
  8
0
 10
-382.053
 20
387.592
 11
-383.215
 21
388.552
  0
LINE
  8
0
 10
-383.215
 20
388.552
 11
-384.246
 21
389.651
  0
LINE
  8
0
 10
-384.246
 20
389.651
 11
-385.132
 21
390.87
  0
LINE
  8
0
 10
-385.132
 20
390.87
 11
-385.858
 21
392.191
  0
LINE
  8
0
 10
-385.858
 20
392.191
 11
-386.413
 21
393.592
  0
LINE
  8
0
 10
-386.413
 20
393.592
 11
-386.787
 21
395.051
  0
LINE
  8
0
 10
-386.787
 20
395.051
 11
-386.976
 21
396.547
  0
LINE
  8
0
 10
-386.976
 20
396.547
 11
-386.976
 21
398.053
  0
LINE
  8
0
 10
-386.976
 20
398.053
 11
-386.787
 21
399.549
  0
LINE
  8
0
 10
-386.787
 20
399.549
 11
-386.413
 21
401.008
  0
LINE
  8
0
 10
-386.413
 20
401.008
 11
-385.858
 21
402.409
  0
LINE
  8
0
 10
-385.858
 20
402.409
 11
-385.132
 21
403.73
  0
LINE
  8
0
 10
-385.132
 20
403.73
 11
-384.246
 21
404.949
  0
LINE
  8
0
 10
-384.246
 20
404.949
 11
-383.215
 21
406.048
  0
LINE
  8
0
 10
-383.215
 20
406.048
 11
-382.053
 21
407.008
  0
LINE
  8
0
 10
-382.053
 20
407.008
 11
-380.781
 21
407.816
  0
LINE
  8
0
 10
-380.781
 20
407.816
 11
-379.417
 21
408.457
  0
LINE
  8
0
 10
-379.417
 20
408.457
 11
-377.984
 21
408.923
  0
LINE
  8
0
 10
-377.984
 20
408.923
 11
-376.504
 21
409.205
  0
LINE
  8
0
 10
-376.504
 20
409.205
 11
-375
 21
409.3
  0
LINE
  8
0
 10
-375
 20
409.3
 11
-373.496
 21
409.205
  0
LINE
  8
0
 10
-373.496
 20
409.205
 11
-372.016
 21
408.923
  0
LINE
  8
0
 10
-372.016
 20
408.923
 11
-370.583
 21
408.457
  0
LINE
  8
0
 10
-370.583
 20
408.457
 11
-369.219
 21
407.816
  0
LINE
  8
0
 10
-369.219
 20
407.816
 11
-367.947
 21
407.008
  0
LINE
  8
0
 10
-367.947
 20
407.008
 11
-366.785
 21
406.048
  0
LINE
  8
0
 10
-366.785
 20
406.048
 11
-365.754
 21
404.949
  0
LINE
  8
0
 10
-365.754
 20
404.949
 11
-364.868
 21
403.73
  0
LINE
  8
0
 10
-364.868
 20
403.73
 11
-364.142
 21
402.409
  0
LINE
  8
0
 10
-364.142
 20
402.409
 11
-363.587
 21
401.008
  0
LINE
  8
0
 10
-363.587
 20
401.008
 11
-363.213
 21
399.549
  0
LINE
  8
0
 10
-363.213
 20
399.549
 11
-363.024
 21
398.053
  0
LINE
  8
0
 10
-363.024
 20
398.053
 11
-363.024
 21
396.547
  0
LINE
  8
0
 10
-363.024
 20
396.547
 11
-363.213
 21
395.051
  0
LINE
  8
0
 10
-363.213
 20
395.051
 11
-363.587
 21
393.592
  0
LINE
  8
0
 10
-363.587
 20
393.592
 11
-364.142
 21
392.191
  0
LINE
  8
0
 10
-364.142
 20
392.191
 11
-364.868
 21
390.87
  0
LINE
  8
0
 10
-364.868
 20
390.87
 11
-365.754
 21
389.651
  0
LINE
  8
0
 10
-365.754
 20
389.651
 11
-366.785
 21
388.552
  0
LINE
  8
0
 10
-366.785
 20
388.552
 11
-367.947
 21
387.592
  0
LINE
  8
0
 10
-367.947
 20
387.592
 11
-369.219
 21
386.784
  0
LINE
  8
0
 10
-369.219
 20
386.784
 11
-370.583
 21
386.143
  0
LINE
  8
0
 10
-370.583
 20
386.143
 11
-372.016
 21
385.677
  0
LINE
  8
0
 10
-372.016
 20
385.677
 11
-373.496
 21
385.395
  0
LINE
  8
0
 10
-373.496
 20
385.395
 11
-375
 21
385.3
  0
LINE
  8
0
 10
-375
 20
385.3
 11
-376.504
 21
385.395
  0
LINE
  8
0
 10
-300.501
 20
393.332
 11
-300.995
 21
393.426
  0
LINE
  8
0
 10
-300.995
 20
393.426
 11
-301.473
 21
393.581
  0
LINE
  8
0
 10
-301.473
 20
393.581
 11
-301.927
 21
393.795
  0
LINE
  8
0
 10
-301.927
 20
393.795
 11
-302.351
 21
394.064
  0
LINE
  8
0
 10
-302.351
 20
394.064
 11
-302.738
 21
394.384
  0
LINE
  8
0
 10
-302.738
 20
394.384
 11
-303.082
 21
394.75
  0
LINE
  8
0
 10
-303.082
 20
394.75
 11
-303.377
 21
395.157
  0
LINE
  8
0
 10
-303.377
 20
395.157
 11
-303.619
 21
395.597
  0
LINE
  8
0
 10
-303.619
 20
395.597
 11
-303.804
 21
396.064
  0
LINE
  8
0
 10
-303.804
 20
396.064
 11
-303.929
 21
396.55
  0
LINE
  8
0
 10
-303.929
 20
396.55
 11
-303.992
 21
397.049
  0
LINE
  8
0
 10
-303.992
 20
397.049
 11
-303.992
 21
397.551
  0
LINE
  8
0
 10
-303.992
 20
397.551
 11
-303.929
 21
398.05
  0
LINE
  8
0
 10
-303.929
 20
398.05
 11
-303.804
 21
398.536
  0
LINE
  8
0
 10
-303.804
 20
398.536
 11
-303.619
 21
399.003
  0
LINE
  8
0
 10
-303.619
 20
399.003
 11
-303.377
 21
399.443
  0
LINE
  8
0
 10
-303.377
 20
399.443
 11
-303.082
 21
399.85
  0
LINE
  8
0
 10
-303.082
 20
399.85
 11
-302.738
 21
400.216
  0
LINE
  8
0
 10
-302.738
 20
400.216
 11
-302.351
 21
400.536
  0
LINE
  8
0
 10
-302.351
 20
400.536
 11
-301.927
 21
400.805
  0
LINE
  8
0
 10
-301.927
 20
400.805
 11
-301.473
 21
401.019
  0
LINE
  8
0
 10
-301.473
 20
401.019
 11
-300.995
 21
401.174
  0
LINE
  8
0
 10
-300.995
 20
401.174
 11
-300.501
 21
401.268
  0
LINE
  8
0
 10
-300.501
 20
401.268
 11
-300
 21
401.3
  0
LINE
  8
0
 10
-300
 20
401.3
 11
-299.499
 21
401.268
  0
LINE
  8
0
 10
-299.499
 20
401.268
 11
-299.005
 21
401.174
  0
LINE
  8
0
 10
-299.005
 20
401.174
 11
-298.527
 21
401.019
  0
LINE
  8
0
 10
-298.527
 20
401.019
 11
-298.073
 21
400.805
  0
LINE
  8
0
 10
-298.073
 20
400.805
 11
-297.649
 21
400.536
  0
LINE
  8
0
 10
-297.649
 20
400.536
 11
-297.262
 21
400.216
  0
LINE
  8
0
 10
-297.262
 20
400.216
 11
-296.918
 21
399.85
  0
LINE
  8
0
 10
-296.918
 20
399.85
 11
-296.623
 21
399.443
  0
LINE
  8
0
 10
-296.623
 20
399.443
 11
-296.381
 21
399.003
  0
LINE
  8
0
 10
-296.381
 20
399.003
 11
-296.196
 21
398.536
  0
LINE
  8
0
 10
-296.196
 20
398.536
 11
-296.071
 21
398.05
  0
LINE
  8
0
 10
-296.071
 20
398.05
 11
-296.008
 21
397.551
  0
LINE
  8
0
 10
-296.008
 20
397.551
 11
-296.008
 21
397.049
  0
LINE
  8
0
 10
-296.008
 20
397.049
 11
-296.071
 21
396.55
  0
LINE
  8
0
 10
-296.071
 20
396.55
 11
-296.196
 21
396.064
  0
LINE
  8
0
 10
-296.196
 20
396.064
 11
-296.381
 21
395.597
  0
LINE
  8
0
 10
-296.381
 20
395.597
 11
-296.623
 21
395.157
  0
LINE
  8
0
 10
-296.623
 20
395.157
 11
-296.918
 21
394.75
  0
LINE
  8
0
 10
-296.918
 20
394.75
 11
-297.262
 21
394.384
  0
LINE
  8
0
 10
-297.262
 20
394.384
 11
-297.649
 21
394.064
  0
LINE
  8
0
 10
-297.649
 20
394.064
 11
-298.073
 21
393.795
  0
LINE
  8
0
 10
-298.073
 20
393.795
 11
-298.527
 21
393.581
  0
LINE
  8
0
 10
-298.527
 20
393.581
 11
-299.005
 21
393.426
  0
LINE
  8
0
 10
-299.005
 20
393.426
 11
-299.499
 21
393.332
  0
LINE
  8
0
 10
-299.499
 20
393.332
 11
-300
 21
393.3
  0
LINE
  8
0
 10
-300
 20
393.3
 11
-300.501
 21
393.332
  0
LINE
  8
0
 10
-450.501
 20
393.332
 11
-450.995
 21
393.426
  0
LINE
  8
0
 10
-450.995
 20
393.426
 11
-451.473
 21
393.581
  0
LINE
  8
0
 10
-451.473
 20
393.581
 11
-451.927
 21
393.795
  0
LINE
  8
0
 10
-451.927
 20
393.795
 11
-452.351
 21
394.064
  0
LINE
  8
0
 10
-452.351
 20
394.064
 11
-452.738
 21
394.384
  0
LINE
  8
0
 10
-452.738
 20
394.384
 11
-453.082
 21
394.75
  0
LINE
  8
0
 10
-453.082
 20
394.75
 11
-453.377
 21
395.157
  0
LINE
  8
0
 10
-453.377
 20
395.157
 11
-453.619
 21
395.597
  0
LINE
  8
0
 10
-453.619
 20
395.597
 11
-453.804
 21
396.064
  0
LINE
  8
0
 10
-453.804
 20
396.064
 11
-453.929
 21
396.55
  0
LINE
  8
0
 10
-453.929
 20
396.55
 11
-453.992
 21
397.049
  0
LINE
  8
0
 10
-453.992
 20
397.049
 11
-453.992
 21
397.551
  0
LINE
  8
0
 10
-453.992
 20
397.551
 11
-453.929
 21
398.05
  0
LINE
  8
0
 10
-453.929
 20
398.05
 11
-453.804
 21
398.536
  0
LINE
  8
0
 10
-453.804
 20
398.536
 11
-453.619
 21
399.003
  0
LINE
  8
0
 10
-453.619
 20
399.003
 11
-453.377
 21
399.443
  0
LINE
  8
0
 10
-453.377
 20
399.443
 11
-453.082
 21
399.85
  0
LINE
  8
0
 10
-453.082
 20
399.85
 11
-452.738
 21
400.216
  0
LINE
  8
0
 10
-452.738
 20
400.216
 11
-452.351
 21
400.536
  0
LINE
  8
0
 10
-452.351
 20
400.536
 11
-451.927
 21
400.805
  0
LINE
  8
0
 10
-451.927
 20
400.805
 11
-451.473
 21
401.019
  0
LINE
  8
0
 10
-451.473
 20
401.019
 11
-450.995
 21
401.174
  0
LINE
  8
0
 10
-450.995
 20
401.174
 11
-450.501
 21
401.268
  0
LINE
  8
0
 10
-450.501
 20
401.268
 11
-450
 21
401.3
  0
LINE
  8
0
 10
-450
 20
401.3
 11
-449.499
 21
401.268
  0
LINE
  8
0
 10
-449.499
 20
401.268
 11
-449.005
 21
401.174
  0
LINE
  8
0
 10
-449.005
 20
401.174
 11
-448.527
 21
401.019
  0
LINE
  8
0
 10
-448.527
 20
401.019
 11
-448.073
 21
400.805
  0
LINE
  8
0
 10
-448.073
 20
400.805
 11
-447.649
 21
400.536
  0
LINE
  8
0
 10
-447.649
 20
400.536
 11
-447.262
 21
400.216
  0
LINE
  8
0
 10
-447.262
 20
400.216
 11
-446.918
 21
399.85
  0
LINE
  8
0
 10
-446.918
 20
399.85
 11
-446.623
 21
399.443
  0
LINE
  8
0
 10
-446.623
 20
399.443
 11
-446.381
 21
399.003
  0
LINE
  8
0
 10
-446.381
 20
399.003
 11
-446.196
 21
398.536
  0
LINE
  8
0
 10
-446.196
 20
398.536
 11
-446.071
 21
398.05
  0
LINE
  8
0
 10
-446.071
 20
398.05
 11
-446.008
 21
397.551
  0
LINE
  8
0
 10
-446.008
 20
397.551
 11
-446.008
 21
397.049
  0
LINE
  8
0
 10
-446.008
 20
397.049
 11
-446.071
 21
396.55
  0
LINE
  8
0
 10
-446.071
 20
396.55
 11
-446.196
 21
396.064
  0
LINE
  8
0
 10
-446.196
 20
396.064
 11
-446.381
 21
395.597
  0
LINE
  8
0
 10
-446.381
 20
395.597
 11
-446.623
 21
395.157
  0
LINE
  8
0
 10
-446.623
 20
395.157
 11
-446.918
 21
394.75
  0
LINE
  8
0
 10
-446.918
 20
394.75
 11
-447.262
 21
394.384
  0
LINE
  8
0
 10
-447.262
 20
394.384
 11
-447.649
 21
394.064
  0
LINE
  8
0
 10
-447.649
 20
394.064
 11
-448.073
 21
393.795
  0
LINE
  8
0
 10
-448.073
 20
393.795
 11
-448.527
 21
393.581
  0
LINE
  8
0
 10
-448.527
 20
393.581
 11
-449.005
 21
393.426
  0
LINE
  8
0
 10
-449.005
 20
393.426
 11
-449.499
 21
393.332
  0
LINE
  8
0
 10
-449.499
 20
393.332
 11
-450
 21
393.3
  0
LINE
  8
0
 10
-450
 20
393.3
 11
-450.501
 21
393.332
  0
LINE
  8
0
 10
-390.688
 20
380.312
 11
-390.873
 21
380.347
  0
LINE
  8
0
 10
-390.873
 20
380.347
 11
-391.052
 21
380.405
  0
LINE
  8
0
 10
-391.052
 20
380.405
 11
-391.223
 21
380.486
  0
LINE
  8
0
 10
-391.223
 20
380.486
 11
-391.382
 21
380.586
  0
LINE
  8
0
 10
-391.382
 20
380.586
 11
-391.527
 21
380.707
  0
LINE
  8
0
 10
-391.527
 20
380.707
 11
-391.656
 21
380.844
  0
LINE
  8
0
 10
-391.656
 20
380.844
 11
-391.766
 21
380.996
  0
LINE
  8
0
 10
-391.766
 20
380.996
 11
-391.857
 21
381.161
  0
LINE
  8
0
 10
-391.857
 20
381.161
 11
-391.927
 21
381.336
  0
LINE
  8
0
 10
-391.927
 20
381.336
 11
-391.973
 21
381.519
  0
LINE
  8
0
 10
-391.973
 20
381.519
 11
-391.997
 21
381.706
  0
LINE
  8
0
 10
-391.997
 20
381.706
 11
-391.997
 21
381.894
  0
LINE
  8
0
 10
-391.997
 20
381.894
 11
-391.973
 21
382.081
  0
LINE
  8
0
 10
-391.973
 20
382.081
 11
-391.927
 21
382.264
  0
LINE
  8
0
 10
-391.927
 20
382.264
 11
-391.857
 21
382.439
  0
LINE
  8
0
 10
-391.857
 20
382.439
 11
-391.766
 21
382.604
  0
LINE
  8
0
 10
-391.766
 20
382.604
 11
-391.656
 21
382.756
  0
LINE
  8
0
 10
-391.656
 20
382.756
 11
-391.527
 21
382.893
  0
LINE
  8
0
 10
-391.527
 20
382.893
 11
-391.382
 21
383.014
  0
LINE
  8
0
 10
-391.382
 20
383.014
 11
-391.223
 21
383.114
  0
LINE
  8
0
 10
-391.223
 20
383.114
 11
-391.052
 21
383.195
  0
LINE
  8
0
 10
-391.052
 20
383.195
 11
-390.873
 21
383.253
  0
LINE
  8
0
 10
-390.873
 20
383.253
 11
-390.688
 21
383.288
  0
LINE
  8
0
 10
-390.688
 20
383.288
 11
-390.5
 21
383.3
  0
LINE
  8
0
 10
-390.5
 20
383.3
 11
-390.312
 21
383.288
  0
LINE
  8
0
 10
-390.312
 20
383.288
 11
-390.127
 21
383.253
  0
LINE
  8
0
 10
-390.127
 20
383.253
 11
-389.948
 21
383.195
  0
LINE
  8
0
 10
-389.948
 20
383.195
 11
-389.777
 21
383.114
  0
LINE
  8
0
 10
-389.777
 20
383.114
 11
-389.618
 21
383.014
  0
LINE
  8
0
 10
-389.618
 20
383.014
 11
-389.473
 21
382.893
  0
LINE
  8
0
 10
-389.473
 20
382.893
 11
-389.344
 21
382.756
  0
LINE
  8
0
 10
-389.344
 20
382.756
 11
-389.234
 21
382.604
  0
LINE
  8
0
 10
-389.234
 20
382.604
 11
-389.143
 21
382.439
  0
LINE
  8
0
 10
-389.143
 20
382.439
 11
-389.073
 21
382.264
  0
LINE
  8
0
 10
-389.073
 20
382.264
 11
-389.027
 21
382.081
  0
LINE
  8
0
 10
-389.027
 20
382.081
 11
-389.003
 21
381.894
  0
LINE
  8
0
 10
-389.003
 20
381.894
 11
-389.003
 21
381.706
  0
LINE
  8
0
 10
-389.003
 20
381.706
 11
-389.027
 21
381.519
  0
LINE
  8
0
 10
-389.027
 20
381.519
 11
-389.073
 21
381.336
  0
LINE
  8
0
 10
-389.073
 20
381.336
 11
-389.143
 21
381.161
  0
LINE
  8
0
 10
-389.143
 20
381.161
 11
-389.234
 21
380.996
  0
LINE
  8
0
 10
-389.234
 20
380.996
 11
-389.344
 21
380.844
  0
LINE
  8
0
 10
-389.344
 20
380.844
 11
-389.473
 21
380.707
  0
LINE
  8
0
 10
-389.473
 20
380.707
 11
-389.618
 21
380.586
  0
LINE
  8
0
 10
-389.618
 20
380.586
 11
-389.777
 21
380.486
  0
LINE
  8
0
 10
-389.777
 20
380.486
 11
-389.948
 21
380.405
  0
LINE
  8
0
 10
-389.948
 20
380.405
 11
-390.127
 21
380.347
  0
LINE
  8
0
 10
-390.127
 20
380.347
 11
-390.312
 21
380.312
  0
LINE
  8
0
 10
-390.312
 20
380.312
 11
-390.5
 21
380.3
  0
LINE
  8
0
 10
-390.5
 20
380.3
 11
-390.688
 21
380.312
  0
LINE
  8
0
 10
-359.688
 20
380.312
 11
-359.873
 21
380.347
  0
LINE
  8
0
 10
-359.873
 20
380.347
 11
-360.052
 21
380.405
  0
LINE
  8
0
 10
-360.052
 20
380.405
 11
-360.223
 21
380.486
  0
LINE
  8
0
 10
-360.223
 20
380.486
 11
-360.382
 21
380.586
  0
LINE
  8
0
 10
-360.382
 20
380.586
 11
-360.527
 21
380.707
  0
LINE
  8
0
 10
-360.527
 20
380.707
 11
-360.656
 21
380.844
  0
LINE
  8
0
 10
-360.656
 20
380.844
 11
-360.766
 21
380.996
  0
LINE
  8
0
 10
-360.766
 20
380.996
 11
-360.857
 21
381.161
  0
LINE
  8
0
 10
-360.857
 20
381.161
 11
-360.927
 21
381.336
  0
LINE
  8
0
 10
-360.927
 20
381.336
 11
-360.973
 21
381.519
  0
LINE
  8
0
 10
-360.973
 20
381.519
 11
-360.997
 21
381.706
  0
LINE
  8
0
 10
-360.997
 20
381.706
 11
-360.997
 21
381.894
  0
LINE
  8
0
 10
-360.997
 20
381.894
 11
-360.973
 21
382.081
  0
LINE
  8
0
 10
-360.973
 20
382.081
 11
-360.927
 21
382.264
  0
LINE
  8
0
 10
-360.927
 20
382.264
 11
-360.857
 21
382.439
  0
LINE
  8
0
 10
-360.857
 20
382.439
 11
-360.766
 21
382.604
  0
LINE
  8
0
 10
-360.766
 20
382.604
 11
-360.656
 21
382.756
  0
LINE
  8
0
 10
-360.656
 20
382.756
 11
-360.527
 21
382.893
  0
LINE
  8
0
 10
-360.527
 20
382.893
 11
-360.382
 21
383.014
  0
LINE
  8
0
 10
-360.382
 20
383.014
 11
-360.223
 21
383.114
  0
LINE
  8
0
 10
-360.223
 20
383.114
 11
-360.052
 21
383.195
  0
LINE
  8
0
 10
-360.052
 20
383.195
 11
-359.873
 21
383.253
  0
LINE
  8
0
 10
-359.873
 20
383.253
 11
-359.688
 21
383.288
  0
LINE
  8
0
 10
-359.688
 20
383.288
 11
-359.5
 21
383.3
  0
LINE
  8
0
 10
-359.5
 20
383.3
 11
-359.312
 21
383.288
  0
LINE
  8
0
 10
-359.312
 20
383.288
 11
-359.127
 21
383.253
  0
LINE
  8
0
 10
-359.127
 20
383.253
 11
-358.948
 21
383.195
  0
LINE
  8
0
 10
-358.948
 20
383.195
 11
-358.777
 21
383.114
  0
LINE
  8
0
 10
-358.777
 20
383.114
 11
-358.618
 21
383.014
  0
LINE
  8
0
 10
-358.618
 20
383.014
 11
-358.473
 21
382.893
  0
LINE
  8
0
 10
-358.473
 20
382.893
 11
-358.344
 21
382.756
  0
LINE
  8
0
 10
-358.344
 20
382.756
 11
-358.234
 21
382.604
  0
LINE
  8
0
 10
-358.234
 20
382.604
 11
-358.143
 21
382.439
  0
LINE
  8
0
 10
-358.143
 20
382.439
 11
-358.073
 21
382.264
  0
LINE
  8
0
 10
-358.073
 20
382.264
 11
-358.027
 21
382.081
  0
LINE
  8
0
 10
-358.027
 20
382.081
 11
-358.003
 21
381.894
  0
LINE
  8
0
 10
-358.003
 20
381.894
 11
-358.003
 21
381.706
  0
LINE
  8
0
 10
-358.003
 20
381.706
 11
-358.027
 21
381.519
  0
LINE
  8
0
 10
-358.027
 20
381.519
 11
-358.073
 21
381.336
  0
LINE
  8
0
 10
-358.073
 20
381.336
 11
-358.143
 21
381.161
  0
LINE
  8
0
 10
-358.143
 20
381.161
 11
-358.234
 21
380.996
  0
LINE
  8
0
 10
-358.234
 20
380.996
 11
-358.344
 21
380.844
  0
LINE
  8
0
 10
-358.344
 20
380.844
 11
-358.473
 21
380.707
  0
LINE
  8
0
 10
-358.473
 20
380.707
 11
-358.618
 21
380.586
  0
LINE
  8
0
 10
-358.618
 20
380.586
 11
-358.777
 21
380.486
  0
LINE
  8
0
 10
-358.777
 20
380.486
 11
-358.948
 21
380.405
  0
LINE
  8
0
 10
-358.948
 20
380.405
 11
-359.127
 21
380.347
  0
LINE
  8
0
 10
-359.127
 20
380.347
 11
-359.312
 21
380.312
  0
LINE
  8
0
 10
-359.312
 20
380.312
 11
-359.5
 21
380.3
  0
LINE
  8
0
 10
-359.5
 20
380.3
 11
-359.688
 21
380.312
  0
LINE
  8
0
 10
630
 20
287.3
 11
630.274
 21
287.3
  0
LINE
  8
0
 10
630.274
 20
287.3
 11
630.274
 21
292.526
  0
LINE
  8
0
 10
630.274
 20
292.526
 11
632.447
 21
302.751
  0
LINE
  8
0
 10
632.447
 20
302.751
 11
636.699
 21
312.3
  0
LINE
  8
0
 10
636.699
 20
312.3
 11
642.843
 21
320.757
  0
LINE
  8
0
 10
642.843
 20
320.757
 11
650.611
 21
327.751
  0
LINE
  8
0
 10
650.611
 20
327.751
 11
659.663
 21
332.977
  0
LINE
  8
0
 10
659.663
 20
332.977
 11
669.604
 21
336.207
  0
LINE
  8
0
 10
669.604
 20
336.207
 11
680
 21
337.3
  0
LINE
  8
0
 10
680
 20
337.3
 11
1050
 21
337.3
  0
LINE
  8
0
 10
1050
 20
337.3
 11
1050
 21
537.3
  0
LINE
  8
0
 10
1050
 20
537.3
 11
550
 21
537.3
  0
LINE
  8
0
 10
550
 20
537.3
 11
550
 21
62.7
  0
LINE
  8
0
 10
550
 20
62.7
 11
630
 21
62.7
  0
LINE
  8
0
 10
630
 20
62.7
 11
630
 21
287.3
  0
LINE
  8
0
 10
873.621
 20
386.387
 11
872.264
 21
386.646
  0
LINE
  8
0
 10
872.264
 20
386.646
 11
870.951
 21
387.072
  0
LINE
  8
0
 10
870.951
 20
387.072
 11
869.701
 21
387.661
  0
LINE
  8
0
 10
869.701
 20
387.661
 11
868.534
 21
388.401
  0
LINE
  8
0
 10
868.534
 20
388.401
 11
867.47
 21
389.281
  0
LINE
  8
0
 10
867.47
 20
389.281
 11
866.524
 21
390.288
  0
LINE
  8
0
 10
866.524
 20
390.288
 11
865.712
 21
391.406
  0
LINE
  8
0
 10
865.712
 20
391.406
 11
865.047
 21
392.616
  0
LINE
  8
0
 10
865.047
 20
392.616
 11
864.538
 21
393.901
  0
LINE
  8
0
 10
864.538
 20
393.901
 11
864.195
 21
395.239
  0
LINE
  8
0
 10
864.195
 20
395.239
 11
864.022
 21
396.609
  0
LINE
  8
0
 10
864.022
 20
396.609
 11
864.022
 21
397.991
  0
LINE
  8
0
 10
864.022
 20
397.991
 11
864.195
 21
399.361
  0
LINE
  8
0
 10
864.195
 20
399.361
 11
864.538
 21
400.699
  0
LINE
  8
0
 10
864.538
 20
400.699
 11
865.047
 21
401.984
  0
LINE
  8
0
 10
865.047
 20
401.984
 11
865.712
 21
403.194
  0
LINE
  8
0
 10
865.712
 20
403.194
 11
866.524
 21
404.312
  0
LINE
  8
0
 10
866.524
 20
404.312
 11
867.47
 21
405.319
  0
LINE
  8
0
 10
867.47
 20
405.319
 11
868.534
 21
406.199
  0
LINE
  8
0
 10
868.534
 20
406.199
 11
869.701
 21
406.939
  0
LINE
  8
0
 10
869.701
 20
406.939
 11
870.951
 21
407.528
  0
LINE
  8
0
 10
870.951
 20
407.528
 11
872.264
 21
407.954
  0
LINE
  8
0
 10
872.264
 20
407.954
 11
873.621
 21
408.213
  0
LINE
  8
0
 10
873.621
 20
408.213
 11
875
 21
408.3
  0
LINE
  8
0
 10
875
 20
408.3
 11
876.379
 21
408.213
  0
LINE
  8
0
 10
876.379
 20
408.213
 11
877.736
 21
407.954
  0
LINE
  8
0
 10
877.736
 20
407.954
 11
879.049
 21
407.528
  0
LINE
  8
0
 10
879.049
 20
407.528
 11
880.299
 21
406.939
  0
LINE
  8
0
 10
880.299
 20
406.939
 11
881.466
 21
406.199
  0
LINE
  8
0
 10
881.466
 20
406.199
 11
882.53
 21
405.319
  0
LINE
  8
0
 10
882.53
 20
405.319
 11
883.476
 21
404.312
  0
LINE
  8
0
 10
883.476
 20
404.312
 11
884.288
 21
403.194
  0
LINE
  8
0
 10
884.288
 20
403.194
 11
884.953
 21
401.984
  0
LINE
  8
0
 10
884.953
 20
401.984
 11
885.462
 21
400.699
  0
LINE
  8
0
 10
885.462
 20
400.699
 11
885.805
 21
399.361
  0
LINE
  8
0
 10
885.805
 20
399.361
 11
885.978
 21
397.991
  0
LINE
  8
0
 10
885.978
 20
397.991
 11
885.978
 21
396.609
  0
LINE
  8
0
 10
885.978
 20
396.609
 11
885.805
 21
395.239
  0
LINE
  8
0
 10
885.805
 20
395.239
 11
885.462
 21
393.901
  0
LINE
  8
0
 10
885.462
 20
393.901
 11
884.953
 21
392.616
  0
LINE
  8
0
 10
884.953
 20
392.616
 11
884.288
 21
391.406
  0
LINE
  8
0
 10
884.288
 20
391.406
 11
883.476
 21
390.288
  0
LINE
  8
0
 10
883.476
 20
390.288
 11
882.53
 21
389.281
  0
LINE
  8
0
 10
882.53
 20
389.281
 11
881.466
 21
388.401
  0
LINE
  8
0
 10
881.466
 20
388.401
 11
880.299
 21
387.661
  0
LINE
  8
0
 10
880.299
 20
387.661
 11
879.049
 21
387.072
  0
LINE
  8
0
 10
879.049
 20
387.072
 11
877.736
 21
386.646
  0
LINE
  8
0
 10
877.736
 20
386.646
 11
876.379
 21
386.387
  0
LINE
  8
0
 10
876.379
 20
386.387
 11
875
 21
386.3
  0
LINE
  8
0
 10
875
 20
386.3
 11
873.621
 21
386.387
  0
LINE
  8
0
 10
949.499
 20
393.332
 11
949.005
 21
393.426
  0
LINE
  8
0
 10
949.005
 20
393.426
 11
948.528
 21
393.581
  0
LINE
  8
0
 10
948.528
 20
393.581
 11
948.073
 21
393.795
  0
LINE
  8
0
 10
948.073
 20
393.795
 11
947.649
 21
394.064
  0
LINE
  8
0
 10
947.649
 20
394.064
 11
947.262
 21
394.384
  0
LINE
  8
0
 10
947.262
 20
394.384
 11
946.918
 21
394.75
  0
LINE
  8
0
 10
946.918
 20
394.75
 11
946.623
 21
395.157
  0
LINE
  8
0
 10
946.623
 20
395.157
 11
946.381
 21
395.597
  0
LINE
  8
0
 10
946.381
 20
395.597
 11
946.196
 21
396.064
  0
LINE
  8
0
 10
946.196
 20
396.064
 11
946.071
 21
396.55
  0
LINE
  8
0
 10
946.071
 20
396.55
 11
946.008
 21
397.049
  0
LINE
  8
0
 10
946.008
 20
397.049
 11
946.008
 21
397.551
  0
LINE
  8
0
 10
946.008
 20
397.551
 11
946.071
 21
398.05
  0
LINE
  8
0
 10
946.071
 20
398.05
 11
946.196
 21
398.536
  0
LINE
  8
0
 10
946.196
 20
398.536
 11
946.381
 21
399.003
  0
LINE
  8
0
 10
946.381
 20
399.003
 11
946.623
 21
399.443
  0
LINE
  8
0
 10
946.623
 20
399.443
 11
946.918
 21
399.85
  0
LINE
  8
0
 10
946.918
 20
399.85
 11
947.262
 21
400.216
  0
LINE
  8
0
 10
947.262
 20
400.216
 11
947.649
 21
400.536
  0
LINE
  8
0
 10
947.649
 20
400.536
 11
948.073
 21
400.805
  0
LINE
  8
0
 10
948.073
 20
400.805
 11
948.528
 21
401.019
  0
LINE
  8
0
 10
948.528
 20
401.019
 11
949.005
 21
401.174
  0
LINE
  8
0
 10
949.005
 20
401.174
 11
949.499
 21
401.268
  0
LINE
  8
0
 10
949.499
 20
401.268
 11
950
 21
401.3
  0
LINE
  8
0
 10
950
 20
401.3
 11
950.501
 21
401.268
  0
LINE
  8
0
 10
950.501
 20
401.268
 11
950.995
 21
401.174
  0
LINE
  8
0
 10
950.995
 20
401.174
 11
951.472
 21
401.019
  0
LINE
  8
0
 10
951.472
 20
401.019
 11
951.927
 21
400.805
  0
LINE
  8
0
 10
951.927
 20
400.805
 11
952.351
 21
400.536
  0
LINE
  8
0
 10
952.351
 20
400.536
 11
952.738
 21
400.216
  0
LINE
  8
0
 10
952.738
 20
400.216
 11
953.082
 21
399.85
  0
LINE
  8
0
 10
953.082
 20
399.85
 11
953.377
 21
399.443
  0
LINE
  8
0
 10
953.377
 20
399.443
 11
953.619
 21
399.003
  0
LINE
  8
0
 10
953.619
 20
399.003
 11
953.804
 21
398.536
  0
LINE
  8
0
 10
953.804
 20
398.536
 11
953.929
 21
398.05
  0
LINE
  8
0
 10
953.929
 20
398.05
 11
953.992
 21
397.551
  0
LINE
  8
0
 10
953.992
 20
397.551
 11
953.992
 21
397.049
  0
LINE
  8
0
 10
953.992
 20
397.049
 11
953.929
 21
396.55
  0
LINE
  8
0
 10
953.929
 20
396.55
 11
953.804
 21
396.064
  0
LINE
  8
0
 10
953.804
 20
396.064
 11
953.619
 21
395.597
  0
LINE
  8
0
 10
953.619
 20
395.597
 11
953.377
 21
395.157
  0
LINE
  8
0
 10
953.377
 20
395.157
 11
953.082
 21
394.75
  0
LINE
  8
0
 10
953.082
 20
394.75
 11
952.738
 21
394.384
  0
LINE
  8
0
 10
952.738
 20
394.384
 11
952.351
 21
394.064
  0
LINE
  8
0
 10
952.351
 20
394.064
 11
951.927
 21
393.795
  0
LINE
  8
0
 10
951.927
 20
393.795
 11
951.472
 21
393.581
  0
LINE
  8
0
 10
951.472
 20
393.581
 11
950.995
 21
393.426
  0
LINE
  8
0
 10
950.995
 20
393.426
 11
950.501
 21
393.332
  0
LINE
  8
0
 10
950.501
 20
393.332
 11
950
 21
393.3
  0
LINE
  8
0
 10
950
 20
393.3
 11
949.499
 21
393.332
  0
LINE
  8
0
 10
799.499
 20
393.332
 11
799.005
 21
393.426
  0
LINE
  8
0
 10
799.005
 20
393.426
 11
798.528
 21
393.581
  0
LINE
  8
0
 10
798.528
 20
393.581
 11
798.073
 21
393.795
  0
LINE
  8
0
 10
798.073
 20
393.795
 11
797.649
 21
394.064
  0
LINE
  8
0
 10
797.649
 20
394.064
 11
797.262
 21
394.384
  0
LINE
  8
0
 10
797.262
 20
394.384
 11
796.918
 21
394.75
  0
LINE
  8
0
 10
796.918
 20
394.75
 11
796.623
 21
395.157
  0
LINE
  8
0
 10
796.623
 20
395.157
 11
796.381
 21
395.597
  0
LINE
  8
0
 10
796.381
 20
395.597
 11
796.196
 21
396.064
  0
LINE
  8
0
 10
796.196
 20
396.064
 11
796.071
 21
396.55
  0
LINE
  8
0
 10
796.071
 20
396.55
 11
796.008
 21
397.049
  0
LINE
  8
0
 10
796.008
 20
397.049
 11
796.008
 21
397.551
  0
LINE
  8
0
 10
796.008
 20
397.551
 11
796.071
 21
398.05
  0
LINE
  8
0
 10
796.071
 20
398.05
 11
796.196
 21
398.536
  0
LINE
  8
0
 10
796.196
 20
398.536
 11
796.381
 21
399.003
  0
LINE
  8
0
 10
796.381
 20
399.003
 11
796.623
 21
399.443
  0
LINE
  8
0
 10
796.623
 20
399.443
 11
796.918
 21
399.85
  0
LINE
  8
0
 10
796.918
 20
399.85
 11
797.262
 21
400.216
  0
LINE
  8
0
 10
797.262
 20
400.216
 11
797.649
 21
400.536
  0
LINE
  8
0
 10
797.649
 20
400.536
 11
798.073
 21
400.805
  0
LINE
  8
0
 10
798.073
 20
400.805
 11
798.528
 21
401.019
  0
LINE
  8
0
 10
798.528
 20
401.019
 11
799.005
 21
401.174
  0
LINE
  8
0
 10
799.005
 20
401.174
 11
799.499
 21
401.268
  0
LINE
  8
0
 10
799.499
 20
401.268
 11
800
 21
401.3
  0
LINE
  8
0
 10
800
 20
401.3
 11
800.501
 21
401.268
  0
LINE
  8
0
 10
800.501
 20
401.268
 11
800.995
 21
401.174
  0
LINE
  8
0
 10
800.995
 20
401.174
 11
801.472
 21
401.019
  0
LINE
  8
0
 10
801.472
 20
401.019
 11
801.927
 21
400.805
  0
LINE
  8
0
 10
801.927
 20
400.805
 11
802.351
 21
400.536
  0
LINE
  8
0
 10
802.351
 20
400.536
 11
802.738
 21
400.216
  0
LINE
  8
0
 10
802.738
 20
400.216
 11
803.082
 21
399.85
  0
LINE
  8
0
 10
803.082
 20
399.85
 11
803.377
 21
399.443
  0
LINE
  8
0
 10
803.377
 20
399.443
 11
803.619
 21
399.003
  0
LINE
  8
0
 10
803.619
 20
399.003
 11
803.804
 21
398.536
  0
LINE
  8
0
 10
803.804
 20
398.536
 11
803.929
 21
398.05
  0
LINE
  8
0
 10
803.929
 20
398.05
 11
803.992
 21
397.551
  0
LINE
  8
0
 10
803.992
 20
397.551
 11
803.992
 21
397.049
  0
LINE
  8
0
 10
803.992
 20
397.049
 11
803.929
 21
396.55
  0
LINE
  8
0
 10
803.929
 20
396.55
 11
803.804
 21
396.064
  0
LINE
  8
0
 10
803.804
 20
396.064
 11
803.619
 21
395.597
  0
LINE
  8
0
 10
803.619
 20
395.597
 11
803.377
 21
395.157
  0
LINE
  8
0
 10
803.377
 20
395.157
 11
803.082
 21
394.75
  0
LINE
  8
0
 10
803.082
 20
394.75
 11
802.738
 21
394.384
  0
LINE
  8
0
 10
802.738
 20
394.384
 11
802.351
 21
394.064
  0
LINE
  8
0
 10
802.351
 20
394.064
 11
801.927
 21
393.795
  0
LINE
  8
0
 10
801.927
 20
393.795
 11
801.472
 21
393.581
  0
LINE
  8
0
 10
801.472
 20
393.581
 11
800.995
 21
393.426
  0
LINE
  8
0
 10
800.995
 20
393.426
 11
800.501
 21
393.332
  0
LINE
  8
0
 10
800.501
 20
393.332
 11
800
 21
393.3
  0
LINE
  8
0
 10
800
 20
393.3
 11
799.499
 21
393.332
  0
LINE
  8
0
 10
500
 20
-50
 11
0
 21
-50
  0
LINE
  8
0
 10
0
 20
-50
 11
0
 21
-130
  0
LINE
  8
0
 10
0
 20
-130
 11
500
 21
-130
  0
LINE
  8
0
 10
500
 20
-130
 11
500
 21
-50
  0
LINE
  8
0
 10
249.309
 20
-100.978
 11
247.939
 21
-100.805
  0
LINE
  8
0
 10
247.939
 20
-100.805
 11
246.601
 21
-100.462
  0
LINE
  8
0
 10
246.601
 20
-100.462
 11
245.316
 21
-99.9531
  0
LINE
  8
0
 10
245.316
 20
-99.9531
 11
244.106
 21
-99.2876
  0
LINE
  8
0
 10
244.106
 20
-99.2876
 11
242.988
 21
-98.4756
  0
LINE
  8
0
 10
242.988
 20
-98.4756
 11
241.981
 21
-97.53
  0
LINE
  8
0
 10
241.981
 20
-97.53
 11
241.101
 21
-96.4656
  0
LINE
  8
0
 10
241.101
 20
-96.4656
 11
240.361
 21
-95.2993
  0
LINE
  8
0
 10
240.361
 20
-95.2993
 11
239.772
 21
-94.0494
  0
LINE
  8
0
 10
239.772
 20
-94.0494
 11
239.346
 21
-92.7356
  0
LINE
  8
0
 10
239.346
 20
-92.7356
 11
239.087
 21
-91.3787
  0
LINE
  8
0
 10
239.087
 20
-91.3787
 11
239
 21
-90
  0
LINE
  8
0
 10
239
 20
-90
 11
239.087
 21
-88.6213
  0
LINE
  8
0
 10
239.087
 20
-88.6213
 11
239.346
 21
-87.2644
  0
LINE
  8
0
 10
239.346
 20
-87.2644
 11
239.772
 21
-85.9506
  0
LINE
  8
0
 10
239.772
 20
-85.9506
 11
240.361
 21
-84.7007
  0
LINE
  8
0
 10
240.361
 20
-84.7007
 11
241.101
 21
-83.5344
  0
LINE
  8
0
 10
241.101
 20
-83.5344
 11
241.981
 21
-82.47
  0
LINE
  8
0
 10
241.981
 20
-82.47
 11
242.988
 21
-81.5244
  0
LINE
  8
0
 10
242.988
 20
-81.5244
 11
244.106
 21
-80.7124
  0
LINE
  8
0
 10
244.106
 20
-80.7124
 11
245.316
 21
-80.0469
  0
LINE
  8
0
 10
245.316
 20
-80.0469
 11
246.601
 21
-79.5384
  0
LINE
  8
0
 10
246.601
 20
-79.5384
 11
247.939
 21
-79.1948
  0
LINE
  8
0
 10
247.939
 20
-79.1948
 11
249.309
 21
-79.0217
  0
LINE
  8
0
 10
249.309
 20
-79.0217
 11
250.691
 21
-79.0217
  0
LINE
  8
0
 10
250.691
 20
-79.0217
 11
252.061
 21
-79.1948
  0
LINE
  8
0
 10
252.061
 20
-79.1948
 11
253.399
 21
-79.5384
  0
LINE
  8
0
 10
253.399
 20
-79.5384
 11
254.684
 21
-80.0469
  0
LINE
  8
0
 10
254.684
 20
-80.0469
 11
255.894
 21
-80.7124
  0
LINE
  8
0
 10
255.894
 20
-80.7124
 11
257.012
 21
-81.5244
  0
LINE
  8
0
 10
257.012
 20
-81.5244
 11
258.019
 21
-82.47
  0
LINE
  8
0
 10
258.019
 20
-82.47
 11
258.899
 21
-83.5344
  0
LINE
  8
0
 10
258.899
 20
-83.5344
 11
259.639
 21
-84.7007
  0
LINE
  8
0
 10
259.639
 20
-84.7007
 11
260.228
 21
-85.9506
  0
LINE
  8
0
 10
260.228
 20
-85.9506
 11
260.654
 21
-87.2644
  0
LINE
  8
0
 10
260.654
 20
-87.2644
 11
260.913
 21
-88.6213
  0
LINE
  8
0
 10
260.913
 20
-88.6213
 11
261
 21
-90
  0
LINE
  8
0
 10
261
 20
-90
 11
260.913
 21
-91.3787
  0
LINE
  8
0
 10
260.913
 20
-91.3787
 11
260.654
 21
-92.7356
  0
LINE
  8
0
 10
260.654
 20
-92.7356
 11
260.228
 21
-94.0494
  0
LINE
  8
0
 10
260.228
 20
-94.0494
 11
259.639
 21
-95.2993
  0
LINE
  8
0
 10
259.639
 20
-95.2993
 11
258.899
 21
-96.4656
  0
LINE
  8
0
 10
258.899
 20
-96.4656
 11
258.019
 21
-97.53
  0
LINE
  8
0
 10
258.019
 20
-97.53
 11
257.012
 21
-98.4756
  0
LINE
  8
0
 10
257.012
 20
-98.4756
 11
255.894
 21
-99.2876
  0
LINE
  8
0
 10
255.894
 20
-99.2876
 11
254.684
 21
-99.9531
  0
LINE
  8
0
 10
254.684
 20
-99.9531
 11
253.399
 21
-100.462
  0
LINE
  8
0
 10
253.399
 20
-100.462
 11
252.061
 21
-100.805
  0
LINE
  8
0
 10
252.061
 20
-100.805
 11
250.691
 21
-100.978
  0
LINE
  8
0
 10
250.691
 20
-100.978
 11
249.309
 21
-100.978
  0
LINE
  8
0
 10
166.415
 20
-93.9921
 11
165.917
 21
-93.9291
  0
LINE
  8
0
 10
165.917
 20
-93.9291
 11
165.431
 21
-93.8042
  0
LINE
  8
0
 10
165.431
 20
-93.8042
 11
164.964
 21
-93.6193
  0
LINE
  8
0
 10
164.964
 20
-93.6193
 11
164.523
 21
-93.3773
  0
LINE
  8
0
 10
164.523
 20
-93.3773
 11
164.117
 21
-93.082
  0
LINE
  8
0
 10
164.117
 20
-93.082
 11
163.751
 21
-92.7382
  0
LINE
  8
0
 10
163.751
 20
-92.7382
 11
163.431
 21
-92.3511
  0
LINE
  8
0
 10
163.431
 20
-92.3511
 11
163.161
 21
-91.927
  0
LINE
  8
0
 10
163.161
 20
-91.927
 11
162.948
 21
-91.4725
  0
LINE
  8
0
 10
162.948
 20
-91.4725
 11
162.792
 21
-90.9948
  0
LINE
  8
0
 10
162.792
 20
-90.9948
 11
162.698
 21
-90.5013
  0
LINE
  8
0
 10
162.698
 20
-90.5013
 11
162.667
 21
-90
  0
LINE
  8
0
 10
162.667
 20
-90
 11
162.698
 21
-89.4987
  0
LINE
  8
0
 10
162.698
 20
-89.4987
 11
162.792
 21
-89.0052
  0
LINE
  8
0
 10
162.792
 20
-89.0052
 11
162.948
 21
-88.5275
  0
LINE
  8
0
 10
162.948
 20
-88.5275
 11
163.161
 21
-88.073
  0
LINE
  8
0
 10
163.161
 20
-88.073
 11
163.431
 21
-87.6488
  0
LINE
  8
0
 10
163.431
 20
-87.6488
 11
163.751
 21
-87.2618
  0
LINE
  8
0
 10
163.751
 20
-87.2618
 11
164.117
 21
-86.9179
  0
LINE
  8
0
 10
164.117
 20
-86.9179
 11
164.523
 21
-86.6227
  0
LINE
  8
0
 10
164.523
 20
-86.6227
 11
164.964
 21
-86.3807
  0
LINE
  8
0
 10
164.964
 20
-86.3807
 11
165.431
 21
-86.1958
  0
LINE
  8
0
 10
165.431
 20
-86.1958
 11
165.917
 21
-86.0708
  0
LINE
  8
0
 10
165.917
 20
-86.0708
 11
166.415
 21
-86.0079
  0
LINE
  8
0
 10
166.415
 20
-86.0079
 11
166.918
 21
-86.0079
  0
LINE
  8
0
 10
166.918
 20
-86.0079
 11
167.416
 21
-86.0708
  0
LINE
  8
0
 10
167.416
 20
-86.0708
 11
167.903
 21
-86.1958
  0
LINE
  8
0
 10
167.903
 20
-86.1958
 11
168.37
 21
-86.3807
  0
LINE
  8
0
 10
168.37
 20
-86.3807
 11
168.81
 21
-86.6227
  0
LINE
  8
0
 10
168.81
 20
-86.6227
 11
169.216
 21
-86.9179
  0
LINE
  8
0
 10
169.216
 20
-86.9179
 11
169.583
 21
-87.2618
  0
LINE
  8
0
 10
169.583
 20
-87.2618
 11
169.903
 21
-87.6488
  0
LINE
  8
0
 10
169.903
 20
-87.6488
 11
170.172
 21
-88.073
  0
LINE
  8
0
 10
170.172
 20
-88.073
 11
170.386
 21
-88.5275
  0
LINE
  8
0
 10
170.386
 20
-88.5275
 11
170.541
 21
-89.0052
  0
LINE
  8
0
 10
170.541
 20
-89.0052
 11
170.635
 21
-89.4987
  0
LINE
  8
0
 10
170.635
 20
-89.4987
 11
170.667
 21
-90
  0
LINE
  8
0
 10
170.667
 20
-90
 11
170.635
 21
-90.5013
  0
LINE
  8
0
 10
170.635
 20
-90.5013
 11
170.541
 21
-90.9948
  0
LINE
  8
0
 10
170.541
 20
-90.9948
 11
170.386
 21
-91.4725
  0
LINE
  8
0
 10
170.386
 20
-91.4725
 11
170.172
 21
-91.927
  0
LINE
  8
0
 10
170.172
 20
-91.927
 11
169.903
 21
-92.3511
  0
LINE
  8
0
 10
169.903
 20
-92.3511
 11
169.583
 21
-92.7382
  0
LINE
  8
0
 10
169.583
 20
-92.7382
 11
169.216
 21
-93.082
  0
LINE
  8
0
 10
169.216
 20
-93.082
 11
168.81
 21
-93.3773
  0
LINE
  8
0
 10
168.81
 20
-93.3773
 11
168.37
 21
-93.6193
  0
LINE
  8
0
 10
168.37
 20
-93.6193
 11
167.903
 21
-93.8042
  0
LINE
  8
0
 10
167.903
 20
-93.8042
 11
167.416
 21
-93.9291
  0
LINE
  8
0
 10
167.416
 20
-93.9291
 11
166.918
 21
-93.9921
  0
LINE
  8
0
 10
166.918
 20
-93.9921
 11
166.415
 21
-93.9921
  0
LINE
  8
0
 10
333.082
 20
-93.9921
 11
332.584
 21
-93.9291
  0
LINE
  8
0
 10
332.584
 20
-93.9291
 11
332.097
 21
-93.8042
  0
LINE
  8
0
 10
332.097
 20
-93.8042
 11
331.63
 21
-93.6193
  0
LINE
  8
0
 10
331.63
 20
-93.6193
 11
331.19
 21
-93.3773
  0
LINE
  8
0
 10
331.19
 20
-93.3773
 11
330.784
 21
-93.082
  0
LINE
  8
0
 10
330.784
 20
-93.082
 11
330.417
 21
-92.7382
  0
LINE
  8
0
 10
330.417
 20
-92.7382
 11
330.097
 21
-92.3511
  0
LINE
  8
0
 10
330.097
 20
-92.3511
 11
329.828
 21
-91.927
  0
LINE
  8
0
 10
329.828
 20
-91.927
 11
329.614
 21
-91.4725
  0
LINE
  8
0
 10
329.614
 20
-91.4725
 11
329.459
 21
-90.9948
  0
LINE
  8
0
 10
329.459
 20
-90.9948
 11
329.365
 21
-90.5013
  0
LINE
  8
0
 10
329.365
 20
-90.5013
 11
329.333
 21
-90
  0
LINE
  8
0
 10
329.333
 20
-90
 11
329.365
 21
-89.4987
  0
LINE
  8
0
 10
329.365
 20
-89.4987
 11
329.459
 21
-89.0052
  0
LINE
  8
0
 10
329.459
 20
-89.0052
 11
329.614
 21
-88.5275
  0
LINE
  8
0
 10
329.614
 20
-88.5275
 11
329.828
 21
-88.073
  0
LINE
  8
0
 10
329.828
 20
-88.073
 11
330.097
 21
-87.6488
  0
LINE
  8
0
 10
330.097
 20
-87.6488
 11
330.417
 21
-87.2618
  0
LINE
  8
0
 10
330.417
 20
-87.2618
 11
330.784
 21
-86.9179
  0
LINE
  8
0
 10
330.784
 20
-86.9179
 11
331.19
 21
-86.6227
  0
LINE
  8
0
 10
331.19
 20
-86.6227
 11
331.63
 21
-86.3807
  0
LINE
  8
0
 10
331.63
 20
-86.3807
 11
332.097
 21
-86.1958
  0
LINE
  8
0
 10
332.097
 20
-86.1958
 11
332.584
 21
-86.0708
  0
LINE
  8
0
 10
332.584
 20
-86.0708
 11
333.082
 21
-86.0079
  0
LINE
  8
0
 10
333.082
 20
-86.0079
 11
333.585
 21
-86.0079
  0
LINE
  8
0
 10
333.585
 20
-86.0079
 11
334.083
 21
-86.0708
  0
LINE
  8
0
 10
334.083
 20
-86.0708
 11
334.569
 21
-86.1958
  0
LINE
  8
0
 10
334.569
 20
-86.1958
 11
335.036
 21
-86.3807
  0
LINE
  8
0
 10
335.036
 20
-86.3807
 11
335.477
 21
-86.6227
  0
LINE
  8
0
 10
335.477
 20
-86.6227
 11
335.883
 21
-86.9179
  0
LINE
  8
0
 10
335.883
 20
-86.9179
 11
336.249
 21
-87.2618
  0
LINE
  8
0
 10
336.249
 20
-87.2618
 11
336.569
 21
-87.6488
  0
LINE
  8
0
 10
336.569
 20
-87.6488
 11
336.839
 21
-88.073
  0
LINE
  8
0
 10
336.839
 20
-88.073
 11
337.052
 21
-88.5275
  0
LINE
  8
0
 10
337.052
 20
-88.5275
 11
337.208
 21
-89.0052
  0
LINE
  8
0
 10
337.208
 20
-89.0052
 11
337.302
 21
-89.4987
  0
LINE
  8
0
 10
337.302
 20
-89.4987
 11
337.333
 21
-90
  0
LINE
  8
0
 10
337.333
 20
-90
 11
337.302
 21
-90.5013
  0
LINE
  8
0
 10
337.302
 20
-90.5013
 11
337.208
 21
-90.9948
  0
LINE
  8
0
 10
337.208
 20
-90.9948
 11
337.052
 21
-91.4725
  0
LINE
  8
0
 10
337.052
 20
-91.4725
 11
336.839
 21
-91.927
  0
LINE
  8
0
 10
336.839
 20
-91.927
 11
336.569
 21
-92.3511
  0
LINE
  8
0
 10
336.569
 20
-92.3511
 11
336.249
 21
-92.7382
  0
LINE
  8
0
 10
336.249
 20
-92.7382
 11
335.883
 21
-93.082
  0
LINE
  8
0
 10
335.883
 20
-93.082
 11
335.477
 21
-93.3773
  0
LINE
  8
0
 10
335.477
 20
-93.3773
 11
335.036
 21
-93.6193
  0
LINE
  8
0
 10
335.036
 20
-93.6193
 11
334.569
 21
-93.8042
  0
LINE
  8
0
 10
334.569
 20
-93.8042
 11
334.083
 21
-93.9291
  0
LINE
  8
0
 10
334.083
 20
-93.9291
 11
333.585
 21
-93.9921
  0
LINE
  8
0
 10
333.585
 20
-93.9921
 11
333.082
 21
-93.9921
  0
LINE
  8
0
 10
457.3
 20
-162.7
 11
270
 21
-162.7
  0
LINE
  8
0
 10
270
 20
-162.7
 11
270
 21
-192.7
  0
LINE
  8
0
 10
270
 20
-192.7
 11
230
 21
-192.7
  0
LINE
  8
0
 10
230
 20
-192.7
 11
230
 21
-162.7
  0
LINE
  8
0
 10
230
 20
-162.7
 11
42.7
 21
-162.7
  0
LINE
  8
0
 10
42.7
 20
-162.7
 11
42.7
 21
-400
  0
LINE
  8
0
 10
42.7
 20
-400
 11
457.3
 21
-400
  0
LINE
  8
0
 10
457.3
 20
-400
 11
457.3
 21
-162.7
  0
LINE
  8
0
 10
325.3
 20
-196.7
 11
325.3
 21
-172.7
  0
LINE
  8
0
 10
325.3
 20
-172.7
 11
335.3
 21
-172.7
  0
LINE
  8
0
 10
335.3
 20
-172.7
 11
335.3
 21
-196.7
  0
LINE
  8
0
 10
335.3
 20
-196.7
 11
325.3
 21
-196.7
  0
LINE
  8
0
 10
164.7
 20
-196.7
 11
164.7
 21
-172.7
  0
LINE
  8
0
 10
164.7
 20
-172.7
 11
174.7
 21
-172.7
  0
LINE
  8
0
 10
174.7
 20
-172.7
 11
174.7
 21
-196.7
  0
LINE
  8
0
 10
174.7
 20
-196.7
 11
164.7
 21
-196.7
  0
LINE
  8
0
 10
164.7
 20
-390
 11
164.7
 21
-366
  0
LINE
  8
0
 10
164.7
 20
-366
 11
174.7
 21
-366
  0
LINE
  8
0
 10
174.7
 20
-366
 11
174.7
 21
-390
  0
LINE
  8
0
 10
174.7
 20
-390
 11
164.7
 21
-390
  0
LINE
  8
0
 10
325.3
 20
-390
 11
325.3
 21
-366
  0
LINE
  8
0
 10
325.3
 20
-366
 11
335.3
 21
-366
  0
LINE
  8
0
 10
335.3
 20
-366
 11
335.3
 21
-390
  0
LINE
  8
0
 10
335.3
 20
-390
 11
325.3
 21
-390
  0
ENDSEC
  0
SECTION
  2
OBJECTS
  0
DICTIONARY
  0
ENDSEC
  0
EOF
