solid OpenSCAD_Model
  facet normal 0 0 -1
    outer loop
      vertex 17.8 36.0964 -0.5
      vertex 17.687 36.0964 -0.5
      vertex 17.8 36.1 -0.5
    endloop
  endfacet
  facet normal 0 0 -1
    outer loop
      vertex 17.8 36.1 -0.5
      vertex 19 46.8 -0.5
      vertex 19 36.1 -0.5
    endloop
  endfacet
  facet normal 0 0 -1
    outer loop
      vertex 17.687 36.0964 -0.5
      vertex 19 46.8 -0.5
      vertex 17.8 36.1 -0.5
    endloop
  endfacet
  facet normal 0 0 -1
    outer loop
      vertex 17.4627 36.0681 -0.5
      vertex 19 46.8 -0.5
      vertex 17.687 36.0964 -0.5
    endloop
  endfacet
  facet normal 0 0 -1
    outer loop
      vertex 17.2438 36.0119 -0.5
      vertex 19 46.8 -0.5
      vertex 17.4627 36.0681 -0.5
    endloop
  endfacet
  facet normal 0 0 -1
    outer loop
      vertex 17.0336 35.9287 -0.5
      vertex 19 46.8 -0.5
      vertex 17.2438 36.0119 -0.5
    endloop
  endfacet
  facet normal 0 0 -1
    outer loop
      vertex 16.8355 35.8198 -0.5
      vertex 19 46.8 -0.5
      vertex 17.0336 35.9287 -0.5
    endloop
  endfacet
  facet normal 0 0 -1
    outer loop
      vertex 10.1558 34.438 -0.5
      vertex 16.8355 35.8198 -0.5
      vertex 16.6526 35.6869 -0.5
    endloop
  endfacet
  facet normal 0 0 -1
    outer loop
      vertex 10.5816 34.3287 -0.5
      vertex 16.6526 35.6869 -0.5
      vertex 16.4879 35.5322 -0.5
    endloop
  endfacet
  facet normal 0 0 -1
    outer loop
      vertex 10.9902 34.1669 -0.5
      vertex 16.4879 35.5322 -0.5
      vertex 16.3438 35.358 -0.5
    endloop
  endfacet
  facet normal 0 0 -1
    outer loop
      vertex 11.3754 33.9551 -0.5
      vertex 16.3438 35.358 -0.5
      vertex 16.2226 35.1672 -0.5
    endloop
  endfacet
  facet normal 0 0 -1
    outer loop
      vertex 11.3754 33.9551 -0.5
      vertex 16.2226 35.1672 -0.5
      vertex 16.1264 34.9626 -0.5
    endloop
  endfacet
  facet normal 0 0 -1
    outer loop
      vertex 11.731 33.6968 -0.5
      vertex 16.1264 34.9626 -0.5
      vertex 16.0565 34.7476 -0.5
    endloop
  endfacet
  facet normal -0 0 -1
    outer loop
      vertex 16.1264 33.6374 -0.5
      vertex 12.7542 32.2884 -0.5
      vertex 16.0565 33.8524 -0.5
    endloop
  endfacet
  facet normal 0 0 -1
    outer loop
      vertex 12.5671 32.6861 -0.5
      vertex 16.0565 33.8524 -0.5
      vertex 12.7542 32.2884 -0.5
    endloop
  endfacet
  facet normal -0 0 -1
    outer loop
      vertex 16.0565 33.8524 -0.5
      vertex 12.5671 32.6861 -0.5
      vertex 16.0142 34.0744 -0.5
    endloop
  endfacet
  facet normal 0 0 -1
    outer loop
      vertex 12.3316 33.0572 -0.5
      vertex 16.0142 34.0744 -0.5
      vertex 12.5671 32.6861 -0.5
    endloop
  endfacet
  facet normal -0 0 -1
    outer loop
      vertex 16.0142 34.0744 -0.5
      vertex 12.3316 33.0572 -0.5
      vertex 16 34.3 -0.5
    endloop
  endfacet
  facet normal -0 0 -1
    outer loop
      vertex 16 34.3 -0.5
      vertex 12.3316 33.0572 -0.5
      vertex 16.0142 34.5256 -0.5
    endloop
  endfacet
  facet normal 0 0 -1
    outer loop
      vertex 12.0514 33.3959 -0.5
      vertex 16.0142 34.5256 -0.5
      vertex 12.3316 33.0572 -0.5
    endloop
  endfacet
  facet normal -0 0 -1
    outer loop
      vertex 16.0142 34.5256 -0.5
      vertex 12.0514 33.3959 -0.5
      vertex 16.0565 34.7476 -0.5
    endloop
  endfacet
  facet normal 0 0 -1
    outer loop
      vertex 11.731 33.6968 -0.5
      vertex 16.0565 34.7476 -0.5
      vertex 12.0514 33.3959 -0.5
    endloop
  endfacet
  facet normal 0 0 -1
    outer loop
      vertex 16.1264 34.9626 -0.5
      vertex 11.731 33.6968 -0.5
      vertex 11.3754 33.9551 -0.5
    endloop
  endfacet
  facet normal 0 0 -1
    outer loop
      vertex 16.3438 35.358 -0.5
      vertex 11.3754 33.9551 -0.5
      vertex 10.9902 34.1669 -0.5
    endloop
  endfacet
  facet normal 0 0 -1
    outer loop
      vertex 16.4879 35.5322 -0.5
      vertex 10.9902 34.1669 -0.5
      vertex 10.5816 34.3287 -0.5
    endloop
  endfacet
  facet normal 0 0 -1
    outer loop
      vertex 16.6526 35.6869 -0.5
      vertex 10.5816 34.3287 -0.5
      vertex 10.1558 34.438 -0.5
    endloop
  endfacet
  facet normal -0 0 -1
    outer loop
      vertex 16.8355 35.8198 -0.5
      vertex 10.1558 34.438 -0.5
      vertex 19 46.8 -0.5
    endloop
  endfacet
  facet normal 0 0 -1
    outer loop
      vertex 9.71977 34.4931 -0.5
      vertex 19 46.8 -0.5
      vertex 10.1558 34.438 -0.5
    endloop
  endfacet
  facet normal 0 0 -1
    outer loop
      vertex 9.28023 34.4931 -0.5
      vertex 19 46.8 -0.5
      vertex 9.71977 34.4931 -0.5
    endloop
  endfacet
  facet normal 0 0 -1
    outer loop
      vertex 8.84416 34.438 -0.5
      vertex 19 46.8 -0.5
      vertex 9.28023 34.4931 -0.5
    endloop
  endfacet
  facet normal 0 0 -1
    outer loop
      vertex 2.83564 59.7315 -0.5
      vertex 8.84416 34.438 -0.5
      vertex 8.41844 34.3287 -0.5
    endloop
  endfacet
  facet normal 0 0 -1
    outer loop
      vertex 2.83564 59.7315 -0.5
      vertex 8.41844 34.3287 -0.5
      vertex 8.00977 34.1669 -0.5
    endloop
  endfacet
  facet normal 0 0 -1
    outer loop
      vertex 2.83564 59.7315 -0.5
      vertex 8.00977 34.1669 -0.5
      vertex 7.62461 33.9551 -0.5
    endloop
  endfacet
  facet normal 0 0 -1
    outer loop
      vertex 2.83564 59.7315 -0.5
      vertex 7.62461 33.9551 -0.5
      vertex 7.26902 33.6968 -0.5
    endloop
  endfacet
  facet normal 0 0 -1
    outer loop
      vertex 2.83564 59.7315 -0.5
      vertex 7.26902 33.6968 -0.5
      vertex 6.94861 33.3959 -0.5
    endloop
  endfacet
  facet normal 0 0 -1
    outer loop
      vertex 2.83564 59.7315 -0.5
      vertex 6 31 -0.5
      vertex 2.83564 2.26851 -0.5
    endloop
  endfacet
  facet normal 0 0 -1
    outer loop
      vertex 8.84416 34.438 -0.5
      vertex 2.83564 59.7315 -0.5
      vertex 19 46.8 -0.5
    endloop
  endfacet
  facet normal 0 0 -1
    outer loop
      vertex 6.66844 33.0572 -0.5
      vertex 2.83564 59.7315 -0.5
      vertex 6.94861 33.3959 -0.5
    endloop
  endfacet
  facet normal 0 0 -1
    outer loop
      vertex 6.43293 32.6861 -0.5
      vertex 2.83564 59.7315 -0.5
      vertex 6.66844 33.0572 -0.5
    endloop
  endfacet
  facet normal 0 0 -1
    outer loop
      vertex 6.24578 32.2884 -0.5
      vertex 2.83564 59.7315 -0.5
      vertex 6.43293 32.6861 -0.5
    endloop
  endfacet
  facet normal 0 0 -1
    outer loop
      vertex 6.10996 31.8704 -0.5
      vertex 2.83564 59.7315 -0.5
      vertex 6.24578 32.2884 -0.5
    endloop
  endfacet
  facet normal 0 0 -1
    outer loop
      vertex 6.0276 31.4387 -0.5
      vertex 2.83564 59.7315 -0.5
      vertex 6.10996 31.8704 -0.5
    endloop
  endfacet
  facet normal 0 0 -1
    outer loop
      vertex 6 31 -0.5
      vertex 2.83564 59.7315 -0.5
      vertex 6.0276 31.4387 -0.5
    endloop
  endfacet
  facet normal 0 0 -1
    outer loop
      vertex 19 15.2 -0.5
      vertex 17.8 25.9 -0.5
      vertex 19 25.9 -0.5
    endloop
  endfacet
  facet normal 0 0 -1
    outer loop
      vertex 17.8 25.9 -0.5
      vertex 17.687 25.9036 -0.5
      vertex 17.8 25.9036 -0.5
    endloop
  endfacet
  facet normal 0 0 -1
    outer loop
      vertex 19 15.2 -0.5
      vertex 17.687 25.9036 -0.5
      vertex 17.8 25.9 -0.5
    endloop
  endfacet
  facet normal 0 0 -1
    outer loop
      vertex 19 15.2 -0.5
      vertex 17.4627 25.9319 -0.5
      vertex 17.687 25.9036 -0.5
    endloop
  endfacet
  facet normal 0 0 -1
    outer loop
      vertex 19 15.2 -0.5
      vertex 17.2438 25.9881 -0.5
      vertex 17.4627 25.9319 -0.5
    endloop
  endfacet
  facet normal 0 0 -1
    outer loop
      vertex 19 15.2 -0.5
      vertex 17.0336 26.0713 -0.5
      vertex 17.2438 25.9881 -0.5
    endloop
  endfacet
  facet normal 0 0 -1
    outer loop
      vertex 19 15.2 -0.5
      vertex 16.8355 26.1802 -0.5
      vertex 17.0336 26.0713 -0.5
    endloop
  endfacet
  facet normal 0 0 -1
    outer loop
      vertex 10.1558 27.562 -0.5
      vertex 16.8355 26.1802 -0.5
      vertex 19 15.2 -0.5
    endloop
  endfacet
  facet normal 0 0 -1
    outer loop
      vertex 16.8355 26.1802 -0.5
      vertex 10.1558 27.562 -0.5
      vertex 16.6526 26.3131 -0.5
    endloop
  endfacet
  facet normal 0 -0 -1
    outer loop
      vertex 10.5816 27.6713 -0.5
      vertex 16.6526 26.3131 -0.5
      vertex 10.1558 27.562 -0.5
    endloop
  endfacet
  facet normal 0 0 -1
    outer loop
      vertex 16.6526 26.3131 -0.5
      vertex 10.5816 27.6713 -0.5
      vertex 16.4879 26.4678 -0.5
    endloop
  endfacet
  facet normal 0 -0 -1
    outer loop
      vertex 10.9902 27.8331 -0.5
      vertex 16.4879 26.4678 -0.5
      vertex 10.5816 27.6713 -0.5
    endloop
  endfacet
  facet normal 0 -0 -1
    outer loop
      vertex 11.3754 28.0449 -0.5
      vertex 16.3438 26.642 -0.5
      vertex 10.9902 27.8331 -0.5
    endloop
  endfacet
  facet normal -0 0 -1
    outer loop
      vertex 16.2226 33.4328 -0.5
      vertex 12.7542 32.2884 -0.5
      vertex 16.1264 33.6374 -0.5
    endloop
  endfacet
  facet normal 0 0 -1
    outer loop
      vertex 12.3316 28.9428 -0.5
      vertex 16 27.7 -0.5
      vertex 16.0142 27.4744 -0.5
    endloop
  endfacet
  facet normal 0 0 -1
    outer loop
      vertex 12.0514 28.6041 -0.5
      vertex 16.0142 27.4744 -0.5
      vertex 16.0565 27.2524 -0.5
    endloop
  endfacet
  facet normal 0 0 -1
    outer loop
      vertex 16.3438 26.642 -0.5
      vertex 11.3754 28.0449 -0.5
      vertex 16.2226 26.8328 -0.5
    endloop
  endfacet
  facet normal 0 0 -1
    outer loop
      vertex 16.0142 27.9256 -0.5
      vertex 12.9724 30.5613 -0.5
      vertex 13 31 -0.5
    endloop
  endfacet
  facet normal 0 0 -1
    outer loop
      vertex 16.0142 27.9256 -0.5
      vertex 12.89 30.1296 -0.5
      vertex 12.9724 30.5613 -0.5
    endloop
  endfacet
  facet normal 0 0 -1
    outer loop
      vertex 16.0142 27.9256 -0.5
      vertex 12.7542 29.7116 -0.5
      vertex 12.89 30.1296 -0.5
    endloop
  endfacet
  facet normal 0 0 -1
    outer loop
      vertex 16.0142 27.9256 -0.5
      vertex 12.5671 29.3139 -0.5
      vertex 12.7542 29.7116 -0.5
    endloop
  endfacet
  facet normal 0 0 -1
    outer loop
      vertex 16.0142 27.9256 -0.5
      vertex 12.3316 28.9428 -0.5
      vertex 12.5671 29.3139 -0.5
    endloop
  endfacet
  facet normal 0 0 -1
    outer loop
      vertex 16.0142 27.4744 -0.5
      vertex 12.0514 28.6041 -0.5
      vertex 12.3316 28.9428 -0.5
    endloop
  endfacet
  facet normal 0 0 -1
    outer loop
      vertex 16.0565 27.2524 -0.5
      vertex 11.731 28.3032 -0.5
      vertex 12.0514 28.6041 -0.5
    endloop
  endfacet
  facet normal 0 0 -1
    outer loop
      vertex 16.1264 27.0374 -0.5
      vertex 11.731 28.3032 -0.5
      vertex 16.0565 27.2524 -0.5
    endloop
  endfacet
  facet normal 0 -0 -1
    outer loop
      vertex 11.731 28.3032 -0.5
      vertex 16.1264 27.0374 -0.5
      vertex 11.3754 28.0449 -0.5
    endloop
  endfacet
  facet normal 0 0 -1
    outer loop
      vertex 16.2226 26.8328 -0.5
      vertex 11.3754 28.0449 -0.5
      vertex 16.1264 27.0374 -0.5
    endloop
  endfacet
  facet normal 0 0 -1
    outer loop
      vertex 16.4879 26.4678 -0.5
      vertex 10.9902 27.8331 -0.5
      vertex 16.3438 26.642 -0.5
    endloop
  endfacet
  facet normal 0 0 -1
    outer loop
      vertex 19 15.2 -0.5
      vertex 9.71977 27.5069 -0.5
      vertex 10.1558 27.562 -0.5
    endloop
  endfacet
  facet normal 0 0 -1
    outer loop
      vertex 19 15.2 -0.5
      vertex 9.28023 27.5069 -0.5
      vertex 9.71977 27.5069 -0.5
    endloop
  endfacet
  facet normal 0 0 -1
    outer loop
      vertex 19 15.2 -0.5
      vertex 8.84416 27.562 -0.5
      vertex 9.28023 27.5069 -0.5
    endloop
  endfacet
  facet normal 0 0 -1
    outer loop
      vertex 2.83564 2.26851 -0.5
      vertex 8.84416 27.562 -0.5
      vertex 19 15.2 -0.5
    endloop
  endfacet
  facet normal -0 0 -1
    outer loop
      vertex 8.84416 27.562 -0.5
      vertex 2.83564 2.26851 -0.5
      vertex 8.41844 27.6713 -0.5
    endloop
  endfacet
  facet normal -0 0 -1
    outer loop
      vertex 8.41844 27.6713 -0.5
      vertex 2.83564 2.26851 -0.5
      vertex 8.00977 27.8331 -0.5
    endloop
  endfacet
  facet normal -0 0 -1
    outer loop
      vertex 8.00977 27.8331 -0.5
      vertex 2.83564 2.26851 -0.5
      vertex 7.62461 28.0449 -0.5
    endloop
  endfacet
  facet normal -0 0 -1
    outer loop
      vertex 7.62461 28.0449 -0.5
      vertex 2.83564 2.26851 -0.5
      vertex 7.26902 28.3032 -0.5
    endloop
  endfacet
  facet normal -0 0 -1
    outer loop
      vertex 6.0276 30.5613 -0.5
      vertex 2.83564 2.26851 -0.5
      vertex 6 31 -0.5
    endloop
  endfacet
  facet normal -0 0 -1
    outer loop
      vertex 6.10996 30.1296 -0.5
      vertex 2.83564 2.26851 -0.5
      vertex 6.0276 30.5613 -0.5
    endloop
  endfacet
  facet normal -0 0 -1
    outer loop
      vertex 6.24578 29.7116 -0.5
      vertex 2.83564 2.26851 -0.5
      vertex 6.10996 30.1296 -0.5
    endloop
  endfacet
  facet normal -0 0 -1
    outer loop
      vertex 6.43293 29.3139 -0.5
      vertex 2.83564 2.26851 -0.5
      vertex 6.24578 29.7116 -0.5
    endloop
  endfacet
  facet normal -0 0 -1
    outer loop
      vertex 6.66844 28.9428 -0.5
      vertex 2.83564 2.26851 -0.5
      vertex 6.43293 29.3139 -0.5
    endloop
  endfacet
  facet normal -0 0 -1
    outer loop
      vertex 6.94861 28.6041 -0.5
      vertex 2.83564 2.26851 -0.5
      vertex 6.66844 28.9428 -0.5
    endloop
  endfacet
  facet normal -0 0 -1
    outer loop
      vertex 7.26902 28.3032 -0.5
      vertex 2.83564 2.26851 -0.5
      vertex 6.94861 28.6041 -0.5
    endloop
  endfacet
  facet normal 0 0 -1
    outer loop
      vertex 17.687 29.4964 -0.5
      vertex 17.8 29.5 -0.5
      vertex 17.8 29.4964 -0.5
    endloop
  endfacet
  facet normal -0 0 -1
    outer loop
      vertex 17.8 29.5 -0.5
      vertex 17.687 29.4964 -0.5
      vertex 17.8 32.5 -0.5
    endloop
  endfacet
  facet normal 0 0 -1
    outer loop
      vertex 17.687 32.5036 -0.5
      vertex 17.8 32.5 -0.5
      vertex 17.687 29.4964 -0.5
    endloop
  endfacet
  facet normal 0 0 -1
    outer loop
      vertex 17.8 32.5 -0.5
      vertex 17.687 32.5036 -0.5
      vertex 17.8 32.5036 -0.5
    endloop
  endfacet
  facet normal 0 0 -1
    outer loop
      vertex 17.4627 29.4681 -0.5
      vertex 17.687 32.5036 -0.5
      vertex 17.687 29.4964 -0.5
    endloop
  endfacet
  facet normal 0 0 -1
    outer loop
      vertex 17.4627 29.4681 -0.5
      vertex 17.4627 32.5319 -0.5
      vertex 17.687 32.5036 -0.5
    endloop
  endfacet
  facet normal 0 0 -1
    outer loop
      vertex 17.2438 29.4119 -0.5
      vertex 17.4627 32.5319 -0.5
      vertex 17.4627 29.4681 -0.5
    endloop
  endfacet
  facet normal 0 0 -1
    outer loop
      vertex 17.2438 29.4119 -0.5
      vertex 17.2438 32.5881 -0.5
      vertex 17.4627 32.5319 -0.5
    endloop
  endfacet
  facet normal 0 0 -1
    outer loop
      vertex 17.0336 29.3287 -0.5
      vertex 17.2438 32.5881 -0.5
      vertex 17.2438 29.4119 -0.5
    endloop
  endfacet
  facet normal 0 0 -1
    outer loop
      vertex 17.0336 29.3287 -0.5
      vertex 17.0336 32.6713 -0.5
      vertex 17.2438 32.5881 -0.5
    endloop
  endfacet
  facet normal 0 0 -1
    outer loop
      vertex 16.8355 29.2198 -0.5
      vertex 17.0336 32.6713 -0.5
      vertex 17.0336 29.3287 -0.5
    endloop
  endfacet
  facet normal 0 0 -1
    outer loop
      vertex 16.8355 29.2198 -0.5
      vertex 16.8355 32.7802 -0.5
      vertex 17.0336 32.6713 -0.5
    endloop
  endfacet
  facet normal 0 0 -1
    outer loop
      vertex 16.6526 29.0869 -0.5
      vertex 16.8355 32.7802 -0.5
      vertex 16.8355 29.2198 -0.5
    endloop
  endfacet
  facet normal 0 0 -1
    outer loop
      vertex 16.6526 29.0869 -0.5
      vertex 16.6526 32.9131 -0.5
      vertex 16.8355 32.7802 -0.5
    endloop
  endfacet
  facet normal 0 0 -1
    outer loop
      vertex 13 31 -0.5
      vertex 16.6526 29.0869 -0.5
      vertex 16.4879 28.9322 -0.5
    endloop
  endfacet
  facet normal 0 0 -1
    outer loop
      vertex 16.6526 29.0869 -0.5
      vertex 13 31 -0.5
      vertex 16.6526 32.9131 -0.5
    endloop
  endfacet
  facet normal 0 0 -1
    outer loop
      vertex 13 31 -0.5
      vertex 16.4879 28.9322 -0.5
      vertex 16.3438 28.758 -0.5
    endloop
  endfacet
  facet normal 0 0 -1
    outer loop
      vertex 12.9724 31.4387 -0.5
      vertex 16.6526 32.9131 -0.5
      vertex 13 31 -0.5
    endloop
  endfacet
  facet normal 0 0 -1
    outer loop
      vertex 13 31 -0.5
      vertex 16.3438 28.758 -0.5
      vertex 16.2226 28.5672 -0.5
    endloop
  endfacet
  facet normal -0 0 -1
    outer loop
      vertex 16.6526 32.9131 -0.5
      vertex 12.9724 31.4387 -0.5
      vertex 16.4879 33.0678 -0.5
    endloop
  endfacet
  facet normal 0 0 -1
    outer loop
      vertex 13 31 -0.5
      vertex 16.2226 28.5672 -0.5
      vertex 16.1264 28.3626 -0.5
    endloop
  endfacet
  facet normal -0 0 -1
    outer loop
      vertex 16.4879 33.0678 -0.5
      vertex 12.9724 31.4387 -0.5
      vertex 16.3438 33.242 -0.5
    endloop
  endfacet
  facet normal 0 0 -1
    outer loop
      vertex 13 31 -0.5
      vertex 16.1264 28.3626 -0.5
      vertex 16.0565 28.1476 -0.5
    endloop
  endfacet
  facet normal 0 0 -1
    outer loop
      vertex 12.89 31.8704 -0.5
      vertex 16.3438 33.242 -0.5
      vertex 12.9724 31.4387 -0.5
    endloop
  endfacet
  facet normal 0 0 -1
    outer loop
      vertex 13 31 -0.5
      vertex 16.0565 28.1476 -0.5
      vertex 16.0142 27.9256 -0.5
    endloop
  endfacet
  facet normal -0 0 -1
    outer loop
      vertex 16.3438 33.242 -0.5
      vertex 12.89 31.8704 -0.5
      vertex 16.2226 33.4328 -0.5
    endloop
  endfacet
  facet normal 0 0 -1
    outer loop
      vertex 12.3316 28.9428 -0.5
      vertex 16.0142 27.9256 -0.5
      vertex 16 27.7 -0.5
    endloop
  endfacet
  facet normal 0 0 -1
    outer loop
      vertex 12.7542 32.2884 -0.5
      vertex 16.2226 33.4328 -0.5
      vertex 12.89 31.8704 -0.5
    endloop
  endfacet
  facet normal 0 0 -1
    outer loop
      vertex 17.8 29.5 -0.5
      vertex 19 32.5 -0.5
      vertex 19 29.5 -0.5
    endloop
  endfacet
  facet normal -0 0 -1
    outer loop
      vertex 19 32.5 -0.5
      vertex 17.8 29.5 -0.5
      vertex 17.8 32.5 -0.5
    endloop
  endfacet
  facet normal 0.624695 -0.780869 0
    outer loop
      vertex 2.83564 2.26851 -0.5
      vertex 2.83564 2.26851 0.5
      vertex 0 0 0
    endloop
  endfacet
  facet normal 0.624695 -0.780869 0
    outer loop
      vertex 2.83564 2.26851 0.5
      vertex 2.83564 2.26851 -0.5
      vertex 19 15.2 0.5
    endloop
  endfacet
  facet normal 0.624695 -0.780869 0
    outer loop
      vertex 19 15.2 0.5
      vertex 2.83564 2.26851 -0.5
      vertex 19 15.2 -0.5
    endloop
  endfacet
  facet normal 1 -0 0
    outer loop
      vertex 19 15.2 0.5
      vertex 19 25.9 -0.5
      vertex 19 25.9 0.5
    endloop
  endfacet
  facet normal 1 0 0
    outer loop
      vertex 19 25.9 -0.5
      vertex 19 15.2 0.5
      vertex 19 15.2 -0.5
    endloop
  endfacet
  facet normal 1 -0 0
    outer loop
      vertex 19 36.1 0.5
      vertex 19 46.8 -0.5
      vertex 19 46.8 0.5
    endloop
  endfacet
  facet normal 1 0 0
    outer loop
      vertex 19 46.8 -0.5
      vertex 19 36.1 0.5
      vertex 19 36.1 -0.5
    endloop
  endfacet
  facet normal 1 -0 0
    outer loop
      vertex 19 29.5 0.5
      vertex 19 32.5 -0.5
      vertex 19 32.5 0.5
    endloop
  endfacet
  facet normal 1 0 0
    outer loop
      vertex 19 32.5 -0.5
      vertex 19 29.5 0.5
      vertex 19 29.5 -0.5
    endloop
  endfacet
  facet normal 0.624695 0.780869 -0
    outer loop
      vertex 2.83564 59.7315 -0.5
      vertex 2.83564 59.7315 0.5
      vertex 19 46.8 0.5
    endloop
  endfacet
  facet normal 0.624695 0.780869 0
    outer loop
      vertex 2.83564 59.7315 -0.5
      vertex 19 46.8 0.5
      vertex 19 46.8 -0.5
    endloop
  endfacet
  facet normal 0.624693 0.78087 0
    outer loop
      vertex 2.83564 59.7315 0.5
      vertex 2.83564 59.7315 -0.5
      vertex 0 62 0
    endloop
  endfacet
  facet normal 0 0 1
    outer loop
      vertex 17.8 25.9036 0.5
      vertex 17.687 25.9036 0.5
      vertex 17.8 25.9 0.5
    endloop
  endfacet
  facet normal -0 0 1
    outer loop
      vertex 17.8 25.9 0.5
      vertex 19 15.2 0.5
      vertex 19 25.9 0.5
    endloop
  endfacet
  facet normal 0 0 1
    outer loop
      vertex 17.687 25.9036 0.5
      vertex 19 15.2 0.5
      vertex 17.8 25.9 0.5
    endloop
  endfacet
  facet normal 0 0 1
    outer loop
      vertex 17.4627 25.9319 0.5
      vertex 19 15.2 0.5
      vertex 17.687 25.9036 0.5
    endloop
  endfacet
  facet normal 0 0 1
    outer loop
      vertex 17.2438 25.9881 0.5
      vertex 19 15.2 0.5
      vertex 17.4627 25.9319 0.5
    endloop
  endfacet
  facet normal 0 0 1
    outer loop
      vertex 17.0336 26.0713 0.5
      vertex 19 15.2 0.5
      vertex 17.2438 25.9881 0.5
    endloop
  endfacet
  facet normal 0 0 1
    outer loop
      vertex 16.8355 26.1802 0.5
      vertex 19 15.2 0.5
      vertex 17.0336 26.0713 0.5
    endloop
  endfacet
  facet normal 0 0 1
    outer loop
      vertex 10.1558 27.562 0.5
      vertex 16.8355 26.1802 0.5
      vertex 16.6526 26.3131 0.5
    endloop
  endfacet
  facet normal 0 0 1
    outer loop
      vertex 10.5816 27.6713 0.5
      vertex 16.6526 26.3131 0.5
      vertex 16.4879 26.4678 0.5
    endloop
  endfacet
  facet normal 0 0 1
    outer loop
      vertex 10.9902 27.8331 0.5
      vertex 16.4879 26.4678 0.5
      vertex 16.3438 26.642 0.5
    endloop
  endfacet
  facet normal 0 0 1
    outer loop
      vertex 11.3754 28.0449 0.5
      vertex 16.3438 26.642 0.5
      vertex 16.2226 26.8328 0.5
    endloop
  endfacet
  facet normal 0 0 1
    outer loop
      vertex 11.3754 28.0449 0.5
      vertex 16.2226 26.8328 0.5
      vertex 16.1264 27.0374 0.5
    endloop
  endfacet
  facet normal 0 0 1
    outer loop
      vertex 11.731 28.3032 0.5
      vertex 16.1264 27.0374 0.5
      vertex 16.0565 27.2524 0.5
    endloop
  endfacet
  facet normal 0 0 1
    outer loop
      vertex 16.1264 28.3626 0.5
      vertex 12.7542 29.7116 0.5
      vertex 16.0565 28.1476 0.5
    endloop
  endfacet
  facet normal -0 0 1
    outer loop
      vertex 12.5671 29.3139 0.5
      vertex 16.0565 28.1476 0.5
      vertex 12.7542 29.7116 0.5
    endloop
  endfacet
  facet normal 0 0 1
    outer loop
      vertex 16.0565 28.1476 0.5
      vertex 12.5671 29.3139 0.5
      vertex 16.0142 27.9256 0.5
    endloop
  endfacet
  facet normal -0 0 1
    outer loop
      vertex 12.3316 28.9428 0.5
      vertex 16.0142 27.9256 0.5
      vertex 12.5671 29.3139 0.5
    endloop
  endfacet
  facet normal 0 0 1
    outer loop
      vertex 16.0142 27.9256 0.5
      vertex 12.3316 28.9428 0.5
      vertex 16 27.7 0.5
    endloop
  endfacet
  facet normal 0 0 1
    outer loop
      vertex 16 27.7 0.5
      vertex 12.3316 28.9428 0.5
      vertex 16.0142 27.4744 0.5
    endloop
  endfacet
  facet normal -0 0 1
    outer loop
      vertex 12.0514 28.6041 0.5
      vertex 16.0142 27.4744 0.5
      vertex 12.3316 28.9428 0.5
    endloop
  endfacet
  facet normal 0 0 1
    outer loop
      vertex 16.0142 27.4744 0.5
      vertex 12.0514 28.6041 0.5
      vertex 16.0565 27.2524 0.5
    endloop
  endfacet
  facet normal -0 0 1
    outer loop
      vertex 11.731 28.3032 0.5
      vertex 16.0565 27.2524 0.5
      vertex 12.0514 28.6041 0.5
    endloop
  endfacet
  facet normal 0 0 1
    outer loop
      vertex 16.1264 27.0374 0.5
      vertex 11.731 28.3032 0.5
      vertex 11.3754 28.0449 0.5
    endloop
  endfacet
  facet normal 0 0 1
    outer loop
      vertex 16.3438 26.642 0.5
      vertex 11.3754 28.0449 0.5
      vertex 10.9902 27.8331 0.5
    endloop
  endfacet
  facet normal 0 0 1
    outer loop
      vertex 16.4879 26.4678 0.5
      vertex 10.9902 27.8331 0.5
      vertex 10.5816 27.6713 0.5
    endloop
  endfacet
  facet normal 0 0 1
    outer loop
      vertex 16.6526 26.3131 0.5
      vertex 10.5816 27.6713 0.5
      vertex 10.1558 27.562 0.5
    endloop
  endfacet
  facet normal 0 0 1
    outer loop
      vertex 16.8355 26.1802 0.5
      vertex 10.1558 27.562 0.5
      vertex 19 15.2 0.5
    endloop
  endfacet
  facet normal -0 0 1
    outer loop
      vertex 9.71977 27.5069 0.5
      vertex 19 15.2 0.5
      vertex 10.1558 27.562 0.5
    endloop
  endfacet
  facet normal -0 0 1
    outer loop
      vertex 9.28023 27.5069 0.5
      vertex 19 15.2 0.5
      vertex 9.71977 27.5069 0.5
    endloop
  endfacet
  facet normal 0 0 1
    outer loop
      vertex 8.84416 27.562 0.5
      vertex 19 15.2 0.5
      vertex 9.28023 27.5069 0.5
    endloop
  endfacet
  facet normal 0 0 1
    outer loop
      vertex 2.83564 2.26851 0.5
      vertex 8.84416 27.562 0.5
      vertex 8.41844 27.6713 0.5
    endloop
  endfacet
  facet normal 0 0 1
    outer loop
      vertex 2.83564 2.26851 0.5
      vertex 8.41844 27.6713 0.5
      vertex 8.00977 27.8331 0.5
    endloop
  endfacet
  facet normal 0 0 1
    outer loop
      vertex 2.83564 2.26851 0.5
      vertex 8.00977 27.8331 0.5
      vertex 7.62461 28.0449 0.5
    endloop
  endfacet
  facet normal 0 0 1
    outer loop
      vertex 2.83564 2.26851 0.5
      vertex 7.62461 28.0449 0.5
      vertex 7.26902 28.3032 0.5
    endloop
  endfacet
  facet normal 0 0 1
    outer loop
      vertex 2.83564 2.26851 0.5
      vertex 7.26902 28.3032 0.5
      vertex 6.94861 28.6041 0.5
    endloop
  endfacet
  facet normal 0 0 1
    outer loop
      vertex 2.83564 2.26851 0.5
      vertex 6 31 0.5
      vertex 2.83564 59.7315 0.5
    endloop
  endfacet
  facet normal 0 0 1
    outer loop
      vertex 8.84416 27.562 0.5
      vertex 2.83564 2.26851 0.5
      vertex 19 15.2 0.5
    endloop
  endfacet
  facet normal 0 0 1
    outer loop
      vertex 6.66844 28.9428 0.5
      vertex 2.83564 2.26851 0.5
      vertex 6.94861 28.6041 0.5
    endloop
  endfacet
  facet normal 0 0 1
    outer loop
      vertex 6.43293 29.3139 0.5
      vertex 2.83564 2.26851 0.5
      vertex 6.66844 28.9428 0.5
    endloop
  endfacet
  facet normal 0 0 1
    outer loop
      vertex 6.24578 29.7116 0.5
      vertex 2.83564 2.26851 0.5
      vertex 6.43293 29.3139 0.5
    endloop
  endfacet
  facet normal 0 0 1
    outer loop
      vertex 6.10996 30.1296 0.5
      vertex 2.83564 2.26851 0.5
      vertex 6.24578 29.7116 0.5
    endloop
  endfacet
  facet normal 0 0 1
    outer loop
      vertex 6.0276 30.5613 0.5
      vertex 2.83564 2.26851 0.5
      vertex 6.10996 30.1296 0.5
    endloop
  endfacet
  facet normal 0 0 1
    outer loop
      vertex 6 31 0.5
      vertex 2.83564 2.26851 0.5
      vertex 6.0276 30.5613 0.5
    endloop
  endfacet
  facet normal 0 0 1
    outer loop
      vertex 19 46.8 0.5
      vertex 17.8 36.1 0.5
      vertex 19 36.1 0.5
    endloop
  endfacet
  facet normal 0 0 1
    outer loop
      vertex 17.8 36.1 0.5
      vertex 17.687 36.0964 0.5
      vertex 17.8 36.0964 0.5
    endloop
  endfacet
  facet normal 0 0 1
    outer loop
      vertex 19 46.8 0.5
      vertex 17.687 36.0964 0.5
      vertex 17.8 36.1 0.5
    endloop
  endfacet
  facet normal 0 0 1
    outer loop
      vertex 19 46.8 0.5
      vertex 17.4627 36.0681 0.5
      vertex 17.687 36.0964 0.5
    endloop
  endfacet
  facet normal 0 0 1
    outer loop
      vertex 19 46.8 0.5
      vertex 17.2438 36.0119 0.5
      vertex 17.4627 36.0681 0.5
    endloop
  endfacet
  facet normal 0 0 1
    outer loop
      vertex 19 46.8 0.5
      vertex 17.0336 35.9287 0.5
      vertex 17.2438 36.0119 0.5
    endloop
  endfacet
  facet normal 0 0 1
    outer loop
      vertex 19 46.8 0.5
      vertex 16.8355 35.8198 0.5
      vertex 17.0336 35.9287 0.5
    endloop
  endfacet
  facet normal 0 0 1
    outer loop
      vertex 10.1558 34.438 0.5
      vertex 16.8355 35.8198 0.5
      vertex 19 46.8 0.5
    endloop
  endfacet
  facet normal 0 0 1
    outer loop
      vertex 16.8355 35.8198 0.5
      vertex 10.1558 34.438 0.5
      vertex 16.6526 35.6869 0.5
    endloop
  endfacet
  facet normal 0 -0 1
    outer loop
      vertex 10.5816 34.3287 0.5
      vertex 16.6526 35.6869 0.5
      vertex 10.1558 34.438 0.5
    endloop
  endfacet
  facet normal 0 0 1
    outer loop
      vertex 16.6526 35.6869 0.5
      vertex 10.5816 34.3287 0.5
      vertex 16.4879 35.5322 0.5
    endloop
  endfacet
  facet normal 0 -0 1
    outer loop
      vertex 10.9902 34.1669 0.5
      vertex 16.4879 35.5322 0.5
      vertex 10.5816 34.3287 0.5
    endloop
  endfacet
  facet normal 0 -0 1
    outer loop
      vertex 11.3754 33.9551 0.5
      vertex 16.3438 35.358 0.5
      vertex 10.9902 34.1669 0.5
    endloop
  endfacet
  facet normal 0 0 1
    outer loop
      vertex 16.2226 28.5672 0.5
      vertex 12.7542 29.7116 0.5
      vertex 16.1264 28.3626 0.5
    endloop
  endfacet
  facet normal 0 0 1
    outer loop
      vertex 12.3316 33.0572 0.5
      vertex 16 34.3 0.5
      vertex 16.0142 34.5256 0.5
    endloop
  endfacet
  facet normal 0 0 1
    outer loop
      vertex 12.0514 33.3959 0.5
      vertex 16.0142 34.5256 0.5
      vertex 16.0565 34.7476 0.5
    endloop
  endfacet
  facet normal 0 0 1
    outer loop
      vertex 16.3438 35.358 0.5
      vertex 11.3754 33.9551 0.5
      vertex 16.2226 35.1672 0.5
    endloop
  endfacet
  facet normal 0 0 1
    outer loop
      vertex 16.0142 34.0744 0.5
      vertex 12.9724 31.4387 0.5
      vertex 13 31 0.5
    endloop
  endfacet
  facet normal 0 0 1
    outer loop
      vertex 16.0142 34.0744 0.5
      vertex 12.89 31.8704 0.5
      vertex 12.9724 31.4387 0.5
    endloop
  endfacet
  facet normal 0 0 1
    outer loop
      vertex 16.0142 34.0744 0.5
      vertex 12.7542 32.2884 0.5
      vertex 12.89 31.8704 0.5
    endloop
  endfacet
  facet normal 0 0 1
    outer loop
      vertex 16.0142 34.0744 0.5
      vertex 12.5671 32.6861 0.5
      vertex 12.7542 32.2884 0.5
    endloop
  endfacet
  facet normal 0 0 1
    outer loop
      vertex 16.0142 34.0744 0.5
      vertex 12.3316 33.0572 0.5
      vertex 12.5671 32.6861 0.5
    endloop
  endfacet
  facet normal 0 0 1
    outer loop
      vertex 16.0142 34.5256 0.5
      vertex 12.0514 33.3959 0.5
      vertex 12.3316 33.0572 0.5
    endloop
  endfacet
  facet normal 0 0 1
    outer loop
      vertex 16.0565 34.7476 0.5
      vertex 11.731 33.6968 0.5
      vertex 12.0514 33.3959 0.5
    endloop
  endfacet
  facet normal 0 0 1
    outer loop
      vertex 16.1264 34.9626 0.5
      vertex 11.731 33.6968 0.5
      vertex 16.0565 34.7476 0.5
    endloop
  endfacet
  facet normal 0 -0 1
    outer loop
      vertex 11.731 33.6968 0.5
      vertex 16.1264 34.9626 0.5
      vertex 11.3754 33.9551 0.5
    endloop
  endfacet
  facet normal 0 0 1
    outer loop
      vertex 16.2226 35.1672 0.5
      vertex 11.3754 33.9551 0.5
      vertex 16.1264 34.9626 0.5
    endloop
  endfacet
  facet normal 0 0 1
    outer loop
      vertex 16.4879 35.5322 0.5
      vertex 10.9902 34.1669 0.5
      vertex 16.3438 35.358 0.5
    endloop
  endfacet
  facet normal 0 0 1
    outer loop
      vertex 19 46.8 0.5
      vertex 9.71977 34.4931 0.5
      vertex 10.1558 34.438 0.5
    endloop
  endfacet
  facet normal 0 0 1
    outer loop
      vertex 19 46.8 0.5
      vertex 9.28023 34.4931 0.5
      vertex 9.71977 34.4931 0.5
    endloop
  endfacet
  facet normal 0 0 1
    outer loop
      vertex 19 46.8 0.5
      vertex 8.84416 34.438 0.5
      vertex 9.28023 34.4931 0.5
    endloop
  endfacet
  facet normal 0 0 1
    outer loop
      vertex 2.83564 59.7315 0.5
      vertex 8.84416 34.438 0.5
      vertex 19 46.8 0.5
    endloop
  endfacet
  facet normal 0 0 1
    outer loop
      vertex 8.84416 34.438 0.5
      vertex 2.83564 59.7315 0.5
      vertex 8.41844 34.3287 0.5
    endloop
  endfacet
  facet normal 0 0 1
    outer loop
      vertex 8.41844 34.3287 0.5
      vertex 2.83564 59.7315 0.5
      vertex 8.00977 34.1669 0.5
    endloop
  endfacet
  facet normal 0 0 1
    outer loop
      vertex 8.00977 34.1669 0.5
      vertex 2.83564 59.7315 0.5
      vertex 7.62461 33.9551 0.5
    endloop
  endfacet
  facet normal 0 0 1
    outer loop
      vertex 7.62461 33.9551 0.5
      vertex 2.83564 59.7315 0.5
      vertex 7.26902 33.6968 0.5
    endloop
  endfacet
  facet normal 0 0 1
    outer loop
      vertex 6.0276 31.4387 0.5
      vertex 2.83564 59.7315 0.5
      vertex 6 31 0.5
    endloop
  endfacet
  facet normal 0 0 1
    outer loop
      vertex 6.10996 31.8704 0.5
      vertex 2.83564 59.7315 0.5
      vertex 6.0276 31.4387 0.5
    endloop
  endfacet
  facet normal 0 0 1
    outer loop
      vertex 6.24578 32.2884 0.5
      vertex 2.83564 59.7315 0.5
      vertex 6.10996 31.8704 0.5
    endloop
  endfacet
  facet normal 0 0 1
    outer loop
      vertex 6.43293 32.6861 0.5
      vertex 2.83564 59.7315 0.5
      vertex 6.24578 32.2884 0.5
    endloop
  endfacet
  facet normal 0 0 1
    outer loop
      vertex 6.66844 33.0572 0.5
      vertex 2.83564 59.7315 0.5
      vertex 6.43293 32.6861 0.5
    endloop
  endfacet
  facet normal 0 0 1
    outer loop
      vertex 6.94861 33.3959 0.5
      vertex 2.83564 59.7315 0.5
      vertex 6.66844 33.0572 0.5
    endloop
  endfacet
  facet normal 0 0 1
    outer loop
      vertex 7.26902 33.6968 0.5
      vertex 2.83564 59.7315 0.5
      vertex 6.94861 33.3959 0.5
    endloop
  endfacet
  facet normal -0 0 1
    outer loop
      vertex 17.687 32.5036 0.5
      vertex 17.8 32.5 0.5
      vertex 17.8 32.5036 0.5
    endloop
  endfacet
  facet normal 0 0 1
    outer loop
      vertex 17.8 32.5 0.5
      vertex 17.687 32.5036 0.5
      vertex 17.8 29.5 0.5
    endloop
  endfacet
  facet normal 0 0 1
    outer loop
      vertex 17.687 29.4964 0.5
      vertex 17.8 29.5 0.5
      vertex 17.687 32.5036 0.5
    endloop
  endfacet
  facet normal 0 0 1
    outer loop
      vertex 17.8 29.5 0.5
      vertex 17.687 29.4964 0.5
      vertex 17.8 29.4964 0.5
    endloop
  endfacet
  facet normal 0 0 1
    outer loop
      vertex 17.4627 32.5319 0.5
      vertex 17.687 29.4964 0.5
      vertex 17.687 32.5036 0.5
    endloop
  endfacet
  facet normal 0 0 1
    outer loop
      vertex 17.4627 32.5319 0.5
      vertex 17.4627 29.4681 0.5
      vertex 17.687 29.4964 0.5
    endloop
  endfacet
  facet normal 0 0 1
    outer loop
      vertex 17.2438 32.5881 0.5
      vertex 17.4627 29.4681 0.5
      vertex 17.4627 32.5319 0.5
    endloop
  endfacet
  facet normal 0 0 1
    outer loop
      vertex 17.2438 32.5881 0.5
      vertex 17.2438 29.4119 0.5
      vertex 17.4627 29.4681 0.5
    endloop
  endfacet
  facet normal 0 0 1
    outer loop
      vertex 17.0336 32.6713 0.5
      vertex 17.2438 29.4119 0.5
      vertex 17.2438 32.5881 0.5
    endloop
  endfacet
  facet normal 0 0 1
    outer loop
      vertex 17.0336 32.6713 0.5
      vertex 17.0336 29.3287 0.5
      vertex 17.2438 29.4119 0.5
    endloop
  endfacet
  facet normal 0 0 1
    outer loop
      vertex 16.8355 32.7802 0.5
      vertex 17.0336 29.3287 0.5
      vertex 17.0336 32.6713 0.5
    endloop
  endfacet
  facet normal 0 0 1
    outer loop
      vertex 16.8355 32.7802 0.5
      vertex 16.8355 29.2198 0.5
      vertex 17.0336 29.3287 0.5
    endloop
  endfacet
  facet normal 0 0 1
    outer loop
      vertex 16.6526 32.9131 0.5
      vertex 16.8355 29.2198 0.5
      vertex 16.8355 32.7802 0.5
    endloop
  endfacet
  facet normal 0 0 1
    outer loop
      vertex 16.6526 32.9131 0.5
      vertex 16.6526 29.0869 0.5
      vertex 16.8355 29.2198 0.5
    endloop
  endfacet
  facet normal 0 0 1
    outer loop
      vertex 13 31 0.5
      vertex 16.6526 32.9131 0.5
      vertex 16.4879 33.0678 0.5
    endloop
  endfacet
  facet normal 0 0 1
    outer loop
      vertex 16.6526 32.9131 0.5
      vertex 13 31 0.5
      vertex 16.6526 29.0869 0.5
    endloop
  endfacet
  facet normal 0 0 1
    outer loop
      vertex 13 31 0.5
      vertex 16.4879 33.0678 0.5
      vertex 16.3438 33.242 0.5
    endloop
  endfacet
  facet normal -0 0 1
    outer loop
      vertex 12.9724 30.5613 0.5
      vertex 16.6526 29.0869 0.5
      vertex 13 31 0.5
    endloop
  endfacet
  facet normal 0 0 1
    outer loop
      vertex 13 31 0.5
      vertex 16.3438 33.242 0.5
      vertex 16.2226 33.4328 0.5
    endloop
  endfacet
  facet normal 0 0 1
    outer loop
      vertex 16.6526 29.0869 0.5
      vertex 12.9724 30.5613 0.5
      vertex 16.4879 28.9322 0.5
    endloop
  endfacet
  facet normal 0 0 1
    outer loop
      vertex 13 31 0.5
      vertex 16.2226 33.4328 0.5
      vertex 16.1264 33.6374 0.5
    endloop
  endfacet
  facet normal 0 0 1
    outer loop
      vertex 16.4879 28.9322 0.5
      vertex 12.9724 30.5613 0.5
      vertex 16.3438 28.758 0.5
    endloop
  endfacet
  facet normal 0 0 1
    outer loop
      vertex 13 31 0.5
      vertex 16.1264 33.6374 0.5
      vertex 16.0565 33.8524 0.5
    endloop
  endfacet
  facet normal -0 0 1
    outer loop
      vertex 12.89 30.1296 0.5
      vertex 16.3438 28.758 0.5
      vertex 12.9724 30.5613 0.5
    endloop
  endfacet
  facet normal 0 0 1
    outer loop
      vertex 13 31 0.5
      vertex 16.0565 33.8524 0.5
      vertex 16.0142 34.0744 0.5
    endloop
  endfacet
  facet normal 0 0 1
    outer loop
      vertex 16.3438 28.758 0.5
      vertex 12.89 30.1296 0.5
      vertex 16.2226 28.5672 0.5
    endloop
  endfacet
  facet normal 0 0 1
    outer loop
      vertex 12.3316 33.0572 0.5
      vertex 16.0142 34.0744 0.5
      vertex 16 34.3 0.5
    endloop
  endfacet
  facet normal -0 0 1
    outer loop
      vertex 12.7542 29.7116 0.5
      vertex 16.2226 28.5672 0.5
      vertex 12.89 30.1296 0.5
    endloop
  endfacet
  facet normal -0 0 1
    outer loop
      vertex 17.8 32.5 0.5
      vertex 19 29.5 0.5
      vertex 19 32.5 0.5
    endloop
  endfacet
  facet normal 0 0 1
    outer loop
      vertex 19 29.5 0.5
      vertex 17.8 32.5 0.5
      vertex 17.8 29.5 0.5
    endloop
  endfacet
  facet normal 0.998025 -0.0628189 0
    outer loop
      vertex 16 34.3 0.5
      vertex 16.0142 34.5256 -0.5
      vertex 16.0142 34.5256 0.5
    endloop
  endfacet
  facet normal 0.998025 -0.0628189 0
    outer loop
      vertex 16.0142 34.5256 -0.5
      vertex 16 34.3 0.5
      vertex 16 34.3 -0.5
    endloop
  endfacet
  facet normal 0 -1 0
    outer loop
      vertex 17.687 36.0964 -0.5
      vertex 17.8 36.0964 0.5
      vertex 17.687 36.0964 0.5
    endloop
  endfacet
  facet normal 0 -1 -0
    outer loop
      vertex 17.8 36.0964 0.5
      vertex 17.687 36.0964 -0.5
      vertex 17.8 36.0964 -0.5
    endloop
  endfacet
  facet normal 0 1 -0
    outer loop
      vertex 17.8 32.5036 -0.5
      vertex 17.687 32.5036 0.5
      vertex 17.8 32.5036 0.5
    endloop
  endfacet
  facet normal 0 1 0
    outer loop
      vertex 17.687 32.5036 0.5
      vertex 17.8 32.5036 -0.5
      vertex 17.687 32.5036 -0.5
    endloop
  endfacet
  facet normal 0.684633 -0.728888 0
    outer loop
      vertex 16.4879 35.5322 -0.5
      vertex 16.6526 35.6869 0.5
      vertex 16.4879 35.5322 0.5
    endloop
  endfacet
  facet normal 0.684633 -0.728888 0
    outer loop
      vertex 16.6526 35.6869 0.5
      vertex 16.4879 35.5322 -0.5
      vertex 16.6526 35.6869 -0.5
    endloop
  endfacet
  facet normal 0.368033 -0.929813 0
    outer loop
      vertex 17.0336 35.9287 -0.5
      vertex 17.2438 36.0119 0.5
      vertex 17.0336 35.9287 0.5
    endloop
  endfacet
  facet normal 0.368033 -0.929813 0
    outer loop
      vertex 17.2438 36.0119 0.5
      vertex 17.0336 35.9287 -0.5
      vertex 17.2438 36.0119 -0.5
    endloop
  endfacet
  facet normal 0.904959 -0.425499 0
    outer loop
      vertex 16.1264 34.9626 0.5
      vertex 16.2226 35.1672 -0.5
      vertex 16.2226 35.1672 0.5
    endloop
  endfacet
  facet normal 0.904959 -0.425499 0
    outer loop
      vertex 16.2226 35.1672 -0.5
      vertex 16.1264 34.9626 0.5
      vertex 16.1264 34.9626 -0.5
    endloop
  endfacet
  facet normal 0.951002 -0.309186 0
    outer loop
      vertex 16.0565 34.7476 0.5
      vertex 16.1264 34.9626 -0.5
      vertex 16.1264 34.9626 0.5
    endloop
  endfacet
  facet normal 0.951002 -0.309186 0
    outer loop
      vertex 16.1264 34.9626 -0.5
      vertex 16.0565 34.7476 0.5
      vertex 16.0565 34.7476 -0.5
    endloop
  endfacet
  facet normal 0.481732 -0.876319 0
    outer loop
      vertex 16.8355 35.8198 -0.5
      vertex 17.0336 35.9287 0.5
      vertex 16.8355 35.8198 0.5
    endloop
  endfacet
  facet normal 0.481732 -0.876319 0
    outer loop
      vertex 17.0336 35.9287 0.5
      vertex 16.8355 35.8198 -0.5
      vertex 17.0336 35.9287 -0.5
    endloop
  endfacet
  facet normal 0.248673 -0.968587 0
    outer loop
      vertex 17.2438 36.0119 -0.5
      vertex 17.4627 36.0681 0.5
      vertex 17.2438 36.0119 0.5
    endloop
  endfacet
  facet normal 0.248673 -0.968587 0
    outer loop
      vertex 17.4627 36.0681 0.5
      vertex 17.2438 36.0119 -0.5
      vertex 17.4627 36.0681 -0.5
    endloop
  endfacet
  facet normal 0.844098 -0.536188 0
    outer loop
      vertex 16.2226 35.1672 0.5
      vertex 16.3438 35.358 -0.5
      vertex 16.3438 35.358 0.5
    endloop
  endfacet
  facet normal 0.844098 -0.536188 0
    outer loop
      vertex 16.3438 35.358 -0.5
      vertex 16.2226 35.1672 0.5
      vertex 16.2226 35.1672 -0.5
    endloop
  endfacet
  facet normal 0.770537 -0.637396 0
    outer loop
      vertex 16.3438 35.358 0.5
      vertex 16.4879 35.5322 -0.5
      vertex 16.4879 35.5322 0.5
    endloop
  endfacet
  facet normal 0.770537 -0.637396 0
    outer loop
      vertex 16.4879 35.5322 -0.5
      vertex 16.3438 35.358 0.5
      vertex 16.3438 35.358 -0.5
    endloop
  endfacet
  facet normal 0.982327 -0.187173 0
    outer loop
      vertex 16.0142 34.5256 0.5
      vertex 16.0565 34.7476 -0.5
      vertex 16.0565 34.7476 0.5
    endloop
  endfacet
  facet normal 0.982327 -0.187173 0
    outer loop
      vertex 16.0565 34.7476 -0.5
      vertex 16.0142 34.5256 0.5
      vertex 16.0142 34.5256 -0.5
    endloop
  endfacet
  facet normal 0.58783 -0.808985 0
    outer loop
      vertex 16.6526 35.6869 -0.5
      vertex 16.8355 35.8198 0.5
      vertex 16.6526 35.6869 0.5
    endloop
  endfacet
  facet normal 0.58783 -0.808985 0
    outer loop
      vertex 16.8355 35.8198 0.5
      vertex 16.6526 35.6869 -0.5
      vertex 16.8355 35.8198 -0.5
    endloop
  endfacet
  facet normal 0.125178 -0.992134 0
    outer loop
      vertex 17.4627 36.0681 -0.5
      vertex 17.687 36.0964 0.5
      vertex 17.4627 36.0681 0.5
    endloop
  endfacet
  facet normal 0.125178 -0.992134 0
    outer loop
      vertex 17.687 36.0964 0.5
      vertex 17.4627 36.0681 -0.5
      vertex 17.687 36.0964 -0.5
    endloop
  endfacet
  facet normal 0.904959 0.425499 0
    outer loop
      vertex 16.2226 33.4328 0.5
      vertex 16.1264 33.6374 -0.5
      vertex 16.1264 33.6374 0.5
    endloop
  endfacet
  facet normal 0.904959 0.425499 0
    outer loop
      vertex 16.1264 33.6374 -0.5
      vertex 16.2226 33.4328 0.5
      vertex 16.2226 33.4328 -0.5
    endloop
  endfacet
  facet normal 0.951002 0.309186 0
    outer loop
      vertex 16.1264 33.6374 0.5
      vertex 16.0565 33.8524 -0.5
      vertex 16.0565 33.8524 0.5
    endloop
  endfacet
  facet normal 0.951002 0.309186 0
    outer loop
      vertex 16.0565 33.8524 -0.5
      vertex 16.1264 33.6374 0.5
      vertex 16.1264 33.6374 -0.5
    endloop
  endfacet
  facet normal 0.125178 0.992134 -0
    outer loop
      vertex 17.687 32.5036 -0.5
      vertex 17.4627 32.5319 0.5
      vertex 17.687 32.5036 0.5
    endloop
  endfacet
  facet normal 0.125178 0.992134 0
    outer loop
      vertex 17.4627 32.5319 0.5
      vertex 17.687 32.5036 -0.5
      vertex 17.4627 32.5319 -0.5
    endloop
  endfacet
  facet normal 0.368033 0.929813 -0
    outer loop
      vertex 17.2438 32.5881 -0.5
      vertex 17.0336 32.6713 0.5
      vertex 17.2438 32.5881 0.5
    endloop
  endfacet
  facet normal 0.368033 0.929813 0
    outer loop
      vertex 17.0336 32.6713 0.5
      vertex 17.2438 32.5881 -0.5
      vertex 17.0336 32.6713 -0.5
    endloop
  endfacet
  facet normal 0.248673 0.968587 -0
    outer loop
      vertex 17.4627 32.5319 -0.5
      vertex 17.2438 32.5881 0.5
      vertex 17.4627 32.5319 0.5
    endloop
  endfacet
  facet normal 0.248673 0.968587 0
    outer loop
      vertex 17.2438 32.5881 0.5
      vertex 17.4627 32.5319 -0.5
      vertex 17.2438 32.5881 -0.5
    endloop
  endfacet
  facet normal 0.770537 0.637396 0
    outer loop
      vertex 16.4879 33.0678 0.5
      vertex 16.3438 33.242 -0.5
      vertex 16.3438 33.242 0.5
    endloop
  endfacet
  facet normal 0.770537 0.637396 0
    outer loop
      vertex 16.3438 33.242 -0.5
      vertex 16.4879 33.0678 0.5
      vertex 16.4879 33.0678 -0.5
    endloop
  endfacet
  facet normal 0.684633 0.728888 -0
    outer loop
      vertex 16.6526 32.9131 -0.5
      vertex 16.4879 33.0678 0.5
      vertex 16.6526 32.9131 0.5
    endloop
  endfacet
  facet normal 0.684633 0.728888 0
    outer loop
      vertex 16.4879 33.0678 0.5
      vertex 16.6526 32.9131 -0.5
      vertex 16.4879 33.0678 -0.5
    endloop
  endfacet
  facet normal 0.982327 0.187173 0
    outer loop
      vertex 16.0565 33.8524 0.5
      vertex 16.0142 34.0744 -0.5
      vertex 16.0142 34.0744 0.5
    endloop
  endfacet
  facet normal 0.982327 0.187173 0
    outer loop
      vertex 16.0142 34.0744 -0.5
      vertex 16.0565 33.8524 0.5
      vertex 16.0565 33.8524 -0.5
    endloop
  endfacet
  facet normal 0.998025 0.0628189 0
    outer loop
      vertex 16.0142 34.0744 0.5
      vertex 16 34.3 -0.5
      vertex 16 34.3 0.5
    endloop
  endfacet
  facet normal 0.998025 0.0628189 0
    outer loop
      vertex 16 34.3 -0.5
      vertex 16.0142 34.0744 0.5
      vertex 16.0142 34.0744 -0.5
    endloop
  endfacet
  facet normal 0.844098 0.536188 0
    outer loop
      vertex 16.3438 33.242 0.5
      vertex 16.2226 33.4328 -0.5
      vertex 16.2226 33.4328 0.5
    endloop
  endfacet
  facet normal 0.844098 0.536188 0
    outer loop
      vertex 16.2226 33.4328 -0.5
      vertex 16.3438 33.242 0.5
      vertex 16.3438 33.242 -0.5
    endloop
  endfacet
  facet normal 0.481732 0.876319 -0
    outer loop
      vertex 17.0336 32.6713 -0.5
      vertex 16.8355 32.7802 0.5
      vertex 17.0336 32.6713 0.5
    endloop
  endfacet
  facet normal 0.481732 0.876319 0
    outer loop
      vertex 16.8355 32.7802 0.5
      vertex 17.0336 32.6713 -0.5
      vertex 16.8355 32.7802 -0.5
    endloop
  endfacet
  facet normal 0.58783 0.808985 -0
    outer loop
      vertex 16.8355 32.7802 -0.5
      vertex 16.6526 32.9131 0.5
      vertex 16.8355 32.7802 0.5
    endloop
  endfacet
  facet normal 0.58783 0.808985 0
    outer loop
      vertex 16.6526 32.9131 0.5
      vertex 16.8355 32.7802 -0.5
      vertex 16.6526 32.9131 -0.5
    endloop
  endfacet
  facet normal 1 -0 0
    outer loop
      vertex 17.8 36.0964 0.5
      vertex 17.8 36.1 -0.5
      vertex 17.8 36.1 0.5
    endloop
  endfacet
  facet normal 1 0 0
    outer loop
      vertex 17.8 36.1 -0.5
      vertex 17.8 36.0964 0.5
      vertex 17.8 36.0964 -0.5
    endloop
  endfacet
  facet normal 1 -0 0
    outer loop
      vertex 17.8 32.5 0.5
      vertex 17.8 32.5036 -0.5
      vertex 17.8 32.5036 0.5
    endloop
  endfacet
  facet normal 1 0 0
    outer loop
      vertex 17.8 32.5036 -0.5
      vertex 17.8 32.5 0.5
      vertex 17.8 32.5 -0.5
    endloop
  endfacet
  facet normal 0 1 -0
    outer loop
      vertex 19 32.5 -0.5
      vertex 17.8 32.5 0.5
      vertex 19 32.5 0.5
    endloop
  endfacet
  facet normal 0 1 0
    outer loop
      vertex 17.8 32.5 0.5
      vertex 19 32.5 -0.5
      vertex 17.8 32.5 -0.5
    endloop
  endfacet
  facet normal 0 -1 0
    outer loop
      vertex 17.8 36.1 -0.5
      vertex 19 36.1 0.5
      vertex 17.8 36.1 0.5
    endloop
  endfacet
  facet normal 0 -1 -0
    outer loop
      vertex 19 36.1 0.5
      vertex 17.8 36.1 -0.5
      vertex 19 36.1 -0.5
    endloop
  endfacet
  facet normal 0.125178 -0.992134 0
    outer loop
      vertex 17.4627 29.4681 -0.5
      vertex 17.687 29.4964 0.5
      vertex 17.4627 29.4681 0.5
    endloop
  endfacet
  facet normal 0.125178 -0.992134 0
    outer loop
      vertex 17.687 29.4964 0.5
      vertex 17.4627 29.4681 -0.5
      vertex 17.687 29.4964 -0.5
    endloop
  endfacet
  facet normal 0 1 -0
    outer loop
      vertex 17.8 25.9036 -0.5
      vertex 17.687 25.9036 0.5
      vertex 17.8 25.9036 0.5
    endloop
  endfacet
  facet normal 0 1 0
    outer loop
      vertex 17.687 25.9036 0.5
      vertex 17.8 25.9036 -0.5
      vertex 17.687 25.9036 -0.5
    endloop
  endfacet
  facet normal 0.684633 0.728888 -0
    outer loop
      vertex 16.6526 26.3131 -0.5
      vertex 16.4879 26.4678 0.5
      vertex 16.6526 26.3131 0.5
    endloop
  endfacet
  facet normal 0.684633 0.728888 0
    outer loop
      vertex 16.4879 26.4678 0.5
      vertex 16.6526 26.3131 -0.5
      vertex 16.4879 26.4678 -0.5
    endloop
  endfacet
  facet normal 0.770537 -0.637396 0
    outer loop
      vertex 16.3438 28.758 0.5
      vertex 16.4879 28.9322 -0.5
      vertex 16.4879 28.9322 0.5
    endloop
  endfacet
  facet normal 0.770537 -0.637396 0
    outer loop
      vertex 16.4879 28.9322 -0.5
      vertex 16.3438 28.758 0.5
      vertex 16.3438 28.758 -0.5
    endloop
  endfacet
  facet normal 0.481732 -0.876319 0
    outer loop
      vertex 16.8355 29.2198 -0.5
      vertex 17.0336 29.3287 0.5
      vertex 16.8355 29.2198 0.5
    endloop
  endfacet
  facet normal 0.481732 -0.876319 0
    outer loop
      vertex 17.0336 29.3287 0.5
      vertex 16.8355 29.2198 -0.5
      vertex 17.0336 29.3287 -0.5
    endloop
  endfacet
  facet normal 0.904959 0.425499 0
    outer loop
      vertex 16.2226 26.8328 0.5
      vertex 16.1264 27.0374 -0.5
      vertex 16.1264 27.0374 0.5
    endloop
  endfacet
  facet normal 0.904959 0.425499 0
    outer loop
      vertex 16.1264 27.0374 -0.5
      vertex 16.2226 26.8328 0.5
      vertex 16.2226 26.8328 -0.5
    endloop
  endfacet
  facet normal 0.951002 -0.309186 0
    outer loop
      vertex 16.0565 28.1476 0.5
      vertex 16.1264 28.3626 -0.5
      vertex 16.1264 28.3626 0.5
    endloop
  endfacet
  facet normal 0.951002 -0.309186 0
    outer loop
      vertex 16.1264 28.3626 -0.5
      vertex 16.0565 28.1476 0.5
      vertex 16.0565 28.1476 -0.5
    endloop
  endfacet
  facet normal 0.58783 -0.808985 0
    outer loop
      vertex 16.6526 29.0869 -0.5
      vertex 16.8355 29.2198 0.5
      vertex 16.6526 29.0869 0.5
    endloop
  endfacet
  facet normal 0.58783 -0.808985 0
    outer loop
      vertex 16.8355 29.2198 0.5
      vertex 16.6526 29.0869 -0.5
      vertex 16.8355 29.2198 -0.5
    endloop
  endfacet
  facet normal 0.368033 -0.929813 0
    outer loop
      vertex 17.0336 29.3287 -0.5
      vertex 17.2438 29.4119 0.5
      vertex 17.0336 29.3287 0.5
    endloop
  endfacet
  facet normal 0.368033 -0.929813 0
    outer loop
      vertex 17.2438 29.4119 0.5
      vertex 17.0336 29.3287 -0.5
      vertex 17.2438 29.4119 -0.5
    endloop
  endfacet
  facet normal 0.58783 0.808985 -0
    outer loop
      vertex 16.8355 26.1802 -0.5
      vertex 16.6526 26.3131 0.5
      vertex 16.8355 26.1802 0.5
    endloop
  endfacet
  facet normal 0.58783 0.808985 0
    outer loop
      vertex 16.6526 26.3131 0.5
      vertex 16.8355 26.1802 -0.5
      vertex 16.6526 26.3131 -0.5
    endloop
  endfacet
  facet normal 0.982327 0.187173 0
    outer loop
      vertex 16.0565 27.2524 0.5
      vertex 16.0142 27.4744 -0.5
      vertex 16.0142 27.4744 0.5
    endloop
  endfacet
  facet normal 0.982327 0.187173 0
    outer loop
      vertex 16.0142 27.4744 -0.5
      vertex 16.0565 27.2524 0.5
      vertex 16.0565 27.2524 -0.5
    endloop
  endfacet
  facet normal 0 -1 0
    outer loop
      vertex 17.687 29.4964 -0.5
      vertex 17.8 29.4964 0.5
      vertex 17.687 29.4964 0.5
    endloop
  endfacet
  facet normal 0 -1 -0
    outer loop
      vertex 17.8 29.4964 0.5
      vertex 17.687 29.4964 -0.5
      vertex 17.8 29.4964 -0.5
    endloop
  endfacet
  facet normal 0.904959 -0.425499 0
    outer loop
      vertex 16.1264 28.3626 0.5
      vertex 16.2226 28.5672 -0.5
      vertex 16.2226 28.5672 0.5
    endloop
  endfacet
  facet normal 0.904959 -0.425499 0
    outer loop
      vertex 16.2226 28.5672 -0.5
      vertex 16.1264 28.3626 0.5
      vertex 16.1264 28.3626 -0.5
    endloop
  endfacet
  facet normal 0.844098 -0.536188 0
    outer loop
      vertex 16.2226 28.5672 0.5
      vertex 16.3438 28.758 -0.5
      vertex 16.3438 28.758 0.5
    endloop
  endfacet
  facet normal 0.844098 -0.536188 0
    outer loop
      vertex 16.3438 28.758 -0.5
      vertex 16.2226 28.5672 0.5
      vertex 16.2226 28.5672 -0.5
    endloop
  endfacet
  facet normal 0.982327 -0.187173 0
    outer loop
      vertex 16.0142 27.9256 0.5
      vertex 16.0565 28.1476 -0.5
      vertex 16.0565 28.1476 0.5
    endloop
  endfacet
  facet normal 0.982327 -0.187173 0
    outer loop
      vertex 16.0565 28.1476 -0.5
      vertex 16.0142 27.9256 0.5
      vertex 16.0142 27.9256 -0.5
    endloop
  endfacet
  facet normal 0.998025 -0.0628189 0
    outer loop
      vertex 16 27.7 0.5
      vertex 16.0142 27.9256 -0.5
      vertex 16.0142 27.9256 0.5
    endloop
  endfacet
  facet normal 0.998025 -0.0628189 0
    outer loop
      vertex 16.0142 27.9256 -0.5
      vertex 16 27.7 0.5
      vertex 16 27.7 -0.5
    endloop
  endfacet
  facet normal 0.998025 0.0628189 0
    outer loop
      vertex 16.0142 27.4744 0.5
      vertex 16 27.7 -0.5
      vertex 16 27.7 0.5
    endloop
  endfacet
  facet normal 0.998025 0.0628189 0
    outer loop
      vertex 16 27.7 -0.5
      vertex 16.0142 27.4744 0.5
      vertex 16.0142 27.4744 -0.5
    endloop
  endfacet
  facet normal 0.684633 -0.728888 0
    outer loop
      vertex 16.4879 28.9322 -0.5
      vertex 16.6526 29.0869 0.5
      vertex 16.4879 28.9322 0.5
    endloop
  endfacet
  facet normal 0.684633 -0.728888 0
    outer loop
      vertex 16.6526 29.0869 0.5
      vertex 16.4879 28.9322 -0.5
      vertex 16.6526 29.0869 -0.5
    endloop
  endfacet
  facet normal 0.248673 -0.968587 0
    outer loop
      vertex 17.2438 29.4119 -0.5
      vertex 17.4627 29.4681 0.5
      vertex 17.2438 29.4119 0.5
    endloop
  endfacet
  facet normal 0.248673 -0.968587 0
    outer loop
      vertex 17.4627 29.4681 0.5
      vertex 17.2438 29.4119 -0.5
      vertex 17.4627 29.4681 -0.5
    endloop
  endfacet
  facet normal 0.481732 0.876319 -0
    outer loop
      vertex 17.0336 26.0713 -0.5
      vertex 16.8355 26.1802 0.5
      vertex 17.0336 26.0713 0.5
    endloop
  endfacet
  facet normal 0.481732 0.876319 0
    outer loop
      vertex 16.8355 26.1802 0.5
      vertex 17.0336 26.0713 -0.5
      vertex 16.8355 26.1802 -0.5
    endloop
  endfacet
  facet normal 0.248673 0.968587 -0
    outer loop
      vertex 17.4627 25.9319 -0.5
      vertex 17.2438 25.9881 0.5
      vertex 17.4627 25.9319 0.5
    endloop
  endfacet
  facet normal 0.248673 0.968587 0
    outer loop
      vertex 17.2438 25.9881 0.5
      vertex 17.4627 25.9319 -0.5
      vertex 17.2438 25.9881 -0.5
    endloop
  endfacet
  facet normal 0.844098 0.536188 0
    outer loop
      vertex 16.3438 26.642 0.5
      vertex 16.2226 26.8328 -0.5
      vertex 16.2226 26.8328 0.5
    endloop
  endfacet
  facet normal 0.844098 0.536188 0
    outer loop
      vertex 16.2226 26.8328 -0.5
      vertex 16.3438 26.642 0.5
      vertex 16.3438 26.642 -0.5
    endloop
  endfacet
  facet normal 0.951002 0.309186 0
    outer loop
      vertex 16.1264 27.0374 0.5
      vertex 16.0565 27.2524 -0.5
      vertex 16.0565 27.2524 0.5
    endloop
  endfacet
  facet normal 0.951002 0.309186 0
    outer loop
      vertex 16.0565 27.2524 -0.5
      vertex 16.1264 27.0374 0.5
      vertex 16.1264 27.0374 -0.5
    endloop
  endfacet
  facet normal 0.368033 0.929813 -0
    outer loop
      vertex 17.2438 25.9881 -0.5
      vertex 17.0336 26.0713 0.5
      vertex 17.2438 25.9881 0.5
    endloop
  endfacet
  facet normal 0.368033 0.929813 0
    outer loop
      vertex 17.0336 26.0713 0.5
      vertex 17.2438 25.9881 -0.5
      vertex 17.0336 26.0713 -0.5
    endloop
  endfacet
  facet normal 0.125178 0.992134 -0
    outer loop
      vertex 17.687 25.9036 -0.5
      vertex 17.4627 25.9319 0.5
      vertex 17.687 25.9036 0.5
    endloop
  endfacet
  facet normal 0.125178 0.992134 0
    outer loop
      vertex 17.4627 25.9319 0.5
      vertex 17.687 25.9036 -0.5
      vertex 17.4627 25.9319 -0.5
    endloop
  endfacet
  facet normal 0.770537 0.637396 0
    outer loop
      vertex 16.4879 26.4678 0.5
      vertex 16.3438 26.642 -0.5
      vertex 16.3438 26.642 0.5
    endloop
  endfacet
  facet normal 0.770537 0.637396 0
    outer loop
      vertex 16.3438 26.642 -0.5
      vertex 16.4879 26.4678 0.5
      vertex 16.4879 26.4678 -0.5
    endloop
  endfacet
  facet normal 1 -0 0
    outer loop
      vertex 17.8 29.4964 0.5
      vertex 17.8 29.5 -0.5
      vertex 17.8 29.5 0.5
    endloop
  endfacet
  facet normal 1 0 0
    outer loop
      vertex 17.8 29.5 -0.5
      vertex 17.8 29.4964 0.5
      vertex 17.8 29.4964 -0.5
    endloop
  endfacet
  facet normal 1 -0 0
    outer loop
      vertex 17.8 25.9 0.5
      vertex 17.8 25.9036 -0.5
      vertex 17.8 25.9036 0.5
    endloop
  endfacet
  facet normal 1 0 0
    outer loop
      vertex 17.8 25.9036 -0.5
      vertex 17.8 25.9 0.5
      vertex 17.8 25.9 -0.5
    endloop
  endfacet
  facet normal 0 -1 0
    outer loop
      vertex 17.8 29.5 -0.5
      vertex 19 29.5 0.5
      vertex 17.8 29.5 0.5
    endloop
  endfacet
  facet normal 0 -1 -0
    outer loop
      vertex 19 29.5 0.5
      vertex 17.8 29.5 -0.5
      vertex 19 29.5 -0.5
    endloop
  endfacet
  facet normal 0 1 -0
    outer loop
      vertex 19 25.9 -0.5
      vertex 17.8 25.9 0.5
      vertex 19 25.9 0.5
    endloop
  endfacet
  facet normal 0 1 0
    outer loop
      vertex 17.8 25.9 0.5
      vertex 19 25.9 -0.5
      vertex 17.8 25.9 -0.5
    endloop
  endfacet
  facet normal -0.998027 -0.062789 0
    outer loop
      vertex 13 31 -0.5
      vertex 12.9724 31.4387 0.5
      vertex 12.9724 31.4387 -0.5
    endloop
  endfacet
  facet normal -0.998027 -0.062789 0
    outer loop
      vertex 12.9724 31.4387 0.5
      vertex 13 31 -0.5
      vertex 13 31 0.5
    endloop
  endfacet
  facet normal 0.998027 0.062789 0
    outer loop
      vertex 6.0276 30.5613 0.5
      vertex 6 31 -0.5
      vertex 6 31 0.5
    endloop
  endfacet
  facet normal 0.998027 0.062789 0
    outer loop
      vertex 6 31 -0.5
      vertex 6.0276 30.5613 0.5
      vertex 6.0276 30.5613 -0.5
    endloop
  endfacet
  facet normal 0 -1 0
    outer loop
      vertex 9.28023 34.4931 -0.5
      vertex 9.71977 34.4931 0.5
      vertex 9.28023 34.4931 0.5
    endloop
  endfacet
  facet normal 0 -1 -0
    outer loop
      vertex 9.71977 34.4931 0.5
      vertex 9.28023 34.4931 -0.5
      vertex 9.71977 34.4931 -0.5
    endloop
  endfacet
  facet normal -0.684577 -0.728941 0
    outer loop
      vertex 11.731 33.6968 -0.5
      vertex 12.0514 33.3959 0.5
      vertex 11.731 33.6968 0.5
    endloop
  endfacet
  facet normal -0.684577 -0.728941 -0
    outer loop
      vertex 12.0514 33.3959 0.5
      vertex 11.731 33.6968 -0.5
      vertex 12.0514 33.3959 -0.5
    endloop
  endfacet
  facet normal 0.770543 -0.637388 0
    outer loop
      vertex 6.66844 33.0572 0.5
      vertex 6.94861 33.3959 -0.5
      vertex 6.94861 33.3959 0.5
    endloop
  endfacet
  facet normal 0.770543 -0.637388 0
    outer loop
      vertex 6.94861 33.3959 -0.5
      vertex 6.66844 33.0572 0.5
      vertex 6.66844 33.0572 -0.5
    endloop
  endfacet
  facet normal 0.368117 -0.92978 0
    outer loop
      vertex 8.00977 34.1669 -0.5
      vertex 8.41844 34.3287 0.5
      vertex 8.00977 34.1669 0.5
    endloop
  endfacet
  facet normal 0.368117 -0.92978 0
    outer loop
      vertex 8.41844 34.3287 0.5
      vertex 8.00977 34.1669 -0.5
      vertex 8.41844 34.3287 -0.5
    endloop
  endfacet
  facet normal 0.951054 0.309024 0
    outer loop
      vertex 6.24578 29.7116 0.5
      vertex 6.10996 30.1296 -0.5
      vertex 6.10996 30.1296 0.5
    endloop
  endfacet
  facet normal 0.951054 0.309024 0
    outer loop
      vertex 6.10996 30.1296 -0.5
      vertex 6.24578 29.7116 0.5
      vertex 6.24578 29.7116 -0.5
    endloop
  endfacet
  facet normal -0.904865 -0.425698 0
    outer loop
      vertex 12.7542 32.2884 -0.5
      vertex 12.5671 32.6861 0.5
      vertex 12.5671 32.6861 -0.5
    endloop
  endfacet
  facet normal -0.904865 -0.425698 0
    outer loop
      vertex 12.5671 32.6861 0.5
      vertex 12.7542 32.2884 -0.5
      vertex 12.7542 32.2884 0.5
    endloop
  endfacet
  facet normal -0.982267 -0.187488 0
    outer loop
      vertex 12.9724 31.4387 -0.5
      vertex 12.89 31.8704 0.5
      vertex 12.89 31.8704 -0.5
    endloop
  endfacet
  facet normal -0.982267 -0.187488 0
    outer loop
      vertex 12.89 31.8704 0.5
      vertex 12.9724 31.4387 -0.5
      vertex 12.9724 31.4387 0.5
    endloop
  endfacet
  facet normal -0.844335 -0.535815 0
    outer loop
      vertex 12.5671 32.6861 -0.5
      vertex 12.3316 33.0572 0.5
      vertex 12.3316 33.0572 -0.5
    endloop
  endfacet
  facet normal -0.844335 -0.535815 0
    outer loop
      vertex 12.3316 33.0572 0.5
      vertex 12.5671 32.6861 -0.5
      vertex 12.5671 32.6861 0.5
    endloop
  endfacet
  facet normal -0.368171 -0.929758 0
    outer loop
      vertex 10.5816 34.3287 -0.5
      vertex 10.9902 34.1669 0.5
      vertex 10.5816 34.3287 0.5
    endloop
  endfacet
  facet normal -0.368171 -0.929758 -0
    outer loop
      vertex 10.9902 34.1669 0.5
      vertex 10.5816 34.3287 -0.5
      vertex 10.9902 34.1669 -0.5
    endloop
  endfacet
  facet normal -0.481814 -0.876274 0
    outer loop
      vertex 10.9902 34.1669 -0.5
      vertex 11.3754 33.9551 0.5
      vertex 10.9902 34.1669 0.5
    endloop
  endfacet
  facet normal -0.481814 -0.876274 -0
    outer loop
      vertex 11.3754 33.9551 0.5
      vertex 10.9902 34.1669 -0.5
      vertex 11.3754 33.9551 -0.5
    endloop
  endfacet
  facet normal 0.951054 -0.309024 0
    outer loop
      vertex 6.10996 31.8704 0.5
      vertex 6.24578 32.2884 -0.5
      vertex 6.24578 32.2884 0.5
    endloop
  endfacet
  facet normal 0.951054 -0.309024 0
    outer loop
      vertex 6.24578 32.2884 -0.5
      vertex 6.10996 31.8704 0.5
      vertex 6.10996 31.8704 -0.5
    endloop
  endfacet
  facet normal 0.904821 -0.425792 0
    outer loop
      vertex 6.24578 32.2884 0.5
      vertex 6.43293 32.6861 -0.5
      vertex 6.43293 32.6861 0.5
    endloop
  endfacet
  facet normal 0.904821 -0.425792 0
    outer loop
      vertex 6.43293 32.6861 -0.5
      vertex 6.24578 32.2884 0.5
      vertex 6.24578 32.2884 -0.5
    endloop
  endfacet
  facet normal 0.982284 -0.187401 0
    outer loop
      vertex 6.0276 31.4387 0.5
      vertex 6.10996 31.8704 -0.5
      vertex 6.10996 31.8704 0.5
    endloop
  endfacet
  facet normal 0.982284 -0.187401 0
    outer loop
      vertex 6.10996 31.8704 -0.5
      vertex 6.0276 31.4387 0.5
      vertex 6.0276 31.4387 -0.5
    endloop
  endfacet
  facet normal 0.248676 -0.968587 0
    outer loop
      vertex 8.41844 34.3287 -0.5
      vertex 8.84416 34.438 0.5
      vertex 8.41844 34.3287 0.5
    endloop
  endfacet
  facet normal 0.248676 -0.968587 0
    outer loop
      vertex 8.84416 34.438 0.5
      vertex 8.41844 34.3287 -0.5
      vertex 8.84416 34.438 -0.5
    endloop
  endfacet
  facet normal -0.77051 0.637428 0
    outer loop
      vertex 12.0514 28.6041 -0.5
      vertex 12.3316 28.9428 0.5
      vertex 12.3316 28.9428 -0.5
    endloop
  endfacet
  facet normal -0.77051 0.637428 0
    outer loop
      vertex 12.3316 28.9428 0.5
      vertex 12.0514 28.6041 -0.5
      vertex 12.0514 28.6041 0.5
    endloop
  endfacet
  facet normal -0.904865 0.425698 0
    outer loop
      vertex 12.5671 29.3139 -0.5
      vertex 12.7542 29.7116 0.5
      vertex 12.7542 29.7116 -0.5
    endloop
  endfacet
  facet normal -0.904865 0.425698 0
    outer loop
      vertex 12.7542 29.7116 0.5
      vertex 12.5671 29.3139 -0.5
      vertex 12.5671 29.3139 0.5
    endloop
  endfacet
  facet normal 0.248676 0.968587 -0
    outer loop
      vertex 8.84416 27.562 -0.5
      vertex 8.41844 27.6713 0.5
      vertex 8.84416 27.562 0.5
    endloop
  endfacet
  facet normal 0.248676 0.968587 0
    outer loop
      vertex 8.41844 27.6713 0.5
      vertex 8.84416 27.562 -0.5
      vertex 8.41844 27.6713 -0.5
    endloop
  endfacet
  facet normal 0.844325 0.535831 0
    outer loop
      vertex 6.66844 28.9428 0.5
      vertex 6.43293 29.3139 -0.5
      vertex 6.43293 29.3139 0.5
    endloop
  endfacet
  facet normal 0.844325 0.535831 0
    outer loop
      vertex 6.43293 29.3139 -0.5
      vertex 6.66844 28.9428 0.5
      vertex 6.66844 28.9428 -0.5
    endloop
  endfacet
  facet normal 0.770543 0.637388 0
    outer loop
      vertex 6.94861 28.6041 0.5
      vertex 6.66844 28.9428 -0.5
      vertex 6.66844 28.9428 0.5
    endloop
  endfacet
  facet normal 0.770543 0.637388 0
    outer loop
      vertex 6.66844 28.9428 -0.5
      vertex 6.94861 28.6041 0.5
      vertex 6.94861 28.6041 -0.5
    endloop
  endfacet
  facet normal 0.982284 0.187401 0
    outer loop
      vertex 6.10996 30.1296 0.5
      vertex 6.0276 30.5613 -0.5
      vertex 6.0276 30.5613 0.5
    endloop
  endfacet
  facet normal 0.982284 0.187401 0
    outer loop
      vertex 6.0276 30.5613 -0.5
      vertex 6.10996 30.1296 0.5
      vertex 6.10996 30.1296 -0.5
    endloop
  endfacet
  facet normal -0.951068 -0.308983 0
    outer loop
      vertex 12.89 31.8704 -0.5
      vertex 12.7542 32.2884 0.5
      vertex 12.7542 32.2884 -0.5
    endloop
  endfacet
  facet normal -0.951068 -0.308983 0
    outer loop
      vertex 12.7542 32.2884 0.5
      vertex 12.89 31.8704 -0.5
      vertex 12.89 31.8704 0.5
    endloop
  endfacet
  facet normal -0.77051 -0.637428 0
    outer loop
      vertex 12.3316 33.0572 -0.5
      vertex 12.0514 33.3959 0.5
      vertex 12.0514 33.3959 -0.5
    endloop
  endfacet
  facet normal -0.77051 -0.637428 0
    outer loop
      vertex 12.0514 33.3959 0.5
      vertex 12.3316 33.0572 -0.5
      vertex 12.3316 33.0572 0.5
    endloop
  endfacet
  facet normal -0.12537 -0.99211 0
    outer loop
      vertex 9.71977 34.4931 -0.5
      vertex 10.1558 34.438 0.5
      vertex 9.71977 34.4931 0.5
    endloop
  endfacet
  facet normal -0.12537 -0.99211 -0
    outer loop
      vertex 10.1558 34.438 0.5
      vertex 9.71977 34.4931 -0.5
      vertex 10.1558 34.438 -0.5
    endloop
  endfacet
  facet normal -0.587698 -0.80908 0
    outer loop
      vertex 11.3754 33.9551 -0.5
      vertex 11.731 33.6968 0.5
      vertex 11.3754 33.9551 0.5
    endloop
  endfacet
  facet normal -0.587698 -0.80908 -0
    outer loop
      vertex 11.731 33.6968 0.5
      vertex 11.3754 33.9551 -0.5
      vertex 11.731 33.6968 -0.5
    endloop
  endfacet
  facet normal 0.844325 -0.535831 0
    outer loop
      vertex 6.43293 32.6861 0.5
      vertex 6.66844 33.0572 -0.5
      vertex 6.66844 33.0572 0.5
    endloop
  endfacet
  facet normal 0.844325 -0.535831 0
    outer loop
      vertex 6.66844 33.0572 -0.5
      vertex 6.43293 32.6861 0.5
      vertex 6.43293 32.6861 -0.5
    endloop
  endfacet
  facet normal 0.998027 -0.062789 0
    outer loop
      vertex 6 31 0.5
      vertex 6.0276 31.4387 -0.5
      vertex 6.0276 31.4387 0.5
    endloop
  endfacet
  facet normal 0.998027 -0.062789 0
    outer loop
      vertex 6.0276 31.4387 -0.5
      vertex 6 31 0.5
      vertex 6 31 -0.5
    endloop
  endfacet
  facet normal 0.587709 -0.809072 0
    outer loop
      vertex 7.26902 33.6968 -0.5
      vertex 7.62461 33.9551 0.5
      vertex 7.26902 33.6968 0.5
    endloop
  endfacet
  facet normal 0.587709 -0.809072 0
    outer loop
      vertex 7.62461 33.9551 0.5
      vertex 7.26902 33.6968 -0.5
      vertex 7.62461 33.9551 -0.5
    endloop
  endfacet
  facet normal 0.684565 -0.728952 0
    outer loop
      vertex 6.94861 33.3959 -0.5
      vertex 7.26902 33.6968 0.5
      vertex 6.94861 33.3959 0.5
    endloop
  endfacet
  facet normal 0.684565 -0.728952 0
    outer loop
      vertex 7.26902 33.6968 0.5
      vertex 6.94861 33.3959 -0.5
      vertex 7.26902 33.6968 -0.5
    endloop
  endfacet
  facet normal 0.125359 -0.992111 0
    outer loop
      vertex 8.84416 34.438 -0.5
      vertex 9.28023 34.4931 0.5
      vertex 8.84416 34.438 0.5
    endloop
  endfacet
  facet normal 0.125359 -0.992111 0
    outer loop
      vertex 9.28023 34.4931 0.5
      vertex 8.84416 34.438 -0.5
      vertex 9.28023 34.4931 -0.5
    endloop
  endfacet
  facet normal -0.12537 0.99211 0
    outer loop
      vertex 10.1558 27.562 -0.5
      vertex 9.71977 27.5069 0.5
      vertex 10.1558 27.562 0.5
    endloop
  endfacet
  facet normal -0.12537 0.99211 0
    outer loop
      vertex 9.71977 27.5069 0.5
      vertex 10.1558 27.562 -0.5
      vertex 9.71977 27.5069 -0.5
    endloop
  endfacet
  facet normal -0.368171 0.929758 0
    outer loop
      vertex 10.9902 27.8331 -0.5
      vertex 10.5816 27.6713 0.5
      vertex 10.9902 27.8331 0.5
    endloop
  endfacet
  facet normal -0.368171 0.929758 0
    outer loop
      vertex 10.5816 27.6713 0.5
      vertex 10.9902 27.8331 -0.5
      vertex 10.5816 27.6713 -0.5
    endloop
  endfacet
  facet normal -0.481814 0.876274 0
    outer loop
      vertex 11.3754 28.0449 -0.5
      vertex 10.9902 27.8331 0.5
      vertex 11.3754 28.0449 0.5
    endloop
  endfacet
  facet normal -0.481814 0.876274 0
    outer loop
      vertex 10.9902 27.8331 0.5
      vertex 11.3754 28.0449 -0.5
      vertex 10.9902 27.8331 -0.5
    endloop
  endfacet
  facet normal -0.684577 0.728941 0
    outer loop
      vertex 12.0514 28.6041 -0.5
      vertex 11.731 28.3032 0.5
      vertex 12.0514 28.6041 0.5
    endloop
  endfacet
  facet normal -0.684577 0.728941 0
    outer loop
      vertex 11.731 28.3032 0.5
      vertex 12.0514 28.6041 -0.5
      vertex 11.731 28.3032 -0.5
    endloop
  endfacet
  facet normal -0.587698 0.80908 0
    outer loop
      vertex 11.731 28.3032 -0.5
      vertex 11.3754 28.0449 0.5
      vertex 11.731 28.3032 0.5
    endloop
  endfacet
  facet normal -0.587698 0.80908 0
    outer loop
      vertex 11.3754 28.0449 0.5
      vertex 11.731 28.3032 -0.5
      vertex 11.3754 28.0449 -0.5
    endloop
  endfacet
  facet normal -0.951068 0.308983 0
    outer loop
      vertex 12.7542 29.7116 -0.5
      vertex 12.89 30.1296 0.5
      vertex 12.89 30.1296 -0.5
    endloop
  endfacet
  facet normal -0.951068 0.308983 0
    outer loop
      vertex 12.89 30.1296 0.5
      vertex 12.7542 29.7116 -0.5
      vertex 12.7542 29.7116 0.5
    endloop
  endfacet
  facet normal -0.844335 0.535815 0
    outer loop
      vertex 12.3316 28.9428 -0.5
      vertex 12.5671 29.3139 0.5
      vertex 12.5671 29.3139 -0.5
    endloop
  endfacet
  facet normal -0.844335 0.535815 0
    outer loop
      vertex 12.5671 29.3139 0.5
      vertex 12.3316 28.9428 -0.5
      vertex 12.3316 28.9428 0.5
    endloop
  endfacet
  facet normal 0.481852 0.876252 -0
    outer loop
      vertex 8.00977 27.8331 -0.5
      vertex 7.62461 28.0449 0.5
      vertex 8.00977 27.8331 0.5
    endloop
  endfacet
  facet normal 0.481852 0.876252 0
    outer loop
      vertex 7.62461 28.0449 0.5
      vertex 8.00977 27.8331 -0.5
      vertex 7.62461 28.0449 -0.5
    endloop
  endfacet
  facet normal 0.587709 0.809072 -0
    outer loop
      vertex 7.62461 28.0449 -0.5
      vertex 7.26902 28.3032 0.5
      vertex 7.62461 28.0449 0.5
    endloop
  endfacet
  facet normal 0.587709 0.809072 0
    outer loop
      vertex 7.26902 28.3032 0.5
      vertex 7.62461 28.0449 -0.5
      vertex 7.26902 28.3032 -0.5
    endloop
  endfacet
  facet normal 0.368117 0.92978 -0
    outer loop
      vertex 8.41844 27.6713 -0.5
      vertex 8.00977 27.8331 0.5
      vertex 8.41844 27.6713 0.5
    endloop
  endfacet
  facet normal 0.368117 0.92978 0
    outer loop
      vertex 8.00977 27.8331 0.5
      vertex 8.41844 27.6713 -0.5
      vertex 8.00977 27.8331 -0.5
    endloop
  endfacet
  facet normal 0 1 -0
    outer loop
      vertex 9.71977 27.5069 -0.5
      vertex 9.28023 27.5069 0.5
      vertex 9.71977 27.5069 0.5
    endloop
  endfacet
  facet normal 0 1 0
    outer loop
      vertex 9.28023 27.5069 0.5
      vertex 9.71977 27.5069 -0.5
      vertex 9.28023 27.5069 -0.5
    endloop
  endfacet
  facet normal 0.684565 0.728952 -0
    outer loop
      vertex 7.26902 28.3032 -0.5
      vertex 6.94861 28.6041 0.5
      vertex 7.26902 28.3032 0.5
    endloop
  endfacet
  facet normal 0.684565 0.728952 0
    outer loop
      vertex 6.94861 28.6041 0.5
      vertex 7.26902 28.3032 -0.5
      vertex 6.94861 28.6041 -0.5
    endloop
  endfacet
  facet normal 0.904821 0.425792 0
    outer loop
      vertex 6.43293 29.3139 0.5
      vertex 6.24578 29.7116 -0.5
      vertex 6.24578 29.7116 0.5
    endloop
  endfacet
  facet normal 0.904821 0.425792 0
    outer loop
      vertex 6.24578 29.7116 -0.5
      vertex 6.43293 29.3139 0.5
      vertex 6.43293 29.3139 -0.5
    endloop
  endfacet
  facet normal -0.248633 -0.968598 0
    outer loop
      vertex 10.1558 34.438 -0.5
      vertex 10.5816 34.3287 0.5
      vertex 10.1558 34.438 0.5
    endloop
  endfacet
  facet normal -0.248633 -0.968598 -0
    outer loop
      vertex 10.5816 34.3287 0.5
      vertex 10.1558 34.438 -0.5
      vertex 10.5816 34.3287 -0.5
    endloop
  endfacet
  facet normal 0.481852 -0.876252 0
    outer loop
      vertex 7.62461 33.9551 -0.5
      vertex 8.00977 34.1669 0.5
      vertex 7.62461 33.9551 0.5
    endloop
  endfacet
  facet normal 0.481852 -0.876252 0
    outer loop
      vertex 8.00977 34.1669 0.5
      vertex 7.62461 33.9551 -0.5
      vertex 8.00977 34.1669 -0.5
    endloop
  endfacet
  facet normal -0.248633 0.968598 0
    outer loop
      vertex 10.5816 27.6713 -0.5
      vertex 10.1558 27.562 0.5
      vertex 10.5816 27.6713 0.5
    endloop
  endfacet
  facet normal -0.248633 0.968598 0
    outer loop
      vertex 10.1558 27.562 0.5
      vertex 10.5816 27.6713 -0.5
      vertex 10.1558 27.562 -0.5
    endloop
  endfacet
  facet normal -0.982267 0.187488 0
    outer loop
      vertex 12.89 30.1296 -0.5
      vertex 12.9724 30.5613 0.5
      vertex 12.9724 30.5613 -0.5
    endloop
  endfacet
  facet normal -0.982267 0.187488 0
    outer loop
      vertex 12.9724 30.5613 0.5
      vertex 12.89 30.1296 -0.5
      vertex 12.89 30.1296 0.5
    endloop
  endfacet
  facet normal 0.125359 0.992111 -0
    outer loop
      vertex 9.28023 27.5069 -0.5
      vertex 8.84416 27.562 0.5
      vertex 9.28023 27.5069 0.5
    endloop
  endfacet
  facet normal 0.125359 0.992111 0
    outer loop
      vertex 8.84416 27.562 0.5
      vertex 9.28023 27.5069 -0.5
      vertex 8.84416 27.562 -0.5
    endloop
  endfacet
  facet normal -0.998027 0.062789 0
    outer loop
      vertex 12.9724 30.5613 -0.5
      vertex 13 31 0.5
      vertex 13 31 -0.5
    endloop
  endfacet
  facet normal -0.998027 0.062789 0
    outer loop
      vertex 13 31 0.5
      vertex 12.9724 30.5613 -0.5
      vertex 12.9724 30.5613 0.5
    endloop
  endfacet
  facet normal -0.173648 0 0.984808
    outer loop
      vertex 0 62 0
      vertex 2.83564 2.26851 0.5
      vertex 2.83564 59.7315 0.5
    endloop
  endfacet
  facet normal -0.173648 0 0.984808
    outer loop
      vertex 2.83564 2.26851 0.5
      vertex 0 62 0
      vertex 0 0 0
    endloop
  endfacet
  facet normal -0.173648 0 -0.984808
    outer loop
      vertex 0 0 0
      vertex 2.83564 59.7315 -0.5
      vertex 2.83564 2.26851 -0.5
    endloop
  endfacet
  facet normal -0.173648 0 -0.984808
    outer loop
      vertex 2.83564 59.7315 -0.5
      vertex 0 0 0
      vertex 0 62 0
    endloop
  endfacet
endsolid OpenSCAD_Model
